<svg width="238" height="208" viewBox="0 0 238 208" fill="none" xmlns="http://www.w3.org/2000/svg">
<g clip-path="url(#clip0_1203_4474)">
<path d="M169.066 206.512C168.976 205.711 169.554 204.991 170.357 204.901C171.157 204.813 171.878 205.387 171.969 206.189C172.057 206.987 171.481 207.71 170.681 207.797C170.626 207.803 170.57 207.806 170.515 207.806C169.782 207.806 169.151 207.255 169.066 206.512ZM75.8065 207.509C75.0268 207.302 74.5654 206.504 74.7727 205.725C74.9801 204.947 75.7802 204.487 76.56 204.694C77.3397 204.901 77.8011 205.699 77.5937 206.477C77.4185 207.13 76.8286 207.558 76.1832 207.558C76.0577 207.558 75.9321 207.544 75.8065 207.509ZM79.3868 206.466C79.1736 205.69 79.6292 204.889 80.406 204.673C81.1828 204.458 81.9859 204.912 82.202 205.688C82.4181 206.463 81.9625 207.267 81.1857 207.483C81.0543 207.518 80.9229 207.535 80.7944 207.535C80.1548 207.535 79.5679 207.113 79.3868 206.466ZM165.387 206.976C164.645 206.661 164.3 205.804 164.616 205.064C164.934 204.324 165.793 203.98 166.534 204.295C167.276 204.609 167.621 205.466 167.305 206.206C167.069 206.76 166.528 207.092 165.959 207.092C165.769 207.092 165.574 207.054 165.387 206.976ZM173.628 205.524C173.198 204.842 173.406 203.945 174.089 203.517C174.773 203.088 175.675 203.295 176.104 203.977C176.533 204.656 176.326 205.556 175.643 205.985C175.4 206.136 175.132 206.206 174.869 206.206C174.381 206.206 173.908 205.964 173.631 205.524H173.628ZM71.1516 205.116C70.5208 204.615 70.4186 203.697 70.9209 203.068C71.4261 202.441 72.343 202.339 72.9738 202.84C73.6046 203.342 73.7068 204.26 73.2045 204.886C72.9154 205.248 72.4891 205.434 72.0627 205.434C71.7415 205.434 71.4202 205.332 71.1516 205.116ZM83.7527 204.825C83.2591 204.187 83.3789 203.272 84.0184 202.779C84.6579 202.29 85.5749 202.412 86.0684 203.05C86.5591 203.688 86.4393 204.601 85.7998 205.09C85.534 205.294 85.2216 205.393 84.9091 205.393C84.4711 205.393 84.0388 205.198 83.7527 204.825ZM161.105 204.169C160.504 203.633 160.451 202.712 160.989 202.112C161.526 201.512 162.449 201.459 163.05 201.995C163.652 202.532 163.705 203.452 163.167 204.053C162.878 204.376 162.478 204.539 162.078 204.539C161.73 204.539 161.383 204.417 161.105 204.169ZM177.377 202.753C176.732 202.272 176.604 201.357 177.088 200.713C177.573 200.072 178.487 199.941 179.132 200.425C179.775 200.908 179.906 201.82 179.422 202.465C179.135 202.846 178.697 203.047 178.253 203.047C177.95 203.047 177.64 202.951 177.377 202.753ZM87.3096 201.803C86.6934 201.281 86.6145 200.363 87.1373 199.749C87.6571 199.134 88.5799 199.058 89.1932 199.577C89.8093 200.095 89.8882 201.016 89.3655 201.628C89.0764 201.972 88.6646 202.147 88.2499 202.147C87.917 202.147 87.5841 202.033 87.3096 201.803ZM67.7699 201.264C67.3377 200.582 67.545 199.684 68.2283 199.256C68.9117 198.828 69.8141 199.035 70.2404 199.714C70.6697 200.395 70.4653 201.296 69.7819 201.724C69.5396 201.876 69.2709 201.946 69.0051 201.946C68.5204 201.946 68.0444 201.704 67.7699 201.264ZM157.768 200.541C157.274 199.906 157.391 198.991 158.028 198.498C158.667 198.006 159.584 198.12 160.078 198.758C160.571 199.393 160.454 200.308 159.818 200.801C159.552 201.007 159.237 201.107 158.924 201.107C158.486 201.107 158.057 200.911 157.768 200.541ZM179.968 198.877C179.223 198.565 178.873 197.712 179.185 196.968C179.495 196.228 180.35 195.879 181.095 196.187C181.84 196.499 182.19 197.353 181.878 198.096C181.641 198.653 181.101 198.991 180.528 198.991C180.342 198.991 180.152 198.953 179.968 198.877ZM90.224 198.152C89.5465 197.717 89.3509 196.814 89.7889 196.138C90.227 195.462 91.1293 195.27 91.8068 195.707C92.4843 196.141 92.68 197.044 92.242 197.72C91.9616 198.152 91.4944 198.388 91.0154 198.388C90.7438 198.388 90.4693 198.312 90.224 198.152ZM65.6264 196.782C65.3548 196.024 65.749 195.191 66.5054 194.917C67.2646 194.643 68.1028 195.036 68.3744 195.794C68.646 196.552 68.2546 197.385 67.4954 197.659C67.3318 197.717 67.1654 197.747 67.0018 197.747C66.4032 197.747 65.8425 197.376 65.6264 196.782ZM155.043 196.552C154.625 195.864 154.844 194.966 155.534 194.55C156.223 194.133 157.119 194.352 157.54 195.039C157.957 195.727 157.738 196.625 157.046 197.041C156.81 197.184 156.55 197.254 156.293 197.254C155.799 197.251 155.317 197.003 155.043 196.552ZM181.624 194.515C180.841 194.32 180.365 193.527 180.563 192.746C180.759 191.968 181.553 191.493 182.333 191.688C183.116 191.886 183.592 192.679 183.393 193.457C183.227 194.118 182.631 194.561 181.977 194.561C181.86 194.561 181.74 194.547 181.621 194.515H181.624ZM92.6858 194.185C91.9733 193.81 91.6988 192.927 92.0755 192.215C92.4522 191.504 93.3371 191.233 94.0496 191.609C94.7622 191.982 95.0367 192.865 94.66 193.576C94.3971 194.072 93.8919 194.354 93.3663 194.354C93.1356 194.354 92.9019 194.299 92.6858 194.185ZM64.3035 192.113C64.1312 191.327 64.6276 190.552 65.4161 190.38C66.2046 190.208 66.9814 190.706 67.1537 191.49C67.3289 192.277 66.8295 193.052 66.041 193.227C65.9359 193.247 65.8308 193.259 65.7286 193.259C65.0569 193.259 64.4524 192.795 64.3006 192.113H64.3035ZM152.73 192.361C152.368 191.644 152.66 190.767 153.381 190.406C154.103 190.044 154.979 190.336 155.341 191.056C155.703 191.773 155.411 192.65 154.69 193.011C154.479 193.116 154.257 193.166 154.035 193.166C153.501 193.166 152.987 192.871 152.73 192.361ZM94.8118 190.027C94.0759 189.701 93.7459 188.841 94.073 188.104C94.4001 187.369 95.2645 187.04 96.0004 187.366C96.7363 187.693 97.0692 188.555 96.7421 189.29C96.4998 189.832 95.9653 190.155 95.4046 190.155C95.209 190.155 95.0046 190.114 94.8118 190.027ZM182.669 189.969C181.872 189.843 181.326 189.1 181.451 188.305C181.574 187.509 182.321 186.964 183.119 187.09C183.916 187.215 184.459 187.958 184.336 188.754C184.223 189.473 183.601 189.986 182.894 189.986C182.821 189.986 182.745 189.98 182.669 189.969ZM150.733 188.04C150.417 187.299 150.762 186.446 151.504 186.131C152.245 185.816 153.104 186.16 153.419 186.903C153.735 187.643 153.387 188.497 152.645 188.812C152.459 188.89 152.266 188.928 152.076 188.928C151.506 188.928 150.966 188.596 150.733 188.04ZM63.4829 187.404C63.3748 186.606 63.9326 185.871 64.7298 185.764C65.53 185.653 66.2659 186.212 66.3769 187.008C66.4849 187.806 65.9272 188.541 65.127 188.649C65.0598 188.66 64.9927 188.663 64.9284 188.663C64.21 188.663 63.5822 188.136 63.4829 187.404ZM96.6662 185.746C95.9099 185.463 95.5273 184.624 95.8076 183.869C96.0909 183.118 96.932 182.733 97.6883 183.016C98.4447 183.298 98.8272 184.138 98.544 184.892C98.3249 185.475 97.7672 185.839 97.1773 185.839C97.005 185.839 96.8327 185.807 96.6662 185.746ZM183.329 185.35C182.529 185.268 181.942 184.554 182.024 183.753C182.105 182.951 182.821 182.369 183.624 182.45C184.427 182.532 185.011 183.246 184.929 184.047C184.853 184.796 184.22 185.356 183.478 185.356C183.428 185.356 183.379 185.353 183.329 185.35ZM149.007 183.616C148.735 182.855 149.132 182.022 149.892 181.754C150.654 181.486 151.486 181.882 151.758 182.64C152.026 183.397 151.629 184.231 150.87 184.499C150.709 184.557 150.543 184.583 150.382 184.583C149.781 184.583 149.217 184.21 149.007 183.616ZM62.9572 182.701C62.8813 181.902 63.4741 181.191 64.2772 181.118C65.0803 181.046 65.7899 181.634 65.8629 182.436C65.9359 183.237 65.3431 183.948 64.54 184.021C64.4962 184.024 64.4495 184.027 64.4057 184.027C63.6581 184.027 63.0215 183.459 62.9543 182.701H62.9572ZM98.2519 181.36C97.4839 181.118 97.0546 180.303 97.297 179.533C97.5394 178.767 98.36 178.338 99.128 178.58C99.8961 178.822 100.325 179.638 100.083 180.407C99.8873 181.028 99.312 181.427 98.69 181.427C98.5469 181.427 98.3979 181.407 98.2519 181.36ZM183.77 180.702C182.967 180.641 182.365 179.938 182.43 179.137C182.494 178.335 183.198 177.735 184.001 177.796C184.804 177.86 185.405 178.563 185.341 179.364C185.283 180.128 184.643 180.708 183.89 180.708C183.852 180.708 183.811 180.705 183.773 180.702H183.77ZM147.535 179.114C147.304 178.341 147.742 177.528 148.516 177.298C149.287 177.068 150.102 177.505 150.333 178.277C150.563 179.047 150.125 179.86 149.351 180.09C149.211 180.131 149.071 180.151 148.934 180.151C148.306 180.151 147.725 179.743 147.535 179.114ZM62.5717 178.032C62.5104 177.231 63.112 176.529 63.9151 176.465C64.7181 176.403 65.4219 177.004 65.4833 177.805C65.5475 178.606 64.9459 179.309 64.1429 179.37C64.102 179.373 64.064 179.376 64.026 179.376C63.2726 179.376 62.6331 178.796 62.5717 178.032ZM99.6128 176.899C98.8331 176.692 98.3717 175.893 98.579 175.115C98.7864 174.337 99.5865 173.877 100.366 174.084C101.143 174.294 101.607 175.092 101.397 175.87H101.4C101.225 176.52 100.635 176.948 99.9895 176.948C99.8639 176.948 99.7354 176.934 99.6099 176.899H99.6128ZM184.129 176.051C183.326 175.975 182.736 175.261 182.815 174.463C182.891 173.661 183.603 173.073 184.407 173.148C185.21 173.224 185.797 173.935 185.721 174.736C185.648 175.491 185.014 176.057 184.269 176.057C184.223 176.057 184.176 176.054 184.129 176.051ZM146.273 174.565C146.072 173.784 146.542 172.991 147.322 172.79C148.104 172.592 148.899 173.061 149.1 173.839C149.302 174.62 148.831 175.413 148.049 175.614C147.926 175.643 147.806 175.66 147.684 175.657C147.036 175.657 146.443 175.22 146.273 174.565ZM62.1629 173.411C62.087 172.609 62.6739 171.898 63.477 171.819C64.2801 171.744 64.9927 172.329 65.0715 173.131C65.1474 173.932 64.5605 174.643 63.7603 174.722C63.7106 174.725 63.6639 174.728 63.6172 174.728C62.8725 174.728 62.2388 174.165 62.1629 173.411ZM100.79 172.388C100.004 172.204 99.5164 171.42 99.7033 170.636C99.8844 169.852 100.673 169.366 101.455 169.549C102.241 169.733 102.729 170.517 102.545 171.301C102.387 171.974 101.788 172.426 101.126 172.426C101.015 172.426 100.904 172.414 100.79 172.388ZM184.576 171.409C183.773 171.336 183.18 170.628 183.253 169.826C183.323 169.025 184.033 168.433 184.836 168.506C185.642 168.576 186.235 169.284 186.162 170.088C186.094 170.846 185.455 171.414 184.707 171.414C184.666 171.414 184.62 171.411 184.576 171.409ZM145.169 169.989C144.991 169.205 145.485 168.424 146.27 168.247C147.056 168.069 147.839 168.561 148.017 169.348C148.195 170.132 147.701 170.913 146.916 171.091C146.808 171.114 146.7 171.126 146.592 171.126C145.926 171.126 145.321 170.668 145.169 169.989ZM61.7365 168.754C61.6664 167.952 62.2622 167.247 63.0653 167.177C63.8683 167.104 64.5751 167.699 64.6451 168.5C64.7152 169.302 64.1224 170.01 63.3193 170.08C63.2755 170.083 63.2317 170.086 63.1908 170.086C62.4403 170.086 61.8037 169.514 61.7365 168.754ZM101.832 167.842C101.044 167.676 100.541 166.903 100.708 166.114C100.874 165.327 101.651 164.823 102.44 164.992C103.228 165.158 103.73 165.93 103.564 166.72C103.418 167.405 102.813 167.874 102.139 167.874C102.037 167.874 101.934 167.862 101.832 167.842ZM184.985 166.763C184.182 166.696 183.586 165.994 183.653 165.19C183.72 164.388 184.424 163.794 185.227 163.858C186.03 163.925 186.629 164.63 186.562 165.432C186.497 166.195 185.861 166.769 185.107 166.769C185.067 166.769 185.026 166.766 184.985 166.763ZM144.177 165.408C144.013 164.619 144.518 163.849 145.31 163.686C146.098 163.52 146.872 164.027 147.036 164.817C147.199 165.604 146.691 166.376 145.902 166.539C145.803 166.559 145.704 166.568 145.605 166.568C144.927 166.568 144.32 166.096 144.177 165.408ZM61.3423 164.1C61.278 163.298 61.8738 162.596 62.6798 162.529C63.4829 162.462 64.1867 163.06 64.2538 163.861C64.321 164.662 63.7223 165.368 62.9192 165.435C62.8784 165.435 62.8375 165.435 62.7966 165.435C62.0461 165.435 61.4065 164.86 61.3423 164.097V164.1ZM102.79 163.278C101.999 163.118 101.488 162.351 101.645 161.562C101.803 160.772 102.574 160.262 103.362 160.419C104.154 160.58 104.668 161.346 104.507 162.136C104.37 162.826 103.76 163.307 103.076 163.307C102.983 163.307 102.886 163.296 102.79 163.278ZM185.37 162.118C184.567 162.051 183.969 161.346 184.036 160.545C184.103 159.743 184.807 159.146 185.61 159.213C186.416 159.277 187.011 159.982 186.947 160.784C186.883 161.544 186.246 162.121 185.493 162.121C185.452 162.121 185.411 162.121 185.37 162.118ZM143.245 160.827C143.087 160.038 143.601 159.268 144.393 159.111C145.184 158.954 145.952 159.466 146.11 160.256C146.267 161.046 145.753 161.812 144.962 161.97C144.866 161.99 144.772 161.999 144.676 161.999C143.993 161.999 143.385 161.518 143.245 160.827ZM60.9597 159.455C60.8926 158.653 61.4912 157.948 62.2943 157.881C63.0974 157.817 63.8041 158.411 63.8713 159.213C63.9355 160.014 63.3398 160.719 62.5367 160.787C62.4958 160.789 62.4549 160.792 62.414 160.792C61.6606 160.792 61.024 160.215 60.9597 159.455ZM103.704 158.706C102.913 158.546 102.399 157.779 102.556 156.989C102.717 156.2 103.485 155.69 104.277 155.847C105.068 156.004 105.579 156.771 105.421 157.563C105.284 158.254 104.674 158.735 103.99 158.735C103.897 158.735 103.8 158.723 103.704 158.706ZM185.756 157.47C184.953 157.4 184.357 156.695 184.427 155.894C184.497 155.089 185.204 154.498 186.007 154.568C186.81 154.635 187.406 155.343 187.339 156.144C187.271 156.902 186.632 157.476 185.881 157.476C185.84 157.476 185.8 157.473 185.756 157.47ZM142.331 156.258C142.173 155.468 142.684 154.699 143.476 154.542C144.264 154.381 145.035 154.891 145.196 155.681C145.353 156.471 144.842 157.237 144.051 157.397C143.955 157.418 143.858 157.427 143.762 157.427C143.081 157.427 142.471 156.949 142.331 156.258ZM60.5626 154.818C60.4925 154.017 61.0853 153.309 61.8884 153.236C62.6915 153.166 63.4011 153.758 63.4712 154.559C63.5442 155.36 62.9485 156.069 62.1454 156.138C62.1016 156.144 62.0578 156.144 62.014 156.144C61.2664 156.144 60.6297 155.576 60.5626 154.818ZM104.624 154.134C103.836 153.967 103.33 153.195 103.494 152.408C103.66 151.622 104.434 151.117 105.223 151.281C106.014 151.447 106.519 152.219 106.353 153.006C106.207 153.694 105.602 154.166 104.925 154.166C104.826 154.166 104.723 154.154 104.624 154.134ZM141.388 151.709C141.218 150.922 141.721 150.147 142.506 149.978C143.298 149.809 144.071 150.31 144.241 151.097C144.41 151.884 143.911 152.659 143.122 152.828C143.017 152.848 142.915 152.86 142.813 152.86C142.141 152.86 141.534 152.391 141.388 151.709ZM186.165 152.825C185.361 152.749 184.775 152.038 184.853 151.234C184.929 150.436 185.642 149.847 186.445 149.926C187.248 150.001 187.835 150.712 187.759 151.514C187.686 152.268 187.052 152.831 186.308 152.831C186.261 152.831 186.214 152.831 186.165 152.825ZM60.1274 150.191C60.0457 149.389 60.6327 148.675 61.4357 148.597C62.2359 148.518 62.9543 149.101 63.0331 149.902C63.112 150.704 62.5279 151.415 61.7248 151.496C61.6752 151.499 61.6256 151.502 61.5759 151.502C60.8371 151.502 60.2034 150.943 60.1274 150.191ZM105.596 149.573C104.811 149.392 104.32 148.611 104.501 147.827C104.682 147.043 105.465 146.554 106.254 146.735C107.039 146.912 107.53 147.696 107.349 148.48C107.194 149.153 106.592 149.611 105.926 149.611C105.818 149.611 105.707 149.599 105.596 149.573ZM140.371 147.172C140.193 146.388 140.687 145.607 141.472 145.429C142.258 145.251 143.041 145.744 143.222 146.528H143.219C143.397 147.312 142.906 148.093 142.121 148.27C142.01 148.297 141.902 148.308 141.794 148.308C141.128 148.308 140.526 147.851 140.371 147.172ZM186.623 148.186C185.823 148.095 185.245 147.376 185.332 146.577C185.423 145.776 186.144 145.202 186.944 145.289C187.747 145.377 188.326 146.099 188.235 146.898C188.153 147.644 187.52 148.195 186.787 148.195C186.734 148.195 186.679 148.192 186.623 148.186ZM59.631 145.578C59.5375 144.779 60.1128 144.056 60.913 143.963C61.7132 143.87 62.4374 144.444 62.5308 145.242C62.6243 146.041 62.0519 146.767 61.2488 146.857C61.1933 146.866 61.1379 146.869 61.0795 146.869C60.3494 146.869 59.7157 146.321 59.631 145.578ZM106.662 145.033C105.883 144.829 105.415 144.03 105.62 143.252C105.827 142.474 106.624 142.011 107.404 142.215C108.184 142.419 108.651 143.217 108.447 143.995C108.271 144.648 107.682 145.082 107.033 145.082C106.911 145.082 106.785 145.065 106.662 145.033ZM139.294 142.675C139.092 141.897 139.562 141.102 140.345 140.9C141.125 140.699 141.922 141.169 142.121 141.95C142.322 142.728 141.852 143.523 141.069 143.724C140.947 143.753 140.824 143.771 140.704 143.771C140.056 143.771 139.46 143.334 139.291 142.675H139.294ZM187.155 143.552C186.354 143.447 185.791 142.716 185.896 141.917C186.001 141.122 186.734 140.559 187.534 140.664C188.334 140.769 188.895 141.501 188.79 142.296H188.793C188.696 143.031 188.069 143.564 187.344 143.564C187.283 143.564 187.219 143.561 187.155 143.552ZM59.0469 140.985C58.936 140.186 59.4967 139.449 60.2939 139.341C61.0941 139.231 61.83 139.787 61.9409 140.586C62.0519 141.381 61.4912 142.119 60.694 142.229C60.6268 142.238 60.5596 142.241 60.4925 142.241C59.7741 142.241 59.1491 141.713 59.0469 140.985ZM107.889 140.533C107.121 140.286 106.703 139.464 106.951 138.697C107.203 137.934 108.026 137.514 108.791 137.762C109.559 138.013 109.98 138.834 109.729 139.601C109.527 140.216 108.955 140.606 108.342 140.606C108.19 140.606 108.038 140.583 107.889 140.533ZM138.023 138.284C137.772 137.52 138.19 136.695 138.955 136.445C139.72 136.194 140.547 136.611 140.798 137.377C141.049 138.141 140.631 138.965 139.863 139.216C139.714 139.266 139.56 139.289 139.411 139.289C138.797 139.289 138.225 138.898 138.023 138.284ZM187.78 138.933C186.985 138.808 186.439 138.062 186.565 137.266C186.687 136.471 187.435 135.929 188.232 136.054C189.029 136.177 189.575 136.923 189.45 137.718C189.336 138.438 188.714 138.951 188.007 138.951C187.931 138.951 187.855 138.945 187.78 138.933ZM58.3548 136.413C58.2205 135.617 58.7607 134.868 59.5551 134.737C60.3523 134.606 61.1028 135.142 61.2342 135.938C61.3657 136.73 60.8283 137.482 60.0311 137.613C59.9522 137.625 59.8705 137.631 59.7916 137.631C59.0907 137.631 58.4716 137.127 58.3519 136.413H58.3548ZM109.378 136.113C108.634 135.804 108.28 134.953 108.587 134.21C108.896 133.466 109.752 133.114 110.497 133.42C111.241 133.729 111.595 134.58 111.285 135.326C111.052 135.885 110.508 136.223 109.936 136.223C109.749 136.223 109.562 136.188 109.378 136.113ZM136.406 134.078C136.073 133.347 136.397 132.481 137.133 132.149C137.866 131.817 138.73 132.143 139.063 132.875C139.399 133.609 139.072 134.472 138.339 134.804C138.143 134.891 137.936 134.935 137.734 134.935C137.179 134.935 136.648 134.618 136.406 134.078ZM188.527 134.329C187.736 134.18 187.213 133.42 187.362 132.63C187.511 131.837 188.276 131.319 189.067 131.464C189.859 131.613 190.381 132.377 190.233 133.166C190.101 133.866 189.488 134.355 188.802 134.355C188.711 134.355 188.621 134.347 188.527 134.329ZM57.5313 131.867C57.3765 131.074 57.8934 130.31 58.6848 130.156C59.4762 130.002 60.2443 130.517 60.399 131.307C60.5538 132.094 60.0369 132.86 59.2455 133.015C59.1521 133.032 59.0557 133.044 58.9622 133.044C58.2789 133.044 57.6686 132.56 57.5313 131.867ZM111.256 131.84C110.567 131.427 110.345 130.529 110.76 129.841C111.177 129.151 112.074 128.929 112.766 129.346C113.455 129.76 113.677 130.654 113.262 131.345C112.988 131.8 112.506 132.05 112.009 132.05C111.752 132.05 111.493 131.983 111.256 131.84ZM134.259 130.249C133.798 129.591 133.958 128.681 134.618 128.221C135.278 127.758 136.19 127.918 136.651 128.577C137.112 129.235 136.955 130.144 136.295 130.608C136.038 130.785 135.746 130.87 135.457 130.87C134.998 130.87 134.545 130.654 134.259 130.249ZM189.415 129.751C188.626 129.582 188.124 128.807 188.291 128.02C188.46 127.233 189.237 126.732 190.025 126.901C190.814 127.07 191.316 127.842 191.15 128.629C191.001 129.314 190.396 129.783 189.721 129.783C189.619 129.783 189.517 129.771 189.415 129.751ZM56.5851 127.332C56.4128 126.545 56.9093 125.77 57.6978 125.595C58.4833 125.423 59.263 125.919 59.4383 126.706C59.6105 127.49 59.1141 128.268 58.3256 128.442C58.2205 128.466 58.1154 128.475 58.0102 128.475C57.3415 128.475 56.737 128.011 56.5851 127.332ZM113.82 127.935C113.259 127.358 113.274 126.438 113.852 125.875C114.43 125.316 115.356 125.33 115.917 125.907C116.478 126.484 116.463 127.408 115.885 127.967C115.601 128.241 115.236 128.378 114.868 128.378C114.489 128.378 114.106 128.23 113.82 127.935ZM131.389 127.21C130.74 126.729 130.609 125.814 131.091 125.17C131.573 124.526 132.487 124.392 133.135 124.873C133.78 125.353 133.915 126.266 133.433 126.913C133.147 127.294 132.706 127.498 132.259 127.498C131.955 127.498 131.651 127.405 131.389 127.21ZM117.45 125.004C117.184 124.243 117.584 123.413 118.347 123.147C119.106 122.882 119.941 123.282 120.207 124.042C120.472 124.8 120.069 125.63 119.31 125.898C119.15 125.954 118.989 125.98 118.828 125.98C118.224 125.98 117.66 125.604 117.45 125.004ZM127.703 125.531C126.92 125.342 126.439 124.555 126.626 123.771C126.815 122.99 127.604 122.509 128.386 122.696C129.172 122.885 129.654 123.672 129.464 124.456C129.303 125.123 128.708 125.572 128.048 125.572C127.934 125.572 127.82 125.557 127.703 125.531ZM190.411 125.193C189.625 125.007 189.14 124.223 189.327 123.439C189.511 122.655 190.297 122.171 191.082 122.355C191.868 122.541 192.353 123.325 192.169 124.109C192.011 124.779 191.409 125.231 190.749 125.231C190.638 125.231 190.525 125.219 190.411 125.193ZM121.947 123.742C121.915 122.938 122.543 122.259 123.346 122.227C124.152 122.195 124.832 122.818 124.868 123.623C124.9 124.427 124.275 125.106 123.469 125.138C123.448 125.138 123.428 125.141 123.407 125.141C122.628 125.141 121.982 124.526 121.947 123.742ZM55.5397 122.818C55.3469 122.034 55.8288 121.247 56.6143 121.058C57.397 120.869 58.1854 121.349 58.3753 122.13C58.5651 122.914 58.0862 123.701 57.3006 123.891C57.1867 123.92 57.0699 123.931 56.956 123.931C56.2989 123.931 55.7003 123.486 55.5397 122.818ZM191.503 120.656C190.723 120.455 190.253 119.662 190.452 118.884C190.653 118.103 191.45 117.634 192.23 117.835C193.013 118.036 193.483 118.829 193.281 119.607C193.112 120.265 192.519 120.703 191.868 120.703C191.748 120.703 191.626 120.688 191.503 120.656ZM54.4007 118.322C54.1934 117.544 54.6606 116.748 55.4404 116.544C56.2201 116.337 57.0173 116.803 57.2247 117.581C57.4291 118.36 56.9618 119.155 56.185 119.362C56.0595 119.394 55.9339 119.409 55.8112 119.409C55.1629 119.409 54.573 118.977 54.4007 118.322ZM192.683 116.142C191.906 115.929 191.453 115.125 191.669 114.35C191.885 113.575 192.689 113.12 193.465 113.336C194.242 113.551 194.698 114.353 194.482 115.131C194.303 115.775 193.716 116.197 193.077 116.197C192.946 116.197 192.814 116.18 192.683 116.142ZM53.1742 113.851C52.9552 113.079 53.4049 112.272 54.1788 112.053C54.9556 111.832 55.7645 112.284 55.9835 113.056C56.2026 113.831 55.7528 114.635 54.979 114.857C54.8446 114.895 54.7103 114.912 54.5789 114.912C53.9422 114.912 53.3553 114.493 53.1742 113.851ZM193.953 111.651C193.182 111.421 192.741 110.608 192.972 109.836C193.205 109.066 194.017 108.629 194.791 108.859C195.562 109.09 196 109.903 195.769 110.672C195.583 111.304 195.001 111.712 194.374 111.712C194.233 111.712 194.093 111.692 193.953 111.651ZM51.8601 109.404C51.6265 108.635 52.0587 107.822 52.8296 107.586C53.6006 107.35 54.4183 107.784 54.6548 108.553C54.8884 109.323 54.4562 110.136 53.6853 110.372C53.5422 110.416 53.3991 110.436 53.2589 110.436C52.634 110.436 52.0528 110.034 51.8601 109.404ZM195.311 107.187C194.543 106.939 194.122 106.12 194.371 105.354C194.619 104.587 195.439 104.168 196.207 104.415C196.976 104.663 197.396 105.482 197.148 106.248C196.949 106.866 196.377 107.26 195.761 107.26C195.612 107.26 195.46 107.236 195.311 107.187ZM50.4554 104.99C50.2014 104.226 50.619 103.401 51.3841 103.151C52.1492 102.897 52.9756 103.311 53.2297 104.077C53.4808 104.841 53.0662 105.666 52.301 105.916C52.1463 105.966 51.9944 105.992 51.8426 105.992C51.2293 105.992 50.6569 105.601 50.4554 104.99ZM196.765 102.757C196.003 102.492 195.6 101.662 195.869 100.901C196.134 100.14 196.967 99.7411 197.729 100.006C198.488 100.272 198.891 101.102 198.625 101.863C198.415 102.463 197.849 102.839 197.247 102.839C197.086 102.839 196.923 102.813 196.765 102.757ZM48.9485 100.612C48.677 99.8548 49.0741 99.0213 49.8334 98.7503C50.5897 98.4793 51.4279 98.8727 51.6995 99.6304C51.971 100.388 51.5739 101.222 50.8146 101.493C50.654 101.551 50.4875 101.58 50.324 101.58C49.7253 101.58 49.1617 101.207 48.9485 100.612ZM198.328 98.3627C197.574 98.0742 197.197 97.2321 197.484 96.4802C197.77 95.7284 198.614 95.3524 199.367 95.638C200.121 95.9265 200.497 96.7687 200.211 97.5206C199.989 98.1005 199.434 98.4589 198.847 98.456C198.675 98.456 198.5 98.4269 198.328 98.3627ZM47.3278 96.285C47.0328 95.536 47.4037 94.688 48.1542 94.3966C48.9047 94.1023 49.7516 94.4724 50.0466 95.2213C50.3415 95.9702 49.9706 96.8153 49.2201 97.1097C49.0449 97.1767 48.8639 97.2117 48.6857 97.2117C48.1046 97.2117 47.5526 96.8591 47.3278 96.285ZM200.018 94.0119C199.274 93.7001 198.926 92.8463 199.239 92.1032C199.551 91.363 200.407 91.0133 201.152 91.328C201.896 91.6398 202.244 92.4937 201.931 93.2368C201.698 93.7934 201.157 94.1256 200.585 94.1256C200.398 94.1256 200.205 94.0906 200.021 94.0119H200.018ZM45.5639 92.0216C45.2398 91.2843 45.5785 90.4246 46.3174 90.1041C47.0591 89.7835 47.9177 90.1216 48.2389 90.8588C48.5631 91.5961 48.2243 92.4558 47.4855 92.7763C47.2957 92.8579 47.0971 92.8987 46.9014 92.8987C46.3378 92.8987 45.8005 92.5694 45.561 92.0216H45.5639ZM201.864 89.7282C201.137 89.3814 200.827 88.51 201.175 87.7844C201.522 87.0588 202.393 86.7499 203.12 87.0967C203.85 87.4435 204.159 88.3119 203.812 89.0375C203.561 89.562 203.038 89.868 202.492 89.868C202.282 89.868 202.069 89.8243 201.864 89.7282ZM43.6073 87.8893C43.2423 87.1725 43.5285 86.2953 44.2469 85.931C44.9653 85.5668 45.8443 85.8523 46.2093 86.5692C46.5743 87.289 46.2881 88.1633 45.5698 88.5304C45.3595 88.6383 45.1317 88.6878 44.9098 88.6878C44.3783 88.6878 43.8643 88.3964 43.6073 87.8893ZM203.777 85.9252C203.041 85.5959 202.711 84.7333 203.041 83.999C203.371 83.2646 204.232 82.9353 204.971 83.2646C205.704 83.5939 206.034 84.4565 205.704 85.1908C205.462 85.7329 204.93 86.0534 204.373 86.0534C204.171 86.0534 203.97 86.0126 203.777 85.9252ZM41.6098 83.5531C41.3003 82.81 41.6566 81.9591 42.3983 81.6502C43.1459 81.3442 43.9986 81.6968 44.3082 82.4399C44.6148 83.183 44.2615 84.0339 43.5168 84.3428C43.3328 84.4186 43.143 84.4536 42.959 84.4536C42.3866 84.4536 41.8405 84.1155 41.6098 83.5531ZM205.623 81.6414C204.863 81.3704 204.469 80.537 204.741 79.7793C205.015 79.0216 205.85 78.6253 206.61 78.8963C207.369 79.1673 207.763 80.0037 207.492 80.7614C207.278 81.3558 206.715 81.7259 206.116 81.7259C205.953 81.7259 205.786 81.6997 205.623 81.6414ZM39.954 79.077C39.7029 78.3135 40.1205 77.4888 40.8856 77.2411C41.6536 76.9905 42.4772 77.4072 42.7283 78.1736C42.9795 78.9371 42.5589 79.7618 41.7938 80.0095C41.642 80.059 41.4901 80.0824 41.3412 80.0824C40.725 80.0824 40.1526 79.6919 39.954 79.077ZM207.138 77.2265C206.358 77.0138 205.903 76.2124 206.116 75.4372C206.329 74.6591 207.132 74.2045 207.912 74.4173C208.689 74.6329 209.144 75.4343 208.931 76.2095C208.753 76.8564 208.166 77.279 207.524 77.279C207.398 77.279 207.267 77.2644 207.138 77.2265ZM38.6399 74.4901C38.4471 73.7091 38.9261 72.9194 39.7087 72.73C40.4914 72.5377 41.2828 73.0156 41.4755 73.7966C41.6653 74.5776 41.1864 75.3673 40.4038 75.5596C40.2869 75.5888 40.1701 75.6004 40.0562 75.6004C39.3992 75.6004 38.8005 75.1546 38.637 74.4901H38.6399ZM208.312 72.7125C207.521 72.5581 207.004 71.7916 207.162 71.0019C207.316 70.2122 208.084 69.6993 208.876 69.8537C209.667 70.0082 210.181 70.7746 210.026 71.5643C209.889 72.2579 209.279 72.7416 208.595 72.7416C208.502 72.7416 208.406 72.7329 208.312 72.7125ZM37.6762 69.8217C37.5419 69.0261 38.0792 68.2772 38.8735 68.1431C39.6708 68.0091 40.4213 68.5453 40.5556 69.3379C40.6899 70.1335 40.1526 70.8824 39.3583 71.0165C39.2765 71.031 39.1947 71.0369 39.113 71.0369C38.415 71.0369 37.7959 70.5327 37.6762 69.8217ZM209.15 68.1256C208.347 68.0266 207.778 67.3009 207.874 66.5025C207.97 65.704 208.701 65.1357 209.501 65.2319C210.301 65.3281 210.87 66.0537 210.774 66.8522C210.683 67.5924 210.053 68.1344 209.325 68.1344C209.267 68.1344 209.209 68.1315 209.15 68.1256ZM37.0571 65.0949C36.9812 64.2936 37.5711 63.5854 38.3741 63.5097C39.1772 63.4339 39.8898 64.0225 39.9657 64.8239C40.0416 65.6253 39.4517 66.3335 38.6486 66.4092C38.6019 66.4151 38.5552 66.4151 38.5085 66.4151C37.7638 66.4151 37.1301 65.8497 37.0571 65.0949ZM209.647 63.4863C208.841 63.4485 208.222 62.7666 208.26 61.9622C208.298 61.1579 208.984 60.5372 209.787 60.5751C210.593 60.6159 211.215 61.2978 211.177 62.1021C211.139 62.8831 210.494 63.4893 209.717 63.4893C209.693 63.4893 209.67 63.4893 209.647 63.4863ZM36.7826 60.3391C36.7651 59.5348 37.4046 58.8674 38.2106 58.8499C39.0166 58.8325 39.6854 59.4707 39.7029 60.275C39.7204 61.0793 39.0809 61.7466 38.2749 61.7641H38.2398C37.4484 61.7641 36.8001 61.1317 36.7826 60.3391ZM208.318 57.4016C208.298 56.5973 208.937 55.93 209.743 55.9125C210.549 55.8921 211.218 56.5303 211.238 57.3346C211.256 58.1389 210.616 58.8062 209.81 58.8237C209.81 58.8237 209.787 58.8266 209.775 58.8266C208.987 58.8266 208.335 58.1943 208.318 57.4016ZM38.234 57.1015C37.428 57.0636 36.8089 56.3788 36.8468 55.5745C36.8877 54.7731 37.5711 54.1524 38.3771 54.1932C39.1831 54.231 39.8022 54.9159 39.7642 55.7172C39.7262 56.4982 39.0809 57.1044 38.307 57.1044C38.2836 57.1044 38.2573 57.1044 38.234 57.1015ZM208.049 52.8527H208.052C207.976 52.0513 208.566 51.3402 209.366 51.2644C210.169 51.1887 210.882 51.7773 210.958 52.5787C211.034 53.3801 210.444 54.0912 209.641 54.1669C209.594 54.1698 209.547 54.1728 209.501 54.1728C208.759 54.1728 208.122 53.6074 208.049 52.8527ZM38.526 52.4505C37.7258 52.3543 37.1564 51.6258 37.2527 50.8273C37.3491 50.0289 38.0792 49.4606 38.8764 49.5568C39.6795 49.6529 40.249 50.3815 40.1497 51.1799C40.0621 51.9201 39.4313 52.4622 38.7041 52.4622C38.6457 52.4622 38.5844 52.4563 38.526 52.4505ZM207.456 48.3357C207.322 47.5431 207.859 46.7912 208.654 46.6572C209.448 46.5231 210.202 47.0593 210.336 47.852C210.47 48.6476 209.936 49.3994 209.139 49.5335C209.057 49.5451 208.975 49.5538 208.893 49.5538C208.195 49.5538 207.576 49.0497 207.456 48.3357ZM39.1539 47.8287C38.3595 47.6742 37.8456 46.9078 38.0003 46.1181C38.158 45.3284 38.9261 44.8155 39.7175 44.9699C40.506 45.1273 41.0229 45.8908 40.8681 46.6805C40.7308 47.377 40.1205 47.8578 39.4371 47.8578C39.3437 47.8578 39.2473 47.8491 39.1539 47.8287ZM206.534 43.88C206.338 43.099 206.82 42.3093 207.602 42.117C208.385 41.9246 209.177 42.4025 209.369 43.1835C209.562 43.9645 209.08 44.7543 208.298 44.9466C208.181 44.9757 208.064 44.9874 207.95 44.9874C207.293 44.9874 206.697 44.5444 206.534 43.88ZM40.1176 43.2681C39.3408 43.0553 38.8823 42.2539 39.0984 41.4788C39.3116 40.7007 40.1146 40.2461 40.8914 40.4588C41.6712 40.6716 42.1267 41.4759 41.9135 42.251C41.7354 42.898 41.1484 43.3205 40.506 43.3205C40.3775 43.3205 40.2461 43.303 40.1176 43.2681ZM205.278 39.503C205.027 38.7366 205.444 37.9148 206.212 37.6642C206.978 37.4165 207.804 37.8332 208.055 38.5967C208.306 39.3602 207.886 40.1849 207.121 40.4355C206.969 40.4851 206.817 40.5084 206.665 40.5084C206.052 40.5084 205.479 40.1179 205.278 39.503ZM41.4229 38.7919C40.6637 38.5209 40.2694 37.6875 40.541 36.9298C40.8126 36.1721 41.6478 35.7758 42.4071 36.0497C43.1664 36.3207 43.5606 37.1542 43.289 37.9119C43.0758 38.5063 42.5151 38.8764 41.9135 38.8764C41.75 38.8764 41.5835 38.8502 41.4229 38.7919ZM203.695 35.2367H203.698C203.388 34.4936 203.742 33.6397 204.487 33.3338C205.231 33.0249 206.084 33.3775 206.393 34.1206C206.703 34.8637 206.35 35.7175 205.605 36.0264C205.421 36.0993 205.231 36.1372 205.047 36.1372C204.472 36.1372 203.929 35.7991 203.695 35.2367ZM43.0612 34.4266C42.3253 34.0973 41.9982 33.2347 42.3282 32.5003C42.6582 31.7659 43.5197 31.4366 44.2556 31.7659C44.9915 32.0952 45.3215 32.9578 44.9915 33.6922C44.7492 34.2342 44.2177 34.5548 43.6599 34.5548C43.4584 34.5548 43.2569 34.514 43.0612 34.4266ZM201.788 31.1074C201.423 30.3905 201.709 29.5133 202.428 29.1491C203.146 28.7819 204.025 29.0675 204.39 29.7843C204.758 30.5012 204.472 31.3784 203.754 31.7455C203.54 31.8534 203.315 31.9029 203.091 31.9029C202.559 31.9029 202.048 31.6115 201.788 31.1074ZM45.0353 30.2011C44.3286 29.8135 44.0687 28.9276 44.4542 28.2224C44.8426 27.5171 45.7304 27.2578 46.4371 27.6424C47.1438 28.03 47.4037 28.9159 47.0182 29.6211C46.7525 30.1049 46.2531 30.3788 45.7362 30.3788C45.4997 30.3788 45.2573 30.3205 45.0353 30.2011ZM123.875 28.2369H123.872C123.066 28.2165 122.429 27.5492 122.447 26.7478C122.464 25.9406 123.133 25.3053 123.939 25.3228C124.745 25.3403 125.384 26.0076 125.364 26.8119C125.349 27.6046 124.698 28.2369 123.907 28.2369H123.875ZM127.119 26.7245C127.017 25.926 127.586 25.1975 128.386 25.0955C129.184 24.9964 129.914 25.5617 130.016 26.3602C130.118 27.1587 129.549 27.8872 128.749 27.9892C128.687 27.9951 128.626 28.0009 128.565 28.0009C127.84 28.0009 127.213 27.4618 127.119 26.7245ZM199.563 27.1441C199.139 26.4564 199.353 25.5617 200.042 25.1392C200.728 24.7166 201.628 24.9323 202.051 25.6171C202.472 26.3019 202.258 27.1995 201.572 27.622C201.333 27.7677 201.067 27.8377 200.807 27.8377C200.316 27.8377 199.837 27.59 199.563 27.1441ZM119.021 27.7823C118.227 27.6512 117.687 26.9023 117.815 26.1096C117.946 25.314 118.7 24.7749 119.494 24.9061C120.288 25.0372 120.829 25.7861 120.697 26.5817C120.581 27.2957 119.961 27.8027 119.258 27.8027C119.179 27.8027 119.1 27.7969 119.021 27.7823ZM131.736 26.0105C131.517 25.2383 131.97 24.4311 132.746 24.2154C133.523 23.9969 134.329 24.4485 134.548 25.2208C134.767 25.996 134.315 26.8003 133.538 27.0188C133.406 27.0567 133.272 27.0742 133.141 27.0742C132.504 27.0742 131.917 26.6545 131.736 26.0105ZM114.287 26.6866C113.516 26.4564 113.078 25.6433 113.309 24.8711C113.54 24.1018 114.354 23.6646 115.128 23.8949C115.899 24.1251 116.337 24.9381 116.107 25.7104C115.917 26.3398 115.336 26.7478 114.708 26.7478C114.571 26.7478 114.427 26.7274 114.287 26.6866ZM47.3395 26.1446C46.6649 25.7016 46.478 24.7982 46.9219 24.1251C47.3628 23.4548 48.2681 23.2654 48.9427 23.7084C49.6173 24.1484 49.8042 25.0518 49.3603 25.7249C49.08 26.1533 48.6156 26.3835 48.1396 26.3835C47.8651 26.3835 47.5848 26.3048 47.3395 26.1446ZM136.198 24.6234C135.871 23.889 136.204 23.0294 136.943 22.703H136.94C137.679 22.3766 138.54 22.7088 138.867 23.4432C139.195 24.1804 138.862 25.0401 138.126 25.3665H138.123C137.93 25.451 137.731 25.4918 137.533 25.4918C136.972 25.4918 136.438 25.1683 136.198 24.6234ZM109.74 25.0255C108.999 24.705 108.66 23.8453 108.981 23.108C109.302 22.3708 110.161 22.0298 110.903 22.3504C111.641 22.6709 111.98 23.5306 111.659 24.2679C111.422 24.8157 110.885 25.145 110.322 25.145C110.126 25.145 109.93 25.1071 109.74 25.0255ZM197.022 23.3732C196.546 22.7263 196.686 21.8142 197.335 21.3392C197.986 20.8612 198.9 21.0011 199.376 21.651C199.855 22.2979 199.715 23.21 199.064 23.688C198.804 23.8774 198.5 23.9706 198.202 23.9706C197.752 23.9706 197.308 23.7637 197.022 23.3732ZM140.418 22.6272C140.001 21.9395 140.22 21.0448 140.906 20.6252C141.595 20.2056 142.494 20.4241 142.915 21.1119C143.333 21.7996 143.114 22.6971 142.427 23.1139C142.191 23.2596 141.928 23.3266 141.671 23.3266C141.177 23.3266 140.698 23.0789 140.421 22.6272H140.418ZM105.415 22.8574C104.717 22.4553 104.478 21.5635 104.878 20.8671C105.281 20.1706 106.175 19.9287 106.873 20.3309C107.571 20.733 107.813 21.6218 107.41 22.3212C107.141 22.7875 106.648 23.0498 106.143 23.0498C105.897 23.0498 105.646 22.9886 105.415 22.8574ZM49.9648 22.2863C49.3282 21.7908 49.2172 20.8758 49.7137 20.2405C50.213 19.6082 51.13 19.4974 51.7637 19.9928C52.4003 20.4882 52.5113 21.4033 52.0149 22.0386C51.7257 22.4057 51.2965 22.5981 50.8643 22.5981C50.5489 22.5981 50.2306 22.4961 49.9648 22.2863ZM144.352 20.1123C143.858 19.477 143.972 18.562 144.609 18.0666C145.245 17.5741 146.162 17.6877 146.656 18.323C147.152 18.9583 147.038 19.8733 146.402 20.3658C146.136 20.5727 145.818 20.6747 145.505 20.6747C145.07 20.6747 144.641 20.4824 144.352 20.1123ZM101.321 20.1356C100.699 19.6227 100.609 18.7048 101.12 18.0841C101.634 17.4604 102.554 17.373 103.176 17.883C103.8 18.393 103.888 19.3109 103.377 19.9345C103.088 20.2842 102.67 20.4649 102.247 20.4649C101.923 20.4649 101.593 20.3571 101.321 20.1356ZM194.178 19.8355C193.649 19.2293 193.711 18.3085 194.318 17.7781C194.925 17.2477 195.848 17.3118 196.38 17.918C196.911 18.5212 196.85 19.4421 196.243 19.9724C195.965 20.2143 195.623 20.3338 195.282 20.3338C194.876 20.3338 194.47 20.1648 194.181 19.8355H194.178ZM52.9026 18.6611C52.3127 18.1132 52.2806 17.1923 52.8296 16.6037C53.3816 16.015 54.3044 15.983 54.8943 16.5308C55.4842 17.0787 55.5163 18.0025 54.9673 18.5911C54.6782 18.8971 54.2898 19.0545 53.8984 19.0545C53.5422 19.0545 53.183 18.9233 52.9026 18.6611ZM191.044 16.5541C190.463 15.9975 190.443 15.0738 191.001 14.4938C191.561 13.9139 192.484 13.8935 193.065 14.4531C193.646 15.0097 193.667 15.9305 193.109 16.5133C192.823 16.8106 192.437 16.9592 192.055 16.9592C191.693 16.9592 191.328 16.8252 191.044 16.5541ZM56.1442 15.304C55.6068 14.7066 55.6565 13.7857 56.2551 13.2466C56.8567 12.7104 57.7795 12.7599 58.3169 13.3573C58.8571 13.9576 58.8045 14.8785 58.2059 15.4147C57.9285 15.6653 57.578 15.7877 57.2305 15.7877C56.8304 15.7877 56.4333 15.6245 56.1442 15.304ZM187.633 13.573C187.003 13.0688 186.898 12.1538 187.403 11.5243C187.905 10.8949 188.822 10.7929 189.453 11.2941C190.084 11.7954 190.186 12.7133 189.684 13.3398C189.394 13.7012 188.971 13.8906 188.542 13.8906C188.223 13.8906 187.902 13.7857 187.633 13.573ZM122.458 13.6837C121.652 13.64 121.036 12.9494 121.083 12.148C121.127 11.3437 121.819 10.7288 122.622 10.7754C123.428 10.8191 124.044 11.5098 123.997 12.3112C123.953 13.0863 123.311 13.6866 122.543 13.6866C122.514 13.6866 122.487 13.6866 122.458 13.6866V13.6837ZM125.752 12.2529C125.653 11.4544 126.223 10.7288 127.023 10.6297C127.826 10.5335 128.553 11.1018 128.649 11.9003C128.749 12.6987 128.176 13.4244 127.379 13.5234C127.318 13.5293 127.259 13.5322 127.198 13.5322C126.471 13.5322 125.843 12.9931 125.752 12.2529ZM117.602 12.9902C116.816 12.8124 116.323 12.0314 116.501 11.2475C116.679 10.4636 117.462 9.97111 118.247 10.1489C119.033 10.3266 119.526 11.1076 119.348 11.8915C119.193 12.5676 118.592 13.028 117.923 13.028C117.818 13.028 117.707 13.0164 117.599 12.9902H117.602ZM59.6748 12.25C59.1929 11.603 59.3273 10.6909 59.9756 10.2101C60.6239 9.72923 61.5379 9.8662 62.0198 10.5102C62.4987 11.1572 62.3644 12.0693 61.7161 12.5501C61.4562 12.7425 61.1495 12.8386 60.8488 12.8386C60.4019 12.8386 59.961 12.6346 59.6748 12.25ZM130.364 11.5389C130.145 10.7638 130.597 9.95945 131.374 9.74089C132.148 9.52233 132.957 9.97402 133.176 10.7463C133.395 11.5214 132.942 12.3257 132.168 12.5443C132.034 12.5822 131.9 12.5997 131.768 12.5997C131.132 12.5997 130.548 12.18 130.364 11.5389ZM112.956 11.6089C112.199 11.3349 111.805 10.5015 112.08 9.7438C112.354 8.98613 113.189 8.59563 113.949 8.86956C114.708 9.14349 115.099 9.97985 114.825 10.7346C114.611 11.3291 114.051 11.6963 113.452 11.6963C113.289 11.6963 113.119 11.67 112.956 11.6089ZM183.963 10.9211C183.288 10.4811 183.098 9.5777 183.539 8.90453C183.98 8.22845 184.885 8.04195 185.56 8.48198C186.235 8.92202 186.424 9.8254 185.984 10.4986C185.703 10.924 185.236 11.1572 184.76 11.1572C184.485 11.1572 184.208 11.0814 183.963 10.9211ZM134.829 10.1634C134.531 9.41742 134.896 8.56941 135.643 8.27216C136.394 7.97492 137.244 8.33919 137.542 9.08812C137.839 9.83706 137.472 10.6851 136.724 10.9794C136.546 11.0493 136.365 11.0843 136.184 11.0843C135.603 11.0843 135.054 10.7346 134.829 10.1634ZM63.4741 9.53399C63.0565 8.84625 63.2784 7.94869 63.9706 7.53489C64.6597 7.11816 65.5563 7.33964 65.9739 8.03029C66.3915 8.71803 66.1695 9.61267 65.4774 10.0294C65.2409 10.1722 64.981 10.2392 64.724 10.2392C64.2305 10.2392 63.7486 9.98859 63.4741 9.53399ZM108.537 9.8254C107.798 9.50484 107.463 8.64517 107.784 7.9079C108.108 7.17062 108.969 6.83258 109.708 7.15605C110.447 7.4766 110.783 8.33627 110.462 9.07355C110.222 9.62141 109.685 9.94779 109.121 9.94779C108.929 9.94779 108.73 9.90991 108.537 9.8254ZM139.145 8.38581C138.818 7.65145 139.148 6.79178 139.884 6.46248C140.62 6.13318 141.484 6.46248 141.811 7.19685C142.141 7.93121 141.811 8.79379 141.075 9.12309C140.88 9.2076 140.678 9.2484 140.479 9.2484C139.922 9.2484 139.387 8.92784 139.145 8.38581ZM180.058 8.63643C179.343 8.26342 179.068 7.38335 179.439 6.66939C179.813 5.95542 180.695 5.68149 181.41 6.05159C182.123 6.4246 182.403 7.30467 182.029 8.01863C181.77 8.51695 181.258 8.80254 180.733 8.80254C180.505 8.80254 180.274 8.75008 180.058 8.63643ZM104.265 7.92538C103.526 7.60191 103.193 6.73933 103.52 6.00496C103.847 5.26769 104.709 4.93547 105.445 5.26186C106.183 5.58824 106.516 6.44791 106.192 7.18227C105.95 7.72722 105.415 8.05069 104.855 8.05069C104.656 8.05069 104.458 8.00989 104.265 7.92538ZM67.5158 7.19976C67.1712 6.47123 67.4808 5.60281 68.2079 5.25894C68.938 4.91216 69.8082 5.22106 70.1557 5.94959C70.5003 6.67521 70.1908 7.54363 69.4607 7.89041C69.2592 7.98658 69.046 8.03029 68.8358 8.03029C68.2897 8.03029 67.7669 7.7243 67.5158 7.19976ZM143.408 6.47705C143.09 5.73686 143.435 4.88011 144.177 4.56538C144.918 4.25065 145.777 4.59452 146.092 5.33471C146.411 6.0749 146.066 6.92874 145.324 7.24639C145.137 7.32507 144.942 7.36295 144.752 7.36295C144.185 7.36295 143.645 7.03074 143.408 6.47705ZM175.952 6.7539C175.202 6.45665 174.837 5.60864 175.135 4.85971C175.432 4.11369 176.282 3.74942 177.033 4.04666C177.78 4.34682 178.145 5.19192 177.848 5.94085C177.62 6.51202 177.071 6.85881 176.49 6.85881C176.311 6.85881 176.128 6.82384 175.952 6.7539ZM100.025 6.16233C99.2711 5.87674 98.8915 5.03455 99.1777 4.28271C99.4639 3.53086 100.308 3.15494 101.061 3.44052C101.815 3.72611 102.194 4.56829 101.908 5.32014C101.686 5.90005 101.131 6.25849 100.541 6.25849C100.369 6.25849 100.194 6.22935 100.025 6.16233ZM71.7736 5.27934C71.502 4.52167 71.9021 3.68822 72.6614 3.42012C73.4206 3.14911 74.2558 3.54543 74.5245 4.30602C74.7961 5.0637 74.396 5.89714 73.6367 6.16524C73.4761 6.22352 73.3126 6.24975 73.149 6.24975C72.5475 6.24975 71.9868 5.87674 71.7736 5.27934ZM147.722 4.68777C147.459 3.92718 147.865 3.09665 148.627 2.83729C149.392 2.57502 150.222 2.98009 150.484 3.74068C150.744 4.50127 150.338 5.3318 149.576 5.59116C149.418 5.64652 149.261 5.67275 149.103 5.67275C148.496 5.67275 147.929 5.291 147.722 4.68777ZM171.674 5.30557C170.897 5.08701 170.448 4.28271 170.667 3.50755C170.886 2.73239 171.692 2.28069 172.468 2.49925C173.245 2.71781 173.695 3.52503 173.476 4.29728C173.295 4.9413 172.708 5.36094 172.071 5.36094C171.94 5.36094 171.805 5.34054 171.674 5.30557ZM76.2037 3.8077C76.0139 3.0238 76.4986 2.23698 77.2813 2.05048C78.0639 1.86106 78.8553 2.34189 79.0422 3.12579C79.232 3.90678 78.7473 4.69651 77.9646 4.88302C77.8507 4.91216 77.7339 4.92382 77.6229 4.92382C76.963 4.92382 76.3643 4.47504 76.2037 3.8077ZM95.7288 4.76354C94.9491 4.55664 94.4877 3.75816 94.695 2.98009C94.9023 2.20201 95.6996 1.74158 96.4793 1.94848C97.2561 2.15247 97.7204 2.95095 97.5131 3.72902C97.3408 4.38179 96.748 4.81308 96.1026 4.81308C95.9799 4.81308 95.8514 4.7956 95.7259 4.76354H95.7288ZM152.166 3.25693C151.997 2.47011 152.499 1.69495 153.288 1.52593C154.076 1.35983 154.853 1.85814 155.023 2.64496C155.192 3.43178 154.69 4.20694 153.901 4.37596C153.799 4.39927 153.697 4.40801 153.595 4.40801C152.92 4.40801 152.315 3.94175 152.166 3.25693ZM167.27 4.31185C166.476 4.17488 165.942 3.42304 166.076 2.63039C166.213 1.83774 166.967 1.30446 167.764 1.43851C168.558 1.57547 169.093 2.32732 168.955 3.11997C168.836 3.83102 168.216 4.33225 167.518 4.33225C167.437 4.33225 167.355 4.32642 167.27 4.31185ZM80.7652 2.80815C80.6601 2.00968 81.2237 1.27823 82.0238 1.17332C82.824 1.06841 83.5541 1.63376 83.6592 2.42931C83.7643 3.22779 83.2007 3.95924 82.4006 4.06415C82.3363 4.07289 82.2721 4.0758 82.2107 4.0758C81.4894 4.0758 80.8586 3.5396 80.7652 2.80815ZM91.3513 3.91261C90.5511 3.81644 89.9787 3.09082 90.0751 2.29235C90.1715 1.49388 90.8986 0.922705 91.6988 1.01887C92.5019 1.11504 93.0713 1.84066 92.975 2.63913C92.8873 3.37932 92.2566 3.92427 91.5265 3.92427C91.471 3.92427 91.4097 3.92427 91.3513 3.91261ZM162.791 3.79022C161.985 3.74068 161.374 3.05003 161.424 2.24572C161.473 1.44142 162.168 0.832367 162.972 0.881907C163.778 0.931448 164.388 1.62501 164.338 2.42931C164.289 3.20156 163.646 3.79313 162.881 3.79313C162.852 3.79313 162.82 3.79313 162.791 3.79022ZM156.757 2.40017C156.708 1.59879 157.318 0.90522 158.124 0.85568C158.927 0.803226 159.622 1.41519 159.672 2.21658C159.721 3.02088 159.111 3.71154 158.305 3.76399C158.276 3.7669 158.244 3.7669 158.214 3.7669C157.449 3.7669 156.807 3.17242 156.757 2.40017ZM85.4055 2.29818C85.388 1.49096 86.0246 0.826539 86.8306 0.80614C87.6367 0.785741 88.3054 1.42394 88.3258 2.22824C88.3434 3.03254 87.7067 3.69988 86.9007 3.72028H86.8657C86.0743 3.72028 85.426 3.09082 85.4055 2.29818Z" fill="url(#paint0_linear_1203_4474)"/>
<path d="M39.1305 108.583C39.1247 107.778 39.773 107.123 40.5819 107.12C41.3879 107.114 42.045 107.761 42.0508 108.568C42.0508 109.372 41.4054 110.028 40.5965 110.034H40.5907C39.7876 110.034 39.1334 109.387 39.1305 108.583ZM35.9007 110.019C35.0947 110.011 34.4463 109.349 34.4551 108.545C34.4668 107.74 35.1268 107.096 35.9357 107.105C36.7417 107.114 37.3871 107.775 37.3783 108.58C37.3666 109.378 36.7154 110.019 35.9182 110.019H35.9007ZM43.8001 108.542C43.7855 107.738 44.4221 107.073 45.2281 107.056C46.037 107.038 46.7028 107.676 46.7204 108.481C46.7379 109.285 46.0983 109.952 45.2923 109.967C45.2923 109.967 45.2719 109.97 45.2602 109.97C44.4688 109.97 43.8176 109.337 43.8001 108.542ZM31.1961 109.917C30.3901 109.891 29.7593 109.215 29.7856 108.411C29.8118 107.606 30.4864 106.977 31.2924 107.003C32.0984 107.029 32.7321 107.703 32.7029 108.51C32.6766 109.297 32.0313 109.917 31.2457 109.917H31.1961ZM48.4725 108.431C48.4433 107.627 49.0741 106.951 49.8801 106.924C50.6861 106.895 51.3636 107.528 51.3899 108.329C51.4162 109.133 50.7854 109.81 49.9794 109.836C49.9619 109.839 49.9444 109.839 49.9268 109.839C49.1442 109.839 48.4959 109.218 48.4696 108.431H48.4725ZM26.4915 109.702C25.6855 109.655 25.0722 108.967 25.1189 108.163C25.1656 107.359 25.8578 106.747 26.6638 106.793C27.4668 106.84 28.083 107.531 28.0334 108.335C27.9896 109.107 27.3442 109.705 26.5761 109.705C26.5499 109.705 26.5207 109.705 26.4915 109.702ZM53.1392 108.259C53.1012 107.455 53.7232 106.773 54.5292 106.732C55.3352 106.694 56.0186 107.312 56.0565 108.116C56.0974 108.921 55.4754 109.603 54.6694 109.643C54.646 109.643 54.6227 109.646 54.5993 109.646C53.8254 109.646 53.1801 109.037 53.1392 108.259ZM57.8058 108.023C57.7591 107.219 58.3723 106.531 59.1783 106.482C59.9844 106.435 60.6735 107.047 60.7232 107.851C60.7699 108.653 60.1566 109.343 59.3506 109.393H59.266C58.4979 109.393 57.8525 108.795 57.8058 108.023ZM21.7839 109.352C20.9809 109.276 20.388 108.568 20.464 107.767C20.537 106.965 21.2495 106.377 22.0497 106.449C22.8528 106.525 23.4427 107.233 23.3667 108.035C23.2966 108.79 22.6629 109.358 21.9183 109.358C21.8715 109.358 21.8248 109.355 21.781 109.352H21.7839ZM62.4724 107.738C62.417 106.933 63.0244 106.24 63.8275 106.184C64.6335 106.129 65.3285 106.732 65.384 107.536C65.4395 108.338 64.835 109.034 64.029 109.09C63.9939 109.093 63.9589 109.093 63.9268 109.093C63.1675 109.093 62.525 108.507 62.4724 107.738ZM17.0735 108.819C16.2763 108.708 15.7185 107.971 15.8294 107.175C15.9375 106.377 16.6763 105.82 17.4736 105.931C18.2737 106.042 18.8315 106.776 18.7205 107.574C18.6213 108.303 17.9934 108.83 17.275 108.83C17.2107 108.83 17.1436 108.827 17.0735 108.819ZM67.1332 107.405C67.069 106.604 67.6706 105.902 68.4737 105.84C69.2767 105.776 69.9805 106.377 70.0448 107.178C70.1061 107.979 69.5074 108.682 68.7014 108.746C68.6635 108.749 68.6255 108.749 68.5875 108.749C67.8312 108.749 67.1917 108.169 67.1332 107.405ZM71.7911 107.032C71.721 106.231 72.3139 105.526 73.1169 105.456C73.92 105.383 74.6296 105.977 74.6997 106.779C74.7698 107.58 74.1741 108.288 73.371 108.358C73.3272 108.361 73.2863 108.364 73.2425 108.364C72.4949 108.364 71.8554 107.79 71.7911 107.032ZM12.3718 108.02C11.5804 107.857 11.0752 107.085 11.2387 106.298C11.4023 105.511 12.1762 105.004 12.9646 105.167C13.7531 105.33 14.2612 106.1 14.0977 106.89C13.9546 107.577 13.3472 108.052 12.6697 108.052C12.5704 108.052 12.4711 108.041 12.3718 108.02ZM76.4461 106.619C76.3672 105.817 76.9571 105.106 77.7602 105.03C78.5633 104.955 79.2758 105.54 79.3518 106.342C79.4277 107.143 78.8407 107.854 78.0376 107.93C77.9909 107.936 77.9442 107.939 77.8975 107.939C77.1528 107.939 76.5191 107.373 76.4461 106.619ZM81.0952 106.167C81.0134 105.368 81.5946 104.651 82.3976 104.567C83.1978 104.485 83.9162 105.065 84.0009 105.867C84.0856 106.668 83.5015 107.385 82.6984 107.467C82.6488 107.472 82.5962 107.475 82.5466 107.475C81.8077 107.475 81.174 106.916 81.0952 106.167ZM85.7443 105.68C85.6538 104.882 86.232 104.159 87.0322 104.072C87.8352 103.981 88.5565 104.558 88.6471 105.357C88.7347 106.158 88.1565 106.878 87.3563 106.968C87.3008 106.974 87.2482 106.977 87.1928 106.977C86.4598 106.977 85.8261 106.426 85.7443 105.68ZM7.68766 106.793C6.92546 106.54 6.51078 105.712 6.76484 104.949C7.02183 104.185 7.84827 103.774 8.61339 104.028C9.37851 104.284 9.79319 105.109 9.53621 105.872C9.33178 106.482 8.76233 106.869 8.15198 106.869C7.99721 106.869 7.84243 106.843 7.68766 106.793ZM90.3876 105.159C90.2912 104.357 90.8636 103.634 91.6637 103.538C92.4668 103.445 93.1911 104.016 93.2874 104.815C93.3809 105.613 92.8085 106.339 92.0083 106.432C91.9499 106.441 91.8915 106.444 91.836 106.444C91.106 106.444 90.4752 105.899 90.3876 105.159ZM95.025 104.602C94.9257 103.803 95.4922 103.075 96.2924 102.976C97.0926 102.874 97.8226 103.439 97.9249 104.238C98.0241 105.036 97.4576 105.765 96.6574 105.867C96.5961 105.872 96.5348 105.878 96.4735 105.878C95.7463 105.878 95.1185 105.339 95.025 104.602ZM99.6624 104.016C99.5544 103.218 100.118 102.486 100.918 102.378C101.715 102.274 102.451 102.833 102.556 103.632C102.662 104.43 102.101 105.161 101.301 105.266C101.236 105.275 101.172 105.281 101.108 105.281C100.387 105.281 99.7588 104.748 99.6624 104.016ZM3.10863 104.646C2.4428 104.191 2.27342 103.285 2.72899 102.62C3.18456 101.956 4.09569 101.787 4.7586 102.244C5.42442 102.699 5.5938 103.605 5.13824 104.27C4.85497 104.681 4.39648 104.902 3.93215 104.902C3.64596 104.902 3.35977 104.82 3.10863 104.646ZM104.294 103.395C104.183 102.6 104.738 101.863 105.538 101.752C106.335 101.641 107.074 102.198 107.185 102.993C107.296 103.792 106.741 104.526 105.941 104.637C105.874 104.649 105.804 104.651 105.737 104.651C105.021 104.651 104.396 104.124 104.294 103.395ZM108.92 102.746C108.803 101.95 109.358 101.21 110.155 101.096C110.952 100.98 111.694 101.53 111.811 102.326C111.928 103.122 111.373 103.862 110.576 103.978C110.506 103.99 110.432 103.993 110.362 103.993C109.65 103.993 109.028 103.471 108.92 102.746ZM113.543 102.067C113.423 101.271 113.969 100.528 114.766 100.408C115.563 100.286 116.308 100.834 116.431 101.63C116.553 102.425 116.004 103.168 115.207 103.288C115.134 103.299 115.058 103.305 114.985 103.305C114.276 103.305 113.654 102.789 113.543 102.067ZM118.163 101.361C118.037 100.566 118.577 99.8169 119.374 99.6916C120.172 99.5663 120.919 100.108 121.048 100.904C121.173 101.697 120.63 102.443 119.833 102.571C119.757 102.582 119.678 102.588 119.602 102.588C118.898 102.588 118.276 102.078 118.163 101.361ZM122.777 100.624C122.645 99.8286 123.183 99.0796 123.98 98.9485C124.774 98.8174 125.528 99.3536 125.659 100.149C125.79 100.942 125.25 101.694 124.456 101.825C124.374 101.836 124.295 101.842 124.216 101.842C123.513 101.842 122.893 101.338 122.777 100.624ZM0.0335547 99.7353C0.0160329 98.931 0.655578 98.2637 1.46158 98.2462C2.26758 98.2287 2.93341 98.8669 2.95093 99.6712C2.97137 100.476 2.32891 101.143 1.52291 101.16H1.49078C0.699383 101.16 0.0510765 100.528 0.0335547 99.7353ZM127.388 99.8577C127.25 99.0651 127.782 98.3103 128.579 98.1763C129.374 98.0393 130.13 98.5726 130.264 99.3652C130.401 100.158 129.867 100.913 129.073 101.047C128.988 101.061 128.906 101.07 128.825 101.07C128.127 101.07 127.507 100.569 127.388 99.8577ZM131.99 99.0651C131.85 98.2724 132.381 97.5177 133.173 97.3778C133.964 97.2379 134.724 97.7654 134.864 98.558C135.004 99.3507 134.475 100.105 133.681 100.248C133.593 100.263 133.509 100.269 133.424 100.269C132.729 100.269 132.113 99.7732 131.987 99.0651H131.99ZM136.593 98.2491C136.447 97.4565 136.969 96.6988 137.764 96.5531C138.558 96.4074 139.317 96.9319 139.463 97.7217C139.609 98.5143 139.084 99.2749 138.289 99.4177C138.202 99.4352 138.114 99.4439 138.026 99.4439C137.334 99.4439 136.721 98.9514 136.593 98.2491ZM141.186 97.4011C141.037 96.6114 141.557 95.8479 142.348 95.6992C143.143 95.5477 143.905 96.0693 144.057 96.8591C144.206 97.6488 143.686 98.4123 142.895 98.5609C142.801 98.5784 142.711 98.5872 142.62 98.5872C141.931 98.5872 141.32 98.1005 141.186 97.4011ZM145.777 96.5269C145.622 95.7371 146.136 94.9736 146.927 94.8163C147.719 94.6618 148.487 95.1776 148.642 95.9673C148.796 96.7571 148.282 97.5206 147.491 97.6779C147.395 97.6954 147.301 97.7042 147.208 97.7042C146.524 97.7042 145.914 97.2233 145.777 96.5269ZM2.43696 96.6726C1.83246 96.1393 1.77697 95.2184 2.31139 94.6152C2.8458 94.012 3.76862 93.9537 4.37312 94.487C4.97762 95.0202 5.0331 95.9411 4.49869 96.5443C4.20958 96.8707 3.8095 97.0368 3.40358 97.0368C3.0619 97.0368 2.71439 96.9173 2.43696 96.6726ZM150.362 95.6235C150.201 94.8367 150.712 94.0673 151.501 93.907C152.292 93.7468 153.063 94.2567 153.224 95.0436C153.384 95.8333 152.873 96.6026 152.082 96.7629C151.985 96.7833 151.886 96.792 151.79 96.792C151.109 96.792 150.502 96.3141 150.362 95.6235ZM154.938 94.6909C154.774 93.9041 155.28 93.1319 156.068 92.9658C156.856 92.8026 157.633 93.3067 157.797 94.0935C157.963 94.8804 157.458 95.6526 156.67 95.8187C156.567 95.8391 156.465 95.8508 156.366 95.8508C155.691 95.8508 155.084 95.3787 154.938 94.6909ZM159.511 93.7293C159.342 92.9425 159.841 92.1673 160.63 91.9954C161.418 91.8264 162.195 92.3247 162.364 93.1115C162.536 93.8983 162.034 94.6735 161.249 94.8454C161.143 94.8687 161.038 94.8774 160.936 94.8774C160.264 94.8774 159.66 94.4112 159.511 93.7293ZM5.72522 93.3679C5.25213 92.7152 5.39814 91.806 6.04937 91.3309C6.70352 90.8589 7.61465 91.0016 8.09066 91.6544C8.56375 92.3043 8.41773 93.2164 7.7665 93.6885C7.5066 93.8779 7.20581 93.9682 6.90794 93.9682C6.45821 93.9682 6.0114 93.7584 5.72522 93.3679ZM164.078 92.7356C163.9 91.9517 164.397 91.1707 165.182 90.9958C165.971 90.821 166.75 91.3135 166.926 92.1003C167.104 92.8842 166.607 93.6652 165.822 93.84C165.714 93.8633 165.606 93.875 165.501 93.875C164.832 93.875 164.23 93.4146 164.078 92.7356ZM168.634 91.7127C168.453 90.9288 168.944 90.1449 169.729 89.9642C170.515 89.7835 171.3 90.2702 171.481 91.0541C171.662 91.838 171.172 92.6219 170.386 92.8026C170.275 92.8288 170.167 92.8405 170.056 92.8405C169.393 92.8405 168.792 92.3859 168.634 91.7127ZM173.187 90.6549C173 89.871 173.482 89.0871 174.267 88.8976C175.053 88.7111 175.841 89.1949 176.028 89.9759C176.215 90.7598 175.73 91.5466 174.948 91.7331C174.834 91.7593 174.717 91.7739 174.606 91.7739C173.946 91.7739 173.347 91.3251 173.187 90.6549ZM9.57125 90.7161C9.16533 90.0225 9.40187 89.1308 10.0969 88.7257C10.7949 88.3206 11.6885 88.5538 12.0944 89.2502C12.5003 89.9467 12.2638 90.8385 11.5687 91.2435C11.3351 91.3776 11.084 91.4417 10.8357 91.4417C10.3305 91.4417 9.84284 91.1823 9.57125 90.7161ZM177.731 89.565C177.538 88.784 178.014 87.9943 178.797 87.8019C179.579 87.6067 180.371 88.0846 180.566 88.8656C180.759 89.6466 180.28 90.4363 179.498 90.6286C179.381 90.6578 179.264 90.6724 179.147 90.6724C178.49 90.6724 177.894 90.2294 177.731 89.565ZM182.266 88.4401C182.064 87.6591 182.538 86.8665 183.317 86.6654C184.1 86.4673 184.894 86.9364 185.093 87.7174C185.294 88.4984 184.824 89.291 184.042 89.4892C183.919 89.5213 183.799 89.5358 183.679 89.5358C183.028 89.5358 182.432 89.0987 182.266 88.4401ZM13.6392 88.4256C13.2771 87.7058 13.5662 86.8286 14.2875 86.4673C15.0059 86.1059 15.8849 86.3944 16.247 87.1113C16.6121 87.8311 16.323 88.7053 15.6017 89.0696C15.3914 89.1745 15.1665 89.2269 14.9446 89.2269C14.4102 89.2269 13.8962 88.9326 13.6392 88.4256ZM186.79 87.2774C186.585 86.4993 187.049 85.7008 187.829 85.4968C188.609 85.2899 189.409 85.7533 189.613 86.5314C189.821 87.3094 189.354 88.1079 188.574 88.3148C188.448 88.3469 188.323 88.3614 188.197 88.3614C187.552 88.3614 186.962 87.9301 186.787 87.2774H186.79ZM17.8328 86.3623C17.4999 85.628 17.824 84.7654 18.5599 84.4332C19.2929 84.101 20.1573 84.4244 20.4902 85.1588C20.8261 85.8932 20.499 86.7557 19.7631 87.088C19.5674 87.1754 19.363 87.2191 19.1615 87.2162C18.6066 87.2162 18.0752 86.8985 17.8328 86.3623ZM191.304 86.0767C191.091 85.3016 191.55 84.5002 192.329 84.2875C193.109 84.0747 193.912 84.5323 194.125 85.3074C194.339 86.0826 193.88 86.884 193.103 87.0967C192.972 87.1317 192.843 87.1492 192.715 87.1492C192.072 87.1492 191.485 86.7237 191.307 86.0767H191.304ZM195.81 84.8382C195.588 84.0631 196.041 83.2559 196.815 83.0373C197.592 82.8158 198.398 83.2646 198.62 84.0398C198.839 84.812 198.389 85.6192 197.615 85.8407C197.481 85.8786 197.346 85.8961 197.215 85.8961C196.578 85.8961 195.994 85.4764 195.81 84.8382ZM22.0993 84.4652C21.7898 83.7221 22.1431 82.8683 22.8878 82.5594C23.6325 82.2505 24.4852 82.6002 24.7977 83.3433C25.1072 84.0864 24.7539 84.9402 24.0092 85.2491C23.8252 85.3249 23.6354 85.3628 23.4485 85.3628C22.8761 85.3628 22.333 85.0247 22.0993 84.4652ZM200.302 83.5531C200.074 82.7809 200.515 81.9707 201.289 81.7434C202.063 81.5132 202.875 81.9562 203.102 82.7255C203.333 83.4977 202.889 84.3079 202.115 84.5381C201.975 84.5789 201.835 84.5964 201.701 84.5964C201.07 84.5964 200.489 84.1855 200.299 83.5531H200.302ZM26.4243 82.6934C26.1323 81.9416 26.5061 81.0994 27.2566 80.808C28.0071 80.5166 28.854 80.8896 29.146 81.6385C29.438 82.3904 29.0642 83.2326 28.3137 83.524C28.1385 83.591 27.9604 83.6231 27.7851 83.6231C27.2011 83.6231 26.6492 83.2704 26.4243 82.6934ZM204.781 82.2213C204.545 81.452 204.977 80.6361 205.745 80.4C206.519 80.164 207.334 80.5953 207.573 81.3646C207.81 82.1339 207.378 82.9499 206.607 83.1859C206.464 83.2296 206.318 83.25 206.174 83.25C205.552 83.25 204.974 82.8479 204.781 82.2213ZM30.7872 81.0236C30.5098 80.2689 30.9011 79.4325 31.6575 79.1557C32.4167 78.8788 33.2549 79.2693 33.5294 80.0241C33.8068 80.7818 33.4155 81.6181 32.6591 81.8921C32.4956 81.9532 32.3262 81.9824 32.1598 81.9824C31.5611 81.9824 31.0033 81.6152 30.7872 81.0236ZM209.244 80.84C208.998 80.0736 209.419 79.2518 210.187 79.0071C210.955 78.7594 211.779 79.1819 212.024 79.9483C212.272 80.7147 211.849 81.5336 211.081 81.7813C210.932 81.8279 210.783 81.8512 210.634 81.8512C210.018 81.8512 209.442 81.4578 209.244 80.84ZM35.1823 79.4413C34.9194 78.6807 35.3224 77.8501 36.0846 77.5879C36.8468 77.3256 37.6791 77.7277 37.9419 78.4883C38.2048 79.2489 37.8018 80.0795 37.0396 80.3417C36.8819 80.3942 36.7213 80.4204 36.5636 80.4204C35.9561 80.4204 35.3925 80.0445 35.1823 79.4413ZM213.688 79.4005C213.431 78.6399 213.843 77.8123 214.605 77.5558C215.37 77.2965 216.2 77.7073 216.457 78.4679C216.714 79.2314 216.305 80.0591 215.54 80.3155C215.385 80.368 215.227 80.3913 215.073 80.3913C214.465 80.3913 213.896 80.0095 213.688 79.4005ZM39.6036 77.9288C39.3524 77.1653 39.7671 76.3406 40.5322 76.09C41.3003 75.8365 42.1238 76.2532 42.3779 77.0167C42.629 77.7831 42.2143 78.6049 41.4463 78.8584C41.2944 78.908 41.1397 78.9313 40.9907 78.9313C40.3775 78.9313 39.8051 78.5408 39.6036 77.9288ZM218.113 77.8968C217.844 77.1391 218.241 76.3056 219 76.0375C219.76 75.7665 220.595 76.1629 220.864 76.9205C221.135 77.6782 220.738 78.5116 219.979 78.7827C219.815 78.8409 219.652 78.8672 219.488 78.8672C218.889 78.8672 218.326 78.4942 218.113 77.8968ZM222.511 76.3202C222.227 75.5684 222.607 74.7262 223.363 74.4435C224.117 74.1608 224.961 74.5397 225.244 75.2944C225.527 76.0463 225.148 76.8856 224.391 77.1711H224.394C224.225 77.2353 224.05 77.2644 223.877 77.2644C223.287 77.2644 222.733 76.906 222.511 76.3202ZM226.876 74.6592C226.576 73.9131 226.938 73.0622 227.685 72.7621C228.433 72.4619 229.286 72.8233 229.587 73.5693C229.887 74.3153 229.525 75.1633 228.778 75.4664C228.599 75.5363 228.415 75.5713 228.231 75.5713C227.653 75.5713 227.107 75.2274 226.876 74.6592ZM231.204 72.8932C230.88 72.1559 231.219 71.2962 231.958 70.9757C232.697 70.6551 233.558 70.9903 233.879 71.7275C234.203 72.4648 233.865 73.3245 233.126 73.648C232.936 73.7296 232.738 73.7674 232.542 73.7674C231.981 73.7674 231.444 73.441 231.204 72.8932ZM235.477 71.0019C235.126 70.2763 235.433 69.4079 236.16 69.0582C236.884 68.7085 237.757 69.0145 238.108 69.7401C238.455 70.4657 238.152 71.337 237.425 71.6838C237.22 71.7829 237.007 71.8295 236.794 71.8295C236.251 71.8295 235.728 71.5235 235.477 71.0019ZM239.67 68.9474C239.285 68.2422 239.545 67.3563 240.254 66.9717C240.964 66.587 241.852 66.8464 242.237 67.5516C242.623 68.2597 242.363 69.1427 241.656 69.5303C241.437 69.6498 241.195 69.708 240.961 69.708C240.444 69.708 239.942 69.4341 239.676 68.9474H239.67ZM243.747 66.6657C243.306 65.9925 243.496 65.0891 244.17 64.6491C244.845 64.2091 245.75 64.3985 246.191 65.0716C246.632 65.7448 246.442 66.6482 245.768 67.0882C245.523 67.2485 245.245 67.3272 244.971 67.3272C244.495 67.3272 244.027 67.0941 243.747 66.6657ZM247.611 64.04C247.07 63.4397 247.12 62.5189 247.722 61.9797C248.32 61.4435 249.246 61.4931 249.783 62.0934C250.321 62.6908 250.271 63.6117 249.672 64.1508C249.392 64.3985 249.044 64.5238 248.697 64.5238C248.297 64.5238 247.897 64.3606 247.611 64.04ZM250.989 60.782C250.251 60.4586 249.912 59.6018 250.233 58.8645C250.554 58.1273 251.416 57.7892 252.155 58.1098C252.893 58.4303 253.232 59.29 252.911 60.0273C252.671 60.5751 252.134 60.9015 251.571 60.9015C251.378 60.9015 251.179 60.8636 250.989 60.782ZM249.862 56.0466C249.342 55.4317 249.421 54.5137 250.037 53.9921C250.654 53.4763 251.573 53.555 252.093 54.1699C252.613 54.7847 252.534 55.7056 251.918 56.2214C251.644 56.4516 251.311 56.5653 250.978 56.5653C250.563 56.5653 250.148 56.3875 249.859 56.0466H249.862ZM246.553 53.893C245.812 53.5754 245.47 52.7215 245.785 51.9784C246.104 51.2411 246.962 50.8973 247.701 51.212C248.443 51.5296 248.787 52.3835 248.472 53.1237C248.236 53.6774 247.695 54.0096 247.129 54.0096C246.936 54.0096 246.74 53.9717 246.553 53.893ZM242.337 52.5292C241.554 52.3369 241.078 51.5442 241.274 50.7632C241.466 49.9851 242.258 49.5072 243.043 49.7025C243.826 49.8977 244.305 50.6875 244.109 51.4684C243.943 52.13 243.347 52.5729 242.693 52.5729C242.576 52.5729 242.456 52.5612 242.339 52.5292H242.337ZM237.874 51.6346C237.08 51.5034 236.54 50.7545 236.668 49.9589C236.797 49.1663 237.547 48.6272 238.344 48.7554C239.139 48.8865 239.679 49.6355 239.551 50.4281C239.434 51.145 238.815 51.652 238.111 51.652C238.032 51.652 237.953 51.6462 237.874 51.6346ZM233.319 51.0226C232.518 50.9352 231.94 50.2154 232.028 49.4169C232.115 48.6155 232.837 48.0385 233.637 48.1259C234.44 48.2134 235.018 48.9331 234.931 49.7316C234.849 50.4776 234.215 51.0313 233.479 51.0313C233.427 51.0313 233.374 51.0284 233.319 51.0226ZM228.719 50.6117C227.916 50.5534 227.312 49.8569 227.367 49.0555C227.425 48.2512 228.123 47.648 228.929 47.7063C229.733 47.7617 230.337 48.4611 230.282 49.2624C230.226 50.0318 229.584 50.6175 228.824 50.6175C228.789 50.6175 228.754 50.6146 228.719 50.6117ZM224.096 50.3494C223.29 50.3174 222.665 49.6355 222.7 48.8312C222.735 48.0298 223.416 47.4032 224.222 47.4382C225.028 47.4732 225.653 48.1522 225.618 48.9565C225.583 49.7404 224.937 50.3523 224.161 50.3523C224.14 50.3523 224.117 50.3523 224.096 50.3494ZM219.459 50.2066C218.653 50.1891 218.013 49.5247 218.028 48.7204C218.045 47.9161 218.711 47.2779 219.517 47.2925C220.323 47.31 220.963 47.9744 220.948 48.7787C220.934 49.5743 220.282 50.2066 219.491 50.2066H219.459ZM208.683 48.7583C208.671 47.954 209.314 47.2896 210.12 47.2779C210.926 47.2663 211.592 47.9074 211.603 48.7146C211.615 49.5189 210.973 50.1804 210.167 50.1921H210.143C209.349 50.1921 208.695 49.5539 208.683 48.7583ZM214.816 50.1571C214.007 50.1571 213.355 49.5043 213.355 48.7C213.355 47.8957 214.01 47.2429 214.816 47.2459C215.625 47.2459 216.276 47.8986 216.276 48.7029C216.276 49.5072 215.622 50.1571 214.816 50.1571Z" fill="url(#paint1_linear_1203_4474)"/>
</g>
<defs>
<linearGradient id="paint0_linear_1203_4474" x1="36.7826" y1="104.308" x2="211.238" y2="104.308" gradientUnits="userSpaceOnUse">
<stop stop-color="#8CD6D6"/>
<stop offset="1" stop-color="#FF9F80"/>
</linearGradient>
<linearGradient id="paint1_linear_1203_4474" x1="0.0335547" y1="78.6399" x2="253.034" y2="78.6399" gradientUnits="userSpaceOnUse">
<stop stop-color="#8CD6D6"/>
<stop offset="1" stop-color="#FF9F80"/>
</linearGradient>
<clipPath id="clip0_1203_4474">
<rect width="253" height="207" fill="white" transform="translate(0.0332031 0.806152)"/>
</clipPath>
</defs>
</svg>
