<svg width="251" height="232" viewBox="0 0 251 232" fill="none" xmlns="http://www.w3.org/2000/svg">
<g clip-path="url(#clip0_1233_1640)">
<path d="M244 231.786C243.202 231.656 242.659 230.899 242.788 230.096C242.92 229.295 243.674 228.75 244.475 228.88C245.273 229.012 245.816 229.769 245.684 230.573C245.567 231.294 244.945 231.806 244.241 231.806C244.161 231.806 244.079 231.8 244 231.786ZM247.468 230.531C247.298 229.736 247.805 228.953 248.597 228.785C249.389 228.615 250.17 229.124 250.337 229.919C250.504 230.714 250 231.497 249.208 231.665C249.105 231.688 249.002 231.697 248.902 231.697C248.225 231.697 247.615 231.223 247.468 230.531ZM239.104 229.996C238.405 229.58 238.179 228.677 238.593 227.979C239.007 227.281 239.907 227.051 240.606 227.466C241.301 227.882 241.527 228.785 241.113 229.486C240.84 229.948 240.353 230.205 239.852 230.205C239.596 230.205 239.338 230.137 239.104 229.996ZM251.983 229.23C251.537 228.55 251.722 227.637 252.397 227.19C253.074 226.742 253.984 226.928 254.43 227.605C254.879 228.282 254.691 229.195 254.016 229.645C253.767 229.81 253.485 229.89 253.209 229.89C252.734 229.89 252.268 229.657 251.983 229.23ZM235.249 226.736C234.673 226.162 234.673 225.232 235.249 224.655C235.821 224.081 236.751 224.081 237.323 224.655C237.895 225.232 237.895 226.162 237.323 226.736C237.035 227.025 236.66 227.169 236.284 227.169C235.909 227.169 235.533 227.025 235.249 226.736ZM255.709 226.365C255.099 225.832 255.034 224.902 255.565 224.29C256.099 223.677 257.026 223.613 257.636 224.148C258.247 224.681 258.311 225.612 257.777 226.224C257.487 226.56 257.079 226.73 256.671 226.73C256.331 226.73 255.985 226.61 255.709 226.365ZM231.927 223.406C231.355 222.832 231.355 221.899 231.927 221.325C232.5 220.751 233.43 220.751 234.002 221.325C234.574 221.899 234.574 222.832 234.002 223.406C233.717 223.695 233.342 223.839 232.966 223.839C232.59 223.839 232.215 223.695 231.927 223.406ZM258.54 222.603C257.774 222.332 257.378 221.49 257.648 220.721C257.921 219.956 258.76 219.555 259.523 219.829C260.286 220.103 260.685 220.945 260.412 221.711C260.201 222.314 259.634 222.688 259.03 222.688C258.869 222.688 258.701 222.662 258.54 222.603ZM228.609 220.077C228.034 219.5 228.034 218.569 228.609 217.995C229.181 217.418 230.111 217.418 230.683 217.995C231.256 218.569 231.256 219.5 230.683 220.077C230.396 220.362 230.02 220.506 229.645 220.506C229.269 220.506 228.897 220.362 228.609 220.077ZM258.288 216.635C258.264 215.822 258.898 215.142 259.708 215.119C260.52 215.095 261.195 215.731 261.219 216.544H261.222C261.245 217.359 260.608 218.036 259.799 218.063H259.755C258.963 218.063 258.311 217.433 258.288 216.635ZM225.288 216.744C224.716 216.17 224.716 215.239 225.288 214.662C225.863 214.088 226.79 214.088 227.365 214.662C227.937 215.239 227.937 216.17 227.365 216.744C227.078 217.032 226.702 217.177 226.327 217.177C225.951 217.177 225.576 217.032 225.288 216.744ZM221.97 213.414C221.398 212.84 221.398 211.906 221.97 211.332C222.542 210.758 223.472 210.758 224.044 211.332C224.619 211.906 224.619 212.84 224.044 213.414C223.76 213.702 223.384 213.847 223.009 213.847C222.633 213.847 222.258 213.702 221.97 213.414ZM257.402 212.592C257.082 211.848 257.431 210.982 258.173 210.661C258.919 210.343 259.781 210.691 260.101 211.438C260.418 212.186 260.072 213.052 259.326 213.37C259.139 213.449 258.945 213.488 258.751 213.488C258.182 213.488 257.639 213.152 257.402 212.592ZM218.652 210.081C218.077 209.507 218.077 208.577 218.652 208C219.224 207.425 220.154 207.425 220.726 208C221.298 208.577 221.298 209.507 220.726 210.081C220.439 210.37 220.063 210.514 219.688 210.514C219.312 210.514 218.936 210.37 218.652 210.081ZM255.105 209.16C254.535 208.58 254.544 207.649 255.122 207.078C255.697 206.507 256.627 206.516 257.196 207.096C257.763 207.676 257.757 208.606 257.179 209.177C256.894 209.46 256.522 209.598 256.149 209.598C255.771 209.598 255.392 209.454 255.105 209.16ZM215.331 206.751C214.759 206.177 214.759 205.244 215.331 204.67C215.903 204.096 216.833 204.096 217.408 204.67C217.98 205.244 217.98 206.177 217.408 206.751C217.12 207.04 216.745 207.184 216.369 207.184C215.994 207.184 215.618 207.04 215.331 206.751ZM251.795 205.839C251.22 205.261 251.22 204.331 251.795 203.754C252.367 203.18 253.294 203.18 253.869 203.754C254.442 204.331 254.442 205.261 253.869 205.839C253.582 206.124 253.206 206.268 252.831 206.268C252.455 206.268 252.08 206.124 251.795 205.839ZM212.013 203.421C211.441 202.844 211.441 201.914 212.013 201.34C212.585 200.763 213.515 200.763 214.087 201.34C214.659 201.914 214.659 202.844 214.087 203.421C213.802 203.707 213.427 203.851 213.051 203.851C212.676 203.851 212.3 203.707 212.013 203.421ZM248.474 202.506C247.902 201.932 247.902 200.998 248.474 200.424C249.049 199.85 249.976 199.85 250.548 200.424C251.12 200.998 251.12 201.932 250.548 202.506C250.264 202.794 249.888 202.939 249.513 202.939C249.137 202.939 248.762 202.794 248.474 202.506ZM208.692 200.089C208.119 199.514 208.119 198.584 208.692 198.007C209.267 197.433 210.197 197.433 210.769 198.007C211.341 198.584 211.341 199.514 210.769 200.089C210.481 200.377 210.106 200.521 209.73 200.521C209.355 200.521 208.979 200.377 208.692 200.089ZM245.156 199.176C244.584 198.602 244.584 197.668 245.156 197.094C245.728 196.517 246.658 196.517 247.23 197.094C247.802 197.668 247.802 198.602 247.23 199.176C246.943 199.464 246.567 199.606 246.192 199.606C245.816 199.606 245.441 199.464 245.156 199.176ZM205.373 196.759C204.801 196.185 204.801 195.251 205.373 194.677C205.946 194.103 206.876 194.103 207.448 194.677C208.023 195.251 208.023 196.185 207.448 196.759C207.163 197.047 206.788 197.192 206.412 197.192C206.036 197.192 205.661 197.047 205.373 196.759ZM241.838 195.846C241.263 195.269 241.263 194.336 241.838 193.762C242.41 193.187 243.337 193.187 243.909 193.762C244.484 194.336 244.484 195.269 243.909 195.846C243.625 196.132 243.249 196.276 242.873 196.276C242.498 196.276 242.122 196.132 241.838 195.846ZM202.055 193.429C201.483 192.852 201.483 191.921 202.055 191.347C202.627 190.77 203.557 190.77 204.13 191.347C204.702 191.921 204.702 192.852 204.13 193.429C203.842 193.714 203.466 193.859 203.091 193.859C202.715 193.859 202.34 193.714 202.055 193.429ZM238.517 192.513C237.945 191.939 237.945 191.006 238.517 190.432C239.089 189.858 240.019 189.858 240.591 190.432C241.163 191.006 241.163 191.939 240.591 192.513C240.303 192.802 239.928 192.946 239.555 192.946C239.18 192.946 238.804 192.802 238.517 192.513ZM198.734 190.096C198.162 189.522 198.162 188.589 198.734 188.014C199.309 187.44 200.236 187.44 200.811 188.014C201.383 188.589 201.383 189.522 200.811 190.096C200.524 190.385 200.148 190.529 199.773 190.529C199.397 190.529 199.022 190.385 198.734 190.096ZM235.199 189.183C234.624 188.609 234.624 187.676 235.199 187.099C235.771 186.525 236.698 186.525 237.273 187.099C237.845 187.676 237.845 188.609 237.273 189.183C236.985 189.469 236.61 189.613 236.234 189.613C235.859 189.613 235.483 189.469 235.199 189.183ZM195.416 186.766C194.844 186.192 194.844 185.259 195.416 184.685C195.988 184.111 196.918 184.111 197.49 184.685C198.065 185.259 198.065 186.192 197.49 186.766C197.206 187.055 196.83 187.199 196.455 187.199C196.079 187.199 195.704 187.055 195.416 186.766ZM231.878 185.853C231.305 185.276 231.305 184.343 231.878 183.769C232.453 183.195 233.38 183.195 233.952 183.769C234.527 184.343 234.527 185.276 233.952 185.853C233.667 186.139 233.292 186.283 232.916 186.283C232.541 186.283 232.165 186.139 231.878 185.853ZM192.098 183.436C191.523 182.859 191.523 181.929 192.098 181.352C192.67 180.778 193.6 180.778 194.172 181.352C194.744 181.929 194.744 182.859 194.172 183.436C193.885 183.722 193.509 183.866 193.134 183.866C192.758 183.866 192.383 183.722 192.098 183.436ZM228.559 182.521C227.987 181.947 227.987 181.013 228.559 180.439C229.131 179.862 230.062 179.862 230.634 180.439C231.206 181.013 231.206 181.947 230.634 182.521C230.346 182.809 229.971 182.951 229.598 182.951C229.222 182.951 228.847 182.809 228.559 182.521ZM188.78 180.104C188.205 179.529 188.205 178.596 188.78 178.022C189.352 177.448 190.279 177.448 190.854 178.022C191.426 178.596 191.426 179.529 190.854 180.104C190.566 180.392 190.191 180.536 189.815 180.536C189.44 180.536 189.064 180.392 188.78 180.104ZM225.241 179.191C224.666 178.614 224.666 177.683 225.241 177.106C225.813 176.532 226.74 176.532 227.313 177.106C227.888 177.683 227.888 178.614 227.313 179.191C227.028 179.476 226.652 179.621 226.277 179.621C225.901 179.621 225.526 179.476 225.241 179.191ZM185.459 176.774C184.887 176.2 184.887 175.266 185.459 174.692C186.031 174.115 186.961 174.115 187.533 174.692C188.105 175.266 188.105 176.2 187.533 176.774C187.245 177.062 186.873 177.203 186.497 177.203C186.122 177.203 185.746 177.062 185.459 176.774ZM221.92 175.858C221.348 175.284 221.348 174.351 221.92 173.776C222.492 173.202 223.422 173.202 223.994 173.776C224.566 174.351 224.566 175.284 223.994 175.858C223.71 176.147 223.334 176.291 222.959 176.291C222.583 176.291 222.208 176.147 221.92 175.858ZM182.141 173.444C181.568 172.867 181.568 171.936 182.141 171.359C182.713 170.785 183.64 170.785 184.215 171.359C184.787 171.936 184.787 172.867 184.215 173.444C183.927 173.729 183.552 173.874 183.176 173.874C182.801 173.874 182.425 173.729 182.141 173.444ZM218.602 172.528C218.03 171.954 218.03 171.021 218.602 170.447C219.174 169.87 220.104 169.87 220.676 170.447C221.248 171.021 221.248 171.954 220.676 172.528C220.389 172.814 220.013 172.958 219.638 172.958C219.265 172.958 218.89 172.814 218.602 172.528ZM178.819 170.111C178.247 169.537 178.247 168.604 178.819 168.029C179.395 167.455 180.322 167.455 180.894 168.029C181.469 168.604 181.469 169.537 180.894 170.111C180.609 170.399 180.234 170.544 179.858 170.544C179.483 170.544 179.107 170.399 178.819 170.111ZM215.284 169.198C214.709 168.621 214.709 167.691 215.284 167.114C215.856 166.54 216.783 166.54 217.355 167.114C217.93 167.691 217.93 168.621 217.355 169.198C217.071 169.484 216.695 169.628 216.32 169.628C215.944 169.628 215.568 169.484 215.284 169.198ZM175.501 166.781C174.929 166.207 174.929 165.274 175.501 164.697C176.073 164.123 177.003 164.123 177.576 164.697C178.148 165.274 178.148 166.207 177.576 166.781C177.288 167.067 176.912 167.211 176.537 167.211C176.164 167.211 175.789 167.067 175.501 166.781ZM211.963 165.865C211.391 165.291 211.391 164.358 211.963 163.784C212.535 163.21 213.465 163.21 214.037 163.784C214.609 164.358 214.609 165.291 214.037 165.865C213.749 166.154 213.377 166.295 213.001 166.295C212.626 166.295 212.25 166.154 211.963 165.865ZM208.645 162.536C208.07 161.959 208.07 161.028 208.645 160.454C209.217 159.877 210.144 159.877 210.719 160.454C211.291 161.028 211.291 161.959 210.719 162.536C210.431 162.821 210.056 162.965 209.68 162.965C209.305 162.965 208.929 162.821 208.645 162.536ZM205.324 159.203C204.751 158.629 204.751 157.698 205.324 157.121C205.899 156.547 206.826 156.547 207.398 157.121C207.973 157.698 207.973 158.629 207.398 159.203C207.113 159.491 206.738 159.636 206.362 159.636C205.987 159.636 205.611 159.491 205.324 159.203ZM202.005 155.873C201.433 155.299 201.433 154.366 202.005 153.791C202.578 153.217 203.508 153.217 204.08 153.791C204.652 154.366 204.652 155.299 204.08 155.873C203.792 156.159 203.42 156.303 203.044 156.303C202.668 156.303 202.293 156.159 202.005 155.873ZM198.687 152.543C198.112 151.966 198.112 151.036 198.687 150.462C199.259 149.884 200.186 149.884 200.761 150.462C201.334 151.036 201.334 151.966 200.761 152.543C200.474 152.829 200.098 152.973 199.723 152.973C199.347 152.973 198.972 152.829 198.687 152.543ZM195.366 149.21C194.794 148.636 194.794 147.706 195.366 147.129C195.938 146.555 196.868 146.555 197.44 147.129C198.013 147.706 198.013 148.636 197.44 149.21C197.156 149.499 196.78 149.643 196.405 149.643C196.029 149.643 195.654 149.499 195.366 149.21ZM192.048 145.88C191.473 145.306 191.473 144.373 192.048 143.799C192.62 143.225 193.55 143.225 194.122 143.799C194.694 144.373 194.694 145.306 194.122 145.88C193.835 146.166 193.459 146.31 193.084 146.31C192.708 146.31 192.336 146.166 192.048 145.88Z" fill="url(#paint0_linear_1233_1640)"/>
<path d="M118.765 181.729C117.956 181.708 117.316 181.031 117.337 180.218C117.357 179.406 118.029 178.764 118.839 178.785C119.648 178.805 120.291 179.479 120.27 180.292C120.25 181.093 119.596 181.729 118.804 181.729H118.765ZM122.031 180.292C122.007 179.476 122.644 178.802 123.457 178.779C124.266 178.755 124.941 179.397 124.962 180.209C124.985 181.022 124.348 181.699 123.536 181.72C123.536 181.72 123.509 181.72 123.495 181.72C122.706 181.72 122.051 181.087 122.031 180.289V180.292ZM114.004 181.481C113.197 181.42 112.593 180.713 112.657 179.9C112.719 179.091 113.426 178.484 114.233 178.546C115.039 178.611 115.644 179.317 115.579 180.13C115.521 180.901 114.878 181.487 114.121 181.487C114.083 181.487 114.045 181.484 114.007 181.481H114.004ZM126.719 180.112C126.657 179.303 127.256 178.593 128.066 178.528C128.872 178.464 129.579 179.067 129.644 179.877C129.711 180.686 129.107 181.396 128.3 181.464C128.259 181.464 128.221 181.464 128.18 181.464C127.423 181.464 126.784 180.881 126.719 180.109V180.112ZM109.257 180.987C108.453 180.881 107.887 180.142 107.992 179.335C108.098 178.528 108.834 177.96 109.638 178.066C110.442 178.172 111.008 178.911 110.903 179.718C110.806 180.46 110.175 180.999 109.451 180.999C109.386 180.999 109.321 180.993 109.257 180.987ZM131.395 179.691C131.29 178.885 131.853 178.143 132.654 178.034C133.458 177.928 134.197 178.493 134.303 179.3C134.411 180.106 133.845 180.845 133.044 180.954C132.977 180.963 132.912 180.966 132.848 180.966C132.123 180.966 131.495 180.43 131.395 179.691ZM104.545 180.239C103.75 180.092 103.222 179.323 103.372 178.522C103.515 177.725 104.281 177.198 105.079 177.345C105.874 177.492 106.402 178.26 106.253 179.061C106.124 179.768 105.507 180.262 104.815 180.262C104.724 180.262 104.636 180.257 104.545 180.239ZM136.043 179.02C135.893 178.219 136.418 177.451 137.213 177.301C138.008 177.15 138.777 177.678 138.927 178.475C139.076 179.276 138.551 180.045 137.756 180.195C137.665 180.212 137.574 180.221 137.483 180.221C136.791 180.221 136.175 179.727 136.043 179.02ZM99.8775 179.244C99.0912 179.055 98.6071 178.26 98.7949 177.468C98.9856 176.679 99.7748 176.191 100.564 176.382C101.353 176.573 101.837 177.365 101.647 178.157C101.485 178.832 100.887 179.285 100.224 179.285C100.109 179.285 99.9948 179.273 99.8775 179.244ZM140.646 178.104C140.455 177.312 140.936 176.517 141.725 176.326C142.512 176.132 143.307 176.618 143.497 177.407C143.688 178.199 143.207 178.994 142.418 179.188C142.303 179.214 142.186 179.229 142.072 179.229C141.412 179.229 140.81 178.776 140.646 178.104ZM95.2714 178.004C94.4969 177.772 94.0538 176.953 94.2827 176.173C94.5145 175.393 95.3301 174.948 96.1075 175.181C96.885 175.413 97.3251 176.232 97.0962 177.012C96.9055 177.651 96.3217 178.063 95.6909 178.063C95.553 178.063 95.4122 178.046 95.2714 178.004ZM145.196 176.944C144.964 176.167 145.404 175.346 146.179 175.11C146.956 174.878 147.775 175.319 148.007 176.099C148.239 176.877 147.801 177.698 147.024 177.931C146.883 177.975 146.742 177.995 146.601 177.995C145.971 177.995 145.387 177.583 145.196 176.944ZM90.7357 176.518C89.9729 176.244 89.5739 175.405 89.8468 174.636C90.1167 173.871 90.9557 173.473 91.7185 173.744C92.4843 174.018 92.8833 174.86 92.6104 175.625C92.3962 176.229 91.8329 176.603 91.2286 176.603C91.0643 176.603 90.9 176.576 90.7357 176.518ZM149.679 175.546C149.406 174.78 149.802 173.938 150.565 173.665C151.328 173.388 152.167 173.785 152.44 174.551C152.716 175.316 152.319 176.158 151.557 176.435C151.392 176.494 151.225 176.52 151.061 176.52C150.459 176.52 149.893 176.147 149.679 175.546ZM86.2851 174.792C85.537 174.48 85.1849 173.617 85.4959 172.867C85.8098 172.119 86.6694 171.763 87.4146 172.075C88.1627 172.39 88.5177 173.252 88.2038 174C87.9691 174.566 87.4234 174.907 86.8513 174.907C86.6606 174.907 86.4699 174.872 86.2851 174.792ZM154.083 173.909C153.769 173.161 154.118 172.298 154.866 171.983C155.614 171.668 156.474 172.019 156.788 172.77C157.102 173.517 156.75 174.383 156.001 174.695C155.817 174.775 155.623 174.813 155.435 174.813C154.86 174.813 154.317 174.474 154.083 173.909ZM81.9343 172.834C81.2037 172.481 80.8957 171.601 81.2477 170.868C81.5998 170.135 82.4741 169.828 83.2046 170.182C83.9351 170.532 84.2432 171.412 83.8911 172.145C83.6388 172.672 83.1136 172.979 82.568 172.979C82.3538 172.979 82.1396 172.931 81.9343 172.834ZM158.392 172.042C158.037 171.309 158.343 170.429 159.07 170.076C159.801 169.719 160.678 170.026 161.03 170.756C161.385 171.489 161.08 172.369 160.352 172.725C160.144 172.826 159.927 172.873 159.713 172.873C159.167 172.873 158.645 172.566 158.392 172.042ZM77.692 170.644C76.979 170.252 76.7209 169.357 77.1111 168.645C77.5013 167.932 78.3931 167.67 79.1031 168.062C79.8131 168.453 80.0742 169.348 79.684 170.061C79.417 170.55 78.9154 170.826 78.3961 170.826C78.1584 170.826 77.9149 170.768 77.692 170.644ZM162.597 169.943C162.203 169.234 162.462 168.336 163.172 167.944C163.879 167.552 164.771 167.809 165.164 168.521C165.554 169.234 165.299 170.129 164.589 170.52C164.363 170.647 164.122 170.706 163.882 170.706C163.365 170.706 162.864 170.432 162.597 169.943ZM73.5699 168.23C72.8834 167.803 72.6722 166.893 73.0976 166.204C73.5259 165.512 74.4295 165.3 75.119 165.727C75.8055 166.157 76.0197 167.064 75.5913 167.756C75.3126 168.203 74.8344 168.45 74.3415 168.45C74.0804 168.45 73.8134 168.38 73.5699 168.23ZM166.683 167.626C166.252 166.937 166.463 166.027 167.15 165.598C167.839 165.168 168.743 165.377 169.171 166.069C169.6 166.758 169.391 167.664 168.702 168.094C168.458 168.247 168.191 168.318 167.924 168.318C167.434 168.318 166.956 168.074 166.68 167.626H166.683ZM69.5858 165.6C68.9198 165.135 68.7585 164.22 69.222 163.551C69.6826 162.883 70.598 162.721 71.261 163.183C71.927 163.649 72.0913 164.567 71.6278 165.232C71.3432 165.645 70.8884 165.865 70.4249 165.865C70.1344 165.865 69.8411 165.78 69.5858 165.6ZM170.638 165.091C170.175 164.426 170.336 163.507 170.999 163.042C171.662 162.574 172.577 162.736 173.044 163.401C173.507 164.07 173.346 164.985 172.683 165.453C172.428 165.633 172.134 165.718 171.844 165.718C171.38 165.718 170.926 165.5 170.638 165.091ZM65.7455 162.762C65.1059 162.262 64.9915 161.337 65.4873 160.695C65.986 160.054 66.9072 159.939 67.5468 160.436C68.1864 160.937 68.3008 161.861 67.805 162.503C67.5145 162.877 67.0833 163.071 66.6461 163.071C66.3293 163.071 66.0124 162.971 65.7455 162.762ZM174.458 162.35C173.959 161.711 174.071 160.784 174.71 160.283C175.347 159.783 176.268 159.895 176.767 160.537C177.269 161.175 177.154 162.1 176.518 162.603C176.251 162.812 175.931 162.915 175.614 162.915C175.18 162.915 174.748 162.721 174.458 162.35ZM62.0576 159.724C61.4474 159.191 61.3799 158.261 61.911 157.645C62.442 157.033 63.3661 156.965 63.9822 157.498C64.5925 158.031 64.657 158.961 64.1289 159.574C63.8385 159.909 63.4307 160.083 63.0199 160.083C62.6767 160.083 62.3364 159.965 62.0576 159.724ZM178.125 159.409C177.594 158.797 177.659 157.866 178.269 157.333C178.879 156.797 179.806 156.862 180.337 157.475C180.871 158.087 180.807 159.017 180.197 159.553C179.918 159.795 179.575 159.915 179.234 159.915C178.824 159.915 178.416 159.745 178.125 159.409ZM58.5371 156.497C57.9532 155.932 57.9356 155.001 58.496 154.416C59.0593 153.83 59.9864 153.809 60.5731 154.374C61.157 154.94 61.1746 155.87 60.6113 156.456C60.3238 156.756 59.9394 156.906 59.5551 156.906C59.1884 156.906 58.8216 156.771 58.5371 156.497ZM181.634 156.279C181.071 155.696 181.086 154.763 181.669 154.198C182.25 153.632 183.18 153.647 183.744 154.233C184.307 154.816 184.292 155.749 183.708 156.315C183.424 156.591 183.057 156.73 182.687 156.73C182.306 156.73 181.922 156.58 181.634 156.279ZM55.1896 153.088C54.6351 152.496 54.6644 151.563 55.2571 151.009C55.8468 150.453 56.7768 150.482 57.3283 151.077C57.8828 151.669 57.8535 152.602 57.2609 153.155C56.9792 153.423 56.6183 153.553 56.2604 153.553C55.8673 153.553 55.4771 153.397 55.1896 153.088ZM184.976 152.973C184.383 152.416 184.351 151.486 184.902 150.891C185.454 150.297 186.381 150.261 186.974 150.818C187.566 151.371 187.602 152.302 187.047 152.896C186.76 153.208 186.369 153.367 185.976 153.367C185.615 153.367 185.257 153.235 184.976 152.973ZM52.0181 149.511C51.4988 148.886 51.5751 147.959 52.1942 147.435C52.8161 146.911 53.7403 146.99 54.2625 147.612C54.7847 148.233 54.7055 149.163 54.0865 149.687C53.8107 149.92 53.4762 150.032 53.1418 150.032C52.7252 150.032 52.3086 149.855 52.0181 149.511ZM188.138 149.493C187.519 148.972 187.437 148.041 187.957 147.42C188.479 146.796 189.403 146.714 190.025 147.238C190.644 147.759 190.726 148.686 190.207 149.31C189.916 149.658 189.5 149.837 189.08 149.837C188.749 149.837 188.414 149.725 188.138 149.493ZM49.0432 145.769C48.5533 145.118 48.6794 144.196 49.3278 143.708C49.9733 143.216 50.8945 143.345 51.3815 143.993C51.8714 144.641 51.7423 145.562 51.0969 146.054C50.8329 146.254 50.5219 146.351 50.2138 146.351C49.7679 146.351 49.3307 146.151 49.0432 145.769ZM191.119 145.854C190.471 145.365 190.342 144.441 190.829 143.793C191.316 143.142 192.234 143.013 192.882 143.502C193.531 143.987 193.66 144.912 193.173 145.562C192.885 145.945 192.445 146.148 191.999 146.148C191.691 146.148 191.383 146.054 191.119 145.854ZM46.2649 141.873C45.8131 141.199 45.9891 140.284 46.661 139.83C47.3299 139.374 48.2423 139.55 48.697 140.225C49.1489 140.899 48.9728 141.814 48.301 142.268C48.0516 142.439 47.7641 142.521 47.4824 142.521C47.0101 142.521 46.5495 142.294 46.2649 141.873ZM193.9 142.062C193.229 141.608 193.05 140.693 193.501 140.019C193.953 139.344 194.866 139.165 195.538 139.618C196.209 140.069 196.388 140.984 195.936 141.658C195.652 142.082 195.188 142.312 194.719 142.312C194.437 142.312 194.153 142.23 193.9 142.062ZM43.7008 137.837C43.2812 137.139 43.5071 136.235 44.2024 135.817C44.8948 135.396 45.7955 135.623 46.2121 136.321C46.6287 137.015 46.4028 137.919 45.7075 138.34C45.4728 138.482 45.2117 138.549 44.9535 138.549C44.4577 138.549 43.9707 138.296 43.6978 137.837H43.7008ZM196.479 138.125C195.784 137.707 195.555 136.803 195.972 136.106C196.385 135.408 197.286 135.181 197.984 135.596C198.68 136.014 198.906 136.918 198.489 137.616C198.216 138.078 197.729 138.334 197.23 138.334C196.972 138.334 196.714 138.267 196.479 138.125ZM41.3508 133.665C40.9723 132.95 41.2451 132.057 41.9581 131.678C42.6739 131.295 43.5629 131.569 43.9443 132.287C44.3227 133.006 44.0499 133.898 43.334 134.277C43.114 134.395 42.8793 134.448 42.6475 134.448C42.1224 134.448 41.6148 134.166 41.3508 133.665ZM198.844 134.057C198.128 133.68 197.852 132.788 198.231 132.069C198.606 131.351 199.495 131.074 200.211 131.454C200.93 131.834 201.203 132.723 200.827 133.441C200.563 133.942 200.053 134.227 199.527 134.227C199.296 134.227 199.064 134.174 198.844 134.057ZM39.2296 129.378C38.8864 128.639 39.2061 127.765 39.9396 127.423C40.676 127.082 41.5473 127.4 41.8877 128.139C42.2309 128.875 41.9111 129.752 41.1747 130.094C40.9752 130.185 40.7669 130.229 40.5586 130.229C40.0041 130.229 39.4761 129.914 39.2296 129.378ZM200.989 129.87C200.255 129.531 199.932 128.657 200.273 127.918C200.61 127.179 201.481 126.855 202.218 127.197C202.954 127.535 203.274 128.41 202.937 129.149C202.69 129.687 202.159 130.005 201.605 130.005C201.399 130.005 201.188 129.961 200.989 129.87ZM37.3344 124.98C37.0351 124.226 37.3989 123.369 38.1529 123.066C38.904 122.766 39.7577 123.131 40.0599 123.884C40.3591 124.641 39.9953 125.498 39.2443 125.801C39.0653 125.872 38.8805 125.907 38.6986 125.907C38.1148 125.907 37.5661 125.557 37.3344 124.98ZM202.91 125.571C202.156 125.274 201.789 124.417 202.089 123.661C202.388 122.904 203.242 122.536 203.993 122.836C204.747 123.137 205.113 123.993 204.817 124.747C204.588 125.324 204.037 125.677 203.453 125.677C203.271 125.677 203.089 125.645 202.91 125.571ZM35.6797 120.49C35.4186 119.721 35.8293 118.885 36.5951 118.623C37.3637 118.361 38.194 118.773 38.4551 119.542C38.7162 120.313 38.3084 121.149 37.5397 121.408C37.3842 121.464 37.2229 121.488 37.0674 121.488C36.4572 121.488 35.8851 121.102 35.6797 120.49ZM204.6 121.179C203.831 120.92 203.421 120.084 203.679 119.315C203.937 118.544 204.77 118.129 205.539 118.388C206.305 118.65 206.718 119.483 206.46 120.254C206.252 120.87 205.683 121.255 205.069 121.255C204.914 121.255 204.756 121.232 204.6 121.179ZM34.2627 115.918C34.0426 115.134 34.4974 114.322 35.2748 114.101C36.0552 113.88 36.865 114.337 37.085 115.12C37.305 115.9 36.8503 116.715 36.0728 116.936C35.9408 116.972 35.8059 116.989 35.6738 116.989C35.0343 116.989 34.4446 116.565 34.2627 115.918ZM206.055 116.701C205.275 116.483 204.82 115.67 205.037 114.887C205.254 114.104 206.064 113.648 206.844 113.865C207.625 114.083 208.08 114.896 207.862 115.679C207.684 116.33 207.094 116.757 206.451 116.757C206.319 116.757 206.187 116.739 206.055 116.701ZM33.0891 111.275C32.9102 110.483 33.4089 109.696 34.1981 109.517C34.9873 109.337 35.7736 109.835 35.9496 110.63C36.1286 111.422 35.6298 112.208 34.8406 112.387C34.7321 112.414 34.6235 112.426 34.515 112.426C33.8461 112.426 33.2388 111.961 33.0862 111.275H33.0891ZM207.273 112.152C206.481 111.975 205.982 111.189 206.161 110.394C206.34 109.602 207.123 109.102 207.912 109.278C208.704 109.455 209.203 110.241 209.027 111.036C208.875 111.722 208.27 112.187 207.598 112.187C207.493 112.187 207.384 112.175 207.279 112.152H207.273ZM32.1621 106.579C32.0271 105.778 32.564 105.018 33.362 104.88C34.16 104.744 34.9169 105.283 35.0548 106.084C35.1898 106.885 34.6558 107.647 33.8549 107.783C33.7727 107.797 33.6876 107.803 33.6055 107.803C32.9043 107.803 32.2853 107.297 32.1621 106.579ZM208.247 107.544C207.449 107.409 206.909 106.652 207.044 105.848C207.179 105.048 207.933 104.506 208.734 104.641C209.532 104.777 210.072 105.536 209.937 106.337C209.816 107.056 209.194 107.565 208.49 107.565C208.411 107.565 208.329 107.559 208.247 107.544ZM31.4843 101.841C31.3905 101.032 31.9655 100.302 32.7723 100.207C33.5762 100.113 34.3037 100.69 34.3976 101.5C34.4915 102.307 33.9165 103.037 33.1126 103.131C33.0539 103.137 32.9953 103.143 32.9395 103.143C32.2061 103.143 31.5724 102.589 31.4843 101.841ZM208.977 102.892C208.173 102.798 207.595 102.071 207.686 101.261C207.777 100.455 208.505 99.8747 209.312 99.966C210.116 100.057 210.694 100.787 210.603 101.597C210.518 102.348 209.884 102.901 209.147 102.901C209.092 102.901 209.036 102.898 208.977 102.892ZM31.056 97.0719C31.0032 96.2593 31.6164 95.5615 32.4261 95.5085C33.2358 95.4585 33.9311 96.0738 33.984 96.8864C34.0368 97.696 33.4207 98.3967 32.6139 98.4468C32.5816 98.4497 32.5493 98.4497 32.517 98.4497C31.7513 98.4497 31.1059 97.8521 31.056 97.0719ZM209.464 98.2054C208.655 98.1553 208.041 97.4605 208.088 96.6479C208.138 95.8353 208.834 95.217 209.643 95.2671C210.453 95.3171 211.066 96.0149 211.016 96.8275C210.969 97.6077 210.324 98.2083 209.555 98.2083C209.526 98.2083 209.494 98.2083 209.464 98.2054ZM30.877 92.2876C30.8682 91.475 31.5166 90.8096 32.3263 90.8008C33.139 90.789 33.8021 91.4426 33.8109 92.2552C33.8197 93.0678 33.1713 93.7361 32.3616 93.7449H32.344C31.543 93.7449 30.8858 93.0972 30.877 92.2876ZM209.705 93.5035C208.895 93.4947 208.244 92.8322 208.25 92.0167C208.256 91.2071 208.919 90.5505 209.728 90.5593C210.541 90.5652 211.189 91.2306 211.184 92.0432C211.178 92.8529 210.521 93.5035 209.717 93.5035H209.705ZM32.3557 89.0343C31.546 88.9989 30.9181 88.3129 30.9504 87.5003C30.9827 86.6878 31.6692 86.0577 32.4789 86.093C33.2857 86.1254 33.9135 86.8114 33.8813 87.624C33.849 88.416 33.2006 89.0343 32.4173 89.0343H32.3557ZM208.168 87.3855C208.132 86.5729 208.757 85.8869 209.567 85.8516C210.377 85.8133 211.06 86.4434 211.098 87.256C211.134 88.0686 210.506 88.7575 209.699 88.7928H209.634C208.851 88.7928 208.203 88.1775 208.168 87.3855ZM32.5963 84.3295C31.7895 84.2529 31.1968 83.5345 31.2731 82.7249C31.3494 81.9152 32.0652 81.3235 32.872 81.3971C33.6788 81.4736 34.2685 82.192 34.1952 83.0016C34.1218 83.7642 33.4823 84.3354 32.7341 84.3354C32.6901 84.3354 32.6432 84.3354 32.5963 84.3295ZM207.842 82.7661C207.763 81.9565 208.352 81.2351 209.159 81.1586C209.966 81.0791 210.685 81.6709 210.761 82.4805C210.84 83.2902 210.251 84.0086 209.444 84.088C209.397 84.0939 209.347 84.0939 209.3 84.0939C208.555 84.0939 207.915 83.5257 207.842 82.7661ZM33.0833 79.6453C32.2823 79.5246 31.7279 78.7768 31.8481 77.973C31.9655 77.1692 32.7107 76.6128 33.5116 76.7335C34.3155 76.8513 34.867 77.5991 34.7497 78.4028C34.6411 79.1359 34.0133 79.66 33.3004 79.66C33.23 79.66 33.1566 79.6541 33.0833 79.6453ZM207.276 78.1673C207.155 77.3636 207.707 76.6157 208.505 76.4921C209.306 76.3714 210.054 76.9249 210.174 77.7286C210.298 78.5324 209.746 79.2831 208.942 79.4039C208.869 79.4156 208.795 79.4215 208.722 79.4215C208.009 79.4215 207.384 78.8975 207.276 78.1673ZM33.8167 74.9935C33.0217 74.8316 32.5082 74.0543 32.6696 73.2564C32.831 72.4615 33.6026 71.9463 34.3976 72.1053C35.1927 72.2672 35.7061 73.0444 35.5447 73.8394C35.4039 74.5401 34.7908 75.0229 34.1072 75.0229C34.0104 75.0229 33.9135 75.0112 33.8167 74.9935ZM206.466 73.6068C206.302 72.8119 206.815 72.0316 207.607 71.8697C208.402 71.7048 209.177 72.2201 209.341 73.015C209.502 73.8129 208.992 74.5901 208.197 74.7521C208.1 74.7727 208 74.7845 207.904 74.7845C207.22 74.7845 206.61 74.3046 206.466 73.6068ZM34.7908 70.3829C34.0074 70.1827 33.5351 69.379 33.7404 68.5929C33.9429 67.8038 34.7438 67.3298 35.5271 67.533C36.3134 67.7361 36.7857 68.5399 36.5804 69.326C36.4102 69.9913 35.8147 70.43 35.1633 70.43C35.0401 70.43 34.9169 70.4153 34.7937 70.3829H34.7908ZM205.419 69.0963C205.216 68.3073 205.683 67.5035 206.469 67.3004C207.252 67.0943 208.053 67.5653 208.259 68.3514C208.464 69.1375 207.992 69.9442 207.208 70.1474C207.085 70.1798 206.959 70.1945 206.839 70.1945C206.187 70.1945 205.592 69.7558 205.419 69.0963ZM36.0083 65.8371C35.2367 65.5927 34.8084 64.7654 35.0519 63.9911C35.2954 63.2138 36.1198 62.784 36.8914 63.0284C37.6659 63.2727 38.0942 64.1 37.8507 64.8744C37.6512 65.5044 37.0762 65.9048 36.4513 65.9048C36.3046 65.9048 36.155 65.8813 36.0083 65.8371ZM204.137 64.6447C203.89 63.8704 204.315 63.0431 205.09 62.7958C205.862 62.5485 206.686 62.9783 206.93 63.7526C207.176 64.5269 206.748 65.3543 205.976 65.6016C205.829 65.6487 205.677 65.6722 205.53 65.6722C204.908 65.6722 204.333 65.2718 204.134 64.6447H204.137ZM37.4664 61.359C36.7065 61.0734 36.3222 60.2255 36.6068 59.463C36.8914 58.7004 37.7392 58.3177 38.4962 58.6033C39.2531 58.8859 39.6374 59.7368 39.3558 60.4964C39.1328 61.0882 38.5754 61.4532 37.9827 61.4532C37.8097 61.4532 37.6366 61.4208 37.4664 61.359ZM202.62 60.2697C202.332 59.5101 202.714 58.6622 203.473 58.3736C204.23 58.0851 205.075 58.4678 205.363 59.2304C205.65 59.99 205.269 60.8408 204.509 61.1264C204.339 61.1912 204.163 61.2236 203.99 61.2236C203.4 61.2236 202.84 60.8585 202.62 60.2697ZM39.1563 56.9663C38.414 56.6395 38.0766 55.7739 38.3993 55.0261C38.725 54.2812 39.5875 53.9426 40.3327 54.2694C41.075 54.5933 41.4124 55.4618 41.0897 56.2067C40.8491 56.7573 40.3093 57.09 39.743 57.09C39.5494 57.09 39.3499 57.0487 39.1563 56.9663ZM200.871 55.983C200.546 55.2381 200.883 54.3695 201.625 54.0427C202.364 53.7159 203.23 54.0516 203.559 54.7964C203.884 55.5413 203.547 56.4099 202.805 56.7367C202.614 56.822 202.411 56.8633 202.215 56.8633C201.652 56.8633 201.115 56.5335 200.871 55.983ZM41.0779 52.6708C40.3562 52.3027 40.0628 51.4195 40.4266 50.6923C40.7904 49.9651 41.6706 49.6736 42.3952 50.0387C43.1199 50.4008 43.4132 51.287 43.0465 52.0142C42.7913 52.5294 42.272 52.8268 41.7351 52.8268C41.5151 52.8268 41.2892 52.7767 41.0779 52.6708ZM198.9 51.7934C198.536 51.0691 198.826 50.1829 199.548 49.8178C200.273 49.4498 201.153 49.7413 201.52 50.4656C201.886 51.1928 201.593 52.079 200.871 52.4441C200.66 52.553 200.434 52.603 200.211 52.603C199.674 52.603 199.158 52.3086 198.9 51.7934ZM43.2255 48.4812C42.5214 48.0778 42.2779 47.1799 42.6798 46.4733C43.0817 45.7667 43.9765 45.5223 44.6806 45.9256C45.3848 46.3261 45.6283 47.227 45.2263 47.9336C44.9564 48.4076 44.4606 48.6755 43.9501 48.6755C43.7066 48.6755 43.4543 48.6137 43.2255 48.4812ZM196.708 47.7187C196.306 47.015 196.547 46.1141 197.251 45.7078C197.952 45.3044 198.85 45.5488 199.255 46.2525C199.657 46.9561 199.416 47.857 198.712 48.2604C198.483 48.3958 198.231 48.4576 197.981 48.4576C197.474 48.4576 196.981 48.1927 196.708 47.7187ZM45.5931 44.4153C44.9124 43.9737 44.7129 43.0639 45.153 42.3809C45.5901 41.6949 46.4996 41.5006 47.1803 41.9392C47.8609 42.3779 48.0575 43.2906 47.6203 43.9737C47.3387 44.4094 46.8663 44.6508 46.3852 44.6479C46.1124 44.6479 45.8366 44.5743 45.5931 44.4153ZM194.305 43.7646C193.862 43.0816 194.056 42.1689 194.739 41.7302C195.417 41.2856 196.327 41.4799 196.767 42.1659C197.207 42.846 197.013 43.7587 196.333 44.2004C196.086 44.3593 195.81 44.4359 195.538 44.4359C195.056 44.4359 194.584 44.2004 194.305 43.7646ZM48.1719 40.4789C47.5147 40.0049 47.3651 39.0834 47.8404 38.4239C48.3127 37.7673 49.231 37.6172 49.8882 38.0941C50.5453 38.5682 50.695 39.4867 50.2197 40.1462C49.9322 40.5466 49.4833 40.7586 49.0286 40.7586C48.7323 40.7586 48.4301 40.6674 48.1719 40.4789ZM191.694 39.946C191.216 39.2865 191.363 38.368 192.017 37.8881C192.674 37.4111 193.592 37.5583 194.068 38.2149C194.543 38.8743 194.399 39.7929 193.742 40.2699C193.481 40.4613 193.179 40.5525 192.882 40.5525C192.428 40.5525 191.979 40.3405 191.694 39.946ZM50.9561 36.6898C50.3224 36.1775 50.2226 35.253 50.7331 34.62C51.2407 33.9841 52.1648 33.8869 52.7956 34.3963C53.4264 34.9056 53.5261 35.833 53.0186 36.466C52.7281 36.8252 52.3027 37.0136 51.8744 37.0136C51.5516 37.0136 51.226 36.9076 50.9561 36.6898ZM188.884 36.2688C188.373 35.6387 188.47 34.7113 189.101 34.199C189.729 33.6867 190.653 33.7839 191.163 34.4169C191.674 35.0469 191.577 35.9743 190.946 36.4866C190.676 36.7074 190.348 36.8134 190.025 36.8134C189.597 36.8134 189.174 36.6279 188.884 36.2688ZM53.9339 33.0508C53.3325 32.5061 53.2797 31.5757 53.8195 30.9692C54.3622 30.3657 55.2893 30.3127 55.8908 30.8544C56.4951 31.3991 56.5479 32.3294 56.0052 32.9359C55.7147 33.2598 55.3157 33.4247 54.9138 33.4247C54.5647 33.4247 54.2156 33.301 53.9339 33.0508ZM185.885 32.7475C185.342 32.144 185.389 31.2107 185.991 30.6689C186.595 30.1243 187.522 30.1714 188.065 30.7779C188.608 31.3814 188.558 32.3118 187.957 32.8535C187.675 33.1097 187.326 33.2333 186.974 33.2333C186.575 33.2333 186.173 33.0684 185.885 32.7475ZM57.0995 29.5708C56.5245 28.9966 56.5245 28.0663 57.0936 27.4892C57.6657 26.9122 58.5957 26.9092 59.1678 27.4833C59.7429 28.0574 59.7458 28.9878 59.1737 29.5649C58.8891 29.8563 58.5107 30.0006 58.1351 30.0006C57.7596 30.0006 57.387 29.8563 57.0995 29.5708ZM182.705 29.3882C182.133 28.8112 182.133 27.8808 182.705 27.3037C183.28 26.7296 184.207 26.7296 184.779 27.3037C185.354 27.8779 185.354 28.8112 184.779 29.3853C184.495 29.6738 184.119 29.8181 183.744 29.8181C183.368 29.8181 182.993 29.6738 182.705 29.3882ZM180.244 27.0093C179.648 26.4588 179.613 25.5284 180.161 24.9307C180.713 24.3331 181.64 24.2977 182.236 24.8512C182.831 25.4018 182.866 26.3351 182.315 26.9298C182.027 27.2449 181.634 27.4038 181.238 27.4038C180.883 27.4038 180.525 27.2743 180.241 27.0093H180.244ZM60.4411 26.2644C59.8984 25.6609 59.9424 24.7305 60.5438 24.1859C61.1452 23.6382 62.0723 23.6853 62.618 24.286C63.1608 24.8895 63.1138 25.8199 62.5153 26.3675C62.2337 26.6207 61.8816 26.7473 61.5296 26.7473C61.1306 26.7473 60.7316 26.5854 60.4411 26.2644ZM176.776 23.9533C176.154 23.4351 176.072 22.5047 176.591 21.8806C177.107 21.2564 178.034 21.171 178.656 21.6921C179.278 22.2133 179.363 23.1407 178.844 23.7648C178.554 24.1152 178.137 24.2948 177.717 24.2948C177.386 24.2948 177.052 24.1829 176.776 23.9533ZM63.9529 23.1348C63.4395 22.5047 63.5334 21.5773 64.1612 21.065C64.789 20.5498 65.7161 20.644 66.2266 21.2741C66.7371 21.9041 66.6432 22.8345 66.0154 23.3468C65.7425 23.5705 65.4169 23.6765 65.0912 23.6765C64.6629 23.6765 64.2404 23.491 63.9529 23.1348ZM173.155 21.0827C172.507 20.5969 172.375 19.6754 172.859 19.0247C173.346 18.3711 174.264 18.2386 174.913 18.7244C175.561 19.2131 175.696 20.1347 175.212 20.7853C174.922 21.174 174.482 21.3771 174.033 21.3771C173.728 21.3771 173.419 21.2829 173.158 21.0827H173.155ZM67.6202 20.1965C67.1419 19.5399 67.2857 18.6184 67.9399 18.1385C68.5942 17.6586 69.5125 17.8029 69.9907 18.4594C70.4689 19.116 70.3251 20.0375 69.6709 20.5174C69.4098 20.7088 69.1047 20.8001 68.8054 20.8001C68.3536 20.8001 67.9077 20.591 67.6202 20.1965ZM169.385 18.4123C168.714 17.9619 168.529 17.0462 168.981 16.372C169.429 15.6949 170.342 15.5123 171.014 15.9628C171.688 16.4162 171.87 17.3289 171.422 18.006C171.137 18.43 170.673 18.6596 170.201 18.6596C169.919 18.6596 169.638 18.5801 169.385 18.4123ZM71.44 17.4555C70.997 16.7754 71.1877 15.8627 71.8683 15.4181C72.546 14.9735 73.4555 15.1678 73.8985 15.848C74.3386 16.5281 74.1479 17.4408 73.4702 17.8853C73.2208 18.0473 72.945 18.1238 72.6693 18.1238C72.191 18.1238 71.7216 17.8883 71.44 17.4555ZM165.481 15.9451C164.785 15.53 164.556 14.6261 164.967 13.9284C165.381 13.2276 166.281 12.998 166.977 13.4131C167.675 13.8282 167.904 14.7292 167.493 15.4299C167.217 15.8921 166.73 16.1512 166.229 16.1512C165.973 16.1512 165.715 16.0835 165.481 15.9451ZM75.3977 14.9235C74.9928 14.2198 75.2305 13.3189 75.9346 12.9126C76.6358 12.5034 77.5306 12.7448 77.9384 13.4485C78.3433 14.1521 78.1027 15.053 77.4015 15.4593C77.1697 15.5948 76.9174 15.6566 76.668 15.6566C76.1634 15.6566 75.6706 15.3946 75.3977 14.9235ZM161.452 13.6899C160.734 13.313 160.458 12.4239 160.833 11.7026C161.209 10.9812 162.095 10.7045 162.811 11.0813C163.53 11.4582 163.808 12.3473 163.433 13.0687C163.169 13.5692 162.658 13.8577 162.13 13.8577C161.901 13.8577 161.67 13.8047 161.452 13.6899ZM79.4845 12.6035C79.1178 11.8792 79.4053 10.993 80.127 10.625C80.8487 10.257 81.7318 10.5455 82.1015 11.2698C82.4682 11.994 82.1807 12.8802 81.459 13.2482C81.2477 13.3572 81.0189 13.4102 80.7959 13.4102C80.262 13.4102 79.7456 13.1158 79.4874 12.6035H79.4845ZM157.307 11.6525C156.571 11.3139 156.245 10.4424 156.582 9.70346C156.92 8.96153 157.791 8.63767 158.527 8.97625C159.264 9.31483 159.589 10.1863 159.252 10.9282C159.006 11.467 158.475 11.7879 157.917 11.7879C157.712 11.7879 157.504 11.7438 157.307 11.6525ZM83.6887 10.5102C83.3601 9.76529 83.6945 8.89676 84.4368 8.56701H84.4339C85.1761 8.23726 86.0416 8.5729 86.3702 9.31483C86.6988 10.0568 86.3702 10.9282 85.625 11.258C85.4314 11.3434 85.2289 11.3846 85.0324 11.3846C84.4691 11.3846 83.9322 11.0578 83.6887 10.5102ZM153.062 9.84184C152.308 9.54447 151.938 8.68772 152.234 7.93107C152.531 7.17441 153.384 6.80345 154.138 7.10081C154.892 7.40111 155.262 8.25493 154.966 9.01158C154.737 9.59158 154.185 9.94488 153.599 9.94488C153.42 9.94488 153.238 9.9125 153.062 9.84184ZM87.9984 8.64061C87.7109 7.88102 88.0923 7.03015 88.8463 6.74162C89.6032 6.45309 90.4511 6.83289 90.7416 7.59249C91.0291 8.35208 90.6506 9.20295 89.8937 9.49148C89.7206 9.5592 89.5446 9.58864 89.3685 9.58864C88.7788 9.58864 88.2214 9.22945 87.9984 8.64061ZM148.726 8.25787C147.957 8.00173 147.543 7.16853 147.798 6.39715C148.054 5.62578 148.887 5.2077 149.656 5.46679C150.421 5.72293 150.838 6.55614 150.583 7.32751C150.374 7.94579 149.805 8.33442 149.189 8.33442C149.037 8.33442 148.878 8.31086 148.726 8.25787ZM92.4021 7.0066C92.1527 6.23228 92.5781 5.40496 93.3497 5.15471C94.1213 4.90445 94.9487 5.33136 95.1951 6.10568C95.4445 6.88 95.0191 7.71025 94.2475 7.95756C94.0979 8.00762 93.9482 8.02822 93.7986 8.02822C93.1796 8.02822 92.6016 7.63076 92.4021 7.0066ZM144.31 6.90944C143.53 6.69157 143.072 5.88192 143.286 5.09877C143.5 4.31267 144.31 3.85338 145.091 4.07125C145.871 4.28618 146.329 5.09583 146.114 5.88192C145.935 6.53258 145.346 6.96243 144.703 6.96243C144.574 6.96243 144.442 6.94477 144.31 6.90944ZM96.885 5.60811C96.6767 4.82202 97.1461 4.01826 97.9294 3.80922C98.7127 3.60313 99.5137 4.07125 99.722 4.85735C99.9274 5.64344 99.4609 6.45015 98.6775 6.65624C98.5514 6.69157 98.4282 6.70629 98.302 6.70629C97.6536 6.70629 97.0581 6.27055 96.885 5.60811ZM139.83 5.79654C139.038 5.61989 138.539 4.83674 138.712 4.04181C138.885 3.24688 139.669 2.74637 140.461 2.92008C141.25 3.09379 141.752 3.87988 141.579 4.67481C141.426 5.3608 140.822 5.83187 140.147 5.83187C140.041 5.83187 139.936 5.82009 139.83 5.79654ZM101.435 4.45105C101.271 3.65612 101.782 2.87592 102.574 2.71104C103.366 2.54617 104.143 3.05551 104.308 3.85338C104.472 4.64831 103.964 5.42852 103.169 5.59339C103.069 5.614 102.97 5.62578 102.87 5.62578C102.189 5.62578 101.579 5.14588 101.435 4.45105ZM135.297 4.92212C134.499 4.78963 133.957 4.03003 134.089 3.22922C134.221 2.4284 134.975 1.88373 135.776 2.01622C136.574 2.14871 137.116 2.90536 136.984 3.70912C136.867 4.43044 136.242 4.94273 135.538 4.94273C135.459 4.94273 135.38 4.9339 135.297 4.92212ZM106.041 3.53836C105.918 2.7346 106.467 1.98089 107.268 1.86018C108.069 1.73652 108.817 2.28708 108.94 3.09084C109.063 3.8946 108.515 4.64537 107.714 4.76902C107.637 4.7808 107.561 4.78669 107.488 4.78669C106.778 4.78669 106.153 4.26557 106.041 3.53836ZM130.727 4.28912C129.92 4.19785 129.342 3.47064 129.43 2.66099C129.521 1.85429 130.245 1.27429 131.049 1.36261C131.853 1.45388 132.434 2.18109 132.346 2.9878C132.261 3.7415 131.627 4.29795 130.891 4.29795C130.835 4.29795 130.782 4.29501 130.727 4.28912ZM110.686 2.86708C110.606 2.06038 111.193 1.33906 112.003 1.25662C112.807 1.17713 113.526 1.76596 113.608 2.57561C113.687 3.38526 113.1 4.10658 112.293 4.18608C112.244 4.19196 112.197 4.19491 112.147 4.19491C111.402 4.19491 110.762 3.62963 110.686 2.86708ZM126.126 3.89755C125.317 3.85044 124.7 3.15561 124.747 2.34302C124.794 1.53043 125.487 0.912153 126.296 0.959259C127.106 1.00637 127.722 1.70119 127.675 2.51378C127.628 3.29693 126.983 3.90049 126.214 3.90049C126.185 3.90049 126.156 3.90049 126.126 3.89755ZM115.362 2.44607C115.324 1.63348 115.949 0.944538 116.759 0.906264C117.568 0.86799 118.255 1.4951 118.293 2.30769C118.331 3.12028 117.706 3.80922 116.897 3.8475H116.826C116.049 3.8475 115.4 3.23511 115.362 2.44607ZM121.511 3.75034C120.702 3.74739 120.047 3.08201 120.053 2.26942C120.059 1.45683 120.719 0.803218 121.529 0.806162C122.339 0.812051 122.993 1.47449 122.987 2.28708C122.987 3.09673 122.327 3.75034 121.52 3.75034H121.511Z" fill="url(#paint1_linear_1233_1640)"/>
<path d="M136.042 137.769C136.042 136.957 136.699 136.297 137.508 136.297C138.318 136.297 138.975 136.957 138.975 137.769C138.975 138.585 138.318 139.241 137.508 139.241C136.699 139.241 136.042 138.585 136.042 137.769ZM131.347 137.769C131.347 136.957 132.005 136.297 132.814 136.297C133.624 136.297 134.281 136.957 134.281 137.769C134.281 138.585 133.624 139.241 132.814 139.241C132.005 139.241 131.347 138.585 131.347 137.769ZM126.653 137.769C126.653 136.957 127.31 136.297 128.12 136.297C128.93 136.297 129.587 136.957 129.587 137.769C129.587 138.585 128.93 139.241 128.12 139.241C127.31 139.241 126.653 138.585 126.653 137.769ZM121.959 137.769C121.959 136.957 122.616 136.297 123.426 136.297C124.236 136.297 124.893 136.957 124.893 137.769C124.893 138.585 124.236 139.241 123.426 139.241C122.616 139.241 121.959 138.585 121.959 137.769ZM117.265 137.769C117.265 136.957 117.922 136.297 118.732 136.297C119.542 136.297 120.199 136.957 120.199 137.769C120.199 138.585 119.542 139.241 118.732 139.241C117.922 139.241 117.265 138.585 117.265 137.769ZM112.571 137.769C112.571 136.957 113.228 136.297 114.038 136.297C114.848 136.297 115.505 136.957 115.505 137.769C115.505 138.585 114.848 139.241 114.038 139.241C113.228 139.241 112.571 138.585 112.571 137.769ZM107.877 137.769C107.877 136.957 108.534 136.297 109.344 136.297C110.154 136.297 110.811 136.957 110.811 137.769C110.811 138.585 110.154 139.241 109.344 139.241C108.534 139.241 107.877 138.585 107.877 137.769ZM103.183 137.769C103.183 136.957 103.84 136.297 104.65 136.297C105.459 136.297 106.117 136.957 106.117 137.769C106.117 138.585 105.459 139.241 104.65 139.241C103.84 139.241 103.183 138.585 103.183 137.769ZM102.077 134.168C102.077 133.356 102.734 132.696 103.544 132.696C104.356 132.696 105.011 133.356 105.011 134.168C105.011 134.981 104.356 135.641 103.544 135.641C102.734 135.641 102.077 134.981 102.077 134.168ZM137.045 134.065C137.045 133.253 137.702 132.593 138.512 132.593C139.322 132.593 139.979 133.253 139.979 134.065C139.979 134.881 139.322 135.538 138.512 135.538C137.702 135.538 137.045 134.881 137.045 134.065ZM102.077 129.458C102.077 128.645 102.734 127.986 103.544 127.986C104.356 127.986 105.011 128.645 105.011 129.458C105.011 130.27 104.356 130.93 103.544 130.93C102.734 130.93 102.077 130.27 102.077 129.458ZM137.045 129.355C137.045 128.542 137.702 127.883 138.512 127.883C139.322 127.883 139.979 128.542 139.979 129.355C139.979 130.167 139.322 130.827 138.512 130.827C137.702 130.827 137.045 130.167 137.045 129.355ZM102.077 124.747C102.077 123.935 102.734 123.275 103.544 123.275C104.356 123.275 105.011 123.935 105.011 124.747C105.011 125.56 104.356 126.219 103.544 126.219C102.734 126.219 102.077 125.56 102.077 124.747ZM137.045 124.644C137.045 123.831 137.702 123.172 138.512 123.172C139.322 123.172 139.979 123.831 139.979 124.644C139.979 125.457 139.322 126.116 138.512 126.116C137.702 126.116 137.045 125.457 137.045 124.644ZM102.077 120.036C102.077 119.224 102.734 118.564 103.544 118.564C104.356 118.564 105.011 119.224 105.011 120.036C105.011 120.849 104.356 121.509 103.544 121.509C102.734 121.509 102.077 120.849 102.077 120.036ZM137.045 119.933C137.045 119.121 137.702 118.461 138.512 118.461C139.322 118.461 139.979 119.121 139.979 119.933C139.979 120.746 139.322 121.405 138.512 121.405C137.702 121.405 137.045 120.746 137.045 119.933ZM102.077 115.326C102.077 114.513 102.734 113.854 103.544 113.854C104.356 113.854 105.011 114.513 105.011 115.326C105.011 116.138 104.356 116.798 103.544 116.798C102.734 116.798 102.077 116.138 102.077 115.326ZM137.045 115.223C137.045 114.41 137.702 113.751 138.512 113.751C139.322 113.751 139.979 114.41 139.979 115.223C139.979 116.035 139.322 116.695 138.512 116.695C137.702 116.695 137.045 116.035 137.045 115.223ZM102.077 110.615C102.077 109.802 102.734 109.143 103.544 109.143C104.356 109.143 105.011 109.802 105.011 110.615C105.011 111.428 104.356 112.087 103.544 112.087C102.734 112.087 102.077 111.428 102.077 110.615ZM137.045 110.512C137.045 109.699 137.702 109.04 138.512 109.04C139.322 109.04 139.979 109.699 139.979 110.512C139.979 111.325 139.322 111.984 138.512 111.984C137.702 111.984 137.045 111.325 137.045 110.512ZM163.528 108.825C163.528 108.012 164.186 107.353 164.995 107.353C165.805 107.353 166.462 108.012 166.462 108.825C166.462 109.638 165.805 110.297 164.995 110.297C164.186 110.297 163.528 109.638 163.528 108.825ZM158.834 108.825C158.834 108.012 159.492 107.353 160.301 107.353C161.111 107.353 161.768 108.012 161.768 108.825C161.768 109.638 161.111 110.297 160.301 110.297C159.492 110.297 158.834 109.638 158.834 108.825ZM154.14 108.825C154.14 108.012 154.797 107.353 155.607 107.353C156.417 107.353 157.074 108.012 157.074 108.825C157.074 109.638 156.417 110.297 155.607 110.297C154.797 110.297 154.14 109.638 154.14 108.825ZM149.446 108.825C149.446 108.012 150.103 107.353 150.913 107.353C151.723 107.353 152.38 108.012 152.38 108.825C152.38 109.638 151.723 110.297 150.913 110.297C150.103 110.297 149.446 109.638 149.446 108.825ZM144.752 108.825C144.752 108.012 145.409 107.353 146.219 107.353C147.029 107.353 147.686 108.012 147.686 108.825C147.686 109.638 147.029 110.297 146.219 110.297C145.409 110.297 144.752 109.638 144.752 108.825ZM140.058 108.825C140.058 108.012 140.715 107.353 141.525 107.353C142.335 107.353 142.992 108.012 142.992 108.825C142.992 109.638 142.335 110.297 141.525 110.297C140.715 110.297 140.058 109.638 140.058 108.825ZM99.1664 108.825C99.1664 108.012 99.8236 107.353 100.633 107.353C101.443 107.353 102.1 108.012 102.1 108.825C102.1 109.638 101.443 110.297 100.633 110.297C99.8236 110.297 99.1664 109.638 99.1664 108.825ZM94.4723 108.825C94.4723 108.012 95.1294 107.353 95.9392 107.353C96.7489 107.353 97.4061 108.012 97.4061 108.825C97.4061 109.638 96.7489 110.297 95.9392 110.297C95.1294 110.297 94.4723 109.638 94.4723 108.825ZM89.7782 108.825C89.7782 108.012 90.4353 107.353 91.2451 107.353C92.0548 107.353 92.712 108.012 92.712 108.825C92.712 109.638 92.0548 110.297 91.2451 110.297C90.4353 110.297 89.7782 109.638 89.7782 108.825ZM85.0841 108.825C85.0841 108.012 85.7412 107.353 86.551 107.353C87.3607 107.353 88.0179 108.012 88.0179 108.825C88.0179 109.638 87.3607 110.297 86.551 110.297C85.7412 110.297 85.0841 109.638 85.0841 108.825ZM80.39 108.825C80.39 108.012 81.0471 107.353 81.8569 107.353C82.6666 107.353 83.3238 108.012 83.3238 108.825C83.3238 109.638 82.6666 110.297 81.8569 110.297C81.0471 110.297 80.39 109.638 80.39 108.825ZM75.6958 108.825C75.6958 108.012 76.353 107.353 77.1628 107.353C77.9725 107.353 78.6297 108.012 78.6297 108.825C78.6297 109.638 77.9725 110.297 77.1628 110.297C76.353 110.297 75.6958 109.638 75.6958 108.825ZM73.2344 106.585C73.2344 105.772 73.8915 105.112 74.7013 105.112C75.514 105.112 76.1711 105.772 76.1711 106.585C76.1711 107.397 75.514 108.057 74.7013 108.057C73.8915 108.057 73.2344 107.397 73.2344 106.585ZM165.887 106.481C165.887 105.669 166.544 105.009 167.354 105.009C168.164 105.009 168.821 105.669 168.821 106.481C168.821 107.294 168.164 107.954 167.354 107.954C166.544 107.954 165.887 107.294 165.887 106.481ZM73.2344 101.874C73.2344 101.061 73.8915 100.402 74.7013 100.402C75.514 100.402 76.1711 101.061 76.1711 101.874C76.1711 102.686 75.514 103.346 74.7013 103.346C73.8915 103.346 73.2344 102.686 73.2344 101.874ZM165.887 101.771C165.887 100.958 166.544 100.299 167.354 100.299C168.164 100.299 168.821 100.958 168.821 101.771C168.821 102.583 168.164 103.243 167.354 103.243C166.544 103.243 165.887 102.583 165.887 101.771ZM73.2344 97.1632C73.2344 96.3506 73.8915 95.6911 74.7013 95.6911C75.514 95.6911 76.1711 96.3506 76.1711 97.1632C76.1711 97.9757 75.514 98.6352 74.7013 98.6352C73.8915 98.6352 73.2344 97.9757 73.2344 97.1632ZM165.887 97.0601C165.887 96.2475 166.544 95.588 167.354 95.588C168.164 95.588 168.821 96.2475 168.821 97.0601C168.821 97.8727 168.164 98.5322 167.354 98.5322C166.544 98.5322 165.887 97.8727 165.887 97.0601ZM73.2344 92.4525C73.2344 91.6399 73.8915 90.9804 74.7013 90.9804C75.514 90.9804 76.1711 91.6399 76.1711 92.4525C76.1711 93.2651 75.514 93.9246 74.7013 93.9246C73.8915 93.9246 73.2344 93.2651 73.2344 92.4525ZM165.887 92.3494C165.887 91.5368 166.544 90.8773 167.354 90.8773C168.164 90.8773 168.821 91.5368 168.821 92.3494C168.821 93.162 168.164 93.8215 167.354 93.8215C166.544 93.8215 165.887 93.162 165.887 92.3494ZM73.2344 87.7418C73.2344 86.9292 73.8915 86.2697 74.7013 86.2697C75.514 86.2697 76.1711 86.9292 76.1711 87.7418C76.1711 88.5544 75.514 89.2139 74.7013 89.2139C73.8915 89.2139 73.2344 88.5544 73.2344 87.7418ZM165.887 87.6387C165.887 86.8261 166.544 86.1667 167.354 86.1667C168.164 86.1667 168.821 86.8261 168.821 87.6387C168.821 88.4543 168.164 89.1108 167.354 89.1108C166.544 89.1108 165.887 88.4543 165.887 87.6387ZM73.2344 83.0311C73.2344 82.2185 73.8915 81.559 74.7013 81.559C75.514 81.559 76.1711 82.2185 76.1711 83.0311C76.1711 83.8437 75.514 84.5032 74.7013 84.5032C73.8915 84.5032 73.2344 83.8437 73.2344 83.0311ZM165.887 82.9281C165.887 82.1155 166.544 81.456 167.354 81.456C168.164 81.456 168.821 82.1155 168.821 82.9281C168.821 83.7407 168.164 84.4002 167.354 84.4002C166.544 84.4002 165.887 83.7407 165.887 82.9281ZM73.2344 78.3204C73.2344 77.5078 73.8915 76.8483 74.7013 76.8483C75.514 76.8483 76.1711 77.5078 76.1711 78.3204C76.1711 79.133 75.514 79.7925 74.7013 79.7925C73.8915 79.7925 73.2344 79.133 73.2344 78.3204ZM165.887 78.2174C165.887 77.4048 166.544 76.7453 167.354 76.7453C168.164 76.7453 168.821 77.4048 168.821 78.2174C168.821 79.03 168.164 79.6895 167.354 79.6895C166.544 79.6895 165.887 79.03 165.887 78.2174ZM165.887 73.7364C165.887 72.9238 166.544 72.2643 167.354 72.2643C168.164 72.2643 168.821 72.9238 168.821 73.7364C168.821 74.5489 168.164 75.2084 167.354 75.2084C166.544 75.2084 165.887 74.5489 165.887 73.7364ZM161.193 73.7364C161.193 72.9238 161.85 72.2643 162.66 72.2643C163.47 72.2643 164.127 72.9238 164.127 73.7364C164.127 74.5489 163.47 75.2084 162.66 75.2084C161.85 75.2084 161.193 74.5489 161.193 73.7364ZM156.499 73.7364C156.499 72.9238 157.156 72.2643 157.966 72.2643C158.776 72.2643 159.433 72.9238 159.433 73.7364C159.433 74.5489 158.776 75.2084 157.966 75.2084C157.156 75.2084 156.499 74.5489 156.499 73.7364ZM151.805 73.7364C151.805 72.9238 152.462 72.2643 153.272 72.2643C154.082 72.2643 154.739 72.9238 154.739 73.7364C154.739 74.5489 154.082 75.2084 153.272 75.2084C152.462 75.2084 151.805 74.5489 151.805 73.7364ZM147.111 73.7364C147.111 72.9238 147.768 72.2643 148.578 72.2643C149.387 72.2643 150.045 72.9238 150.045 73.7364C150.045 74.5489 149.387 75.2084 148.578 75.2084C147.768 75.2084 147.111 74.5489 147.111 73.7364ZM142.417 73.7364C142.417 72.9238 143.074 72.2643 143.884 72.2643C144.693 72.2643 145.351 72.9238 145.351 73.7364C145.351 74.5489 144.693 75.2084 143.884 75.2084C143.074 75.2084 142.417 74.5489 142.417 73.7364ZM137.723 73.7364C137.723 72.9238 138.38 72.2643 139.19 72.2643C139.999 72.2643 140.656 72.9238 140.656 73.7364C140.656 74.5489 139.999 75.2084 139.19 75.2084C138.38 75.2084 137.723 74.5489 137.723 73.7364ZM101.525 73.7364C101.525 72.9238 102.182 72.2643 102.992 72.2643C103.802 72.2643 104.459 72.9238 104.459 73.7364C104.459 74.5489 103.802 75.2084 102.992 75.2084C102.182 75.2084 101.525 74.5489 101.525 73.7364ZM96.8311 73.7364C96.8311 72.9238 97.4882 72.2643 98.298 72.2643C99.1077 72.2643 99.7649 72.9238 99.7649 73.7364C99.7649 74.5489 99.1077 75.2084 98.298 75.2084C97.4882 75.2084 96.8311 74.5489 96.8311 73.7364ZM92.137 73.7364C92.137 72.9238 92.7941 72.2643 93.6039 72.2643C94.4136 72.2643 95.0708 72.9238 95.0708 73.7364C95.0708 74.5489 94.4136 75.2084 93.6039 75.2084C92.7941 75.2084 92.137 74.5489 92.137 73.7364ZM87.4429 73.7364C87.4429 72.9238 88.1 72.2643 88.9098 72.2643C89.7195 72.2643 90.3767 72.9238 90.3767 73.7364C90.3767 74.5489 89.7195 75.2084 88.9098 75.2084C88.1 75.2084 87.4429 74.5489 87.4429 73.7364ZM82.7487 73.7364C82.7487 72.9238 83.4059 72.2643 84.2157 72.2643C85.0254 72.2643 85.6826 72.9238 85.6826 73.7364C85.6826 74.5489 85.0254 75.2084 84.2157 75.2084C83.4059 75.2084 82.7487 74.5489 82.7487 73.7364ZM78.0546 73.7364C78.0546 72.9238 78.7118 72.2643 79.5215 72.2643C80.3313 72.2643 80.9885 72.9238 80.9885 73.7364C80.9885 74.5489 80.3313 75.2084 79.5215 75.2084C78.7118 75.2084 78.0546 74.5489 78.0546 73.7364ZM73.3605 73.7364C73.3605 72.9238 74.0177 72.2643 74.8274 72.2643C75.6372 72.2643 76.2943 72.9238 76.2943 73.7364C76.2943 74.5489 75.6372 75.2084 74.8274 75.2084C74.0177 75.2084 73.3605 74.5489 73.3605 73.7364ZM137.045 69.7058C137.045 68.8902 137.702 68.2337 138.512 68.2337C139.322 68.2337 139.979 68.8902 139.979 69.7058C139.979 70.5184 139.322 71.1779 138.512 71.1779C137.702 71.1779 137.045 70.5184 137.045 69.7058ZM102.077 69.5792C102.077 68.7666 102.734 68.1071 103.544 68.1071C104.356 68.1071 105.011 68.7666 105.011 69.5792C105.011 70.3918 104.356 71.0513 103.544 71.0513C102.734 71.0513 102.077 70.3918 102.077 69.5792ZM137.045 64.9951C137.045 64.1825 137.702 63.523 138.512 63.523C139.322 63.523 139.979 64.1825 139.979 64.9951C139.979 65.8077 139.322 66.4672 138.512 66.4672C137.702 66.4672 137.045 65.8077 137.045 64.9951ZM102.077 64.8685C102.077 64.0559 102.734 63.3964 103.544 63.3964C104.356 63.3964 105.011 64.0559 105.011 64.8685C105.011 65.6811 104.356 66.3406 103.544 66.3406C102.734 66.3406 102.077 65.6811 102.077 64.8685ZM137.045 60.2844C137.045 59.4718 137.702 58.8123 138.512 58.8123C139.322 58.8123 139.979 59.4718 139.979 60.2844C139.979 61.097 139.322 61.7565 138.512 61.7565C137.702 61.7565 137.045 61.097 137.045 60.2844ZM102.077 60.1578C102.077 59.3452 102.734 58.6857 103.544 58.6857C104.356 58.6857 105.011 59.3452 105.011 60.1578C105.011 60.9704 104.356 61.6299 103.544 61.6299C102.734 61.6299 102.077 60.9704 102.077 60.1578ZM137.045 55.5737C137.045 54.7582 137.702 54.1016 138.512 54.1016C139.322 54.1016 139.979 54.7582 139.979 55.5737C139.979 56.3863 139.322 57.0458 138.512 57.0458C137.702 57.0458 137.045 56.3863 137.045 55.5737ZM102.077 55.4471C102.077 54.6345 102.734 53.975 103.544 53.975C104.356 53.975 105.011 54.6345 105.011 55.4471C105.011 56.2597 104.356 56.9192 103.544 56.9192C102.734 56.9192 102.077 56.2597 102.077 55.4471ZM137.045 50.863C137.045 50.0505 137.702 49.391 138.512 49.391C139.322 49.391 139.979 50.0505 139.979 50.863C139.979 51.6756 139.322 52.3351 138.512 52.3351C137.702 52.3351 137.045 51.6756 137.045 50.863ZM102.077 50.7364C102.077 49.9239 102.734 49.2644 103.544 49.2644C104.356 49.2644 105.011 49.9239 105.011 50.7364C105.011 51.549 104.356 52.2085 103.544 52.2085C102.734 52.2085 102.077 51.549 102.077 50.7364ZM137.045 46.1524C137.045 45.3398 137.702 44.6803 138.512 44.6803C139.322 44.6803 139.979 45.3398 139.979 46.1524C139.979 46.965 139.322 47.6245 138.512 47.6245C137.702 47.6245 137.045 46.965 137.045 46.1524ZM102.077 46.0258C102.077 45.2132 102.734 44.5537 103.544 44.5537C104.356 44.5537 105.011 45.2132 105.011 46.0258C105.011 46.8384 104.356 47.4979 103.544 47.4979C102.734 47.4979 102.077 46.8384 102.077 46.0258ZM133.706 44.7922C133.706 43.9796 134.363 43.3201 135.173 43.3201C135.983 43.3201 136.64 43.9796 136.64 44.7922C136.64 45.6047 135.983 46.2642 135.173 46.2642C134.363 46.2642 133.706 45.6047 133.706 44.7922ZM129.012 44.7922C129.012 43.9796 129.669 43.3201 130.479 43.3201C131.289 43.3201 131.946 43.9796 131.946 44.7922C131.946 45.6047 131.289 46.2642 130.479 46.2642C129.669 46.2642 129.012 45.6047 129.012 44.7922ZM124.318 44.7922C124.318 43.9796 124.975 43.3201 125.785 43.3201C126.595 43.3201 127.252 43.9796 127.252 44.7922C127.252 45.6047 126.595 46.2642 125.785 46.2642C124.975 46.2642 124.318 45.6047 124.318 44.7922ZM119.624 44.7922C119.624 43.9796 120.281 43.3201 121.091 43.3201C121.901 43.3201 122.558 43.9796 122.558 44.7922C122.558 45.6047 121.901 46.2642 121.091 46.2642C120.281 46.2642 119.624 45.6047 119.624 44.7922ZM114.93 44.7922C114.93 43.9796 115.587 43.3201 116.397 43.3201C117.206 43.3201 117.864 43.9796 117.864 44.7922C117.864 45.6047 117.206 46.2642 116.397 46.2642C115.587 46.2642 114.93 45.6047 114.93 44.7922ZM110.236 44.7922C110.236 43.9796 110.893 43.3201 111.703 43.3201C112.512 43.3201 113.169 43.9796 113.169 44.7922C113.169 45.6047 112.512 46.2642 111.703 46.2642C110.893 46.2642 110.236 45.6047 110.236 44.7922ZM105.542 44.7922C105.542 43.9796 106.199 43.3201 107.008 43.3201C107.818 43.3201 108.475 43.9796 108.475 44.7922C108.475 45.6047 107.818 46.2642 107.008 46.2642C106.199 46.2642 105.542 45.6047 105.542 44.7922Z" fill="url(#paint2_linear_1233_1640)"/>
<path d="M24.2132 188.209C24.1956 187.396 24.841 186.725 25.6507 186.707C26.4605 186.693 27.1294 187.34 27.147 188.153C27.1617 188.966 26.5162 189.637 25.7065 189.652H25.6772C24.8821 189.652 24.2278 189.013 24.2132 188.209ZM20.9244 189.607C20.1146 189.572 19.4868 188.889 19.5191 188.073C19.5543 187.264 20.2379 186.631 21.0476 186.666C21.8573 186.699 22.4852 187.384 22.4529 188.197C22.4177 188.989 21.7693 189.607 20.986 189.607H20.9244ZM28.9044 188.07C28.8515 187.261 29.4618 186.557 30.2715 186.504C31.0783 186.448 31.7795 187.064 31.8323 187.876C31.888 188.686 31.2749 189.387 30.4651 189.442C30.4329 189.442 30.4006 189.442 30.3683 189.442C29.6026 189.442 28.9572 188.848 28.9044 188.068V188.07ZM16.1246 189.213C15.3208 189.11 14.7516 188.374 14.8543 187.567C14.957 186.76 15.6904 186.189 16.4943 186.292C17.2982 186.395 17.8644 187.131 17.7646 187.938C17.6708 188.68 17.0371 189.225 16.3095 189.225C16.2479 189.225 16.1863 189.225 16.1246 189.213ZM33.5867 187.72C33.5016 186.913 34.0884 186.189 34.8923 186.104C35.6991 186.018 36.4208 186.604 36.5029 187.414C36.588 188.224 36.0042 188.945 35.2003 189.033C35.1475 189.033 35.0947 189.039 35.0448 189.039C34.3026 189.039 33.6659 188.477 33.5867 187.72ZM38.2544 187.199C38.1429 186.395 38.7062 185.653 39.5072 185.541C40.311 185.433 41.0504 185.995 41.1618 186.802C41.2704 187.605 40.7071 188.347 39.9062 188.459C39.8387 188.468 39.7712 188.471 39.7067 188.471C38.982 188.471 38.3542 187.938 38.2544 187.199ZM11.3308 188.312C10.5475 188.106 10.0751 187.305 10.2775 186.516C10.48 185.73 11.2838 185.256 12.0672 185.462C12.8505 185.665 13.3229 186.469 13.1175 187.255C12.9473 187.917 12.3518 188.359 11.7005 188.359C11.5772 188.359 11.454 188.341 11.3308 188.312ZM42.9016 186.537C42.7696 185.733 43.3123 184.976 44.1133 184.847C44.9113 184.714 45.6652 185.256 45.7973 186.06C45.9264 186.863 45.3865 187.62 44.5856 187.753C44.5064 187.764 44.4272 187.77 44.348 187.77C43.6409 187.77 43.0189 187.258 42.9016 186.537ZM47.5312 185.753C47.3815 184.953 47.9067 184.184 48.7017 184.034C49.4997 183.884 50.2655 184.408 50.4151 185.209C50.5647 186.007 50.0396 186.775 49.2445 186.925C49.1536 186.943 49.0626 186.952 48.9717 186.952C48.2793 186.952 47.6632 186.46 47.5312 185.753ZM6.63962 186.59C5.91497 186.224 5.62158 185.338 5.98831 184.614C6.3521 183.887 7.23518 183.595 7.9569 183.96C8.68155 184.326 8.972 185.209 8.60821 185.936C8.35003 186.451 7.83368 186.749 7.29679 186.749C7.07676 186.749 6.85085 186.696 6.63962 186.59ZM52.1431 184.861C51.9759 184.066 52.4834 183.286 53.2785 183.118C54.0706 182.954 54.8481 183.463 55.0153 184.258C55.1796 185.053 54.6721 185.836 53.877 186.001C53.7772 186.021 53.6746 186.033 53.5748 186.033C52.8971 186.033 52.2869 185.556 52.1431 184.861ZM56.7345 183.881C56.5526 183.089 57.0455 182.297 57.8376 182.117C58.6268 181.935 59.4131 182.429 59.595 183.221C59.774 184.016 59.2811 184.805 58.4919 184.988C58.3804 185.011 58.2719 185.023 58.1633 185.023C57.4944 185.023 56.89 184.561 56.7345 183.881ZM2.456 183.457C1.92204 182.845 1.98072 181.914 2.58802 181.378C3.19532 180.84 4.1224 180.898 4.65636 181.511C5.19325 182.12 5.13457 183.051 4.52727 183.587C4.24562 183.834 3.90237 183.955 3.55618 183.955C3.15131 183.955 2.74644 183.787 2.456 183.457ZM61.3084 182.812C61.1147 182.023 61.5929 181.225 62.3821 181.031C63.1655 180.837 63.9635 181.319 64.1571 182.109C64.3507 182.898 63.8696 183.695 63.0833 183.89C62.966 183.919 62.8457 183.934 62.7313 183.934C62.0711 183.934 61.4726 183.483 61.3084 182.812ZM65.8616 181.673C65.6563 180.887 66.1227 180.08 66.909 179.874C67.6923 179.668 68.4933 180.136 68.6986 180.922C68.9069 181.708 68.4375 182.515 67.6542 182.721C67.528 182.753 67.4019 182.771 67.2787 182.771C66.6303 182.771 66.0347 182.332 65.8616 181.673ZM70.4003 180.46C70.1832 179.677 70.6379 178.864 71.4183 178.646C72.1987 178.428 73.0084 178.888 73.2255 179.671C73.4426 180.454 72.9879 181.266 72.2075 181.484C72.0755 181.52 71.9405 181.537 71.8114 181.537C71.1689 181.537 70.5792 181.11 70.4003 180.46ZM74.9183 179.185C74.6924 178.405 75.1384 177.586 75.9158 177.36C76.6933 177.13 77.506 177.577 77.7348 178.358C77.9636 179.138 77.5177 179.956 76.7402 180.183C76.6023 180.224 76.4644 180.245 76.3266 180.245C75.6928 180.245 75.1061 179.827 74.9183 179.185ZM0.0620014 178.611C-0.102292 177.813 0.408192 177.036 1.20032 176.871C1.99539 176.706 2.76991 177.221 2.93421 178.016C3.0985 178.811 2.58802 179.591 1.79295 179.756C1.6932 179.777 1.59345 179.786 1.49664 179.786C0.813058 179.786 0.202825 179.306 0.0620014 178.611ZM79.4217 177.851C79.1841 177.074 79.6212 176.25 80.3958 176.011C81.1703 175.773 81.9888 176.208 82.2265 176.989C82.4641 177.766 82.0299 178.587 81.2554 178.826C81.1116 178.87 80.9679 178.891 80.827 178.891C80.1963 178.891 79.6154 178.484 79.4217 177.851ZM83.9075 176.459C83.6611 175.684 84.0865 174.854 84.8581 174.61C85.6297 174.362 86.4541 174.786 86.7035 175.564C86.9499 176.338 86.5245 177.165 85.7529 177.413C85.6033 177.46 85.4537 177.483 85.304 177.483C84.685 177.483 84.107 177.083 83.9075 176.459ZM88.3787 175.016C88.1205 174.242 88.5371 173.411 89.3087 173.152C90.0744 172.899 90.9047 173.314 91.1629 174.089C91.4152 174.86 91.0015 175.69 90.2328 175.949C90.0774 175.999 89.9219 176.023 89.7693 176.023C89.1532 176.023 88.5811 175.631 88.3787 175.016ZM1.2678 175.084C0.472736 174.922 -0.043616 174.147 0.117744 173.35C0.27617 172.555 1.0507 172.037 1.84283 172.195C2.63789 172.354 3.15424 173.129 2.99582 173.927C2.85793 174.627 2.24476 175.11 1.55825 175.11C1.46437 175.11 1.36755 175.101 1.27073 175.084H1.2678ZM92.8293 173.52C92.5652 172.752 92.973 171.913 93.7388 171.648C94.5045 171.386 95.3406 171.795 95.6047 172.564C95.8658 173.332 95.4609 174.171 94.6922 174.433C94.5368 174.489 94.3754 174.516 94.217 174.516C93.6067 174.516 93.0405 174.13 92.8293 173.52ZM97.2652 171.981C96.9953 171.212 97.3943 170.37 98.1571 170.099C98.9199 169.825 99.7589 170.226 100.029 170.991C100.302 171.757 99.9027 172.599 99.1399 172.873C98.9786 172.932 98.8113 172.958 98.65 172.958C98.0456 172.958 97.4794 172.581 97.2652 171.981ZM101.686 170.391C101.408 169.628 101.798 168.783 102.558 168.501C103.318 168.221 104.163 168.615 104.441 169.378C104.72 170.14 104.33 170.985 103.57 171.265C103.403 171.327 103.233 171.356 103.065 171.356C102.467 171.356 101.904 170.988 101.686 170.391ZM2.43253 170.526C1.69614 170.188 1.37342 169.313 1.71081 168.574C2.04819 167.835 2.91954 167.508 3.65593 167.85C4.39231 168.188 4.71503 169.06 4.37765 169.802C4.1312 170.341 3.60018 170.659 3.04276 170.659C2.83739 170.659 2.63202 170.617 2.43253 170.526ZM106.09 168.76C105.803 167.997 106.187 167.149 106.944 166.861C107.701 166.575 108.549 166.958 108.836 167.717C109.121 168.48 108.739 169.328 107.982 169.616C107.812 169.681 107.636 169.711 107.463 169.711C106.871 169.711 106.313 169.348 106.09 168.76ZM110.479 167.084C110.186 166.328 110.558 165.474 111.315 165.18C112.069 164.885 112.92 165.262 113.213 166.019C113.507 166.775 113.134 167.629 112.377 167.923C112.204 167.991 112.025 168.024 111.846 168.024C111.26 168.024 110.705 167.667 110.479 167.084ZM4.5214 166.31C3.83782 165.871 3.63832 164.962 4.07546 164.276C4.5126 163.59 5.41915 163.389 6.10273 163.828C6.78337 164.267 6.98287 165.177 6.54867 165.863C6.26702 166.301 5.79468 166.54 5.3106 166.54C5.04069 166.54 4.76491 166.466 4.5214 166.31ZM114.853 165.371C114.551 164.614 114.918 163.757 115.672 163.457C116.423 163.157 117.277 163.522 117.576 164.279C117.878 165.032 117.511 165.889 116.757 166.192C116.579 166.263 116.397 166.295 116.215 166.295C115.634 166.295 115.082 165.945 114.853 165.371ZM119.21 163.616C118.902 162.862 119.26 162.003 120.011 161.694C120.759 161.387 121.616 161.747 121.924 162.497C122.232 163.251 121.874 164.111 121.123 164.42C120.941 164.494 120.75 164.529 120.566 164.529C119.988 164.529 119.442 164.184 119.21 163.616ZM123.549 161.82C123.238 161.072 123.587 160.21 124.336 159.895C125.081 159.58 125.943 159.93 126.254 160.681C126.568 161.432 126.216 162.294 125.471 162.609C125.286 162.686 125.092 162.724 124.905 162.724C124.33 162.724 123.787 162.386 123.549 161.82ZM7.12663 162.391C6.48706 161.894 6.37264 160.969 6.86846 160.328C7.36427 159.686 8.28549 159.568 8.92506 160.065C9.56757 160.563 9.68199 161.49 9.18617 162.132C8.89572 162.506 8.46445 162.701 8.02731 162.701C7.71046 162.701 7.39654 162.6 7.12663 162.391ZM127.877 159.989C127.554 159.244 127.9 158.378 128.642 158.058C129.385 157.734 130.247 158.078 130.567 158.826C130.887 159.574 130.543 160.439 129.801 160.76C129.611 160.843 129.414 160.881 129.22 160.881C128.651 160.881 128.111 160.548 127.874 159.989H127.877ZM10.0575 158.711C9.45021 158.172 9.39154 157.242 9.92843 156.633C10.4653 156.023 11.3953 155.967 11.9997 156.506C12.607 157.045 12.6627 157.975 12.1259 158.585C11.8383 158.914 11.4335 159.082 11.0286 159.082C10.6824 159.082 10.3362 158.958 10.0575 158.711ZM132.186 158.122C131.861 157.377 132.195 156.509 132.937 156.179C133.68 155.852 134.545 156.191 134.871 156.936C135.197 157.681 134.859 158.549 134.12 158.876C133.926 158.961 133.727 159 133.53 159C132.967 159 132.427 158.673 132.186 158.122ZM136.479 156.217C136.147 155.476 136.479 154.604 137.215 154.271C137.954 153.936 138.823 154.265 139.154 155.007C139.486 155.749 139.154 156.621 138.421 156.953C138.224 157.042 138.019 157.086 137.819 157.086C137.259 157.086 136.725 156.762 136.479 156.217ZM13.2026 155.216C12.6217 154.648 12.6129 153.715 13.1791 153.135C13.7424 152.552 14.6724 152.54 15.2533 153.108C15.8313 153.677 15.843 154.61 15.2768 155.19C14.9893 155.487 14.6079 155.635 14.2265 155.635C13.8568 155.635 13.4871 155.496 13.2026 155.216ZM140.756 154.277C140.419 153.538 140.741 152.664 141.478 152.322C142.214 151.984 143.083 152.308 143.423 153.047C143.76 153.783 143.441 154.657 142.704 154.999C142.505 155.09 142.296 155.134 142.091 155.134C141.536 155.134 141.005 154.816 140.756 154.277ZM145.019 152.299C144.676 151.563 144.99 150.685 145.723 150.341C146.456 149.996 147.331 150.311 147.674 151.047C148.02 151.784 147.706 152.661 146.97 153.005C146.77 153.1 146.556 153.147 146.348 153.147C145.796 153.147 145.271 152.832 145.019 152.299ZM16.509 151.872C15.9516 151.283 15.975 150.35 16.5618 149.79C17.1515 149.231 18.0786 149.254 18.636 149.846C19.1934 150.435 19.1699 151.365 18.5832 151.925C18.2986 152.196 17.9348 152.331 17.574 152.331C17.1838 152.331 16.7965 152.175 16.509 151.872ZM149.267 150.291C148.915 149.555 149.223 148.677 149.954 148.327C150.684 147.974 151.561 148.283 151.91 149.016C152.26 149.749 151.954 150.629 151.224 150.98C151.019 151.08 150.801 151.124 150.59 151.124C150.042 151.124 149.516 150.818 149.267 150.291ZM19.9357 148.651C19.3958 148.044 19.4487 147.114 20.053 146.572C20.6574 146.031 21.5815 146.087 22.1214 146.693C22.6612 147.3 22.6054 148.23 22.0011 148.772C21.7224 149.022 21.3732 149.143 21.0271 149.143C20.6222 149.143 20.2203 148.978 19.9327 148.651H19.9357ZM153.492 148.248C153.137 147.517 153.436 146.634 154.164 146.278C154.891 145.919 155.768 146.222 156.126 146.952C156.484 147.682 156.182 148.563 155.455 148.922C155.246 149.022 155.026 149.072 154.809 149.072C154.266 149.072 153.747 148.769 153.492 148.248ZM157.705 146.169C157.344 145.442 157.637 144.556 158.362 144.193C159.087 143.828 159.967 144.123 160.328 144.85C160.691 145.577 160.398 146.463 159.673 146.826C159.462 146.932 159.239 146.982 159.019 146.982C158.479 146.982 157.963 146.684 157.705 146.169ZM23.4563 145.536C22.934 144.915 23.0103 143.984 23.6293 143.46C24.2484 142.936 25.1725 143.013 25.6977 143.637C26.2199 144.255 26.1407 145.186 25.5246 145.71C25.2488 145.942 24.9144 146.057 24.5799 146.057C24.1633 146.057 23.7496 145.88 23.4592 145.536H23.4563ZM161.9 144.055C161.533 143.331 161.821 142.445 162.543 142.077C163.264 141.706 164.147 141.991 164.517 142.718C164.884 143.443 164.596 144.329 163.875 144.697C163.66 144.806 163.434 144.859 163.209 144.859C162.678 144.859 162.161 144.564 161.9 144.055ZM27.056 142.512C26.5456 141.879 26.6453 140.952 27.2761 140.44C27.9069 139.93 28.8281 140.03 29.3386 140.663C29.8461 141.293 29.7464 142.221 29.1185 142.733C28.8457 142.951 28.52 143.06 28.1973 143.06C27.769 143.06 27.3465 142.871 27.056 142.512ZM166.081 141.909C165.708 141.187 165.987 140.298 166.706 139.921C167.424 139.548 168.311 139.827 168.683 140.549C169.059 141.27 168.777 142.159 168.058 142.533H168.061C167.844 142.648 167.612 142.701 167.383 142.701C166.855 142.701 166.342 142.412 166.081 141.909ZM170.244 139.724C169.862 139.009 170.135 138.117 170.851 137.734C171.567 137.354 172.453 137.628 172.834 138.346C173.216 139.062 172.94 139.954 172.227 140.337C172.007 140.451 171.772 140.507 171.541 140.507C171.015 140.507 170.505 140.225 170.244 139.724ZM30.7204 139.565C30.2216 138.923 30.339 137.999 30.9786 137.501C31.6181 137.001 32.5393 137.119 33.0352 137.76C33.5339 138.405 33.4166 139.33 32.777 139.827C32.51 140.036 32.1932 140.136 31.8792 140.136C31.4421 140.136 31.0079 139.939 30.7204 139.565ZM174.386 137.51C174.002 136.795 174.266 135.903 174.979 135.514C175.689 135.128 176.581 135.393 176.965 136.109C177.353 136.821 177.086 137.716 176.376 138.102C176.153 138.223 175.915 138.282 175.677 138.282C175.158 138.282 174.65 138.002 174.386 137.51ZM34.4375 136.692C33.9534 136.041 34.0825 135.119 34.7338 134.631C35.3822 134.142 36.3005 134.277 36.7875 134.925C37.2716 135.579 37.1396 136.5 36.4912 136.986C36.2272 137.186 35.9191 137.281 35.6111 137.281C35.1651 137.281 34.725 137.077 34.4375 136.692ZM178.511 135.258C178.121 134.548 178.376 133.65 179.086 133.259C179.796 132.864 180.688 133.123 181.078 133.836C181.472 134.545 181.213 135.44 180.503 135.835C180.28 135.959 180.037 136.017 179.796 136.017C179.28 136.017 178.778 135.744 178.511 135.258ZM38.2045 133.88C37.7293 133.22 37.876 132.302 38.5302 131.825C39.1874 131.348 40.1027 131.492 40.578 132.152C41.0562 132.811 40.9066 133.73 40.2523 134.207C39.9942 134.398 39.692 134.486 39.3927 134.486C38.938 134.486 38.4921 134.277 38.2045 133.88ZM182.619 132.973C182.22 132.264 182.469 131.366 183.176 130.968C183.883 130.568 184.778 130.818 185.174 131.525C185.573 132.234 185.324 133.132 184.62 133.533C184.391 133.659 184.144 133.721 183.898 133.721C183.387 133.721 182.889 133.453 182.622 132.973H182.619ZM186.703 130.65C186.301 129.947 186.541 129.046 187.242 128.639C187.947 128.236 188.841 128.477 189.246 129.181C189.651 129.888 189.411 130.786 188.706 131.192C188.475 131.324 188.225 131.389 187.976 131.389C187.468 131.389 186.975 131.124 186.703 130.65ZM190.769 128.292C190.358 127.591 190.593 126.69 191.291 126.278C191.989 125.866 192.887 126.101 193.298 126.802C193.709 127.503 193.474 128.404 192.776 128.816C192.544 128.954 192.289 129.019 192.036 129.019C191.532 129.019 191.042 128.76 190.769 128.292ZM194.812 125.898C194.395 125.201 194.621 124.297 195.316 123.879C196.012 123.461 196.909 123.684 197.329 124.382C197.745 125.08 197.52 125.984 196.824 126.402C196.59 126.546 196.328 126.614 196.073 126.614C195.574 126.614 195.087 126.358 194.812 125.898ZM198.834 123.466C198.411 122.772 198.629 121.865 199.318 121.441C200.007 121.017 200.911 121.235 201.336 121.927C201.759 122.619 201.542 123.525 200.852 123.952C200.612 124.099 200.348 124.17 200.087 124.17C199.594 124.17 199.113 123.92 198.834 123.466ZM202.833 120.996C202.401 120.307 202.61 119.398 203.296 118.965C203.983 118.535 204.889 118.741 205.318 119.43C205.749 120.122 205.541 121.029 204.854 121.461H204.857C204.614 121.615 204.344 121.685 204.08 121.685C203.59 121.685 203.111 121.441 202.833 120.996ZM206.808 118.485C206.371 117.799 206.567 116.889 207.251 116.45C207.932 116.012 208.838 116.212 209.275 116.895C209.715 117.578 209.516 118.491 208.832 118.929C208.589 119.086 208.316 119.162 208.043 119.162C207.559 119.162 207.087 118.924 206.808 118.485ZM210.754 115.932C210.311 115.255 210.499 114.342 211.176 113.895C211.854 113.45 212.764 113.639 213.207 114.319C213.653 114.996 213.462 115.909 212.787 116.356C212.538 116.518 212.259 116.598 211.983 116.598C211.505 116.598 211.036 116.365 210.754 115.932ZM214.677 113.338C214.222 112.664 214.401 111.749 215.076 111.298C215.747 110.842 216.657 111.021 217.109 111.696C217.563 112.37 217.384 113.285 216.71 113.739C216.46 113.91 216.176 113.989 215.894 113.989C215.422 113.989 214.958 113.762 214.677 113.338ZM218.567 110.701C218.106 110.032 218.276 109.117 218.942 108.654C219.608 108.192 220.521 108.36 220.981 109.031C221.442 109.699 221.275 110.618 220.609 111.077C220.353 111.254 220.063 111.339 219.776 111.339C219.309 111.339 218.851 111.116 218.567 110.701ZM222.428 108.018C221.958 107.356 222.114 106.437 222.777 105.966C223.437 105.495 224.352 105.654 224.819 106.317C225.288 106.979 225.133 107.901 224.473 108.369C224.214 108.551 223.918 108.64 223.625 108.64C223.167 108.64 222.712 108.425 222.428 108.018ZM226.253 105.286C225.775 104.63 225.922 103.708 226.576 103.228C227.23 102.751 228.149 102.895 228.624 103.552C229.102 104.212 228.955 105.13 228.301 105.61C228.04 105.798 227.738 105.893 227.439 105.893C226.987 105.893 226.541 105.681 226.253 105.286ZM230.041 102.501C229.554 101.85 229.686 100.929 230.334 100.44C230.983 99.9543 231.901 100.084 232.388 100.734C232.875 101.385 232.743 102.31 232.095 102.795C231.831 102.996 231.523 103.09 231.217 103.09C230.771 103.09 230.331 102.887 230.041 102.501ZM233.79 99.6628C233.295 99.021 233.412 98.0965 234.051 97.5989C234.694 97.1014 235.612 97.2191 236.111 97.8609C236.607 98.5028 236.489 99.4273 235.85 99.9278C235.583 100.134 235.266 100.234 234.952 100.234C234.512 100.234 234.081 100.04 233.79 99.6628ZM237.496 96.7657C236.988 96.1327 237.091 95.2053 237.722 94.696C238.352 94.1896 239.277 94.2897 239.784 94.9256C240.292 95.5586 240.189 96.486 239.558 96.9954C239.285 97.2132 238.963 97.3192 238.64 97.3192C238.212 97.3192 237.783 97.1308 237.496 96.7657ZM241.148 93.8068C240.629 93.1827 240.714 92.2552 241.336 91.7341C241.961 91.213 242.885 91.2984 243.404 91.9226C243.921 92.5467 243.839 93.4741 243.214 93.9952C242.941 94.2249 242.606 94.3368 242.275 94.3368C241.855 94.3368 241.439 94.1572 241.148 93.8068ZM244.745 90.7773C244.214 90.1619 244.279 89.2345 244.892 88.6987C245.502 88.1658 246.429 88.2306 246.96 88.8459C247.491 89.4583 247.427 90.3886 246.816 90.9215C246.538 91.1629 246.195 91.2837 245.854 91.2837C245.443 91.2837 245.036 91.1129 244.745 90.7773ZM248.278 87.6682C247.732 87.0676 247.773 86.1372 248.371 85.5896C248.97 85.042 249.897 85.0862 250.443 85.6868C250.991 86.2844 250.947 87.2178 250.349 87.7654C250.067 88.0215 249.715 88.1481 249.36 88.1481C248.961 88.1481 248.565 87.9891 248.278 87.6682ZM251.731 84.4767C251.167 83.8908 251.185 82.9605 251.769 82.3952C252.353 81.8299 253.28 81.8476 253.843 82.4335C254.406 83.0164 254.389 83.9497 253.805 84.515C253.52 84.7888 253.154 84.9272 252.787 84.9272C252.402 84.9272 252.018 84.777 251.731 84.4767ZM255.093 81.1851C254.512 80.6199 254.497 79.6866 255.061 79.1036C255.627 78.5207 256.554 78.5059 257.135 79.0712C257.719 79.6365 257.73 80.5698 257.167 81.1527C256.879 81.4501 256.495 81.6003 256.114 81.6003C255.747 81.6003 255.377 81.4619 255.093 81.1851ZM258.338 77.7817C257.736 77.237 257.683 76.3066 258.223 75.7001C258.763 75.0936 259.69 75.0436 260.294 75.5853C260.899 76.127 260.952 77.0574 260.412 77.6639C260.121 77.9878 259.719 78.1556 259.318 78.1556C258.968 78.1556 258.619 78.0319 258.338 77.7817ZM261.439 74.2398C260.808 73.7305 260.708 72.8031 261.216 72.1701C261.723 71.5371 262.644 71.437 263.278 71.9463C263.909 72.4557 264.009 73.3831 263.501 74.0161C263.211 74.3753 262.785 74.5637 262.357 74.5637C262.034 74.5637 261.709 74.4577 261.439 74.2398ZM264.34 70.5331C263.674 70.0709 263.51 69.1552 263.971 68.4869C264.434 67.8186 265.346 67.6537 266.012 68.1159C266.678 68.5811 266.843 69.4968 266.382 70.1651C266.098 70.5773 265.64 70.7981 265.176 70.7981C264.886 70.7981 264.595 70.7127 264.34 70.5331ZM266.954 66.6232C266.247 66.2317 265.989 65.3366 266.382 64.6241C266.772 63.9117 267.664 63.6555 268.374 64.0471C269.084 64.4387 269.339 65.3366 268.949 66.0462C268.682 66.5349 268.181 66.8087 267.664 66.8087C267.424 66.8087 267.18 66.7498 266.954 66.6232ZM269.125 62.4513C268.362 62.1805 267.961 61.3414 268.23 60.573C268.5 59.8075 269.339 59.4041 270.102 59.675C270.868 59.9459 271.267 60.7879 270.997 61.5534C270.786 62.1599 270.22 62.5367 269.615 62.5367C269.454 62.5367 269.287 62.5102 269.125 62.4513ZM270.507 57.9585C269.697 57.9291 269.069 57.2431 269.099 56.4305C269.131 55.6209 269.815 54.9879 270.624 55.0173C271.431 55.0497 272.062 55.7357 272.03 56.5483C272 57.3403 271.349 57.9615 270.566 57.9615C270.548 57.9615 270.528 57.9615 270.507 57.9585ZM200.808 53.8779C200.585 53.0948 201.037 52.2822 201.815 52.0555C202.595 51.8317 203.408 52.2851 203.631 53.0683C203.854 53.8485 203.402 54.664 202.624 54.8878C202.489 54.926 202.352 54.9437 202.22 54.9437C201.58 54.9437 200.993 54.5256 200.808 53.8779ZM205.326 52.5913C205.112 51.8082 205.576 50.9985 206.356 50.7836C207.14 50.5716 207.943 51.0368 208.158 51.8199C208.369 52.606 207.905 53.4157 207.125 53.6277C206.996 53.663 206.867 53.6777 206.741 53.6777C206.095 53.6777 205.502 53.2479 205.326 52.5913ZM268.315 52.6178C267.94 51.8965 268.216 51.0073 268.935 50.6305C269.65 50.2507 270.536 50.5304 270.915 51.2488C271.29 51.9671 271.015 52.8592 270.296 53.2361C270.079 53.3509 269.847 53.4068 269.615 53.4068C269.09 53.4068 268.58 53.1183 268.315 52.6178ZM209.859 51.3695C209.66 50.5834 210.132 49.7796 210.915 49.5794C211.702 49.3792 212.503 49.8532 212.702 50.6393C212.902 51.4284 212.429 52.2292 211.643 52.4323C211.523 52.4618 211.399 52.4765 211.279 52.4765C210.625 52.4765 210.029 52.0349 209.859 51.3695ZM214.41 50.2154C214.222 49.4263 214.709 48.6314 215.498 48.443C216.287 48.2545 217.076 48.7433 217.264 49.5352C217.452 50.3272 216.965 51.1192 216.176 51.3076C216.064 51.3341 215.95 51.3489 215.835 51.3489C215.172 51.3489 214.571 50.8925 214.41 50.2154ZM218.98 49.1407C218.807 48.3458 219.309 47.5627 220.101 47.386C220.89 47.2123 221.674 47.7157 221.847 48.5107C222.02 49.3056 221.518 50.0888 220.726 50.2625C220.62 50.286 220.515 50.2978 220.412 50.2978C219.737 50.2978 219.13 49.8267 218.98 49.1407ZM265.64 49.7413C264.968 49.2879 264.789 48.3723 265.241 47.6981C265.693 47.0239 266.602 46.8443 267.277 47.2977C267.949 47.7511 268.128 48.6667 267.676 49.3409C267.394 49.762 266.928 49.9916 266.455 49.9916C266.177 49.9916 265.892 49.9092 265.64 49.7413ZM223.569 48.1485C223.413 47.3507 223.93 46.5764 224.725 46.4203C225.52 46.2613 226.292 46.7824 226.447 47.5803C226.605 48.3782 226.086 49.1496 225.294 49.3085C225.197 49.3292 225.1 49.338 225.007 49.338C224.32 49.338 223.707 48.8522 223.569 48.1485ZM228.178 47.2565C228.04 46.4556 228.577 45.6931 229.375 45.5547C230.173 45.4163 230.93 45.9522 231.071 46.753C231.209 47.5538 230.672 48.3164 229.874 48.4547C229.789 48.4695 229.706 48.4783 229.621 48.4783C228.923 48.4783 228.301 47.9719 228.178 47.2565ZM261.773 47.9483C261.001 47.701 260.573 46.8737 260.82 46.0994C261.063 45.3221 261.888 44.8952 262.659 45.1396C263.434 45.3869 263.859 46.2142 263.616 46.9885C263.416 47.6156 262.838 48.0161 262.216 48.0161C262.069 48.0161 261.92 47.9925 261.773 47.9483ZM232.808 46.4733C232.693 45.6695 233.248 44.9217 234.049 44.8069C234.852 44.6891 235.595 45.2485 235.712 46.0523C235.829 46.856 235.272 47.6039 234.471 47.7187C234.401 47.7305 234.327 47.7364 234.257 47.7364C233.541 47.7364 232.913 47.2064 232.808 46.4733ZM237.458 45.8256C237.367 45.0159 237.948 44.2887 238.751 44.1975C239.558 44.1091 240.283 44.6891 240.374 45.4958C240.462 46.3055 239.884 47.0327 239.077 47.124C239.024 47.1299 238.969 47.1328 238.913 47.1328C238.176 47.1328 237.54 46.5764 237.458 45.8256ZM257.425 46.9679C256.624 46.8472 256.07 46.0994 256.19 45.2956C256.31 44.4919 257.056 43.9384 257.859 44.0561H257.856C258.66 44.1768 259.212 44.9276 259.092 45.7314C258.983 46.4615 258.358 46.9856 257.642 46.9856C257.572 46.9856 257.499 46.9797 257.425 46.9679ZM242.128 45.3339C242.07 44.5213 242.677 43.8177 243.487 43.7588C244.293 43.6999 244.995 44.3123 245.053 45.1219C245.109 45.9345 244.502 46.6382 243.695 46.6971C243.66 46.6971 243.624 46.7 243.589 46.7C242.826 46.7 242.181 46.1082 242.128 45.3339ZM252.898 46.5351C252.092 46.4969 251.467 45.805 251.505 44.9953C251.546 44.1827 252.232 43.5556 253.042 43.5939C253.852 43.6351 254.477 44.327 254.436 45.1367C254.397 45.9257 253.749 46.5381 252.975 46.5381C252.948 46.5381 252.925 46.5381 252.898 46.5351ZM246.811 45.0365C246.796 44.224 247.438 43.5527 248.248 43.535C249.058 43.5174 249.73 44.1651 249.744 44.9777C249.762 45.7903 249.117 46.4615 248.307 46.4792H248.275C247.48 46.4792 246.828 45.8403 246.811 45.0365Z" fill="url(#paint3_linear_1233_1640)"/>
</g>
<defs>
<linearGradient id="paint0_linear_1233_1640" x1="208.649" y1="200.045" x2="229.486" y2="179.282" gradientUnits="userSpaceOnUse">
<stop stop-color="#8CD6D6"/>
<stop offset="1" stop-color="#FF9F80"/>
</linearGradient>
<linearGradient id="paint1_linear_1233_1640" x1="57.2867" y1="155.239" x2="185.228" y2="27.748" gradientUnits="userSpaceOnUse">
<stop stop-color="#8CD6D6"/>
<stop offset="1" stop-color="#FF9F80"/>
</linearGradient>
<linearGradient id="paint2_linear_1233_1640" x1="73.2344" y1="91.2807" x2="168.821" y2="91.2807" gradientUnits="userSpaceOnUse">
<stop stop-color="#8CD6D6"/>
<stop offset="1" stop-color="#FF9F80"/>
</linearGradient>
<linearGradient id="paint3_linear_1233_1640" x1="2.91472" y1="184.725" x2="273.208" y2="56.0823" gradientUnits="userSpaceOnUse">
<stop stop-color="#8CD6D6"/>
<stop offset="1" stop-color="#FF9F80"/>
</linearGradient>
<clipPath id="clip0_1233_1640">
<rect width="272" height="231" fill="white" transform="translate(0.0332031 0.806152)"/>
</clipPath>
</defs>
</svg>
