<svg width="75" height="74" viewBox="0 0 75 74" fill="none" xmlns="http://www.w3.org/2000/svg">
<g clip-path="url(#clip0_1204_1481)">
<path d="M56.0977 60.8204C55.9256 60.8204 55.7535 60.7795 55.5896 60.6948C55.0542 60.4137 54.8494 59.753 55.1307 59.2207C57.8677 54.0204 57.0046 44.3432 54.4834 38.5642C53.9644 37.3767 53.8797 36.0664 54.2375 34.7779C54.7565 32.9134 56.3982 32.7742 57.7175 32.6623C59.2444 32.5313 60.9735 32.3838 62.8364 30.4621C64.1831 29.0726 64.6802 26.8751 64.8523 25.764C64.1312 25.3955 62.9757 24.8141 62.1289 24.41C60.449 23.6129 59.9382 22.2699 59.5258 21.1916C59.1434 20.1897 58.8128 19.3217 57.6164 18.6556C55.5678 17.5118 54.3222 17.2606 53.3197 17.0586C53.0629 17.0068 52.8198 16.9576 52.5849 16.8976C51.1481 16.5318 50.8941 13.9712 50.8832 11.1049C47.8402 13.2969 46.0702 17.6237 46.0511 17.6728C45.9801 17.8475 45.8681 18.0004 45.7206 18.1178C42.8197 20.4436 42.0111 24.7868 41.1534 29.3838L41.0578 29.8997C40.9458 30.4921 40.3777 30.8824 39.7822 30.7733C39.1894 30.6613 38.7988 30.0908 38.9081 29.4984L39.0037 28.9825C39.916 24.0797 40.7792 19.4445 44.1335 16.5946C44.6607 15.388 46.9907 10.5016 50.9241 8.52794C51.3912 8.29317 51.9348 8.32047 52.3773 8.59618C52.8226 8.87463 53.0821 9.35234 53.0766 9.87647C53.0384 12.6909 53.2487 14.2933 53.4344 14.8502C53.5382 14.872 53.6448 14.8939 53.7568 14.9157C54.7866 15.1232 56.3408 15.4371 58.6872 16.7474C60.5774 17.8011 61.1292 19.2507 61.5717 20.4136C61.9732 21.4673 62.2218 22.0351 63.0686 22.4391C64.4207 23.0806 66.4448 24.1234 66.5295 24.1698C66.9146 24.3691 67.1468 24.7758 67.1195 25.2071C67.1085 25.3819 66.8299 29.4848 64.407 31.9853C61.9732 34.494 59.5258 34.7042 57.9032 34.8407C56.5129 34.9581 56.4309 35.0482 56.3435 35.3648C56.1168 36.1756 56.166 36.959 56.4856 37.6934C59.198 43.9092 60.1895 54.2961 57.0647 60.2389C56.868 60.6102 56.4883 60.8231 56.0977 60.8231V60.8204Z" fill="url(#paint0_linear_1204_1481)"/>
<path d="M37.9767 74C30.6534 74 23.5705 71.8653 17.4983 67.8306C17.1923 67.6286 17.0093 67.2846 17.0093 66.9188C17.0093 66.7551 17.0257 62.876 17.5037 60.2608C18.1238 56.8758 18.6783 55.6665 19.689 53.4745L19.9048 53.0049C20.5603 51.5718 20.5549 50.7938 20.4948 50.5481C20.4866 50.5481 20.4784 50.5481 20.4675 50.5481C12.8683 51.3807 7.80402 51.3998 4.41144 49.0385C1.17456 46.7891 0 43.1257 0 41.2148C0 40.718 0.33598 40.284 0.819463 40.1584C0.939651 40.1284 1.10081 40.0874 1.29748 40.0383C5.12711 39.091 11.6965 37.142 12.6935 34.7097C15.1054 28.8215 19.8119 27.1481 23.6415 26.3482C26.5069 25.7504 29.5362 20.1679 29.7055 16.4363C29.7274 15.9831 30.0251 15.59 30.4567 15.4481C30.8883 15.3061 31.3609 15.4481 31.6477 15.7975C33.7127 18.3499 34.737 21.6611 35.7286 24.8632C36.4224 27.1071 37.1381 29.4247 38.1979 31.3738C39.8013 34.3302 42.3772 37.1856 45.1032 40.2075C49.766 45.3778 55.0515 51.2388 57.163 59.4501C57.3132 60.0342 56.9609 60.6293 56.3763 60.7795C55.7918 60.9296 55.1963 60.5775 55.0461 59.9933C53.0684 52.3034 47.9741 46.6526 43.4807 41.6707C40.6645 38.5478 38.004 35.5996 36.2776 32.4139C35.1167 30.2737 34.3683 27.8496 33.6417 25.5047C32.967 23.3236 32.3196 21.2271 31.3854 19.4063C30.271 23.3154 27.4602 27.7759 24.0922 28.4802C19.1235 29.5176 16.321 31.625 14.7203 35.5314C13.36 38.8508 7.09655 40.8245 2.2863 42.0365C2.54853 43.3823 3.41443 45.6726 5.66795 47.2396C8.48691 49.2023 13.3327 49.1259 20.238 48.3697C21.0875 48.2769 21.8004 48.569 22.2512 49.1941C22.9641 50.1823 22.8384 51.8557 21.8988 53.9058L21.6803 54.378C20.7133 56.4773 20.2298 57.5283 19.6589 60.643C19.3202 62.4938 19.2301 65.1581 19.2082 66.3265C24.8106 69.9135 31.2871 71.808 37.9821 71.808C57.1931 71.808 72.8202 56.1906 72.8202 36.9918C72.8202 25.0079 66.7671 14.0122 56.6304 7.57798C56.1223 7.25587 55.9693 6.57887 56.2944 6.07112C56.6167 5.56065 57.2941 5.41051 57.8022 5.73535C68.5754 12.5708 75.0055 24.2572 75.0055 36.9918C75.0055 57.3945 58.3977 73.9918 37.9821 73.9918L37.9767 74ZM2.2945 33.858C2.25079 33.858 2.20982 33.858 2.16611 33.8498C1.56791 33.7788 1.13905 33.2356 1.20734 32.6377C3.39258 14.0313 19.2 0 37.9767 0C41.6506 0 45.2808 0.537775 48.7635 1.59422C49.3399 1.76892 49.6677 2.3804 49.4901 2.9564C49.3153 3.53239 48.7062 3.85997 48.1271 3.68253C44.8492 2.68614 41.4348 2.18113 37.9767 2.18113C20.309 2.18386 5.43577 15.3853 3.37619 32.8943C3.31063 33.4512 2.83807 33.858 2.29176 33.858H2.2945Z" fill="url(#paint1_linear_1204_1481)"/>
</g>
<defs>
<linearGradient id="paint0_linear_1204_1481" x1="38.8944" y1="34.595" x2="67.1222" y2="34.595" gradientUnits="userSpaceOnUse">
<stop stop-color="#8CD6D6"/>
<stop offset="1" stop-color="#FF9F80"/>
</linearGradient>
<linearGradient id="paint1_linear_1204_1481" x1="75" y1="37" x2="0" y2="37" gradientUnits="userSpaceOnUse">
<stop stop-color="#8CD6D6"/>
<stop offset="1" stop-color="#FF9F80"/>
</linearGradient>
<clipPath id="clip0_1204_1481">
<rect width="75" height="74" fill="white"/>
</clipPath>
</defs>
</svg>
