<svg width="181" height="195" viewBox="0 0 181 195" fill="none" xmlns="http://www.w3.org/2000/svg">
<g clip-path="url(#clip0_1233_7275)">
<path d="M134.614 184.352C134.47 183.645 134.928 182.957 135.637 182.816C136.343 182.673 137.034 183.127 137.178 183.833C137.322 184.54 136.864 185.226 136.155 185.372C136.069 185.387 135.98 185.398 135.896 185.398C135.286 185.398 134.74 184.97 134.614 184.352ZM133.779 180.263C133.638 179.559 134.093 178.871 134.802 178.727C135.511 178.584 136.202 179.038 136.346 179.744C136.49 180.451 136.032 181.14 135.323 181.28C135.234 181.299 135.148 181.309 135.061 181.309C134.452 181.309 133.905 180.881 133.779 180.263ZM132.947 176.175C132.803 175.468 133.261 174.782 133.968 174.639C134.677 174.495 135.368 174.949 135.511 175.656C135.655 176.362 135.197 177.048 134.491 177.194C134.402 177.21 134.316 177.22 134.229 177.22C133.62 177.22 133.073 176.793 132.947 176.175ZM132.113 172.086C131.971 171.382 132.427 170.693 133.136 170.55C133.845 170.407 134.535 170.86 134.679 171.567C134.821 172.274 134.365 172.962 133.656 173.103C133.567 173.121 133.481 173.132 133.395 173.132C132.785 173.132 132.241 172.704 132.113 172.086ZM131.281 167.997C131.137 167.29 131.595 166.602 132.304 166.461C133.01 166.318 133.701 166.771 133.845 167.478C133.989 168.185 133.531 168.871 132.824 169.017C132.735 169.032 132.649 169.043 132.563 169.043C131.953 169.043 131.406 168.615 131.281 167.997ZM130.449 163.908C130.305 163.204 130.763 162.516 131.469 162.372C132.178 162.229 132.869 162.683 133.013 163.389C133.157 164.096 132.699 164.784 131.99 164.925C131.903 164.944 131.814 164.954 131.728 164.954C131.118 164.954 130.574 164.526 130.449 163.908ZM129.614 159.82C129.47 159.113 129.928 158.427 130.637 158.284C131.343 158.14 132.034 158.594 132.178 159.301C132.322 160.007 131.864 160.696 131.158 160.839C131.069 160.855 130.982 160.865 130.896 160.865C130.286 160.865 129.742 160.438 129.614 159.82ZM128.782 155.731C128.638 155.027 129.096 154.338 129.802 154.195C130.511 154.051 131.202 154.508 131.346 155.212C131.49 155.919 131.032 156.607 130.323 156.75C130.237 156.769 130.15 156.776 130.064 156.776C129.454 156.776 128.907 156.349 128.782 155.731ZM127.95 151.642C127.806 150.935 128.261 150.25 128.97 150.106C129.679 149.963 130.37 150.416 130.514 151.123C130.655 151.83 130.2 152.518 129.491 152.662C129.402 152.677 129.316 152.688 129.229 152.688C128.62 152.688 128.073 152.26 127.95 151.642ZM178.835 149.517C178.576 148.844 178.913 148.088 179.586 147.83C180.261 147.572 181.017 147.905 181.279 148.578C181.538 149.251 181.2 150.004 180.528 150.265C180.373 150.323 180.214 150.351 180.057 150.351C179.531 150.351 179.036 150.033 178.835 149.517ZM126.961 150.085C126.241 150.025 125.705 149.397 125.765 148.68C125.823 147.96 126.456 147.428 127.175 147.485C127.895 147.545 128.431 148.174 128.371 148.894C128.316 149.574 127.743 150.09 127.071 150.09C127.034 150.09 126.997 150.09 126.961 150.085ZM122.788 149.744C122.068 149.684 121.532 149.053 121.592 148.336C121.649 147.618 122.283 147.084 123.002 147.144C123.722 147.201 124.258 147.832 124.2 148.549C124.143 149.233 123.57 149.746 122.897 149.746C122.861 149.746 122.824 149.746 122.788 149.744ZM118.617 149.399C117.897 149.342 117.361 148.711 117.421 147.994C117.479 147.277 118.112 146.742 118.831 146.802C119.551 146.86 120.087 147.491 120.027 148.208C119.972 148.888 119.399 149.405 118.724 149.405C118.69 149.405 118.653 149.402 118.617 149.399ZM114.444 149.058C113.724 148.998 113.188 148.369 113.248 147.652C113.308 146.933 113.939 146.401 114.658 146.458C115.378 146.518 115.914 147.146 115.854 147.866C115.799 148.547 115.226 149.063 114.553 149.063C114.517 149.063 114.48 149.06 114.444 149.058ZM110.27 148.716C109.551 148.656 109.017 148.025 109.075 147.308C109.135 146.591 109.765 146.056 110.487 146.116C111.207 146.176 111.741 146.805 111.683 147.522C111.626 148.205 111.055 148.719 110.38 148.719C110.344 148.719 110.307 148.719 110.27 148.716ZM106.1 148.372C105.38 148.315 104.844 147.684 104.904 146.967C104.961 146.249 105.595 145.715 106.314 145.772C107.034 145.832 107.57 146.463 107.51 147.18C107.455 147.861 106.882 148.377 106.21 148.377C106.173 148.377 106.136 148.375 106.1 148.372ZM101.926 148.03C101.207 147.97 100.67 147.342 100.731 146.622C100.791 145.905 101.421 145.371 102.141 145.431C102.863 145.491 103.397 146.119 103.339 146.836C103.282 147.519 102.709 148.036 102.036 148.036C102 148.036 101.963 148.033 101.926 148.03ZM97.7557 147.686C97.0336 147.629 96.4998 146.998 96.5574 146.281C96.6176 145.564 97.2507 145.029 97.9703 145.089C98.6898 145.149 99.2262 145.777 99.166 146.495C99.1111 147.175 98.538 147.691 97.8656 147.691C97.829 147.691 97.7924 147.691 97.7557 147.686ZM93.5824 147.345C92.8629 147.285 92.3265 146.656 92.3867 145.939C92.4443 145.219 93.0775 144.687 93.797 144.747C94.5165 144.805 95.0529 145.436 94.9953 146.153C94.9378 146.834 94.3648 147.35 93.6897 147.35C93.6557 147.35 93.6191 147.347 93.5824 147.345ZM89.1789 146.526C88.4934 146.304 88.1166 145.569 88.3417 144.883C88.564 144.2 89.3019 143.824 89.99 144.046C90.6755 144.27 91.0523 145.006 90.8299 145.689C90.6494 146.242 90.1366 146.591 89.5845 146.591C89.451 146.591 89.315 146.57 89.1789 146.526ZM177.331 145.621C177.071 144.951 177.409 144.195 178.081 143.936C178.756 143.678 179.515 144.012 179.774 144.685C180.033 145.358 179.698 146.111 179.023 146.369C178.869 146.429 178.709 146.458 178.552 146.458C178.027 146.458 177.532 146.14 177.331 145.621ZM85.1888 144.776C84.5399 144.463 84.2678 143.684 84.5818 143.034C84.8958 142.388 85.6781 142.116 86.3296 142.429C86.9785 142.742 87.2506 143.522 86.9366 144.171C86.7116 144.635 86.2432 144.907 85.7592 144.907C85.5656 144.907 85.372 144.865 85.1888 144.776ZM81.4211 142.959C80.7722 142.646 80.5001 141.866 80.8141 141.217C81.128 140.57 81.9104 140.299 82.5619 140.612C83.2107 140.925 83.4829 141.707 83.1689 142.354C82.9439 142.818 82.4755 143.089 81.9915 143.089C81.7979 143.089 81.6042 143.047 81.4211 142.959ZM175.826 141.728C175.567 141.058 175.905 140.301 176.577 140.043C177.252 139.785 178.011 140.119 178.27 140.792C178.529 141.464 178.194 142.218 177.519 142.476C177.365 142.536 177.205 142.565 177.048 142.565C176.522 142.565 176.028 142.247 175.826 141.728ZM77.6534 141.141C77.0019 140.828 76.7324 140.048 77.0463 139.399C77.3603 138.752 78.1426 138.481 78.7915 138.794C79.443 139.107 79.7151 139.887 79.4012 140.536C79.1761 141 78.7078 141.271 78.2211 141.271C78.0301 141.271 77.8365 141.23 77.6534 141.141ZM73.8856 139.324C73.2341 139.011 72.962 138.231 73.276 137.582C73.5926 136.932 74.3749 136.661 75.0238 136.977C75.6753 137.29 75.9474 138.069 75.6334 138.719C75.4058 139.183 74.9401 139.454 74.4534 139.454C74.2624 139.454 74.0688 139.412 73.8856 139.324ZM174.322 137.835C174.063 137.162 174.4 136.408 175.072 136.15C175.748 135.892 176.506 136.226 176.765 136.898C177.024 137.569 176.689 138.325 176.014 138.583C175.86 138.643 175.7 138.672 175.543 138.672C175.018 138.672 174.523 138.354 174.322 137.835ZM70.1153 137.506C69.4664 137.193 69.1943 136.411 69.5083 135.764C69.8249 135.115 70.6072 134.844 71.2561 135.159C71.9076 135.472 72.1797 136.252 71.8657 136.901C71.6381 137.365 71.1724 137.636 70.6857 137.636C70.4947 137.636 70.3011 137.595 70.1153 137.506ZM66.3476 135.689C65.6987 135.376 65.4266 134.593 65.7406 133.947C66.0545 133.297 66.8369 133.026 67.4884 133.342C68.1399 133.655 68.4094 134.434 68.0954 135.084C67.8704 135.548 67.4046 135.819 66.918 135.819C66.727 135.819 66.5307 135.777 66.3476 135.689ZM172.817 133.941C172.558 133.269 172.896 132.515 173.568 132.257C174.243 131.996 175.002 132.333 175.261 133.005C175.52 133.675 175.185 134.432 174.51 134.69C174.356 134.75 174.196 134.776 174.039 134.776C173.513 134.776 173.019 134.46 172.817 133.941ZM62.5799 133.871C61.931 133.555 61.6589 132.776 61.9728 132.129C62.2868 131.48 63.0691 131.209 63.7206 131.524C64.3695 131.837 64.6416 132.617 64.3277 133.263C64.1026 133.73 63.6369 134.001 63.1502 134.001C62.9592 134.001 62.763 133.96 62.5799 133.871ZM58.8121 132.053C58.1632 131.738 57.8911 130.958 58.2051 130.312C58.5191 129.662 59.3014 129.391 59.9529 129.704C60.6018 130.02 60.8739 130.799 60.5599 131.446C60.3349 131.913 59.8666 132.184 59.3799 132.184C59.1889 132.184 58.9953 132.142 58.8121 132.053ZM171.315 130.048C171.054 129.375 171.391 128.622 172.064 128.364C172.739 128.103 173.497 128.439 173.756 129.112C174.015 129.782 173.681 130.536 173.005 130.797C172.851 130.857 172.692 130.883 172.537 130.883C172.011 130.883 171.514 130.565 171.315 130.048ZM55.0444 130.233C54.3929 129.92 54.1234 129.141 54.4374 128.494C54.7514 127.845 55.5337 127.574 56.1852 127.886C56.8341 128.202 57.1062 128.982 56.7922 129.628C56.5672 130.095 56.0989 130.366 55.6122 130.366C55.4212 130.366 55.2276 130.322 55.0444 130.233ZM51.2767 128.416C50.6252 128.103 50.3531 127.323 50.667 126.674C50.9836 126.027 51.766 125.756 52.4149 126.069C53.0664 126.384 53.3385 127.164 53.0245 127.811C52.7969 128.278 52.3311 128.549 51.8445 128.549C51.6535 128.549 51.4598 128.505 51.2767 128.416ZM169.811 126.155C169.552 125.482 169.887 124.729 170.562 124.468C171.234 124.21 171.993 124.546 172.252 125.216C172.511 125.889 172.176 126.643 171.501 126.901C171.347 126.961 171.187 126.989 171.03 126.989C170.504 126.989 170.01 126.671 169.811 126.155ZM47.5063 126.598C46.8575 126.285 46.5854 125.506 46.8993 124.856C47.2159 124.21 47.9982 123.939 48.6471 124.251C49.2986 124.567 49.5707 125.347 49.2568 125.993C49.0291 126.458 48.5634 126.729 48.0767 126.729C47.8857 126.729 47.6921 126.687 47.5063 126.598ZM43.7386 124.781C43.0897 124.468 42.8176 123.688 43.1316 123.039C43.4456 122.392 44.2279 122.121 44.8794 122.434C45.5309 122.747 45.8004 123.527 45.4864 124.176C45.2614 124.64 44.7957 124.911 44.309 124.911C44.118 124.911 43.9218 124.869 43.7386 124.781ZM168.306 122.262C168.047 121.589 168.382 120.835 169.057 120.575C169.73 120.317 170.488 120.653 170.747 121.323C171.007 121.996 170.672 122.749 169.997 123.008C169.842 123.068 169.683 123.096 169.526 123.096C169.002 123.096 168.505 122.778 168.306 122.262ZM39.9709 122.963C39.322 122.65 39.0499 121.871 39.3639 121.221C39.6779 120.575 40.4602 120.303 41.1117 120.616C41.7606 120.929 42.0327 121.709 41.7187 122.358C41.4937 122.822 41.028 123.094 40.5413 123.094C40.3503 123.094 40.1541 123.052 39.9709 122.963ZM36.1142 120.882C35.5203 120.47 35.3738 119.657 35.7872 119.067C36.2006 118.476 37.0169 118.332 37.6109 118.742C38.2022 119.156 38.3487 119.967 37.9353 120.559C37.6815 120.922 37.2733 121.117 36.8599 121.117C36.6035 121.117 36.3419 121.041 36.1142 120.882ZM166.802 118.369C166.54 117.696 166.878 116.942 167.55 116.681C168.225 116.423 168.981 116.757 169.243 117.427C169.502 118.1 169.167 118.856 168.495 119.114C168.338 119.174 168.181 119.203 168.024 119.203C167.498 119.203 167.003 118.885 166.802 118.369ZM32.8227 117.938C32.3177 117.425 32.323 116.598 32.8384 116.095C33.3539 115.589 34.1807 115.594 34.6883 116.108C35.1958 116.622 35.188 117.446 34.6726 117.951C34.4188 118.202 34.0865 118.327 33.7568 118.327C33.4166 118.327 33.0791 118.197 32.8227 117.938ZM165.164 114.655C164.845 114.011 165.109 113.229 165.758 112.911C166.404 112.59 167.189 112.854 167.511 113.5C167.83 114.144 167.566 114.927 166.917 115.247C166.731 115.339 166.532 115.383 166.339 115.383C165.857 115.383 165.394 115.117 165.164 114.655ZM29.8792 114.958C29.3716 114.444 29.3768 113.62 29.8923 113.114C30.4077 112.611 31.2345 112.616 31.7421 113.127C32.2497 113.644 32.2418 114.468 31.729 114.974C31.4726 115.224 31.1403 115.346 30.8106 115.346C30.4731 115.346 30.133 115.219 29.8766 114.958H29.8792ZM96.5469 112.439C96.5077 111.722 97.0571 111.104 97.7793 111.065C98.5014 111.023 99.1189 111.573 99.1608 112.293C99.2 113.01 98.6506 113.628 97.9284 113.667C97.9022 113.67 97.8787 113.67 97.8525 113.67C97.1644 113.67 96.5888 113.133 96.5469 112.439ZM93.449 113.388C92.7399 113.26 92.269 112.58 92.3972 111.873C92.528 111.164 93.2083 110.694 93.92 110.825C94.6317 110.953 95.1026 111.633 94.9718 112.34C94.8567 112.971 94.3072 113.412 93.6871 113.412C93.6086 113.412 93.5301 113.404 93.449 113.388ZM100.712 112.016C100.503 111.328 100.893 110.598 101.586 110.389C102.277 110.181 103.007 110.569 103.216 111.258C103.428 111.946 103.036 112.676 102.345 112.885C102.219 112.924 102.091 112.942 101.966 112.942C101.403 112.942 100.885 112.58 100.712 112.016ZM89.3307 112.64C88.6216 112.509 88.1507 111.829 88.2789 111.122C88.4097 110.413 89.0926 109.943 89.8016 110.074C90.5133 110.202 90.9843 110.882 90.8535 111.591C90.7383 112.22 90.1889 112.661 89.5688 112.661C89.4903 112.661 89.4118 112.653 89.3307 112.64ZM26.9383 111.98C26.4333 111.466 26.4385 110.642 26.954 110.136C27.4668 109.63 28.2962 109.638 28.8038 110.152C29.3088 110.663 29.3035 111.49 28.7881 111.996C28.5343 112.246 28.202 112.371 27.8697 112.371C27.5322 112.371 27.1947 112.241 26.9383 111.98ZM85.215 111.889C84.5033 111.758 84.0323 111.08 84.1631 110.371C84.2914 109.662 84.9743 109.192 85.6859 109.323C86.395 109.453 86.866 110.131 86.7378 110.84C86.62 111.469 86.0706 111.91 85.4505 111.91C85.372 111.91 85.2935 111.902 85.215 111.889ZM163.196 111.109C162.82 110.496 163.013 109.693 163.628 109.315C164.246 108.939 165.049 109.132 165.428 109.745C165.805 110.358 165.614 111.161 164.996 111.537C164.785 111.667 164.546 111.73 164.314 111.73C163.874 111.73 163.445 111.508 163.196 111.109ZM104.663 110.627C104.294 110.006 104.501 109.205 105.124 108.84C105.746 108.475 106.547 108.681 106.916 109.299C107.282 109.92 107.076 110.72 106.453 111.086C106.246 111.208 106.016 111.268 105.791 111.268C105.341 111.268 104.907 111.039 104.663 110.627ZM81.0966 111.138C80.385 111.007 79.914 110.329 80.0448 109.62C80.173 108.913 80.8559 108.444 81.5676 108.572C82.2767 108.702 82.7476 109.38 82.6168 110.089C82.5017 110.718 81.9522 111.159 81.3321 111.159C81.2536 111.159 81.1751 111.153 81.0966 111.138ZM76.9783 110.387C76.2666 110.259 75.7957 109.578 75.9265 108.869C76.0573 108.162 76.7376 107.693 77.4493 107.821C78.1583 107.951 78.6293 108.632 78.5011 109.338C78.3834 109.969 77.8339 110.41 77.2138 110.41C77.1353 110.41 77.0568 110.402 76.9783 110.387ZM72.86 109.636C72.1483 109.508 71.6773 108.827 71.8082 108.121C71.9364 107.411 72.6193 106.942 73.3309 107.072C74.04 107.2 74.511 107.881 74.3828 108.587C74.2676 109.218 73.7156 109.659 73.0955 109.659C73.017 109.659 72.9385 109.651 72.86 109.636ZM23.9973 109.005C23.4897 108.491 23.4976 107.664 24.0104 107.161C24.5259 106.655 25.3553 106.66 25.8629 107.174C26.3679 107.688 26.3626 108.514 25.8472 109.018C25.5934 109.268 25.2611 109.393 24.9288 109.393C24.5913 109.393 24.2538 109.263 23.9973 109.005ZM68.7417 108.887C68.03 108.757 67.559 108.079 67.6898 107.37C67.8207 106.66 68.5009 106.191 69.2126 106.321C69.9243 106.449 70.3953 107.13 70.2644 107.839C70.1493 108.467 69.5972 108.908 68.9771 108.908C68.8986 108.908 68.8201 108.9 68.7417 108.887ZM108.169 108.348C107.667 107.831 107.677 107.005 108.198 106.501C108.714 106.001 109.543 106.014 110.048 106.53C110.55 107.046 110.537 107.87 110.019 108.371C109.765 108.619 109.438 108.741 109.109 108.741C108.768 108.741 108.426 108.608 108.169 108.348ZM160.915 107.753C160.483 107.177 160.601 106.36 161.182 105.928C161.76 105.497 162.581 105.617 163.013 106.194C163.445 106.77 163.325 107.589 162.746 108.019C162.511 108.194 162.236 108.277 161.964 108.277C161.566 108.277 161.171 108.097 160.915 107.753ZM64.6233 108.136C63.9143 108.006 63.4433 107.328 63.5715 106.619C63.7023 105.909 64.3826 105.443 65.0943 105.57C65.8033 105.701 66.2743 106.379 66.1461 107.088C66.031 107.716 65.4815 108.157 64.8614 108.157C64.7829 108.157 64.7018 108.149 64.6233 108.136ZM60.505 107.385C59.7959 107.255 59.325 106.577 59.4532 105.868C59.584 105.161 60.2643 104.692 60.976 104.819C61.6876 104.95 62.1586 105.63 62.0278 106.337C61.9127 106.965 61.3632 107.406 60.7431 107.406C60.6646 107.406 60.5861 107.401 60.505 107.385ZM56.3867 106.634C55.6776 106.507 55.2066 105.826 55.3348 105.117C55.4657 104.41 56.1459 103.941 56.8576 104.071C57.5693 104.199 58.0403 104.879 57.9095 105.586C57.7943 106.217 57.2422 106.658 56.6221 106.658C56.5463 106.658 56.4678 106.65 56.3867 106.634ZM21.0564 106.027C20.5488 105.516 20.5541 104.689 21.0695 104.186C21.585 103.68 22.4118 103.685 22.9194 104.199C23.427 104.71 23.4217 105.536 22.9063 106.042C22.6499 106.293 22.3202 106.415 21.9879 106.415C21.6504 106.415 21.3128 106.287 21.0564 106.027ZM52.2683 105.883C51.5593 105.756 51.0883 105.075 51.2165 104.368C51.3473 103.659 52.0302 103.19 52.7393 103.32C53.451 103.45 53.9219 104.128 53.7911 104.838C53.676 105.466 53.1265 105.907 52.5064 105.907C52.4279 105.907 52.3494 105.899 52.2683 105.883ZM111.1 105.364C110.574 104.869 110.553 104.045 111.05 103.521C111.545 102.999 112.374 102.976 112.897 103.471C113.423 103.967 113.444 104.793 112.947 105.315C112.691 105.586 112.345 105.722 112 105.722C111.675 105.722 111.351 105.604 111.1 105.364ZM158.338 104.619C157.856 104.084 157.898 103.26 158.437 102.778C158.973 102.298 159.8 102.34 160.284 102.877C160.768 103.411 160.724 104.235 160.185 104.718C159.936 104.942 159.622 105.051 159.311 105.051C158.952 105.051 158.597 104.905 158.338 104.619ZM48.0767 103.954C47.4671 103.57 47.2866 102.765 47.6738 102.154C48.061 101.547 48.8695 101.367 49.4792 101.753C50.0888 102.139 50.2693 102.944 49.8821 103.552C49.6335 103.943 49.2097 104.157 48.778 104.157C48.5372 104.157 48.2939 104.092 48.0767 103.954ZM18.1155 103.051C17.6079 102.538 17.6131 101.714 18.1286 101.208C18.644 100.702 19.4708 100.71 19.9784 101.221C20.486 101.735 20.4782 102.561 19.9654 103.064C19.7089 103.315 19.3793 103.44 19.047 103.44C18.7068 103.44 18.3693 103.31 18.1155 103.051ZM112.793 103.158C112.094 102.978 111.673 102.267 111.853 101.57C112.031 100.871 112.745 100.454 113.444 100.632C114.145 100.811 114.567 101.521 114.386 102.22C114.234 102.809 113.703 103.2 113.12 103.2C113.012 103.2 112.902 103.184 112.793 103.158ZM108.74 102.118C108.038 101.938 107.617 101.229 107.798 100.532C107.978 99.8336 108.69 99.4138 109.391 99.5937C110.09 99.771 110.511 100.483 110.333 101.182C110.181 101.768 109.648 102.16 109.067 102.16C108.957 102.16 108.85 102.147 108.74 102.118ZM155.486 101.729C154.954 101.242 154.926 100.415 155.418 99.8883C155.907 99.359 156.736 99.3303 157.265 99.8205C157.796 100.308 157.825 101.135 157.335 101.662C157.076 101.938 156.726 102.079 156.375 102.079C156.056 102.079 155.737 101.964 155.486 101.729ZM44.5419 101.719C43.9323 101.336 43.7517 100.527 44.139 99.9196C44.5262 99.3121 45.3347 99.1321 45.9443 99.5181C46.554 99.904 46.7345 100.71 46.3473 101.317C46.0987 101.708 45.6748 101.922 45.2405 101.922C45.0024 101.922 44.7591 101.857 44.5419 101.719ZM104.684 101.08C103.986 100.9 103.564 100.191 103.742 99.492C103.923 98.7958 104.637 98.3759 105.336 98.5558C106.037 98.7332 106.458 99.4451 106.278 100.141C106.126 100.731 105.595 101.122 105.011 101.122C104.904 101.122 104.794 101.109 104.684 101.08ZM15.172 100.076C14.667 99.5624 14.6722 98.7384 15.1877 98.2325C15.7031 97.7266 16.5299 97.7318 17.0375 98.2455C17.5425 98.7592 17.5373 99.5859 17.0244 100.089C16.768 100.339 16.4357 100.465 16.1034 100.465C15.7659 100.465 15.4284 100.334 15.172 100.076ZM100.631 100.042C99.93 99.8623 99.5088 99.1504 99.6893 98.4542C99.8698 97.7553 100.582 97.3381 101.283 97.5154C101.981 97.6953 102.403 98.4046 102.222 99.1034C102.07 99.6928 101.539 100.084 100.956 100.084C100.848 100.084 100.739 100.068 100.631 100.042ZM41.007 99.4868C40.3974 99.1008 40.2169 98.2925 40.6041 97.6849C40.9887 97.0773 41.7972 96.8974 42.4095 97.2833C43.0191 97.6693 43.1996 98.475 42.8124 99.0826C42.5638 99.4737 42.14 99.6876 41.7056 99.6876C41.4675 99.6876 41.2242 99.6224 41.007 99.4868ZM152.382 99.1113C151.809 98.6706 151.705 97.8518 152.147 97.2833C152.589 96.7123 153.411 96.6079 153.981 97.0486C154.554 97.4867 154.659 98.3055 154.217 98.8766C153.96 99.2078 153.573 99.3825 153.18 99.3825C152.903 99.3825 152.621 99.2938 152.382 99.1113ZM96.5757 99.0018C95.8771 98.8218 95.4532 98.1125 95.6338 97.4163C95.8143 96.7175 96.5286 96.2976 97.2272 96.4776C97.9258 96.6575 98.3497 97.3668 98.1691 98.0656C98.0174 98.6523 97.4862 99.0435 96.9028 99.0435C96.7955 99.0435 96.6856 99.0304 96.5757 99.0018ZM92.5202 97.9639C91.8216 97.784 91.4003 97.0747 91.5808 96.3759C91.7588 95.6796 92.4731 95.2598 93.1743 95.4397C93.8729 95.617 94.2941 96.3289 94.1136 97.0252C93.9618 97.6145 93.4307 98.0056 92.8472 98.0056C92.7399 98.0056 92.6301 97.9926 92.5202 97.9639ZM12.2311 97.1008C11.7261 96.5897 11.7313 95.7631 12.2468 95.2572C12.7596 94.7513 13.589 94.7591 14.0966 95.2702C14.6042 95.7839 14.5964 96.6106 14.0809 97.1138C13.8271 97.3642 13.4948 97.4893 13.1651 97.4893C12.825 97.4893 12.4875 97.3616 12.2311 97.1008ZM37.4722 97.2494C36.8625 96.8661 36.682 96.0577 37.0666 95.4502C37.4539 94.8426 38.2623 94.6627 38.872 95.0486C39.4842 95.4345 39.6648 96.2403 39.2775 96.8478C39.029 97.239 38.6051 97.4528 38.1708 97.4528C37.9327 97.4528 37.6893 97.3876 37.4722 97.2494ZM149.054 96.7827C148.447 96.3967 148.267 95.591 148.654 94.9834C149.041 94.3758 149.852 94.1959 150.459 94.5844C151.072 94.9704 151.25 95.7761 150.862 96.3837C150.611 96.7748 150.19 96.9887 149.756 96.9887C149.517 96.9887 149.274 96.9209 149.054 96.7827ZM88.4672 96.9261C87.766 96.7461 87.3448 96.0343 87.5253 95.338C87.7058 94.6418 88.4175 94.2194 89.1187 94.3993C89.8173 94.5792 90.2386 95.2911 90.0607 95.9873C89.9089 96.5767 89.3752 96.9678 88.7917 96.9678C88.6844 96.9678 88.5745 96.9548 88.4672 96.9261ZM84.4117 95.8856C83.7131 95.7083 83.2919 94.9964 83.4698 94.3002C83.6503 93.6014 84.3646 93.1815 85.0632 93.3614C85.7618 93.5414 86.1857 94.2506 86.0051 94.9495C85.8534 95.5362 85.3222 95.9274 84.7388 95.9274C84.6315 95.9274 84.5216 95.9143 84.4117 95.8856ZM33.9373 95.0147C33.3277 94.6288 33.1471 93.8256 33.5318 93.2154C33.919 92.6078 34.7275 92.4279 35.3397 92.8138C35.9494 93.1998 36.1299 94.0055 35.7427 94.6131C35.4941 95.0043 35.0703 95.2181 34.6359 95.2181C34.3978 95.2181 34.1545 95.1529 33.9373 95.0147ZM145.53 94.7644C144.889 94.4358 144.638 93.6483 144.967 93.0094C145.3 92.3705 146.087 92.1176 146.731 92.4488C147.372 92.7773 147.626 93.5648 147.293 94.2037C147.061 94.6522 146.603 94.9104 146.129 94.9104C145.928 94.9104 145.724 94.8634 145.53 94.7644ZM80.3562 94.8478C79.6576 94.6679 79.2363 93.9586 79.4169 93.2597C79.5948 92.5635 80.3091 92.1437 81.0077 92.3236C81.7089 92.5009 82.1301 93.2128 81.9496 93.9091C81.7979 94.4984 81.2667 94.8895 80.6832 94.8895C80.576 94.8895 80.4661 94.8765 80.3562 94.8478ZM9.29015 94.1255C8.78255 93.6144 8.78778 92.7878 9.30323 92.2819C9.81867 91.7786 10.6455 91.7838 11.1531 92.2949C11.6607 92.8086 11.6554 93.6352 11.14 94.1411C10.8862 94.3915 10.5539 94.514 10.2216 94.514C9.88409 94.514 9.54656 94.3862 9.29015 94.1255ZM76.3033 93.81C75.602 93.63 75.1808 92.9182 75.3613 92.2219C75.5419 91.5257 76.2535 91.1032 76.9548 91.2832C77.6534 91.4631 78.0746 92.175 77.8967 92.8712C77.7449 93.4605 77.2112 93.8517 76.6303 93.8517C76.5204 93.8517 76.4105 93.8386 76.3033 93.81ZM141.838 93.0746C141.168 92.8034 140.846 92.0446 141.116 91.377C141.388 90.7095 142.152 90.3887 142.822 90.6573C143.489 90.9285 143.813 91.69 143.541 92.3575C143.335 92.8634 142.845 93.1711 142.33 93.1711C142.165 93.1711 142 93.1398 141.838 93.0746ZM30.4025 92.7799C29.7902 92.394 29.6097 91.5909 29.9969 90.9807C30.3842 90.3731 31.1926 90.1932 31.8023 90.5791C32.4145 90.965 32.5951 91.7708 32.2078 92.3784C31.9567 92.7695 31.5354 92.9833 31.1011 92.9833C30.8604 92.9833 30.6196 92.9181 30.4025 92.7799ZM138.008 91.7265C137.317 91.5152 136.924 90.7877 137.134 90.0993C137.343 89.4109 138.073 89.0197 138.766 89.231C139.457 89.4396 139.847 90.1671 139.638 90.8555C139.468 91.4188 138.947 91.7812 138.387 91.7812C138.261 91.7812 138.133 91.763 138.008 91.7265ZM6.34661 91.1502C5.83902 90.6391 5.84425 89.8125 6.3597 89.3066C6.87514 88.8007 7.70195 88.8085 8.20954 89.3196C8.71714 89.8333 8.71191 90.6599 8.19646 91.1632C7.94266 91.4135 7.61037 91.5387 7.27808 91.5387C6.94055 91.5387 6.60303 91.4109 6.34661 91.1502ZM73.9772 90.9129C73.3152 90.6234 73.0144 89.8542 73.3048 89.1971C73.5952 88.5373 74.3671 88.2348 75.029 88.5269C75.691 88.8137 75.9919 89.583 75.7015 90.2427C75.4869 90.733 75.0055 91.0224 74.5031 91.0224C74.3278 91.0224 74.1473 90.9885 73.9772 90.9129ZM134.07 90.7277C133.361 90.5817 132.908 89.8907 133.052 89.1866C133.198 88.48 133.892 88.0288 134.598 88.1723C135.307 88.3183 135.763 89.0093 135.616 89.7134C135.488 90.3314 134.944 90.7538 134.334 90.7538C134.248 90.7538 134.159 90.746 134.07 90.7277ZM26.8676 90.5452C26.2554 90.1619 26.0748 89.3561 26.4621 88.7459C26.8493 88.1384 27.6578 87.9584 28.2674 88.3444C28.8771 88.7303 29.0576 89.5361 28.6704 90.1436C28.4218 90.5348 27.9979 90.7486 27.5662 90.7486C27.3255 90.7486 27.0848 90.6834 26.8676 90.5452ZM130.004 90.0367C129.289 89.9246 128.803 89.257 128.915 88.5478C129.028 87.8359 129.698 87.3482 130.412 87.463C131.126 87.5751 131.613 88.2427 131.5 88.9519C131.398 89.596 130.841 90.055 130.21 90.055C130.142 90.055 130.074 90.0471 130.004 90.0367ZM125.87 89.3874C125.155 89.2753 124.669 88.6077 124.781 87.8959C124.894 87.1866 125.564 86.6989 126.275 86.8137C126.99 86.9232 127.479 87.5934 127.364 88.3026C127.264 88.9467 126.707 89.4057 126.074 89.4057C126.006 89.4057 125.938 89.3979 125.87 89.3874ZM121.733 88.7381C121.019 88.626 120.532 87.9584 120.645 87.2465C120.757 86.5373 121.427 86.0496 122.141 86.1644C122.856 86.2739 123.342 86.9415 123.23 87.6533C123.128 88.2974 122.57 88.7538 121.937 88.7538C121.869 88.7538 121.801 88.7485 121.733 88.7381ZM3.40308 88.1775C2.89549 87.6638 2.90072 86.8372 3.41616 86.3313C3.92899 85.828 4.75841 85.8332 5.26601 86.3443C5.77361 86.858 5.76837 87.682 5.25293 88.1879C4.99651 88.4382 4.66422 88.5634 4.33455 88.5634C3.99702 88.5634 3.6595 88.4356 3.40308 88.1775ZM23.3301 88.3131C22.7205 87.9271 22.54 87.1214 22.9272 86.5138C23.3144 85.9036 24.1229 85.7237 24.7326 86.1096C25.3422 86.4956 25.5227 87.3013 25.1355 87.9089C24.8869 88.3 24.4631 88.5139 24.0314 88.5139C23.7906 88.5139 23.5473 88.4487 23.3301 88.3131ZM117.599 88.0888C116.885 87.9767 116.398 87.3091 116.511 86.5972C116.623 85.888 117.293 85.4003 118.007 85.5151C118.719 85.6246 119.208 86.2922 119.093 87.004C118.991 87.6481 118.436 88.1045 117.803 88.1045C117.735 88.1045 117.667 88.0992 117.599 88.0888ZM76.2614 87.4473C75.7695 86.9206 75.7983 86.094 76.3294 85.6037C76.8579 85.1161 77.6848 85.1448 78.1793 85.6715C78.6685 86.2009 78.6398 87.0249 78.1086 87.5151C77.8574 87.7498 77.5382 87.8646 77.219 87.8646C76.8684 87.8646 76.5178 87.7237 76.2614 87.4473ZM113.475 87.5125C112.759 87.4108 112.261 86.7511 112.361 86.0392C112.46 85.3273 113.122 84.8293 113.839 84.9284C114.553 85.0301 115.053 85.6872 114.951 86.4017C114.86 87.0536 114.3 87.523 113.659 87.523C113.598 87.523 113.536 87.5204 113.475 87.5125ZM109.328 86.931C108.614 86.8319 108.114 86.1748 108.214 85.4603C108.316 84.7484 108.978 84.2504 109.692 84.3495C110.406 84.4486 110.906 85.1083 110.807 85.8228C110.715 86.4747 110.155 86.9441 109.512 86.9441C109.451 86.9441 109.391 86.9415 109.328 86.931ZM105.184 86.3547C104.467 86.253 103.967 85.5959 104.069 84.8814C104.169 84.1695 104.831 83.6715 105.545 83.7706C106.262 83.8723 106.759 84.5294 106.66 85.2439C106.568 85.8958 106.008 86.3678 105.367 86.3678C105.307 86.3678 105.244 86.3626 105.184 86.3547ZM19.7953 86.0783C19.1856 85.6924 19.0051 84.8866 19.3924 84.2791C19.7796 83.6689 20.5881 83.489 21.1977 83.8749C21.8074 84.2608 21.9879 85.0666 21.6007 85.6741C21.3521 86.0653 20.9282 86.2791 20.4965 86.2791C20.2558 86.2791 20.0125 86.2139 19.7953 86.0783ZM101.037 85.7758C100.322 85.6741 99.8227 85.017 99.9222 84.3025C100.024 83.5907 100.684 83.0926 101.4 83.1917C102.115 83.2934 102.615 83.9505 102.515 84.665C102.424 85.3169 101.864 85.7889 101.22 85.7889C101.16 85.7889 101.1 85.7837 101.037 85.7758ZM0.456933 85.2022C-0.0532796 84.6911 -0.0480467 83.8644 0.467399 83.3586C0.980227 82.8527 1.80965 82.8579 2.31725 83.369C2.82484 83.8827 2.81961 84.7067 2.30678 85.2126C2.05036 85.4655 1.71807 85.5907 1.38578 85.5907C1.04826 85.5907 0.713347 85.4603 0.456933 85.2022ZM79.4797 84.7771C79.1552 84.133 79.4195 83.3481 80.0657 83.0274C80.712 82.7067 81.497 82.9674 81.8214 83.6141C82.1432 84.2582 81.879 85.0405 81.2327 85.3612C81.0443 85.4551 80.8455 85.4994 80.6518 85.4994C80.1704 85.4994 79.7073 85.2335 79.4797 84.7771ZM96.8923 85.197C96.1754 85.0979 95.6782 84.4381 95.7777 83.7236C95.8771 83.0118 96.5391 82.5137 97.2534 82.6128C97.9703 82.7145 98.47 83.3716 98.368 84.0861C98.2764 84.738 97.7165 85.2074 97.0754 85.2074C97.0153 85.2074 96.9525 85.2048 96.8923 85.197ZM92.7452 84.6181C92.0309 84.5164 91.5311 83.8592 91.6306 83.1447C91.7326 82.4329 92.392 81.9348 93.1089 82.0339C93.8232 82.1356 94.3229 82.7953 94.2235 83.5072C94.1319 84.1591 93.5694 84.6311 92.9283 84.6311C92.8681 84.6311 92.808 84.6259 92.7452 84.6181ZM83.3233 83.1187C83.1951 82.4094 83.6686 81.734 84.3803 81.6062C85.092 81.4811 85.7723 81.9531 85.8979 82.6623C86.0235 83.3716 85.5525 84.047 84.8382 84.1748C84.7623 84.1878 84.6838 84.1956 84.6079 84.1956C83.9852 84.1956 83.4358 83.7497 83.3233 83.1187ZM88.6373 84.0496C87.9178 83.9688 87.3997 83.3247 87.4808 82.6102C87.5593 81.8957 88.2056 81.3794 88.9251 81.4576C89.642 81.5358 90.1601 82.1825 90.079 82.897C90.0057 83.5646 89.4406 84.0574 88.7812 84.0574C88.7341 84.0574 88.6844 84.0548 88.6373 84.0496ZM16.2604 83.8436C15.6508 83.4577 15.4703 82.6519 15.8549 82.0443C16.2421 81.4341 17.0532 81.2542 17.6629 81.6401C18.2725 82.0261 18.453 82.8318 18.0658 83.4394C17.8172 83.8306 17.3934 84.0444 16.959 84.0444C16.7209 84.0444 16.4776 83.9792 16.2604 83.8436ZM0.375822 81.468C-0.110842 80.9361 -0.0715949 80.1095 0.464782 79.627C0.998543 79.142 1.82535 79.1811 2.31201 79.7131C2.79868 80.2477 2.75681 81.0717 2.22305 81.5541C1.97187 81.7836 1.65789 81.8957 1.34392 81.8957C0.988077 81.8957 0.634853 81.7497 0.375822 81.468ZM12.8015 81.721C12.1578 81.395 11.9014 80.6101 12.2284 79.9686C12.5555 79.3272 13.3431 79.069 13.9867 79.3976C14.633 79.7235 14.8894 80.5084 14.5623 81.1499C14.3295 81.601 13.8716 81.8618 13.3954 81.8618C13.1939 81.8618 12.9925 81.8175 12.8015 81.721ZM9.22212 80.558C8.50782 80.4406 8.02377 79.7731 8.1389 79.0612C8.25402 78.3519 8.92646 77.8669 9.64075 77.9842C10.3524 78.099 10.8391 78.7665 10.724 79.4784C10.6193 80.1173 10.062 80.5736 9.43144 80.5736C9.36341 80.5736 9.29276 80.5684 9.22212 80.558ZM3.96824 79.4393C3.86096 78.7274 4.35286 78.0625 5.06716 77.9556C5.78146 77.8486 6.44866 78.3389 6.55593 79.0534C6.66321 79.7653 6.17131 80.4276 5.45701 80.5345H5.4544C5.38898 80.5449 5.32357 80.5502 5.26078 80.5502C4.62497 80.5502 4.06505 80.086 3.96824 79.4393Z" fill="url(#paint0_linear_1233_7275)"/>
<path d="M58.3819 85.8932C57.8586 85.3952 57.8403 84.5712 58.34 84.0497C58.8372 83.5281 59.6666 83.5099 60.1899 84.0079C60.7105 84.506 60.7289 85.33 60.2317 85.8515C59.9727 86.1201 59.6299 86.2531 59.2846 86.2531C58.9601 86.2531 58.6357 86.1358 58.3819 85.8932ZM55.42 84.9336C54.9229 84.4121 54.9412 83.5855 55.4671 83.09C55.9904 82.592 56.8172 82.6129 57.3144 83.1344C57.8141 83.6559 57.7932 84.4825 57.2699 84.978C57.0161 85.2179 56.6916 85.3378 56.3672 85.3378C56.0218 85.3378 55.6765 85.2022 55.42 84.9336ZM61.2862 82.8606C60.7655 82.3651 60.7446 81.5385 61.2443 81.017C61.7441 80.4955 62.5709 80.4772 63.0942 80.9753C63.6175 81.4733 63.6358 82.2973 63.136 82.8189C62.8796 83.0874 62.5342 83.223 62.1915 83.223C61.867 83.223 61.54 83.1031 61.2862 82.8606ZM52.5236 81.8984H52.521C52.0239 81.3768 52.0448 80.5528 52.5681 80.0548C53.0914 79.5593 53.9182 79.5802 54.4179 80.1017C54.9151 80.6232 54.8941 81.4472 54.3708 81.9453C54.1197 82.1852 53.7952 82.3025 53.4708 82.3025C53.1254 82.3025 52.78 82.1669 52.5236 81.8984ZM64.1878 79.8331C63.6645 79.3351 63.6436 78.511 64.1434 77.9895C64.6405 77.468 65.4699 77.4497 65.9932 77.9478C66.5165 78.4432 66.5348 79.2699 66.0377 79.7914C65.7813 80.06 65.4385 80.193 65.0931 80.193C64.7687 80.193 64.4416 80.0756 64.1905 79.8331H64.1878ZM49.6272 78.8683C49.13 78.3468 49.151 77.5228 49.6743 77.0247C50.1976 76.5293 51.0244 76.5501 51.5241 77.0716C52.0212 77.5906 52.0003 78.4172 51.477 78.9126C51.2232 79.1525 50.8988 79.2725 50.5743 79.2725C50.229 79.2725 49.8836 79.1369 49.6272 78.8683ZM67.0843 76.8057C66.561 76.3102 66.5427 75.4836 67.0398 74.9621C67.5395 74.4405 68.3663 74.4223 68.8896 74.9177C69.4129 75.4158 69.4339 76.2398 68.9341 76.7613C68.6777 77.0299 68.3323 77.1655 67.987 77.1655C67.6625 77.1655 67.3381 77.0456 67.0843 76.8057ZM46.7333 75.8382C46.2336 75.3167 46.2545 74.4901 46.7778 73.9946C47.3011 73.4992 48.1279 73.52 48.6277 74.039C49.1248 74.5631 49.1039 75.3871 48.5806 75.8826C48.3294 76.1225 48.0023 76.2424 47.6805 76.2424C47.3325 76.2424 46.9871 76.1068 46.7307 75.8382H46.7333ZM69.9807 73.7782C69.4574 73.2801 69.4365 72.4561 69.9362 71.9346C70.4334 71.4131 71.2628 71.3922 71.7861 71.8903C72.3094 72.3857 72.3303 73.2123 71.8306 73.7339C71.5741 74.0025 71.2288 74.138 70.8834 74.138C70.5589 74.138 70.2345 74.0181 69.9807 73.7782ZM43.8395 72.8082C43.3398 72.2866 43.3607 71.46 43.884 70.9646C44.4073 70.4691 45.2341 70.4874 45.7339 71.0089C46.231 71.533 46.2101 72.357 45.6868 72.8551C45.433 73.095 45.1085 73.2123 44.7867 73.2123C44.4413 73.2123 44.0933 73.0767 43.8369 72.8082H43.8395ZM72.8772 70.7481C72.3539 70.2501 72.3329 69.4261 72.83 68.9045C73.3272 68.383 74.1566 68.3621 74.6799 68.8602C75.2032 69.3557 75.2241 70.1823 74.727 70.7012C74.468 70.9724 74.1226 71.108 73.7772 71.108C73.4528 71.108 73.1283 70.988 72.8772 70.7481ZM40.9457 69.7781C40.4486 69.2566 40.4695 68.4299 40.9928 67.9345C41.5161 67.439 42.3429 67.4573 42.8427 67.9788C43.3398 68.503 43.3189 69.327 42.7956 69.8224C42.5418 70.0649 42.2173 70.1823 41.8955 70.1823C41.5501 70.1823 41.2047 70.0467 40.9457 69.7781ZM75.7683 67.7181C75.2477 67.2226 75.2241 66.396 75.7239 65.8745C76.221 65.3529 77.0478 65.3321 77.5737 65.8275C78.097 66.3256 78.1179 67.1496 77.6208 67.6711C77.3644 67.9423 77.019 68.0779 76.6737 68.0779C76.3492 68.0779 76.0248 67.958 75.771 67.7181H75.7683ZM38.0519 66.748C37.5548 66.2265 37.5757 65.3999 38.099 64.9044C38.6223 64.409 39.4491 64.4272 39.9488 64.9488C40.446 65.4729 40.425 66.2969 39.9017 66.7924C39.6506 67.0322 39.3261 67.1522 39.0017 67.1522C38.6563 67.1522 38.3109 67.0166 38.0519 66.748ZM78.6622 64.6854C78.1389 64.1899 78.1179 63.3633 78.6151 62.8418C79.1122 62.3203 79.9416 62.2994 80.4649 62.7948C80.9882 63.2903 81.0091 64.1169 80.512 64.6384C80.2556 64.907 79.9102 65.0452 79.5622 65.0452C79.2404 65.0452 78.916 64.9253 78.6622 64.6854ZM35.1581 63.7179C34.6609 63.1964 34.6819 62.3698 35.2052 61.8744C35.7285 61.3789 36.5579 61.3972 37.055 61.9213C37.5521 62.4402 37.5312 63.2668 37.0079 63.7623C36.7567 64.0022 36.4323 64.1221 36.1079 64.1221C35.7625 64.1221 35.4171 63.9865 35.1581 63.7179ZM81.5534 61.6527C81.0275 61.1573 81.0065 60.3306 81.5037 59.8091C82.0008 59.285 82.8302 59.2641 83.3535 59.7596C83.8768 60.255 83.9003 61.0816 83.4032 61.6032C83.1442 61.8744 82.7988 62.01 82.4534 62.01C82.129 62.01 81.8072 61.8926 81.5534 61.6527ZM32.2643 60.6879C31.7671 60.1664 31.7881 59.3397 32.3113 58.8443C32.8346 58.3488 33.6614 58.3671 34.1612 58.8886C34.6583 59.4101 34.6374 60.2368 34.1141 60.7322C33.8629 60.9721 33.5359 61.0921 33.214 61.0921C32.866 61.0921 32.5233 60.9565 32.2643 60.6879ZM84.442 58.6174C83.916 58.122 83.8951 57.2954 84.3896 56.7738C84.8868 56.2497 85.7162 56.2288 86.2395 56.7243C86.7654 57.2171 86.7863 58.0437 86.2918 58.5653C86.0328 58.8365 85.6874 58.9747 85.342 58.9747C85.0176 58.9747 84.6958 58.8547 84.442 58.6174ZM29.3704 57.6578C28.8733 57.1363 28.8942 56.3097 29.4175 55.8142C29.9408 55.3162 30.7676 55.3396 31.2674 55.8585C31.7645 56.3801 31.7436 57.2067 31.2203 57.7021C30.9691 57.942 30.6447 58.062 30.3202 58.062C29.9748 58.062 29.6295 57.9264 29.3704 57.6578ZM87.3279 55.5769C86.802 55.0841 86.7785 54.2575 87.273 53.7359C87.7701 53.2118 88.5969 53.1883 89.1228 53.6812C89.6487 54.1766 89.6723 55.0006 89.1778 55.5248C88.9187 55.796 88.5734 55.9342 88.2254 55.9342C87.9035 55.9342 87.5791 55.8168 87.3279 55.5769ZM26.4766 54.6277C25.9795 54.1062 26.0004 53.2796 26.5237 52.7841C27.047 52.2861 27.8738 52.307 28.3736 52.8285C28.8707 53.35 28.8498 54.1766 28.3265 54.6721C28.0727 54.912 27.7482 55.0319 27.4264 55.0319C27.0784 55.0319 26.7356 54.8963 26.4766 54.6277ZM90.2087 52.5338C89.6828 52.041 89.6566 51.217 90.1537 50.6928C90.6482 50.1661 91.475 50.1426 92.001 50.6355C92.5295 51.1283 92.553 51.9549 92.0585 52.4791C91.7995 52.7503 91.4541 52.8885 91.1061 52.8885C90.7843 52.8885 90.4625 52.7711 90.2087 52.5338ZM23.5802 51.5925C23.083 51.0709 23.1014 50.2469 23.6273 49.7489C24.1506 49.2534 24.9774 49.2743 25.4745 49.7958C25.9743 50.3173 25.9533 51.1413 25.43 51.6394C25.1762 51.8793 24.8518 51.9993 24.5273 51.9993C24.182 51.9993 23.8366 51.8637 23.5802 51.5925ZM93.0842 49.4855C92.5556 48.9926 92.5295 48.1686 93.0214 47.6419C93.5133 47.1152 94.3427 47.0891 94.8686 47.5793C95.3971 48.0695 95.4259 48.8962 94.934 49.4229C94.675 49.6967 94.327 49.8349 93.9764 49.8349C93.6572 49.8349 93.3354 49.7202 93.0842 49.4855ZM20.668 48.5102C20.1866 47.9705 20.2337 47.1465 20.7727 46.6693C21.3117 46.1894 22.1385 46.2364 22.6199 46.7736C23.1014 47.3107 23.0543 48.1347 22.5153 48.6145C22.2641 48.8362 21.9553 48.9457 21.644 48.9457C21.2855 48.9457 20.9271 48.7971 20.668 48.5102ZM95.9544 46.4189C95.4181 45.9365 95.3788 45.1099 95.8629 44.5779C96.3469 44.0434 97.1737 44.0016 97.7101 44.4841C98.2465 44.9691 98.2857 45.7931 97.8017 46.3277C97.5426 46.6119 97.1894 46.7553 96.831 46.7553C96.5196 46.7553 96.2056 46.6458 95.9544 46.4189ZM17.9417 45.2038C17.5047 44.6301 17.6172 43.8113 18.1929 43.3758C18.7685 42.9403 19.5874 43.0525 20.0244 43.6261C20.4613 44.1998 20.3488 45.0186 19.7732 45.4541C19.5377 45.6314 19.2604 45.7175 18.983 45.7175C18.5879 45.7175 18.1981 45.5401 17.9417 45.2038ZM98.6913 43.2533C98.0842 42.8621 97.9116 42.0537 98.3014 41.4514C98.6939 40.8438 99.505 40.6717 100.112 41.0628C100.719 41.4514 100.892 42.2597 100.499 42.8647C100.251 43.2506 99.8294 43.4619 99.4003 43.4619C99.157 43.4619 98.911 43.3941 98.6913 43.2533ZM15.4848 41.6861C15.0976 41.0759 15.2807 40.2701 15.8904 39.8868C16.5 39.5009 17.3085 39.6834 17.6957 40.291C18.083 40.8986 17.8998 41.7043 17.2902 42.0903C17.073 42.2258 16.8297 42.291 16.5916 42.291C16.1572 42.291 15.7334 42.0772 15.4848 41.6861ZM100.858 39.6808C100.198 39.3861 99.9053 38.6143 100.201 37.9572C100.499 37.3 101.271 37.008 101.93 37.3026C102.59 37.5973 102.883 38.3692 102.587 39.0263C102.37 39.5087 101.894 39.7955 101.394 39.7955C101.214 39.7955 101.033 39.759 100.858 39.6808ZM13.3602 37.9285C13.041 37.2818 13.3053 36.5021 13.9542 36.184C14.6031 35.8658 15.388 36.1318 15.7072 36.7759C16.0264 37.4226 15.7595 38.2049 15.1107 38.523C14.9249 38.6143 14.7286 38.656 14.535 38.656C14.051 38.656 13.5879 38.39 13.3602 37.9285ZM102.472 35.8293C101.776 35.6338 101.373 34.914 101.569 34.2204C101.768 33.5268 102.49 33.1252 103.186 33.3208C103.88 33.519 104.285 34.2387 104.086 34.9323C103.924 35.506 103.401 35.8789 102.828 35.8789C102.71 35.8789 102.59 35.8632 102.472 35.8293ZM11.6988 33.8945C11.479 33.2087 11.8558 32.4733 12.5439 32.2543C13.2294 32.03 13.9673 32.4081 14.1897 33.0939C14.4121 33.7771 14.0353 34.5125 13.3472 34.7341C13.2137 34.7785 13.0777 34.7967 12.9442 34.7967C12.3921 34.7967 11.8793 34.4447 11.6988 33.8945ZM103.5 31.7849C102.781 31.7014 102.268 31.0548 102.349 30.3403C102.433 29.6232 103.082 29.1095 103.801 29.1929C104.518 29.2764 105.034 29.923 104.95 30.6401C104.871 31.3025 104.306 31.7927 103.652 31.7927C103.6 31.7927 103.55 31.7901 103.5 31.7849ZM10.7568 29.558C10.6836 28.8409 11.2069 28.202 11.9264 28.129C12.6459 28.0534 13.287 28.5775 13.3602 29.292C13.4335 30.0091 12.9102 30.648 12.1933 30.7236C12.1462 30.7262 12.1017 30.7288 12.0598 30.7288C11.3953 30.7288 10.8275 30.2281 10.7568 29.558ZM102.496 27.8578C102.496 27.1381 103.082 26.554 103.806 26.554C104.529 26.554 105.115 27.1381 105.115 27.8578C105.115 28.5775 104.529 29.1616 103.806 29.1616C103.082 29.1616 102.496 28.5775 102.496 27.8578ZM11.9761 26.5592C11.2566 26.494 10.7254 25.8604 10.7935 25.1433C10.8589 24.4262 11.4947 23.8968 12.2142 23.962C12.9337 24.0272 13.4623 24.6608 13.3969 25.3779C13.3367 26.0559 12.7663 26.5644 12.0965 26.5644C12.0572 26.5644 12.0154 26.5618 11.9761 26.5592ZM102.203 23.8942C102.095 23.1823 102.587 22.52 103.301 22.4131C104.016 22.3061 104.683 22.7964 104.79 23.5083C104.898 24.2201 104.406 24.8825 103.691 24.992C103.623 24.9998 103.561 25.005 103.495 25.005C102.859 25.005 102.299 24.5409 102.203 23.8942ZM12.4732 22.4157C11.7694 22.2436 11.3429 21.5369 11.5156 20.8381C11.6883 20.1392 12.3974 19.7116 13.0986 19.8837C13.7998 20.0584 14.2289 20.7624 14.0562 21.4613C13.9071 22.0558 13.3733 22.4548 12.7872 22.4548C12.6826 22.4548 12.5779 22.4417 12.4732 22.4157ZM101.31 20.0297C101.093 19.3439 101.478 18.6111 102.169 18.3973C102.857 18.1809 103.592 18.5642 103.806 19.25C104.024 19.9384 103.639 20.6686 102.951 20.885C102.82 20.9241 102.687 20.945 102.558 20.945C102.001 20.945 101.486 20.5877 101.31 20.0297ZM13.5905 18.3973C12.9233 18.1183 12.6119 17.3516 12.8919 16.6893C13.1718 16.0244 13.9385 15.7141 14.6057 15.9931C15.2703 16.2721 15.5842 17.0361 15.3043 17.7011C15.0923 18.1991 14.6083 18.499 14.0981 18.499C13.928 18.499 13.7553 18.4651 13.5905 18.3973ZM57.9162 18.3347C57.4635 18.1496 57.1731 17.7376 57.1181 17.2865C56.532 17.4612 55.8832 17.2056 55.5875 16.6476C55.25 16.0113 55.4907 15.2212 56.1317 14.8848C56.7675 14.5484 57.5603 14.7883 57.8978 15.4272C57.9763 15.5732 58.0234 15.7271 58.0417 15.8809C58.3191 15.8001 58.6278 15.8079 58.9156 15.9253C59.5855 16.2017 59.9021 16.9631 59.6247 17.6307C59.4154 18.1313 58.9287 18.4364 58.4159 18.4364C58.2484 18.4364 58.081 18.4025 57.9162 18.3347ZM99.8268 16.3581C99.5024 15.7141 99.7666 14.9318 100.413 14.6084C101.059 14.2877 101.844 14.5484 102.166 15.1925C102.49 15.8366 102.226 16.6215 101.58 16.9422C101.394 17.0361 101.195 17.0805 100.999 17.0805C100.518 17.0805 100.054 16.8145 99.8268 16.3581ZM15.3278 14.6006C14.7156 14.2173 14.5298 13.4141 14.9144 12.8039C15.299 12.1938 16.1049 12.0086 16.7172 12.3919C17.3294 12.7726 17.5152 13.5784 17.1306 14.1886C16.882 14.5823 16.4581 14.7988 16.0212 14.7988C15.7831 14.7988 15.545 14.7362 15.3278 14.6006ZM59.6221 14.5276C59.0046 14.1547 58.8031 13.3541 59.1773 12.7361C59.5488 12.1207 60.3521 11.9226 60.9722 12.2928C61.5897 12.6631 61.7885 13.4663 61.417 14.0817C61.171 14.4885 60.7393 14.7127 60.2945 14.7127C60.0669 14.7127 59.834 14.6527 59.6221 14.5276ZM53.4577 13.2837C53.0286 12.7048 53.1516 11.8887 53.7324 11.461C54.3133 11.0334 55.1348 11.1559 55.5639 11.7348H55.5613C55.993 12.3137 55.8701 13.1299 55.2892 13.5575C55.0537 13.7296 54.7816 13.8131 54.5121 13.8131C54.1118 13.8131 53.7167 13.6306 53.4577 13.2837ZM97.7703 12.9734C97.3464 12.3919 97.4772 11.5757 98.0633 11.1533C98.6494 10.7309 99.4658 10.8613 99.8896 11.4454C100.313 12.0295 100.183 12.8431 99.5966 13.2655C99.3663 13.4324 99.0968 13.5132 98.8326 13.5132C98.427 13.5132 98.0267 13.3281 97.7703 12.9734ZM17.6591 11.1377C17.1201 10.6579 17.0704 9.83385 17.5518 9.29667C18.0306 8.75689 18.8574 8.70996 19.3991 9.18976C19.938 9.66696 19.9878 10.491 19.5063 11.0307C19.2473 11.3176 18.8888 11.4662 18.5278 11.4662C18.219 11.4662 17.9103 11.3567 17.6591 11.1377ZM61.8827 11.0151C61.3307 10.5536 61.26 9.72954 61.7231 9.17933C62.1889 8.62912 63.0157 8.5561 63.5677 9.02026C64.1198 9.48442 64.1905 10.3084 63.7247 10.8586C63.4683 11.1637 63.0968 11.3228 62.7252 11.3228C62.427 11.3228 62.1287 11.2211 61.8827 11.0151ZM50.8595 10.2563C50.3519 9.74519 50.3545 8.91857 50.87 8.41268C51.3828 7.9068 52.2122 7.91202 52.7198 8.42572C53.2274 8.93682 53.2222 9.76344 52.7094 10.2693C52.453 10.5197 52.1207 10.6448 51.7884 10.6448C51.4508 10.6448 51.1133 10.5144 50.8595 10.2563ZM95.1878 9.97987C94.6724 9.4766 94.6645 8.64998 95.1721 8.13628C95.6771 7.62257 96.5065 7.61475 97.022 8.12063C97.5374 8.6239 97.5453 9.45052 97.0377 9.96423C96.7812 10.2224 96.4437 10.3528 96.1036 10.3528C95.7739 10.3528 95.4416 10.2302 95.1878 9.97987ZM20.5398 8.1102C20.0898 7.54695 20.184 6.72555 20.7492 6.27703C21.3143 5.83113 22.1385 5.925 22.5885 6.48825C23.036 7.0515 22.9418 7.8703 22.3766 8.31881C22.1359 8.50917 21.8507 8.60304 21.5629 8.60304C21.1783 8.60304 20.7989 8.43355 20.5398 8.1102ZM64.6745 7.90941C64.2088 7.3592 64.2794 6.53519 64.8315 6.07103C65.3862 5.60948 66.2104 5.67728 66.6761 6.2301C67.1418 6.78031 67.0712 7.60171 66.5191 8.06587C66.2732 8.27187 65.9749 8.37357 65.6766 8.37357C65.3051 8.37357 64.9335 8.21451 64.6745 7.90941ZM47.8558 7.63561C47.2776 7.20274 47.1625 6.38656 47.5968 5.81027C48.0311 5.23398 48.8501 5.11925 49.4283 5.55211C50.0039 5.98498 50.1217 6.80378 49.6873 7.38006C49.4309 7.71905 49.0385 7.89898 48.6408 7.89898C48.366 7.89898 48.0913 7.81293 47.8558 7.63561ZM92.1396 7.46872C91.5457 7.05932 91.3965 6.24574 91.8073 5.65381C92.2181 5.06188 93.0345 4.91324 93.6284 5.32264C94.2223 5.73204 94.3715 6.54562 93.9607 7.13755C93.7069 7.50262 93.2987 7.7008 92.8827 7.7008C92.6263 7.7008 92.3673 7.62518 92.1396 7.46872ZM23.8994 5.61991C23.554 4.98886 23.7921 4.19614 24.4253 3.85454H24.4279C25.0611 3.51034 25.8565 3.74763 26.1993 4.37868C26.5446 5.01233 26.3092 5.80245 25.6734 6.14665C25.4745 6.25357 25.2626 6.30311 25.0506 6.30311C24.5849 6.30311 24.1349 6.05799 23.8994 5.61991ZM67.966 5.33046C67.6102 4.70202 67.8352 3.9067 68.4632 3.55467C69.0937 3.20264 69.8918 3.42429 70.245 4.05272C70.6008 4.67856 70.3758 5.47388 69.7478 5.82591C69.5438 5.94065 69.324 5.99541 69.1068 5.99541C68.6489 5.99541 68.2067 5.75551 67.966 5.33046ZM44.5041 5.513C43.8657 5.17922 43.6171 4.39172 43.952 3.75285C44.2869 3.11658 45.0797 2.87147 45.7182 3.20524C46.3592 3.53902 46.6051 4.32653 46.2702 4.9654C46.0374 5.40869 45.5821 5.66424 45.1085 5.66424C44.9044 5.66424 44.6977 5.6147 44.5041 5.513ZM88.7068 5.51821C88.0527 5.21573 87.7649 4.44126 88.0658 3.78675C88.3693 3.13484 89.1464 2.848 89.8031 3.14788C90.4598 3.45036 90.745 4.22483 90.4441 4.87934C90.2217 5.35654 89.7482 5.63816 89.2537 5.63816C89.0705 5.63816 88.8847 5.59905 88.7068 5.51821ZM27.6462 3.75545C27.4185 3.07226 27.7901 2.3343 28.4756 2.10743C29.1611 1.88057 29.9016 2.25085 30.1292 2.93405C30.3568 3.61725 29.9853 4.35521 29.2998 4.58207C29.1637 4.62901 29.0251 4.64987 28.8864 4.64987C28.3395 4.64987 27.8293 4.30306 27.6462 3.75545ZM71.6867 3.42168C71.4695 2.73587 71.8489 2.00052 72.537 1.78148C73.2251 1.56244 73.9604 1.94315 74.1801 2.62896C74.3999 3.31476 74.0179 4.04751 73.3298 4.26655C73.1964 4.30827 73.0629 4.32913 72.9321 4.32913C72.3774 4.32913 71.862 3.9745 71.684 3.42168H71.6867ZM84.9888 4.18571H84.9862C84.2876 4.00318 83.8716 3.28869 84.0573 2.59245C84.2405 1.89621 84.9574 1.4816 85.656 1.66413C86.3546 1.84928 86.7706 2.56377 86.5875 3.26C86.4305 3.84411 85.9019 4.23004 85.3237 4.23004C85.2112 4.23004 85.0987 4.21701 84.9888 4.18571ZM40.8724 4.03447C40.1791 3.83108 39.784 3.10615 39.9855 2.41513C40.1895 1.72411 40.9169 1.32775 41.6103 1.53114C42.3037 1.73454 42.7014 2.45946 42.4973 3.15048C42.3298 3.71895 41.8091 4.08662 41.244 4.08662C41.121 4.08662 40.9954 4.07098 40.8724 4.03447ZM31.6598 2.5742C31.5526 1.85971 32.0445 1.19737 32.7588 1.09045C33.4731 0.983542 34.1403 1.47378 34.2475 2.18827C34.3522 2.90015 33.8603 3.56249 33.146 3.6694C33.0806 3.67983 33.0152 3.68505 32.9524 3.68505C32.314 3.68505 31.7567 3.22089 31.6598 2.5742ZM81.0876 3.50512C80.3681 3.43993 79.837 2.80628 79.9024 2.08918C79.9678 1.37208 80.6036 0.84273 81.3231 0.90792C82.0427 0.973111 82.5738 1.60677 82.5084 2.32386C82.4482 3.00185 81.8752 3.51034 81.2054 3.51034C81.1661 3.51034 81.1269 3.50773 81.0876 3.50512ZM75.7239 2.31343C75.6558 1.59634 76.1844 0.960073 76.9039 0.892275C77.6234 0.824476 78.2592 1.34861 78.3299 2.06571C78.3979 2.78281 77.8694 3.41907 77.1498 3.48687C77.108 3.49208 77.0661 3.49469 77.0243 3.49469C76.3571 3.49469 75.7893 2.98881 75.7239 2.31343ZM37.0864 3.41125C36.3643 3.39039 35.7965 2.79063 35.8148 2.07092C35.8357 1.35122 36.4375 0.785362 37.1597 0.806223C37.8818 0.824476 38.4522 1.42423 38.4313 2.14394C38.4103 2.85321 37.8295 3.41125 37.1257 3.41125H37.0864Z" fill="url(#paint1_linear_1233_7275)"/>
<path d="M98.704 194.806C97.9819 194.801 97.3984 194.214 97.4036 193.495C97.4036 192.775 97.9949 192.194 98.7197 192.199C99.4419 192.201 100.025 192.788 100.023 193.508C100.017 194.225 99.434 194.806 98.7145 194.806H98.7066H98.704ZM101.59 193.484C101.561 192.765 102.124 192.16 102.846 192.131C103.568 192.105 104.175 192.666 104.201 193.385C104.227 194.105 103.665 194.71 102.943 194.736C102.927 194.739 102.911 194.739 102.896 194.739C102.194 194.739 101.614 194.188 101.587 193.484H101.59ZM94.4653 194.692C93.7432 194.658 93.1859 194.045 93.2199 193.325C93.2565 192.606 93.8688 192.053 94.5909 192.087C95.3131 192.123 95.8704 192.733 95.8337 193.453C95.7997 194.149 95.2215 194.694 94.5281 194.694C94.5072 194.694 94.4863 194.692 94.4653 194.692ZM105.771 193.291C105.711 192.574 106.25 191.946 106.969 191.888C107.689 191.828 108.32 192.363 108.377 193.083C108.437 193.8 107.901 194.428 107.181 194.488C107.145 194.491 107.108 194.491 107.074 194.491C106.399 194.491 105.826 193.975 105.771 193.291ZM90.2319 194.394C89.515 194.329 88.9838 193.693 89.0518 192.976C89.1172 192.259 89.7557 191.732 90.4726 191.797C91.1921 191.865 91.7233 192.499 91.6552 193.216C91.5951 193.891 91.0247 194.4 90.3548 194.4C90.3156 194.4 90.2737 194.397 90.2319 194.394ZM109.939 192.921C109.85 192.207 110.358 191.555 111.075 191.466C111.792 191.375 112.446 191.883 112.535 192.598C112.626 193.312 112.116 193.964 111.402 194.053C111.344 194.061 111.289 194.063 111.237 194.063C110.585 194.063 110.023 193.581 109.939 192.921ZM86.0193 193.915C85.3024 193.818 84.8027 193.158 84.8995 192.446C84.9989 191.732 85.6583 191.234 86.3726 191.33C87.0895 191.427 87.5892 192.087 87.4924 192.799C87.4035 193.453 86.8409 193.928 86.1973 193.928C86.1397 193.928 86.0795 193.922 86.0193 193.915ZM114.089 192.368C113.966 191.659 114.445 190.986 115.159 190.864C115.871 190.744 116.546 191.221 116.669 191.93C116.789 192.642 116.31 193.315 115.599 193.435C115.523 193.448 115.449 193.453 115.376 193.453C114.751 193.453 114.196 193.005 114.089 192.368ZM81.8304 193.25C81.1187 193.122 80.6477 192.444 80.7759 191.735C80.9068 191.025 81.587 190.556 82.2987 190.684C83.0078 190.814 83.4788 191.492 83.3505 192.201C83.2354 192.83 82.686 193.27 82.0659 193.27C81.9874 193.27 81.9089 193.265 81.8304 193.25ZM118.21 191.635C118.055 190.931 118.505 190.238 119.212 190.084C119.918 189.933 120.614 190.381 120.766 191.085C120.918 191.789 120.47 192.483 119.764 192.634C119.67 192.655 119.578 192.663 119.487 192.663C118.882 192.663 118.341 192.246 118.21 191.635ZM77.6728 192.402C76.969 192.243 76.5268 191.544 76.689 190.843C76.8486 190.141 77.5498 189.701 78.2537 189.86C78.9575 190.021 79.3997 190.718 79.2401 191.422C79.1014 192.027 78.5624 192.436 77.9632 192.436C77.869 192.436 77.7696 192.426 77.6728 192.402ZM122.292 190.72C122.108 190.024 122.527 189.312 123.226 189.127C123.924 188.944 124.641 189.362 124.824 190.058C125.007 190.754 124.589 191.469 123.89 191.651C123.778 191.68 123.668 191.693 123.558 191.693C122.977 191.693 122.446 191.307 122.292 190.72ZM73.5571 191.375H73.5597C72.8611 191.184 72.4529 190.465 72.6439 189.771C72.8349 189.077 73.5545 188.668 74.2505 188.858C74.9491 189.051 75.3572 189.768 75.1662 190.462C75.0066 191.041 74.4781 191.422 73.9051 191.422C73.7899 191.422 73.6722 191.406 73.5571 191.375ZM126.334 189.628C126.119 188.939 126.504 188.209 127.195 187.995C127.886 187.781 128.618 188.167 128.83 188.856C129.045 189.542 128.66 190.274 127.969 190.486C127.841 190.527 127.71 190.546 127.582 190.546C127.022 190.546 126.507 190.186 126.334 189.628ZM69.4911 190.165C68.8056 189.943 68.4262 189.208 68.6486 188.525C68.871 187.839 69.6088 187.463 70.297 187.682C70.9825 187.904 71.3619 188.639 71.1395 189.325C70.9615 189.875 70.4461 190.227 69.894 190.227C69.7606 190.227 69.6245 190.207 69.4911 190.165ZM130.316 188.36C130.073 187.682 130.426 186.934 131.106 186.691C131.787 186.446 132.535 186.798 132.778 187.476C133.024 188.154 132.671 188.903 131.991 189.145C131.844 189.197 131.695 189.223 131.549 189.223C131.012 189.223 130.51 188.892 130.316 188.36ZM65.4748 188.775C64.7971 188.525 64.4544 187.774 64.7056 187.098C64.9567 186.423 65.7103 186.079 66.388 186.332C67.0656 186.582 67.411 187.333 67.1572 188.008C66.961 188.532 66.4612 188.856 65.9301 188.856C65.7783 188.856 65.6266 188.83 65.4748 188.775ZM134.241 186.916C133.969 186.251 134.288 185.489 134.955 185.215C135.625 184.942 136.389 185.26 136.664 185.927C136.936 186.592 136.617 187.356 135.95 187.628C135.787 187.695 135.62 187.727 135.452 187.727C134.94 187.727 134.45 187.422 134.241 186.916ZM61.5239 187.21C60.8593 186.929 60.548 186.162 60.8306 185.5C61.1131 184.837 61.8798 184.527 62.5444 184.809C63.2089 185.088 63.5203 185.854 63.2403 186.517C63.0284 187.015 62.5444 187.312 62.0341 187.312C61.8641 187.312 61.6914 187.278 61.5239 187.21ZM138.1 185.302C137.797 184.65 138.082 183.873 138.739 183.573C139.393 183.27 140.173 183.554 140.473 184.206C140.777 184.861 140.492 185.635 139.838 185.938C139.66 186.021 139.471 186.06 139.288 186.058C138.794 186.058 138.32 185.779 138.1 185.302ZM57.6489 185.471C56.9974 185.161 56.7201 184.384 57.0314 183.734C57.3402 183.082 58.1225 182.809 58.774 183.119C59.4281 183.427 59.7029 184.206 59.3915 184.856C59.1691 185.325 58.7008 185.599 58.2115 185.599C58.0231 185.599 57.8321 185.557 57.6489 185.471ZM141.884 183.521C141.551 182.882 141.803 182.094 142.444 181.763C143.085 181.432 143.875 181.682 144.207 182.321C144.539 182.963 144.288 183.747 143.645 184.079C143.454 184.178 143.247 184.225 143.045 184.225C142.572 184.225 142.114 183.969 141.884 183.521ZM53.855 183.565C53.2166 183.228 52.9759 182.438 53.3134 181.802C53.6536 181.166 54.4464 180.926 55.0848 181.262C55.7206 181.601 55.9639 182.391 55.6238 183.028C55.3883 183.468 54.9356 183.719 54.4673 183.719C54.2606 183.719 54.0513 183.669 53.855 183.565ZM145.583 181.575C145.225 180.949 145.439 180.151 146.067 179.794C146.693 179.434 147.493 179.651 147.852 180.277C148.213 180.9 147.996 181.698 147.37 182.055C147.164 182.172 146.941 182.23 146.719 182.23C146.266 182.23 145.827 181.995 145.583 181.575ZM50.1501 181.497C49.5274 181.129 49.3207 180.331 49.687 179.711C50.0533 179.09 50.8566 178.884 51.4767 179.249C52.0968 179.617 52.3061 180.415 51.9372 181.035C51.6938 181.447 51.2569 181.677 50.8095 181.677C50.5845 181.677 50.3542 181.62 50.1475 181.497H50.1501ZM149.197 179.468C148.809 178.861 148.99 178.055 149.6 177.669C150.212 177.283 151.018 177.463 151.405 178.071C151.792 178.681 151.612 179.484 150.999 179.87C150.782 180.008 150.539 180.073 150.298 180.073C149.867 180.073 149.443 179.859 149.194 179.468H149.197ZM46.5394 179.268C45.935 178.874 45.7623 178.068 46.1574 177.463C46.5499 176.861 47.361 176.689 47.9654 177.082C48.5724 177.473 48.7425 178.282 48.35 178.884C48.0988 179.27 47.6802 179.479 47.2511 179.479C47.0077 179.479 46.7592 179.411 46.5394 179.268ZM152.711 177.205C152.3 176.616 152.444 175.802 153.038 175.39C153.629 174.978 154.445 175.124 154.859 175.713C155.272 176.305 155.126 177.116 154.534 177.531C154.304 177.687 154.045 177.763 153.786 177.763C153.373 177.763 152.964 177.567 152.711 177.205ZM43.0307 176.884C42.4446 176.464 42.3086 175.651 42.7272 175.064C43.1484 174.48 43.9648 174.344 44.5535 174.762C45.1396 175.181 45.2782 175.995 44.857 176.579C44.6006 176.936 44.2003 177.127 43.7921 177.127C43.5278 177.127 43.2636 177.048 43.0307 176.884ZM156.125 174.79C155.688 174.219 155.795 173.403 156.371 172.965C156.944 172.527 157.766 172.636 158.205 173.207C158.642 173.781 158.532 174.6 157.959 175.035C157.721 175.218 157.444 175.304 157.166 175.304C156.774 175.304 156.384 175.127 156.125 174.79ZM39.6319 174.35C39.0641 173.906 38.9621 173.087 39.4095 172.519C39.8543 171.953 40.6759 171.851 41.2463 172.295C41.814 172.741 41.9135 173.559 41.4687 174.125C41.2122 174.454 40.8276 174.626 40.4378 174.626C40.1552 174.626 39.8726 174.535 39.6319 174.35ZM159.43 172.232C158.967 171.679 159.04 170.858 159.595 170.396C160.149 169.932 160.973 170.008 161.439 170.561C161.902 171.113 161.829 171.935 161.274 172.396C161.031 172.6 160.733 172.699 160.437 172.699C160.063 172.699 159.691 172.54 159.432 172.232H159.43ZM36.3482 171.671C35.7988 171.202 35.736 170.381 36.2043 169.833C36.6753 169.285 37.4995 169.22 38.0489 169.69C38.5984 170.156 38.6638 170.98 38.1928 171.528C37.9338 171.828 37.5675 171.984 37.1986 171.984C36.8977 171.984 36.5942 171.88 36.3482 171.671ZM162.619 169.531C162.133 168.999 162.172 168.175 162.706 167.69C163.239 167.205 164.066 167.241 164.553 167.773C165.039 168.305 165.003 169.129 164.469 169.614C164.218 169.844 163.901 169.956 163.587 169.956C163.231 169.956 162.878 169.812 162.619 169.531ZM33.1849 168.853C32.6564 168.36 32.6276 167.536 33.1221 167.009C33.614 166.482 34.4434 166.454 34.972 166.946C35.4979 167.437 35.5267 168.263 35.0348 168.79C34.7757 169.064 34.4277 169.202 34.0771 169.202C33.7579 169.202 33.4387 169.087 33.1849 168.853ZM165.688 166.693C165.181 166.182 165.181 165.358 165.694 164.85C166.206 164.341 167.033 164.344 167.543 164.855C168.054 165.364 168.051 166.19 167.538 166.699C167.284 166.952 166.949 167.077 166.617 167.077C166.28 167.077 165.945 166.949 165.688 166.693ZM30.1472 165.898C29.6422 165.384 29.6501 164.56 30.1655 164.055C30.6809 163.551 31.5104 163.559 32.0153 164.073C32.5229 164.587 32.5151 165.413 31.9996 165.916C31.7432 166.167 31.4136 166.289 31.0839 166.289C30.7437 166.289 30.4036 166.159 30.1472 165.898ZM168.632 163.726C168.098 163.238 168.064 162.412 168.556 161.882C169.045 161.353 169.875 161.319 170.406 161.807C170.937 162.294 170.971 163.118 170.482 163.65C170.225 163.929 169.872 164.07 169.519 164.07C169.202 164.07 168.886 163.955 168.634 163.726H168.632ZM27.2455 162.819C26.7615 162.281 26.8059 161.46 27.3423 160.978C27.8787 160.495 28.7081 160.539 29.1896 161.074C29.6736 161.611 29.6291 162.435 29.0927 162.915C28.8416 163.139 28.5302 163.251 28.2188 163.251C27.8604 163.251 27.5019 163.105 27.2455 162.819ZM171.442 160.633C170.887 160.169 170.819 159.345 171.285 158.795C171.748 158.245 172.575 158.174 173.127 158.639C173.679 159.103 173.75 159.924 173.284 160.477C173.025 160.782 172.656 160.938 172.284 160.938C171.986 160.938 171.685 160.839 171.442 160.633ZM24.4799 159.614C24.0194 159.058 24.0979 158.237 24.6578 157.781C25.2151 157.322 26.0393 157.402 26.4972 157.958C26.9577 158.513 26.8792 159.335 26.3193 159.794C26.0759 159.992 25.7829 160.091 25.4899 160.091C25.1105 160.091 24.7363 159.929 24.4799 159.614ZM174.113 157.421C173.54 156.98 173.433 156.161 173.875 155.593C174.317 155.022 175.139 154.915 175.709 155.355C176.282 155.796 176.39 156.612 175.948 157.183C175.691 157.517 175.304 157.692 174.911 157.692C174.631 157.692 174.351 157.603 174.113 157.421ZM21.8556 156.294C21.4212 155.721 21.5364 154.902 22.1146 154.469C22.6902 154.036 23.5118 154.151 23.9461 154.727C24.3805 155.303 24.2654 156.12 23.6871 156.552C23.4516 156.73 23.1769 156.816 22.9022 156.816C22.5045 156.816 22.112 156.636 21.8556 156.294ZM176.641 154.096C176.05 153.681 175.908 152.868 176.324 152.279C176.74 151.689 177.557 151.548 178.148 151.96C178.739 152.378 178.881 153.189 178.465 153.778C178.211 154.14 177.805 154.333 177.394 154.333C177.133 154.333 176.871 154.255 176.641 154.096ZM19.3804 152.865C18.9722 152.271 19.124 151.46 19.7179 151.05C20.3145 150.644 21.1308 150.795 21.539 151.389C21.9472 151.981 21.7954 152.795 21.1988 153.202C20.9738 153.355 20.7148 153.431 20.461 153.431C20.045 153.431 19.6342 153.233 19.3804 152.865ZM179.022 150.662C178.415 150.273 178.237 149.467 178.627 148.86C179.017 148.255 179.825 148.078 180.432 148.466C181.042 148.855 181.22 149.66 180.83 150.265C180.581 150.657 180.157 150.868 179.726 150.868C179.485 150.868 179.242 150.803 179.022 150.662ZM17.0596 149.332C16.6776 148.719 16.8633 147.916 17.4782 147.535C18.0905 147.152 18.8963 147.34 19.2784 147.95C19.6604 148.56 19.4746 149.366 18.8623 149.746C18.6452 149.879 18.4071 149.945 18.1716 149.945C17.7346 149.945 17.3081 149.726 17.0596 149.332ZM181.251 147.128C180.626 146.769 180.411 145.971 180.775 145.347C181.136 144.724 181.937 144.51 182.562 144.873C183.187 145.233 183.402 146.031 183.038 146.654C182.795 147.071 182.358 147.306 181.905 147.306C181.683 147.306 181.458 147.248 181.251 147.128ZM14.8958 145.699C14.5399 145.074 14.7623 144.276 15.3929 143.924C16.0208 143.569 16.8189 143.791 17.1747 144.416C17.5306 145.045 17.3081 145.84 16.6776 146.192C16.4735 146.307 16.2537 146.362 16.0365 146.362C15.5787 146.362 15.1365 146.124 14.8958 145.699ZM183.321 143.501C182.68 143.167 182.434 142.38 182.766 141.741C183.101 141.102 183.894 140.857 184.532 141.191C185.173 141.522 185.422 142.312 185.087 142.948C184.854 143.394 184.399 143.65 183.925 143.65C183.721 143.65 183.514 143.603 183.321 143.501ZM12.8942 141.978C12.5671 141.337 12.8235 140.552 13.4672 140.226C14.1134 139.9 14.8984 140.156 15.2281 140.797C15.5551 141.439 15.2987 142.223 14.6524 142.549C14.464 142.646 14.26 142.693 14.0611 142.693C13.5849 142.693 13.1244 142.432 12.8942 141.978ZM185.231 139.785C184.574 139.48 184.291 138.706 184.598 138.054C184.904 137.402 185.683 137.118 186.338 137.423C186.992 137.728 187.274 138.505 186.968 139.157C186.746 139.631 186.275 139.908 185.783 139.908C185.597 139.908 185.409 139.869 185.231 139.785ZM11.06 138.174C10.7591 137.517 11.0522 136.745 11.7089 136.448C12.3682 136.15 13.1427 136.44 13.441 137.097C13.7419 137.751 13.4489 138.523 12.7921 138.823C12.6142 138.901 12.431 138.94 12.2505 138.94C11.7534 138.938 11.2772 138.654 11.06 138.174ZM186.973 135.991C186.306 135.715 185.987 134.951 186.264 134.286C186.542 133.621 187.308 133.305 187.975 133.582C188.643 133.858 188.959 134.622 188.682 135.287C188.473 135.788 187.986 136.09 187.473 136.09C187.306 136.09 187.136 136.059 186.973 135.991ZM9.39332 134.294C9.12382 133.626 9.45088 132.867 10.1207 132.599C10.7905 132.33 11.5519 132.653 11.8214 133.321C12.0909 133.989 11.7665 134.75 11.0966 135.019C10.937 135.081 10.7722 135.112 10.61 135.112C10.0893 135.112 9.60002 134.802 9.39332 134.294ZM188.546 132.124C187.866 131.876 187.515 131.128 187.764 130.453C188.009 129.775 188.76 129.428 189.441 129.673C190.118 129.921 190.469 130.666 190.22 131.344C190.027 131.874 189.527 132.202 188.991 132.202C188.844 132.202 188.692 132.176 188.546 132.124ZM7.90193 130.346C7.66383 129.668 8.02229 128.922 8.70257 128.685C9.38547 128.445 10.1312 128.802 10.3719 129.48C10.6126 130.161 10.2515 130.904 9.57124 131.144C9.42733 131.193 9.28081 131.219 9.1369 131.219C8.59529 131.219 8.09293 130.883 7.90193 130.346ZM189.943 128.192C189.255 127.975 188.873 127.243 189.09 126.557C189.307 125.868 190.04 125.488 190.731 125.704C191.419 125.921 191.803 126.653 191.586 127.339C191.408 127.895 190.893 128.252 190.338 128.252C190.207 128.252 190.074 128.231 189.943 128.192ZM6.58323 126.327C6.37391 125.639 6.76638 124.911 7.45713 124.703C8.14788 124.492 8.88049 124.883 9.08719 125.571C9.29651 126.262 8.90665 126.99 8.2159 127.198C8.0877 127.235 7.96211 127.253 7.83652 127.253C7.27397 127.253 6.75591 126.891 6.58323 126.327ZM191.168 124.202C190.472 124.014 190.056 123.3 190.241 122.606C190.427 121.91 191.144 121.495 191.843 121.681C192.541 121.866 192.957 122.58 192.769 123.276C192.614 123.861 192.086 124.246 191.508 124.246C191.395 124.246 191.28 124.231 191.168 124.202ZM5.44506 122.254C5.26714 121.555 5.68839 120.846 6.38961 120.669C7.09082 120.491 7.8025 120.911 7.98042 121.61C8.15834 122.306 7.73447 123.018 7.03588 123.196C6.92598 123.222 6.81871 123.237 6.71143 123.237C6.12796 123.237 5.59681 122.844 5.44506 122.254ZM192.214 120.16C191.508 120.006 191.063 119.31 191.217 118.606C191.372 117.902 192.07 117.459 192.777 117.613C193.483 117.769 193.928 118.465 193.774 119.167C193.638 119.777 193.099 120.192 192.497 120.192C192.405 120.192 192.308 120.181 192.214 120.16ZM4.48743 118.137C4.34091 117.43 4.79356 116.739 5.50001 116.593C6.20907 116.444 6.90243 116.898 7.04896 117.602C7.19548 118.306 6.74283 118.997 6.03638 119.146C5.94481 119.164 5.85585 119.172 5.76689 119.172C5.15986 119.172 4.61564 118.75 4.48743 118.137ZM193.08 116.077C192.369 115.954 191.892 115.279 192.015 114.57C192.141 113.86 192.819 113.386 193.53 113.508C194.242 113.633 194.718 114.309 194.595 115.018C194.483 115.652 193.931 116.098 193.308 116.098C193.232 116.098 193.156 116.09 193.08 116.077ZM3.71295 113.978C3.59521 113.268 4.07926 112.598 4.79356 112.481C5.50785 112.366 6.17767 112.848 6.29541 113.558C6.41054 114.27 5.92649 114.94 5.21481 115.055C5.14416 115.068 5.07352 115.073 5.00288 115.073C4.37231 115.073 3.81761 114.616 3.71295 113.978ZM193.766 111.962C193.049 111.868 192.544 111.216 192.635 110.502C192.73 109.787 193.384 109.281 194.101 109.375C194.818 109.466 195.323 110.121 195.231 110.835C195.145 111.493 194.585 111.972 193.936 111.972C193.881 111.972 193.823 111.967 193.766 111.962ZM194.268 107.818C193.549 107.758 193.015 107.125 193.078 106.408C193.138 105.691 193.771 105.159 194.49 105.221C195.21 105.281 195.744 105.912 195.684 106.629C195.626 107.31 195.053 107.824 194.381 107.824C194.344 107.824 194.307 107.821 194.268 107.818ZM194.59 103.657C193.868 103.628 193.308 103.02 193.337 102.301C193.365 101.581 193.975 101.023 194.697 101.052C195.419 101.08 195.982 101.688 195.95 102.408C195.922 103.109 195.343 103.659 194.645 103.659C194.627 103.659 194.608 103.657 194.59 103.657ZM193.418 98.1832C193.418 97.4635 194.001 96.8793 194.726 96.8793C195.448 96.8767 196.034 97.4609 196.034 98.1806C196.034 98.9003 195.451 99.4844 194.729 99.487C194.006 99.487 193.42 98.9055 193.418 98.1832ZM193.324 94.0709C193.292 93.3512 193.849 92.741 194.572 92.7097C195.294 92.6785 195.906 93.2339 195.937 93.9536C195.969 94.6733 195.411 95.2809 194.689 95.3148H194.629C193.933 95.3148 193.355 94.7698 193.324 94.0709ZM193.049 89.9639C192.986 89.2468 193.517 88.6158 194.237 88.5506C194.956 88.488 195.592 89.0173 195.655 89.737C195.72 90.4515 195.186 91.0852 194.467 91.1478C194.428 91.153 194.388 91.153 194.349 91.153C193.679 91.153 193.109 90.6419 193.049 89.9639ZM192.596 85.8777C192.502 85.1633 193.004 84.5061 193.721 84.4123C194.438 84.3184 195.095 84.8191 195.189 85.5335C195.286 86.248 194.781 86.9025 194.064 86.999C194.006 87.0042 193.949 87.0095 193.891 87.0095C193.245 87.0095 192.685 86.5323 192.596 85.8777ZM191.963 81.8125C191.837 81.1032 192.311 80.4252 193.023 80.3C193.734 80.1749 194.412 80.6468 194.54 81.3561C194.666 82.0654 194.192 82.7408 193.481 82.8685C193.405 82.8816 193.326 82.8868 193.25 82.8868C192.628 82.8868 192.075 82.4435 191.963 81.8125ZM191.152 77.7784C190.995 77.077 191.44 76.3781 192.143 76.2217C192.85 76.0652 193.549 76.5085 193.706 77.21C193.865 77.914 193.42 78.6103 192.714 78.7667C192.62 78.7876 192.523 78.798 192.429 78.798C191.83 78.798 191.288 78.386 191.152 77.7784ZM190.163 73.7862C189.974 73.0899 190.388 72.3754 191.086 72.1877C191.782 71.9999 192.502 72.4093 192.69 73.1056C192.879 73.7992 192.465 74.5163 191.769 74.704C191.654 74.7353 191.539 74.7484 191.427 74.7484C190.848 74.7484 190.322 74.3677 190.163 73.7862ZM188.999 69.8408C188.779 69.155 189.161 68.4196 189.849 68.2032C190.537 67.9842 191.272 68.3623 191.492 69.0481C191.712 69.7339 191.332 70.4693 190.642 70.6857C190.511 70.7274 190.377 70.7483 190.244 70.7483C189.689 70.7483 189.176 70.3936 188.999 69.8408ZM187.661 65.9476C187.41 65.2722 187.758 64.5238 188.439 64.2761C189.116 64.0258 189.867 64.3726 190.116 65.048C190.367 65.7234 190.019 66.4744 189.341 66.7221C189.192 66.7768 189.038 66.8029 188.889 66.8029C188.357 66.8029 187.855 66.477 187.661 65.9476ZM186.154 62.13C185.877 61.4651 186.191 60.7011 186.858 60.4246C187.523 60.1456 188.289 60.4585 188.569 61.1235C188.847 61.7884 188.533 62.5499 187.868 62.8289C187.701 62.8967 187.531 62.9306 187.363 62.9306C186.85 62.9306 186.366 62.6281 186.154 62.13ZM184.482 58.3803C184.174 57.7284 184.454 56.9513 185.108 56.6436C185.762 56.3359 186.542 56.6149 186.848 57.2668C187.157 57.9187 186.877 58.6958 186.222 59.0009C186.042 59.0869 185.854 59.126 185.665 59.126C185.176 59.126 184.705 58.8496 184.482 58.3803ZM182.643 54.7035H182.646C182.308 54.0672 182.554 53.2771 183.193 52.9434C183.831 52.607 184.624 52.8521 184.959 53.4883C185.296 54.1272 185.05 54.9147 184.412 55.2511C184.216 55.3528 184.009 55.4023 183.802 55.4023C183.334 55.3997 182.879 55.1468 182.643 54.7035ZM180.647 51.1102C180.283 50.4896 180.492 49.6916 181.115 49.3292C181.74 48.9641 182.541 49.1753 182.905 49.7959H182.907C183.271 50.4192 183.059 51.2171 182.434 51.5796C182.227 51.7021 181.999 51.7595 181.777 51.7595C181.327 51.7595 180.887 51.5274 180.647 51.1102ZM178.491 47.6081C178.098 47.0032 178.274 46.1974 178.883 45.8063C179.49 45.4151 180.299 45.5924 180.691 46.1974C181.081 46.8024 180.906 47.6081 180.299 47.9993C180.079 48.1401 179.833 48.2053 179.592 48.2053C179.161 48.2053 178.739 47.9967 178.491 47.6081ZM176.183 44.2026C175.767 43.6132 175.906 42.7997 176.497 42.385C177.086 41.9678 177.902 42.1086 178.321 42.6954C178.737 43.2847 178.598 44.0983 178.007 44.5129C177.776 44.6745 177.515 44.7528 177.253 44.7528C176.842 44.7528 176.439 44.5598 176.183 44.2026ZM173.729 40.8987C173.287 40.3302 173.391 39.5114 173.962 39.0681C174.532 38.6274 175.354 38.7318 175.796 39.3002C176.238 39.8713 176.136 40.6901 175.563 41.1308C175.325 41.3133 175.042 41.4046 174.762 41.4046C174.372 41.4046 173.985 41.2299 173.729 40.8987ZM171.131 37.7043C170.665 37.1541 170.733 36.3327 171.282 35.866C171.834 35.4018 172.661 35.4696 173.127 36.0172C173.595 36.5674 173.525 37.3914 172.975 37.8556C172.729 38.0642 172.428 38.1659 172.13 38.1659C171.759 38.1659 171.39 38.0068 171.131 37.7043ZM168.394 34.6247C167.905 34.0954 167.936 33.2714 168.467 32.7811C168.998 32.2935 169.825 32.3248 170.317 32.8542C170.806 33.3809 170.775 34.2075 170.244 34.6951C169.992 34.9272 169.673 35.042 169.354 35.042C169.003 35.042 168.653 34.9011 168.394 34.6247ZM165.526 31.6651C165.013 31.1592 165.011 30.3326 165.518 29.8215C166.026 29.3104 166.855 29.3052 167.368 29.8137C167.881 30.3195 167.886 31.1462 167.376 31.6573C167.122 31.9128 166.785 32.0432 166.447 32.0432C166.115 32.0432 165.783 31.918 165.526 31.6651ZM162.53 28.8332C161.997 28.3508 161.957 27.5242 162.441 26.9922C162.928 26.4576 163.755 26.4185 164.291 26.9035C164.825 27.386 164.864 28.2126 164.38 28.7445C164.121 29.0288 163.765 29.1722 163.409 29.1722C163.095 29.1722 162.781 29.0601 162.53 28.8332ZM159.414 26.1343C158.859 25.6727 158.783 24.8513 159.244 24.2985C159.707 23.7431 160.531 23.6675 161.089 24.129C161.646 24.5906 161.722 25.412 161.259 25.9648C161 26.2751 160.628 26.4368 160.251 26.4368C159.958 26.4342 159.66 26.3377 159.417 26.1343H159.414ZM156.183 23.571C155.607 23.1355 155.495 22.3193 155.932 21.7456C156.371 21.172 157.19 21.0598 157.766 21.4953C158.341 21.9308 158.451 22.7496 158.014 23.3233C157.758 23.6596 157.368 23.837 156.973 23.837C156.696 23.837 156.418 23.7509 156.183 23.571ZM152.839 21.1537C152.245 20.7417 152.098 19.9307 152.509 19.3388C152.923 18.7469 153.736 18.6008 154.33 19.0102C154.924 19.4196 155.071 20.2332 154.66 20.8251C154.406 21.1902 153.998 21.3858 153.585 21.3858C153.326 21.3858 153.066 21.3102 152.839 21.1537ZM149.393 18.8825C148.783 18.4965 148.6 17.6934 148.985 17.0832C149.369 16.4756 150.178 16.2905 150.788 16.6764C151.4 17.0597 151.583 17.8655 151.198 18.4731C150.95 18.8668 150.523 19.0832 150.089 19.0832C149.851 19.0832 149.61 19.0181 149.393 18.8825ZM145.85 16.7625C145.222 16.4052 145.005 15.6099 145.364 14.984C145.722 14.3582 146.52 14.1418 147.148 14.4964C147.776 14.8537 147.993 15.6516 147.635 16.2748C147.394 16.6973 146.952 16.9346 146.497 16.9346C146.277 16.9346 146.054 16.8798 145.85 16.7625ZM142.216 14.7989C141.575 14.4703 141.321 13.6854 141.651 13.044C141.98 12.4051 142.771 12.1522 143.412 12.4807C144.055 12.8093 144.309 13.5968 143.977 14.2357C143.747 14.6868 143.289 14.9449 142.813 14.9449C142.611 14.9449 142.407 14.898 142.216 14.7989ZM138.498 12.997C137.841 12.6972 137.553 11.9227 137.857 11.2682C138.158 10.6163 138.935 10.3294 139.589 10.6293C140.246 10.9292 140.536 11.7036 140.233 12.3582C140.013 12.8354 139.539 13.117 139.045 13.117C138.862 13.117 138.676 13.0779 138.498 12.997ZM134.704 11.362C134.034 11.0909 133.712 10.3294 133.985 9.66187C134.257 8.99432 135.021 8.67358 135.69 8.94477C136.358 9.21597 136.68 9.9774 136.407 10.6449C136.201 11.1508 135.711 11.4585 135.196 11.4585C135.031 11.4585 134.864 11.4272 134.704 11.362ZM130.84 9.89395C130.157 9.65144 129.803 8.90566 130.044 8.22767C130.287 7.54969 131.036 7.19505 131.716 7.43756C132.396 7.67746 132.752 8.42325 132.509 9.10384C132.318 9.6358 131.815 9.96957 131.276 9.96957C131.133 9.96957 130.983 9.9435 130.84 9.89395ZM126.91 8.59535C126.219 8.38413 125.829 7.6566 126.041 6.96819C126.253 6.27977 126.985 5.89124 127.676 6.10506C128.367 6.31367 128.754 7.04381 128.542 7.73222C128.37 8.29287 127.852 8.65533 127.292 8.65533C127.166 8.65533 127.035 8.63447 126.907 8.59535H126.91ZM122.94 7.47668C122.239 7.29675 121.821 6.58487 122.001 5.88863C122.182 5.18978 122.896 4.77256 123.597 4.95249C124.298 5.13242 124.717 5.8443 124.536 6.54054C124.385 7.12986 123.854 7.5184 123.27 7.5184C123.163 7.5184 123.053 7.50536 122.943 7.47668H122.94ZM118.922 6.53271C118.215 6.38408 117.765 5.69045 117.914 4.98639C118.066 4.28233 118.759 3.83121 119.466 3.98245C120.172 4.13108 120.625 4.82472 120.473 5.52878C120.342 6.14157 119.801 6.5614 119.196 6.5614C119.105 6.5614 119.013 6.55358 118.922 6.53271ZM114.869 5.76607C114.154 5.64873 113.673 4.97596 113.793 4.26407C113.911 3.5548 114.586 3.07499 115.298 3.19494C116.012 3.31229 116.493 3.98506 116.373 4.69433C116.266 5.3332 115.714 5.78432 115.086 5.78432C115.012 5.78432 114.942 5.77911 114.869 5.76607ZM110.782 5.17675C110.065 5.09069 109.555 4.44139 109.643 3.7269C109.73 3.0098 110.384 2.50131 111.101 2.58997C111.818 2.67603 112.328 3.32793 112.239 4.04243C112.158 4.70216 111.595 5.18718 110.944 5.18718C110.889 5.18718 110.837 5.18457 110.782 5.17675ZM106.676 4.76995C105.954 4.71259 105.418 4.08415 105.473 3.36705C105.53 2.64995 106.158 2.11278 106.88 2.16754C107.6 2.22491 108.139 2.85335 108.081 3.57044C108.029 4.25364 107.456 4.77256 106.778 4.77256C106.744 4.77256 106.71 4.77256 106.676 4.76995Z" fill="url(#paint2_linear_1233_7275)"/>
</g>
<defs>
<linearGradient id="paint0_linear_1233_7275" x1="0.0356805" y1="131.67" x2="181.368" y2="131.67" gradientUnits="userSpaceOnUse">
<stop stop-color="#8CD6D6"/>
<stop offset="1" stop-color="#FF9F80"/>
</linearGradient>
<linearGradient id="paint1_linear_1233_7275" x1="10.7516" y1="43.5297" x2="105.115" y2="43.5297" gradientUnits="userSpaceOnUse">
<stop stop-color="#8CD6D6"/>
<stop offset="1" stop-color="#FF9F80"/>
</linearGradient>
<linearGradient id="paint2_linear_1233_7275" x1="3.69464" y1="98.4857" x2="196.034" y2="98.4857" gradientUnits="userSpaceOnUse">
<stop stop-color="#8CD6D6"/>
<stop offset="1" stop-color="#FF9F80"/>
</linearGradient>
<clipPath id="clip0_1233_7275">
<rect width="196" height="194" fill="white" transform="translate(0.0351562 0.806152)"/>
</clipPath>
</defs>
</svg>
