<svg width="93" height="74" viewBox="0 0 93 74" fill="none" xmlns="http://www.w3.org/2000/svg">
<g clip-path="url(#clip0_1204_1460)">
<path d="M35.5269 74C35.3151 74 35.1004 73.9391 34.9081 73.8147L19.6297 63.7032C19.1168 63.363 18.9802 62.6771 19.3203 62.1682C19.6632 61.6593 20.3545 61.5238 20.8674 61.8612L27.5797 66.3029L31.2258 60.8793L26.2055 57.5577C25.5058 57.0958 25.0291 56.3878 24.8647 55.5719C24.7002 54.7532 24.8647 53.9208 25.333 53.2266L50.7691 15.3996C51.7336 13.9669 53.6904 13.5797 55.1343 14.5339L60.1547 17.8556L71.8288 0.49228C72.1689 -0.0166153 72.863 -0.152136 73.3759 0.185283C73.8888 0.525469 74.0254 1.21137 73.6853 1.72027L62.0084 19.0863L67.0287 22.408C68.4726 23.3649 68.8629 25.3065 67.9012 26.7391L42.4678 64.5661C42.0023 65.2603 41.2887 65.7332 40.4664 65.8964C39.6413 66.0596 38.8023 65.8964 38.1026 65.4317L33.0823 62.1101L29.4362 67.5337L36.1485 71.9755C36.6614 72.3157 36.798 73.0016 36.458 73.5105C36.2433 73.8313 35.8893 74.0028 35.5297 74.0028L35.5269 74ZM33.4028 59.6597L39.3403 63.5898C39.5437 63.7253 39.789 63.7723 40.0288 63.7253C40.2685 63.6783 40.4776 63.54 40.6141 63.3381L44.5947 57.4166L38.7493 53.5474C38.2364 53.2072 38.0998 52.5213 38.4399 52.0124C38.7827 51.5035 39.4741 51.368 39.987 51.7054L45.8324 55.5747L66.0475 25.5111C66.329 25.0935 66.2147 24.5265 65.7938 24.2472L59.8564 20.3171C59.8564 20.3171 59.8508 20.3115 59.8452 20.3115L59.8341 20.306L53.8967 16.3759C53.4758 16.0966 52.9043 16.21 52.6228 16.6276L27.1895 54.4545C27.0529 54.6564 27.0055 54.8998 27.0529 55.1377C27.1003 55.3755 27.2396 55.583 27.4431 55.7185L33.3805 59.6486C33.3805 59.6486 33.3861 59.6541 33.3889 59.6541C33.3917 59.6541 33.3945 59.6597 33.3973 59.6597H33.4028Z" fill="url(#paint0_linear_1204_1460)"/>
<path d="M78.5523 48.6852C71.8065 48.6852 63.1039 47.9717 53.7573 46.6441C50.9893 46.2542 48.0345 45.7867 44.9794 45.253C41.1605 44.5809 37.4587 43.8563 33.9743 43.0985C24.3406 41.002 15.7105 38.5212 9.6755 36.115C2.67325 33.3243 -0.390238 30.9126 0.0390402 28.5258C0.507343 25.9232 4.90047 24.6842 13.8707 24.6261C21.7705 24.5708 32.3074 25.5277 43.5466 27.3089C44.1543 27.4057 44.5697 27.9726 44.4721 28.5756C44.3745 29.1785 43.8003 29.5906 43.1954 29.4938C32.0732 27.732 21.659 26.7889 13.8874 26.8387C2.90182 26.9106 2.23839 28.8936 2.23561 28.913C2.00424 30.2018 9.20998 35.4429 34.4538 40.9356C37.9075 41.6879 41.5814 42.407 45.3669 43.0736C48.3969 43.6018 51.3266 44.0665 54.0723 44.4537C64.2551 45.9001 73.6407 46.6082 80.498 46.4505C88.6571 46.2625 90.678 44.9045 90.7672 44.3983C90.8425 43.9669 89.7219 42.2853 83.6925 39.7381C78.5189 37.5504 71.2351 35.3212 62.6272 33.2884C62.0279 33.1473 61.6572 32.5499 61.8021 31.9553C61.9443 31.3607 62.5464 30.9928 63.1457 31.1367C71.8706 33.1971 79.2799 35.4678 84.5678 37.7053C90.6947 40.294 93.3624 42.5425 92.9666 44.7828C92.5317 47.2471 88.5874 48.4806 80.5538 48.6659C79.9098 48.6797 79.2436 48.688 78.5551 48.688L78.5523 48.6852Z" fill="url(#paint1_linear_1204_1460)"/>
</g>
<defs>
<linearGradient id="paint0_linear_1204_1460" x1="19.1363" y1="37" x2="73.872" y2="37" gradientUnits="userSpaceOnUse">
<stop stop-color="#8CD6D6"/>
<stop offset="1" stop-color="#FF9F80"/>
</linearGradient>
<linearGradient id="paint1_linear_1204_1460" x1="1.49001e-05" y1="36.6543" x2="93" y2="36.6543" gradientUnits="userSpaceOnUse">
<stop stop-color="#8CD6D6"/>
<stop offset="1" stop-color="#FF9F80"/>
</linearGradient>
<clipPath id="clip0_1204_1460">
<rect width="93" height="74" fill="white"/>
</clipPath>
</defs>
</svg>
