<svg width="216" height="208" viewBox="0 0 216 208" fill="none" xmlns="http://www.w3.org/2000/svg">
<path d="M117.247 159.687C116.669 159.19 116.602 158.316 117.1 157.735C117.598 157.158 118.468 157.091 119.049 157.589C119.627 158.086 119.693 158.957 119.196 159.538C118.922 159.856 118.538 160.019 118.148 160.019C117.827 160.019 117.509 159.911 117.247 159.687ZM120.404 157.832C119.887 157.271 119.92 156.395 120.481 155.878C121.042 155.361 121.916 155.394 122.436 155.955C122.952 156.516 122.919 157.39 122.358 157.907C122.093 158.153 121.755 158.274 121.421 158.274C121.048 158.274 120.677 158.125 120.404 157.832ZM113.89 156.804C113.313 156.306 113.246 155.433 113.744 154.855C114.241 154.274 115.115 154.208 115.693 154.705C116.273 155.203 116.337 156.077 115.842 156.657C115.568 156.975 115.181 157.138 114.792 157.138C114.474 157.138 114.153 157.028 113.89 156.804ZM123.652 154.83C123.135 154.269 123.171 153.395 123.729 152.875C124.291 152.358 125.167 152.392 125.684 152.953C126.201 153.514 126.168 154.388 125.606 154.907C125.341 155.153 125.004 155.272 124.669 155.272C124.296 155.272 123.926 155.123 123.652 154.83ZM110.537 153.92C109.956 153.423 109.89 152.552 110.388 151.971C110.885 151.394 111.759 151.327 112.337 151.825C112.917 152.322 112.984 153.196 112.486 153.774C112.212 154.092 111.825 154.255 111.435 154.255C111.118 154.255 110.797 154.147 110.537 153.92ZM126.903 151.828C126.383 151.266 126.419 150.393 126.98 149.873C127.539 149.356 128.415 149.389 128.932 149.951C129.449 150.512 129.416 151.385 128.855 151.905C128.589 152.151 128.252 152.273 127.918 152.273C127.544 152.273 127.174 152.123 126.903 151.828ZM107.181 151.04C106.603 150.542 106.537 149.669 107.032 149.091C107.529 148.51 108.403 148.444 108.983 148.941C109.561 149.439 109.628 150.313 109.13 150.89C108.856 151.211 108.469 151.374 108.082 151.374C107.761 151.374 107.441 151.264 107.181 151.04ZM130.151 148.825C129.632 148.264 129.668 147.391 130.229 146.874C130.79 146.354 131.664 146.39 132.18 146.951C132.7 147.509 132.664 148.386 132.103 148.903C131.838 149.149 131.503 149.27 131.166 149.27C130.795 149.27 130.422 149.121 130.151 148.825ZM103.825 148.156C103.247 147.661 103.181 146.788 103.678 146.207C104.176 145.63 105.047 145.563 105.627 146.061C106.205 146.558 106.271 147.429 105.774 148.01C105.503 148.328 105.116 148.491 104.726 148.491C104.408 148.491 104.087 148.38 103.825 148.156ZM133.4 145.823C132.883 145.265 132.916 144.388 133.477 143.871C134.038 143.352 134.912 143.388 135.429 143.949C135.949 144.51 135.913 145.384 135.354 145.9C135.086 146.147 134.751 146.268 134.414 146.268C134.044 146.268 133.673 146.119 133.4 145.823ZM100.471 145.276C99.8909 144.778 99.8245 143.905 100.322 143.327C100.82 142.746 101.693 142.683 102.271 143.177C102.852 143.675 102.915 144.549 102.42 145.129C102.147 145.447 101.76 145.61 101.37 145.61C101.052 145.61 100.731 145.5 100.471 145.276ZM136.648 142.824C136.131 142.262 136.164 141.386 136.725 140.869C137.287 140.352 138.16 140.385 138.68 140.946C139.197 141.508 139.164 142.381 138.602 142.898C138.337 143.144 138 143.266 137.665 143.266C137.292 143.266 136.922 143.117 136.648 142.824ZM97.1153 142.395C96.5347 141.897 96.4684 141.024 96.966 140.443C97.4636 139.866 98.3372 139.799 98.915 140.297C99.4955 140.794 99.5619 141.665 99.0643 142.246C98.7906 142.564 98.4035 142.727 98.0137 142.727C97.6958 142.727 97.3751 142.619 97.1153 142.395ZM139.896 139.821C139.379 139.26 139.415 138.387 139.974 137.867C140.535 137.35 141.411 137.383 141.928 137.944C142.445 138.505 142.412 139.379 141.851 139.899C141.585 140.145 141.248 140.266 140.914 140.266C140.54 140.266 140.17 140.114 139.896 139.821ZM93.7591 139.512C93.1814 139.014 93.115 138.14 93.6126 137.563C94.1075 136.982 94.9811 136.916 95.5616 137.413C96.1394 137.911 96.2057 138.785 95.7081 139.362C95.4344 139.683 95.0474 139.846 94.6604 139.846C94.3397 139.846 94.019 139.736 93.7591 139.512ZM143.147 136.819C142.628 136.258 142.664 135.384 143.225 134.865C143.783 134.348 144.66 134.383 145.176 134.942C145.696 135.503 145.66 136.379 145.099 136.896C144.834 137.142 144.496 137.264 144.162 137.264C143.789 137.264 143.418 137.115 143.147 136.819ZM90.403 136.628C89.8252 136.133 89.7589 135.26 90.2565 134.679C90.7541 134.102 91.6249 134.035 92.2055 134.533C92.7833 135.03 92.8496 135.904 92.352 136.482C92.0783 136.8 91.6941 136.963 91.3043 136.963C90.9863 136.963 90.6656 136.855 90.403 136.628ZM146.396 133.817C145.876 133.258 145.912 132.382 146.473 131.865C147.034 131.345 147.908 131.381 148.425 131.942C148.945 132.501 148.909 133.377 148.347 133.894C148.082 134.14 147.748 134.262 147.41 134.262C147.04 134.262 146.667 134.113 146.396 133.817ZM87.0469 133.748C86.4691 133.25 86.4028 132.376 86.9004 131.799C87.398 131.218 88.2716 131.152 88.8494 131.649C89.4299 132.147 89.4962 133.021 88.9986 133.598C88.7249 133.919 88.3379 134.082 87.9481 134.082C87.6302 134.082 87.3095 133.972 87.0469 133.748Z" fill="url(#paint0_linear_1233_7848)"/>
<path d="M83.7399 194.41C83.3777 193.735 83.6321 192.897 84.3066 192.538C84.9784 192.179 85.816 192.433 86.1754 193.105C86.5376 193.776 86.2832 194.614 85.6115 194.976C85.4014 195.087 85.1802 195.139 84.959 195.139C84.467 195.139 83.9887 194.874 83.7399 194.41ZM60.3603 193.953C59.7549 193.486 59.6443 192.618 60.1088 192.013C60.576 191.41 61.444 191.297 62.0467 191.764C62.6521 192.228 62.7655 193.099 62.2983 193.702C62.0273 194.056 61.6182 194.241 61.2035 194.241C60.9077 194.241 60.6119 194.147 60.3603 193.953ZM87.4499 191.996C86.8417 191.537 86.72 190.669 87.1817 190.061C87.6434 189.453 88.5087 189.331 89.1196 189.793C89.7278 190.254 89.8467 191.12 89.3878 191.731C89.1141 192.087 88.7022 192.278 88.282 192.278C87.9917 192.278 87.6987 192.187 87.4499 191.996ZM57.1535 190.16C56.7913 189.489 57.0401 188.651 57.7119 188.289C58.3837 187.927 59.2213 188.176 59.5863 188.847C59.9484 189.519 59.6968 190.36 59.0251 190.722C58.8177 190.835 58.591 190.888 58.3699 190.888C57.8778 190.888 57.4023 190.625 57.1535 190.16ZM89.8412 188.27C89.1003 188.084 88.6497 187.335 88.8349 186.594C89.0201 185.853 89.7693 185.403 90.5102 185.588C91.2511 185.773 91.7017 186.525 91.5165 187.266C91.3589 187.894 90.7949 188.311 90.1757 188.311C90.0651 188.311 89.9518 188.3 89.8412 188.27ZM55.7132 185.439C55.6385 184.678 56.1942 184.001 56.9544 183.926C57.7119 183.849 58.3892 184.405 58.4639 185.165C58.5413 185.925 57.9856 186.6 57.2254 186.677C57.1784 186.68 57.1341 186.683 57.0871 186.683C56.3849 186.683 55.785 186.152 55.7132 185.439ZM89.1307 182.533C89.1307 181.77 89.75 181.151 90.513 181.151C91.2787 181.151 91.8952 181.77 91.8952 182.533C91.8952 183.299 91.2787 183.915 90.513 183.915C89.75 183.915 89.1307 183.299 89.1307 182.533ZM55.6523 180.88C55.6523 180.117 56.2688 179.498 57.0318 179.498C57.7976 179.498 58.4169 180.117 58.4169 180.88C58.4169 181.643 57.7976 182.262 57.0318 182.262C56.2688 182.262 55.6523 181.643 55.6523 180.88ZM89.1307 178.11C89.1307 177.347 89.75 176.728 90.513 176.728C91.2787 176.728 91.8952 177.347 91.8952 178.11C91.8952 178.876 91.2787 179.492 90.513 179.492C89.75 179.492 89.1307 178.876 89.1307 178.11ZM55.6523 176.457C55.6523 175.694 56.2688 175.074 57.0318 175.074C57.7976 175.074 58.4169 175.694 58.4169 176.457C58.4169 177.22 57.7976 177.839 57.0318 177.839C56.2688 177.839 55.6523 177.22 55.6523 176.457ZM89.1307 173.687C89.1307 172.924 89.75 172.304 90.513 172.304C91.2787 172.304 91.8952 172.924 91.8952 173.687C91.8952 174.452 91.2787 175.072 90.513 175.072C89.75 175.072 89.1307 174.452 89.1307 173.687ZM55.6523 172.034C55.6523 171.271 56.2688 170.651 57.0318 170.651C57.7976 170.651 58.4169 171.271 58.4169 172.034C58.4169 172.797 57.7976 173.416 57.0318 173.416C56.2688 173.416 55.6523 172.797 55.6523 172.034ZM89.1307 169.266C89.1307 168.5 89.75 167.881 90.513 167.881C91.2787 167.881 91.8952 168.5 91.8952 169.266C91.8952 170.029 91.2787 170.646 90.513 170.646C89.75 170.646 89.1307 170.029 89.1307 169.266ZM55.6523 167.61C55.6523 166.847 56.2688 166.228 57.0318 166.228C57.7976 166.228 58.4169 166.847 58.4169 167.61C58.4169 168.373 57.7976 168.993 57.0318 168.993C56.2688 168.993 55.6523 168.373 55.6523 167.61ZM89.1307 164.84C89.1307 164.077 89.75 163.461 90.513 163.461C91.2787 163.461 91.8952 164.077 91.8952 164.84C91.8952 165.606 91.2787 166.222 90.513 166.222C89.75 166.222 89.1307 165.606 89.1307 164.84ZM55.6523 163.187C55.6523 162.424 56.2688 161.805 57.0318 161.805C57.7976 161.805 58.4169 162.424 58.4169 163.187C58.4169 163.95 57.7976 164.569 57.0318 164.569C56.2688 164.569 55.6523 163.95 55.6523 163.187ZM88.9344 160.707C88.7824 159.958 89.2662 159.231 90.0154 159.079C90.7618 158.927 91.4916 159.411 91.6437 160.16C91.7929 160.909 91.3092 161.639 90.5627 161.788C90.4687 161.808 90.3775 161.816 90.2863 161.816C89.6421 161.816 89.0671 161.362 88.9344 160.707ZM57.2337 160.141C56.5176 159.883 56.1444 159.09 56.4043 158.371C56.6642 157.655 57.4576 157.282 58.1764 157.542C58.8924 157.802 59.2656 158.595 59.0057 159.311C58.8011 159.875 58.2703 160.226 57.7064 160.223C57.5488 160.223 57.3912 160.199 57.2337 160.141ZM87.4443 157.163C87.0131 156.536 87.1734 155.673 87.8037 155.242C88.434 154.811 89.2938 154.974 89.7251 155.604C90.1563 156.234 89.996 157.094 89.3657 157.525C89.1252 157.688 88.8542 157.766 88.5861 157.766C88.1438 157.766 87.7125 157.556 87.4443 157.163ZM59.0499 156.102C58.4943 155.579 58.4694 154.705 58.9919 154.15C59.5171 153.594 60.3907 153.567 60.9464 154.092C61.5021 154.614 61.527 155.488 61.0045 156.044C60.7335 156.334 60.3659 156.478 59.9982 156.478C59.6581 156.478 59.3181 156.353 59.0499 156.102ZM84.6881 154.542C84.0357 154.15 83.8256 153.298 84.2181 152.646C84.6135 151.993 85.4622 151.783 86.1174 152.176C86.7698 152.571 86.9799 153.42 86.5873 154.075C86.3275 154.504 85.8713 154.741 85.4014 154.741C85.1581 154.741 84.912 154.678 84.6881 154.542ZM62.337 153.132C62.0605 152.422 62.4116 151.62 63.1221 151.341C63.8326 151.065 64.6343 151.416 64.9135 152.126C65.1899 152.837 64.8389 153.638 64.1284 153.918C63.9625 153.981 63.7911 154.012 63.6252 154.012C63.0723 154.012 62.5498 153.68 62.337 153.132ZM81.1246 153.387C80.3644 153.326 79.7949 152.66 79.8557 151.9C79.9166 151.139 80.5828 150.57 81.3458 150.631C82.1061 150.694 82.6728 151.36 82.612 152.121C82.5539 152.845 81.9485 153.392 81.2352 153.392C81.1993 153.392 81.1606 153.39 81.1246 153.387ZM75.4297 151.98C75.4297 151.217 76.049 150.597 76.812 150.597C77.575 150.597 78.1943 151.217 78.1943 151.98C78.1943 152.743 77.575 153.362 76.812 153.362C76.049 153.362 75.4297 152.743 75.4297 151.98ZM71.0065 151.98C71.0065 151.217 71.6257 150.597 72.3888 150.597C73.1518 150.597 73.771 151.217 73.771 151.98C73.771 152.743 73.1518 153.362 72.3888 153.362C71.6257 153.362 71.0065 152.743 71.0065 151.98ZM66.5833 151.98C66.5833 151.217 67.2025 150.597 67.9655 150.597C68.7285 150.597 69.3478 151.217 69.3478 151.98C69.3478 152.743 68.7285 153.362 67.9655 153.362C67.2025 153.362 66.5833 152.743 66.5833 151.98Z" fill="url(#paint1_linear_1233_7848)"/>
<path d="M72.4086 152.195C72.2897 151.443 72.8039 150.736 73.5559 150.614C74.3106 150.495 75.0183 151.009 75.1399 151.764C75.2588 152.516 74.7446 153.224 73.9899 153.345C73.918 153.357 73.8434 153.362 73.7715 153.362C73.1052 153.362 72.5164 152.878 72.4086 152.195ZM73.5172 148.944C72.7542 148.925 72.1543 148.289 72.1764 147.526C72.1957 146.763 72.8316 146.16 73.5946 146.183C74.3576 146.205 74.9602 146.841 74.9381 147.604C74.9188 148.353 74.3023 148.947 73.5586 148.947C73.5448 148.947 73.531 148.947 73.5172 148.944ZM73.766 144.521C73.0168 144.375 72.5302 143.65 72.6768 142.901C72.8233 142.152 73.5476 141.663 74.2968 141.809C75.046 141.956 75.5353 142.683 75.3887 143.432C75.2588 144.09 74.681 144.549 74.0341 144.549C73.9457 144.549 73.8572 144.54 73.766 144.521ZM74.7723 140.208C74.0728 139.902 73.7549 139.086 74.0645 138.387C74.3714 137.69 75.1869 137.372 75.8864 137.679C76.583 137.986 76.9009 138.801 76.5941 139.501C76.3674 140.018 75.8587 140.327 75.3279 140.327C75.1427 140.327 74.9547 140.289 74.7723 140.208ZM76.7517 136.25C76.1739 135.752 76.1048 134.881 76.6024 134.301C77.1 133.723 77.9736 133.654 78.5514 134.151C79.1319 134.649 79.1983 135.523 78.7006 136.1C78.427 136.418 78.0399 136.584 77.6529 136.584C77.3322 136.584 77.0143 136.474 76.7517 136.25ZM79.8369 133.082C79.4498 132.424 79.6738 131.578 80.3317 131.191C80.9924 130.806 81.8384 131.03 82.2226 131.688C82.6069 132.349 82.3858 133.195 81.725 133.579C81.5066 133.706 81.2661 133.767 81.0311 133.767C80.5556 133.767 80.0912 133.524 79.8369 133.082ZM83.7763 131.091C83.5966 130.35 84.05 129.601 84.7909 129.419C85.5318 129.239 86.281 129.692 86.4607 130.433C86.6431 131.174 86.1897 131.923 85.4488 132.106C85.3383 132.131 85.2277 132.144 85.1171 132.144C84.4951 132.144 83.9311 131.721 83.7763 131.091ZM88.1083 130.237C88.0834 129.474 88.6833 128.835 89.4463 128.81C90.2094 128.785 90.848 129.383 90.8728 130.148C90.8977 130.909 90.2978 131.547 89.5348 131.572C89.5182 131.572 89.5044 131.575 89.4906 131.575C88.7469 131.575 88.1332 130.983 88.1083 130.237Z" fill="url(#paint2_linear_1233_7848)"/>
<path d="M144.665 204.251C144.645 203.488 145.251 202.855 146.014 202.836C146.777 202.817 147.41 203.422 147.429 204.185C147.446 204.948 146.843 205.581 146.08 205.6H146.044C145.298 205.6 144.681 205.003 144.665 204.251ZM161.512 204.298C161.442 203.538 162.001 202.866 162.761 202.797C163.521 202.725 164.196 203.286 164.265 204.047C164.334 204.807 163.773 205.479 163.013 205.551C162.971 205.553 162.927 205.556 162.886 205.556C162.181 205.556 161.578 205.014 161.512 204.298ZM158.108 205.045C157.379 204.821 156.969 204.047 157.196 203.317C157.42 202.587 158.191 202.178 158.921 202.405C159.651 202.629 160.06 203.403 159.836 204.132C159.654 204.724 159.106 205.108 158.518 205.108C158.382 205.108 158.244 205.086 158.108 205.045ZM141.214 204.757C140.504 204.478 140.153 203.679 140.429 202.966C140.706 202.255 141.507 201.901 142.218 202.181C142.928 202.457 143.282 203.256 143.006 203.969C142.793 204.517 142.27 204.851 141.715 204.851C141.549 204.851 141.38 204.821 141.214 204.757ZM149.071 203.817C148.762 203.121 149.074 202.302 149.773 201.993C150.47 201.683 151.286 201.998 151.598 202.695C151.908 203.392 151.592 204.21 150.896 204.519C150.713 204.6 150.523 204.638 150.335 204.638C149.807 204.638 149.301 204.331 149.071 203.817ZM165.877 203.56C165.517 202.888 165.772 202.051 166.443 201.691C167.118 201.332 167.956 201.586 168.315 202.258C168.674 202.933 168.42 203.77 167.748 204.13C167.541 204.24 167.317 204.293 167.096 204.293C166.604 204.293 166.126 204.027 165.877 203.56ZM154.238 203.361C153.486 203.237 152.977 202.523 153.105 201.772C153.229 201.017 153.942 200.508 154.694 200.635C155.449 200.76 155.958 201.473 155.83 202.228C155.717 202.902 155.134 203.38 154.47 203.38C154.393 203.38 154.316 203.375 154.241 203.361H154.238ZM137.057 202.106C136.506 201.578 136.484 200.704 137.012 200.151C137.538 199.599 138.414 199.579 138.967 200.105C139.52 200.633 139.539 201.506 139.011 202.059C138.74 202.344 138.375 202.488 138.013 202.488C137.67 202.488 137.325 202.36 137.057 202.106ZM169.617 201.194C169.028 200.704 168.948 199.834 169.435 199.247C169.921 198.659 170.792 198.578 171.381 199.065C171.97 199.552 172.05 200.422 171.563 201.011C171.29 201.34 170.894 201.512 170.499 201.512C170.187 201.512 169.874 201.407 169.617 201.194ZM134.212 198.081C133.9 197.384 134.212 196.566 134.909 196.256C135.605 195.944 136.424 196.256 136.736 196.953C137.048 197.65 136.736 198.468 136.039 198.778C135.857 198.86 135.663 198.899 135.475 198.899C134.947 198.899 134.441 198.595 134.212 198.081ZM172.185 197.589C171.458 197.362 171.049 196.588 171.276 195.858C171.503 195.128 172.279 194.722 173.006 194.949C173.736 195.175 174.143 195.949 173.916 196.679C173.734 197.271 173.186 197.652 172.597 197.652C172.462 197.652 172.324 197.63 172.185 197.589ZM133.125 193.265C133.106 192.502 133.712 191.869 134.475 191.85C135.238 191.833 135.871 192.436 135.89 193.199C135.907 193.962 135.304 194.595 134.541 194.614H134.505C133.759 194.614 133.142 194.017 133.125 193.265ZM171.671 192.027C171.599 191.266 172.158 190.592 172.918 190.523C173.678 190.451 174.353 191.009 174.422 191.769C174.494 192.53 173.935 193.204 173.175 193.273C173.131 193.279 173.089 193.282 173.045 193.282C172.34 193.282 171.738 192.743 171.671 192.027ZM134.757 190.191C134.046 189.917 133.692 189.116 133.966 188.402C134.242 187.692 135.044 187.338 135.755 187.614C136.468 187.888 136.822 188.69 136.545 189.4C136.335 189.948 135.81 190.285 135.257 190.285C135.091 190.285 134.922 190.254 134.757 190.191ZM170.568 188.336C170.209 187.664 170.466 186.827 171.14 186.467C171.815 186.11 172.65 186.365 173.009 187.039C173.366 187.714 173.111 188.549 172.437 188.908C172.23 189.019 172.008 189.071 171.79 189.071C171.295 189.071 170.817 188.803 170.568 188.336ZM136.659 186.193C136.108 185.665 136.086 184.792 136.614 184.239C137.142 183.686 138.016 183.667 138.569 184.195C139.122 184.72 139.141 185.596 138.613 186.149C138.342 186.434 137.977 186.575 137.615 186.575C137.269 186.575 136.927 186.448 136.659 186.193ZM168.127 185.35C167.87 185.137 167.71 184.853 167.652 184.549C167.347 184.601 167.021 184.551 166.734 184.385C166.07 184.007 165.841 183.161 166.22 182.5C166.598 181.837 167.444 181.607 168.105 181.986C168.47 182.193 168.702 182.541 168.777 182.92C169.158 182.857 169.567 182.953 169.888 183.219C170.477 183.705 170.56 184.576 170.073 185.165C169.8 185.497 169.404 185.665 169.009 185.665C168.697 185.665 168.387 185.563 168.127 185.35ZM140.106 183.454C139.575 182.904 139.594 182.03 140.145 181.499C140.695 180.971 141.568 180.988 142.099 181.538C142.627 182.088 142.608 182.964 142.058 183.492C141.792 183.75 141.447 183.88 141.101 183.88C140.739 183.88 140.377 183.736 140.106 183.454ZM163.72 179.766C163.637 179.006 164.188 178.326 164.945 178.243C165.705 178.162 166.385 178.71 166.468 179.47C166.549 180.23 166.001 180.91 165.241 180.993C165.191 180.999 165.141 180.999 165.092 180.999C164.395 180.999 163.795 180.474 163.72 179.766ZM142.478 179.846C141.715 179.807 141.129 179.158 141.167 178.395C141.206 177.632 141.856 177.046 142.619 177.084C143.382 177.126 143.968 177.775 143.929 178.536C143.89 179.274 143.28 179.849 142.55 179.849C142.525 179.849 142.503 179.849 142.478 179.846ZM163.115 175.732C162.858 175.014 163.234 174.223 163.953 173.969C164.671 173.712 165.462 174.088 165.716 174.806C165.973 175.525 165.598 176.316 164.879 176.573C164.727 176.628 164.569 176.653 164.414 176.653C163.848 176.653 163.314 176.299 163.115 175.732ZM143.031 175.453C142.342 175.124 142.049 174.3 142.378 173.612C142.707 172.924 143.531 172.631 144.219 172.96C144.911 173.289 145.201 174.112 144.875 174.801C144.637 175.298 144.142 175.589 143.625 175.589C143.426 175.589 143.221 175.547 143.031 175.453ZM161.133 172.426C160.621 171.859 160.666 170.986 161.232 170.474C161.799 169.963 162.673 170.007 163.184 170.571C163.696 171.138 163.651 172.011 163.087 172.526C162.822 172.763 162.49 172.882 162.161 172.882C161.782 172.882 161.407 172.727 161.133 172.426ZM145.229 171.611C144.717 171.044 144.761 170.17 145.328 169.659C145.895 169.147 146.768 169.192 147.28 169.758C147.791 170.328 147.747 171.201 147.18 171.713C146.915 171.951 146.586 172.067 146.254 172.067C145.878 172.067 145.502 171.915 145.229 171.611ZM158.042 170.123C157.354 169.794 157.061 168.968 157.387 168.279C157.716 167.591 158.542 167.298 159.231 167.627C159.919 167.953 160.212 168.78 159.883 169.468C159.648 169.966 159.151 170.256 158.634 170.256C158.435 170.256 158.233 170.214 158.042 170.123ZM148.726 168.896C148.469 168.177 148.845 167.386 149.563 167.129C150.282 166.875 151.073 167.251 151.33 167.97C151.584 168.688 151.208 169.479 150.489 169.736C150.337 169.789 150.18 169.816 150.028 169.816C149.458 169.816 148.925 169.463 148.726 168.896ZM154.307 169.181C153.544 169.142 152.958 168.492 152.997 167.732C153.033 166.969 153.682 166.38 154.445 166.419C155.208 166.457 155.795 167.107 155.756 167.87C155.72 168.608 155.109 169.183 154.376 169.183C154.354 169.183 154.329 169.183 154.307 169.181Z" fill="url(#paint3_linear_1233_7848)"/>
<path d="M133.071 178.721C132.314 178.624 131.778 177.93 131.874 177.173C131.971 176.418 132.662 175.882 133.42 175.979C134.177 176.073 134.714 176.767 134.617 177.524C134.528 178.221 133.934 178.732 133.248 178.732C133.19 178.732 133.129 178.727 133.071 178.721ZM136.168 176.507C135.529 176.089 135.347 175.232 135.764 174.594C136.181 173.955 137.038 173.773 137.677 174.19C138.316 174.607 138.498 175.462 138.081 176.103C137.815 176.509 137.373 176.731 136.922 176.731C136.663 176.731 136.4 176.659 136.168 176.507ZM128.737 175.243C128.402 174.555 128.692 173.728 129.378 173.397C130.066 173.065 130.893 173.352 131.225 174.038C131.556 174.726 131.269 175.553 130.581 175.885C130.387 175.979 130.182 176.023 129.981 176.023C129.466 176.023 128.974 175.735 128.737 175.243ZM136.701 171.141C136.701 170.378 137.32 169.759 138.083 169.759C138.849 169.759 139.466 170.378 139.466 171.141C139.466 171.907 138.849 172.523 138.083 172.523C137.32 172.523 136.701 171.907 136.701 171.141ZM129.126 171.708C128.366 171.638 127.808 170.964 127.877 170.204C127.946 169.443 128.621 168.885 129.381 168.954C130.141 169.026 130.699 169.698 130.63 170.458C130.564 171.177 129.961 171.713 129.254 171.713C129.212 171.713 129.168 171.713 129.126 171.708ZM136.325 168.849C136.074 168.127 136.452 167.34 137.174 167.088C137.893 166.834 138.683 167.215 138.935 167.934C139.189 168.655 138.808 169.443 138.089 169.695C137.937 169.75 137.782 169.775 137.63 169.775C137.061 169.775 136.527 169.418 136.325 168.849ZM129.953 167.326C129.381 166.82 129.325 165.949 129.831 165.377C130.335 164.802 131.208 164.746 131.78 165.252C132.355 165.758 132.408 166.632 131.905 167.204C131.631 167.514 131.25 167.671 130.868 167.671C130.542 167.671 130.216 167.558 129.953 167.326ZM134.335 166.425C133.624 166.145 133.273 165.344 133.55 164.633C133.826 163.923 134.628 163.572 135.338 163.848C136.052 164.124 136.403 164.926 136.126 165.637C135.913 166.184 135.391 166.519 134.838 166.519C134.669 166.519 134.501 166.488 134.335 166.425Z" fill="url(#paint4_linear_1233_7848)"/>
<path d="M144.853 165.263C144.096 165.169 143.559 164.476 143.656 163.718C143.753 162.961 144.444 162.427 145.201 162.521C145.959 162.618 146.495 163.312 146.398 164.066C146.31 164.766 145.716 165.274 145.027 165.274C144.972 165.274 144.911 165.274 144.853 165.263ZM147.949 163.052C147.311 162.634 147.128 161.777 147.546 161.139C147.963 160.5 148.817 160.318 149.459 160.735C150.097 161.15 150.28 162.007 149.862 162.648C149.597 163.055 149.155 163.276 148.701 163.276C148.444 163.276 148.182 163.204 147.949 163.052ZM140.518 161.788C140.184 161.1 140.471 160.273 141.16 159.942C141.848 159.61 142.675 159.897 143.006 160.583C143.338 161.271 143.051 162.098 142.362 162.43C142.169 162.524 141.964 162.568 141.762 162.568C141.248 162.568 140.756 162.28 140.518 161.788ZM148.483 157.686C148.483 156.923 149.102 156.304 149.865 156.304C150.631 156.304 151.247 156.923 151.247 157.686C151.247 158.449 150.631 159.068 149.865 159.068C149.102 159.068 148.483 158.449 148.483 157.686ZM140.908 158.253C140.148 158.183 139.587 157.509 139.659 156.749C139.728 155.988 140.402 155.43 141.162 155.499C141.923 155.571 142.481 156.243 142.412 157.003C142.346 157.719 141.743 158.258 141.035 158.258C140.994 158.258 140.95 158.255 140.908 158.253ZM148.107 155.394C147.855 154.673 148.234 153.885 148.956 153.633C149.674 153.379 150.465 153.76 150.717 154.479C150.968 155.201 150.589 155.988 149.871 156.24C149.719 156.293 149.564 156.32 149.412 156.32C148.842 156.32 148.306 155.964 148.107 155.394ZM141.735 153.871C141.162 153.365 141.107 152.491 141.613 151.919C142.116 151.347 142.99 151.292 143.562 151.797C144.134 152.301 144.19 153.177 143.686 153.749C143.413 154.059 143.031 154.216 142.647 154.216C142.324 154.216 141.997 154.103 141.735 153.871ZM146.116 152.97C145.406 152.69 145.055 151.889 145.331 151.178C145.608 150.468 146.41 150.114 147.12 150.393C147.833 150.67 148.184 151.471 147.908 152.182C147.695 152.729 147.173 153.064 146.62 153.064C146.451 153.064 146.282 153.033 146.116 152.97Z" fill="url(#paint5_linear_1233_7848)"/>
<path d="M172.988 177.524C172.892 176.766 173.428 176.073 174.185 175.979C174.943 175.882 175.634 176.418 175.731 177.176C175.828 177.933 175.291 178.624 174.534 178.721C174.473 178.726 174.415 178.732 174.357 178.732C173.671 178.732 173.077 178.221 172.988 177.524ZM169.525 176.103C169.107 175.462 169.29 174.605 169.928 174.19C170.567 173.772 171.424 173.955 171.841 174.594C172.259 175.235 172.076 176.089 171.438 176.507C171.203 176.659 170.943 176.731 170.683 176.731C170.232 176.731 169.79 176.509 169.525 176.103ZM177.022 175.885C176.336 175.553 176.049 174.726 176.381 174.038C176.712 173.352 177.539 173.065 178.227 173.396C178.913 173.728 179.2 174.555 178.869 175.243C178.631 175.735 178.139 176.023 177.625 176.023C177.423 176.023 177.218 175.979 177.022 175.885ZM168.137 171.141C168.137 170.378 168.756 169.758 169.519 169.758C170.285 169.758 170.901 170.378 170.901 171.141C170.901 171.906 170.285 172.523 169.519 172.523C168.756 172.523 168.137 171.906 168.137 171.141ZM176.975 170.458C176.906 169.698 177.464 169.026 178.224 168.954C178.985 168.885 179.659 169.443 179.728 170.203C179.797 170.964 179.239 171.638 178.479 171.707C178.435 171.713 178.393 171.713 178.349 171.713C177.644 171.713 177.041 171.177 176.975 170.458ZM169.516 169.695C168.797 169.443 168.416 168.655 168.67 167.934C168.922 167.215 169.71 166.834 170.431 167.088C171.153 167.339 171.532 168.127 171.277 168.849C171.078 169.418 170.545 169.775 169.975 169.775C169.823 169.775 169.668 169.75 169.516 169.695ZM175.7 167.204C175.195 166.632 175.25 165.758 175.825 165.252C176.397 164.749 177.271 164.802 177.774 165.374C178.28 165.949 178.224 166.822 177.652 167.326C177.39 167.558 177.063 167.671 176.737 167.671C176.356 167.671 175.974 167.514 175.7 167.204ZM171.479 165.636C171.203 164.926 171.554 164.124 172.264 163.848C172.977 163.571 173.779 163.922 174.056 164.633C174.332 165.343 173.981 166.145 173.268 166.424C173.105 166.488 172.933 166.518 172.767 166.518C172.214 166.518 171.692 166.184 171.479 165.636Z" fill="url(#paint6_linear_1233_7848)"/>
<path d="M161.208 164.066C161.112 163.311 161.648 162.618 162.405 162.521C163.163 162.427 163.854 162.96 163.951 163.718C164.047 164.475 163.511 165.169 162.754 165.263C162.696 165.272 162.635 165.274 162.577 165.274C161.891 165.274 161.297 164.766 161.208 164.066ZM157.744 162.645C157.327 162.007 157.509 161.15 158.148 160.735C158.787 160.318 159.644 160.497 160.061 161.139C160.479 161.777 160.296 162.634 159.657 163.052C159.422 163.204 159.163 163.276 158.903 163.276C158.452 163.276 158.01 163.054 157.744 162.645ZM165.245 162.43C164.556 162.098 164.269 161.271 164.6 160.583C164.932 159.897 165.759 159.61 166.447 159.942C167.133 160.273 167.423 161.1 167.088 161.788C166.851 162.28 166.359 162.568 165.844 162.568C165.643 162.568 165.438 162.524 165.245 162.43ZM156.359 157.686C156.359 156.923 156.976 156.303 157.742 156.303C158.505 156.303 159.121 156.923 159.121 157.686C159.121 158.449 158.505 159.068 157.742 159.068C156.976 159.068 156.359 158.449 156.359 157.686ZM165.195 157.003C165.126 156.243 165.684 155.571 166.444 155.499C167.205 155.43 167.879 155.988 167.948 156.749C168.02 157.509 167.459 158.181 166.699 158.252C166.657 158.255 166.613 158.258 166.572 158.258C165.864 158.258 165.261 157.719 165.195 157.003ZM157.736 156.24C157.017 155.988 156.639 155.2 156.89 154.479C157.142 153.76 157.932 153.379 158.651 153.633C159.373 153.884 159.751 154.672 159.5 155.394C159.301 155.963 158.765 156.32 158.195 156.32C158.043 156.32 157.888 156.295 157.736 156.24ZM163.92 153.749C163.417 153.174 163.47 152.303 164.045 151.797C164.617 151.291 165.491 151.347 165.994 151.919C166.5 152.491 166.444 153.365 165.872 153.871C165.609 154.103 165.283 154.216 164.957 154.216C164.576 154.216 164.194 154.059 163.92 153.749ZM159.699 152.182C159.422 151.471 159.774 150.669 160.487 150.393H160.484C161.197 150.116 161.999 150.468 162.275 151.178C162.552 151.888 162.201 152.69 161.49 152.969H161.488C161.324 153.033 161.156 153.063 160.987 153.063C160.434 153.063 159.912 152.729 159.699 152.182Z" fill="url(#paint7_linear_1233_7848)"/>
<path d="M198.94 206.618C198.94 205.855 199.559 205.236 200.322 205.236C201.085 205.236 201.705 205.855 201.705 206.618C201.705 207.381 201.085 208 200.322 208C199.559 208 198.94 207.381 198.94 206.618ZM116.295 206.618C116.295 205.855 116.914 205.236 117.677 205.236C118.44 205.236 119.059 205.855 119.059 206.618C119.059 207.381 118.44 208 117.677 208C116.914 208 116.295 207.381 116.295 206.618ZM111.872 206.618C111.872 205.855 112.491 205.236 113.254 205.236C114.017 205.236 114.636 205.855 114.636 206.618C114.636 207.381 114.017 208 113.254 208C112.491 208 111.872 207.381 111.872 206.618ZM107.448 206.618C107.448 205.855 108.068 205.236 108.831 205.236C109.594 205.236 110.213 205.855 110.213 206.618C110.213 207.381 109.594 208 108.831 208C108.068 208 107.448 207.381 107.448 206.618ZM103.025 206.618C103.025 205.855 103.644 205.236 104.407 205.236C105.17 205.236 105.79 205.855 105.79 206.618C105.79 207.381 105.17 208 104.407 208C103.644 208 103.025 207.381 103.025 206.618ZM98.6018 206.618C98.6018 205.855 99.2211 205.236 99.9841 205.236C100.747 205.236 101.366 205.855 101.366 206.618C101.366 207.381 100.747 208 99.9841 208C99.2211 208 98.6018 207.381 98.6018 206.618ZM94.1786 206.618C94.1786 205.855 94.7979 205.236 95.5609 205.236C96.3239 205.236 96.9431 205.855 96.9431 206.618C96.9431 207.381 96.3239 208 95.5609 208C94.7979 208 94.1786 207.381 94.1786 206.618ZM89.7554 206.618C89.7554 205.855 90.3746 205.236 91.1376 205.236C91.9006 205.236 92.5199 205.855 92.5199 206.618C92.5199 207.381 91.9006 208 91.1376 208C90.3746 208 89.7554 207.381 89.7554 206.618ZM85.3321 206.618C85.3321 205.855 85.9514 205.236 86.7144 205.236C87.4774 205.236 88.0967 205.855 88.0967 206.618C88.0967 207.381 87.4774 208 86.7144 208C85.9514 208 85.3321 207.381 85.3321 206.618ZM80.9089 206.618C80.9089 205.855 81.5282 205.236 82.2912 205.236C83.0542 205.236 83.6734 205.855 83.6734 206.618C83.6734 207.381 83.0542 208 82.2912 208C81.5282 208 80.9089 207.381 80.9089 206.618ZM76.4857 206.618C76.4857 205.855 77.1049 205.236 77.8679 205.236C78.6309 205.236 79.2502 205.855 79.2502 206.618C79.2502 207.381 78.6309 208 77.8679 208C77.1049 208 76.4857 207.381 76.4857 206.618ZM72.0624 206.618C72.0624 205.855 72.6817 205.236 73.4447 205.236C74.2077 205.236 74.827 205.855 74.827 206.618C74.827 207.381 74.2077 208 73.4447 208C72.6817 208 72.0624 207.381 72.0624 206.618ZM67.6392 206.618C67.6392 205.855 68.2584 205.236 69.0215 205.236C69.7845 205.236 70.4037 205.855 70.4037 206.618C70.4037 207.381 69.7845 208 69.0215 208C68.2584 208 67.6392 207.381 67.6392 206.618ZM63.216 206.618C63.216 205.855 63.8352 205.236 64.5982 205.236C65.3612 205.236 65.9805 205.855 65.9805 206.618C65.9805 207.381 65.3612 208 64.5982 208C63.8352 208 63.216 207.381 63.216 206.618ZM58.7927 206.618C58.7927 205.855 59.412 205.236 60.175 205.236C60.938 205.236 61.5572 205.855 61.5572 206.618C61.5572 207.381 60.938 208 60.175 208C59.412 208 58.7927 207.381 58.7927 206.618ZM54.3695 206.618C54.3695 205.855 54.9887 205.236 55.7517 205.236C56.5148 205.236 57.134 205.855 57.134 206.618C57.134 207.381 56.5148 208 55.7517 208C54.9887 208 54.3695 207.381 54.3695 206.618ZM49.9463 206.618C49.9463 205.855 50.5655 205.236 51.3285 205.236C52.0915 205.236 52.7108 205.855 52.7108 206.618C52.7108 207.381 52.0915 208 51.3285 208C50.5655 208 49.9463 207.381 49.9463 206.618ZM45.523 206.618C45.523 205.855 46.1423 205.236 46.9053 205.236C47.6683 205.236 48.2875 205.855 48.2875 206.618C48.2875 207.381 47.6683 208 46.9053 208C46.1423 208 45.523 207.381 45.523 206.618ZM41.0998 206.618C41.0998 205.855 41.719 205.236 42.482 205.236C43.2451 205.236 43.8643 205.855 43.8643 206.618C43.8643 207.381 43.2451 208 42.482 208C41.719 208 41.0998 207.381 41.0998 206.618ZM36.6765 206.618C36.6765 205.855 37.2958 205.236 38.0588 205.236C38.8218 205.236 39.4411 205.855 39.4411 206.618C39.4411 207.381 38.8218 208 38.0588 208C37.2958 208 36.6765 207.381 36.6765 206.618ZM35.4961 203.372C35.4961 202.609 36.1153 201.99 36.8784 201.99C37.6441 201.99 38.2606 202.609 38.2606 203.372C38.2606 204.138 37.6441 204.755 36.8784 204.755C36.1153 204.755 35.4961 204.138 35.4961 203.372ZM198.94 202.195C198.94 201.429 199.559 200.812 200.322 200.812C201.085 200.812 201.705 201.429 201.705 202.195C201.705 202.958 201.085 203.577 200.322 203.577C199.559 203.577 198.94 202.958 198.94 202.195ZM35.4961 198.949C35.4961 198.186 36.1153 197.567 36.8784 197.567C37.6441 197.567 38.2606 198.186 38.2606 198.949C38.2606 199.715 37.6441 200.331 36.8784 200.331C36.1153 200.331 35.4961 199.715 35.4961 198.949ZM198.94 197.771C198.94 197.006 199.559 196.389 200.322 196.389C201.085 196.389 201.705 197.006 201.705 197.771C201.705 198.534 201.085 199.154 200.322 199.154C199.559 199.154 198.94 198.534 198.94 197.771ZM35.4961 194.526C35.4961 193.763 36.1153 193.144 36.8784 193.144C37.6441 193.144 38.2606 193.763 38.2606 194.526C38.2606 195.292 37.6441 195.908 36.8784 195.908C36.1153 195.908 35.4961 195.292 35.4961 194.526ZM198.94 193.348C198.94 192.585 199.559 191.966 200.322 191.966C201.085 191.966 201.705 192.585 201.705 193.348C201.705 194.111 201.085 194.73 200.322 194.73C199.559 194.73 198.94 194.111 198.94 193.348ZM35.4961 190.103C35.4961 189.34 36.1153 188.72 36.8784 188.72C37.6441 188.72 38.2606 189.34 38.2606 190.103C38.2606 190.868 37.6441 191.485 36.8784 191.485C36.1153 191.485 35.4961 190.868 35.4961 190.103ZM198.94 188.925C198.94 188.159 199.559 187.543 200.322 187.543C201.085 187.543 201.705 188.159 201.705 188.925C201.705 189.688 201.085 190.307 200.322 190.307C199.559 190.307 198.94 189.688 198.94 188.925ZM35.4961 185.679C35.4961 184.916 36.1153 184.297 36.8784 184.297C37.6441 184.297 38.2606 184.916 38.2606 185.679C38.2606 186.442 37.6441 187.062 36.8784 187.062C36.1153 187.062 35.4961 186.442 35.4961 185.679ZM198.94 184.502C198.94 183.736 199.559 183.119 200.322 183.119C201.085 183.119 201.705 183.736 201.705 184.502C201.705 185.265 201.085 185.884 200.322 185.884C199.559 185.884 198.94 185.265 198.94 184.502ZM35.4961 181.256C35.4961 180.493 36.1153 179.874 36.8784 179.874C37.6441 179.874 38.2606 180.493 38.2606 181.256C38.2606 182.022 37.6441 182.638 36.8784 182.638C36.1153 182.638 35.4961 182.022 35.4961 181.256ZM198.94 180.079C198.94 179.315 199.559 178.696 200.322 178.696C201.085 178.696 201.705 179.315 201.705 180.079C201.705 180.842 201.085 181.461 200.322 181.461C199.559 181.461 198.94 180.842 198.94 180.079ZM35.4961 176.833C35.4961 176.07 36.1153 175.451 36.8784 175.451C37.6441 175.451 38.2606 176.07 38.2606 176.833C38.2606 177.599 37.6441 178.215 36.8784 178.215C36.1153 178.215 35.4961 177.599 35.4961 176.833ZM198.94 175.655C198.94 174.889 199.559 174.273 200.322 174.273C201.085 174.273 201.705 174.889 201.705 175.655C201.705 176.418 201.085 177.038 200.322 177.038C199.559 177.038 198.94 176.418 198.94 175.655ZM35.4961 172.41C35.4961 171.647 36.1153 171.027 36.8784 171.027C37.6441 171.027 38.2606 171.647 38.2606 172.41C38.2606 173.173 37.6441 173.792 36.8784 173.792C36.1153 173.792 35.4961 173.173 35.4961 172.41ZM198.94 171.232C198.94 170.466 199.559 169.85 200.322 169.85C201.085 169.85 201.705 170.466 201.705 171.232C201.705 171.995 201.085 172.614 200.322 172.614C199.559 172.614 198.94 171.995 198.94 171.232ZM36.8479 169.355C36.0905 169.269 35.5431 168.586 35.6288 167.829C35.7117 167.069 36.3973 166.524 37.1548 166.607C37.9151 166.693 38.4597 167.378 38.3767 168.136C38.2966 168.843 37.6994 169.363 37.0028 169.363C36.953 169.363 36.9005 169.36 36.8479 169.355ZM198.653 167.044C198.525 166.292 199.031 165.576 199.783 165.449C200.535 165.319 201.251 165.825 201.378 166.579C201.506 167.331 201.003 168.045 200.248 168.174C200.17 168.186 200.093 168.194 200.016 168.194C199.352 168.194 198.769 167.718 198.653 167.044ZM37.4727 164.968C36.7346 164.771 36.295 164.017 36.4886 163.279C36.6821 162.54 37.4368 162.098 38.1749 162.292C38.913 162.485 39.3554 163.243 39.1618 163.981C38.9987 164.6 38.4375 165.012 37.8238 165.012C37.7077 165.012 37.5916 164.998 37.4727 164.968ZM197.627 162.95C197.389 162.225 197.782 161.443 198.509 161.205C199.233 160.965 200.016 161.36 200.253 162.084C200.491 162.811 200.098 163.591 199.374 163.831C199.23 163.878 199.084 163.901 198.94 163.901C198.36 163.901 197.821 163.53 197.627 162.95ZM38.7057 160.713C37.998 160.423 37.6607 159.616 37.951 158.908C38.2385 158.203 39.0457 157.863 39.7535 158.153C40.4584 158.443 40.7984 159.251 40.5082 159.956C40.2898 160.492 39.7728 160.815 39.2282 160.815C39.054 160.815 38.8771 160.782 38.7057 160.713ZM196.026 159.035C195.689 158.349 195.971 157.52 196.657 157.183C197.342 156.845 198.172 157.127 198.506 157.813C198.843 158.499 198.561 159.325 197.879 159.663C197.682 159.759 197.472 159.806 197.268 159.806C196.759 159.806 196.267 159.522 196.026 159.035ZM40.4833 156.66C39.8226 156.279 39.5959 155.433 39.9774 154.772C40.3589 154.111 41.2021 153.882 41.8656 154.263C42.5263 154.645 42.753 155.491 42.3715 156.152C42.1171 156.597 41.6527 156.845 41.1744 156.845C40.9394 156.845 40.7017 156.785 40.4833 156.66ZM193.903 155.375C193.475 154.742 193.641 153.885 194.274 153.456C194.907 153.028 195.766 153.194 196.192 153.827C196.621 154.46 196.455 155.319 195.822 155.745C195.584 155.906 195.316 155.983 195.05 155.983C194.605 155.983 194.169 155.77 193.903 155.375ZM42.7889 152.884C42.1862 152.417 42.0757 151.549 42.5429 150.946C43.0101 150.341 43.8754 150.23 44.4808 150.697C45.0835 151.164 45.1968 152.032 44.7296 152.635C44.4559 152.989 44.0468 153.174 43.6348 153.174C43.339 153.174 43.0405 153.077 42.7889 152.884ZM191.302 152.035C190.793 151.466 190.843 150.592 191.412 150.083C191.982 149.575 192.858 149.625 193.364 150.197C193.873 150.766 193.823 151.64 193.254 152.149C192.988 152.381 192.662 152.497 192.333 152.497C191.954 152.497 191.575 152.342 191.302 152.035ZM45.5811 149.456C45.0475 148.914 45.053 148.038 45.5977 147.501C46.1395 146.965 47.0159 146.973 47.5522 147.515C48.0885 148.06 48.0802 148.936 47.5384 149.47C47.2674 149.735 46.9163 149.868 46.568 149.868C46.2086 149.868 45.852 149.732 45.5811 149.456ZM188.28 149.058C187.705 148.557 187.644 147.684 188.145 147.106C188.645 146.531 189.519 146.47 190.096 146.971C190.671 147.471 190.732 148.345 190.232 148.92C189.958 149.235 189.574 149.395 189.187 149.395C188.866 149.395 188.543 149.284 188.28 149.058ZM48.8073 146.434C48.3456 145.826 48.4645 144.958 49.0727 144.496C49.6809 144.035 50.5462 144.154 51.0078 144.762C51.4695 145.37 51.3506 146.238 50.7424 146.7C50.4936 146.888 50.2006 146.982 49.9075 146.982C49.4901 146.982 49.0782 146.791 48.8073 146.434ZM184.91 146.462C184.28 146.033 184.117 145.174 184.545 144.543C184.977 143.91 185.836 143.747 186.467 144.178C187.097 144.607 187.26 145.467 186.832 146.1C186.563 146.492 186.129 146.702 185.687 146.702C185.419 146.702 185.148 146.625 184.91 146.462ZM52.3873 143.847C52.0031 143.186 52.2242 142.34 52.8822 141.956C53.5401 141.569 54.3888 141.79 54.7731 142.451C55.1601 143.109 54.939 143.954 54.2783 144.342C54.0599 144.469 53.8193 144.53 53.5816 144.53C53.1061 144.53 52.6444 144.286 52.3873 143.847ZM181.258 144.253C180.584 143.891 180.332 143.053 180.692 142.381C181.054 141.707 181.891 141.455 182.563 141.815C183.238 142.177 183.489 143.015 183.13 143.686C182.878 144.154 182.403 144.416 181.908 144.416C181.69 144.416 181.466 144.364 181.258 144.253ZM177.388 142.409C176.683 142.113 176.354 141.303 176.65 140.598C176.946 139.896 177.756 139.567 178.461 139.863C179.163 140.159 179.495 140.969 179.199 141.671C178.975 142.202 178.463 142.52 177.922 142.52C177.745 142.52 177.562 142.484 177.388 142.409ZM56.2466 141.696C55.9342 140.999 56.2466 140.181 56.9433 139.869C57.6399 139.556 58.4555 139.869 58.7706 140.565C59.083 141.259 58.7706 142.077 58.0739 142.39C57.8915 142.473 57.698 142.511 57.51 142.511C56.982 142.511 56.4761 142.207 56.2466 141.696ZM173.355 140.911C172.63 140.673 172.235 139.891 172.473 139.166C172.708 138.439 173.49 138.044 174.214 138.282C174.941 138.519 175.337 139.299 175.099 140.026C174.908 140.609 174.366 140.98 173.786 140.98C173.642 140.98 173.498 140.955 173.355 140.911ZM60.3104 139.963C60.0644 139.241 60.4542 138.456 61.1757 138.21C61.9 137.967 62.6852 138.354 62.9284 139.078C63.1745 139.799 62.7847 140.585 62.0631 140.831C61.9166 140.88 61.7673 140.902 61.6181 140.902C61.043 140.902 60.504 140.54 60.3104 139.963ZM169.205 139.719C168.464 139.534 168.013 138.785 168.199 138.044C168.384 137.303 169.133 136.852 169.874 137.038C170.615 137.223 171.065 137.972 170.88 138.713C170.725 139.341 170.161 139.761 169.542 139.761C169.432 139.761 169.318 139.747 169.205 139.719ZM64.518 138.616C64.3328 137.875 64.7834 137.126 65.5243 136.944H65.5271C66.268 136.758 67.0172 137.209 67.1996 137.95C67.3849 138.691 66.9315 139.443 66.1906 139.625C66.08 139.653 65.9667 139.667 65.8561 139.667C65.2368 139.667 64.6729 139.247 64.518 138.616ZM164.934 138.782C164.185 138.622 163.709 137.889 163.869 137.143C164.03 136.396 164.762 135.918 165.509 136.078C166.255 136.239 166.733 136.971 166.573 137.718C166.435 138.367 165.86 138.812 165.221 138.812C165.127 138.812 165.031 138.804 164.934 138.782ZM68.8252 137.632C68.6704 136.886 69.1486 136.153 69.8978 135.998C70.6442 135.843 71.3768 136.322 71.5316 137.068C71.6865 137.817 71.2082 138.55 70.459 138.705C70.365 138.724 70.271 138.732 70.177 138.732C69.5357 138.732 68.9606 138.284 68.8252 137.632ZM160.571 137.751C159.833 137.557 159.391 136.803 159.584 136.065C159.775 135.324 160.533 134.884 161.271 135.075C162.009 135.268 162.451 136.023 162.258 136.761C162.095 137.383 161.536 137.795 160.922 137.795C160.806 137.795 160.687 137.781 160.571 137.751ZM73.1489 136.714C72.9747 135.971 73.4364 135.227 74.1801 135.053C74.9237 134.881 75.6674 135.343 75.8415 136.084C76.0129 136.828 75.5513 137.571 74.8076 137.745C74.7025 137.77 74.5975 137.781 74.4924 137.781C73.8649 137.781 73.2982 137.353 73.1489 136.714ZM77.4477 135.686C77.2487 134.948 77.6855 134.19 78.4236 133.994C79.1617 133.795 79.9192 134.234 80.1155 134.973C80.3145 135.708 79.8777 136.468 79.1396 136.664C79.018 136.695 78.8991 136.711 78.7802 136.711C78.1693 136.711 77.6108 136.305 77.4477 135.686ZM156.253 136.501C155.526 136.266 155.128 135.49 155.36 134.762C155.592 134.035 156.372 133.635 157.099 133.867C157.826 134.102 158.227 134.879 157.992 135.606C157.804 136.192 157.262 136.568 156.676 136.568C156.538 136.568 156.394 136.546 156.253 136.501ZM81.7078 134.514C81.4784 133.787 81.882 133.01 82.6091 132.78C83.3361 132.551 84.113 132.954 84.3424 133.682C84.5746 134.409 84.1683 135.185 83.4412 135.415C83.303 135.459 83.162 135.481 83.0265 135.481C82.4377 135.481 81.8931 135.102 81.7078 134.514ZM152.004 134.984C151.296 134.702 150.948 133.9 151.23 133.189C151.512 132.479 152.314 132.133 153.024 132.415C153.735 132.697 154.08 133.499 153.798 134.21C153.583 134.751 153.063 135.083 152.513 135.083C152.344 135.083 152.173 135.05 152.004 134.984ZM85.9072 133.142C85.6307 132.429 85.9818 131.627 86.6923 131.351C87.4028 131.072 88.2045 131.426 88.4837 132.136C88.7601 132.847 88.409 133.648 87.6986 133.925C87.5327 133.991 87.3613 134.022 87.1954 134.022C86.6425 134.022 86.12 133.687 85.9072 133.142ZM147.86 133.137C147.177 132.794 146.901 131.965 147.244 131.282C147.586 130.599 148.416 130.323 149.099 130.665C149.781 131.008 150.058 131.838 149.715 132.52C149.472 133.004 148.985 133.283 148.479 133.283C148.269 133.283 148.059 133.236 147.86 133.137ZM89.9959 131.473C89.642 130.795 89.9019 129.96 90.5792 129.604C91.2537 129.25 92.0914 129.513 92.4452 130.187C92.7991 130.864 92.5392 131.699 91.8619 132.053C91.6574 132.161 91.439 132.211 91.2233 132.211C90.7257 132.211 90.2447 131.943 89.9959 131.473ZM143.887 130.867C143.249 130.45 143.069 129.593 143.489 128.954C143.907 128.316 144.764 128.136 145.402 128.553C146.041 128.971 146.221 129.828 145.801 130.466C145.535 130.873 145.096 131.094 144.642 131.094C144.385 131.094 144.122 131.019 143.887 130.867ZM93.8524 129.314C93.3631 128.728 93.4405 127.857 94.0266 127.367C94.6126 126.878 95.4835 126.955 95.9728 127.539C96.4621 128.125 96.3847 128.996 95.8014 129.488C95.5415 129.703 95.2264 129.808 94.914 129.808C94.5186 129.808 94.1261 129.64 93.8524 129.314ZM140.213 128.047C139.649 127.533 139.608 126.657 140.122 126.093C140.636 125.529 141.51 125.487 142.074 126.002C142.638 126.516 142.679 127.389 142.165 127.956C141.891 128.255 141.518 128.407 141.142 128.407C140.811 128.407 140.479 128.288 140.213 128.047ZM97.0675 126.27C96.3764 125.946 96.0778 125.125 96.4013 124.434C96.7247 123.74 97.5486 123.442 98.2397 123.765C98.9308 124.089 99.2294 124.912 98.9059 125.604C98.671 126.107 98.1733 126.4 97.6536 126.4C97.4573 126.4 97.2583 126.358 97.0675 126.27ZM137.084 124.492C136.655 123.859 136.821 123.002 137.454 122.574C138.085 122.145 138.945 122.308 139.373 122.941C139.802 123.572 139.636 124.431 139.005 124.86C138.768 125.023 138.497 125.098 138.231 125.098C137.786 125.098 137.352 124.888 137.084 124.492ZM98.483 122.104C97.72 122.087 97.1173 121.451 97.1339 120.688C97.1532 119.925 97.7863 119.323 98.5493 119.339C99.3123 119.359 99.9178 119.992 99.8984 120.755C99.8791 121.507 99.2653 122.104 98.5189 122.104H98.483ZM135.11 119.859C135.016 119.101 135.552 118.413 136.31 118.316C137.067 118.222 137.759 118.761 137.853 119.519C137.949 120.276 137.41 120.967 136.653 121.061C136.595 121.067 136.537 121.073 136.481 121.073C135.793 121.073 135.199 120.558 135.11 119.859ZM95.1379 118.361C94.585 117.833 94.5684 116.956 95.0964 116.406C95.6245 115.856 96.5008 115.837 97.0509 116.367C97.6011 116.895 97.6204 117.772 97.0896 118.322C96.8187 118.604 96.4566 118.745 96.0944 118.745C95.7489 118.745 95.4033 118.618 95.1379 118.361ZM138.657 117.606C138.118 117.067 138.115 116.193 138.657 115.651C139.199 115.112 140.072 115.109 140.614 115.649C141.153 116.188 141.153 117.064 140.614 117.603C140.346 117.874 139.992 118.009 139.636 118.009C139.285 118.009 138.931 117.877 138.66 117.606H138.657ZM91.9781 115.132C91.4611 114.568 91.4998 113.694 92.061 113.177C92.6249 112.66 93.4985 112.699 94.0155 113.26C94.5325 113.824 94.4938 114.698 93.9326 115.215C93.6672 115.458 93.3327 115.577 92.9981 115.577C92.6249 115.577 92.2517 115.427 91.9781 115.132ZM141.745 114.44C141.17 113.937 141.112 113.064 141.615 112.489C142.118 111.914 142.989 111.856 143.564 112.359C144.139 112.862 144.197 113.736 143.694 114.311C143.423 114.623 143.039 114.78 142.655 114.78C142.331 114.78 142.008 114.67 141.745 114.44ZM89.0311 111.704C88.5528 111.109 88.6496 110.238 89.2439 109.76C89.8383 109.282 90.7091 109.376 91.1874 109.973C91.6657 110.567 91.5717 111.438 90.9745 111.916C90.7202 112.121 90.4133 112.221 90.1092 112.221C89.7056 112.221 89.3048 112.044 89.0311 111.704ZM144.615 111.073C144.004 110.614 143.882 109.746 144.341 109.138C144.8 108.527 145.668 108.406 146.276 108.864C146.887 109.323 147.009 110.191 146.55 110.8C146.276 111.162 145.864 111.352 145.444 111.352C145.154 111.352 144.863 111.261 144.615 111.073ZM86.3274 108.063C85.8961 107.432 86.0592 106.573 86.6895 106.141C87.3198 105.713 88.1796 105.873 88.6109 106.506C89.0421 107.137 88.879 107.996 88.2487 108.425C88.011 108.588 87.74 108.665 87.4691 108.665C87.0295 108.665 86.5955 108.455 86.3274 108.063ZM147.221 107.502C146.577 107.092 146.384 106.241 146.793 105.594C147.199 104.95 148.054 104.756 148.698 105.165C149.345 105.572 149.538 106.426 149.129 107.07C148.866 107.488 148.419 107.714 147.96 107.714C147.708 107.714 147.451 107.645 147.221 107.502ZM83.9333 104.187C83.5656 103.518 83.8089 102.677 84.4779 102.31C85.1441 101.939 85.9873 102.183 86.355 102.852C86.7227 103.521 86.4794 104.361 85.8104 104.729C85.6003 104.845 85.3708 104.9 85.1441 104.9C84.6576 104.9 84.1849 104.643 83.9333 104.187ZM149.524 103.725C148.844 103.377 148.573 102.545 148.922 101.865C149.267 101.185 150.099 100.914 150.779 101.262C151.46 101.608 151.73 102.44 151.382 103.12C151.139 103.601 150.655 103.874 150.152 103.874C149.939 103.874 149.726 103.827 149.524 103.725ZM81.9567 100.04C81.6719 99.3323 82.0147 98.5279 82.7252 98.2431C83.4329 97.9584 84.2374 98.3039 84.5221 99.0117C84.8069 99.7194 84.4613 100.524 83.7536 100.809C83.585 100.875 83.4108 100.908 83.2394 100.908C82.692 100.908 82.1723 100.579 81.9567 100.04ZM151.462 99.747C150.749 99.4733 150.395 98.6716 150.672 97.9611C150.948 97.2479 151.747 96.894 152.46 97.1705C153.171 97.4469 153.525 98.2459 153.251 98.9591C153.038 99.5065 152.516 99.841 151.96 99.841C151.794 99.841 151.625 99.8106 151.462 99.747ZM80.5661 95.6141C80.3975 94.8676 80.8674 94.1295 81.6111 93.9636C82.3547 93.795 83.0956 94.265 83.2615 95.0086C83.4301 95.7523 82.9602 96.4932 82.2165 96.6591C82.1142 96.6839 82.0119 96.695 81.9124 96.695C81.2793 96.695 80.7099 96.2582 80.5661 95.6141ZM152.977 95.5919C152.239 95.3984 151.797 94.641 151.993 93.9028C152.187 93.1647 152.944 92.7251 153.682 92.9214C154.42 93.1149 154.86 93.8724 154.666 94.6105C154.5 95.2298 153.942 95.6389 153.331 95.6389C153.212 95.6389 153.093 95.6251 152.977 95.5919ZM78.0642 94.6741C77.3675 94.3617 77.0579 93.5434 77.3703 92.8495C77.6827 92.1529 78.501 91.8405 79.1977 92.1529C79.8943 92.4653 80.2067 93.2836 79.8916 93.9802C79.6621 94.4944 79.159 94.7958 78.6309 94.7958C78.4402 94.7958 78.2494 94.7571 78.0642 94.6741ZM156.179 93.6015C155.764 92.9601 155.946 92.1031 156.588 91.6884C157.226 91.2738 158.083 91.4562 158.498 92.0976C158.915 92.7362 158.733 93.5932 158.092 94.0079C157.859 94.1599 157.6 94.2318 157.34 94.2318C156.889 94.2318 156.444 94.0079 156.179 93.6015ZM74.169 91.4562C73.7073 90.848 73.8234 89.98 74.4316 89.5183C75.0398 89.0566 75.9079 89.1755 76.3696 89.7837C76.8312 90.3919 76.7124 91.2599 76.1042 91.7216C75.8554 91.9096 75.5623 92.0008 75.2693 92.0008C74.8518 92.0008 74.4399 91.8129 74.169 91.4562ZM159.615 90.8287C158.971 90.4223 158.777 89.5681 159.186 88.9239C159.593 88.277 160.447 88.0863 161.094 88.4927C161.738 88.899 161.932 89.7533 161.522 90.4002C161.26 90.8148 160.812 91.0443 160.353 91.0443C160.101 91.0443 159.844 90.9752 159.615 90.8287ZM71.8689 87.2514C71.5897 86.5437 71.938 85.7392 72.6485 85.46C73.359 85.1808 74.1607 85.5263 74.4427 86.2368C74.7219 86.9473 74.3736 87.7518 73.6631 88.031C73.4972 88.0973 73.3258 88.1277 73.1572 88.1277C72.6043 88.1277 72.0845 87.796 71.8689 87.2514ZM161.771 86.9639C161.047 86.7178 160.66 85.9327 160.906 85.2112C161.152 84.4869 161.934 84.0998 162.659 84.3459C163.383 84.5919 163.77 85.3743 163.524 86.0986C163.328 86.6736 162.791 87.0385 162.216 87.0385C162.067 87.0385 161.918 87.0136 161.771 86.9639ZM70.553 82.7812C70.3982 82.032 70.8792 81.3021 71.6284 81.1473C72.3748 80.9925 73.1074 81.4735 73.2622 82.22C73.417 82.9691 72.936 83.699 72.1868 83.8538C72.0928 83.8731 71.9988 83.8814 71.9049 83.8814C71.2635 83.8814 70.6885 83.4336 70.553 82.7812ZM163.057 82.7231C162.302 82.5987 161.793 81.8882 161.918 81.1335C162.042 80.3815 162.753 79.8701 163.505 79.9945C164.259 80.1189 164.768 80.8294 164.644 81.5841C164.533 82.2614 163.947 82.7424 163.283 82.7424C163.209 82.7424 163.131 82.7342 163.057 82.7231ZM70.0471 78.1036C70.0471 77.3378 70.6636 76.7186 71.4294 76.7186C72.1924 76.7186 72.8116 77.3378 72.8116 78.1008C72.8116 78.8638 72.1924 79.4831 71.4294 79.4831C70.6663 79.4831 70.0471 78.8666 70.0471 78.1036ZM162.142 77.0282C162.095 76.2652 162.675 75.61 163.435 75.563C164.198 75.516 164.854 76.0965 164.901 76.8595C164.948 77.6198 164.367 78.275 163.604 78.322C163.576 78.3247 163.549 78.3247 163.518 78.3247C162.794 78.3247 162.186 77.7608 162.142 77.0282ZM71.5897 75.0128C70.9262 74.6341 70.694 73.7909 71.0727 73.1274C71.4487 72.464 72.2946 72.2317 72.9581 72.6105C73.6216 72.9892 73.8511 73.8324 73.4751 74.4959C73.2208 74.9437 72.7536 75.1953 72.2725 75.1953C72.0403 75.1953 71.8053 75.1345 71.5897 75.0128ZM161 73.8434C160.475 73.2905 160.494 72.417 161.047 71.8917C161.6 71.3637 162.476 71.3858 163.001 71.9387C163.529 72.4916 163.507 73.368 162.954 73.8932C162.686 74.1475 162.343 74.2747 162.001 74.2747C161.636 74.2747 161.271 74.131 161 73.8434ZM74.4178 71.6595C74.1994 70.9269 74.6168 70.1583 75.3494 69.9427C76.082 69.7243 76.8506 70.1418 77.069 70.8744C77.2846 71.6042 76.8672 72.3755 76.1373 72.5911C76.0046 72.6298 75.8719 72.6492 75.742 72.6492C75.1476 72.6492 74.5975 72.2594 74.4178 71.6595ZM157.84 72.3838C157.088 72.2483 156.588 71.5323 156.723 70.7804C156.856 70.0284 157.575 69.528 158.327 69.6635C159.079 69.7962 159.579 70.515 159.443 71.2669C159.325 71.9359 158.741 72.4059 158.083 72.4059C158.003 72.4059 157.923 72.3976 157.84 72.3838ZM78.0172 70.0699C78.0172 69.3041 78.6365 68.6849 79.3995 68.6849C80.1625 68.6849 80.7817 69.3041 80.7817 70.0699C80.7817 70.8329 80.1625 71.4494 79.3995 71.4494C78.6365 71.4494 78.0172 70.8329 78.0172 70.0699ZM154.265 68.8286C154.265 68.0656 154.885 67.4463 155.648 67.4463C156.411 67.4463 157.03 68.0656 157.03 68.8286C157.03 69.5916 156.411 70.2109 155.648 70.2109C154.885 70.2109 154.265 69.5916 154.265 68.8286ZM78.0172 65.6439C78.0172 64.8809 78.6365 64.2616 79.3995 64.2616C80.1625 64.2616 80.7817 64.8809 80.7817 65.6439C80.7817 66.4096 80.1625 67.0289 79.3995 67.0289C78.6365 67.0289 78.0172 66.4096 78.0172 65.6439ZM154.265 64.4054C154.265 63.6424 154.885 63.0231 155.648 63.0231C156.411 63.0231 157.03 63.6424 157.03 64.4054C157.03 65.1684 156.411 65.7876 155.648 65.7876C154.885 65.7876 154.265 65.1684 154.265 64.4054ZM78.0172 61.2206C78.0172 60.4576 78.6365 59.8411 79.3995 59.8411C80.1625 59.8411 80.7817 60.4576 80.7817 61.2206C80.7817 61.9864 80.1625 62.6029 79.3995 62.6029C78.6365 62.6029 78.0172 61.9864 78.0172 61.2206ZM154.265 59.9877C154.26 59.2247 154.876 58.6026 155.639 58.5999C156.405 58.5971 157.024 59.2108 157.03 59.9766C157.033 60.7396 156.416 61.3589 155.653 61.3644H155.648C154.888 61.3644 154.268 60.7507 154.265 59.9877ZM79.4188 58.1824C78.6558 58.141 78.0725 57.4885 78.1112 56.7283C78.1527 55.9653 78.8051 55.3792 79.5653 55.4207C80.3283 55.4621 80.9144 56.1146 80.873 56.8748C80.8343 57.6129 80.2233 58.1852 79.4935 58.1852C79.4686 58.1852 79.4437 58.1824 79.4188 58.1824ZM154.097 55.6695C154.042 54.9065 154.614 54.243 155.374 54.1877C156.134 54.1324 156.798 54.7019 156.856 55.4649C156.911 56.2252 156.339 56.8886 155.579 56.9439C155.543 56.9467 155.51 56.9495 155.474 56.9495C154.758 56.9495 154.152 56.3938 154.097 55.6695ZM79.7146 53.773C78.9571 53.6735 78.4236 52.9796 78.5231 52.2221C78.6226 51.4646 79.3165 50.9311 80.0713 51.0306C80.8287 51.1301 81.3623 51.824 81.2655 52.5787C81.1743 53.2754 80.5799 53.7841 79.8943 53.7841C79.8363 53.7841 79.7754 53.7785 79.7146 53.773ZM153.613 51.3872C153.497 50.6325 154.014 49.9276 154.769 49.8087C155.523 49.6926 156.231 50.2123 156.347 50.967C156.463 51.719 155.944 52.4267 155.192 52.5428C155.12 52.5539 155.048 52.5594 154.979 52.5594C154.307 52.5594 153.718 52.0701 153.613 51.3872ZM80.3532 49.3996C79.6068 49.2364 79.1368 48.4983 79.2999 47.7519C79.4631 47.0082 80.2012 46.5355 80.9448 46.6986C81.6913 46.8617 82.164 47.5998 81.9981 48.3435C81.8571 48.9904 81.2849 49.43 80.6518 49.43C80.5523 49.43 80.4528 49.4217 80.3532 49.3996ZM152.775 47.1741C152.593 46.4332 153.046 45.684 153.787 45.5016C154.528 45.3191 155.277 45.7725 155.46 46.5134C155.642 47.2543 155.189 48.0035 154.448 48.1859C154.337 48.2136 154.227 48.2246 154.116 48.2246C153.494 48.2246 152.93 47.8044 152.775 47.1741ZM81.3733 45.098C80.6463 44.863 80.2482 44.0834 80.4832 43.3591C80.7181 42.632 81.4977 42.2339 82.2248 42.4689C82.9519 42.7039 83.35 43.4835 83.115 44.2078C82.9242 44.7939 82.3824 45.1671 81.7991 45.1671C81.6581 45.1671 81.5143 45.145 81.3733 45.098ZM151.548 43.0743C151.291 42.3555 151.667 41.5649 152.386 41.3106C153.104 41.0535 153.895 41.4294 154.152 42.1482C154.409 42.867 154.033 43.6576 153.314 43.9147C153.16 43.9673 153.005 43.9949 152.85 43.9949C152.281 43.9949 151.75 43.6411 151.548 43.0743ZM82.8164 40.9208C82.117 40.6084 81.8046 39.7901 82.117 39.0934C82.4294 38.3968 83.2477 38.0844 83.9443 38.3968C84.641 38.7091 84.9534 39.5247 84.641 40.2241C84.4115 40.7355 83.9056 41.0424 83.3776 41.0424C83.1896 41.0424 82.9989 41.0037 82.8164 40.9208ZM149.9 39.1432C149.569 38.4548 149.853 37.6282 150.539 37.2937C151.227 36.9592 152.054 37.2467 152.388 37.9323C152.72 38.6207 152.435 39.4473 151.75 39.779C151.553 39.8758 151.349 39.92 151.144 39.92C150.633 39.92 150.141 39.6325 149.9 39.1432ZM84.7046 36.926C84.0494 36.5335 83.8365 35.6848 84.2263 35.0296C84.6189 34.3744 85.4676 34.1587 86.1228 34.5513C86.778 34.9411 86.9908 35.7926 86.6011 36.4478C86.3412 36.879 85.8823 37.1195 85.4123 37.1195C85.1718 37.1195 84.9257 37.0587 84.7046 36.926ZM147.819 35.4359C147.407 34.7946 147.589 33.9376 148.231 33.5257C148.872 33.111 149.729 33.2962 150.144 33.9376C150.555 34.5789 150.37 35.4332 149.729 35.8479C149.497 35.9971 149.24 36.069 148.982 36.069C148.529 36.069 148.084 35.8451 147.819 35.4359ZM87.0572 33.1829C86.4573 32.7129 86.3495 31.8448 86.8195 31.2422C87.2894 30.6395 88.1575 30.5345 88.7601 31.0044C89.36 31.4744 89.4679 32.3424 88.9979 32.9451C88.7242 33.2934 88.3178 33.4759 87.9087 33.4759C87.6101 33.4759 87.3088 33.3791 87.0572 33.1829ZM145.3 32.0218C144.811 31.4385 144.885 30.5649 145.469 30.0755C146.055 29.5835 146.926 29.6581 147.418 30.2414C147.907 30.8275 147.832 31.6983 147.249 32.1904C146.989 32.4088 146.674 32.5138 146.359 32.5138C145.966 32.5138 145.574 32.348 145.3 32.0218ZM89.8632 29.7659C89.3269 29.2213 89.3324 28.3477 89.877 27.8114C90.4216 27.2751 91.2952 27.2806 91.8315 27.8252C92.3678 28.3671 92.3595 29.2434 91.8177 29.7797C91.5468 30.0451 91.1984 30.1778 90.8474 30.1778C90.4907 30.1778 90.1341 30.0396 89.8632 29.7659ZM142.37 28.9614C141.806 28.4472 141.767 27.5709 142.284 27.0097C142.798 26.4457 143.675 26.407 144.236 26.924C144.8 27.4382 144.838 28.3145 144.321 28.8757C144.051 29.1743 143.677 29.3236 143.301 29.3236C142.97 29.3236 142.635 29.2047 142.37 28.9614ZM93.0866 26.7388C92.6249 26.1306 92.7438 25.2653 93.352 24.8036C93.9602 24.3419 94.8283 24.4608 95.2899 25.069C95.7516 25.6772 95.63 26.5452 95.0218 27.0069C94.773 27.1949 94.4799 27.2861 94.1897 27.2861C93.7722 27.2861 93.3575 27.0982 93.0866 26.7388ZM139.063 26.3047C138.439 25.8652 138.289 25.0054 138.729 24.3806C139.168 23.7558 140.028 23.6038 140.653 24.0434C141.278 24.4829 141.43 25.3454 140.99 25.9702C140.722 26.3517 140.294 26.5563 139.857 26.5563C139.583 26.5563 139.307 26.4761 139.063 26.3047ZM96.675 24.1539C96.2935 23.4932 96.5202 22.6473 97.1836 22.2658C97.8444 21.887 98.6903 22.1137 99.069 22.7772C99.4506 23.4379 99.2239 24.2839 98.5604 24.6626C98.3447 24.787 98.107 24.8478 97.872 24.8478C97.3937 24.8478 96.9293 24.599 96.675 24.1539ZM135.442 24.0876C134.767 23.7282 134.51 22.8933 134.867 22.2188C135.223 21.5442 136.061 21.2871 136.736 21.6438C137.41 22.0004 137.667 22.838 137.311 23.5126C137.062 23.9798 136.584 24.2479 136.086 24.2479C135.868 24.2479 135.646 24.1954 135.442 24.0876ZM100.559 22.0391C100.261 21.3369 100.59 20.5241 101.292 20.2283C101.997 19.9297 102.807 20.2587 103.105 20.9609C103.401 21.6659 103.072 22.4759 102.37 22.7744C102.193 22.8491 102.01 22.8823 101.831 22.8823C101.294 22.8823 100.78 22.5671 100.559 22.0391ZM131.566 22.3238C130.853 22.0501 130.499 21.2512 130.773 20.5379C131.046 19.8275 131.845 19.4708 132.558 19.7445C133.272 20.0182 133.626 20.8199 133.352 21.5304C133.142 22.0805 132.617 22.4178 132.061 22.4178C131.898 22.4178 131.729 22.3874 131.566 22.3238ZM104.667 20.408C104.452 19.6754 104.872 18.9069 105.604 18.6912C106.337 18.4784 107.106 18.8986 107.318 19.6312C107.534 20.3638 107.114 21.1323 106.381 21.3452C106.251 21.3839 106.121 21.4005 105.991 21.4005C105.394 21.4005 104.841 21.0107 104.667 20.408ZM127.502 21.0245C126.764 20.8337 126.319 20.079 126.51 19.3409C126.703 18.6028 127.455 18.1577 128.196 18.3484C128.934 18.5392 129.379 19.2939 129.189 20.032C129.025 20.6568 128.464 21.0687 127.85 21.0687C127.737 21.0687 127.618 21.0549 127.502 21.0245ZM108.936 19.2552C108.803 18.5033 109.303 17.7872 110.055 17.6545C110.807 17.5218 111.526 18.025 111.659 18.7769C111.789 19.5289 111.288 20.2449 110.536 20.3776C110.456 20.3914 110.373 20.397 110.296 20.397C109.638 20.397 109.052 19.927 108.936 19.2552ZM123.314 20.1841C122.556 20.0735 122.034 19.3741 122.145 18.6194C122.252 17.8619 122.955 17.3394 123.709 17.4472C124.464 17.5578 124.989 18.2572 124.879 19.0147C124.779 19.7031 124.187 20.1979 123.513 20.1979C123.447 20.1979 123.38 20.1924 123.314 20.1841ZM113.304 18.5751C113.251 17.8149 113.826 17.1542 114.589 17.1044C115.352 17.0519 116.01 17.6269 116.063 18.3899C116.112 19.1502 115.537 19.8109 114.777 19.8606C114.744 19.8606 114.713 19.8662 114.68 19.8662C113.962 19.8662 113.353 19.305 113.304 18.5751ZM119.051 19.797C118.291 19.7694 117.694 19.128 117.724 18.365C117.752 17.602 118.393 17.0049 119.156 17.0353C119.919 17.0629 120.513 17.7043 120.486 18.4673C120.458 19.2137 119.844 19.7998 119.106 19.7998C119.087 19.7998 119.07 19.797 119.051 19.797Z" fill="url(#paint8_linear_1233_7848)"/>
<path d="M78.0195 64.9446C78.0195 64.1816 78.6388 63.5623 79.4018 63.5623C80.1648 63.5623 80.7841 64.1816 80.7841 64.9446C80.7841 65.7076 80.1648 66.3268 79.4018 66.3268C78.6388 66.3268 78.0195 65.7076 78.0195 64.9446ZM82.4345 64.8893C82.3819 64.129 82.9542 63.4683 83.7172 63.413C84.4775 63.3605 85.1382 63.9355 85.1935 64.6958C85.246 65.4588 84.671 66.1195 83.9107 66.172C83.8776 66.1748 83.8444 66.1748 83.8112 66.1748C83.0924 66.1748 82.4842 65.6191 82.4345 64.8893ZM86.8328 64.5161C86.7167 63.7613 87.2309 63.0564 87.9856 62.9403C88.7403 62.8214 89.4481 63.3384 89.5642 64.0931C89.683 64.8478 89.1661 65.5528 88.4114 65.6716C88.3395 65.6827 88.2676 65.6882 88.1957 65.6882C87.5267 65.6882 86.9379 65.1989 86.8328 64.5161ZM91.1814 63.7641C90.9907 63.026 91.4358 62.2713 92.1766 62.0833C92.9148 61.8925 93.6695 62.3376 93.8602 63.0757C94.051 63.8166 93.6031 64.5686 92.865 64.7593C92.7489 64.7897 92.6328 64.8036 92.5194 64.8036C91.903 64.8036 91.3418 64.3889 91.1814 63.7641ZM95.436 62.5809C95.1651 61.8676 95.5245 61.0687 96.2377 60.7978C96.951 60.5269 97.7499 60.8862 98.0208 61.5995C98.2918 62.3155 97.9324 63.1117 97.2164 63.3826C97.056 63.4434 96.8902 63.4738 96.727 63.4738C96.1686 63.4738 95.6434 63.1338 95.436 62.5809ZM99.5303 60.9277C99.1792 60.2476 99.4446 59.4155 100.122 59.0644C100.799 58.7133 101.634 58.9787 101.985 59.656C102.336 60.3333 102.071 61.1682 101.394 61.5193C101.189 61.6244 100.973 61.6741 100.758 61.6741C100.257 61.6741 99.7763 61.4032 99.5303 60.9277ZM103.409 58.8129C102.986 58.177 103.16 57.32 103.799 56.897C104.435 56.4768 105.292 56.651 105.712 57.2868C106.135 57.9227 105.961 58.7797 105.325 59.2026C105.09 59.3575 104.824 59.4321 104.562 59.4321C104.114 59.4321 103.674 59.2137 103.409 58.8129ZM107.047 56.3054C106.574 55.7055 106.677 54.8375 107.274 54.3647C107.874 53.8892 108.742 53.9915 109.217 54.5914C109.69 55.1886 109.588 56.0594 108.988 56.5321C108.733 56.7339 108.432 56.8307 108.133 56.8307C107.724 56.8307 107.321 56.651 107.047 56.3054ZM110.481 53.5216C109.983 52.9438 110.044 52.0702 110.622 51.5726C111.199 51.0722 112.073 51.1358 112.571 51.7136C113.071 52.2886 113.007 53.1622 112.432 53.6625C112.17 53.8892 111.846 53.9998 111.526 53.9998C111.139 53.9998 110.754 53.8367 110.481 53.5216ZM113.815 50.616C113.32 50.0355 113.389 49.1619 113.972 48.6671C114.553 48.1722 115.424 48.2441 115.918 48.8246C116.413 49.4052 116.344 50.2788 115.764 50.7736C115.504 50.9948 115.183 51.1026 114.868 51.1026C114.475 51.1026 114.088 50.9367 113.815 50.616ZM117.204 47.7741C116.753 47.1604 116.886 46.2951 117.5 45.8417C118.116 45.3911 118.981 45.5238 119.432 46.1375C119.885 46.754 119.753 47.6193 119.136 48.0699C118.89 48.2524 118.603 48.3381 118.321 48.3381C117.895 48.3381 117.475 48.1446 117.204 47.7741ZM120.817 45.2335C120.455 44.5617 120.704 43.7213 121.376 43.3592C122.047 42.997 122.885 43.2458 123.25 43.9176C123.612 44.5894 123.363 45.427 122.691 45.7892C122.481 45.9025 122.257 45.9578 122.033 45.9578C121.544 45.9578 121.069 45.6952 120.817 45.2335ZM142.814 44.7857C142.118 44.4733 141.803 43.6577 142.112 42.9583C142.425 42.2617 143.24 41.9493 143.94 42.2589C144.636 42.5713 144.949 43.3868 144.639 44.0835C144.41 44.6004 143.904 44.9045 143.376 44.9045C143.188 44.9045 142.997 44.8658 142.814 44.7857ZM124.765 43.2569C124.53 42.5326 124.928 41.753 125.655 41.518C126.379 41.283 127.159 41.6811 127.394 42.4054C127.629 43.1325 127.231 43.9121 126.504 44.1471C126.363 44.1941 126.219 44.2134 126.078 44.2134C125.495 44.2134 124.953 43.843 124.765 43.2569ZM138.889 43.5333C138.142 43.3785 137.661 42.6459 137.819 41.8967C137.974 41.1503 138.706 40.6693 139.453 40.8269C140.199 40.9817 140.68 41.7143 140.525 42.4607C140.39 43.1131 139.815 43.561 139.174 43.561C139.08 43.561 138.986 43.5527 138.889 43.5333ZM129.008 42.0543C128.912 41.2968 129.445 40.6029 130.203 40.5062C130.96 40.4094 131.651 40.9457 131.751 41.7032C131.845 42.4607 131.311 43.1518 130.554 43.2486C130.493 43.2569 130.435 43.2596 130.377 43.2596C129.691 43.2596 129.097 42.751 129.008 42.0543ZM134.742 43.0578C133.979 43.033 133.379 42.3971 133.401 41.6341C133.423 40.8711 134.062 40.2712 134.825 40.2933C135.588 40.3182 136.188 40.954 136.166 41.717C136.141 42.4662 135.527 43.0578 134.783 43.0578H134.742Z" fill="url(#paint9_linear_1233_7848)"/>
<path d="M21.3782 170.317C20.9276 169.7 21.0658 168.835 21.6823 168.387C22.2988 167.937 23.1641 168.075 23.6147 168.691C24.0626 169.308 23.9271 170.173 23.3078 170.621C23.0618 170.801 22.7771 170.886 22.4978 170.886C22.0693 170.886 21.6491 170.69 21.3782 170.317ZM18.8183 166.64C18.3953 166.004 18.5695 165.147 19.2053 164.724C19.8384 164.301 20.6981 164.473 21.1211 165.108C21.5441 165.744 21.3699 166.601 20.7341 167.024C20.4991 167.182 20.2337 167.256 19.9711 167.256C19.5232 167.256 19.0837 167.041 18.8183 166.64ZM16.4159 162.858C16.0206 162.206 16.2279 161.357 16.8803 160.959C17.5328 160.564 18.3815 160.771 18.7796 161.423C19.1749 162.076 18.9675 162.927 18.3151 163.323C18.0912 163.458 17.8424 163.524 17.5991 163.524C17.1319 163.524 16.6758 163.287 16.4159 162.858ZM14.1711 158.98C13.8034 158.313 14.0467 157.47 14.7157 157.102C15.3847 156.735 16.2251 156.978 16.5928 157.647C16.9605 158.316 16.7172 159.156 16.0482 159.524C15.8381 159.64 15.6086 159.696 15.3847 159.696C14.8954 159.696 14.4227 159.438 14.1711 158.98ZM12.0922 155.012C11.7521 154.33 12.0314 153.497 12.7142 153.16C13.397 152.82 14.2264 153.097 14.5692 153.779C14.9065 154.465 14.63 155.294 13.9444 155.634C13.7481 155.731 13.538 155.778 13.3307 155.778C12.822 155.778 12.3355 155.499 12.0922 155.012ZM10.1819 150.96C9.8695 150.263 10.1847 149.445 10.8813 149.135C11.578 148.823 12.3963 149.135 12.7059 149.834C13.0183 150.531 12.7059 151.347 12.0065 151.659C11.824 151.739 11.6333 151.778 11.4453 151.778C10.9145 151.778 10.4113 151.474 10.1819 150.96ZM8.44301 146.832C8.16102 146.122 8.50659 145.317 9.21707 145.035C9.92755 144.756 10.7293 145.102 11.0112 145.812C11.2932 146.52 10.9477 147.324 10.2372 147.606C10.0685 147.673 9.89715 147.703 9.72851 147.703C9.17837 147.703 8.65864 147.374 8.44301 146.832ZM206.726 146.265C206.012 145.995 205.656 145.196 205.927 144.482C206.198 143.769 206.997 143.41 207.71 143.683C208.423 143.954 208.782 144.753 208.511 145.467C208.301 146.017 207.776 146.357 207.218 146.357C207.055 146.357 206.889 146.326 206.726 146.265ZM6.87829 142.633C6.62672 141.911 7.00822 141.123 7.72699 140.872C8.44853 140.62 9.23642 141.002 9.488 141.721C9.73957 142.442 9.35806 143.23 8.63929 143.482C8.48724 143.534 8.33519 143.559 8.18314 143.559C7.61089 143.559 7.07733 143.202 6.87829 142.633ZM208.268 142.119C207.544 141.878 207.154 141.096 207.395 140.372C207.635 139.647 208.42 139.257 209.145 139.498C209.866 139.738 210.259 140.521 210.018 141.245C209.825 141.826 209.286 142.191 208.705 142.191C208.561 142.191 208.415 142.168 208.268 142.119ZM5.4905 138.373C5.2721 137.64 5.68401 136.869 6.41385 136.65C7.14645 136.429 7.91775 136.841 8.13891 137.574C8.36007 138.304 7.94539 139.075 7.21556 139.296C7.0801 139.335 6.9474 139.354 6.8147 139.354C6.22033 139.354 5.67296 138.97 5.4905 138.373ZM209.634 137.911C208.901 137.701 208.478 136.935 208.688 136.203C208.898 135.47 209.664 135.044 210.4 135.254C211.132 135.467 211.555 136.233 211.345 136.966C211.171 137.571 210.618 137.966 210.018 137.966C209.891 137.966 209.764 137.95 209.634 137.911ZM4.28517 134.057C4.09441 133.319 4.54227 132.564 5.28039 132.374C6.02129 132.186 6.77324 132.631 6.96399 133.369C7.15474 134.11 6.70689 134.862 5.96876 135.053C5.85265 135.083 5.73654 135.097 5.62319 135.097C5.00947 135.097 4.44551 134.682 4.28517 134.057ZM210.823 133.651C210.082 133.471 209.626 132.725 209.805 131.981C209.985 131.24 210.731 130.784 211.472 130.964C212.216 131.144 212.672 131.893 212.492 132.634C212.338 133.267 211.774 133.69 211.149 133.69C211.041 133.69 210.933 133.679 210.823 133.651ZM3.26229 129.695C3.10471 128.949 3.58021 128.216 4.32663 128.056C5.07305 127.898 5.80842 128.373 5.96599 129.12C6.12634 129.869 5.64807 130.602 4.90165 130.759C4.8049 130.781 4.70814 130.79 4.61414 130.79C3.97554 130.79 3.40052 130.345 3.26229 129.695ZM211.832 129.344C211.082 129.195 210.596 128.467 210.742 127.718C210.892 126.969 211.619 126.483 212.368 126.632C213.117 126.781 213.604 127.508 213.454 128.257C213.324 128.915 212.747 129.371 212.1 129.371C212.011 129.371 211.92 129.363 211.832 129.344ZM2.42188 125.297C2.29747 124.542 2.80338 123.829 3.55533 123.701C4.31005 123.574 5.02329 124.08 5.1477 124.835C5.27763 125.587 4.76896 126.3 4.01701 126.427C3.9396 126.441 3.86219 126.447 3.78479 126.447C3.1213 126.447 2.53799 125.968 2.42188 125.297ZM212.655 124.998C211.901 124.882 211.384 124.174 211.503 123.419C211.619 122.665 212.324 122.151 213.078 122.267C213.833 122.383 214.35 123.088 214.234 123.842C214.129 124.525 213.54 125.015 212.871 125.015C212.799 125.015 212.727 125.009 212.655 124.998ZM1.76945 120.862C1.67269 120.105 2.20901 119.414 2.96649 119.32C3.72397 119.223 4.4151 119.759 4.51186 120.517C4.60861 121.274 4.0723 121.965 3.31482 122.062C3.254 122.068 3.19594 122.073 3.13789 122.073C2.45229 122.073 1.85792 121.562 1.76945 120.862ZM213.3 120.622C212.539 120.536 211.995 119.85 212.08 119.093C212.166 118.336 212.849 117.788 213.609 117.874C214.367 117.96 214.914 118.642 214.828 119.403C214.748 120.108 214.148 120.63 213.454 120.63C213.405 120.63 213.352 120.63 213.3 120.622ZM1.29948 116.409C1.2359 115.648 1.79986 114.979 2.56287 114.916C3.32311 114.849 3.99213 115.416 4.05571 116.176C4.11929 116.937 3.55533 117.606 2.79509 117.669C2.75362 117.672 2.71492 117.675 2.67621 117.675C1.96573 117.675 1.3603 117.13 1.29948 116.409ZM213.759 116.221C212.998 116.168 212.423 115.507 212.479 114.744C212.531 113.984 213.192 113.409 213.955 113.462C214.715 113.517 215.29 114.178 215.235 114.938C215.182 115.668 214.577 116.223 213.858 116.223C213.825 116.223 213.792 116.223 213.759 116.221ZM1.0175 111.938C0.984326 111.175 1.57593 110.531 2.33894 110.498C3.10195 110.465 3.74608 111.057 3.77926 111.82C3.81243 112.583 3.22082 113.227 2.45782 113.26C2.4357 113.26 2.41635 113.263 2.397 113.263C1.66163 113.26 1.04791 112.682 1.0175 111.938ZM214.035 111.806C213.272 111.784 212.672 111.145 212.694 110.385C212.716 109.619 213.355 109.019 214.118 109.041C214.881 109.063 215.481 109.702 215.459 110.465C215.437 111.214 214.823 111.806 214.076 111.806H214.035ZM0.917978 107.46C0.915213 106.697 1.53447 106.078 2.29747 106.075C3.06048 106.075 3.6825 106.691 3.6825 107.454C3.6825 108.22 3.06601 108.839 2.303 108.839C1.54 108.842 0.917978 108.223 0.917978 107.46ZM212.733 106.017C212.725 105.254 213.336 104.626 214.099 104.618C214.862 104.61 215.486 105.221 215.497 105.984C215.506 106.747 214.895 107.371 214.132 107.382H214.115C213.358 107.382 212.741 106.774 212.733 106.017ZM2.32788 104.419C1.56488 104.388 0.973268 103.744 1.00368 102.984C1.03132 102.221 1.67546 101.627 2.43846 101.654C3.20147 101.685 3.79585 102.329 3.76544 103.092C3.73503 103.836 3.12407 104.419 2.38317 104.419H2.32788ZM212.592 101.652C212.55 100.891 213.137 100.239 213.897 100.2C214.66 100.159 215.312 100.745 215.351 101.508C215.392 102.268 214.806 102.921 214.043 102.959C214.018 102.962 213.993 102.962 213.969 102.962C213.239 102.962 212.631 102.39 212.592 101.652ZM2.53799 100.001C1.77498 99.9404 1.21102 99.2741 1.27184 98.5111C1.33266 97.7509 1.99891 97.1842 2.75915 97.245C3.52216 97.3086 4.08888 97.9748 4.0253 98.735C3.96725 99.4566 3.36458 100.007 2.65133 100.007C2.61263 100.007 2.57393 100.004 2.53799 100.001ZM212.268 97.3003C212.197 96.54 212.755 95.8655 213.515 95.7936C214.275 95.7217 214.95 96.2802 215.022 97.0404C215.094 97.8006 214.535 98.4752 213.775 98.5471C213.731 98.5498 213.687 98.5526 213.642 98.5526C212.94 98.5526 212.338 98.0163 212.268 97.3003ZM2.92779 95.5973C2.17031 95.5033 1.63122 94.815 1.72522 94.0575C1.81921 93.3 2.50758 92.7609 3.26506 92.8521C4.02254 92.9461 4.56162 93.6345 4.46762 94.3948C4.38192 95.0942 3.78755 95.6084 3.09919 95.6084C3.0439 95.6084 2.98584 95.6028 2.92779 95.5973ZM211.768 92.9655C211.663 92.2108 212.194 91.5114 212.949 91.4091C213.706 91.304 214.403 91.8348 214.508 92.5895C214.61 93.347 214.082 94.0437 213.324 94.1487C213.261 94.157 213.197 94.1598 213.137 94.1598C212.456 94.1598 211.862 93.6594 211.768 92.9655ZM3.50281 91.2128C2.74809 91.0884 2.23942 90.3751 2.36382 89.6232C2.48823 88.8712 3.20147 88.3598 3.95342 88.4842C4.70814 88.6086 5.21681 89.3219 5.09241 90.0738C4.97906 90.7511 4.39298 91.2321 3.7295 91.2321C3.65485 91.2321 3.57745 91.2266 3.50281 91.2128ZM211.085 88.6556C210.95 87.9037 211.45 87.1849 212.202 87.0522C212.951 86.9167 213.67 87.4143 213.806 88.1663C213.941 88.9182 213.441 89.637 212.691 89.7725C212.608 89.7863 212.526 89.7946 212.443 89.7946C211.787 89.7946 211.207 89.3246 211.085 88.6556ZM4.25752 86.8559C3.5111 86.6983 3.03284 85.9685 3.18765 85.2193C3.34523 84.4729 4.07783 83.9946 4.82425 84.1494C5.57067 84.307 6.05169 85.0396 5.89412 85.786C5.75866 86.4385 5.18364 86.8863 4.54227 86.8863C4.44827 86.8863 4.35428 86.8753 4.25752 86.8559ZM210.223 84.3789C210.057 83.6325 210.527 82.8943 211.27 82.7285C212.014 82.5626 212.755 83.0298 212.921 83.7762C213.087 84.5199 212.62 85.2608 211.873 85.4266C211.771 85.4488 211.671 85.4598 211.569 85.4598C210.939 85.4598 210.366 85.023 210.223 84.3789ZM5.19746 82.535C4.45933 82.347 4.00871 81.595 4.1967 80.8541C4.38469 80.116 5.13664 79.6681 5.87753 79.8534C6.61566 80.0414 7.06351 80.7933 6.87829 81.5342C6.72071 82.159 6.15951 82.5764 5.54026 82.5764C5.42968 82.5764 5.31357 82.5626 5.20022 82.535H5.19746ZM209.183 80.1409C208.984 79.4028 209.421 78.6453 210.159 78.449C210.897 78.2499 211.655 78.6867 211.851 79.4249C212.05 80.163 211.613 80.9205 210.875 81.1168C210.756 81.1499 210.635 81.1665 210.516 81.1665C209.905 81.1665 209.346 80.7574 209.183 80.1409ZM6.31709 78.2555C5.58449 78.0371 5.16981 77.2685 5.38821 76.5359C5.60661 75.8061 6.37791 75.3887 7.10774 75.6071C7.84034 75.8255 8.25502 76.5968 8.03662 77.3266C7.85693 77.9265 7.30955 78.3135 6.71242 78.3135C6.58248 78.3135 6.44979 78.2969 6.31709 78.2555ZM207.964 75.9499C207.735 75.2228 208.141 74.446 208.868 74.2193C209.598 73.9898 210.372 74.3962 210.601 75.1233C210.831 75.8503 210.425 76.6272 209.697 76.8566C209.559 76.8981 209.418 76.9202 209.283 76.9202C208.694 76.9202 208.149 76.5415 207.964 75.9499ZM7.61641 74.0285C6.89487 73.7797 6.51061 72.9918 6.75941 72.2703C7.00822 71.5487 7.79611 71.1672 8.51765 71.416C9.23919 71.6648 9.62346 72.4527 9.37465 73.1743C9.1756 73.7465 8.63929 74.1059 8.06703 74.1059C7.91775 74.1059 7.7657 74.081 7.61641 74.0285ZM206.571 71.8169C206.311 71.0981 206.684 70.3047 207.4 70.0476C208.119 69.7877 208.912 70.1609 209.169 70.877C209.429 71.5957 209.056 72.3892 208.337 72.6463C208.182 72.7043 208.025 72.7292 207.87 72.7292C207.303 72.7292 206.773 72.3809 206.571 71.8169ZM9.09543 69.8486C8.38495 69.5693 8.03386 68.7676 8.31307 68.0571C8.59229 67.3467 9.39677 66.9983 10.1072 67.2775C10.8177 67.5568 11.1661 68.3585 10.8868 69.069C10.674 69.6136 10.1515 69.9453 9.60134 69.9453C9.4327 69.9453 9.2613 69.9149 9.09543 69.8486ZM205.003 67.742C204.716 67.037 205.053 66.2298 205.761 65.9395C206.466 65.652 207.273 65.9893 207.563 66.697C207.851 67.4047 207.513 68.212 206.806 68.4995C206.634 68.5686 206.457 68.6018 206.283 68.6018C205.739 68.6018 205.222 68.2783 205.003 67.742ZM10.7486 65.7377C10.0492 65.4281 9.73404 64.6125 10.0437 63.9159C10.3533 63.2165 11.1688 62.9013 11.8682 63.2109C12.5649 63.5178 12.8801 64.3361 12.5732 65.0328C12.3437 65.5497 11.8378 65.8566 11.3071 65.8566C11.1191 65.8566 10.9311 65.8179 10.7486 65.7377ZM203.273 63.75C202.955 63.0561 203.259 62.2351 203.953 61.9171C204.647 61.5992 205.465 61.9033 205.786 62.5972C206.104 63.2911 205.799 64.1122 205.106 64.4301C204.918 64.5158 204.721 64.5545 204.528 64.5545C204.005 64.5545 203.505 64.2559 203.273 63.75ZM12.5732 61.7015C11.8876 61.3615 11.6084 60.5321 11.9457 59.8493C12.2829 59.1637 13.1123 58.8845 13.7979 59.2217C14.4807 59.559 14.7627 60.3884 14.4254 61.074C14.1849 61.5605 13.6928 61.8425 13.1842 61.8425C12.9796 61.8425 12.7695 61.7983 12.5732 61.7015ZM201.373 59.8299C201.028 59.1499 201.296 58.3177 201.976 57.9722C202.656 57.6238 203.488 57.8948 203.837 58.5748C204.182 59.2549 203.914 60.087 203.234 60.4326C203.032 60.5349 202.817 60.5846 202.606 60.5846C202.103 60.5846 201.617 60.3082 201.373 59.8299ZM14.5664 57.7455C13.8946 57.3778 13.6486 56.5374 14.0163 55.8684C14.3812 55.1994 15.2216 54.9533 15.8934 55.3182C16.5624 55.6859 16.8084 56.5263 16.4408 57.1953C16.1892 57.6543 15.7165 57.9141 15.2271 57.9141C15.0032 57.9141 14.7765 57.8588 14.5664 57.7455ZM199.314 55.9928C198.938 55.3265 199.173 54.4833 199.836 54.1101C200.503 53.7342 201.346 53.9691 201.722 54.6354C202.095 55.2989 201.86 56.1421 201.197 56.518C200.981 56.6397 200.749 56.695 200.516 56.695C200.035 56.695 199.565 56.4434 199.314 55.9928ZM16.72 53.8751C16.0676 53.4826 15.8575 52.6311 16.25 51.9787C16.6453 51.3235 17.4941 51.1134 18.1465 51.5087C18.8017 51.9013 19.0118 52.7528 18.6192 53.4052C18.3593 53.8364 17.9004 54.0742 17.4332 54.0742C17.19 54.0742 16.9439 54.0106 16.72 53.8751ZM197.094 52.2441C196.69 51.5944 196.889 50.7429 197.539 50.3393C198.186 49.9385 199.04 50.1375 199.441 50.7844C199.845 51.4341 199.646 52.2855 198.996 52.6892C198.769 52.8302 198.518 52.8965 198.269 52.8965C197.807 52.8965 197.354 52.6643 197.094 52.2441ZM19.0367 50.1016C18.398 49.6814 18.2239 48.8244 18.6441 48.1858C19.0671 47.5499 19.9241 47.3758 20.5599 47.796C21.1985 48.2162 21.3727 49.0759 20.9525 49.7118C20.6843 50.1126 20.2447 50.331 19.7969 50.331C19.5343 50.331 19.2716 50.2564 19.0367 50.1016ZM194.717 48.5866C194.288 47.9563 194.451 47.0965 195.084 46.668C195.714 46.2395 196.574 46.4026 197.003 47.033C197.434 47.666 197.268 48.5258 196.638 48.9543C196.4 49.1146 196.129 49.1921 195.861 49.1921C195.419 49.1921 194.985 48.9819 194.717 48.5866ZM21.5054 46.4303C20.8861 45.9824 20.7479 45.1171 21.1957 44.5007C21.6436 43.8814 22.5061 43.7404 23.1254 44.1883C23.7446 44.6361 23.8829 45.4986 23.435 46.1179C23.1641 46.4939 22.7439 46.6902 22.3154 46.6902C22.0334 46.6902 21.7514 46.6072 21.5054 46.4303ZM192.192 45.0342C191.736 44.4205 191.864 43.5552 192.477 43.099C193.091 42.6457 193.956 42.7728 194.412 43.3866C194.866 43.9975 194.739 44.8656 194.125 45.319C193.879 45.5042 193.589 45.5926 193.304 45.5926C192.881 45.5926 192.463 45.3991 192.192 45.0342ZM24.1261 42.8641C23.5262 42.3913 23.424 41.5205 23.8967 40.9206C24.3694 40.3235 25.2375 40.2184 25.8374 40.6911C26.4373 41.1639 26.5396 42.0347 26.0668 42.6346C25.7931 42.9802 25.3895 43.1599 24.9804 43.1599C24.6818 43.1599 24.3805 43.0631 24.1261 42.8641ZM189.519 41.5868C189.041 40.9925 189.132 40.1244 189.724 39.6434C190.318 39.1624 191.189 39.2536 191.67 39.848C192.148 40.4423 192.057 41.3132 191.463 41.7914C191.208 41.9988 190.901 42.101 190.595 42.101C190.191 42.101 189.793 41.9241 189.519 41.5868ZM26.8907 39.4084C26.3129 38.9136 26.2465 38.04 26.7414 37.4594C27.239 36.8816 28.1126 36.8153 28.6904 37.3129C29.2709 37.8077 29.3373 38.6813 28.8396 39.2591C28.566 39.5798 28.1789 39.7429 27.7919 39.7429C27.4712 39.7429 27.1533 39.6323 26.8907 39.4084ZM186.705 38.2528C186.202 37.6806 186.257 36.807 186.829 36.3039C187.404 35.7979 188.278 35.8532 188.781 36.4255C189.287 37.0005 189.229 37.8741 188.657 38.3772C188.394 38.6095 188.068 38.7228 187.744 38.7228C187.36 38.7228 186.979 38.5625 186.705 38.2528ZM29.7989 36.0744C29.2405 35.5547 29.2073 34.6811 29.7298 34.1226C30.2496 33.5642 31.1259 33.5338 31.6843 34.0535C32.24 34.5733 32.2704 35.4496 31.7507 36.008C31.4798 36.2983 31.1093 36.4476 30.7389 36.4476C30.4016 36.4476 30.0643 36.3232 29.7989 36.0744ZM183.755 35.0377C183.23 34.4876 183.247 33.6112 183.799 33.0832C184.352 32.5552 185.226 32.5745 185.754 33.1274C186.282 33.6776 186.263 34.5539 185.71 35.0819C185.442 35.339 185.099 35.4662 184.756 35.4662C184.391 35.4662 184.029 35.3224 183.755 35.0377ZM32.8399 32.8648C32.3036 32.3202 32.3091 31.4466 32.851 30.9103C33.3956 30.3739 34.2692 30.3795 34.8055 30.9213C35.3418 31.4659 35.3363 32.3423 34.7944 32.8786C34.5235 33.144 34.1724 33.2767 33.8241 33.2767C33.4647 33.2767 33.1081 33.1385 32.8399 32.8648ZM180.675 31.947C180.125 31.4189 180.109 30.5426 180.637 29.9924C181.165 29.4423 182.041 29.4257 182.591 29.9565C183.141 30.4845 183.158 31.3609 182.63 31.911C182.356 32.193 181.994 32.334 181.632 32.334C181.289 32.334 180.944 32.2068 180.675 31.947ZM36.0108 29.7823C35.4966 29.2184 35.5381 28.3448 36.1048 27.8306C36.6688 27.3164 37.5424 27.3606 38.0566 27.9246C38.5708 28.4885 38.5265 29.3649 37.9626 29.8763C37.6972 30.1168 37.3654 30.2357 37.0337 30.2357C36.6577 30.2357 36.2817 30.0837 36.0108 29.7823ZM177.466 28.9862C176.896 28.4803 176.841 27.6067 177.347 27.0372C177.853 26.4649 178.727 26.4096 179.299 26.9183C179.871 27.4242 179.924 28.2978 179.418 28.8673C179.144 29.1769 178.765 29.3345 178.381 29.3345C178.057 29.3345 177.729 29.2211 177.466 28.9862ZM39.3061 26.8381C38.8168 26.252 38.8942 25.3785 39.4803 24.8891C40.0664 24.3998 40.9372 24.48 41.4265 25.0661C41.9158 25.6521 41.8384 26.523 41.2523 27.0123C40.9952 27.2279 40.6801 27.333 40.3677 27.333C39.9724 27.333 39.5798 27.1643 39.3061 26.8381ZM174.137 26.1608C173.546 25.6798 173.457 24.809 173.938 24.2174C174.419 23.6258 175.29 23.5345 175.882 24.0183C176.476 24.4993 176.565 25.3702 176.084 25.9618C175.81 26.2963 175.412 26.4704 175.008 26.4704C174.704 26.4704 174.395 26.3709 174.137 26.1608ZM42.7203 24.0294C42.2559 23.4239 42.3692 22.5559 42.9746 22.0914C43.5801 21.627 44.4481 21.7431 44.9126 22.3485C45.377 22.954 45.2637 23.822 44.6582 24.2865C44.4067 24.4772 44.1109 24.5712 43.8178 24.5712C43.4031 24.5712 42.9912 24.386 42.7203 24.0294ZM170.696 23.4765C170.082 23.0203 169.957 22.1523 170.414 21.5413C170.87 20.9303 171.738 20.8059 172.349 21.2621C172.96 21.7182 173.084 22.5835 172.628 23.1973C172.357 23.5594 171.942 23.7502 171.519 23.7502C171.232 23.7502 170.942 23.6617 170.696 23.4765ZM46.2478 21.3699C45.8083 20.7451 45.9576 19.8826 46.5823 19.443C47.2071 19.0035 48.0697 19.1555 48.5092 19.7803C48.946 20.4051 48.7967 21.2649 48.1719 21.7044C47.9314 21.8758 47.6522 21.956 47.3785 21.956C46.9445 21.956 46.516 21.7514 46.2478 21.3699ZM167.14 20.9359C166.51 20.5046 166.35 19.6448 166.781 19.0145C167.212 18.3842 168.072 18.2239 168.702 18.6551C169.333 19.0864 169.493 19.9462 169.062 20.5765C168.794 20.9663 168.362 21.1791 167.92 21.1791C167.652 21.1791 167.378 21.099 167.14 20.9359ZM49.8804 18.857C49.4685 18.2156 49.6537 17.3586 50.2951 16.9467C50.9392 16.5348 51.7935 16.72 52.2054 17.3641C52.6201 18.0055 52.4321 18.8597 51.7907 19.2744C51.5585 19.4209 51.3014 19.4928 51.0443 19.4928C50.5909 19.4928 50.1458 19.2689 49.8804 18.857ZM163.483 18.5473C162.836 18.1409 162.64 17.2895 163.043 16.6426C163.447 15.9929 164.301 15.7966 164.948 16.2002C165.595 16.6039 165.794 17.4581 165.388 18.105C165.128 18.5252 164.677 18.7547 164.216 18.7547C163.964 18.7547 163.712 18.6883 163.483 18.5473ZM53.6153 16.4988C53.2283 15.8409 53.4494 14.9921 54.1101 14.6079C54.7681 14.2236 55.614 14.4448 56.0011 15.1027C56.3853 15.7635 56.1642 16.6094 55.5062 16.9937C55.2851 17.1236 55.0446 17.1844 54.8096 17.1844C54.3341 17.1844 53.8724 16.9384 53.6153 16.4988ZM159.729 16.3108C159.065 15.9349 158.833 15.0889 159.209 14.4254C159.588 13.7619 160.431 13.5297 161.094 13.9057C161.758 14.2817 161.99 15.1276 161.614 15.7911C161.36 16.2389 160.893 16.4905 160.412 16.4905C160.179 16.4905 159.944 16.4325 159.729 16.3108ZM57.4414 14.301C57.0848 13.6265 57.3419 12.7888 58.0164 12.4322C58.691 12.0728 59.5258 12.3299 59.8852 13.0045C60.2419 13.679 59.9848 14.5167 59.3102 14.8733C59.1029 14.9839 58.8817 15.0336 58.6633 15.0336C58.1685 15.0336 57.6902 14.7682 57.4414 14.301ZM155.883 14.2319C155.206 13.8836 154.938 13.0515 155.286 12.3714C155.634 11.6941 156.467 11.4259 157.147 11.7742C157.827 12.1226 158.095 12.9547 157.747 13.6348C157.501 14.113 157.017 14.3867 156.514 14.3867C156.301 14.3867 156.085 14.337 155.883 14.2319ZM61.356 12.2636C61.027 11.5752 61.32 10.7486 62.0084 10.4196C62.6967 10.0907 63.5233 10.3809 63.8523 11.0721C64.1813 11.7604 63.8883 12.5843 63.1999 12.9132C63.0091 13.0045 62.8046 13.0487 62.6055 13.0487C62.0886 13.0487 61.5937 12.7584 61.356 12.2636ZM151.955 12.3189C151.261 11.9982 150.96 11.1771 151.278 10.4832C151.598 9.79208 152.419 9.48799 153.113 9.80867C153.804 10.1294 154.108 10.9504 153.788 11.6415C153.556 12.1475 153.055 12.446 152.533 12.446C152.339 12.446 152.14 12.4046 151.955 12.3189ZM65.3535 10.392C65.0521 9.6898 65.3783 8.87703 66.0805 8.57846C66.7827 8.27713 67.5955 8.60334 67.8941 9.30553C68.1954 10.0077 67.8692 10.8205 67.167 11.1191C66.9901 11.1965 66.8048 11.2324 66.6251 11.2324C66.0861 11.2324 65.5774 10.9172 65.3535 10.392ZM147.946 10.5689C147.239 10.2786 146.901 9.4714 147.192 8.76645C147.485 8.06149 148.292 7.72422 148.997 8.0145C149.702 8.30477 150.039 9.11201 149.749 9.81696C149.53 10.3505 149.013 10.674 148.472 10.674C148.295 10.674 148.118 10.6408 147.946 10.5689ZM69.4201 8.68904C69.1491 7.97579 69.5113 7.17961 70.2245 6.90869C70.9378 6.63776 71.7367 6.99715 72.0077 7.7104C72.2758 8.42641 71.9164 9.22259 71.2032 9.49352C71.0428 9.55434 70.877 9.58474 70.7139 9.58474C70.1554 9.58474 69.6302 9.24194 69.4201 8.68904ZM143.866 8.99314C143.15 8.73051 142.777 7.93985 143.039 7.22108C143.299 6.5023 144.093 6.13186 144.809 6.39449C145.527 6.65435 145.898 7.44777 145.638 8.16378C145.433 8.72498 144.903 9.07607 144.339 9.07607C144.181 9.07607 144.021 9.04843 143.866 8.99314ZM73.5696 7.15749C73.3291 6.43319 73.7217 5.65083 74.446 5.41032C75.1703 5.1698 75.9526 5.56237 76.1931 6.28667C76.4337 7.01374 76.0411 7.79333 75.3168 8.03385C75.1703 8.08361 75.0238 8.10573 74.88 8.10573C74.3022 8.10573 73.7604 7.73804 73.5696 7.15749ZM139.722 7.586C138.995 7.35654 138.591 6.57971 138.821 5.85264C139.05 5.12281 139.827 4.72195 140.554 4.95141C141.284 5.18086 141.687 5.95769 141.455 6.68476C141.27 7.2736 140.725 7.65234 140.139 7.65234C140.001 7.65234 139.86 7.63023 139.722 7.586ZM77.7772 5.80011C77.5671 5.06475 77.9928 4.30174 78.7282 4.09164C79.4608 3.88154 80.2266 4.30727 80.4367 5.04264C80.644 5.77523 80.2211 6.54101 79.4857 6.74835C79.3585 6.78705 79.2313 6.80364 79.1069 6.80364C78.5043 6.80364 77.9514 6.40831 77.7772 5.80011ZM135.534 6.36131C134.798 6.16227 134.361 5.40202 134.561 4.66666C134.76 3.92853 135.517 3.49174 136.255 3.69078C136.993 3.88983 137.427 4.65007 137.228 5.38544C137.062 6.00192 136.504 6.40831 135.896 6.40831C135.777 6.40831 135.655 6.39172 135.534 6.36131ZM82.0401 4.61966C81.8604 3.87877 82.3193 3.13235 83.0602 2.95266C83.8039 2.77573 84.5503 3.23187 84.7272 3.97553C84.9069 4.71642 84.448 5.46284 83.7071 5.64254C83.5965 5.66742 83.4887 5.68124 83.3837 5.68124C82.7589 5.68124 82.1922 5.2555 82.0401 4.61966ZM131.298 5.31079C130.555 5.14492 130.087 4.40403 130.253 3.66037C130.422 2.91395 131.163 2.44675 131.907 2.61539C132.65 2.78402 133.12 3.52215 132.952 4.2658C132.808 4.90994 132.236 5.34673 131.602 5.34673C131.503 5.34673 131.401 5.33567 131.298 5.31079ZM86.3472 3.62167C86.2007 2.87249 86.6873 2.14542 87.4364 1.9989C88.1856 1.85238 88.9127 2.33893 89.0592 3.08812C89.2057 3.8373 88.7192 4.56437 87.97 4.71089C87.8788 4.73024 87.7903 4.73854 87.7019 4.73854C87.055 4.73854 86.4772 4.27963 86.3472 3.62167ZM127.022 4.44273C126.272 4.30451 125.775 3.58573 125.91 2.83378C126.046 2.0846 126.767 1.58422 127.516 1.72244C128.268 1.85791 128.766 2.57668 128.631 3.32863C128.509 3.99765 127.926 4.46485 127.27 4.46485C127.19 4.46485 127.107 4.45656 127.022 4.44273ZM90.6931 2.80337C90.577 2.04866 91.0967 1.34371 91.8486 1.2276C92.6033 1.11425 93.3111 1.63122 93.4244 2.38593C93.5405 3.14064 93.0236 3.8456 92.2688 3.96171C92.197 3.97277 92.1279 3.97829 92.056 3.97829C91.387 3.97829 90.7981 3.48897 90.6931 2.80337ZM122.715 3.7516C121.957 3.64655 121.429 2.94989 121.534 2.19241C121.639 1.43493 122.339 0.906911 123.093 1.01196C123.851 1.11701 124.379 1.81644 124.274 2.57115C124.177 3.26505 123.585 3.76543 122.905 3.76543C122.842 3.76543 122.778 3.7599 122.715 3.7516ZM95.0693 2.1703C94.9836 1.41005 95.531 0.727217 96.2912 0.644281C97.0487 0.561346 97.7315 1.10596 97.8172 1.8662C97.9002 2.62368 97.3528 3.30928 96.5953 3.39222C96.5428 3.39775 96.4903 3.40051 96.4405 3.40051C95.7466 3.40051 95.1467 2.87802 95.0693 2.1703ZM118.38 3.24293C117.62 3.16829 117.064 2.49375 117.138 1.7335C117.21 0.973259 117.885 0.417591 118.645 0.489468C119.405 0.56411 119.964 1.23865 119.889 1.9989C119.82 2.71491 119.217 3.24846 118.515 3.24846C118.471 3.24846 118.424 3.2457 118.38 3.24293ZM99.4677 1.71692C99.4151 0.956672 99.9901 0.295952 100.75 0.243426C101.513 0.193664 102.171 0.76592 102.227 1.52893C102.276 2.28917 101.701 2.94989 100.941 3.00242C100.908 3.00518 100.878 3.00518 100.844 3.00518C100.126 3.00518 99.5174 2.44675 99.4677 1.71692ZM114.028 2.91395C113.265 2.87249 112.682 2.22006 112.724 1.45705C112.765 0.694043 113.417 0.110729 114.18 0.152196C114.943 0.193664 115.527 0.846092 115.485 1.6091C115.444 2.34446 114.833 2.91395 114.106 2.91395H114.028ZM103.883 1.44876C103.86 0.685749 104.463 0.0499092 105.226 0.0305575C105.989 0.00844134 106.625 0.611107 106.644 1.37412C106.666 2.13712 106.064 2.77296 105.301 2.79231C105.301 2.79231 105.276 2.79231 105.262 2.79231C104.516 2.79231 103.902 2.19794 103.883 1.44599V1.44876ZM109.666 2.76467C108.903 2.75361 108.292 2.12607 108.303 1.36306C108.314 0.600049 108.942 -0.0109103 109.705 0.000147773C110.468 0.00844134 111.079 0.635988 111.068 1.40176C111.057 2.15647 110.44 2.76467 109.685 2.76467H109.666Z" fill="url(#paint10_linear_1233_7848)"/>
<defs>
<linearGradient id="paint0_linear_1233_7848" x1="86.5659" y1="145.668" x2="148.792" y2="145.668" gradientUnits="userSpaceOnUse">
<stop stop-color="#8CD6D6"/>
<stop offset="1" stop-color="#FF9F80"/>
</linearGradient>
<linearGradient id="paint1_linear_1233_7848" x1="91.8952" y1="172.868" x2="55.6523" y2="172.868" gradientUnits="userSpaceOnUse">
<stop stop-color="#8CD6D6"/>
<stop offset="1" stop-color="#FF9F80"/>
</linearGradient>
<linearGradient id="paint2_linear_1233_7848" x1="90.8756" y1="141.085" x2="72.1764" y2="141.085" gradientUnits="userSpaceOnUse">
<stop stop-color="#8CD6D6"/>
<stop offset="1" stop-color="#FF9F80"/>
</linearGradient>
<linearGradient id="paint3_linear_1233_7848" x1="133.125" y1="186.008" x2="174.427" y2="186.008" gradientUnits="userSpaceOnUse">
<stop stop-color="#8CD6D6"/>
<stop offset="1" stop-color="#FF9F80"/>
</linearGradient>
<linearGradient id="paint4_linear_1233_7848" x1="127.871" y1="171.243" x2="139.466" y2="171.243" gradientUnits="userSpaceOnUse">
<stop stop-color="#8CD6D6"/>
<stop offset="1" stop-color="#FF9F80"/>
</linearGradient>
<linearGradient id="paint5_linear_1233_7848" x1="139.653" y1="157.785" x2="151.247" y2="157.785" gradientUnits="userSpaceOnUse">
<stop stop-color="#8CD6D6"/>
<stop offset="1" stop-color="#FF9F80"/>
</linearGradient>
<linearGradient id="paint6_linear_1233_7848" x1="179.734" y1="171.243" x2="168.137" y2="171.243" gradientUnits="userSpaceOnUse">
<stop stop-color="#8CD6D6"/>
<stop offset="1" stop-color="#FF9F80"/>
</linearGradient>
<linearGradient id="paint7_linear_1233_7848" x1="167.954" y1="157.785" x2="156.359" y2="157.785" gradientUnits="userSpaceOnUse">
<stop stop-color="#8CD6D6"/>
<stop offset="1" stop-color="#FF9F80"/>
</linearGradient>
<linearGradient id="paint8_linear_1233_7848" x1="35.4961" y1="112.516" x2="201.705" y2="112.516" gradientUnits="userSpaceOnUse">
<stop stop-color="#8CD6D6"/>
<stop offset="1" stop-color="#FF9F80"/>
</linearGradient>
<linearGradient id="paint9_linear_1233_7848" x1="78.0195" y1="53.3087" x2="144.758" y2="53.3087" gradientUnits="userSpaceOnUse">
<stop stop-color="#8CD6D6"/>
<stop offset="1" stop-color="#FF9F80"/>
</linearGradient>
<linearGradient id="paint10_linear_1233_7848" x1="0.917978" y1="85.4432" x2="215.497" y2="85.4432" gradientUnits="userSpaceOnUse">
<stop stop-color="#8CD6D6"/>
<stop offset="1" stop-color="#FF9F80"/>
</linearGradient>
</defs>
</svg>
