<svg width="214" height="248" viewBox="0 0 214 248" fill="none" xmlns="http://www.w3.org/2000/svg">
<g clip-path="url(#clip0_1233_7106)">
<path d="M105.93 247.806C105.141 247.8 104.507 247.16 104.51 246.374C104.516 245.588 105.159 244.954 105.947 244.959C106.735 244.962 107.372 245.603 107.366 246.391C107.366 247.174 106.724 247.806 105.938 247.806H105.93ZM109.08 246.363C109.051 245.577 109.665 244.917 110.453 244.888C111.242 244.86 111.904 245.472 111.933 246.257C111.964 247.043 111.347 247.704 110.559 247.732C110.542 247.735 110.522 247.735 110.505 247.735C109.742 247.735 109.108 247.131 109.08 246.363ZM101.303 247.681C100.515 247.644 99.9094 246.975 99.9466 246.192C99.9837 245.406 100.655 244.8 101.443 244.837C102.228 244.877 102.837 245.543 102.8 246.329C102.762 247.092 102.131 247.684 101.375 247.684C101.352 247.684 101.326 247.684 101.303 247.681ZM113.644 246.158C113.581 245.375 114.166 244.689 114.952 244.626C115.74 244.561 116.428 245.147 116.491 245.93C116.554 246.713 115.968 247.399 115.183 247.462C115.143 247.467 115.103 247.467 115.066 247.467C114.329 247.467 113.703 246.904 113.644 246.158ZM96.6851 247.359C95.8997 247.288 95.3228 246.593 95.3942 245.813C95.4656 245.028 96.1625 244.453 96.9478 244.524C97.7332 244.595 98.3101 245.29 98.2387 246.072C98.1702 246.81 97.5476 247.365 96.8193 247.365C96.7736 247.365 96.7308 247.365 96.6851 247.359ZM118.193 245.756C118.096 244.976 118.653 244.268 119.435 244.168C120.218 244.071 120.932 244.626 121.026 245.406C121.123 246.186 120.569 246.898 119.787 246.995C119.727 247 119.67 247.006 119.61 247.006C118.898 247.006 118.284 246.477 118.193 245.756ZM92.0871 246.838C91.3046 246.733 90.7591 246.015 90.8647 245.235C90.9704 244.458 91.6901 243.912 92.4698 244.017C93.2523 244.122 93.8006 244.84 93.6921 245.62C93.5979 246.334 92.9838 246.852 92.2813 246.852C92.2156 246.852 92.1528 246.847 92.0871 246.838ZM122.722 245.159C122.591 244.384 123.114 243.65 123.893 243.519C124.67 243.388 125.407 243.912 125.538 244.686C125.67 245.46 125.144 246.195 124.368 246.326C124.288 246.34 124.208 246.346 124.128 246.346C123.445 246.346 122.84 245.853 122.722 245.159ZM87.5119 246.118C86.7379 245.978 86.221 245.238 86.361 244.464C86.5009 243.692 87.2434 243.177 88.0202 243.317C88.7971 243.456 89.3111 244.196 89.1712 244.971C89.0484 245.66 88.4458 246.141 87.7689 246.141C87.6833 246.141 87.5976 246.135 87.5119 246.118ZM127.221 244.367C127.055 243.596 127.546 242.841 128.317 242.676C129.088 242.511 129.848 243.001 130.014 243.769C130.176 244.541 129.685 245.295 128.914 245.46C128.814 245.48 128.714 245.492 128.614 245.492C127.957 245.492 127.363 245.033 127.221 244.367ZM82.9767 245.198C82.2056 245.028 81.723 244.265 81.8972 243.499C82.0714 242.73 82.8368 242.249 83.605 242.423C84.3732 242.596 84.8559 243.359 84.6817 244.125C84.5332 244.786 83.9448 245.235 83.2908 245.235C83.188 245.235 83.0824 245.224 82.9767 245.198ZM131.679 243.376C131.482 242.616 131.939 241.839 132.701 241.64C133.466 241.443 134.246 241.899 134.443 242.662C134.643 243.422 134.183 244.199 133.421 244.396C133.301 244.427 133.181 244.444 133.061 244.444C132.427 244.444 131.847 244.017 131.679 243.376ZM78.4815 244.085H78.4843C77.7218 243.878 77.2734 243.097 77.4791 242.337C77.6875 241.58 78.4729 241.133 79.2326 241.338C79.9951 241.546 80.4435 242.329 80.235 243.086C80.0637 243.721 79.4868 244.137 78.8585 244.137C78.7357 244.137 78.6071 244.119 78.4815 244.085ZM136.091 242.195C135.86 241.443 136.282 240.646 137.036 240.416C137.79 240.185 138.59 240.607 138.821 241.358C139.053 242.11 138.63 242.907 137.876 243.137C137.736 243.18 137.593 243.2 137.456 243.2C136.845 243.2 136.28 242.807 136.091 242.195ZM74.0434 242.776C73.2923 242.537 72.8782 241.734 73.1181 240.985C73.358 240.236 74.1633 239.824 74.9144 240.063C75.6627 240.302 76.0797 241.105 75.8369 241.853C75.6427 242.457 75.0829 242.844 74.4775 242.844C74.3347 242.844 74.1862 242.821 74.0434 242.776ZM140.446 240.82C140.181 240.08 140.569 239.266 141.312 239.001C142.054 238.739 142.871 239.126 143.137 239.866C143.402 240.607 143.014 241.421 142.271 241.685C142.111 241.74 141.951 241.768 141.791 241.768C141.206 241.768 140.655 241.404 140.446 240.82ZM69.6538 241.267H69.651C68.9142 240.997 68.5343 240.177 68.8085 239.439C69.0798 238.702 69.9023 238.323 70.642 238.597C71.3817 238.87 71.7587 239.687 71.4873 240.424C71.2731 240.999 70.7277 241.355 70.1479 241.355C69.9823 241.355 69.8166 241.327 69.6538 241.267ZM144.736 239.257C144.439 238.528 144.793 237.7 145.521 237.404C146.252 237.108 147.086 237.458 147.383 238.187C147.68 238.916 147.329 239.747 146.598 240.043C146.421 240.114 146.241 240.145 146.061 240.145C145.498 240.145 144.962 239.812 144.736 239.257ZM65.3357 239.57C64.6074 239.266 64.2647 238.432 64.5703 237.708C64.8759 236.983 65.7155 236.641 66.4409 236.946C67.1692 237.25 67.509 238.084 67.2035 238.81C66.975 239.354 66.4466 239.681 65.8869 239.681C65.7041 239.681 65.5156 239.647 65.3357 239.57ZM148.946 237.515C148.617 236.8 148.931 235.955 149.648 235.627C150.365 235.3 151.213 235.613 151.542 236.331C151.87 237.045 151.556 237.888 150.839 238.215C150.645 238.303 150.442 238.346 150.245 238.346C149.702 238.346 149.185 238.036 148.946 237.515ZM61.0975 237.686C60.3835 237.353 60.0808 236.504 60.4178 235.793C60.7548 235.081 61.6059 234.779 62.317 235.112C63.031 235.448 63.3366 236.296 62.9996 237.008C62.7539 237.523 62.2427 237.825 61.7087 237.825C61.5031 237.825 61.2946 237.78 61.0975 237.686ZM153.075 235.588C152.715 234.887 152.992 234.03 153.695 233.672C154.397 233.316 155.257 233.592 155.617 234.292C155.977 234.99 155.7 235.85 154.997 236.208C154.789 236.314 154.566 236.365 154.346 236.365C153.829 236.365 153.326 236.08 153.075 235.588ZM56.9479 235.622C56.251 235.255 55.9826 234.395 56.351 233.697C56.7194 233.003 57.5819 232.735 58.2787 233.102C58.9756 233.47 59.244 234.329 58.8756 235.027C58.6186 235.511 58.1217 235.787 57.6104 235.787C57.3848 235.787 57.1592 235.733 56.945 235.622H56.9479ZM157.116 233.484C156.728 232.801 156.968 231.932 157.653 231.545C158.339 231.155 159.21 231.394 159.601 232.078C159.989 232.761 159.749 233.632 159.064 234.019C158.841 234.144 158.599 234.204 158.361 234.204C157.865 234.204 157.379 233.945 157.116 233.484ZM52.8953 233.379C52.2128 232.983 51.9843 232.109 52.3813 231.431C52.7811 230.751 53.655 230.523 54.3347 230.919C55.0173 231.315 55.2457 232.189 54.8488 232.866C54.5832 233.319 54.1034 233.572 53.6122 233.572C53.3694 233.572 53.1209 233.509 52.8953 233.379ZM161.066 231.206C160.646 230.54 160.849 229.661 161.517 229.245C162.186 228.826 163.068 229.029 163.485 229.695C163.905 230.361 163.702 231.238 163.034 231.656C162.797 231.804 162.537 231.875 162.277 231.875C161.8 231.875 161.337 231.639 161.066 231.206ZM48.9456 230.962C48.2802 230.535 48.0888 229.655 48.5172 228.994C48.9427 228.331 49.8281 228.14 50.4906 228.567C51.1532 228.994 51.3446 229.874 50.919 230.535C50.6449 230.959 50.1851 231.186 49.7167 231.186C49.4511 231.186 49.1826 231.115 48.9456 230.962ZM164.913 228.758C164.465 228.112 164.627 227.227 165.279 226.78C165.927 226.333 166.815 226.498 167.263 227.144C167.712 227.79 167.546 228.678 166.898 229.123C166.649 229.293 166.369 229.376 166.09 229.376C165.635 229.376 165.19 229.16 164.913 228.758ZM45.1044 228.377C44.4589 227.921 44.3076 227.033 44.7617 226.392C45.2186 225.749 46.1097 225.598 46.7522 226.051C47.3977 226.506 47.549 227.395 47.0921 228.035C46.8151 228.428 46.3753 228.639 45.9269 228.636C45.6413 228.636 45.3528 228.553 45.1044 228.377ZM168.648 226.148C168.174 225.518 168.3 224.627 168.928 224.152C169.56 223.679 170.453 223.805 170.928 224.431C171.404 225.06 171.279 225.951 170.648 226.427C170.391 226.62 170.091 226.714 169.791 226.714C169.357 226.714 168.931 226.518 168.648 226.148ZM41.3803 225.627C40.7548 225.146 40.6434 224.252 41.1261 223.631C41.6087 223.008 42.5055 222.897 43.1281 223.378C43.7535 223.859 43.8649 224.753 43.3823 225.373C43.1024 225.735 42.6797 225.926 42.2542 225.926C41.9486 225.926 41.6402 225.829 41.3803 225.627ZM172.27 223.375C171.77 222.768 171.856 221.872 172.464 221.374C173.072 220.872 173.972 220.958 174.475 221.564C174.974 222.171 174.889 223.067 174.28 223.568C174.015 223.788 173.692 223.893 173.372 223.893C172.961 223.893 172.553 223.716 172.27 223.375ZM37.779 222.723C37.1764 222.213 37.1021 221.317 37.6133 220.716C38.1217 220.115 39.0241 220.041 39.6239 220.548C40.2265 221.058 40.3007 221.954 39.7924 222.555C39.5096 222.888 39.107 223.059 38.7014 223.059C38.3758 223.059 38.0474 222.948 37.779 222.723ZM175.768 220.451C175.24 219.865 175.288 218.965 175.874 218.438C176.459 217.915 177.365 217.96 177.89 218.544C178.419 219.13 178.373 220.03 177.785 220.554C177.513 220.801 177.171 220.921 176.831 220.921C176.439 220.921 176.051 220.761 175.768 220.451ZM34.3119 219.665C33.7321 219.13 33.695 218.231 34.229 217.653C34.766 217.075 35.6684 217.041 36.2482 217.573C36.8279 218.105 36.8622 219.008 36.3281 219.583C36.0454 219.887 35.6627 220.041 35.2772 220.041C34.9316 220.041 34.586 219.916 34.3119 219.665ZM179.138 217.377C178.584 216.816 178.593 215.913 179.155 215.364C179.718 214.812 180.623 214.82 181.175 215.381C181.729 215.942 181.72 216.844 181.157 217.394C180.88 217.667 180.518 217.801 180.158 217.801C179.787 217.801 179.418 217.658 179.138 217.377ZM30.9762 216.46C30.4221 215.905 30.425 215.002 30.9819 214.447C31.5416 213.895 32.447 213.898 33.0039 214.456C33.5608 215.014 33.5551 215.913 32.9953 216.468C32.7183 216.745 32.3556 216.881 31.99 216.881C31.6245 216.881 31.256 216.742 30.9762 216.46ZM182.371 214.16C181.797 213.622 181.766 212.722 182.303 212.147C182.842 211.572 183.745 211.541 184.322 212.079C184.899 212.614 184.927 213.516 184.39 214.089C184.11 214.39 183.728 214.541 183.345 214.541C182.997 214.541 182.648 214.416 182.371 214.16ZM27.7861 213.118C27.2549 212.537 27.2977 211.637 27.8803 211.108C28.463 210.578 29.3654 210.618 29.8966 211.202C30.4278 211.783 30.3878 212.682 29.8024 213.212C29.5311 213.459 29.1855 213.582 28.8428 213.582C28.4544 213.582 28.0688 213.425 27.7861 213.118ZM185.464 210.803C184.864 210.294 184.796 209.394 185.307 208.796C185.821 208.201 186.721 208.13 187.32 208.643C187.92 209.152 187.989 210.052 187.478 210.65C187.195 210.977 186.795 211.148 186.392 211.148C186.064 211.148 185.733 211.034 185.464 210.803ZM24.7445 209.642C24.2391 209.038 24.319 208.142 24.9245 207.638C25.5299 207.134 26.4324 207.214 26.9379 207.817C27.4405 208.421 27.3606 209.317 26.7551 209.821C26.4895 210.043 26.1639 210.151 25.8412 210.151C25.4328 210.151 25.0273 209.978 24.7445 209.642ZM188.409 207.319C187.786 206.835 187.677 205.941 188.166 205.32C188.651 204.703 189.548 204.594 190.171 205.078C190.79 205.565 190.899 206.459 190.413 207.077C190.131 207.436 189.711 207.623 189.288 207.623C188.98 207.623 188.668 207.524 188.409 207.319ZM21.8572 206.038C21.3803 205.414 21.5002 204.52 22.1285 204.042C22.754 203.564 23.6507 203.686 24.1277 204.31C24.6075 204.933 24.4875 205.827 23.8592 206.305C23.6022 206.502 23.2966 206.599 22.9939 206.596C22.5655 206.596 22.14 206.405 21.8601 206.038H21.8572ZM191.199 203.712C190.556 203.254 190.411 202.363 190.868 201.725C191.327 201.084 192.221 200.939 192.861 201.395C193.504 201.853 193.649 202.741 193.192 203.382C192.912 203.769 192.473 203.977 192.03 203.977C191.741 203.977 191.45 203.891 191.199 203.712ZM19.127 202.314C18.6757 201.668 18.8357 200.783 19.4839 200.333C20.1294 199.883 21.0204 200.04 21.4717 200.686C21.9229 201.329 21.763 202.217 21.1175 202.667C20.8662 202.841 20.5835 202.923 20.3007 202.923C19.8495 202.923 19.404 202.71 19.127 202.314ZM193.829 199.983C193.169 199.553 192.984 198.67 193.415 198.013C193.846 197.355 194.729 197.17 195.391 197.6C196.051 198.027 196.237 198.909 195.805 199.57C195.531 199.988 195.077 200.213 194.609 200.213C194.343 200.213 194.072 200.139 193.829 199.983ZM16.5652 198.477C16.1425 197.813 16.3396 196.934 17.005 196.512C17.6704 196.091 18.5529 196.288 18.9756 196.951C19.3983 197.614 19.2012 198.494 18.5358 198.915C18.2987 199.066 18.0331 199.137 17.7704 199.137C17.2992 199.137 16.8365 198.904 16.5652 198.477ZM196.297 196.145C195.62 195.744 195.394 194.87 195.797 194.195C196.197 193.518 197.073 193.296 197.753 193.694C198.43 194.095 198.656 194.969 198.253 195.644C197.987 196.094 197.51 196.344 197.022 196.344C196.776 196.344 196.525 196.279 196.297 196.145ZM14.1719 194.534C13.7778 193.851 14.012 192.982 14.6974 192.59C15.38 192.197 16.2539 192.433 16.6452 193.113C17.0393 193.794 16.8051 194.665 16.1225 195.058C15.8969 195.186 15.6513 195.246 15.4114 195.246C14.9173 195.246 14.4347 194.992 14.1719 194.534ZM198.596 192.202C197.899 191.832 197.636 190.97 198.01 190.275C198.381 189.583 199.247 189.321 199.941 189.691C200.638 190.062 200.9 190.924 200.526 191.616C200.269 192.097 199.775 192.37 199.264 192.37C199.038 192.37 198.807 192.316 198.593 192.202H198.596ZM11.9529 190.491C11.5902 189.794 11.8615 188.934 12.5612 188.573C13.2609 188.208 14.1234 188.482 14.489 189.179C14.8517 189.877 14.5775 190.736 13.8778 191.098C13.6664 191.206 13.4437 191.26 13.2209 191.26C12.704 191.26 12.2071 190.978 11.9529 190.491ZM200.72 188.16C200.009 187.821 199.707 186.97 200.049 186.261C200.389 185.552 201.243 185.253 201.954 185.595C202.665 185.934 202.965 186.785 202.625 187.494C202.383 188.003 201.871 188.302 201.34 188.302C201.132 188.302 200.92 188.257 200.723 188.16H200.72ZM9.91377 186.358C9.58249 185.646 9.89093 184.798 10.6049 184.468C11.3217 184.135 12.1699 184.445 12.5041 185.157C12.8354 185.871 12.5269 186.717 11.8101 187.047C11.6159 187.138 11.4103 187.181 11.2104 187.181C10.6706 187.181 10.1565 186.876 9.91377 186.358ZM202.665 184.032C201.94 183.722 201.603 182.888 201.911 182.165C202.22 181.439 203.059 181.106 203.785 181.413C204.51 181.72 204.847 182.557 204.539 183.28C204.307 183.821 203.779 184.146 203.225 184.146C203.037 184.146 202.848 184.109 202.665 184.032ZM8.05743 182.142C7.75756 181.416 8.10312 180.582 8.83138 180.283C9.5625 179.981 10.3964 180.328 10.6963 181.054C10.999 181.78 10.6506 182.611 9.92234 182.913C9.74527 182.987 9.55964 183.021 9.37972 183.021C8.8171 183.021 8.2859 182.688 8.05743 182.142ZM204.427 179.819C203.688 179.543 203.316 178.72 203.593 177.985C203.871 177.251 204.693 176.878 205.43 177.154C206.17 177.43 206.544 178.25 206.267 178.988C206.05 179.557 205.507 179.91 204.93 179.91C204.762 179.91 204.593 179.881 204.427 179.819ZM6.38386 177.837C6.1154 177.097 6.4981 176.283 7.24063 176.013C7.98032 175.745 8.79996 176.126 9.06842 176.867C9.33688 177.607 8.95418 178.421 8.2145 178.691C8.05457 178.748 7.88893 178.777 7.729 178.777C7.14353 178.777 6.5952 178.415 6.38386 177.837ZM206.001 175.531C205.253 175.287 204.844 174.484 205.087 173.738C205.333 172.989 206.138 172.582 206.889 172.824C207.637 173.069 208.049 173.872 207.803 174.62C207.606 175.221 207.046 175.603 206.447 175.603C206.298 175.603 206.15 175.58 206.001 175.531ZM4.90164 173.465C4.6646 172.713 5.08442 171.916 5.83552 171.68C6.58949 171.446 7.38914 171.862 7.62618 172.611C7.86322 173.362 7.4434 174.162 6.6923 174.396C6.5495 174.441 6.40385 174.461 6.26391 174.461C5.6556 174.461 5.09299 174.074 4.90164 173.465ZM207.386 171.19C206.624 170.979 206.181 170.197 206.392 169.439C206.604 168.682 207.392 168.238 208.152 168.449C208.911 168.659 209.357 169.445 209.143 170.202C208.968 170.831 208.394 171.244 207.769 171.244C207.643 171.244 207.515 171.227 207.386 171.19ZM3.61076 169.032C3.40799 168.272 3.86208 167.492 4.62461 167.29C5.38714 167.088 6.16967 167.54 6.37244 168.301C6.57521 169.058 6.12112 169.838 5.35859 170.04C5.23578 170.074 5.11298 170.088 4.99017 170.088C4.35901 170.088 3.78212 169.67 3.61076 169.032ZM208.574 166.795C207.806 166.618 207.329 165.852 207.506 165.087C207.686 164.321 208.451 163.845 209.22 164.022C209.988 164.198 210.468 164.964 210.288 165.73C210.136 166.388 209.548 166.832 208.9 166.832C208.791 166.832 208.683 166.82 208.574 166.795ZM2.5198 164.546C2.3513 163.78 2.83681 163.02 3.60791 162.852C4.37615 162.684 5.13868 163.168 5.30718 163.934C5.47568 164.702 4.98732 165.462 4.21622 165.63C4.11341 165.653 4.01059 165.664 3.91064 165.664C3.25377 165.664 2.6626 165.212 2.51695 164.546H2.5198ZM209.571 162.351C208.797 162.206 208.286 161.463 208.429 160.691C208.571 159.917 209.32 159.407 210.094 159.552C210.87 159.698 211.379 160.441 211.236 161.212C211.107 161.898 210.508 162.376 209.834 162.376C209.748 162.376 209.659 162.368 209.571 162.351ZM1.62305 160.019C1.48882 159.245 2.00859 158.508 2.7854 158.371C3.56221 158.237 4.3019 158.755 4.43898 159.53C4.57321 160.304 4.05343 161.041 3.27662 161.175C3.1938 161.192 3.11098 161.198 3.02816 161.198C2.34845 161.198 1.74585 160.711 1.62305 160.019ZM210.371 157.867C209.591 157.756 209.048 157.036 209.157 156.259C209.268 155.481 209.991 154.938 210.77 155.049C211.553 155.16 212.096 155.88 211.984 156.657C211.884 157.369 211.273 157.881 210.57 157.881C210.505 157.881 210.439 157.878 210.371 157.867ZM0.926202 155.456C0.826245 154.676 1.37744 153.961 2.15996 153.862C2.94248 153.759 3.65931 154.311 3.75927 155.089C3.86208 155.869 3.31089 156.583 2.52837 156.686C2.46554 156.694 2.40271 156.697 2.34274 156.697C1.63447 156.697 1.02045 156.173 0.926202 155.456ZM210.973 153.355C210.188 153.278 209.614 152.581 209.691 151.801C209.768 151.018 210.468 150.445 211.25 150.522C212.036 150.596 212.61 151.294 212.535 152.077C212.461 152.811 211.841 153.361 211.113 153.361C211.067 153.361 211.022 153.358 210.973 153.355ZM0.432129 150.867C0.363587 150.084 0.946194 149.395 1.73157 149.327C2.51695 149.261 3.20808 149.842 3.27662 150.625C3.34231 151.408 2.76256 152.097 1.97718 152.165C1.93434 152.168 1.8915 152.171 1.85152 152.171C1.11755 152.171 0.494959 151.61 0.432129 150.867ZM211.382 148.82C210.593 148.777 209.988 148.105 210.034 147.323C210.076 146.537 210.75 145.933 211.539 145.976C212.324 146.019 212.929 146.691 212.887 147.473C212.844 148.233 212.215 148.82 211.462 148.82H211.384H211.382ZM0.132257 146.264C0.100842 145.478 0.709153 144.814 1.49739 144.78C2.28562 144.746 2.9539 145.355 2.98532 146.141C3.01959 146.927 2.40842 147.59 1.62019 147.624H1.55736C0.797686 147.624 0.166528 147.026 0.132257 146.264ZM211.59 144.271C210.802 144.262 210.171 143.616 210.179 142.83C210.188 142.045 210.833 141.415 211.624 141.424C212.413 141.432 213.044 142.076 213.035 142.864C213.027 143.644 212.39 144.271 211.607 144.271H211.59ZM0.0351562 141.649C0.0351562 140.863 0.674882 140.225 1.46311 140.225C2.25135 140.225 2.89107 140.863 2.89107 141.649C2.89107 142.435 2.25135 143.072 1.46311 143.072C0.674882 143.072 0.0351562 142.435 0.0351562 141.649ZM210.134 138.338C210.111 137.552 210.728 136.895 211.516 136.872C212.304 136.846 212.964 137.464 212.989 138.247C213.012 139.035 212.393 139.693 211.607 139.716H211.561C210.793 139.716 210.159 139.109 210.134 138.338ZM1.49739 138.52C0.709153 138.486 0.0979864 137.823 0.132257 137.037C0.166528 136.251 0.831957 135.642 1.62019 135.676C2.40842 135.71 3.01959 136.374 2.98532 137.157C2.9539 137.922 2.32275 138.52 1.56022 138.52H1.49739ZM209.896 133.851C209.837 133.069 210.428 132.385 211.213 132.326C212.001 132.269 212.684 132.855 212.744 133.641C212.804 134.424 212.213 135.107 211.424 135.167C211.39 135.17 211.353 135.17 211.319 135.17C210.576 135.17 209.951 134.6 209.896 133.851ZM1.72871 133.971C0.943338 133.903 0.363587 133.214 0.429273 132.431C0.497815 131.648 1.18895 131.067 1.97432 131.136C2.7597 131.204 3.34231 131.893 3.27377 132.676C3.21094 133.419 2.58549 133.977 1.85438 133.977C1.81154 133.977 1.77155 133.974 1.72871 133.971ZM209.465 129.382C209.371 128.599 209.931 127.893 210.713 127.802C211.496 127.708 212.207 128.266 212.298 129.046C212.39 129.826 211.83 130.535 211.047 130.629C210.99 130.635 210.933 130.637 210.876 130.637C210.162 130.637 209.545 130.105 209.462 129.382H209.465ZM2.1571 129.439C1.37458 129.336 0.823389 128.622 0.926202 127.845C1.02902 127.065 1.74299 126.515 2.52552 126.615C3.30804 126.717 3.85923 127.429 3.75927 128.209C3.66503 128.926 3.051 129.45 2.34274 129.45C2.28276 129.45 2.21993 129.447 2.1571 129.439ZM208.837 124.932C208.711 124.158 209.24 123.426 210.016 123.301C210.796 123.173 211.53 123.7 211.656 124.477C211.784 125.251 211.256 125.983 210.476 126.111C210.399 126.122 210.322 126.128 210.245 126.128C209.557 126.128 208.951 125.633 208.837 124.932ZM2.78255 124.927C2.00574 124.793 1.48596 124.056 1.62305 123.281C1.75727 122.507 2.49696 121.989 3.27377 122.123C4.05058 122.259 4.57035 122.997 4.43612 123.768C4.31332 124.46 3.71072 124.949 3.03101 124.949C2.94819 124.949 2.86537 124.941 2.78255 124.927ZM208.017 120.517C207.857 119.748 208.354 118.994 209.125 118.835C209.896 118.675 210.653 119.168 210.813 119.939C210.973 120.708 210.479 121.462 209.705 121.622C209.608 121.642 209.511 121.65 209.414 121.65C208.751 121.65 208.157 121.189 208.017 120.517ZM3.60505 120.449C2.83395 120.278 2.34845 119.521 2.51695 118.752C2.68545 117.983 3.44798 117.499 4.21907 117.667C4.98732 117.835 5.47568 118.595 5.30718 119.364C5.15867 120.027 4.57035 120.48 3.91349 120.48C3.81068 120.48 3.70787 120.471 3.60505 120.449ZM207.003 116.141C206.809 115.379 207.272 114.604 208.037 114.411C208.803 114.217 209.579 114.678 209.774 115.441C209.968 116.204 209.505 116.976 208.74 117.169C208.623 117.2 208.503 117.215 208.389 117.215C207.752 117.215 207.169 116.785 207.003 116.141ZM4.62176 116.008C3.85923 115.806 3.40799 115.026 3.61076 114.265C3.81068 113.505 4.5932 113.056 5.35573 113.258C6.11826 113.46 6.57235 114.24 6.36958 114.997C6.19823 115.635 5.62133 116.056 4.99017 116.056C4.86737 116.056 4.74456 116.042 4.62176 116.008ZM205.801 111.814C205.573 111.06 206.001 110.266 206.758 110.041C207.512 109.813 208.309 110.24 208.534 110.992C208.763 111.746 208.334 112.54 207.58 112.765C207.443 112.808 207.303 112.828 207.166 112.828C206.555 112.828 205.987 112.429 205.801 111.814ZM5.83552 111.607C5.08442 111.373 4.6646 110.573 4.90164 109.822C5.13868 109.073 5.93834 108.654 6.6923 108.891C7.4434 109.127 7.86322 109.924 7.62618 110.676C7.43484 111.285 6.87222 111.672 6.26391 111.672C6.12397 111.672 5.97832 111.652 5.83552 111.607ZM204.41 107.553C204.15 106.81 204.545 105.998 205.287 105.739C206.032 105.48 206.846 105.87 207.106 106.613C207.369 107.356 206.975 108.168 206.229 108.427C206.075 108.481 205.915 108.506 205.758 108.506C205.17 108.506 204.616 108.139 204.41 107.553ZM7.24349 107.265C6.50095 106.998 6.11826 106.181 6.38672 105.443C6.65803 104.703 7.47482 104.322 8.21736 104.589C8.95704 104.857 9.34259 105.674 9.07128 106.411H9.07413C8.86279 106.992 8.31446 107.351 7.729 107.351C7.56907 107.351 7.40342 107.322 7.24349 107.265ZM202.837 103.354C202.543 102.625 202.9 101.796 203.633 101.506C204.365 101.213 205.196 101.569 205.487 102.3C205.781 103.029 205.424 103.858 204.69 104.148C204.516 104.219 204.339 104.25 204.162 104.25C203.596 104.25 203.059 103.912 202.837 103.354ZM8.83995 102.989C8.10883 102.69 7.76327 101.856 8.06314 101.13C8.36587 100.404 9.19979 100.057 9.92805 100.359C10.6563 100.658 11.0047 101.492 10.7049 102.218C10.4764 102.767 9.94519 103.097 9.38257 103.097C9.20265 103.097 9.01701 103.063 8.83995 102.989ZM201.077 99.2286C200.752 98.5112 201.077 97.6686 201.791 97.3469C202.511 97.0223 203.356 97.3412 203.682 98.0586C204.005 98.776 203.682 99.6186 202.965 99.9403C202.774 100.026 202.577 100.066 202.38 100.066C201.834 100.066 201.314 99.7553 201.077 99.2286ZM10.6192 98.7902C9.90521 98.4571 9.59677 97.6116 9.92805 96.8971C10.2622 96.1854 11.1104 95.8779 11.8244 96.2082C12.5412 96.5412 12.8497 97.3867 12.5184 98.0984C12.2756 98.6166 11.7616 98.9212 11.2218 98.9212C11.0219 98.9212 10.8162 98.8785 10.6192 98.7902ZM199.138 95.1805C198.784 94.4802 199.067 93.6233 199.772 93.2703C200.475 92.9144 201.334 93.1962 201.689 93.8994C202.046 94.5997 201.763 95.4566 201.057 95.8125C200.852 95.9149 200.632 95.9633 200.415 95.9633C199.892 95.9633 199.39 95.6787 199.138 95.1805ZM12.5841 94.6709C11.8844 94.3093 11.613 93.4496 11.9757 92.7521C12.3413 92.0547 13.2038 91.7814 13.9006 92.1458C14.6003 92.5073 14.8745 93.3671 14.5089 94.0645C14.2548 94.5513 13.7578 94.8332 13.2409 94.8332C13.021 94.8332 12.7954 94.7791 12.5841 94.6709ZM197.025 91.2206C196.639 90.5345 196.885 89.6662 197.573 89.2819C198.261 88.9004 199.133 89.1424 199.518 89.8285C199.904 90.5146 199.658 91.3828 198.97 91.7671C198.75 91.8896 198.51 91.9493 198.273 91.9493C197.773 91.9493 197.288 91.6874 197.025 91.2206ZM14.726 90.6427C14.0434 90.2498 13.8092 89.3815 14.2034 88.6983C14.5975 88.0179 15.4714 87.7845 16.154 88.1773C16.8365 88.5702 17.0707 89.4413 16.6766 90.1217C16.4138 90.5772 15.934 90.8334 15.44 90.8334C15.1972 90.8334 14.9516 90.7736 14.726 90.6427ZM194.74 87.3546C194.326 86.6856 194.532 85.8088 195.203 85.396C195.874 84.9804 196.754 85.1882 197.171 85.8572C197.585 86.5262 197.376 87.403 196.708 87.8158C196.474 87.961 196.214 88.0293 195.957 88.0293C195.477 88.0293 195.011 87.7902 194.74 87.3546ZM17.0421 86.7141C16.3767 86.2927 16.1825 85.4102 16.6052 84.7469C17.0279 84.0836 17.9103 83.89 18.5758 84.3114C19.2412 84.7327 19.4383 85.6124 19.0156 86.2757C18.7414 86.7027 18.2788 86.9361 17.8075 86.9361C17.5448 86.9361 17.2792 86.865 17.0421 86.7141ZM192.29 83.5911C191.844 82.9392 192.016 82.0539 192.667 81.6126C193.318 81.1714 194.206 81.3393 194.649 81.9884C195.094 82.6375 194.926 83.5228 194.272 83.9669C194.026 84.132 193.746 84.2117 193.472 84.2117C193.015 84.2117 192.564 83.9954 192.29 83.5911ZM19.5296 82.888C18.8814 82.4382 18.7243 81.55 19.1755 80.9066C19.6267 80.2604 20.5178 80.1038 21.1632 80.5536C21.8115 81.0034 21.9686 81.8916 21.5174 82.535C21.2375 82.9335 20.7948 83.1442 20.3436 83.1442C20.0608 83.1442 19.7781 83.0616 19.5296 82.888ZM189.674 79.9358C189.203 79.3038 189.334 78.4128 189.965 77.9431C190.599 77.4734 191.493 77.6015 191.964 78.2335C192.435 78.8626 192.307 79.7536 191.673 80.2234C191.416 80.4141 191.119 80.508 190.822 80.508C190.385 80.508 189.956 80.3088 189.674 79.9358ZM22.1771 79.1757C21.5516 78.6975 21.4317 77.8036 21.9115 77.1801C22.3884 76.5538 23.2852 76.4343 23.9135 76.9125C24.5389 77.3908 24.6589 78.2847 24.1791 78.9081C23.8963 79.2754 23.4737 79.4661 23.0424 79.4661C22.7397 79.4661 22.437 79.3722 22.1771 79.1757ZM186.904 76.3944C186.407 75.7852 186.498 74.8885 187.109 74.3903C187.72 73.8949 188.62 73.986 189.117 74.5952C189.617 75.2045 189.525 76.1012 188.914 76.5965C188.648 76.8129 188.329 76.9182 188.012 76.9182C187.598 76.9182 187.186 76.7389 186.904 76.3944ZM24.9844 75.5774C24.379 75.0735 24.299 74.1768 24.8045 73.5732C25.31 72.9697 26.2096 72.89 26.8151 73.3939C27.4205 73.9006 27.5005 74.7974 26.995 75.4009C26.7123 75.7368 26.3067 75.9105 25.8983 75.9105C25.5756 75.9105 25.25 75.8023 24.9844 75.5774ZM183.982 72.9754C183.459 72.389 183.511 71.4894 184.099 70.9656C184.69 70.4446 185.593 70.4958 186.115 71.0823C186.641 71.6716 186.587 72.5712 185.998 73.0921C185.727 73.3341 185.387 73.4537 185.05 73.4537C184.656 73.4537 184.265 73.2914 183.982 72.9754ZM27.9432 72.1071C27.3606 71.5776 27.3206 70.678 27.8518 70.0973C28.383 69.5165 29.2855 69.4767 29.8681 70.0062C30.4507 70.5357 30.4935 71.4353 29.9623 72.016C29.6796 72.3235 29.294 72.4801 28.9056 72.4801C28.5629 72.4801 28.2173 72.3577 27.9432 72.1071ZM180.915 69.6874C180.366 69.1237 180.378 68.2212 180.943 67.6747C181.509 67.1252 182.414 67.1395 182.962 67.7031C183.514 68.2668 183.499 69.1692 182.934 69.7158C182.657 69.9863 182.297 70.1172 181.94 70.1172C181.566 70.1172 181.195 69.9749 180.915 69.6874ZM31.0504 68.7707C30.4907 68.2156 30.4907 67.3131 31.0504 66.7551C31.6073 66.2 32.5098 66.1972 33.0695 66.7523C33.6264 67.3074 33.6293 68.207 33.0695 68.765C32.7897 69.044 32.4213 69.1835 32.0557 69.1835C31.693 69.1835 31.3274 69.0468 31.0476 68.7707H31.0504ZM177.707 66.5302C177.133 65.9922 177.108 65.0926 177.65 64.5204C178.19 63.9482 179.095 63.9226 179.667 64.4635C180.241 65.0015 180.266 65.9039 179.727 66.4733C179.444 66.7722 179.067 66.9203 178.687 66.9203C178.336 66.9203 177.982 66.7921 177.707 66.5302ZM34.3004 65.568C33.7664 64.9901 33.8035 64.0877 34.3833 63.5553C34.963 63.023 35.8655 63.06 36.3995 63.6379C36.9336 64.2158 36.8965 65.1154 36.3167 65.6506C36.0426 65.9011 35.697 66.0264 35.3514 66.0264C34.9659 66.0264 34.5803 65.8726 34.3004 65.568ZM174.363 63.5183C173.766 63.0031 173.703 62.1035 174.22 61.5085C174.734 60.9163 175.637 60.8509 176.234 61.3661C176.828 61.8786 176.894 62.7782 176.377 63.3731C176.097 63.6977 175.697 63.8656 175.297 63.8656C174.966 63.8656 174.634 63.7518 174.363 63.5183ZM37.6847 62.5106C37.1764 61.9099 37.2506 61.0103 37.8532 60.5036C38.4558 59.9968 39.3554 60.0708 39.8666 60.6715C40.375 61.2722 40.2979 62.1718 39.6953 62.6785C39.4297 62.9034 39.1012 63.0144 38.7757 63.0144C38.3701 63.0144 37.9674 62.8436 37.6847 62.5106ZM170.893 60.6488C170.276 60.1619 170.171 59.2652 170.662 58.6503C171.15 58.0325 172.05 57.9301 172.667 58.4197H172.67C173.286 58.9065 173.389 59.8032 172.898 60.4182C172.618 60.774 172.201 60.9562 171.779 60.9562C171.467 60.9562 171.156 60.8566 170.893 60.6488ZM41.1975 59.6011C40.7148 58.9777 40.8291 58.0838 41.4517 57.6027C42.0743 57.1216 42.971 57.2383 43.4537 57.8589C43.9363 58.4795 43.8192 59.3734 43.1966 59.8545C42.9367 60.0566 42.6283 60.1534 42.3256 60.1534C41.8972 60.1534 41.4745 59.9627 41.1946 59.6011H41.1975ZM167.3 57.9329C166.661 57.4717 166.521 56.5807 166.983 55.9458C167.446 55.3081 168.337 55.1687 168.977 55.627C169.617 56.0882 169.757 56.9792 169.294 57.6169C169.017 58.0012 168.58 58.2033 168.137 58.2033C167.846 58.2033 167.555 58.1151 167.3 57.9329ZM44.8331 56.8454C44.3761 56.202 44.5303 55.3138 45.1758 54.8612C45.8184 54.4086 46.7094 54.5623 47.1635 55.2028C47.6204 55.8462 47.4662 56.7344 46.8236 57.187C46.5752 57.3635 46.2867 57.4489 46.0011 57.4489C45.5528 57.4489 45.1129 57.2383 44.8359 56.8454H44.8331ZM163.594 55.3736C162.937 54.9409 162.754 54.0584 163.188 53.4036C163.625 52.746 164.51 52.5667 165.167 52.9994C165.824 53.4321 166.007 54.3175 165.573 54.9722C165.296 55.385 164.842 55.6099 164.379 55.6099C164.108 55.6099 163.836 55.5359 163.594 55.3736ZM48.5829 54.2491C48.1574 53.5887 48.3487 52.709 49.0113 52.282C49.6739 51.8578 50.5592 52.0486 50.9847 52.7119C51.4102 53.3723 51.2189 54.252 50.5563 54.679C50.3164 54.8299 50.0508 54.9039 49.7852 54.9039C49.3169 54.9039 48.8542 54.6733 48.5829 54.2491ZM159.778 52.9795C159.101 52.5752 158.881 51.7013 159.287 51.0266C159.692 50.3519 160.569 50.1327 161.246 50.5369C161.923 50.9412 162.143 51.8151 161.737 52.4898C161.469 52.9368 160.995 53.1816 160.509 53.1816C160.261 53.1816 160.007 53.1161 159.778 52.9795ZM52.4412 51.8208C52.0443 51.1433 52.2756 50.2693 52.9553 49.8736C53.6379 49.4779 54.5118 49.7085 54.9087 50.386C55.3057 51.0664 55.0772 51.9375 54.3947 52.3332C54.1691 52.4642 53.9206 52.5268 53.6778 52.5268C53.1866 52.5268 52.7068 52.2735 52.4412 51.8208ZM155.86 50.7504C155.166 50.3746 154.909 49.5121 155.286 48.8203C155.66 48.1314 156.528 47.8723 157.219 48.2481C157.913 48.6239 158.17 49.4864 157.796 50.1782C157.536 50.6536 157.045 50.9241 156.539 50.9241C156.308 50.9241 156.074 50.8671 155.86 50.7504ZM56.4024 49.5605C56.034 48.8658 56.3024 48.0061 57.0021 47.6389C57.699 47.2716 58.5615 47.5392 58.9299 48.2338C59.2983 48.9313 59.0298 49.791 58.3301 50.1583C58.1188 50.2693 57.8903 50.3205 57.6676 50.3205C57.1535 50.3205 56.6594 50.0444 56.4024 49.5605ZM151.847 48.695C151.139 48.3506 150.842 47.4994 151.187 46.7905C151.533 46.0845 152.387 45.7913 153.098 46.1357C153.806 46.4802 154.1 47.3314 153.755 48.0374C153.509 48.5441 153.001 48.8402 152.47 48.8402C152.261 48.8402 152.047 48.7918 151.847 48.695ZM60.4578 47.4737C60.1208 46.7649 60.4264 45.9165 61.1404 45.5806C61.8515 45.2447 62.7025 45.5493 63.0395 46.261C63.3765 46.9699 63.071 47.8182 62.357 48.1541C62.1599 48.2481 61.9543 48.2908 61.7487 48.2908C61.2146 48.2908 60.7005 47.989 60.4578 47.4737ZM147.746 46.8161C147.021 46.503 146.689 45.6632 147.003 44.9429C147.318 44.2227 148.157 43.8896 148.883 44.2028C149.605 44.5159 149.937 45.3529 149.622 46.076C149.391 46.6112 148.863 46.9329 148.312 46.9329C148.123 46.9329 147.929 46.8958 147.743 46.8161H147.746ZM64.5989 45.5692C64.2933 44.8433 64.636 44.0092 65.3614 43.7046C66.0897 43.4 66.9264 43.7416 67.232 44.4675C67.5376 45.1935 67.1949 46.0247 66.4666 46.3293C66.2867 46.4062 66.1011 46.4404 65.9154 46.4404C65.3585 46.4404 64.8273 46.113 64.5989 45.5692ZM143.568 45.1166C142.834 44.8348 142.465 44.012 142.745 43.2776C143.028 42.5431 143.853 42.1758 144.59 42.4577C145.327 42.7367 145.695 43.5594 145.413 44.2939C145.196 44.8604 144.653 45.2105 144.079 45.2105C143.911 45.2105 143.736 45.1792 143.568 45.1166ZM68.8171 43.8441C68.5457 43.1067 68.9227 42.2869 69.6624 42.0164C70.4021 41.7431 71.2246 42.1218 71.4959 42.8591C71.7701 43.5964 71.3931 44.4134 70.6506 44.6867C70.4878 44.7465 70.3221 44.775 70.1565 44.775C69.5767 44.775 69.0312 44.4191 68.8171 43.8441ZM139.318 43.5993C138.57 43.3516 138.164 42.5459 138.416 41.8001C138.664 41.0542 139.472 40.65 140.221 40.9005C140.969 41.1481 141.374 41.9538 141.123 42.6997C140.926 43.2946 140.366 43.6733 139.769 43.6733C139.621 43.6733 139.467 43.6505 139.318 43.5993ZM73.1066 42.3068C72.8668 41.5581 73.2809 40.7553 74.032 40.5162C74.7831 40.277 75.5856 40.6898 75.8283 41.4357C76.0682 42.1872 75.6541 42.9872 74.903 43.2263C74.7574 43.2719 74.6117 43.2946 74.4661 43.2946C73.8635 43.2946 73.3008 42.9103 73.1066 42.3068ZM135.003 42.2726C134.246 42.0563 133.806 41.2677 134.02 40.5133C134.238 39.7561 135.029 39.3177 135.785 39.534C136.545 39.7504 136.985 40.5361 136.768 41.2933C136.591 41.9196 136.017 42.3267 135.394 42.3267C135.266 42.3267 135.134 42.3096 135.003 42.2726ZM130.645 41.1368C129.877 40.9517 129.405 40.1859 129.585 39.4201C129.768 38.6572 130.539 38.1846 131.307 38.3668C132.073 38.549 132.547 39.3148 132.364 40.0806C132.21 40.7354 131.624 41.1738 130.976 41.1738C130.868 41.1738 130.756 41.1624 130.645 41.1368Z" fill="url(#paint0_linear_1233_7106)"/>
<path d="M107.95 29.5589C107.95 30.3446 107.31 30.9823 106.522 30.9823C105.733 30.9823 105.094 30.3446 105.094 29.5589C105.094 28.7731 105.733 28.1355 106.522 28.1355C107.31 28.1355 107.95 28.7731 107.95 29.5589ZM106.522 32.6903C105.733 32.6903 105.094 33.328 105.094 34.1137C105.094 34.8995 105.733 35.5371 106.522 35.5371C107.31 35.5371 107.95 34.8995 107.95 34.1137C107.95 33.328 107.31 32.6903 106.522 32.6903ZM106.522 41.8001C105.733 41.8001 105.094 42.4378 105.094 43.2235C105.094 44.0092 105.733 44.6469 106.522 44.6469C107.31 44.6469 107.95 44.0092 107.95 43.2235C107.95 42.4378 107.31 41.8001 106.522 41.8001ZM106.522 3.65295C107.31 3.65295 107.95 3.01527 107.95 2.22955C107.95 1.44384 107.31 0.806152 106.522 0.806152C105.733 0.806152 105.094 1.44384 105.094 2.22955C105.094 3.01527 105.733 3.65295 106.522 3.65295ZM106.522 37.2452C105.733 37.2452 105.094 37.8801 105.094 38.6686C105.094 39.4572 105.733 40.092 106.522 40.092C107.31 40.092 107.95 39.4543 107.95 38.6686C107.95 37.8829 107.31 37.2452 106.522 37.2452ZM106.522 5.36104C105.733 5.36104 105.094 5.99872 105.094 6.78444C105.094 7.57016 105.733 8.20784 106.522 8.20784C107.31 8.20784 107.95 7.57016 107.95 6.78444C107.95 5.99872 107.31 5.36104 106.522 5.36104ZM106.522 14.4708C105.733 14.4708 105.094 15.1056 105.094 15.8942C105.094 16.6828 105.733 17.3176 106.522 17.3176C107.31 17.3176 107.95 16.6799 107.95 15.8942C107.95 15.1085 107.31 14.4708 106.522 14.4708ZM106.522 9.91592C105.733 9.91592 105.094 10.5536 105.094 11.3393C105.094 12.125 105.733 12.7627 106.522 12.7627C107.31 12.7627 107.95 12.125 107.95 11.3393C107.95 10.5536 107.31 9.91592 106.522 9.91592ZM106.522 23.5806C105.733 23.5806 105.094 24.2154 105.094 25.004C105.094 25.7925 105.733 26.4274 106.522 26.4274C107.31 26.4274 107.95 25.7897 107.95 25.004C107.95 24.2183 107.31 23.5806 106.522 23.5806ZM106.522 19.0257C105.733 19.0257 105.094 19.6634 105.094 20.4491C105.094 21.2348 105.733 21.8725 106.522 21.8725C107.31 21.8725 107.95 21.2348 107.95 20.4491C107.95 19.6634 107.31 19.0257 106.522 19.0257ZM106.522 78.3217C105.733 78.3217 105.094 78.9594 105.094 79.7451C105.094 80.5309 105.733 81.1685 106.522 81.1685C107.31 81.1685 107.95 80.5309 107.95 79.7451C107.95 78.9594 107.31 78.3217 106.522 78.3217ZM106.522 69.212C105.733 69.212 105.094 69.8468 105.094 70.6354C105.094 71.4239 105.733 72.0588 106.522 72.0588C107.31 72.0588 107.95 71.4211 107.95 70.6354C107.95 69.8496 107.31 69.212 106.522 69.212ZM106.522 87.4315C105.733 87.4315 105.094 88.0692 105.094 88.8549C105.094 89.6406 105.733 90.2783 106.522 90.2783C107.31 90.2783 107.95 89.6406 107.95 88.8549C107.95 88.0692 107.31 87.4315 106.522 87.4315ZM106.522 82.8766C105.733 82.8766 105.094 83.5115 105.094 84.3C105.094 85.0886 105.733 85.7234 106.522 85.7234C107.31 85.7234 107.95 85.0857 107.95 84.3C107.95 83.5143 107.31 82.8766 106.522 82.8766ZM106.522 73.7669C105.733 73.7669 105.094 74.4045 105.094 75.1903C105.094 75.976 105.733 76.6137 106.522 76.6137C107.31 76.6137 107.95 75.976 107.95 75.1903C107.95 74.4045 107.31 73.7669 106.522 73.7669ZM106.522 50.9924C105.733 50.9924 105.094 51.6301 105.094 52.4158C105.094 53.2015 105.733 53.8392 106.522 53.8392C107.31 53.8392 107.95 53.2015 107.95 52.4158C107.95 51.6301 107.31 50.9924 106.522 50.9924ZM106.522 64.6571C105.733 64.6571 105.094 65.2948 105.094 66.0805C105.094 66.8662 105.733 67.5039 106.522 67.5039C107.31 67.5039 107.95 66.8662 107.95 66.0805C107.95 65.2948 107.31 64.6571 106.522 64.6571ZM106.522 46.4375C105.733 46.4375 105.094 47.0752 105.094 47.8609C105.094 48.6467 105.733 49.2844 106.522 49.2844C107.31 49.2844 107.95 48.6467 107.95 47.8609C107.95 47.0752 107.31 46.4375 106.522 46.4375ZM106.522 60.1022C105.733 60.1022 105.094 60.737 105.094 61.5256C105.094 62.3142 105.733 62.949 106.522 62.949C107.31 62.949 107.95 62.3113 107.95 61.5256C107.95 60.7399 107.31 60.1022 106.522 60.1022ZM106.522 55.5473C105.733 55.5473 105.094 56.185 105.094 56.9707C105.094 57.7564 105.733 58.3941 106.522 58.3941C107.31 58.3941 107.95 57.7564 107.95 56.9707C107.95 56.185 107.31 55.5473 106.522 55.5473ZM106.522 110.539C105.733 110.539 105.094 111.177 105.094 111.962C105.094 112.748 105.733 113.386 106.522 113.386C107.31 113.386 107.95 112.748 107.95 111.962C107.95 111.177 107.31 110.539 106.522 110.539ZM106.522 105.984C105.733 105.984 105.094 106.619 105.094 107.408C105.094 108.196 105.733 108.831 106.522 108.831C107.31 108.831 107.95 108.193 107.95 107.408C107.95 106.622 107.31 105.984 106.522 105.984ZM106.522 92.3195C105.733 92.3195 105.094 92.9571 105.094 93.7429C105.094 94.5286 105.733 95.1663 106.522 95.1663C107.31 95.1663 107.95 94.5286 107.95 93.7429C107.95 92.9571 107.31 92.3195 106.522 92.3195ZM106.522 101.429C105.733 101.429 105.094 102.067 105.094 102.853C105.094 103.638 105.733 104.276 106.522 104.276C107.31 104.276 107.95 103.638 107.95 102.853C107.95 102.067 107.31 101.429 106.522 101.429ZM106.522 96.8743C105.733 96.8743 105.094 97.512 105.094 98.2977C105.094 99.0835 105.733 99.7211 106.522 99.7211C107.31 99.7211 107.95 99.0835 107.95 98.2977C107.95 97.512 107.31 96.8743 106.522 96.8743Z" fill="url(#paint1_linear_1233_7106)"/>
<path d="M145.371 96.8887C144.814 96.3335 143.909 96.3335 143.352 96.8887C142.795 97.4438 142.795 98.3462 143.352 98.9014C143.909 99.4565 144.814 99.4565 145.371 98.9014C145.928 98.3462 145.928 97.4438 145.371 96.8887ZM151.831 90.4435C151.274 89.8884 150.372 89.8855 149.812 90.4435C149.255 90.9986 149.255 91.9011 149.812 92.4562C150.369 93.0113 151.274 93.0113 151.831 92.4562C152.388 91.9011 152.388 90.9986 151.831 90.4435ZM138.911 103.331C138.354 102.776 137.449 102.776 136.892 103.331C136.335 103.886 136.335 104.789 136.892 105.344C137.449 105.899 138.354 105.899 138.911 105.344C139.468 104.789 139.468 103.886 138.911 103.331ZM142.141 100.108C141.584 99.5533 140.682 99.5504 140.122 100.108C139.562 100.666 139.565 101.566 140.122 102.121C140.679 102.676 141.584 102.676 142.141 102.121C142.698 101.566 142.698 100.664 142.141 100.108ZM148.601 93.6632C148.044 93.1081 147.139 93.1081 146.582 93.6632C146.025 94.2184 146.025 95.1208 146.582 95.6759C147.139 96.2311 148.044 96.2311 148.601 95.6759C149.158 95.1208 149.158 94.2184 148.601 93.6632ZM155.061 87.2181C154.504 86.663 153.599 86.663 153.042 87.2181C152.485 87.7732 152.485 88.6756 153.042 89.2308C153.599 89.7859 154.504 89.7859 155.061 89.2308C155.618 88.6756 155.618 87.7732 155.061 87.2181ZM158.291 83.9955C157.734 83.4404 156.832 83.4375 156.272 83.9955C155.712 84.5535 155.715 85.4531 156.272 86.0082C156.829 86.5633 157.734 86.5633 158.291 86.0082C158.848 85.4531 158.848 84.5506 158.291 83.9955ZM161.521 80.7729C160.964 80.2178 160.059 80.2178 159.502 80.7729C158.945 81.328 158.945 82.2305 159.502 82.7856C160.059 83.3407 160.964 83.3407 161.521 82.7856C162.078 82.2305 162.078 81.328 161.521 80.7729ZM122.527 119.674C121.97 119.119 121.064 119.119 120.508 119.674C119.951 120.23 119.951 121.132 120.508 121.687C121.064 122.242 121.97 122.242 122.527 121.687C123.084 121.132 123.084 120.23 122.527 119.674ZM125.757 116.452C125.2 115.897 124.297 115.894 123.738 116.452C123.178 117.01 123.181 117.909 123.738 118.465C124.294 119.02 125.2 119.02 125.757 118.465C126.314 117.909 126.314 117.007 125.757 116.452ZM135.447 106.784C134.89 106.229 133.985 106.229 133.428 106.784C132.871 107.339 132.871 108.242 133.428 108.797C133.985 109.352 134.89 109.352 135.447 108.797C136.004 108.242 136.004 107.339 135.447 106.784ZM128.987 113.229C128.43 112.674 127.525 112.674 126.968 113.229C126.411 113.784 126.411 114.687 126.968 115.242C127.525 115.797 128.43 115.797 128.987 115.242C129.544 114.687 129.544 113.784 128.987 113.229ZM132.217 110.007C131.66 109.452 130.755 109.452 130.198 110.007C129.641 110.562 129.641 111.464 130.198 112.019C130.755 112.575 131.66 112.575 132.217 112.019C132.774 111.464 132.774 110.562 132.217 110.007Z" fill="url(#paint2_linear_1233_7106)"/>
<path d="M160.751 134.316C160.751 133.53 160.111 132.892 159.323 132.892C158.534 132.892 157.895 133.53 157.895 134.316C157.895 135.101 158.534 135.739 159.323 135.739C160.111 135.739 160.751 135.101 160.751 134.316ZM169.889 134.313C169.889 133.527 169.253 132.889 168.462 132.889C167.673 132.889 167.034 133.527 167.034 134.313C167.034 135.099 167.673 135.736 168.462 135.736C169.25 135.736 169.889 135.099 169.889 134.313ZM151.612 134.321C151.612 133.536 150.972 132.898 150.184 132.898C149.395 132.898 148.756 133.536 148.756 134.321C148.756 135.107 149.395 135.745 150.184 135.745C150.972 135.745 151.612 135.107 151.612 134.321ZM156.181 134.321C156.181 133.536 155.544 132.898 154.753 132.898C153.962 132.898 153.325 133.536 153.325 134.321C153.325 135.107 153.965 135.745 154.753 135.745C155.541 135.745 156.181 135.107 156.181 134.321ZM165.32 134.318C165.32 133.533 164.68 132.895 163.892 132.895C163.104 132.895 162.464 133.533 162.464 134.318C162.464 135.104 163.104 135.742 163.892 135.742C164.68 135.742 165.32 135.104 165.32 134.318ZM174.459 134.316C174.459 133.53 173.819 132.892 173.031 132.892C172.243 132.892 171.603 133.53 171.603 134.316C171.603 135.101 172.243 135.739 173.031 135.739C173.819 135.739 174.459 135.101 174.459 134.316ZM179.028 134.316C179.028 133.53 178.392 132.892 177.6 132.892C176.809 132.892 176.172 133.53 176.172 134.316C176.172 135.101 176.812 135.739 177.6 135.739C178.389 135.739 179.028 135.101 179.028 134.316ZM183.598 134.316C183.598 133.53 182.958 132.892 182.17 132.892C181.382 132.892 180.742 133.53 180.742 134.316C180.742 135.101 181.382 135.739 182.17 135.739C182.958 135.739 183.598 135.101 183.598 134.316ZM128.43 134.338C128.43 133.553 127.79 132.915 127.002 132.915C126.214 132.915 125.574 133.553 125.574 134.338C125.574 135.124 126.214 135.762 127.002 135.762C127.79 135.762 128.43 135.124 128.43 134.338ZM133 134.338C133 133.553 132.363 132.915 131.572 132.915C130.781 132.915 130.144 133.553 130.144 134.338C130.144 135.124 130.783 135.762 131.572 135.762C132.36 135.762 133 135.124 133 134.338ZM146.708 134.333C146.708 133.547 146.068 132.909 145.28 132.909C144.492 132.909 143.852 133.547 143.852 134.333C143.852 135.118 144.492 135.756 145.28 135.756C146.068 135.756 146.708 135.118 146.708 134.333ZM137.569 134.336C137.569 133.55 136.929 132.912 136.141 132.912C135.353 132.912 134.713 133.55 134.713 134.336C134.713 135.121 135.353 135.759 136.141 135.759C136.929 135.759 137.569 135.121 137.569 134.336ZM142.139 134.336C142.139 133.55 141.499 132.912 140.711 132.912C139.922 132.912 139.283 133.55 139.283 134.336C139.283 135.121 139.922 135.759 140.711 135.759C141.499 135.759 142.139 135.121 142.139 134.336Z" fill="url(#paint3_linear_1233_7106)"/>
<path d="M145.367 171.845C144.81 171.29 143.905 171.29 143.348 171.845C142.791 172.4 142.791 173.303 143.348 173.858C143.905 174.413 144.81 174.413 145.367 173.858C145.924 173.303 145.924 172.4 145.367 171.845ZM151.827 178.29C151.27 177.735 150.365 177.735 149.808 178.29C149.251 178.845 149.251 179.748 149.808 180.303C150.368 180.861 151.27 180.858 151.827 180.303C152.384 179.748 152.387 178.848 151.827 178.29ZM138.907 165.403C138.35 164.848 137.445 164.848 136.888 165.403C136.331 165.958 136.331 166.86 136.888 167.415C137.445 167.97 138.35 167.97 138.907 167.415C139.464 166.86 139.464 165.958 138.907 165.403ZM142.137 168.625C141.58 168.07 140.675 168.07 140.118 168.625C139.561 169.18 139.561 170.083 140.118 170.638C140.675 171.193 141.58 171.193 142.137 170.638C142.694 170.083 142.697 169.183 142.137 168.625ZM148.597 175.07C148.04 174.515 147.135 174.515 146.578 175.07C146.021 175.626 146.021 176.528 146.578 177.083C147.135 177.638 148.04 177.638 148.597 177.083C149.154 176.528 149.154 175.626 148.597 175.07ZM155.057 181.516C154.5 180.96 153.595 180.96 153.038 181.516C152.481 182.071 152.481 182.973 153.038 183.528C153.595 184.083 154.5 184.083 155.057 183.528C155.614 182.973 155.614 182.071 155.057 181.516ZM158.287 184.738C157.73 184.183 156.825 184.183 156.268 184.738C155.711 185.293 155.711 186.196 156.268 186.751C156.825 187.306 157.73 187.306 158.287 186.751C158.844 186.196 158.847 185.296 158.287 184.738ZM161.517 187.961C160.961 187.406 160.055 187.406 159.498 187.961C158.941 188.516 158.941 189.418 159.498 189.973C160.055 190.529 160.961 190.529 161.517 189.973C162.074 189.418 162.074 188.516 161.517 187.961ZM122.523 149.059C121.966 148.504 121.061 148.504 120.504 149.059C119.947 149.614 119.947 150.517 120.504 151.072C121.061 151.627 121.966 151.627 122.523 151.072C123.08 150.517 123.08 149.614 122.523 149.059ZM125.753 152.282C125.196 151.727 124.291 151.727 123.734 152.282C123.177 152.837 123.177 153.739 123.734 154.294C124.291 154.85 125.196 154.85 125.753 154.294C126.31 153.739 126.313 152.84 125.753 152.282ZM135.443 161.949C134.886 161.394 133.981 161.394 133.424 161.949C132.867 162.505 132.867 163.407 133.424 163.962C133.981 164.517 134.886 164.517 135.443 163.962C136 163.407 136 162.505 135.443 161.949ZM128.983 155.504C128.426 154.949 127.521 154.949 126.964 155.504C126.407 156.059 126.407 156.962 126.964 157.517C127.521 158.072 128.426 158.072 128.983 157.517C129.54 156.962 129.54 156.059 128.983 155.504ZM132.213 158.727C131.656 158.172 130.751 158.172 130.194 158.727C129.637 159.282 129.637 160.184 130.194 160.74C130.751 161.295 131.656 161.295 132.213 160.74C132.77 160.184 132.77 159.282 132.213 158.727Z" fill="url(#paint4_linear_1233_7106)"/>
<path d="M106.522 188.752C107.31 188.752 107.95 188.114 107.95 187.329C107.95 186.543 107.31 185.905 106.522 185.905C105.733 185.905 105.094 186.543 105.094 187.329C105.094 188.114 105.733 188.752 106.522 188.752ZM106.522 197.862C107.31 197.862 107.95 197.227 107.95 196.438C107.95 195.65 107.31 195.015 106.522 195.015C105.733 195.015 105.094 195.653 105.094 196.438C105.094 197.224 105.733 197.862 106.522 197.862ZM106.522 179.642C107.31 179.642 107.95 179.005 107.95 178.219C107.95 177.433 107.31 176.795 106.522 176.795C105.733 176.795 105.094 177.433 105.094 178.219C105.094 179.005 105.733 179.642 106.522 179.642ZM106.522 184.197C107.31 184.197 107.95 183.562 107.95 182.774C107.95 181.985 107.31 181.35 106.522 181.35C105.733 181.35 105.094 181.988 105.094 182.774C105.094 183.559 105.733 184.197 106.522 184.197ZM106.522 193.307C107.31 193.307 107.95 192.669 107.95 191.884C107.95 191.098 107.31 190.46 106.522 190.46C105.733 190.46 105.094 191.098 105.094 191.884C105.094 192.669 105.733 193.307 106.522 193.307ZM106.522 202.417C107.31 202.417 107.95 201.779 107.95 200.993C107.95 200.208 107.31 199.57 106.522 199.57C105.733 199.57 105.094 200.208 105.094 200.993C105.094 201.779 105.733 202.417 106.522 202.417ZM106.522 206.972C107.31 206.972 107.95 206.337 107.95 205.548C107.95 204.76 107.31 204.125 106.522 204.125C105.733 204.125 105.094 204.762 105.094 205.548C105.094 206.334 105.733 206.972 106.522 206.972ZM106.522 211.526C107.31 211.526 107.95 210.889 107.95 210.103C107.95 209.317 107.31 208.68 106.522 208.68C105.733 208.68 105.094 209.317 105.094 210.103C105.094 210.889 105.733 211.526 106.522 211.526ZM106.522 156.535C107.31 156.535 107.95 155.897 107.95 155.111C107.95 154.326 107.31 153.688 106.522 153.688C105.733 153.688 105.094 154.326 105.094 155.111C105.094 155.897 105.733 156.535 106.522 156.535ZM106.522 161.09C107.31 161.09 107.95 160.455 107.95 159.666C107.95 158.878 107.31 158.243 106.522 158.243C105.733 158.243 105.094 158.881 105.094 159.666C105.094 160.452 105.733 161.09 106.522 161.09ZM106.522 174.754C107.31 174.754 107.95 174.117 107.95 173.331C107.95 172.545 107.31 171.908 106.522 171.908C105.733 171.908 105.094 172.545 105.094 173.331C105.094 174.117 105.733 174.754 106.522 174.754ZM106.522 165.645C107.31 165.645 107.95 165.007 107.95 164.221C107.95 163.435 107.31 162.798 106.522 162.798C105.733 162.798 105.094 163.435 105.094 164.221C105.094 165.007 105.733 165.645 106.522 165.645ZM106.522 170.199C107.31 170.199 107.95 169.562 107.95 168.776C107.95 167.99 107.31 167.353 106.522 167.353C105.733 167.353 105.094 167.99 105.094 168.776C105.094 169.562 105.733 170.199 106.522 170.199Z" fill="url(#paint5_linear_1233_7106)"/>
<path d="M68.4077 98.9014C68.9646 99.4565 69.87 99.4565 70.4269 98.9014C70.9838 98.3462 70.9838 97.4438 70.4269 96.8887C69.87 96.3335 68.9646 96.3335 68.4077 96.8887C67.8508 97.4438 67.8508 98.3462 68.4077 98.9014ZM61.9476 92.4562C62.5045 93.0113 63.4099 93.0113 63.9668 92.4562C64.5237 91.9011 64.5237 90.9986 63.9668 90.4435C63.4099 89.8884 62.5045 89.8884 61.9476 90.4435C61.3907 90.9986 61.3879 91.8982 61.9476 92.4562ZM74.8678 105.344C75.4247 105.899 76.33 105.899 76.887 105.344C77.4439 104.789 77.4439 103.886 76.887 103.331C76.33 102.776 75.4247 102.776 74.8678 103.331C74.3109 103.886 74.3109 104.789 74.8678 105.344ZM71.6378 102.121C72.1947 102.676 73.1 102.676 73.6569 102.121C74.2138 101.566 74.2138 100.664 73.6569 100.108C73.1 99.5533 72.1947 99.5533 71.6378 100.108C71.0809 100.664 71.078 101.563 71.6378 102.121ZM65.1777 95.6759C65.7346 96.2311 66.6399 96.2311 67.1968 95.6759C67.7537 95.1208 67.7537 94.2184 67.1968 93.6632C66.6399 93.1081 65.7346 93.1081 65.1777 93.6632C64.6208 94.2184 64.6208 95.1208 65.1777 95.6759ZM58.7176 89.2308C59.2745 89.7859 60.1798 89.7859 60.7367 89.2308C61.2936 88.6756 61.2936 87.7732 60.7367 87.2181C60.1798 86.663 59.2745 86.663 58.7176 87.2181C58.1607 87.7732 58.1607 88.6756 58.7176 89.2308ZM55.4876 86.0082C56.0445 86.5633 56.9498 86.5633 57.5067 86.0082C58.0636 85.4531 58.0636 84.5506 57.5067 83.9955C56.9498 83.4404 56.0445 83.4404 55.4876 83.9955C54.9307 84.5506 54.9278 85.4502 55.4876 86.0082ZM52.2575 82.7856C52.8144 83.3407 53.7197 83.3407 54.2767 82.7856C54.8336 82.2305 54.8336 81.328 54.2767 80.7729C53.7197 80.2178 52.8144 80.2178 52.2575 80.7729C51.7006 81.328 51.7006 82.2305 52.2575 82.7856ZM91.2522 121.687C91.8091 122.242 92.7144 122.242 93.2713 121.687C93.8282 121.132 93.8282 120.23 93.2713 119.674C92.7144 119.119 91.8091 119.119 91.2522 119.674C90.6953 120.23 90.6953 121.132 91.2522 121.687ZM88.0222 118.465C88.5791 119.02 89.4844 119.02 90.0413 118.465C90.5982 117.909 90.5982 117.007 90.0413 116.452C89.4844 115.897 88.5791 115.897 88.0222 116.452C87.4653 117.007 87.4624 117.907 88.0222 118.465ZM78.332 108.797C78.8889 109.352 79.7943 109.352 80.3512 108.797C80.9081 108.242 80.9081 107.339 80.3512 106.784C79.7943 106.229 78.8889 106.229 78.332 106.784C77.7751 107.339 77.7751 108.242 78.332 108.797ZM84.7921 115.242C85.349 115.797 86.2544 115.797 86.8113 115.242C87.3682 114.687 87.3682 113.784 86.8113 113.229C86.2544 112.674 85.349 112.674 84.7921 113.229C84.2352 113.784 84.2352 114.687 84.7921 115.242ZM81.5621 112.019C82.119 112.575 83.0243 112.575 83.5812 112.019C84.1381 111.464 84.1381 110.562 83.5812 110.007C83.0243 109.452 82.119 109.452 81.5621 110.007C81.0052 110.562 81.0052 111.464 81.5621 112.019Z" fill="url(#paint6_linear_1233_7106)"/>
<path d="M54.4589 135.739C55.2471 135.739 55.8868 135.101 55.8868 134.316C55.8868 133.53 55.2471 132.892 54.4589 132.892C53.6707 132.892 53.0309 133.53 53.0309 134.316C53.0309 135.101 53.6707 135.739 54.4589 135.739ZM45.32 135.736C46.1082 135.736 46.7479 135.099 46.7479 134.313C46.7479 133.527 46.1082 132.889 45.32 132.889C44.5317 132.889 43.892 133.527 43.892 134.313C43.892 135.099 44.5289 135.736 45.32 135.736ZM63.5978 135.745C64.3861 135.745 65.0258 135.107 65.0258 134.321C65.0258 133.536 64.3861 132.898 63.5978 132.898C62.8096 132.898 62.1699 133.536 62.1699 134.321C62.1699 135.107 62.8096 135.745 63.5978 135.745ZM59.0284 135.745C59.8166 135.745 60.4563 135.107 60.4563 134.321C60.4563 133.536 59.8166 132.898 59.0284 132.898C58.2401 132.898 57.6004 133.536 57.6004 134.321C57.6004 135.107 58.2373 135.745 59.0284 135.745ZM49.8894 135.742C50.6777 135.742 51.3174 135.104 51.3174 134.318C51.3174 133.533 50.6777 132.895 49.8894 132.895C49.1012 132.895 48.4615 133.533 48.4615 134.318C48.4615 135.104 49.1012 135.742 49.8894 135.742ZM40.7505 135.739C41.5387 135.739 42.1784 135.101 42.1784 134.316C42.1784 133.53 41.5387 132.892 40.7505 132.892C39.9623 132.892 39.3225 133.53 39.3225 134.316C39.3225 135.101 39.9623 135.739 40.7505 135.739ZM36.181 135.739C36.9693 135.739 37.609 135.101 37.609 134.316C37.609 133.53 36.9693 132.892 36.181 132.892C35.3928 132.892 34.7531 133.53 34.7531 134.316C34.7531 135.101 35.3899 135.739 36.181 135.739ZM31.6116 135.739C32.3998 135.739 33.0395 135.101 33.0395 134.316C33.0395 133.53 32.3998 132.892 31.6116 132.892C30.8233 132.892 30.1836 133.53 30.1836 134.316C30.1836 135.101 30.8233 135.739 31.6116 135.739ZM86.7793 135.762C87.5675 135.762 88.2073 135.124 88.2073 134.338C88.2073 133.553 87.5675 132.915 86.7793 132.915C85.9911 132.915 85.3513 133.553 85.3513 134.338C85.3513 135.124 85.9911 135.762 86.7793 135.762ZM82.2098 135.762C82.9981 135.762 83.6378 135.124 83.6378 134.338C83.6378 133.553 82.9981 132.915 82.2098 132.915C81.4216 132.915 80.7819 133.553 80.7819 134.338C80.7819 135.124 81.4187 135.762 82.2098 135.762ZM68.5014 135.756C69.2897 135.756 69.9294 135.118 69.9294 134.333C69.9294 133.547 69.2897 132.909 68.5014 132.909C67.7132 132.909 67.0735 133.547 67.0735 134.333C67.0735 135.118 67.7132 135.756 68.5014 135.756ZM77.6404 135.759C78.4286 135.759 79.0683 135.121 79.0683 134.336C79.0683 133.55 78.4286 132.912 77.6404 132.912C76.8521 132.912 76.2124 133.55 76.2124 134.336C76.2124 135.121 76.8521 135.759 77.6404 135.759ZM73.0709 135.759C73.8591 135.759 74.4989 135.121 74.4989 134.336C74.4989 133.55 73.8591 132.912 73.0709 132.912C72.2827 132.912 71.6429 133.55 71.6429 134.336C71.6429 135.121 72.2827 135.759 73.0709 135.759Z" fill="url(#paint7_linear_1233_7106)"/>
<path d="M68.4155 173.858C68.9724 174.413 69.8778 174.413 70.4347 173.858C70.9916 173.303 70.9916 172.4 70.4347 171.845C69.8778 171.29 68.9724 171.29 68.4155 171.845C67.8586 172.4 67.8586 173.303 68.4155 173.858ZM61.9555 180.303C62.5124 180.858 63.4148 180.861 63.9746 180.303C64.5315 179.748 64.5315 178.845 63.9746 178.29C63.4177 177.735 62.5124 177.735 61.9555 178.29C61.3986 178.845 61.3986 179.748 61.9555 180.303ZM74.8756 167.415C75.4325 167.97 76.3379 167.97 76.8948 167.415C77.4517 166.86 77.4517 165.958 76.8948 165.403C76.3379 164.848 75.4325 164.848 74.8756 165.403C74.3187 165.958 74.3187 166.86 74.8756 167.415ZM71.6456 170.638C72.2025 171.193 73.105 171.196 73.6647 170.638C74.2245 170.08 74.2216 169.18 73.6647 168.625C73.1078 168.07 72.2025 168.07 71.6456 168.625C71.0887 169.18 71.0887 170.083 71.6456 170.638ZM65.1855 177.083C65.7424 177.638 66.6477 177.638 67.2046 177.083C67.7615 176.528 67.7615 175.626 67.2046 175.07C66.6477 174.515 65.7424 174.515 65.1855 175.07C64.6286 175.626 64.6286 176.528 65.1855 177.083ZM58.7254 183.528C59.2823 184.083 60.1876 184.083 60.7446 183.528C61.3015 182.973 61.3015 182.071 60.7446 181.516C60.1876 180.96 59.2823 180.96 58.7254 181.516C58.1685 182.071 58.1685 182.973 58.7254 183.528ZM55.4954 186.751C56.0523 187.306 56.9547 187.309 57.5145 186.751C58.0743 186.193 58.0714 185.293 57.5145 184.738C56.9576 184.183 56.0523 184.183 55.4954 184.738C54.9385 185.293 54.9385 186.196 55.4954 186.751ZM52.2653 189.973C52.8222 190.529 53.7276 190.529 54.2845 189.973C54.8414 189.418 54.8414 188.516 54.2845 187.961C53.7276 187.406 52.8222 187.406 52.2653 187.961C51.7084 188.516 51.7084 189.418 52.2653 189.973ZM91.26 151.072C91.8169 151.627 92.7222 151.627 93.2792 151.072C93.8361 150.517 93.8361 149.614 93.2792 149.059C92.7222 148.504 91.8169 148.504 91.26 149.059C90.7031 149.614 90.7031 150.517 91.26 151.072ZM88.03 154.294C88.5869 154.85 89.4893 154.852 90.0491 154.294C90.6089 153.736 90.606 152.837 90.0491 152.282C89.4922 151.727 88.5869 151.727 88.03 152.282C87.4731 152.837 87.4731 153.739 88.03 154.294ZM78.3399 163.962C78.8968 164.517 79.8021 164.517 80.359 163.962C80.9159 163.407 80.9159 162.505 80.359 161.949C79.8021 161.394 78.8968 161.394 78.3399 161.949C77.7829 162.505 77.7829 163.407 78.3399 163.962ZM84.7999 157.517C85.3568 158.072 86.2622 158.072 86.8191 157.517C87.376 156.962 87.376 156.059 86.8191 155.504C86.2622 154.949 85.3568 154.949 84.7999 155.504C84.243 156.059 84.243 156.962 84.7999 157.517ZM81.5699 160.74C82.1268 161.295 83.0321 161.295 83.589 160.74C84.1459 160.184 84.1459 159.282 83.589 158.727C83.0321 158.172 82.1268 158.172 81.5699 158.727C81.013 159.282 81.013 160.184 81.5699 160.74Z" fill="url(#paint8_linear_1233_7106)"/>
</g>
<defs>
<linearGradient id="paint0_linear_1233_7106" x1="0.0351562" y1="143.067" x2="213.035" y2="143.067" gradientUnits="userSpaceOnUse">
<stop stop-color="#8CD6D6"/>
<stop offset="1" stop-color="#FF9F80"/>
</linearGradient>
<linearGradient id="paint1_linear_1233_7106" x1="105.953" y1="2.41175" x2="107.08" y2="111.479" gradientUnits="userSpaceOnUse">
<stop stop-color="#8CD6D6"/>
<stop offset="1" stop-color="#FF9F80"/>
</linearGradient>
<linearGradient id="paint2_linear_1233_7106" x1="160.717" y1="81.1647" x2="121.52" y2="121.334" gradientUnits="userSpaceOnUse">
<stop stop-color="#8CD6D6"/>
<stop offset="1" stop-color="#FF9F80"/>
</linearGradient>
<linearGradient id="paint3_linear_1233_7106" x1="182.751" y1="134.014" x2="126.541" y2="134.615" gradientUnits="userSpaceOnUse">
<stop stop-color="#8CD6D6"/>
<stop offset="1" stop-color="#FF9F80"/>
</linearGradient>
<linearGradient id="paint4_linear_1233_7106" x1="160.711" y1="189.58" x2="121.515" y2="149.411" gradientUnits="userSpaceOnUse">
<stop stop-color="#8CD6D6"/>
<stop offset="1" stop-color="#FF9F80"/>
</linearGradient>
<linearGradient id="paint5_linear_1233_7106" x1="106.813" y1="210.701" x2="106.234" y2="154.667" gradientUnits="userSpaceOnUse">
<stop stop-color="#8CD6D6"/>
<stop offset="1" stop-color="#FF9F80"/>
</linearGradient>
<linearGradient id="paint6_linear_1233_7106" x1="53.0623" y1="81.1655" x2="92.2565" y2="121.337" gradientUnits="userSpaceOnUse">
<stop stop-color="#8CD6D6"/>
<stop offset="1" stop-color="#FF9F80"/>
</linearGradient>
<linearGradient id="paint7_linear_1233_7106" x1="31.0305" y1="134.017" x2="87.2433" y2="134.618" gradientUnits="userSpaceOnUse">
<stop stop-color="#8CD6D6"/>
<stop offset="1" stop-color="#FF9F80"/>
</linearGradient>
<linearGradient id="paint8_linear_1233_7106" x1="53.0689" y1="189.579" x2="92.2651" y2="149.41" gradientUnits="userSpaceOnUse">
<stop stop-color="#8CD6D6"/>
<stop offset="1" stop-color="#FF9F80"/>
</linearGradient>
<clipPath id="clip0_1233_7106">
<rect width="213" height="247" fill="white" transform="translate(0.0351562 0.806152)"/>
</clipPath>
</defs>
</svg>
