<svg width="74" height="74" viewBox="0 0 74 74" fill="none" xmlns="http://www.w3.org/2000/svg">
<g clip-path="url(#clip0_1204_1470)">
<path d="M34.508 53.7465C33.6807 53.7465 32.9346 53.2618 32.5793 52.4852L24.7961 35.4114C24.7682 35.348 24.7352 35.3404 24.7123 35.3378C24.6946 35.3378 24.6641 35.3429 24.6337 35.3962L20.6774 42.215C20.2942 42.8749 19.5912 43.2834 18.8451 43.2834H7.8644C7.30356 43.2834 6.84931 42.8292 6.84931 42.2683C6.84931 41.7075 7.30356 41.2532 7.8644 41.2532H18.8477C18.873 41.2532 18.9035 41.2304 18.9238 41.1949L22.8801 34.376C23.2836 33.6781 24.0246 33.2721 24.8139 33.3102C25.6056 33.3482 26.3086 33.8304 26.6436 34.5689L34.4267 51.6427C34.4597 51.7137 34.4877 51.7163 34.5156 51.7163C34.546 51.7163 34.5815 51.701 34.6069 51.6198L44.6715 19.2309C44.9558 18.3173 45.7704 17.7083 46.7042 17.7083C46.7093 17.7083 46.7144 17.7083 46.7195 17.7083C47.6584 17.7159 48.473 18.3401 48.7471 19.2639L55.2056 41.1543C55.2234 41.2177 55.2691 41.2532 55.2995 41.2532H65.963C66.5239 41.2532 66.9781 41.7075 66.9781 42.2683C66.9781 42.8292 66.5239 43.2834 65.963 43.2834H55.2995C54.3529 43.2834 53.5333 42.6591 53.2592 41.7278L46.8007 19.8374C46.7728 19.746 46.7398 19.7359 46.7042 19.7384C46.6713 19.7384 46.6383 19.746 46.6104 19.8349L36.5457 52.2238C36.2767 53.0917 35.5307 53.6881 34.645 53.7439C34.5993 53.7465 34.5562 53.749 34.5105 53.749L34.508 53.7465Z" fill="url(#paint0_linear_1204_1470)"/>
<path d="M1.01509 38.0151C0.454252 38.0151 0 37.5608 0 37C0 16.5967 16.5967 0 37 0C37.5608 0 38.0151 0.454252 38.0151 1.01509C38.0151 1.57593 37.5608 2.03018 37 2.03018C17.7184 2.03018 2.03018 17.7184 2.03018 37C2.03018 37.5608 1.57593 38.0151 1.01509 38.0151Z" fill="url(#paint1_linear_1204_1470)"/>
<path d="M37 67.8384C19.9947 67.8384 6.16159 54.0053 6.16159 37C6.16159 19.9947 19.9947 6.16162 37 6.16162C54.0053 6.16162 67.8384 19.9947 67.8384 37C67.8384 54.0053 54.0053 67.8384 37 67.8384ZM37 8.1918C21.1164 8.1918 8.19177 21.1139 8.19177 37C8.19177 52.8862 21.1139 65.8083 37 65.8083C52.8861 65.8083 65.8082 52.8862 65.8082 37C65.8082 21.1139 52.8861 8.1918 37 8.1918Z" fill="url(#paint2_linear_1204_1470)"/>
<path d="M37 74C36.4392 74 35.9849 73.5458 35.9849 72.9849C35.9849 72.4241 36.4392 71.9698 37 71.9698C56.2816 71.9698 71.9698 56.2816 71.9698 37C71.9698 36.4392 72.4241 35.9849 72.9849 35.9849C73.5457 35.9849 74 36.4392 74 37C74 57.4008 57.4033 74 37 74Z" fill="url(#paint3_linear_1204_1470)"/>
</g>
<defs>
<linearGradient id="paint0_linear_1204_1470" x1="6.84931" y1="35.7261" x2="66.9756" y2="35.7261" gradientUnits="userSpaceOnUse">
<stop stop-color="#8CD6D6"/>
<stop offset="1" stop-color="#FF9F80"/>
</linearGradient>
<linearGradient id="paint1_linear_1204_1470" x1="0" y1="19.0075" x2="38.0151" y2="19.0075" gradientUnits="userSpaceOnUse">
<stop stop-color="#8CD6D6"/>
<stop offset="1" stop-color="#FF9F80"/>
</linearGradient>
<linearGradient id="paint2_linear_1204_1470" x1="6.16159" y1="37" x2="67.8384" y2="37" gradientUnits="userSpaceOnUse">
<stop stop-color="#8CD6D6"/>
<stop offset="1" stop-color="#FF9F80"/>
</linearGradient>
<linearGradient id="paint3_linear_1204_1470" x1="35.9849" y1="54.9925" x2="74" y2="54.9925" gradientUnits="userSpaceOnUse">
<stop stop-color="#8CD6D6"/>
<stop offset="1" stop-color="#FF9F80"/>
</linearGradient>
<clipPath id="clip0_1204_1470">
<rect width="74" height="74" fill="white"/>
</clipPath>
</defs>
</svg>
