<svg width="246" height="215" viewBox="0 0 246 215" fill="none" xmlns="http://www.w3.org/2000/svg">
<g clip-path="url(#clip0_1233_1791)">
<path d="M124.704 201.066C123.957 201.061 123.356 200.45 123.362 199.704C123.365 198.957 123.976 198.357 124.723 198.363C125.47 198.365 126.07 198.976 126.068 199.723C126.062 200.466 125.456 201.066 124.712 201.066H124.704ZM127.691 199.72C127.683 198.974 128.284 198.363 129.033 198.357C129.78 198.352 130.391 198.952 130.397 199.698C130.402 200.444 129.802 201.055 129.055 201.061H129.044C128.3 201.061 127.697 200.463 127.691 199.72ZM120.356 201.004C119.609 200.988 119.016 200.369 119.03 199.623C119.049 198.876 119.666 198.284 120.413 198.3C121.162 198.317 121.755 198.936 121.738 199.682C121.722 200.417 121.119 201.004 120.386 201.004H120.356ZM132.02 199.671C132.001 198.925 132.594 198.306 133.341 198.287C134.088 198.271 134.707 198.86 134.726 199.606C134.742 200.353 134.153 200.972 133.406 200.991H133.371C132.64 200.991 132.039 200.407 132.02 199.671ZM116.005 200.877C115.261 200.85 114.676 200.223 114.703 199.477C114.733 198.73 115.361 198.146 116.105 198.173C116.849 198.203 117.434 198.83 117.406 199.577C117.379 200.307 116.779 200.877 116.054 200.877H116.002H116.005ZM136.35 199.555C136.32 198.809 136.902 198.181 137.648 198.152C138.395 198.122 139.023 198.703 139.053 199.449C139.082 200.196 138.501 200.823 137.754 200.853C137.735 200.853 137.719 200.853 137.7 200.853C136.977 200.853 136.377 200.282 136.35 199.552V199.555ZM111.659 200.682C110.913 200.642 110.342 200.006 110.38 199.26C110.417 198.514 111.056 197.944 111.8 197.981C112.547 198.022 113.121 198.657 113.083 199.404C113.042 200.125 112.447 200.682 111.732 200.682H111.659ZM140.676 199.374C140.633 198.628 141.206 197.99 141.951 197.949C142.697 197.908 143.336 198.479 143.377 199.225C143.417 199.971 142.846 200.609 142.099 200.65H142.024C141.312 200.65 140.714 200.093 140.676 199.374ZM107.314 200.417C106.57 200.366 106.007 199.72 106.058 198.976C106.11 198.23 106.757 197.668 107.501 197.719C108.247 197.771 108.81 198.417 108.759 199.163C108.71 199.874 108.115 200.42 107.409 200.42C107.379 200.42 107.346 200.42 107.314 200.417ZM144.997 199.122C144.946 198.379 145.506 197.73 146.253 197.679C146.997 197.625 147.644 198.187 147.698 198.93C147.752 199.674 147.189 200.323 146.445 200.374C146.41 200.374 146.377 200.374 146.345 200.374C145.644 200.374 145.049 199.831 144.997 199.12V199.122ZM102.977 200.082C102.23 200.017 101.678 199.363 101.743 198.619C101.808 197.876 102.462 197.324 103.207 197.389C103.951 197.451 104.503 198.106 104.438 198.852C104.378 199.555 103.788 200.088 103.093 200.088C103.055 200.088 103.014 200.085 102.977 200.082ZM149.316 198.801C149.251 198.057 149.8 197.403 150.544 197.335C151.288 197.27 151.946 197.819 152.013 198.563C152.078 199.309 151.529 199.963 150.782 200.028C150.742 200.033 150.704 200.033 150.663 200.033C149.968 200.033 149.378 199.504 149.316 198.801ZM98.6419 199.671C97.8978 199.595 97.3567 198.93 97.4351 198.187C97.5109 197.446 98.1765 196.905 98.9179 196.984C99.662 197.059 100.203 197.725 100.127 198.468C100.054 199.163 99.4672 199.679 98.7826 199.679C98.7339 199.679 98.6879 199.679 98.6419 199.671ZM153.629 198.409C153.55 197.665 154.089 197 154.83 196.922C155.574 196.84 156.24 197.378 156.318 198.122C156.399 198.866 155.858 199.531 155.117 199.609C155.068 199.614 155.019 199.617 154.973 199.617C154.289 199.617 153.702 199.101 153.629 198.409ZM94.3127 199.185C93.5713 199.093 93.0436 198.419 93.1356 197.679C93.2249 196.938 93.8987 196.411 94.6428 196.5C95.3841 196.592 95.9118 197.265 95.8198 198.006C95.7359 198.692 95.1514 199.195 94.4777 199.195C94.4236 199.195 94.3695 199.195 94.3127 199.185ZM157.934 197.935C157.842 197.195 158.367 196.521 159.108 196.427C159.849 196.335 160.526 196.859 160.618 197.603C160.71 198.344 160.185 199.017 159.443 199.109C159.387 199.117 159.33 199.12 159.273 199.12C158.602 199.12 158.017 198.619 157.934 197.935ZM89.9942 198.614C89.2529 198.509 88.7415 197.825 88.8443 197.087C88.9498 196.346 89.6344 195.832 90.3758 195.937C91.1144 196.043 91.6285 196.727 91.523 197.468C91.4283 198.141 90.8493 198.628 90.1863 198.628C90.1241 198.628 90.0592 198.622 89.9942 198.614ZM162.228 197.384C162.119 196.646 162.634 195.959 163.372 195.851C164.111 195.745 164.798 196.256 164.906 196.997C165.012 197.735 164.501 198.422 163.762 198.528C163.694 198.538 163.629 198.541 163.564 198.541C162.904 198.541 162.325 198.057 162.228 197.384ZM85.6839 197.954C84.948 197.835 84.4474 197.141 84.5692 196.402C84.6882 195.667 85.3863 195.167 86.1223 195.289C86.861 195.408 87.3615 196.105 87.2398 196.84C87.1315 197.503 86.5579 197.973 85.9058 197.973C85.8328 197.973 85.7597 197.968 85.6839 197.954ZM166.511 196.746C166.386 196.01 166.884 195.313 167.62 195.191C168.359 195.067 169.057 195.564 169.179 196.3C169.303 197.038 168.805 197.733 168.067 197.857C167.991 197.868 167.918 197.876 167.842 197.876C167.195 197.876 166.622 197.408 166.511 196.746ZM81.3899 197.2C80.6539 197.062 80.1723 196.354 80.3103 195.621C80.4483 194.886 81.1545 194.404 81.8904 194.542C82.6237 194.68 83.108 195.389 82.97 196.121C82.8456 196.77 82.2801 197.224 81.6415 197.224C81.5576 197.224 81.4737 197.216 81.3899 197.2ZM170.778 196.013C170.637 195.28 171.119 194.572 171.852 194.432C172.585 194.291 173.294 194.772 173.435 195.505C173.576 196.238 173.097 196.946 172.364 197.087C172.277 197.103 172.19 197.111 172.106 197.111C171.471 197.111 170.902 196.662 170.778 196.013ZM77.1093 196.338C76.3788 196.178 75.9161 195.459 76.073 194.729C76.2299 193.999 76.9497 193.537 77.6802 193.693C78.4108 193.85 78.8762 194.569 78.7166 195.299C78.5813 195.935 78.0185 196.367 77.3961 196.367C77.3014 196.367 77.2067 196.357 77.1093 196.338ZM175.026 195.178C174.866 194.448 175.329 193.729 176.057 193.566C176.787 193.407 177.51 193.866 177.67 194.596C177.832 195.324 177.369 196.046 176.639 196.208C176.541 196.229 176.444 196.24 176.346 196.24C175.727 196.24 175.167 195.81 175.026 195.178ZM72.8504 195.351C72.1253 195.172 71.6842 194.437 71.8628 193.712C72.0441 192.988 72.7774 192.547 73.5025 192.725C74.2277 192.907 74.6687 193.639 74.4901 194.364C74.3359 194.98 73.7839 195.391 73.1778 195.391C73.0696 195.391 72.9587 195.378 72.8504 195.351ZM179.252 194.223C179.068 193.501 179.507 192.766 180.232 192.582C180.954 192.398 181.69 192.836 181.874 193.561C182.058 194.286 181.62 195.021 180.895 195.202C180.784 195.232 180.67 195.245 180.562 195.245C179.956 195.245 179.407 194.837 179.252 194.223ZM68.6186 194.221C67.9016 194.015 67.4876 193.266 67.6932 192.55C67.8989 191.831 68.6484 191.417 69.3681 191.622C70.0851 191.828 70.4991 192.58 70.2935 193.296C70.123 193.888 69.5819 194.275 68.9947 194.275C68.8702 194.275 68.7458 194.258 68.6186 194.221ZM183.441 193.136C183.233 192.42 183.641 191.668 184.358 191.457C185.075 191.247 185.827 191.658 186.039 192.374C186.25 193.09 185.838 193.842 185.121 194.05C184.994 194.088 184.867 194.107 184.74 194.107C184.155 194.107 183.614 193.726 183.441 193.136ZM64.4273 192.917C63.7184 192.68 63.3369 191.912 63.5777 191.203C63.8158 190.498 64.5843 190.116 65.2905 190.357C65.9994 190.595 66.3782 191.36 66.1401 192.069C65.9507 192.634 65.4231 192.99 64.8603 192.99C64.7169 192.99 64.5708 192.966 64.4273 192.917ZM187.586 191.885C187.343 191.179 187.719 190.408 188.425 190.165C189.131 189.922 189.9 190.295 190.143 191.001C190.389 191.706 190.013 192.477 189.307 192.72C189.161 192.771 189.012 192.796 188.866 192.796C188.306 192.796 187.781 192.444 187.586 191.885ZM60.2902 191.39C59.5975 191.109 59.2647 190.319 59.5434 189.63C59.8275 188.935 60.6149 188.602 61.3076 188.886C62.0003 189.165 62.3331 189.954 62.0517 190.646C61.8379 191.171 61.3319 191.49 60.7962 191.49C60.6284 191.49 60.4553 191.457 60.2902 191.39ZM191.667 190.43C191.377 189.741 191.702 188.948 192.392 188.662C193.082 188.373 193.874 188.697 194.161 189.386C194.451 190.076 194.123 190.868 193.436 191.155C193.266 191.228 193.087 191.26 192.914 191.26C192.386 191.26 191.883 190.949 191.667 190.43ZM56.2315 189.543C55.5686 189.197 55.3116 188.381 55.6579 187.721C56.0043 187.059 56.8214 186.802 57.4843 187.148C58.1472 187.494 58.4016 188.31 58.0579 188.973C57.8144 189.435 57.3436 189.697 56.8566 189.697C56.6455 189.697 56.4318 189.649 56.2315 189.543ZM195.652 188.732C195.279 188.083 195.503 187.259 196.15 186.886C196.799 186.512 197.625 186.737 197.998 187.383C198.369 188.029 198.147 188.857 197.5 189.23C197.286 189.351 197.054 189.408 196.826 189.408C196.358 189.408 195.901 189.167 195.652 188.732ZM52.4191 186.786C51.8861 186.264 51.8752 185.407 52.3948 184.874C52.917 184.339 53.7747 184.328 54.3077 184.85C54.8435 185.369 54.8543 186.226 54.3348 186.761C54.0669 187.032 53.7152 187.169 53.3634 187.169C53.0252 187.169 52.6843 187.042 52.4191 186.786ZM199.281 186.372C198.739 185.858 198.715 185.004 199.229 184.46C199.743 183.92 200.598 183.895 201.142 184.409C201.686 184.923 201.708 185.777 201.194 186.321C200.928 186.602 200.571 186.742 200.211 186.742C199.879 186.742 199.543 186.621 199.281 186.372ZM49.5618 183.052C49.1992 182.4 49.4319 181.576 50.0867 181.213C50.7388 180.848 51.5614 181.084 51.9267 181.735C52.2892 182.389 52.0538 183.211 51.4017 183.574C51.1934 183.69 50.9688 183.747 50.7442 183.747C50.2707 183.747 49.8107 183.495 49.5618 183.052ZM202.084 183.071C201.415 182.735 201.148 181.922 201.486 181.254C201.824 180.589 202.638 180.321 203.304 180.659C203.97 180.994 204.238 181.808 203.899 182.476C203.661 182.946 203.185 183.217 202.69 183.217C202.484 183.217 202.276 183.171 202.081 183.071H202.084ZM47.8896 178.658C47.7273 177.931 48.1873 177.209 48.9151 177.044C49.6457 176.885 50.3681 177.344 50.5305 178.072C50.6928 178.802 50.2328 179.524 49.5023 179.686C49.4049 179.707 49.3048 179.718 49.2073 179.718C48.5877 179.718 48.0303 179.288 47.8896 178.658ZM203.824 179.107C203.088 178.975 202.601 178.272 202.733 177.536C202.866 176.804 203.569 176.314 204.305 176.447C205.041 176.579 205.528 177.285 205.396 178.018C205.277 178.672 204.708 179.129 204.067 179.129C203.986 179.129 203.905 179.123 203.824 179.107ZM47.5 174.065C47.5 173.319 48.1034 172.716 48.8529 172.716C49.5997 172.716 50.2058 173.319 50.2058 174.065C50.2058 174.811 49.5997 175.417 48.8529 175.417C48.1034 175.417 47.5 174.811 47.5 174.065ZM202.952 173.465C202.952 172.718 203.558 172.113 204.305 172.113C205.052 172.113 205.658 172.718 205.658 173.465C205.658 174.214 205.052 174.816 204.305 174.816C203.558 174.816 202.952 174.214 202.952 173.465ZM47.5 169.739C47.5 168.993 48.1034 168.387 48.8529 168.387C49.5997 168.387 50.2058 168.993 50.2058 169.739C50.2058 170.488 49.5997 171.091 48.8529 171.091C48.1034 171.091 47.5 170.488 47.5 169.739ZM202.952 169.141C202.952 168.393 203.558 167.79 204.305 167.79C205.052 167.79 205.658 168.393 205.658 169.141C205.658 169.888 205.052 170.493 204.305 170.493C203.558 170.493 202.952 169.888 202.952 169.141ZM47.5 165.416C47.5 164.67 48.1034 164.064 48.8529 164.064C49.5997 164.064 50.2058 164.67 50.2058 165.416C50.2058 166.162 49.5997 166.768 48.8529 166.768C48.1034 166.768 47.5 166.162 47.5 165.416ZM202.952 164.813C202.952 164.067 203.558 163.461 204.305 163.461C205.052 163.461 205.658 164.067 205.658 164.813C205.658 165.562 205.052 166.165 204.305 166.165C203.558 166.165 202.952 165.562 202.952 164.813ZM47.5 161.087C47.5 160.341 48.1034 159.735 48.8529 159.735C49.5997 159.735 50.2058 160.341 50.2058 161.087C50.2058 161.836 49.5997 162.439 48.8529 162.439C48.1034 162.439 47.5 161.836 47.5 161.087ZM202.952 160.49C202.952 159.741 203.558 159.138 204.305 159.138C205.052 159.138 205.658 159.741 205.658 160.49C205.658 161.236 205.052 161.842 204.305 161.842C203.558 161.842 202.952 161.236 202.952 160.49ZM47.5 156.764C47.5 156.015 48.1034 155.412 48.8529 155.412C49.5997 155.412 50.2058 156.015 50.2058 156.764C50.2058 157.51 49.5997 158.116 48.8529 158.116C48.1034 158.116 47.5 157.51 47.5 156.764ZM202.952 156.161C202.952 155.415 203.558 154.809 204.305 154.809C205.052 154.809 205.658 155.415 205.658 156.161C205.658 156.907 205.052 157.513 204.305 157.513C203.558 157.513 202.952 156.907 202.952 156.161ZM47.5 152.436C47.5 151.689 48.1034 151.084 48.8529 151.084C49.5997 151.084 50.2058 151.689 50.2058 152.436C50.2058 153.185 49.5997 153.787 48.8529 153.787C48.1034 153.787 47.5 153.185 47.5 152.436ZM202.952 151.838C202.952 151.089 203.558 150.486 204.305 150.486C205.052 150.486 205.658 151.089 205.658 151.838C205.658 152.584 205.052 153.19 204.305 153.19C203.558 153.19 202.952 152.584 202.952 151.838ZM47.5 148.112C47.5 147.364 48.1034 146.761 48.8529 146.761C49.5997 146.761 50.2058 147.364 50.2058 148.112C50.2058 148.859 49.5997 149.464 48.8529 149.464C48.1034 149.464 47.5 148.859 47.5 148.112ZM202.952 147.51C202.952 146.763 203.558 146.158 204.305 146.158C205.052 146.158 205.658 146.763 205.658 147.51C205.658 148.256 205.052 148.861 204.305 148.861C203.558 148.861 202.952 148.256 202.952 147.51ZM47.5 143.784C47.5 143.038 48.1034 142.432 48.8529 142.432C49.5997 142.432 50.2058 143.038 50.2058 143.784C50.2058 144.533 49.5997 145.136 48.8529 145.136C48.1034 145.136 47.5 144.533 47.5 143.784ZM202.952 143.186C202.952 142.437 203.558 141.832 204.305 141.832C205.052 141.832 205.658 142.437 205.658 143.186C205.658 143.933 205.052 144.538 204.305 144.538C203.558 144.538 202.952 143.933 202.952 143.186ZM47.5 139.461C47.5 138.712 48.1034 138.109 48.8529 138.109C49.5997 138.109 50.2058 138.712 50.2058 139.461C50.2058 140.207 49.5997 140.813 48.8529 140.813C48.1034 140.813 47.5 140.207 47.5 139.461ZM202.952 138.858C202.952 138.112 203.558 137.506 204.305 137.506C205.052 137.506 205.658 138.112 205.658 138.858C205.658 139.604 205.052 140.21 204.305 140.21C203.558 140.21 202.952 139.604 202.952 138.858ZM47.5 135.132C47.5 134.386 48.1034 133.78 48.8529 133.78C49.5997 133.78 50.2058 134.386 50.2058 135.132C50.2058 135.881 49.5997 136.484 48.8529 136.484C48.1034 136.484 47.5 135.881 47.5 135.132ZM202.952 134.532C202.952 133.786 203.558 133.18 204.305 133.18C205.052 133.18 205.658 133.786 205.658 134.532C205.658 135.281 205.052 135.884 204.305 135.884C203.558 135.884 202.952 135.281 202.952 134.532ZM47.5 130.809C47.5 130.06 48.1034 129.454 48.8529 129.454C49.5997 129.454 50.2058 130.06 50.2058 130.809C50.2058 131.555 49.5997 132.161 48.8529 132.161C48.1034 132.161 47.5 131.555 47.5 130.809ZM202.952 130.209C202.952 129.46 203.558 128.857 204.305 128.857C205.052 128.857 205.658 129.46 205.658 130.209C205.658 130.955 205.052 131.558 204.305 131.558C203.558 131.558 202.952 130.955 202.952 130.209ZM47.5 126.48C47.5 125.734 48.1034 125.129 48.8529 125.129C49.5997 125.129 50.2058 125.734 50.2058 126.48C50.2058 127.227 49.5997 127.832 48.8529 127.832C48.1034 127.832 47.5 127.227 47.5 126.48ZM202.952 125.88C202.952 125.134 203.558 124.528 204.305 124.528C205.052 124.528 205.658 125.134 205.658 125.88C205.658 126.629 205.052 127.232 204.305 127.232C203.558 127.232 202.952 126.629 202.952 125.88ZM47.5 122.155C47.5 121.408 48.1034 120.803 48.8529 120.803C49.5997 120.803 50.2058 121.408 50.2058 122.155C50.2058 122.904 49.5997 123.506 48.8529 123.506C48.1034 123.506 47.5 122.904 47.5 122.155ZM202.952 121.557C202.952 120.808 203.558 120.205 204.305 120.205C205.052 120.205 205.658 120.808 205.658 121.557C205.658 122.303 205.052 122.909 204.305 122.909C203.558 122.909 202.952 122.303 202.952 121.557ZM47.5 117.831C47.5 117.085 48.1034 116.48 48.8529 116.48C49.5997 116.48 50.2058 117.085 50.2058 117.831C50.2058 118.578 49.5997 119.181 48.8529 119.181C48.1034 119.181 47.5 118.578 47.5 117.831ZM202.952 117.229C202.952 116.482 203.558 115.877 204.305 115.877C205.052 115.877 205.658 116.482 205.658 117.229C205.658 117.977 205.052 118.58 204.305 118.58C203.558 118.58 202.952 117.977 202.952 117.229ZM47.5 113.503C47.5 112.757 48.1034 112.151 48.8529 112.151C49.5997 112.151 50.2058 112.757 50.2058 113.503C50.2058 114.252 49.5997 114.855 48.8529 114.855C48.1034 114.855 47.5 114.252 47.5 113.503ZM202.952 112.905C202.952 112.156 203.558 111.554 204.305 111.554C205.052 111.554 205.658 112.156 205.658 112.905C205.658 113.652 205.052 114.257 204.305 114.257C203.558 114.257 202.952 113.652 202.952 112.905ZM47.5 109.18C47.5 108.434 48.1034 107.828 48.8529 107.828C49.5997 107.828 50.2058 108.434 50.2058 109.18C50.2058 109.926 49.5997 110.532 48.8529 110.532C48.1034 110.532 47.5 109.926 47.5 109.18ZM202.952 108.577C202.952 107.831 203.558 107.225 204.305 107.225C205.052 107.225 205.658 107.831 205.658 108.577C205.658 109.323 205.052 109.929 204.305 109.929C203.558 109.929 202.952 109.323 202.952 108.577ZM47.5 104.851C47.5 104.105 48.1034 103.499 48.8529 103.499C49.5997 103.499 50.2058 104.105 50.2058 104.851C50.2058 105.6 49.5997 106.203 48.8529 106.203C48.1034 106.203 47.5 105.6 47.5 104.851ZM202.952 104.254C202.952 103.505 203.558 102.902 204.305 102.902C205.052 102.902 205.658 103.505 205.658 104.254C205.658 105 205.052 105.606 204.305 105.606C203.558 105.606 202.952 105 202.952 104.254ZM47.5 100.528C47.5 99.7791 48.1034 99.1762 48.8529 99.1762C49.5997 99.1762 50.2058 99.7791 50.2058 100.528C50.2058 101.274 49.5997 101.88 48.8529 101.88C48.1034 101.88 47.5 101.274 47.5 100.528ZM202.952 99.9251C202.952 99.1789 203.558 98.5733 204.305 98.5733C205.052 98.5733 205.658 99.1789 205.658 99.9251C205.658 100.671 205.052 101.277 204.305 101.277C203.558 101.277 202.952 100.671 202.952 99.9251ZM48.8096 97.5513C48.0628 97.5135 47.4892 96.8781 47.5244 96.1319C47.5622 95.3884 48.1954 94.8125 48.9422 94.8504C49.689 94.8882 50.2626 95.5236 50.2247 96.2698C50.1895 96.9917 49.5916 97.554 48.8745 97.554C48.8529 97.554 48.8285 97.554 48.8069 97.554L48.8096 97.5513ZM202.89 95.7128C202.831 94.9693 203.385 94.315 204.129 94.2556C204.876 94.1961 205.528 94.7476 205.588 95.4938C205.647 96.2373 205.093 96.8889 204.349 96.9511C204.313 96.9538 204.275 96.9538 204.238 96.9538C203.542 96.9538 202.95 96.4185 202.89 95.7128ZM49.2073 93.2417C48.4876 93.0416 48.0655 92.2981 48.2657 91.5762C48.4687 90.8571 49.2128 90.438 49.9325 90.6381C50.6522 90.8381 51.0743 91.5843 50.8741 92.3035C50.7063 92.901 50.1625 93.293 49.5699 93.293C49.4509 93.293 49.3291 93.2768 49.2073 93.2417ZM202.124 91.7682C201.902 91.0544 202.3 90.2974 203.015 90.0757C203.726 89.8513 204.487 90.2487 204.708 90.9625C204.93 91.6736 204.533 92.4333 203.818 92.655C203.686 92.6955 203.55 92.7172 203.415 92.7172C202.839 92.7172 202.306 92.3468 202.124 91.7682ZM50.5413 89.1267C49.8811 88.7725 49.6349 87.9533 49.9893 87.2963C50.3438 86.6366 51.1636 86.3906 51.8211 86.7448C52.4786 87.0963 52.7249 87.9155 52.3731 88.5752C52.1296 89.0294 51.6615 89.2862 51.1799 89.2862C50.9634 89.2862 50.7442 89.2349 50.5413 89.1267ZM200.512 88.0858C200.138 87.4396 200.36 86.6123 201.007 86.2392C201.654 85.8661 202.482 86.0878 202.855 86.734C203.228 87.3829 203.006 88.2075 202.36 88.5806C202.146 88.7049 201.913 88.7617 201.683 88.7617C201.215 88.7617 200.761 88.5211 200.512 88.0858ZM52.7465 85.4011C52.181 84.9144 52.1188 84.0601 52.6085 83.495C53.0983 82.9299 53.9533 82.8677 54.5161 83.3571C55.0816 83.8465 55.1438 84.7008 54.6541 85.2659C54.3862 85.5741 54.0101 85.7336 53.6313 85.7336C53.3174 85.7309 53.0008 85.6228 52.7465 85.4011ZM198.131 84.8495C197.622 84.298 197.657 83.4436 198.206 82.938C198.756 82.4325 199.613 82.4676 200.119 83.0164C200.625 83.5653 200.59 84.4196 200.041 84.9279C199.781 85.1659 199.451 85.2848 199.124 85.2848C198.758 85.2848 198.396 85.1388 198.131 84.8495ZM196.253 82.811C195.747 82.2648 195.782 81.4078 196.331 80.9022C196.881 80.3966 197.736 80.4317 198.242 80.9806C198.748 81.5294 198.712 82.3838 198.163 82.8894C197.903 83.13 197.576 83.249 197.246 83.249C196.883 83.249 196.518 83.103 196.253 82.811ZM55.6417 82.1864C55.0924 81.6808 55.0572 80.8265 55.5632 80.2776C56.0692 79.7261 56.9242 79.6909 57.4735 80.1992C58.0255 80.7048 58.0607 81.5592 57.5547 82.108C57.2868 82.3973 56.9215 82.5433 56.5589 82.5433C56.2288 82.5433 55.9014 82.427 55.6417 82.1864ZM193.317 79.6315C192.811 79.0826 192.846 78.2256 193.398 77.72C193.948 77.2144 194.803 77.2495 195.309 77.7984C195.814 78.3472 195.779 79.2043 195.23 79.7099C194.97 79.9478 194.64 80.0668 194.313 80.0668C193.948 80.0668 193.585 79.9207 193.317 79.6315ZM58.5747 79.0042C58.0255 78.4986 57.9903 77.6443 58.4963 77.0954C59.0023 76.5466 59.8573 76.5114 60.4093 77.017C60.9585 77.5226 60.9937 78.377 60.485 78.9258C60.2199 79.2151 59.8573 79.3638 59.492 79.3638C59.1646 79.3638 58.8345 79.2448 58.5747 79.0042ZM190.387 76.4493C189.878 75.9004 189.913 75.0461 190.462 74.5405C191.014 74.0349 191.869 74.07 192.375 74.6162C192.881 75.1677 192.846 76.0221 192.297 76.5277C192.037 76.7683 191.71 76.8845 191.38 76.8845C191.014 76.8845 190.652 76.7385 190.387 76.4493ZM61.5078 75.8247C60.9585 75.3191 60.9234 74.4621 61.4293 73.9132C61.9353 73.3644 62.7903 73.3292 63.3423 73.8348C63.8916 74.3404 63.9268 75.1975 63.4208 75.7463C63.1529 76.0356 62.7903 76.1816 62.4251 76.1816C62.0977 76.1816 61.7676 76.0626 61.5078 75.8247ZM125.702 74.2728C125.702 73.5266 126.303 72.9183 127.05 72.9156C127.797 72.9156 128.405 73.5185 128.408 74.2647C128.408 75.0109 127.805 75.6192 127.058 75.6192C126.311 75.6192 125.705 75.0163 125.705 74.2728H125.702ZM121.37 74.1998C121.387 73.4536 122.006 72.8615 122.753 72.8777C123.5 72.8939 124.092 73.5104 124.076 74.2566C124.063 75.0028 123.443 75.5949 122.696 75.5787C121.949 75.5652 121.357 74.946 121.37 74.1998ZM130.032 74.2404C130.013 73.4969 130.603 72.875 131.349 72.8534C132.096 72.8345 132.718 73.4239 132.737 74.1701C132.756 74.9163 132.166 75.5381 131.42 75.5571H131.385C130.654 75.5571 130.051 74.9758 130.032 74.2404ZM118.335 75.4354C117.59 75.4029 117.011 74.7703 117.044 74.0268C117.079 73.2779 117.71 72.702 118.456 72.7371C119.203 72.7696 119.782 73.4022 119.747 74.1484C119.715 74.873 119.117 75.4381 118.399 75.4381C118.378 75.4381 118.356 75.4381 118.335 75.4354ZM134.361 74.1079C134.323 73.3617 134.899 72.729 135.643 72.6912C136.39 72.6533 137.026 73.2265 137.064 73.9727C137.102 74.7189 136.525 75.3543 135.781 75.3921H135.711C134.997 75.3921 134.399 74.8325 134.361 74.1079ZM113.978 75.1866C113.234 75.1353 112.671 74.4891 112.723 73.7456C112.774 72.9994 113.421 72.437 114.165 72.4911C114.912 72.5425 115.475 73.1886 115.42 73.9321C115.372 74.6459 114.776 75.1921 114.073 75.1921C114.043 75.1921 114.011 75.1921 113.978 75.1866ZM138.685 73.87C138.631 73.1265 139.188 72.4776 139.935 72.4208C140.679 72.3667 141.328 72.9237 141.385 73.6699C141.439 74.4134 140.882 75.0623 140.135 75.1191C140.103 75.1218 140.067 75.1218 140.035 75.1218C139.331 75.1218 138.739 74.581 138.685 73.87ZM109.627 74.8298C108.883 74.7595 108.339 74.0998 108.41 73.3563C108.48 72.6128 109.14 72.0693 109.884 72.1396C110.628 72.2099 111.175 72.8696 111.102 73.6131C111.037 74.3107 110.447 74.8352 109.757 74.8352C109.714 74.8352 109.671 74.8352 109.627 74.8298ZM143.003 73.5266C142.927 72.7831 143.471 72.1207 144.213 72.0477C144.957 71.972 145.622 72.5127 145.695 73.2562C145.771 73.9997 145.227 74.6621 144.486 74.7351C144.437 74.7405 144.391 74.7432 144.345 74.7432C143.661 74.7432 143.073 74.2241 143.003 73.5266ZM105.285 74.3593C104.543 74.2701 104.016 73.5969 104.108 72.8534C104.197 72.1126 104.871 71.5854 105.615 71.6773C106.356 71.7665 106.884 72.4397 106.792 73.1832C106.711 73.8673 106.126 74.3701 105.45 74.3701C105.396 74.3701 105.341 74.3701 105.285 74.3593ZM147.311 73.0724C147.216 72.3316 147.738 71.653 148.48 71.5583C149.221 71.4637 149.897 71.9882 149.995 72.729C150.09 73.4671 149.565 74.1457 148.823 74.2404C148.766 74.2485 148.707 74.2512 148.65 74.2512C147.979 74.2512 147.397 73.7537 147.311 73.0724ZM100.955 73.7699C100.217 73.6564 99.708 72.9669 99.8216 72.2315C99.9326 71.4907 100.623 70.9852 101.361 71.096C102.1 71.2069 102.609 71.8963 102.498 72.6344C102.395 73.3049 101.818 73.7835 101.161 73.7835C101.093 73.7835 101.026 73.7834 100.955 73.7699ZM187.451 73.2671C186.945 72.7182 186.98 71.8639 187.529 71.3583C188.079 70.8527 188.936 70.8878 189.442 71.4367C189.948 71.9855 189.913 72.8399 189.364 73.3455C189.104 73.5861 188.774 73.705 188.447 73.705C188.081 73.705 187.719 73.5563 187.451 73.2671ZM151.602 72.4992C151.486 71.7611 151.989 71.069 152.728 70.95C153.466 70.8365 154.159 71.3393 154.275 72.0747C154.392 72.8128 153.888 73.505 153.153 73.6212C153.079 73.632 153.009 73.6375 152.939 73.6375C152.284 73.6375 151.71 73.1643 151.602 72.4992ZM96.6423 73.0454C95.9064 72.9102 95.422 72.2045 95.5573 71.4718C95.6926 70.7364 96.3988 70.2525 97.1321 70.3876C97.868 70.5228 98.3551 71.2285 98.2171 71.9612C98.098 72.6128 97.5298 73.0697 96.8886 73.0697C96.8074 73.0697 96.7262 73.0616 96.6423 73.0454ZM64.4409 72.6425C63.8916 72.1369 63.8564 71.2826 64.3624 70.731C64.8684 70.1822 65.7261 70.147 66.2754 70.6526C66.8247 71.1609 66.8598 72.0153 66.3539 72.5641C66.086 72.8534 65.7234 72.9994 65.3581 72.9994C65.0307 72.9994 64.7006 72.8804 64.4409 72.6425ZM155.877 71.7963C155.737 71.0636 156.215 70.3552 156.949 70.2119H156.951C157.685 70.0713 158.394 70.5526 158.534 71.2853C158.675 72.018 158.196 72.7263 157.46 72.8669C157.376 72.8858 157.29 72.8939 157.203 72.8939C156.57 72.8939 156.002 72.4424 155.877 71.7963ZM92.3483 72.1721C91.6177 72.0098 91.1604 71.288 91.3228 70.558C91.4878 69.8307 92.2103 69.3711 92.9381 69.5333C93.6687 69.6982 94.1287 70.4201 93.9636 71.1501C93.8229 71.7773 93.2655 72.2045 92.6459 72.2045C92.5458 72.2045 92.4484 72.1937 92.3483 72.1721ZM160.125 70.9473C159.955 70.2227 160.407 69.4954 161.135 69.3251C161.862 69.1548 162.59 69.6063 162.761 70.3336C162.928 71.0609 162.477 71.7882 161.749 71.9585C161.646 71.9801 161.543 71.9936 161.44 71.9936C160.826 71.9936 160.271 71.5719 160.125 70.9473ZM88.084 71.1176C87.3615 70.9203 86.9367 70.1768 87.1342 69.4576C87.3318 68.7384 88.0758 68.3139 88.7956 68.5113C89.518 68.706 89.9401 69.4495 89.7453 70.1714C89.5803 70.7716 89.0364 71.1663 88.4411 71.1663C88.3221 71.1663 88.203 71.1501 88.084 71.1176ZM164.335 69.9307C164.127 69.2116 164.544 68.4626 165.261 68.2572C165.981 68.0517 166.73 68.4681 166.936 69.1845C167.141 69.9037 166.725 70.6526 166.008 70.8581C165.883 70.8932 165.756 70.9095 165.634 70.9095C165.044 70.9095 164.503 70.5228 164.335 69.9307ZM184.518 70.0848C184.012 69.5387 184.047 68.6816 184.596 68.1761C185.146 67.6705 186.003 67.7056 186.509 68.2545C187.015 68.8033 186.98 69.6577 186.431 70.1632C186.171 70.4039 185.841 70.5228 185.514 70.5228C185.148 70.5228 184.786 70.3768 184.518 70.0848ZM83.8602 69.8307C83.154 69.5874 82.7752 68.8195 83.0187 68.1139C83.2596 67.4055 84.028 67.0297 84.7369 67.2703C85.4431 67.5137 85.8192 68.2815 85.5784 68.9899C85.3863 69.5495 84.8587 69.9037 84.2986 69.9037C84.1525 69.9037 84.0036 69.8794 83.8602 69.8307ZM67.3739 69.4603C66.8247 68.9547 66.7895 68.1004 67.2955 67.5515C67.8015 67 68.6592 66.9648 69.2085 67.4731C69.7577 67.9787 69.7929 68.833 69.2869 69.3819C69.0191 69.6712 68.6565 69.8172 68.2912 69.8172C67.9638 69.8172 67.6337 69.7009 67.3739 69.4603ZM168.486 68.6925C168.232 67.9922 168.594 67.2163 169.298 66.9621C169.999 66.708 170.775 67.0703 171.03 67.7732C171.284 68.4762 170.921 69.2494 170.218 69.5063C170.066 69.5603 169.912 69.5847 169.758 69.5847C169.206 69.5847 168.686 69.244 168.486 68.6925ZM79.7042 68.1923C79.025 67.8814 78.7274 67.0784 79.0413 66.3998C79.3524 65.7211 80.156 65.4237 80.8352 65.7347C81.5143 66.0483 81.812 66.8486 81.4981 67.5272C81.2708 68.0247 80.7811 68.3166 80.2697 68.3166C80.0803 68.3166 79.8882 68.2761 79.7042 68.1923ZM172.537 67.1568C172.201 66.489 172.474 65.6779 173.143 65.3426C173.811 65.0101 174.623 65.2804 174.956 65.9482C175.291 66.6161 175.018 67.4271 174.352 67.7624C174.157 67.8597 173.952 67.9057 173.746 67.9057C173.251 67.9057 172.772 67.6299 172.537 67.1568ZM181.585 66.9053C181.079 66.3565 181.114 65.4994 181.663 64.9939C182.213 64.4883 183.07 64.5234 183.576 65.0723C184.082 65.6211 184.047 66.4782 183.498 66.9837C183.238 67.2217 182.908 67.3406 182.581 67.3406C182.215 67.3406 181.853 67.1946 181.585 66.9053ZM70.307 66.2808C69.7577 65.7725 69.7226 64.9182 70.2285 64.3693C70.7372 63.8205 71.5922 63.7853 72.1415 64.2909C72.6908 64.7965 72.726 65.6508 72.22 66.1997C71.9521 66.489 71.5895 66.6377 71.2243 66.6377C70.8969 66.6377 70.5668 66.5187 70.307 66.2808ZM75.7023 65.8725C75.1125 65.4156 75.0015 64.5667 75.4588 63.9746C75.9161 63.3852 76.7657 63.277 77.3583 63.7339C77.9481 64.1909 78.0564 65.0398 77.5991 65.6292C77.3339 65.9753 76.9335 66.1537 76.5303 66.1537C76.2408 66.1537 75.9485 66.0618 75.7023 65.8725ZM176.371 65.1182C175.854 64.5802 175.873 63.7231 176.414 63.2067C176.955 62.6903 177.81 62.712 178.327 63.25C178.354 63.2797 178.378 63.3068 178.4 63.3365C178.184 62.8255 178.3 62.2118 178.73 61.8116C179.279 61.3088 180.137 61.3412 180.643 61.8901C181.149 62.4416 181.114 63.296 180.565 63.8015C180.013 64.3071 179.158 64.272 178.652 63.7231C178.633 63.7015 178.614 63.6799 178.595 63.6582C178.809 64.1611 178.703 64.764 178.284 65.1615C178.021 65.4129 177.686 65.5373 177.35 65.5373C176.993 65.5373 176.636 65.3967 176.371 65.1182ZM73.2428 63.0986C72.6908 62.593 72.6556 61.7359 73.1643 61.1871C73.6703 60.6383 74.5253 60.6031 75.0746 61.1087C75.6239 61.6143 75.659 62.4713 75.153 63.0202C74.8852 63.3095 74.5226 63.4555 74.1573 63.4555C73.8299 63.4555 73.5025 63.3365 73.2428 63.0986Z" fill="url(#paint0_linear_1233_1791)"/>
<path d="M177.31 61.7385C177.31 60.9923 177.916 60.3867 178.663 60.3867C179.41 60.3867 180.016 60.9923 180.016 61.7385C180.016 62.4847 179.41 63.0903 178.663 63.0903C177.916 63.0903 177.31 62.4847 177.31 61.7385ZM73.1406 61.6601C73.1406 60.9139 73.7467 60.3083 74.4935 60.3083C75.2403 60.3083 75.8464 60.9139 75.8464 61.6601C75.8464 62.4063 75.2403 63.0119 74.4935 63.0119C73.7467 63.0119 73.1406 62.4063 73.1406 61.6601ZM177.31 57.4126C177.31 56.6664 177.916 56.0608 178.663 56.0608C179.41 56.0608 180.016 56.6664 180.016 57.4126C180.016 58.1616 179.41 58.7645 178.663 58.7645C177.916 58.7645 177.31 58.1616 177.31 57.4126ZM73.1406 57.3342C73.1406 56.588 73.7467 55.9824 74.4935 55.9824C75.2403 55.9824 75.8464 56.588 75.8464 57.3342C75.8464 58.0804 75.2403 58.6861 74.4935 58.6861C73.7467 58.6861 73.1406 58.0804 73.1406 57.3342ZM177.31 53.0868C177.31 52.3406 177.916 51.735 178.663 51.735C179.41 51.735 180.016 52.3406 180.016 53.0868C180.016 53.8357 179.41 54.4386 178.663 54.4386C177.916 54.4386 177.31 53.8357 177.31 53.0868ZM73.1406 53.0084C73.1406 52.2622 73.7467 51.6566 74.4935 51.6566C75.2403 51.6566 75.8464 52.2622 75.8464 53.0084C75.8464 53.7546 75.2403 54.3602 74.4935 54.3602C73.7467 54.3602 73.1406 53.7546 73.1406 53.0084ZM177.31 48.7609C177.31 48.0147 177.916 47.4091 178.663 47.4091C179.41 47.4091 180.016 48.0147 180.016 48.7609C180.016 49.5098 179.41 50.1155 178.663 50.1155C177.916 50.1155 177.31 49.5098 177.31 48.7609ZM73.1406 48.6825C73.1406 47.9363 73.7467 47.3307 74.4935 47.3307C75.2403 47.3307 75.8464 47.9363 75.8464 48.6825C75.8464 49.4287 75.2403 50.0344 74.4935 50.0344C73.7467 50.0344 73.1406 49.4287 73.1406 48.6825ZM177.31 44.4351C177.31 43.6889 177.916 43.0832 178.663 43.0832C179.41 43.0832 180.016 43.6889 180.016 44.4351C180.016 45.184 179.41 45.7896 178.663 45.7896C177.916 45.7896 177.31 45.184 177.31 44.4351ZM73.1406 44.3567C73.1406 43.6105 73.7467 43.0048 74.4935 43.0048C75.2403 43.0048 75.8464 43.6105 75.8464 44.3567C75.8464 45.1029 75.2403 45.7085 74.4935 45.7085C73.7467 45.7085 73.1406 45.1029 73.1406 44.3567ZM177.31 40.1092C177.31 39.363 177.916 38.7574 178.663 38.7574C179.41 38.7574 180.016 39.363 180.016 40.1092C180.016 40.8581 179.41 41.4611 178.663 41.4611C177.916 41.4611 177.31 40.8581 177.31 40.1092ZM73.1406 40.0308C73.1406 39.2846 73.7467 38.679 74.4935 38.679C75.2403 38.679 75.8464 39.2846 75.8464 40.0308C75.8464 40.777 75.2403 41.3826 74.4935 41.3826C73.7467 41.3826 73.1406 40.777 73.1406 40.0308ZM177.31 35.7861C177.31 35.0372 177.916 34.4315 178.663 34.4315C179.41 34.4315 180.016 35.0372 180.016 35.7861C180.016 36.5323 179.41 37.1352 178.663 37.1352C177.916 37.1352 177.31 36.5323 177.31 35.7861ZM73.1406 35.705C73.1406 34.9588 73.7467 34.3531 74.4935 34.3531C75.2403 34.3531 75.8464 34.9588 75.8464 35.705C75.8464 36.4512 75.2403 37.0568 74.4935 37.0568C73.7467 37.0568 73.1406 36.4512 73.1406 35.705ZM177.31 31.4575C177.31 30.7113 177.916 30.1057 178.663 30.1057C179.41 30.1057 180.016 30.7113 180.016 31.4575C180.016 32.2037 179.41 32.8093 178.663 32.8093C177.916 32.8093 177.31 32.2037 177.31 31.4575ZM73.1406 31.3791C73.1406 30.6329 73.7467 30.0273 74.4935 30.0273C75.2403 30.0273 75.8464 30.6329 75.8464 31.3791C75.8464 32.1253 75.2403 32.7309 74.4935 32.7309C73.7467 32.7309 73.1406 32.1253 73.1406 31.3791ZM177.31 27.1317C177.31 26.3855 177.916 25.7825 178.663 25.7825C179.41 25.7825 180.016 26.3855 180.016 27.1317C180.016 27.8779 179.41 28.4835 178.663 28.4835C177.916 28.4835 177.31 27.8779 177.31 27.1317ZM73.1406 27.0533C73.1406 26.307 73.7467 25.7014 74.4935 25.7014C75.2403 25.7014 75.8464 26.307 75.8464 27.0533C75.8464 27.7995 75.2403 28.4051 74.4935 28.4051C73.7467 28.4051 73.1406 27.7995 73.1406 27.0533ZM177.31 22.8058C177.31 22.0596 177.916 21.4567 178.663 21.4567C179.41 21.4567 180.016 22.0596 180.016 22.8058C180.016 23.552 179.41 24.1576 178.663 24.1576C177.916 24.1576 177.31 23.552 177.31 22.8058ZM73.1406 22.7274C73.1406 21.9812 73.7467 21.3756 74.4935 21.3756C75.2403 21.3756 75.8464 21.9812 75.8464 22.7274C75.8464 23.4736 75.2403 24.0792 74.4935 24.0792C73.7467 24.0792 73.1406 23.4736 73.1406 22.7274ZM177.31 18.48C177.31 17.7337 177.916 17.1281 178.663 17.1281C179.41 17.1281 180.016 17.7337 180.016 18.48C180.016 19.2262 179.41 19.8318 178.663 19.8318C177.916 19.8318 177.31 19.2262 177.31 18.48ZM73.1406 18.4015C73.1406 17.6553 73.7467 17.0497 74.4935 17.0497C75.2403 17.0497 75.8464 17.6553 75.8464 18.4015C75.8464 19.1478 75.2403 19.7534 74.4935 19.7534C73.7467 19.7534 73.1406 19.1478 73.1406 18.4015ZM177.31 14.1541C177.31 13.4079 177.916 12.8023 178.663 12.8023C179.41 12.8023 180.016 13.4079 180.016 14.1541C180.016 14.9003 179.41 15.5059 178.663 15.5059C177.916 15.5059 177.31 14.9003 177.31 14.1541ZM73.1406 14.0757C73.1406 13.3295 73.7467 12.7239 74.4935 12.7239C75.2403 12.7239 75.8464 13.3295 75.8464 14.0757C75.8464 14.8219 75.2403 15.4275 74.4935 15.4275C73.7467 15.4275 73.1406 14.8219 73.1406 14.0757ZM176.491 11.2801C175.933 10.7853 175.882 9.93098 176.377 9.37133C176.875 8.81437 177.73 8.763 178.287 9.25777C178.847 9.75254 178.899 10.6069 178.401 11.1666C178.136 11.4667 177.762 11.6208 177.389 11.6208C177.07 11.6208 176.75 11.5072 176.491 11.2801ZM74.8074 11.099C74.3176 10.5339 74.3799 9.67954 74.9454 9.19288C75.5109 8.70352 76.3659 8.76571 76.853 9.32807C77.3427 9.89313 77.2805 10.7475 76.715 11.2369C76.4606 11.4558 76.144 11.5667 75.8329 11.5667C75.4514 11.5667 75.0753 11.4072 74.8074 11.099ZM173.138 9.3551C172.448 9.06581 172.126 8.27364 172.416 7.58421C172.705 6.89748 173.501 6.57574 174.188 6.86503C174.875 7.15433 175.197 7.9465 174.91 8.63593C174.691 9.15233 174.191 9.46325 173.663 9.46325C173.487 9.46325 173.309 9.4281 173.138 9.3551ZM78.3249 8.60078C78.0354 7.91135 78.3628 7.11918 79.0528 6.82989C79.74 6.5433 80.5328 6.86774 80.8223 7.55717C81.1091 8.2466 80.7845 9.03607 80.0945 9.32536C79.924 9.39566 79.7481 9.43081 79.575 9.43081C79.0446 9.43081 78.5414 9.11718 78.3249 8.60078ZM169.196 7.98705C168.476 7.77887 168.065 7.02725 168.276 6.31078C168.484 5.59431 169.236 5.18336 169.953 5.39154C170.67 5.60243 171.082 6.35134 170.873 7.06781C170.7 7.65991 170.159 8.04113 169.575 8.04113C169.447 8.04113 169.32 8.0249 169.196 7.98705ZM82.3646 7.04348C82.1563 6.32701 82.5703 5.57539 83.2873 5.36991C84.0043 5.16173 84.7565 5.57269 84.9649 6.28915C85.1732 7.00562 84.7592 7.75724 84.0422 7.96542C83.915 8.00057 83.7879 8.0195 83.6634 8.0195C83.0789 8.0195 82.5378 7.63558 82.3646 7.04348ZM165.083 6.94344C164.352 6.77852 163.895 6.05664 164.057 5.32665C164.22 4.59937 164.942 4.13975 165.67 4.30197C166.401 4.46689 166.861 5.18877 166.698 5.91605C166.558 6.546 165.998 6.97588 165.378 6.97588C165.28 6.97588 165.183 6.96507 165.083 6.94344ZM86.5423 5.89712C86.38 5.16714 86.84 4.44526 87.5705 4.28574C88.3011 4.12082 89.0208 4.58315 89.1832 5.31043C89.3455 6.04042 88.8855 6.76229 88.1577 6.92451C88.0576 6.94614 87.9602 6.95696 87.8628 6.95696C87.2431 6.95696 86.683 6.52708 86.5423 5.89712ZM160.892 6.10801C160.158 5.97823 159.666 5.27799 159.796 4.54259C159.928 3.8072 160.629 3.31783 161.365 3.44761C162.101 3.57738 162.591 4.28034 162.461 5.01303C162.345 5.67002 161.774 6.12964 161.13 6.12964C161.051 6.12964 160.973 6.12423 160.892 6.10801ZM90.7796 4.99681C90.6497 4.26411 91.1395 3.56116 91.8754 3.43139C92.6114 3.30161 93.3122 3.79368 93.4448 4.52907C93.5747 5.26447 93.0822 5.96472 92.3462 6.09449C92.2678 6.10801 92.1893 6.11612 92.1108 6.11612C91.4669 6.11612 90.8959 5.65379 90.7796 4.99681ZM156.66 5.4348C155.921 5.32936 155.407 4.64263 155.513 3.90453C155.618 3.16643 156.305 2.65273 157.044 2.75818C157.783 2.86362 158.297 3.54764 158.191 4.28845C158.094 4.96166 157.518 5.44832 156.855 5.44832C156.79 5.44832 156.728 5.44291 156.66 5.4348ZM95.0493 4.27493C94.9438 3.53413 95.4579 2.8501 96.1966 2.74466C96.9379 2.63921 97.6225 3.15291 97.728 3.89371C97.8335 4.63181 97.3195 5.31584 96.5808 5.42128C96.5158 5.43209 96.4536 5.4348 96.3887 5.4348C95.7257 5.4348 95.1494 4.94814 95.052 4.27493H95.0493ZM152.401 4.88596C151.66 4.79944 151.127 4.12893 151.213 3.38813C151.297 2.64733 151.968 2.11471 152.712 2.20122C153.454 2.28504 153.987 2.95554 153.9 3.69905C153.821 4.38848 153.237 4.89407 152.558 4.89407C152.506 4.89407 152.455 4.89136 152.401 4.88596ZM99.3407 3.68823C99.2541 2.94473 99.7898 2.27422 100.531 2.19041C101.273 2.10659 101.944 2.63651 102.03 3.38002C102.114 4.12082 101.581 4.79133 100.84 4.87784C100.786 4.88325 100.734 4.88596 100.683 4.88596C100.006 4.88596 99.4191 4.37767 99.3407 3.68823ZM148.126 4.44526C147.382 4.37767 146.832 3.71797 146.903 2.97447C146.97 2.23367 147.628 1.68482 148.372 1.75241C149.116 1.82001 149.665 2.4797 149.595 3.2205C149.53 3.92345 148.94 4.45067 148.25 4.45067C148.21 4.45067 148.166 4.44796 148.126 4.44526ZM103.646 3.21509C103.578 2.47159 104.124 1.8119 104.871 1.7443C105.615 1.67671 106.273 2.22556 106.341 2.96906C106.408 3.71257 105.862 4.36956 105.115 4.43715C105.074 4.43715 105.034 4.44256 104.99 4.44256C104.3 4.44256 103.71 3.91534 103.646 3.21509ZM143.837 4.09919C143.09 4.04512 142.528 3.39894 142.582 2.65544C142.633 1.90923 143.282 1.34957 144.027 1.40094C144.771 1.45231 145.333 2.10119 145.279 2.84469C145.231 3.55846 144.638 4.10189 143.932 4.10189C143.902 4.10189 143.87 4.10189 143.837 4.10189V4.09919ZM107.961 2.83929C107.907 2.09308 108.47 1.4469 109.217 1.39553C109.961 1.34416 110.608 1.90382 110.659 2.65003C110.713 3.39354 110.15 4.03971 109.406 4.09378C109.374 4.09378 109.341 4.09378 109.309 4.09378C108.605 4.09378 108.01 3.54764 107.961 2.83658V2.83929ZM139.538 3.83694C138.791 3.79908 138.217 3.16102 138.258 2.41751C138.296 1.67131 138.932 1.09813 139.678 1.13598C140.425 1.17383 140.999 1.80919 140.958 2.5554C140.923 3.27728 140.325 3.83694 139.608 3.83694H139.538ZM112.282 2.54999C112.245 1.80649 112.818 1.17113 113.565 1.13328C114.312 1.09272 114.948 1.6686 114.985 2.41481C115.023 3.15832 114.45 3.79368 113.703 3.83153C113.679 3.83153 113.657 3.83153 113.633 3.83153C112.918 3.83153 112.318 3.27187 112.282 2.54729V2.54999ZM135.236 3.65309C134.489 3.62875 133.904 3.00421 133.929 2.258C133.953 1.51179 134.581 0.927799 135.328 0.952132C136.074 0.976465 136.659 1.60101 136.632 2.34722C136.607 3.07991 136.007 3.65579 135.282 3.65579C135.282 3.65579 135.252 3.65579 135.236 3.65309ZM118.005 3.65309C117.258 3.67742 116.633 3.09343 116.609 2.34722C116.585 1.60101 117.169 0.976465 117.916 0.952132C118.663 0.927799 119.288 1.51179 119.312 2.258C119.336 3.00421 118.752 3.62875 118.005 3.65309ZM130.928 3.54764C130.181 3.53683 129.586 2.9204 129.599 2.17419C129.61 1.42798 130.227 0.833171 130.974 0.846689C131.721 0.857504 132.316 1.47123 132.302 2.22015C132.292 2.95825 131.688 3.54764 130.952 3.54764H130.928ZM120.938 2.21744C120.925 1.47123 121.523 0.857504 122.269 0.843985C123.016 0.830467 123.63 1.42798 123.644 2.17419C123.655 2.9204 123.06 3.53413 122.313 3.54764H122.288C121.552 3.54764 120.949 2.95554 120.938 2.21744ZM125.267 2.16067C125.267 1.41446 125.874 0.808838 126.62 0.808838C127.37 0.808838 127.973 1.41446 127.973 2.16067C127.973 2.90688 127.37 3.5125 126.62 3.5125C125.874 3.5125 125.267 2.90688 125.267 2.16067Z" fill="url(#paint1_linear_1233_1791)"/>
<path d="M125.195 173.838C124.448 173.832 123.844 173.224 123.847 172.478C123.853 171.731 124.459 171.129 125.205 171.134C125.952 171.137 126.556 171.745 126.553 172.491C126.553 173.235 125.944 173.838 125.2 173.838H125.195ZM128.176 172.486C128.168 171.74 128.769 171.129 129.516 171.12C130.262 171.115 130.874 171.713 130.882 172.459C130.89 173.205 130.29 173.816 129.543 173.824C129.543 173.824 129.535 173.824 129.532 173.824C128.788 173.824 128.184 173.227 128.176 172.483V172.486ZM120.844 173.784C120.097 173.767 119.502 173.151 119.518 172.405C119.531 171.658 120.151 171.064 120.898 171.08C121.645 171.096 122.237 171.713 122.224 172.459C122.207 173.197 121.604 173.784 120.871 173.784H120.844ZM132.503 172.432C132.484 171.683 133.074 171.064 133.821 171.045C134.567 171.026 135.19 171.615 135.209 172.361C135.228 173.108 134.638 173.729 133.891 173.748H133.856C133.125 173.748 132.522 173.164 132.503 172.432ZM116.496 173.665C115.749 173.638 115.164 173.01 115.191 172.264C115.216 171.518 115.843 170.934 116.59 170.961C117.337 170.988 117.921 171.613 117.894 172.359C117.867 173.089 117.267 173.665 116.542 173.665H116.496ZM136.829 172.307C136.8 171.561 137.381 170.931 138.125 170.901C138.872 170.872 139.503 171.45 139.532 172.197C139.565 172.943 138.983 173.573 138.239 173.602H138.236C138.217 173.602 138.199 173.602 138.182 173.602C137.46 173.602 136.859 173.032 136.829 172.305V172.307ZM112.147 173.475C111.401 173.438 110.827 172.802 110.865 172.056C110.903 171.31 111.539 170.737 112.285 170.774C113.032 170.812 113.606 171.448 113.568 172.194C113.53 172.916 112.932 173.478 112.218 173.478C112.193 173.478 112.172 173.475 112.147 173.475ZM141.156 172.118C141.113 171.372 141.684 170.734 142.43 170.691C143.174 170.65 143.816 171.218 143.856 171.964C143.9 172.71 143.329 173.348 142.582 173.392C142.558 173.392 142.53 173.394 142.503 173.394C141.792 173.394 141.197 172.837 141.156 172.118ZM107.802 173.219C107.058 173.17 106.492 172.524 106.544 171.78C106.595 171.034 107.239 170.472 107.983 170.523C108.73 170.572 109.293 171.215 109.244 171.961C109.195 172.675 108.6 173.221 107.894 173.221C107.864 173.221 107.834 173.221 107.802 173.219ZM145.477 171.861C145.423 171.115 145.983 170.466 146.727 170.412H146.73C147.474 170.358 148.121 170.918 148.175 171.661C148.232 172.407 147.671 173.056 146.925 173.11C146.892 173.113 146.86 173.113 146.825 173.113C146.124 173.113 145.528 172.572 145.477 171.861ZM103.462 172.891C102.718 172.829 102.166 172.175 102.228 171.431C102.29 170.688 102.945 170.134 103.689 170.199C104.433 170.261 104.988 170.915 104.926 171.658C104.866 172.364 104.274 172.897 103.578 172.897C103.54 172.897 103.502 172.897 103.462 172.891ZM149.796 171.531C149.728 170.788 150.277 170.131 151.021 170.063C151.765 169.996 152.423 170.545 152.49 171.288C152.555 172.032 152.009 172.689 151.265 172.756C151.221 172.759 151.181 172.762 151.14 172.762C150.448 172.762 149.858 172.234 149.796 171.531ZM99.1271 172.491C98.383 172.416 97.8419 171.75 97.9176 171.01C97.9934 170.266 98.6563 169.725 99.4004 169.801C100.144 169.877 100.686 170.539 100.61 171.283C100.54 171.978 99.9497 172.497 99.2651 172.497C99.2191 172.497 99.1731 172.497 99.1271 172.491ZM154.106 171.129C154.025 170.385 154.563 169.72 155.304 169.639C156.049 169.558 156.714 170.096 156.795 170.837C156.877 171.58 156.338 172.248 155.597 172.326C155.545 172.332 155.497 172.334 155.448 172.334C154.766 172.334 154.179 171.821 154.106 171.129ZM94.7979 172.013C94.0565 171.923 93.5289 171.25 93.6154 170.509C93.7047 169.766 94.3785 169.239 95.1226 169.328C95.8639 169.417 96.3916 170.09 96.3023 170.831C96.2211 171.518 95.6367 172.021 94.9629 172.021C94.9088 172.021 94.8547 172.018 94.7979 172.013ZM158.408 170.65C158.313 169.909 158.838 169.231 159.58 169.136C160.321 169.044 160.997 169.569 161.092 170.309C161.187 171.05 160.662 171.726 159.921 171.818C159.864 171.826 159.807 171.832 159.747 171.832C159.076 171.832 158.495 171.331 158.408 170.65ZM90.4795 171.45C89.7381 171.348 89.224 170.664 89.3268 169.925C89.4296 169.185 90.1142 168.671 90.8529 168.774C91.5942 168.876 92.1083 169.56 92.0055 170.299C91.9108 170.974 91.3318 171.464 90.6689 171.464C90.6066 171.464 90.5417 171.458 90.4795 171.45ZM162.699 170.088C162.591 169.35 163.103 168.663 163.841 168.552C164.58 168.444 165.267 168.955 165.378 169.693C165.486 170.431 164.975 171.12 164.236 171.229C164.169 171.237 164.104 171.242 164.039 171.242C163.379 171.242 162.799 170.761 162.699 170.088ZM86.1692 170.801C85.4305 170.682 84.9299 169.99 85.049 169.252C85.168 168.514 85.8634 168.014 86.5994 168.133C87.338 168.252 87.8386 168.947 87.7196 169.682C87.6113 170.347 87.0377 170.82 86.3856 170.82C86.3153 170.82 86.2422 170.815 86.1692 170.801ZM166.983 169.439C166.855 168.703 167.351 168.006 168.089 167.881C168.825 167.754 169.523 168.252 169.648 168.987C169.775 169.723 169.28 170.42 168.541 170.545C168.465 170.558 168.39 170.566 168.314 170.566C167.664 170.566 167.094 170.098 166.983 169.439ZM81.8697 170.058C81.1364 169.923 80.6521 169.217 80.7874 168.482C80.9227 167.749 81.6289 167.265 82.3648 167.4C83.0981 167.535 83.5824 168.241 83.4471 168.976C83.3254 169.625 82.7599 170.082 82.1186 170.082C82.0374 170.08 81.9536 170.074 81.8697 170.058ZM77.5891 169.206C76.8586 169.052 76.3932 168.333 76.5474 167.603C76.7016 166.873 77.4214 166.408 78.1519 166.562C78.8825 166.719 79.3479 167.435 79.1937 168.165C79.0584 168.803 78.4956 169.236 77.8705 169.236C77.7785 169.236 77.6838 169.228 77.5891 169.206ZM73.3275 168.236C72.6024 168.06 72.1559 167.327 72.3345 166.603C72.5131 165.875 73.2437 165.432 73.9688 165.61C74.6967 165.786 75.1404 166.519 74.9618 167.243C74.813 167.863 74.2583 168.276 73.6495 168.276C73.544 168.276 73.4358 168.263 73.3275 168.236ZM69.093 167.124C68.376 166.922 67.9566 166.173 68.1595 165.456C68.3624 164.737 69.1092 164.318 69.829 164.524C70.5487 164.726 70.9654 165.473 70.7625 166.192C70.5947 166.786 70.0535 167.176 69.4637 167.176C69.3392 167.176 69.2175 167.16 69.093 167.124ZM167.069 164.978C167.069 164.232 167.675 163.626 168.422 163.626C169.169 163.626 169.775 164.232 169.775 164.978C169.775 165.724 169.169 166.33 168.422 166.33C167.675 166.33 167.069 165.724 167.069 164.978ZM64.8963 165.843C64.1874 165.608 63.8005 164.843 64.0359 164.134C64.2713 163.426 65.037 163.039 65.7459 163.274C66.4549 163.51 66.8391 164.275 66.6037 164.983C66.417 165.551 65.8893 165.911 65.3211 165.911C65.1804 165.911 65.037 165.889 64.8963 165.843ZM60.7511 164.342C60.0557 164.067 59.7175 163.28 59.9935 162.588C60.2667 161.893 61.0541 161.555 61.7495 161.831C62.4422 162.106 62.7831 162.891 62.5071 163.585C62.2961 164.115 61.7874 164.437 61.2489 164.437C61.0839 164.437 60.9134 164.407 60.7511 164.342ZM56.6897 162.544C56.0214 162.209 55.7481 161.398 56.0809 160.73C56.4137 160.062 57.2255 159.789 57.8965 160.122C58.5648 160.457 58.8381 161.268 58.5026 161.936C58.2672 162.409 57.7883 162.685 57.2904 162.685C57.0875 162.685 56.8818 162.639 56.6897 162.544ZM167.069 160.652C167.069 159.903 167.675 159.3 168.422 159.3C169.169 159.3 169.775 159.903 169.775 160.652C169.775 161.398 169.169 162.004 168.422 162.004C167.675 162.004 167.069 161.398 167.069 160.652ZM52.8069 160.665C52.1359 160.338 51.8518 159.53 52.1792 158.859C52.5039 158.186 53.3129 157.905 53.9839 158.229C54.6577 158.554 54.9391 159.362 54.6144 160.035C54.3817 160.517 53.8973 160.801 53.3941 160.801C53.1993 160.801 52.9963 160.757 52.8069 160.665ZM167.069 156.326C167.069 155.577 167.675 154.974 168.422 154.974C169.169 154.974 169.775 155.577 169.775 156.326C169.775 157.072 169.169 157.678 168.422 157.678C167.675 157.678 167.069 157.072 167.069 156.326ZM167.069 152C167.069 151.251 167.675 150.648 168.422 150.648C169.169 150.648 169.775 151.251 169.775 152C169.775 152.746 169.169 153.352 168.422 153.352C167.675 153.352 167.069 152.746 167.069 152ZM167.069 147.674C167.069 146.925 167.675 146.322 168.422 146.322C169.169 146.322 169.775 146.925 169.775 147.674C169.775 148.421 169.169 149.026 168.422 149.026C167.675 149.026 167.069 148.421 167.069 147.674ZM167.069 143.348C167.069 142.6 167.675 141.997 168.422 141.997C169.169 141.997 169.775 142.6 169.775 143.348C169.775 144.095 169.169 144.7 168.422 144.7C167.675 144.7 167.069 144.095 167.069 143.348ZM167.069 139.023C167.069 138.276 167.675 137.671 168.422 137.671C169.169 137.671 169.775 138.276 169.775 139.023C169.775 139.769 169.169 140.374 168.422 140.374C167.675 140.374 167.069 139.769 167.069 139.023ZM167.069 134.697C167.069 133.951 167.675 133.345 168.422 133.345C169.169 133.345 169.775 133.951 169.775 134.697C169.775 135.443 169.169 136.049 168.422 136.049C167.675 136.049 167.069 135.443 167.069 134.697ZM167.069 130.371C167.069 129.625 167.675 129.019 168.422 129.019C169.169 129.019 169.775 129.625 169.775 130.371C169.775 131.117 169.169 131.723 168.422 131.723C167.675 131.723 167.069 131.117 167.069 130.371ZM167.069 126.045C167.069 125.299 167.675 124.693 168.422 124.693C169.169 124.693 169.775 125.299 169.775 126.045C169.775 126.791 169.169 127.397 168.422 127.397C167.675 127.397 167.069 126.791 167.069 126.045ZM167.069 121.719C167.069 120.973 167.675 120.367 168.422 120.367C169.169 120.367 169.775 120.973 169.775 121.719C169.775 122.465 169.169 123.071 168.422 123.071C167.675 123.071 167.069 122.465 167.069 121.719ZM167.069 117.393C167.069 116.647 167.675 116.042 168.422 116.042C169.169 116.042 169.775 116.647 169.775 117.393C169.775 118.14 169.169 118.745 168.422 118.745C167.675 118.745 167.069 118.14 167.069 117.393ZM167.069 113.067C167.069 112.321 167.675 111.716 168.422 111.716C169.169 111.716 169.775 112.321 169.775 113.067C169.775 113.814 169.169 114.419 168.422 114.419C167.675 114.419 167.069 113.814 167.069 113.067ZM167.069 108.742C167.069 107.995 167.675 107.39 168.422 107.39C169.169 107.39 169.775 107.995 169.775 108.742C169.775 109.488 169.169 110.093 168.422 110.093C167.675 110.093 167.069 109.488 167.069 108.742ZM125.444 106.216C125.444 105.47 126.047 104.862 126.796 104.862C127.543 104.862 128.149 105.468 128.149 106.214C128.149 106.96 127.546 107.566 126.796 107.566C126.05 107.566 125.444 106.963 125.444 106.216ZM122.446 107.536C121.699 107.525 121.103 106.914 121.114 106.165C121.125 105.419 121.739 104.824 122.486 104.835C123.233 104.843 123.831 105.457 123.82 106.206C123.809 106.944 123.203 107.536 122.467 107.536H122.446ZM129.775 106.2C129.765 105.454 130.36 104.838 131.107 104.827C131.853 104.816 132.47 105.411 132.481 106.157C132.495 106.903 131.897 107.517 131.15 107.53H131.128C130.392 107.53 129.789 106.938 129.775 106.2ZM118.097 107.441C117.351 107.42 116.763 106.795 116.785 106.049C116.807 105.303 117.432 104.716 118.179 104.74C118.925 104.762 119.512 105.384 119.488 106.13C119.469 106.863 118.866 107.441 118.138 107.441H118.097ZM134.105 106.119C134.08 105.373 134.668 104.748 135.414 104.727C136.161 104.702 136.786 105.289 136.81 106.035C136.832 106.781 136.245 107.406 135.498 107.428H135.458C134.73 107.428 134.129 106.852 134.105 106.119ZM113.749 107.279C113.002 107.244 112.426 106.614 112.458 105.868C112.494 105.121 113.124 104.543 113.871 104.578C114.618 104.61 115.197 105.243 115.162 105.989C115.129 106.714 114.531 107.279 113.811 107.279H113.749ZM138.431 105.97C138.399 105.227 138.975 104.594 139.719 104.559C140.466 104.524 141.099 105.1 141.134 105.846C141.169 106.592 140.593 107.225 139.846 107.26H139.781C139.064 107.26 138.466 106.695 138.431 105.97ZM109.404 107.049C108.657 107.003 108.091 106.362 108.135 105.616C108.181 104.87 108.822 104.305 109.569 104.348C110.316 104.394 110.881 105.035 110.838 105.781C110.792 106.498 110.196 107.052 109.488 107.052C109.458 107.052 109.431 107.052 109.404 107.052V107.049ZM142.755 105.757C142.709 105.011 143.275 104.37 144.021 104.324C144.768 104.275 145.409 104.843 145.455 105.586C145.504 106.333 144.936 106.973 144.192 107.022C144.162 107.022 144.132 107.025 144.105 107.025C143.396 107.025 142.801 106.473 142.755 105.757ZM105.061 106.746C104.317 106.69 103.759 106.038 103.816 105.294C103.876 104.551 104.528 103.994 105.272 104.051C106.016 104.11 106.573 104.759 106.514 105.505C106.46 106.214 105.867 106.752 105.166 106.752C105.131 106.752 105.096 106.752 105.061 106.746ZM147.076 105.473C147.017 104.729 147.571 104.078 148.318 104.018C149.062 103.959 149.714 104.513 149.774 105.259C149.833 106.003 149.276 106.654 148.532 106.714C148.494 106.717 148.459 106.717 148.424 106.717C147.726 106.717 147.133 106.181 147.076 105.473ZM100.724 106.373C99.9794 106.303 99.4356 105.643 99.5059 104.9C99.5763 104.156 100.236 103.61 100.981 103.68C101.725 103.753 102.269 104.41 102.198 105.154C102.133 105.854 101.543 106.379 100.853 106.379C100.81 106.379 100.767 106.376 100.724 106.373ZM151.392 105.116C151.319 104.373 151.863 103.713 152.607 103.64C153.351 103.57 154.011 104.113 154.084 104.856C154.157 105.6 153.611 106.26 152.867 106.333C152.823 106.333 152.78 106.338 152.737 106.338C152.047 106.338 151.457 105.816 151.392 105.116ZM96.3943 105.924C95.6502 105.841 95.1172 105.17 95.201 104.429C95.2849 103.686 95.9559 103.153 96.6973 103.237C97.4414 103.321 97.9745 103.991 97.8906 104.732C97.8121 105.422 97.225 105.933 96.5458 105.933C96.4971 105.933 96.4457 105.93 96.3943 105.924ZM155.7 104.686C155.613 103.945 156.146 103.275 156.887 103.188C157.631 103.105 158.302 103.637 158.386 104.378C158.473 105.119 157.94 105.789 157.199 105.876C157.144 105.881 157.093 105.884 157.042 105.884C156.362 105.884 155.778 105.376 155.7 104.686ZM167.069 104.416C167.069 103.67 167.675 103.064 168.422 103.064C169.169 103.064 169.775 103.67 169.775 104.416C169.775 105.162 169.169 105.768 168.422 105.768C167.675 105.768 167.069 105.162 167.069 104.416ZM92.0704 105.395C91.3291 105.294 90.8096 104.616 90.907 103.875C91.0044 103.137 91.6835 102.615 92.4249 102.712C93.1663 102.813 93.6858 103.491 93.5884 104.232C93.4991 104.911 92.9174 105.405 92.249 105.405C92.1895 105.405 92.13 105.405 92.0704 105.395ZM159.999 104.178C159.899 103.437 160.418 102.756 161.16 102.658C161.898 102.558 162.58 103.077 162.68 103.816C162.781 104.556 162.261 105.238 161.52 105.338C161.457 105.346 161.398 105.349 161.336 105.349C160.67 105.349 160.091 104.856 159.999 104.178ZM87.7547 104.778C87.0161 104.665 86.5101 103.975 86.6237 103.237C86.7374 102.499 87.4273 101.993 88.166 102.107C88.9047 102.22 89.4107 102.91 89.297 103.645C89.1942 104.316 88.6179 104.794 87.9631 104.794C87.8927 104.794 87.8251 104.789 87.7547 104.778ZM164.288 103.583C164.171 102.848 164.677 102.156 165.416 102.042C166.155 101.926 166.847 102.431 166.961 103.169C167.075 103.907 166.571 104.6 165.833 104.713C165.762 104.724 165.692 104.729 165.622 104.729C164.967 104.729 164.39 104.251 164.288 103.583ZM83.4525 104.07C82.7166 103.94 82.2268 103.24 82.3567 102.504C82.4866 101.769 83.1874 101.277 83.9234 101.409C84.6593 101.536 85.1491 102.239 85.0192 102.975C84.9056 103.629 84.3346 104.091 83.688 104.091C83.6122 104.091 83.531 104.083 83.4525 104.07ZM79.1639 103.261C78.4333 103.113 77.9598 102.399 78.1059 101.666C78.2548 100.936 78.9691 100.463 79.7023 100.609C80.4329 100.758 80.9091 101.472 80.7576 102.204C80.6304 102.845 80.0649 103.288 79.4345 103.288C79.3452 103.288 79.2559 103.278 79.1639 103.261ZM74.8969 102.337C74.169 102.166 73.7172 101.439 73.8876 100.712C74.0554 99.9872 74.7832 99.533 75.5111 99.7006C76.239 99.8709 76.6908 100.596 76.5203 101.326C76.3769 101.947 75.8196 102.372 75.2053 102.372C75.1025 102.372 75.0024 102.358 74.8996 102.337H74.8969ZM70.6515 101.277C69.9291 101.085 69.5016 100.344 69.6937 99.6222C69.8858 98.903 70.6272 98.4731 71.3496 98.6651C72.0721 98.8598 72.4996 99.6006 72.3074 100.322C72.1451 100.925 71.5985 101.326 71.0006 101.326C70.8869 101.326 70.7679 101.309 70.6515 101.277ZM66.4359 100.063C65.7243 99.8412 65.3266 99.0842 65.5484 98.3704C65.7703 97.6566 66.5279 97.2592 67.2422 97.4809C67.9566 97.7026 68.3543 98.4623 68.1324 99.1734C67.9512 99.7547 67.4154 100.125 66.8391 100.125C66.7065 100.125 66.5712 100.106 66.4359 100.063ZM62.269 98.6489C61.5709 98.392 61.2111 97.6134 61.4708 96.9131C61.7306 96.2129 62.5071 95.856 63.2106 96.1156C63.9114 96.3751 64.2686 97.1511 64.0088 97.8513C63.8059 98.3974 63.2891 98.7354 62.7398 98.7354C62.5829 98.7354 62.426 98.7084 62.269 98.6489ZM58.1725 96.9753C57.4933 96.6644 57.193 95.8641 57.5014 95.1855C57.8099 94.5042 58.6135 94.2041 59.2927 94.515C59.9745 94.8232 60.2749 95.6235 59.9637 96.3048C59.7364 96.8023 59.2467 97.097 58.7326 97.097C58.5459 97.097 58.3538 97.0564 58.1725 96.9753ZM54.2437 95.0828C53.5699 94.7583 53.2885 93.9526 53.6159 93.2794C53.9406 92.6062 54.747 92.325 55.4207 92.6495C56.0944 92.9739 56.3758 93.7823 56.0511 94.4555C55.8184 94.9368 55.3341 95.2179 54.8335 95.2179C54.636 95.2179 54.4358 95.1747 54.2437 95.0828ZM50.3474 93.2037C49.6736 92.8766 49.3922 92.0682 49.7169 91.3977C50.0416 90.7245 50.8506 90.4433 51.5244 90.7677C52.1954 91.0922 52.4768 91.9006 52.1521 92.5738C51.9194 93.055 51.4351 93.3362 50.9345 93.3362C50.737 93.3362 50.5368 93.2929 50.3474 93.2037Z" fill="url(#paint2_linear_1233_1791)"/>
<path d="M30.7783 213.484C30.762 212.735 31.3546 212.119 32.1014 212.102C32.8482 212.089 33.4678 212.681 33.4813 213.427C33.4976 214.173 32.905 214.793 32.1582 214.806H32.1284C31.3952 214.806 30.7918 214.219 30.7783 213.484ZM27.7667 214.801C27.0199 214.782 26.4301 214.163 26.449 213.414C26.468 212.667 27.0876 212.078 27.8344 212.097C28.5812 212.116 29.171 212.735 29.1521 213.481C29.1359 214.217 28.5325 214.801 27.8019 214.801H27.7667ZM35.1048 213.362C35.0615 212.616 35.6324 211.978 36.3765 211.935C37.1233 211.889 37.7619 212.459 37.8079 213.206C37.8485 213.949 37.2802 214.59 36.5334 214.633C36.5091 214.636 36.482 214.636 36.455 214.636C35.7434 214.636 35.1481 214.082 35.1048 213.362ZM23.3698 214.571C22.6258 214.511 22.0711 213.857 22.1306 213.114C22.1928 212.37 22.8449 211.816 23.589 211.875C24.3358 211.938 24.8905 212.589 24.8283 213.333C24.7714 214.041 24.1789 214.576 23.4835 214.576C23.4456 214.576 23.4077 214.576 23.3725 214.571H23.3698ZM39.4259 213.084C39.3583 212.338 39.9075 211.681 40.6516 211.613C41.3957 211.545 42.0532 212.094 42.1209 212.838C42.1885 213.581 41.6392 214.238 40.8952 214.306C40.8546 214.311 40.814 214.311 40.7707 214.311C40.0807 214.311 39.4882 213.784 39.4259 213.084ZM18.973 214.063C18.2343 213.949 17.7283 213.26 17.8419 212.519C17.9556 211.781 18.6456 211.275 19.3842 211.389C20.1229 211.502 20.6289 212.194 20.5152 212.932C20.4124 213.6 19.8361 214.079 19.1813 214.079C19.1109 214.079 19.0433 214.073 18.973 214.063ZM43.7362 212.667C43.6469 211.927 44.1773 211.253 44.9186 211.164C45.66 211.078 46.3338 211.608 46.4231 212.348C46.5096 213.089 45.982 213.762 45.2379 213.849C45.1838 213.857 45.1297 213.86 45.0783 213.86C44.4018 213.86 43.8174 213.354 43.7362 212.667ZM48.033 212.135C47.9275 211.394 48.4389 210.71 49.1775 210.605C49.9189 210.496 50.6035 211.01 50.7117 211.748C50.8172 212.486 50.3059 213.173 49.5645 213.279C49.4995 213.289 49.4346 213.295 49.3697 213.295C48.7094 213.295 48.1304 212.808 48.033 212.135ZM14.6031 213.184C13.878 213 13.4423 212.265 13.6236 211.54C13.8076 210.815 14.5463 210.38 15.2687 210.564C15.9939 210.748 16.4322 211.483 16.2482 212.208C16.0913 212.819 15.542 213.224 14.9386 213.224C14.8277 213.224 14.7141 213.211 14.6031 213.184ZM52.3162 211.497C52.1918 210.761 52.6896 210.064 53.4256 209.942C54.1643 209.818 54.8624 210.315 54.9841 211.051C55.1086 211.789 54.6107 212.484 53.8721 212.608C53.799 212.619 53.7232 212.627 53.6475 212.627C52.9981 212.627 52.4272 212.159 52.3162 211.497ZM10.3118 211.797C9.61908 211.516 9.28627 210.726 9.56767 210.034C9.84907 209.342 10.6365 209.009 11.3291 209.291C12.0218 209.572 12.3546 210.359 12.0732 211.051C11.8622 211.575 11.3562 211.894 10.8204 211.894C10.65 211.894 10.4795 211.865 10.3118 211.797ZM56.5833 210.767C56.4453 210.034 56.9296 209.326 57.6629 209.188C58.3988 209.05 59.105 209.534 59.243 210.267C59.381 210.999 58.8967 211.708 58.1634 211.846C58.0795 211.862 57.9957 211.87 57.9118 211.87C57.2732 211.87 56.705 211.416 56.5833 210.767ZM60.8367 209.953C60.6852 209.22 61.1533 208.504 61.8866 208.352C62.6171 208.201 63.3342 208.671 63.4857 209.401C63.6372 210.134 63.1664 210.848 62.4358 210.999C62.3439 211.021 62.2519 211.029 62.1599 211.029C61.5321 211.029 60.9693 210.591 60.8367 209.953ZM65.0713 209.058C64.9089 208.331 65.3662 207.606 66.0941 207.444C66.8246 207.279 67.5471 207.736 67.7121 208.466C67.8772 209.193 67.4199 209.915 66.6893 210.08C66.5892 210.104 66.4891 210.115 66.3917 210.115C65.7721 210.115 65.2147 209.688 65.0713 209.058ZM6.23686 209.675C5.61724 209.261 5.44948 208.423 5.86346 207.801C6.27745 207.179 7.11894 207.011 7.73856 207.425C8.36089 207.841 8.52865 208.68 8.11467 209.301C7.85221 209.691 7.4247 209.904 6.98636 209.904C6.72931 209.902 6.46956 209.829 6.23686 209.675ZM69.295 208.096C69.1191 207.371 69.5656 206.638 70.2907 206.463C71.0159 206.287 71.7491 206.733 71.9223 207.458C72.1009 208.185 71.6544 208.915 70.9266 209.091C70.8211 209.118 70.7128 209.128 70.6073 209.128C69.9985 209.128 69.4438 208.715 69.295 208.096ZM73.4998 207.066C73.3131 206.341 73.7487 205.606 74.4711 205.419C75.1936 205.232 75.9323 205.665 76.119 206.39C76.3057 207.111 75.87 207.85 75.1476 208.036C75.0339 208.066 74.9203 208.079 74.8094 208.079C74.206 208.079 73.6567 207.674 73.4998 207.066ZM2.72476 206.533C2.25396 205.952 2.34325 205.103 2.92228 204.632C3.50402 204.159 4.35634 204.248 4.82715 204.83C5.29795 205.408 5.20866 206.26 4.62963 206.73C4.37799 206.933 4.07765 207.033 3.77731 207.033C3.38497 207.033 2.99263 206.86 2.72476 206.533ZM77.6883 205.973C77.4908 205.251 77.9156 204.508 78.638 204.313C79.3578 204.116 80.1019 204.54 80.2994 205.259C80.4969 205.981 80.0721 206.722 79.3524 206.92C79.2306 206.952 79.1115 206.968 78.9952 206.968C78.3999 206.968 77.8534 206.573 77.6883 205.973ZM81.8633 204.822C81.6577 204.102 82.0717 203.356 82.7887 203.148C83.5084 202.942 84.2579 203.356 84.4636 204.073C84.6692 204.792 84.2552 205.541 83.5382 205.746C83.4137 205.784 83.2866 205.8 83.1621 205.8C82.575 205.8 82.0338 205.414 81.8633 204.822ZM86.0221 203.616C85.8056 202.902 86.2115 202.148 86.9258 201.931C87.6402 201.715 88.3951 202.121 88.6115 202.834C88.828 203.551 88.4221 204.305 87.7078 204.519C87.5779 204.559 87.4453 204.578 87.3155 204.578C86.7337 204.578 86.198 204.2 86.0221 203.616ZM90.1646 202.356C89.9401 201.645 90.3351 200.885 91.0467 200.661C91.7584 200.436 92.5187 200.834 92.7433 201.545C92.9678 202.256 92.5701 203.015 91.8585 203.24C91.7232 203.283 91.5852 203.302 91.4499 203.302C90.8763 203.302 90.3432 202.934 90.1619 202.356H90.1646ZM0.451908 202.261C0.248975 201.542 0.665664 200.796 1.3854 200.59C2.10514 200.387 2.85193 200.807 3.05487 201.526C3.2578 202.245 2.84111 202.991 2.12137 203.194C1.99961 203.229 1.87515 203.245 1.75339 203.245C1.16353 203.245 0.619666 202.856 0.451908 202.261ZM94.291 201.047C94.0583 200.339 94.4452 199.574 95.1568 199.341C95.8657 199.109 96.6287 199.495 96.8614 200.206C97.0941 200.915 96.7072 201.677 95.9983 201.912C95.8576 201.958 95.7169 201.98 95.5762 201.98C95.008 201.98 94.4777 201.618 94.291 201.047ZM98.4037 199.69C98.1629 198.984 98.5417 198.216 99.2479 197.976C99.9541 197.735 100.723 198.114 100.963 198.819C101.204 199.528 100.825 200.296 100.119 200.536C99.9758 200.585 99.827 200.609 99.6836 200.609C99.1208 200.609 98.5958 200.252 98.4037 199.69ZM102.498 198.287C102.249 197.584 102.619 196.813 103.323 196.565C104.029 196.316 104.8 196.683 105.049 197.389C105.298 198.092 104.93 198.865 104.224 199.114C104.075 199.165 103.924 199.19 103.775 199.19C103.217 199.19 102.695 198.844 102.498 198.287ZM1.28529 198.955C0.538493 198.9 -0.0216031 198.252 0.0352182 197.505C0.0920395 196.762 0.73872 196.205 1.48551 196.259C2.2296 196.316 2.7897 196.962 2.73288 197.708C2.68147 198.419 2.0862 198.96 1.3854 198.96C1.35023 198.96 1.31776 198.957 1.28529 198.955ZM106.578 196.84C106.324 196.14 106.686 195.364 107.387 195.107C108.088 194.853 108.864 195.213 109.121 195.913C109.378 196.616 109.016 197.392 108.312 197.649C108.161 197.703 108.004 197.73 107.85 197.73C107.298 197.73 106.778 197.389 106.578 196.84ZM110.645 195.351C110.38 194.65 110.734 193.872 111.432 193.609C112.133 193.344 112.912 193.699 113.177 194.399C113.44 195.096 113.085 195.875 112.387 196.14C112.23 196.197 112.068 196.227 111.911 196.227C111.362 196.227 110.848 195.891 110.645 195.351ZM1.81021 194.667C1.09318 194.458 0.681899 193.707 0.890244 192.99C1.10129 192.274 1.85079 191.863 2.56783 192.071C3.28486 192.279 3.69884 193.031 3.48779 193.747C3.31733 194.337 2.77617 194.721 2.19172 194.721C2.06455 194.721 1.93738 194.704 1.81021 194.667ZM114.693 193.818C114.422 193.123 114.768 192.339 115.464 192.068C116.162 191.798 116.944 192.144 117.214 192.839C117.485 193.536 117.141 194.318 116.443 194.591C116.284 194.65 116.116 194.68 115.953 194.68C115.412 194.68 114.901 194.353 114.693 193.818ZM118.727 192.244C118.448 191.552 118.786 190.765 119.482 190.487C120.174 190.211 120.962 190.549 121.238 191.241C121.516 191.936 121.178 192.723 120.486 192.998C120.321 193.066 120.15 193.096 119.982 193.096C119.447 193.096 118.938 192.774 118.727 192.244ZM122.745 190.633C122.461 189.941 122.791 189.151 123.481 188.867C124.174 188.586 124.964 188.913 125.248 189.605C125.532 190.295 125.202 191.084 124.509 191.368C124.341 191.438 124.168 191.471 123.998 191.471C123.465 191.471 122.959 191.154 122.745 190.633ZM3.14686 190.552C2.4623 190.249 2.15384 189.451 2.45959 188.767C2.76264 188.086 3.56085 187.778 4.24541 188.08C4.92726 188.386 5.23572 189.184 4.93267 189.865C4.7081 190.37 4.21294 190.668 3.69343 190.668C3.51214 190.668 3.32544 190.633 3.14686 190.552ZM126.747 188.981C126.455 188.291 126.779 187.499 127.466 187.21C128.154 186.921 128.949 187.242 129.239 187.929C129.531 188.616 129.206 189.411 128.519 189.7C128.346 189.773 128.167 189.808 127.991 189.808C127.466 189.808 126.963 189.497 126.747 188.981ZM130.732 187.291C130.435 186.607 130.749 185.809 131.436 185.515C132.12 185.217 132.919 185.531 133.214 186.218C133.511 186.902 133.197 187.697 132.51 187.994C132.337 188.07 132.153 188.105 131.974 188.105C131.452 188.105 130.954 187.802 130.732 187.291ZM4.98138 186.634C4.33199 186.269 4.102 185.444 4.46728 184.793C4.83527 184.144 5.65782 183.914 6.30992 184.279C6.96201 184.644 7.192 185.469 6.82672 186.12C6.57779 186.561 6.11781 186.81 5.647 186.81C5.41971 186.81 5.19243 186.753 4.98138 186.634ZM134.702 185.563C134.399 184.882 134.707 184.082 135.389 183.779C136.071 183.476 136.872 183.784 137.175 184.466C137.478 185.15 137.169 185.947 136.488 186.25C136.309 186.328 136.122 186.366 135.938 186.366C135.419 186.366 134.926 186.069 134.702 185.563ZM138.655 183.801C138.346 183.122 138.647 182.319 139.326 182.011C140.008 181.7 140.809 182 141.117 182.681C141.428 183.36 141.128 184.163 140.446 184.471C140.265 184.552 140.075 184.593 139.886 184.593C139.375 184.593 138.882 184.298 138.655 183.801ZM7.16223 182.898C6.53991 182.487 6.36944 181.646 6.78072 181.024C7.192 180.402 8.03079 180.232 8.65582 180.643C9.27815 181.054 9.44862 181.892 9.03734 182.516C8.77758 182.908 8.34737 183.122 7.90903 183.122C7.65198 183.122 7.39223 183.049 7.16223 182.898ZM142.594 182C142.278 181.324 142.57 180.518 143.247 180.205C143.926 179.888 144.729 180.18 145.046 180.859C145.36 181.535 145.068 182.338 144.391 182.654C144.207 182.741 144.012 182.781 143.82 182.781C143.312 182.781 142.822 182.492 142.594 182ZM146.512 180.167C146.193 179.491 146.477 178.685 147.151 178.363C147.827 178.042 148.634 178.326 148.956 179.002C149.278 179.675 148.991 180.48 148.317 180.802C148.131 180.894 147.93 180.935 147.735 180.935C147.229 180.935 146.745 180.651 146.512 180.167ZM9.59473 179.318C8.99405 178.869 8.87229 178.023 9.31874 177.425C9.76519 176.828 10.6148 176.703 11.2128 177.152C11.8108 177.598 11.9352 178.445 11.4861 179.045C11.2209 179.399 10.815 179.586 10.401 179.586C10.1196 179.586 9.83554 179.499 9.59473 179.318ZM150.417 178.296C150.089 177.625 150.368 176.814 151.039 176.487C151.71 176.16 152.522 176.438 152.849 177.109C153.177 177.78 152.898 178.588 152.227 178.918C152.035 179.01 151.835 179.056 151.634 179.056C151.134 179.056 150.652 178.774 150.417 178.296ZM154.305 176.39C153.972 175.722 154.243 174.911 154.911 174.578C155.58 174.243 156.391 174.513 156.727 175.181C157.06 175.849 156.789 176.663 156.121 176.995C155.926 177.093 155.72 177.139 155.517 177.139C155.019 177.139 154.543 176.863 154.305 176.39ZM12.2166 175.876C11.6403 175.4 11.5591 174.549 12.0353 173.973C12.5116 173.397 13.3639 173.316 13.9402 173.789C14.5165 174.265 14.5977 175.116 14.1215 175.692C13.8563 176.017 13.4694 176.184 13.0798 176.184C12.7767 176.184 12.471 176.084 12.2166 175.876ZM158.174 174.451C157.836 173.786 158.099 172.972 158.764 172.632C159.43 172.291 160.244 172.556 160.585 173.218C160.926 173.886 160.661 174.7 159.995 175.038C159.798 175.141 159.589 175.187 159.381 175.187C158.889 175.187 158.415 174.919 158.174 174.451ZM162.03 172.475C161.681 171.813 161.938 170.996 162.601 170.65C163.264 170.304 164.081 170.561 164.427 171.223C164.774 171.886 164.517 172.702 163.854 173.048C163.654 173.151 163.44 173.2 163.229 173.2C162.742 173.2 162.271 172.937 162.03 172.475ZM15.0009 172.561C14.4435 172.061 14.3975 171.207 14.8981 170.653C15.3959 170.096 16.2509 170.05 16.8056 170.547C17.363 171.047 17.409 171.902 16.9111 172.456C16.6433 172.756 16.2753 172.908 15.9046 172.908C15.5826 172.908 15.2579 172.791 15.0009 172.561ZM165.861 170.463C165.51 169.806 165.761 168.987 166.419 168.636C167.076 168.284 167.896 168.533 168.251 169.19C168.602 169.85 168.353 170.669 167.693 171.02C167.49 171.129 167.271 171.18 167.057 171.18C166.573 171.18 166.108 170.92 165.861 170.463ZM17.915 169.36C17.3765 168.841 17.3603 167.987 17.8798 167.449C18.3993 166.911 19.2544 166.895 19.7928 167.414C20.3313 167.933 20.3448 168.787 19.828 169.325C19.5628 169.601 19.2084 169.739 18.8539 169.739C18.5157 169.739 18.1775 169.614 17.915 169.36ZM169.679 168.419C169.319 167.765 169.563 166.943 170.218 166.586C170.873 166.227 171.695 166.467 172.052 167.124C172.412 167.779 172.171 168.601 171.514 168.957C171.308 169.071 171.086 169.122 170.867 169.122C170.388 169.122 169.926 168.868 169.679 168.419ZM173.476 166.338C173.113 165.686 173.346 164.864 173.998 164.499C174.65 164.134 175.475 164.369 175.838 165.021C176.203 165.673 175.97 166.494 175.315 166.859C175.107 166.976 174.883 167.032 174.658 167.032C174.184 167.032 173.724 166.781 173.476 166.338ZM20.9401 166.265C20.4205 165.729 20.4314 164.875 20.9671 164.353C21.5056 163.834 22.3606 163.848 22.8828 164.383C23.4023 164.918 23.3888 165.773 22.853 166.294C22.5906 166.549 22.2496 166.676 21.9114 166.676C21.557 166.676 21.2052 166.538 20.9401 166.265ZM177.253 164.223C176.882 163.574 177.109 162.747 177.756 162.379C178.405 162.009 179.231 162.233 179.604 162.882C179.975 163.531 179.747 164.356 179.098 164.726C178.887 164.848 178.657 164.905 178.43 164.905C177.959 164.905 177.502 164.659 177.253 164.223ZM24.0652 163.269C23.5592 162.717 23.5971 161.863 24.1491 161.36C24.7011 160.857 25.5561 160.895 26.0621 161.444C26.5654 161.996 26.5275 162.853 25.9755 163.355C25.7157 163.593 25.3883 163.71 25.0637 163.71C24.6957 163.71 24.3304 163.561 24.0652 163.269ZM181.008 162.071C180.632 161.425 180.851 160.598 181.495 160.222C182.142 159.843 182.97 160.062 183.346 160.709C183.722 161.352 183.506 162.179 182.859 162.555C182.645 162.682 182.41 162.742 182.18 162.742C181.715 162.742 181.26 162.501 181.008 162.071ZM27.277 160.368C26.7872 159.803 26.8495 158.949 27.415 158.462C27.9805 157.972 28.8355 158.035 29.3225 158.6C29.8123 159.165 29.7501 160.019 29.1846 160.509C28.9275 160.728 28.6136 160.836 28.2998 160.836C27.921 160.836 27.5449 160.679 27.277 160.368ZM184.745 159.881C184.364 159.241 184.572 158.41 185.213 158.029C185.854 157.645 186.685 157.854 187.069 158.494C187.451 159.138 187.243 159.968 186.601 160.349C186.385 160.479 186.144 160.541 185.909 160.541C185.449 160.541 184.999 160.306 184.745 159.881ZM188.46 157.656C188.07 157.018 188.271 156.188 188.909 155.799C189.545 155.409 190.378 155.609 190.768 156.248C191.158 156.886 190.958 157.716 190.319 158.105C190.1 158.24 189.856 158.305 189.615 158.305C189.161 158.305 188.714 158.073 188.46 157.656ZM30.5672 157.556C30.0937 156.978 30.1776 156.126 30.7566 155.653C31.3329 155.18 32.1853 155.266 32.6588 155.842C33.1323 156.421 33.0484 157.272 32.4721 157.745C32.2204 157.951 31.9174 158.051 31.6143 158.051C31.222 158.051 30.8351 157.881 30.5672 157.556ZM192.151 155.393C191.756 154.761 191.948 153.928 192.581 153.53C193.214 153.136 194.05 153.328 194.445 153.96C194.84 154.593 194.648 155.428 194.015 155.823C193.793 155.964 193.544 156.029 193.298 156.029C192.849 156.029 192.408 155.804 192.151 155.393ZM33.9305 154.831C33.4705 154.241 33.576 153.39 34.1659 152.933C34.7557 152.473 35.6054 152.579 36.0626 153.168C36.5226 153.757 36.4171 154.606 35.8272 155.066C35.581 155.258 35.2888 155.35 34.9966 155.35C34.5934 155.35 34.1957 155.172 33.9305 154.831ZM195.82 153.092C195.417 152.465 195.601 151.63 196.228 151.227C196.859 150.824 197.695 151.008 198.098 151.635C198.499 152.265 198.317 153.101 197.687 153.503C197.46 153.647 197.208 153.717 196.959 153.717C196.512 153.717 196.077 153.495 195.82 153.092ZM37.3587 152.187C36.9123 151.586 37.0394 150.74 37.6401 150.297C38.2381 149.851 39.085 149.978 39.5314 150.578C39.9752 151.178 39.8507 152.024 39.25 152.468C39.0065 152.646 38.7251 152.733 38.4464 152.733C38.0324 152.733 37.6239 152.544 37.3587 152.187ZM199.462 150.754C199.053 150.129 199.226 149.291 199.851 148.883C200.476 148.472 201.315 148.648 201.724 149.272C202.135 149.897 201.959 150.735 201.334 151.143C201.107 151.292 200.85 151.365 200.596 151.365C200.154 151.365 199.722 151.148 199.462 150.754ZM40.8465 149.626C40.4162 149.015 40.5596 148.172 41.1711 147.742C41.7826 147.309 42.6269 147.455 43.0571 148.066C43.4873 148.675 43.3439 149.518 42.7324 149.948C42.4943 150.118 42.2237 150.197 41.9531 150.197C41.5283 150.197 41.1116 149.999 40.8465 149.626ZM203.079 148.375C202.66 147.755 202.828 146.915 203.447 146.498C204.067 146.082 204.909 146.247 205.325 146.866C205.742 147.485 205.577 148.326 204.957 148.742C204.725 148.899 204.462 148.972 204.202 148.972C203.767 148.972 203.339 148.764 203.079 148.375ZM44.3937 147.144C43.977 146.525 44.1394 145.684 44.759 145.268C45.3786 144.849 46.2201 145.014 46.6368 145.633C47.0562 146.252 46.8912 147.093 46.2715 147.509C46.0388 147.666 45.7764 147.739 45.5166 147.739C45.081 147.739 44.6562 147.531 44.3937 147.144ZM206.667 145.955C206.245 145.338 206.399 144.497 207.016 144.073C207.631 143.651 208.472 143.805 208.897 144.419C209.319 145.035 209.165 145.876 208.551 146.301C208.315 146.46 208.047 146.539 207.785 146.539C207.355 146.539 206.93 146.333 206.667 145.955ZM210.228 143.492C209.798 142.881 209.941 142.037 210.553 141.607C211.162 141.175 212.008 141.321 212.439 141.929C212.869 142.54 212.726 143.384 212.114 143.813C211.879 143.981 211.605 144.062 211.335 144.062C210.91 144.062 210.493 143.865 210.228 143.492ZM213.759 140.985C213.321 140.38 213.453 139.536 214.059 139.096C214.663 138.658 215.51 138.79 215.948 139.396C216.386 139.999 216.254 140.845 215.648 141.283C215.41 141.459 215.131 141.542 214.855 141.542C214.436 141.542 214.024 141.348 213.759 140.985ZM217.258 138.433C216.809 137.836 216.933 136.987 217.531 136.541C218.129 136.094 218.979 136.216 219.425 136.814C219.871 137.411 219.75 138.26 219.149 138.706C218.908 138.887 218.624 138.974 218.34 138.974C217.929 138.974 217.523 138.787 217.258 138.433ZM220.718 135.832C220.264 135.24 220.375 134.391 220.965 133.937C221.557 133.483 222.407 133.594 222.864 134.183C223.319 134.775 223.208 135.624 222.615 136.081C222.372 136.268 222.079 136.359 221.793 136.359C221.387 136.359 220.986 136.178 220.718 135.832ZM224.144 133.183C223.679 132.599 223.776 131.75 224.363 131.285C224.95 130.82 225.8 130.917 226.265 131.501C226.731 132.088 226.633 132.937 226.046 133.402C225.797 133.599 225.502 133.694 225.207 133.694C224.807 133.694 224.412 133.521 224.147 133.183H224.144ZM227.526 130.482C227.053 129.906 227.136 129.054 227.713 128.578C228.292 128.105 229.144 128.189 229.618 128.765C230.091 129.343 230.007 130.195 229.431 130.668C229.179 130.874 228.876 130.976 228.573 130.976C228.181 130.976 227.794 130.806 227.526 130.482ZM230.865 127.724C230.381 127.156 230.448 126.305 231.017 125.818C231.585 125.337 232.44 125.404 232.924 125.972C233.408 126.54 233.341 127.394 232.773 127.878C232.518 128.094 232.204 128.2 231.896 128.2C231.512 128.2 231.133 128.038 230.865 127.724ZM234.153 124.907C233.657 124.35 233.709 123.495 234.269 122.998C234.826 122.503 235.681 122.557 236.176 123.114C236.672 123.674 236.62 124.528 236.063 125.023C235.803 125.25 235.484 125.364 235.165 125.364C234.791 125.364 234.42 125.21 234.153 124.907ZM237.383 122.027C236.877 121.479 236.91 120.624 237.459 120.116C238.008 119.61 238.863 119.643 239.369 120.192C239.878 120.74 239.846 121.595 239.296 122.103C239.036 122.341 238.706 122.46 238.379 122.46C238.014 122.46 237.651 122.314 237.383 122.027ZM240.552 119.078C240.032 118.54 240.046 117.685 240.581 117.163C241.117 116.644 241.975 116.658 242.494 117.193C243.014 117.731 243 118.586 242.465 119.105C242.202 119.362 241.864 119.486 241.523 119.486C241.171 119.486 240.817 119.351 240.552 119.078ZM243.647 116.05C243.114 115.528 243.103 114.671 243.625 114.138C244.148 113.603 245.005 113.595 245.538 114.116C246.074 114.638 246.082 115.495 245.56 116.028C245.295 116.298 244.943 116.436 244.591 116.436C244.251 116.436 243.91 116.306 243.647 116.05ZM246.659 112.938C246.107 112.435 246.072 111.578 246.577 111.029C247.083 110.477 247.938 110.442 248.49 110.948C249.04 111.453 249.075 112.308 248.569 112.857C248.304 113.149 247.938 113.295 247.573 113.295C247.246 113.295 246.918 113.178 246.659 112.938ZM249.567 109.734C249.002 109.25 248.934 108.396 249.419 107.828C249.903 107.26 250.758 107.192 251.326 107.676C251.894 108.163 251.962 109.015 251.475 109.582C251.207 109.896 250.828 110.058 250.447 110.058C250.136 110.058 249.824 109.95 249.567 109.734ZM252.357 106.422C251.767 105.962 251.662 105.113 252.122 104.524C252.582 103.937 253.434 103.832 254.021 104.291C254.611 104.751 254.714 105.6 254.256 106.189C253.989 106.53 253.591 106.708 253.188 106.708C252.895 106.708 252.603 106.614 252.357 106.422ZM254.99 102.988C254.378 102.561 254.227 101.717 254.654 101.106C255.082 100.493 255.923 100.344 256.537 100.768C257.149 101.196 257.3 102.039 256.873 102.653C256.611 103.029 256.188 103.232 255.761 103.232C255.496 103.232 255.225 103.153 254.99 102.988ZM257.425 99.4112C256.784 99.0273 256.573 98.1973 256.957 97.5565C257.341 96.9158 258.172 96.7076 258.813 97.0888C259.454 97.4727 259.663 98.3028 259.278 98.9435C259.027 99.368 258.578 99.6032 258.118 99.6032C257.882 99.6032 257.641 99.541 257.425 99.4112ZM259.587 95.664C258.913 95.3449 258.626 94.5393 258.948 93.8633C259.268 93.1901 260.077 92.9035 260.75 93.2226C261.424 93.5443 261.711 94.35 261.392 95.0259C261.159 95.5126 260.675 95.7965 260.169 95.7965C259.974 95.7965 259.776 95.7532 259.587 95.664ZM261.365 91.7247C260.65 91.4976 260.258 90.7379 260.485 90.0268C260.712 89.3158 261.473 88.9211 262.187 89.1482C262.899 89.3726 263.291 90.135 263.066 90.8461C262.883 91.4219 262.349 91.7896 261.776 91.7896C261.641 91.7896 261.503 91.768 261.367 91.7247H261.365ZM262.544 87.5719C261.8 87.4989 261.259 86.8338 261.332 86.093C261.408 85.3495 262.071 84.8088 262.815 84.8818C263.559 84.9575 264.1 85.6199 264.024 86.3634C263.954 87.0609 263.367 87.58 262.682 87.58C262.636 87.58 262.59 87.58 262.544 87.5719ZM261.151 82.2214C260.991 81.4941 261.451 80.7722 262.182 80.61C262.91 80.4505 263.632 80.9101 263.794 81.6401C263.954 82.3701 263.494 83.0893 262.763 83.2515C262.666 83.2731 262.566 83.2839 262.471 83.2839C261.849 83.2839 261.292 82.854 261.151 82.2214ZM259.633 78.7769C259.205 78.1659 259.351 77.3224 259.963 76.8925C260.574 76.4653 261.419 76.6113 261.846 77.2223C262.276 77.8334 262.13 78.6769 261.519 79.1068C261.281 79.2717 261.01 79.3528 260.742 79.3528C260.315 79.3528 259.898 79.15 259.633 78.7769ZM192.876 76.9249C192.689 76.203 193.128 75.4649 193.85 75.2811C194.572 75.0945 195.311 75.5325 195.498 76.2544C195.682 76.9763 195.246 77.7144 194.521 77.8982C194.407 77.928 194.296 77.9415 194.186 77.9415C193.582 77.9415 193.03 77.5359 192.876 76.9249ZM197.073 75.8624C196.897 75.1378 197.346 74.4078 198.071 74.2321C198.796 74.059 199.529 74.5051 199.703 75.2297C199.878 75.957 199.429 76.687 198.704 76.8627C198.596 76.8871 198.49 76.8979 198.385 76.8979C197.776 76.8979 197.221 76.4815 197.073 75.8624ZM256.895 76.0706C256.289 75.6353 256.148 74.7917 256.581 74.1861C257.016 73.5778 257.861 73.4372 258.469 73.8725C259.078 74.3051 259.216 75.1513 258.783 75.7569C258.518 76.1273 258.101 76.3247 257.682 76.3247C257.409 76.3247 257.133 76.2409 256.895 76.0706ZM201.285 74.8647C201.123 74.1347 201.58 73.4129 202.311 73.2506C203.039 73.0884 203.761 73.548 203.924 74.2753C204.089 75.0053 203.629 75.7272 202.898 75.8894C202.801 75.911 202.701 75.9219 202.603 75.9219C201.984 75.9219 201.426 75.4947 201.285 74.8647ZM205.512 73.9374C205.363 73.2047 205.834 72.4909 206.567 72.3395C207.3 72.1908 208.015 72.6613 208.164 73.3939C208.312 74.1266 207.842 74.8404 207.108 74.9891C207.019 75.008 206.927 75.0161 206.838 75.0161C206.207 75.0161 205.644 74.5754 205.512 73.9374ZM253.372 74.1591C252.682 73.8725 252.354 73.083 252.638 72.3936C252.925 71.7014 253.715 71.3743 254.405 71.6609C255.098 71.9448 255.425 72.737 255.139 73.4264C254.925 73.9455 254.419 74.2618 253.889 74.2618C253.718 74.2618 253.542 74.2294 253.372 74.1591ZM209.757 73.083C209.622 72.3476 210.106 71.6447 210.842 71.5095C211.578 71.3743 212.282 71.8583 212.417 72.5937C212.552 73.3263 212.068 74.032 211.332 74.1672C211.251 74.1834 211.167 74.1888 211.086 74.1888C210.447 74.1888 209.879 73.7346 209.757 73.083ZM214.019 72.3152C213.897 71.5771 214.4 70.8822 215.136 70.7633C215.875 70.6443 216.57 71.1445 216.689 71.8826C216.809 72.618 216.308 73.3128 215.569 73.4318C215.496 73.4453 215.423 73.4507 215.353 73.4507C214.701 73.4507 214.127 72.9776 214.019 72.3152ZM249.451 72.8938C248.726 72.7153 248.285 71.9799 248.463 71.258C248.642 70.5308 249.378 70.0901 250.103 70.2685C250.828 70.447 251.269 71.1824 251.091 71.9069C250.936 72.5207 250.387 72.9343 249.778 72.9343C249.67 72.9343 249.562 72.9208 249.454 72.8938H249.451ZM218.294 71.6393C218.191 70.8985 218.711 70.2171 219.449 70.1171C220.191 70.0144 220.873 70.5308 220.975 71.2716C221.076 72.0124 220.559 72.6937 219.82 72.7937C219.755 72.8018 219.696 72.8072 219.633 72.8072C218.968 72.8072 218.389 72.3179 218.294 71.6393ZM222.585 71.0715C222.504 70.328 223.04 69.6602 223.784 69.5818C224.525 69.498 225.194 70.036 225.275 70.7768C225.356 71.5176 224.82 72.1854 224.079 72.2692C224.028 72.2746 223.979 72.2773 223.93 72.2773C223.248 72.2773 222.661 71.7636 222.585 71.0715ZM245.336 72.1124C244.597 72.0097 244.08 71.3256 244.183 70.5848C244.288 69.8467 244.973 69.3303 245.712 69.4331C246.453 69.5385 246.967 70.2226 246.864 70.9607C246.77 71.6366 246.188 72.1259 245.525 72.1259C245.463 72.1259 245.4 72.1205 245.336 72.1124ZM226.893 70.6227C226.833 69.8792 227.394 69.2303 228.138 69.1708C228.884 69.114 229.536 69.671 229.593 70.4145C229.65 71.1607 229.093 71.8096 228.349 71.8664C228.311 71.8664 228.276 71.8718 228.24 71.8718C227.542 71.8718 226.95 71.3338 226.896 70.6227H226.893ZM241.131 71.6906C240.384 71.642 239.818 70.9985 239.867 70.255C239.916 69.5088 240.56 68.9437 241.304 68.9924C242.051 69.0383 242.616 69.6818 242.568 70.428C242.522 71.1418 241.926 71.6933 241.22 71.6933C241.19 71.6933 241.161 71.6933 241.131 71.6933V71.6906ZM231.211 70.3199C231.182 69.5737 231.763 68.9437 232.51 68.914C233.254 68.8869 233.885 69.4682 233.914 70.2117C233.944 70.9579 233.362 71.5879 232.616 71.6176H232.562C231.839 71.6176 231.238 71.0472 231.211 70.3199ZM236.883 71.5446C236.136 71.5392 235.533 70.9309 235.538 70.182C235.543 69.4358 236.152 68.8356 236.902 68.841C237.648 68.8464 238.249 69.4547 238.244 70.2009C238.238 70.9444 237.632 71.5446 236.891 71.5446H236.883Z" fill="url(#paint3_linear_1233_1791)"/>
</g>
<defs>
<linearGradient id="paint0_linear_1233_1791" x1="47.5" y1="130.909" x2="205.661" y2="130.909" gradientUnits="userSpaceOnUse">
<stop stop-color="#8CD6D6"/>
<stop offset="1" stop-color="#FF9F80"/>
</linearGradient>
<linearGradient id="paint1_linear_1233_1791" x1="73.1433" y1="31.9496" x2="180.016" y2="31.9496" gradientUnits="userSpaceOnUse">
<stop stop-color="#8CD6D6"/>
<stop offset="1" stop-color="#FF9F80"/>
</linearGradient>
<linearGradient id="paint2_linear_1233_1791" x1="49.5816" y1="132.236" x2="169.775" y2="132.236" gradientUnits="userSpaceOnUse">
<stop stop-color="#8CD6D6"/>
<stop offset="1" stop-color="#FF9F80"/>
</linearGradient>
<linearGradient id="paint3_linear_1233_1791" x1="0.0325124" y1="141.824" x2="264.032" y2="141.824" gradientUnits="userSpaceOnUse">
<stop stop-color="#8CD6D6"/>
<stop offset="1" stop-color="#FF9F80"/>
</linearGradient>
<clipPath id="clip0_1233_1791">
<rect width="264" height="214" fill="white" transform="translate(0.0332031 0.806152)"/>
</clipPath>
</defs>
</svg>
