<svg width="214" height="215" viewBox="0 0 214 215" fill="none" xmlns="http://www.w3.org/2000/svg">
<g clip-path="url(#clip0_1233_2752)">
<path d="M105.467 213.486C105.456 212.746 106.048 212.138 106.787 212.127C107.526 212.117 108.134 212.709 108.142 213.448C108.153 214.187 107.561 214.795 106.822 214.806H106.806C106.075 214.806 105.475 214.22 105.467 213.486ZM102.482 214.771C101.743 214.75 101.162 214.134 101.183 213.392C101.205 212.652 101.823 212.071 102.56 212.093C103.299 212.114 103.882 212.733 103.861 213.472C103.839 214.198 103.242 214.771 102.522 214.771H102.482ZM109.748 213.392C109.708 212.655 110.27 212.023 111.009 211.98C111.748 211.937 112.38 212.502 112.423 213.242C112.463 213.981 111.898 214.613 111.159 214.654C111.135 214.656 111.108 214.656 111.084 214.656C110.38 214.656 109.788 214.107 109.748 213.392ZM98.1473 214.552C97.411 214.498 96.8568 213.855 96.9104 213.119C96.9639 212.382 97.6038 211.825 98.3428 211.878C99.079 211.932 99.6332 212.575 99.5797 213.311C99.5288 214.016 98.9425 214.554 98.2464 214.554C98.2142 214.554 98.1821 214.554 98.1473 214.552ZM114.021 213.119C113.949 212.382 114.484 211.726 115.221 211.651C115.957 211.578 116.613 212.114 116.685 212.851C116.76 213.587 116.222 214.244 115.488 214.316C115.443 214.321 115.397 214.324 115.355 214.324C114.675 214.324 114.091 213.81 114.021 213.119ZM93.8261 214.145C93.0925 214.059 92.565 213.392 92.6507 212.658C92.7364 211.924 93.4004 211.396 94.1366 211.482C94.8702 211.568 95.395 212.232 95.3093 212.969C95.2317 213.649 94.6534 214.153 93.9814 214.153C93.9305 214.153 93.8796 214.15 93.8261 214.145ZM118.278 212.658C118.174 211.924 118.682 211.246 119.413 211.142C120.147 211.035 120.824 211.543 120.929 212.275C121.036 213.006 120.527 213.686 119.796 213.791C119.732 213.802 119.668 213.804 119.603 213.804C118.948 213.804 118.375 213.325 118.278 212.658ZM89.5263 213.547C88.7954 213.432 88.3001 212.744 88.4179 212.012C88.533 211.284 89.2211 210.785 89.952 210.903C90.6802 211.021 91.1782 211.707 91.0604 212.438C90.956 213.097 90.3857 213.566 89.7405 213.566C89.6708 213.566 89.5986 213.561 89.5263 213.547ZM122.514 212.012C122.377 211.284 122.854 210.584 123.582 210.448C124.308 210.309 125.006 210.788 125.143 211.514C125.282 212.243 124.803 212.942 124.077 213.078C123.994 213.094 123.909 213.103 123.826 213.103C123.196 213.103 122.634 212.655 122.514 212.012ZM85.2506 212.765C84.525 212.615 84.0591 211.908 84.2091 211.185C84.359 210.459 85.0658 209.992 85.7914 210.142C86.5143 210.29 86.9801 211 86.8329 211.723C86.7017 212.358 86.1448 212.794 85.521 212.794C85.4326 212.794 85.3416 212.784 85.2506 212.765ZM126.715 211.182C126.546 210.461 126.993 209.741 127.713 209.572C128.433 209.403 129.154 209.851 129.322 210.571C129.491 211.292 129.044 212.012 128.324 212.181C128.222 212.205 128.117 212.216 128.018 212.216C127.411 212.216 126.859 211.801 126.715 211.182ZM81.015 211.795C80.2975 211.616 79.8611 210.887 80.0431 210.169C80.2225 209.451 80.9508 209.017 81.6683 209.197C82.3858 209.379 82.8195 210.108 82.6402 210.826C82.4875 211.431 81.9414 211.835 81.3417 211.835C81.2346 211.835 81.1248 211.822 81.015 211.795ZM130.878 210.169C130.677 209.457 131.092 208.717 131.801 208.516C132.511 208.318 133.253 208.731 133.451 209.443C133.651 210.156 133.236 210.895 132.524 211.096C132.404 211.131 132.283 211.147 132.163 211.147C131.577 211.147 131.041 210.761 130.875 210.169H130.878ZM76.825 210.641C76.1155 210.429 75.7139 209.682 75.9254 208.975C76.1369 208.265 76.8839 207.863 77.5907 208.075C78.2975 208.286 78.6991 209.033 78.4876 209.741C78.3136 210.322 77.7835 210.697 77.2052 210.697C77.0793 210.697 76.9508 210.678 76.8223 210.641H76.825ZM134.99 208.975C134.757 208.273 135.14 207.515 135.844 207.284C136.546 207.051 137.301 207.434 137.534 208.136C137.764 208.841 137.381 209.596 136.68 209.829C136.54 209.875 136.401 209.896 136.262 209.896C135.7 209.896 135.175 209.54 134.99 208.975ZM72.6885 209.304C71.9897 209.06 71.6202 208.297 71.8639 207.6C72.1048 206.901 72.8679 206.532 73.5667 206.775C74.2654 207.016 74.6349 207.78 74.3913 208.479C74.1985 209.031 73.6818 209.379 73.1276 209.379C72.9803 209.379 72.8331 209.355 72.6858 209.304H72.6885ZM139.038 207.603C138.776 206.912 139.127 206.14 139.817 205.878C140.508 205.615 141.279 205.964 141.542 206.655C141.804 207.349 141.456 208.12 140.765 208.383C140.61 208.441 140.452 208.471 140.294 208.471C139.753 208.471 139.244 208.139 139.041 207.603H139.038ZM68.6189 207.788C67.9309 207.515 67.5962 206.735 67.8693 206.047C68.1424 205.361 68.9215 205.023 69.6069 205.297C70.2949 205.57 70.6296 206.349 70.3565 207.038C70.1477 207.563 69.6444 207.882 69.1116 207.882C68.9482 207.882 68.7796 207.852 68.6189 207.788ZM143.025 206.057C142.733 205.377 143.046 204.589 143.726 204.297C144.404 204.008 145.193 204.322 145.485 204.999C145.774 205.68 145.461 206.467 144.781 206.759C144.61 206.834 144.43 206.869 144.254 206.869C143.737 206.869 143.242 206.566 143.025 206.057ZM64.6163 206.092C63.9416 205.79 63.6391 204.997 63.9443 204.322C64.2468 203.647 65.0367 203.347 65.7113 203.649H65.714C66.386 203.952 66.6886 204.745 66.386 205.42C66.1611 205.915 65.6739 206.21 65.1625 206.21C64.9804 206.21 64.793 206.173 64.6136 206.092H64.6163ZM146.939 204.338C146.618 203.671 146.899 202.87 147.563 202.548C148.23 202.227 149.03 202.508 149.351 203.172C149.673 203.839 149.392 204.64 148.728 204.962C148.54 205.053 148.342 205.096 148.147 205.096C147.649 205.096 147.169 204.817 146.939 204.338ZM60.6967 204.225H60.694C60.0354 203.893 59.7677 203.087 60.1023 202.428C60.4343 201.766 61.2375 201.498 61.8988 201.833C62.5601 202.163 62.8252 202.969 62.4932 203.63C62.2576 204.097 61.7864 204.367 61.2964 204.367C61.0929 204.367 60.8895 204.322 60.6967 204.225ZM150.776 202.446C150.428 201.796 150.671 200.984 151.322 200.633C151.975 200.285 152.786 200.528 153.134 201.179C153.485 201.83 153.242 202.645 152.591 202.993C152.388 203.103 152.171 203.154 151.956 203.154C151.48 203.154 151.019 202.896 150.776 202.446ZM56.8601 202.187C56.2148 201.828 55.9819 201.011 56.3433 200.365C56.7048 199.72 57.5187 199.489 58.1666 199.851C58.8118 200.21 59.0421 201.027 58.6807 201.672C58.4343 202.112 57.9792 202.358 57.5107 202.358C57.2884 202.358 57.0662 202.304 56.8601 202.187ZM154.529 200.392C154.152 199.754 154.361 198.935 154.995 198.557C155.632 198.177 156.452 198.385 156.832 199.023C157.209 199.658 157.001 200.48 156.363 200.858C156.149 200.987 155.914 201.045 155.681 201.045C155.225 201.045 154.778 200.812 154.529 200.392ZM53.1145 199.985C52.4853 199.596 52.2925 198.771 52.6807 198.142C53.069 197.512 53.8936 197.317 54.5227 197.708C55.1519 198.096 55.3474 198.921 54.9565 199.551C54.7048 199.961 54.2657 200.186 53.8186 200.186C53.5777 200.186 53.334 200.121 53.1145 199.985ZM158.189 198.174C157.785 197.555 157.956 196.725 158.575 196.32C159.193 195.913 160.023 196.087 160.43 196.706C160.835 197.325 160.66 198.155 160.042 198.56C159.817 198.707 159.563 198.779 159.311 198.779C158.875 198.779 158.446 198.565 158.189 198.174ZM49.4706 197.622C48.8602 197.207 48.6995 196.374 49.1145 195.763C49.5322 195.15 50.3648 194.992 50.9753 195.407C51.5884 195.822 51.7463 196.655 51.3314 197.268C51.0717 197.649 50.6513 197.855 50.2229 197.855C49.9632 197.855 49.7009 197.78 49.4706 197.622ZM161.75 195.798C161.319 195.198 161.456 194.359 162.055 193.928C162.658 193.497 163.493 193.633 163.924 194.233C164.355 194.833 164.219 195.672 163.619 196.103C163.383 196.275 163.11 196.355 162.84 196.355C162.422 196.355 162.013 196.162 161.75 195.798ZM45.9338 195.104C45.3395 194.662 45.219 193.821 45.6608 193.229C46.0998 192.637 46.9405 192.514 47.5322 192.956C48.1266 193.398 48.2471 194.236 47.808 194.828C47.5429 195.182 47.1413 195.369 46.7317 195.369C46.4533 195.369 46.1721 195.284 45.9338 195.104ZM165.207 193.269C164.749 192.688 164.851 191.847 165.432 191.389C166.012 190.931 166.853 191.032 167.311 191.614C167.769 192.195 167.667 193.036 167.086 193.494C166.84 193.687 166.548 193.781 166.259 193.781C165.863 193.781 165.469 193.607 165.207 193.269ZM42.5095 192.433C41.9366 191.967 41.8482 191.123 42.3168 190.55C42.7826 189.977 43.626 189.891 44.1989 190.357C44.7719 190.823 44.8576 191.667 44.3917 192.24C44.1266 192.567 43.7411 192.733 43.3529 192.733C43.0557 192.733 42.7558 192.637 42.5095 192.433ZM168.551 190.593C168.069 190.033 168.133 189.187 168.693 188.705C169.255 188.222 170.098 188.287 170.58 188.849C171.062 189.409 170.998 190.256 170.438 190.735C170.184 190.955 169.873 191.059 169.565 191.059C169.188 191.059 168.816 190.901 168.551 190.593ZM39.203 189.618C38.6488 189.128 38.6006 188.281 39.0906 187.727C39.5832 187.175 40.4292 187.124 40.9808 187.617C41.535 188.107 41.5832 188.954 41.0932 189.508C40.8282 189.805 40.4614 189.955 40.0919 189.955C39.776 189.955 39.4574 189.846 39.203 189.618ZM171.774 187.775C171.268 187.234 171.298 186.387 171.836 185.881C172.374 185.375 173.223 185.402 173.729 185.943C174.235 186.484 174.208 187.33 173.667 187.837C173.407 188.078 173.081 188.198 172.751 188.198C172.395 188.198 172.039 188.056 171.774 187.775ZM36.0197 186.663C35.4896 186.146 35.4762 185.3 35.9929 184.769C36.5069 184.236 37.3557 184.223 37.8858 184.74C38.4159 185.254 38.4293 186.103 37.9125 186.634C37.6502 186.904 37.3021 187.041 36.9541 187.041C36.6167 187.041 36.282 186.915 36.0197 186.663ZM174.874 184.818C174.347 184.301 174.336 183.454 174.856 182.924C175.372 182.396 176.218 182.385 176.749 182.905C177.276 183.422 177.284 184.269 176.767 184.799C176.505 185.067 176.16 185.201 175.812 185.201C175.474 185.201 175.137 185.075 174.874 184.818ZM32.9702 183.572C32.4642 183.034 32.4883 182.187 33.0237 181.678C33.5619 181.169 34.4079 181.193 34.9166 181.732C35.4253 182.268 35.4012 183.117 34.8631 183.626C34.606 183.869 34.274 183.99 33.9447 183.99C33.5886 183.99 33.2352 183.851 32.9702 183.572ZM177.846 181.732C177.295 181.236 177.249 180.39 177.742 179.841C178.237 179.289 179.083 179.243 179.635 179.736C180.184 180.232 180.229 181.078 179.737 181.627C179.471 181.922 179.107 182.072 178.738 182.072C178.422 182.072 178.101 181.959 177.846 181.732ZM30.0572 180.352C29.5753 179.795 29.6342 178.949 30.1938 178.464C30.7507 177.979 31.5967 178.04 32.0813 178.598C32.5659 179.157 32.5043 180.004 31.9448 180.486C31.6931 180.706 31.3798 180.816 31.0693 180.816C30.6944 180.816 30.3223 180.658 30.0572 180.352ZM180.682 178.517C180.109 178.046 180.026 177.202 180.497 176.631C180.965 176.061 181.809 175.978 182.379 176.447C182.952 176.918 183.035 177.762 182.564 178.332C182.299 178.654 181.916 178.823 181.53 178.823C181.23 178.823 180.928 178.721 180.682 178.517ZM27.2862 177.009C26.8257 176.431 26.9247 175.587 27.5031 175.129C28.0814 174.668 28.9247 174.764 29.3825 175.346C29.843 175.924 29.7467 176.765 29.1657 177.226C28.922 177.422 28.6275 177.518 28.3357 177.515C27.9421 177.515 27.5512 177.344 27.2862 177.009ZM183.372 175.182C182.783 174.738 182.663 173.899 183.107 173.307C183.552 172.715 184.39 172.597 184.981 173.042C185.573 173.487 185.691 174.325 185.249 174.917C184.984 175.265 184.582 175.45 184.176 175.45C183.897 175.45 183.613 175.364 183.372 175.182ZM185.921 171.735C185.311 171.317 185.155 170.481 185.573 169.873C185.991 169.262 186.823 169.107 187.434 169.525C188.044 169.943 188.2 170.776 187.782 171.386C187.522 171.764 187.102 171.968 186.676 171.968C186.416 171.968 186.151 171.893 185.921 171.735ZM188.315 168.177C187.688 167.786 187.495 166.958 187.886 166.332C188.277 165.705 189.102 165.512 189.728 165.903C190.358 166.297 190.548 167.122 190.157 167.749C189.902 168.156 189.466 168.381 189.019 168.381C188.778 168.381 188.534 168.314 188.312 168.177H188.315ZM190.553 164.518C189.91 164.157 189.683 163.34 190.047 162.694C190.408 162.051 191.225 161.823 191.87 162.188C192.513 162.549 192.74 163.366 192.376 164.012C192.13 164.449 191.677 164.692 191.212 164.692C190.987 164.692 190.762 164.636 190.553 164.518ZM192.631 160.765C191.972 160.43 191.71 159.624 192.044 158.965C192.379 158.306 193.185 158.044 193.843 158.378C194.505 158.713 194.767 159.52 194.432 160.179C194.194 160.645 193.726 160.913 193.238 160.913C193.032 160.913 192.826 160.864 192.631 160.765ZM194.542 156.927C193.87 156.619 193.573 155.826 193.878 155.153C194.183 154.478 194.979 154.181 195.651 154.486C196.323 154.792 196.622 155.587 196.317 156.26C196.095 156.755 195.608 157.047 195.099 157.044C194.914 157.044 194.724 157.007 194.545 156.927H194.542ZM196.285 153.005C195.6 152.726 195.268 151.947 195.544 151.261C195.819 150.575 196.598 150.243 197.284 150.519C197.972 150.795 198.304 151.574 198.028 152.263C197.817 152.783 197.316 153.101 196.786 153.101C196.62 153.101 196.448 153.069 196.285 153.005ZM197.854 149.008C197.158 148.762 196.791 147.998 197.037 147.299C197.284 146.603 198.047 146.236 198.746 146.482C199.442 146.729 199.809 147.492 199.562 148.191C199.369 148.74 198.853 149.086 198.301 149.086C198.151 149.086 198.001 149.059 197.854 149.008ZM199.246 144.947C198.539 144.733 198.141 143.983 198.355 143.276C198.569 142.569 199.319 142.169 200.025 142.384C200.732 142.598 201.131 143.348 200.917 144.055C200.743 144.634 200.21 145.006 199.637 145.006C199.509 145.006 199.377 144.987 199.246 144.947ZM200.462 140.827C199.744 140.643 199.313 139.914 199.495 139.196C199.68 138.481 200.408 138.05 201.126 138.232C201.841 138.416 202.274 139.145 202.09 139.863C201.934 140.466 201.391 140.87 200.794 140.87C200.684 140.87 200.572 140.857 200.462 140.827Z" fill="url(#paint0_linear_1233_2752)"/>
<path d="M1.47224 178.911C0.837711 178.531 0.631556 177.708 1.00906 177.073C1.38924 176.438 2.21119 176.232 2.84571 176.613C3.48024 176.99 3.68908 177.813 3.30889 178.447C3.05722 178.868 2.61279 179.101 2.15764 179.101C1.92471 179.101 1.68643 179.039 1.47224 178.911ZM3.68104 175.23C3.04919 174.847 2.84571 174.025 3.23125 173.39C3.61411 172.758 4.43605 172.557 5.06791 172.94C5.69976 173.323 5.90324 174.145 5.52038 174.778C5.26871 175.195 4.82695 175.423 4.37448 175.423C4.13619 175.423 3.89791 175.362 3.68104 175.23ZM5.90591 171.563C5.27406 171.177 5.07326 170.352 5.4588 169.723C5.84433 169.091 6.66895 168.892 7.30081 169.278C7.92998 169.661 8.1281 170.486 7.74524 171.118C7.49358 171.531 7.05181 171.759 6.60202 171.759C6.36374 171.759 6.12278 171.697 5.90591 171.563ZM146.399 167.837C146.279 167.106 146.771 166.417 147.502 166.297C148.231 166.176 148.921 166.669 149.042 167.4C149.162 168.129 148.667 168.817 147.939 168.938C147.866 168.951 147.791 168.957 147.719 168.957C147.077 168.957 146.509 168.491 146.399 167.837ZM8.13881 167.904C7.50964 167.516 7.31152 166.693 7.69973 166.061C8.08527 165.431 8.90989 165.233 9.53906 165.622C10.1709 166.007 10.3664 166.832 9.98082 167.465C9.72915 167.874 9.28739 168.102 8.8376 168.102C8.59932 168.102 8.35836 168.038 8.13881 167.904ZM145.628 163.677C145.478 162.951 145.944 162.244 146.67 162.094C147.393 161.944 148.102 162.41 148.252 163.133C148.399 163.859 147.933 164.566 147.211 164.716C147.119 164.735 147.028 164.746 146.937 164.746C146.316 164.746 145.759 164.309 145.628 163.677ZM10.3851 164.25C9.75593 163.862 9.56048 163.037 9.94869 162.407C10.3369 161.778 11.1615 161.582 11.7907 161.973C12.4199 162.362 12.6153 163.187 12.2271 163.816C11.9728 164.226 11.5364 164.451 11.0866 164.451C10.8456 164.451 10.6046 164.387 10.3851 164.25ZM12.6394 160.604C12.0102 160.213 11.8175 159.388 12.2084 158.759C12.5993 158.132 13.4239 157.939 14.0531 158.33C14.6796 158.721 14.8723 159.546 14.4841 160.173C14.2298 160.583 13.7934 160.808 13.3436 160.805C13.1026 160.805 12.859 160.741 12.6394 160.604ZM144.686 159.56C144.504 158.842 144.937 158.113 145.655 157.931C146.372 157.752 147.101 158.185 147.28 158.901C147.462 159.619 147.028 160.347 146.311 160.529C146.201 160.556 146.091 160.57 145.982 160.57C145.385 160.57 144.838 160.165 144.686 159.56ZM14.9044 156.964C14.278 156.573 14.0879 155.745 14.4814 155.118C14.875 154.492 15.7023 154.301 16.3288 154.692C16.9553 155.086 17.1427 155.911 16.7518 156.541C16.4975 156.945 16.0611 157.168 15.6166 157.168C15.373 157.168 15.1267 157.103 14.9071 156.964H14.9044ZM143.556 155.493C143.339 154.786 143.738 154.036 144.445 153.822C145.152 153.608 145.899 154.007 146.115 154.714C146.332 155.421 145.933 156.168 145.224 156.385C145.095 156.426 144.964 156.444 144.836 156.444C144.26 156.444 143.73 156.072 143.556 155.493ZM17.1802 153.332C16.5537 152.938 16.3663 152.11 16.7625 151.483C17.1561 150.859 17.9834 150.672 18.6072 151.065C19.2337 151.459 19.4211 152.287 19.0275 152.911C18.7705 153.316 18.3368 153.538 17.8924 153.538C17.6487 153.538 17.4024 153.471 17.1802 153.332ZM142.228 151.491C141.976 150.795 142.338 150.026 143.034 149.777C143.73 149.528 144.498 149.889 144.747 150.586C144.996 151.28 144.635 152.048 143.939 152.298C143.789 152.351 143.636 152.378 143.486 152.378C142.937 152.378 142.423 152.038 142.228 151.491ZM140.707 147.554C140.423 146.87 140.75 146.086 141.433 145.804C142.116 145.52 142.9 145.847 143.181 146.53C143.462 147.213 143.138 147.998 142.456 148.279C142.287 148.349 142.116 148.381 141.944 148.381C141.419 148.381 140.919 148.071 140.707 147.554ZM139.015 143.669C138.71 142.997 139.004 142.204 139.679 141.896C140.351 141.588 141.144 141.885 141.452 142.56C141.759 143.233 141.462 144.026 140.79 144.334C140.608 144.417 140.421 144.454 140.233 144.454C139.725 144.454 139.24 144.162 139.015 143.669ZM137.208 139.812C136.889 139.145 137.173 138.347 137.84 138.028C138.506 137.709 139.307 137.993 139.623 138.66C139.942 139.327 139.66 140.125 138.991 140.444C138.806 140.533 138.611 140.575 138.415 140.575C137.917 140.575 137.438 140.294 137.208 139.812ZM135.369 135.928C135.058 135.258 135.35 134.46 136.019 134.149C136.691 133.838 137.486 134.13 137.797 134.8C138.108 135.472 137.816 136.268 137.146 136.579C136.964 136.664 136.772 136.705 136.584 136.705C136.078 136.705 135.594 136.415 135.369 135.928ZM133.679 131.851C133.436 131.152 133.805 130.388 134.504 130.144C135.2 129.901 135.966 130.268 136.209 130.967C136.453 131.666 136.083 132.429 135.385 132.673C135.24 132.724 135.09 132.748 134.943 132.748C134.391 132.748 133.872 132.403 133.679 131.851ZM132.536 127.484C132.416 126.753 132.911 126.065 133.642 125.947C134.37 125.829 135.058 126.322 135.179 127.053C135.296 127.784 134.801 128.473 134.07 128.591C133.998 128.601 133.926 128.607 133.853 128.607C133.208 128.607 132.64 128.141 132.536 127.484ZM133.553 124.313C132.836 124.136 132.397 123.41 132.571 122.692C132.748 121.974 133.473 121.535 134.191 121.709C134.908 121.886 135.347 122.609 135.173 123.33C135.023 123.94 134.477 124.35 133.875 124.35C133.768 124.35 133.66 124.337 133.553 124.313ZM169.432 122.515C169.443 121.776 170.051 121.187 170.79 121.197C171.529 121.208 172.12 121.816 172.11 122.556C172.099 123.295 171.491 123.887 170.752 123.876C170.013 123.865 169.422 123.255 169.432 122.515ZM173.716 122.556C173.7 121.816 174.289 121.203 175.028 121.189C175.767 121.173 176.377 121.76 176.393 122.499C176.407 123.239 175.821 123.852 175.082 123.865H175.052C174.327 123.865 173.73 123.284 173.716 122.556ZM166.434 123.753C165.695 123.721 165.122 123.097 165.151 122.36C165.181 121.621 165.805 121.045 166.544 121.077C167.283 121.106 167.855 121.73 167.826 122.47C167.797 123.19 167.205 123.753 166.49 123.753H166.434ZM177.997 122.435C177.949 121.696 178.506 121.058 179.245 121.01C179.981 120.959 180.618 121.519 180.669 122.256C180.717 122.995 180.161 123.632 179.422 123.683C179.392 123.683 179.363 123.686 179.331 123.686C178.632 123.686 178.045 123.142 177.997 122.435ZM162.129 123.528C161.39 123.482 160.83 122.848 160.876 122.108C160.921 121.372 161.556 120.809 162.295 120.855C163.031 120.9 163.593 121.535 163.548 122.274C163.502 122.984 162.913 123.531 162.212 123.531C162.185 123.531 162.155 123.531 162.129 123.528ZM182.268 122.106C182.174 121.372 182.691 120.699 183.424 120.605C184.158 120.512 184.83 121.029 184.923 121.763C185.02 122.497 184.503 123.166 183.77 123.263C183.711 123.271 183.652 123.273 183.596 123.273C182.932 123.273 182.356 122.781 182.268 122.106ZM157.834 123.228C157.098 123.172 156.546 122.529 156.603 121.789C156.659 121.053 157.304 120.501 158.04 120.557C158.777 120.613 159.331 121.259 159.272 121.996C159.218 122.7 158.632 123.233 157.939 123.233C157.904 123.233 157.869 123.231 157.834 123.228ZM153.55 122.872C152.814 122.807 152.271 122.156 152.335 121.42C152.402 120.683 153.05 120.137 153.786 120.204C154.522 120.268 155.068 120.919 155.002 121.655C154.94 122.352 154.356 122.877 153.671 122.877C153.631 122.877 153.591 122.874 153.55 122.872ZM186.508 121.497C186.353 120.774 186.811 120.062 187.534 119.906C188.257 119.748 188.969 120.209 189.127 120.932C189.282 121.653 188.824 122.365 188.102 122.523C188.005 122.545 187.911 122.553 187.815 122.553C187.199 122.553 186.645 122.124 186.508 121.497ZM149.272 122.472C148.538 122.4 147.998 121.744 148.07 121.007C148.142 120.273 148.798 119.735 149.534 119.807C150.271 119.877 150.812 120.533 150.739 121.27C150.67 121.961 150.089 122.478 149.409 122.478C149.363 122.478 149.32 122.475 149.275 122.472H149.272ZM145.002 122.041C144.268 121.964 143.733 121.305 143.81 120.571C143.885 119.834 144.544 119.301 145.28 119.376C146.016 119.454 146.549 120.11 146.472 120.846C146.402 121.535 145.821 122.047 145.144 122.047C145.095 122.047 145.05 122.047 145.002 122.041ZM140.737 121.589C140.003 121.508 139.47 120.849 139.551 120.113C139.631 119.379 140.29 118.845 141.026 118.926C141.759 119.004 142.292 119.665 142.212 120.399C142.137 121.088 141.559 121.597 140.884 121.597C140.836 121.597 140.788 121.594 140.737 121.589ZM190.68 120.512C190.439 119.813 190.814 119.052 191.512 118.813C192.214 118.575 192.974 118.947 193.213 119.646C193.451 120.348 193.079 121.109 192.377 121.347C192.235 121.396 192.088 121.42 191.946 121.42C191.389 121.42 190.87 121.069 190.68 120.512ZM135.318 120.34C135.154 119.62 135.607 118.902 136.33 118.741C137.05 118.578 137.768 119.033 137.928 119.754C138.091 120.474 137.636 121.192 136.916 121.353C136.817 121.377 136.718 121.388 136.622 121.388C136.009 121.388 135.457 120.964 135.318 120.34ZM194.696 119.025C194.353 118.371 194.602 117.56 195.258 117.217C195.911 116.871 196.72 117.123 197.065 117.777C197.411 118.43 197.159 119.242 196.506 119.585C196.305 119.689 196.093 119.74 195.882 119.74C195.403 119.74 194.937 119.48 194.696 119.025ZM198.407 116.885C197.957 116.298 198.067 115.457 198.653 115.007C199.239 114.557 200.08 114.667 200.53 115.256C200.979 115.843 200.87 116.684 200.283 117.134C200.04 117.319 199.753 117.41 199.469 117.41C199.068 117.41 198.669 117.228 198.407 116.885ZM201.74 114.195C201.22 113.67 201.223 112.824 201.748 112.301C202.273 111.782 203.119 111.784 203.641 112.309C204.163 112.834 204.158 113.681 203.635 114.203C203.373 114.463 203.033 114.592 202.69 114.592C202.348 114.592 202.002 114.46 201.74 114.195ZM204.709 111.104C204.125 110.649 204.021 109.807 204.479 109.223C204.934 108.642 205.775 108.538 206.358 108.993C206.939 109.451 207.044 110.292 206.586 110.874H206.589C206.323 111.211 205.93 111.388 205.531 111.388C205.244 111.388 204.953 111.297 204.709 111.104ZM207.269 107.667C206.637 107.287 206.431 106.462 206.813 105.829C207.196 105.195 208.018 104.991 208.65 105.374C209.285 105.754 209.488 106.58 209.108 107.212C208.856 107.63 208.412 107.86 207.959 107.86C207.724 107.86 207.485 107.798 207.269 107.667ZM209.4 103.946C208.725 103.644 208.425 102.848 208.73 102.176C209.036 101.501 209.828 101.201 210.503 101.506C211.175 101.811 211.475 102.604 211.169 103.279C210.947 103.775 210.46 104.067 209.949 104.067C209.767 104.067 209.579 104.029 209.4 103.946ZM211.078 100.003C210.374 99.7809 209.981 99.0281 210.203 98.3236C210.425 97.6164 211.175 97.2254 211.882 97.4477C212.586 97.6674 212.979 98.4201 212.757 99.1246C212.578 99.6978 212.05 100.065 211.48 100.065C211.346 100.065 211.212 100.043 211.078 100.003ZM212.27 95.8806C211.539 95.7601 211.046 95.069 211.167 94.3403C211.29 93.6117 211.978 93.1162 212.706 93.2394C213.437 93.3599 213.93 94.0484 213.809 94.7797C213.7 95.4333 213.132 95.8994 212.489 95.8994C212.417 95.8994 212.342 95.894 212.27 95.8806ZM211.394 92.4143C210.679 92.2349 210.24 91.5089 210.417 90.791C210.596 90.0731 211.322 89.6365 212.04 89.8133C212.757 89.9928 213.196 90.7187 213.017 91.4366C212.867 92.0447 212.318 92.4545 211.718 92.4545C211.611 92.4545 211.504 92.4411 211.394 92.4143ZM207.215 91.3669C206.5 91.1821 206.069 90.4535 206.251 89.7356C206.436 89.0204 207.164 88.5891 207.882 88.7712C208.597 88.9561 209.028 89.6847 208.846 90.4026C208.69 91.0053 208.147 91.4098 207.55 91.4098C207.44 91.4098 207.327 91.3937 207.215 91.3669ZM203.044 90.2606C202.332 90.0624 201.911 89.3257 202.109 88.6132C202.305 87.898 203.041 87.4801 203.753 87.6756C204.465 87.8712 204.886 88.6105 204.69 89.3231C204.527 89.9177 203.986 90.3088 203.4 90.3088C203.282 90.3088 203.164 90.2928 203.044 90.2606ZM198.891 89.0739C198.182 88.8623 197.78 88.1176 197.989 87.4078C198.2 86.6979 198.945 86.2934 199.654 86.505C200.364 86.7167 200.765 87.4613 200.556 88.1712C200.382 88.7525 199.85 89.1275 199.271 89.1275C199.146 89.1275 199.017 89.1114 198.891 89.0739ZM194.763 87.7935C194.059 87.5658 193.673 86.8104 193.901 86.1086C194.128 85.4041 194.881 85.0183 195.585 85.246C196.289 85.471 196.674 86.2264 196.447 86.9309C196.265 87.4988 195.74 87.8578 195.175 87.8578C195.038 87.8578 194.899 87.839 194.763 87.7935ZM190.661 86.4059C189.965 86.1595 189.601 85.3933 189.847 84.6969C190.093 84.0004 190.859 83.6361 191.555 83.8825C192.254 84.129 192.618 84.8951 192.372 85.5916C192.176 86.1407 191.66 86.4836 191.108 86.4836C190.961 86.4836 190.811 86.4595 190.661 86.4059ZM186.6 84.8924C185.911 84.6219 185.574 83.845 185.844 83.1566C186.115 82.4655 186.891 82.128 187.579 82.3985C188.267 82.6691 188.605 83.4459 188.337 84.1343C188.128 84.6621 187.625 84.9862 187.089 84.9835C186.926 84.9835 186.76 84.954 186.6 84.8924ZM182.586 83.2209C181.911 82.9209 181.606 82.1306 181.903 81.4529C182.203 80.7779 182.993 80.4698 183.671 80.7698C184.348 81.0699 184.653 81.8601 184.353 82.5378C184.131 83.0361 183.641 83.3334 183.127 83.3334C182.948 83.3334 182.763 83.2986 182.586 83.2209ZM178.645 81.3511C177.987 81.0136 177.724 80.2073 178.061 79.5483C178.396 78.8894 179.202 78.6269 179.861 78.9644C180.519 79.2992 180.782 80.1055 180.447 80.7645C180.209 81.2279 179.74 81.4958 179.253 81.4958C179.047 81.4958 178.841 81.4502 178.645 81.3511ZM174.809 79.2188C174.177 78.8331 173.976 78.0107 174.361 77.3786C174.744 76.7464 175.569 76.5455 176.201 76.9312C176.833 77.3143 177.033 78.1393 176.648 78.7715C176.396 79.184 175.954 79.4144 175.502 79.4144C175.266 79.4144 175.025 79.3501 174.809 79.2188ZM67.8435 77.3678C67.2357 76.9473 67.0804 76.1142 67.4981 75.5034C67.9184 74.8954 68.7511 74.74 69.3615 75.1579C69.9693 75.5784 70.1246 76.4115 69.7042 77.0223C69.4445 77.4 69.0268 77.6036 68.6012 77.6036C68.3388 77.6036 68.0764 77.5259 67.8435 77.3678ZM171.146 76.7223C170.56 76.2696 170.452 75.4284 170.902 74.8418C171.355 74.2578 172.195 74.148 172.782 74.6007C173.365 75.0534 173.475 75.8919 173.023 76.4785C172.758 76.8214 172.361 77.0008 171.962 77.0008C171.676 77.0008 171.39 76.9098 171.146 76.7223ZM167.805 73.6792C167.309 73.1301 167.352 72.2836 167.898 71.788C168.447 71.2898 169.293 71.3326 169.788 71.8818C170.286 72.4282 170.244 73.2747 169.695 73.773C169.44 74.006 169.119 74.1185 168.798 74.1185C168.434 74.1185 168.07 73.9712 167.805 73.6792ZM70.2798 73.8399C69.6748 73.4167 69.5275 72.5809 69.9505 71.9755C70.3762 71.3675 71.2089 71.2228 71.814 71.646C72.4217 72.0693 72.569 72.9051 72.1433 73.5105C71.8836 73.8828 71.4686 74.081 71.0456 74.081C70.7805 74.081 70.5128 74.0033 70.2798 73.8399ZM165.189 69.8111C164.881 69.1387 165.178 68.3432 165.85 68.0378C166.522 67.7297 167.317 68.0271 167.623 68.6994C167.93 69.3718 167.633 70.1674 166.961 70.4728C166.782 70.5558 166.592 70.596 166.407 70.596C165.898 70.596 165.414 70.304 165.189 69.8111ZM72.7376 70.3308C72.1326 69.9075 71.9853 69.0718 72.4083 68.4664C72.8314 67.8583 73.6667 67.711 74.2718 68.1342C74.8795 68.5575 75.0268 69.3932 74.6038 70.0013C74.344 70.3736 73.9291 70.5719 73.506 70.5719C73.241 70.5719 72.9759 70.4942 72.7403 70.3308H72.7376ZM75.1874 66.8163C74.577 66.3984 74.419 65.5653 74.8367 64.9545C75.2543 64.3438 76.087 64.1857 76.6974 64.6036C77.3079 65.0215 77.4658 65.8546 77.0482 66.4654C76.7885 66.8457 76.3681 67.0493 75.9424 67.0493C75.6827 67.0493 75.4177 66.9743 75.1874 66.8163ZM163.454 65.943C163.125 65.2814 163.395 64.4777 164.059 64.1482C164.72 63.8214 165.523 64.092 165.853 64.7536C166.179 65.418 165.909 66.2216 165.245 66.5484C165.055 66.6422 164.854 66.6877 164.653 66.6877C164.161 66.6877 163.687 66.4145 163.454 65.943ZM77.5917 63.2723C76.9732 62.8651 76.7992 62.0374 77.2061 61.4159C77.6104 60.7971 78.4404 60.6257 79.0588 61.0302C79.6773 61.4347 79.8513 62.2651 79.4444 62.8839C79.19 63.2777 78.7617 63.4893 78.3226 63.4893C78.0736 63.4893 77.8192 63.4196 77.5917 63.2723ZM161.446 62.2946C161.06 61.6624 161.261 60.84 161.89 60.4543C162.522 60.0685 163.347 60.2667 163.73 60.8989C164.115 61.5311 163.917 62.3535 163.285 62.7392C163.068 62.8732 162.827 62.9375 162.589 62.9375C162.139 62.9375 161.698 62.7071 161.446 62.2946ZM79.921 59.6747C79.2918 59.2863 79.0963 58.4613 79.4845 57.8318C79.8728 57.2023 80.6947 57.0067 81.3266 57.3951C81.9557 57.7809 82.1512 58.6059 81.7629 59.2381C81.5086 59.648 81.0695 59.873 80.6224 59.873C80.3814 59.873 80.1405 59.8087 79.921 59.6747ZM159.117 58.8604C158.672 58.2684 158.79 57.43 159.379 56.9853C159.971 56.5406 160.809 56.6585 161.253 57.2478C161.7 57.8398 161.582 58.6783 160.991 59.1229C160.75 59.3051 160.466 59.3935 160.185 59.3935C159.781 59.3935 159.379 59.2086 159.117 58.8604ZM82.1699 56.0263C81.522 55.6754 81.2784 54.861 81.6291 54.2101C81.9798 53.5592 82.7911 53.3181 83.4417 53.669C84.0922 54.0199 84.3359 54.8316 83.9851 55.4825C83.7442 55.9325 83.281 56.187 82.8044 56.187C82.5903 56.187 82.3734 56.1361 82.1699 56.0263ZM156.455 55.6861C155.949 55.145 155.979 54.2985 156.52 53.7949C157.06 53.2886 157.906 53.3181 158.412 53.8592C158.916 54.4003 158.886 55.2495 158.346 55.7531C158.089 55.9942 157.759 56.112 157.433 56.112C157.074 56.112 156.718 55.97 156.453 55.6861H156.455ZM153.478 52.8172C152.919 52.3323 152.857 51.4885 153.342 50.9287C153.824 50.3688 154.67 50.3072 155.229 50.7894C155.789 51.2742 155.85 52.1207 155.366 52.6806C155.101 52.9859 154.728 53.144 154.354 53.144C154.043 53.144 153.73 53.0368 153.478 52.8172ZM84.103 52.193C83.4202 51.9064 83.1016 51.1188 83.3881 50.4384C83.6746 49.758 84.459 49.4366 85.1418 49.7232C85.8245 50.0125 86.1431 50.7974 85.8566 51.4778C85.6397 51.9894 85.1444 52.2975 84.6224 52.2975C84.4483 52.2975 84.2716 52.2653 84.103 52.193ZM150.209 50.2777H150.206C149.601 49.8545 149.451 49.0214 149.874 48.4133C150.295 47.8052 151.13 47.6579 151.738 48.0785C152.343 48.5017 152.493 49.3348 152.073 49.9429C151.81 50.3179 151.395 50.5188 150.972 50.5188C150.707 50.5188 150.442 50.4411 150.209 50.2777ZM85.7335 48.2231C85.04 47.9606 84.6946 47.1865 84.957 46.4953C85.2194 45.8042 85.9905 45.456 86.6839 45.7185C87.3747 45.981 87.7227 46.7552 87.4577 47.4463C87.2569 47.982 86.7482 48.3088 86.2073 48.3088C86.0494 48.3088 85.8887 48.2821 85.7335 48.2231ZM146.691 48.0812C146.046 47.7222 145.813 46.9052 146.174 46.2596C146.536 45.614 147.352 45.381 147.995 45.7426C148.64 46.1042 148.873 46.9186 148.512 47.5668C148.265 48.0035 147.81 48.2526 147.342 48.2526C147.122 48.2526 146.897 48.1963 146.691 48.0812ZM142.967 46.2141C142.292 45.9114 141.992 45.1185 142.295 44.4434C142.597 43.7684 143.39 43.4684 144.065 43.7711C144.739 44.0737 145.039 44.8667 144.737 45.5417C144.514 46.0373 144.024 46.3319 143.516 46.3319C143.331 46.3319 143.146 46.2944 142.967 46.2141ZM139.087 44.6497C138.391 44.3979 138.033 43.6291 138.282 42.9353C138.533 42.2388 139.302 41.8772 139.998 42.129C140.691 42.3808 141.053 43.1469 140.801 43.8434C140.606 44.3898 140.089 44.73 139.543 44.73C139.39 44.73 139.237 44.7033 139.087 44.6497ZM87.2381 44.205C86.542 43.9559 86.1806 43.1871 86.4296 42.4906C86.6786 41.7941 87.4443 41.4325 88.1404 41.6843C88.8365 41.9334 89.1979 42.6996 88.9489 43.396C88.7535 43.9425 88.2368 44.2827 87.6879 44.2827C87.538 44.2827 87.3854 44.2586 87.2381 44.205ZM135.093 43.3505C134.381 43.1442 133.974 42.4022 134.18 41.6924C134.389 40.9825 135.13 40.5726 135.84 40.7789C136.549 40.9878 136.959 41.7299 136.75 42.4397C136.581 43.0264 136.046 43.4067 135.468 43.4067C135.342 43.4067 135.216 43.388 135.09 43.3505H135.093ZM131.018 42.2817C130.298 42.1102 129.853 41.3897 130.022 40.6691C130.193 39.9512 130.914 39.5038 131.634 39.6753C132.354 39.844 132.798 40.5646 132.63 41.2852C132.482 41.9013 131.934 42.3165 131.329 42.3165C131.224 42.3165 131.122 42.3058 131.018 42.2817ZM126.745 41.2504C126.043 41.0173 125.661 40.2619 125.894 39.5574C126.124 38.8556 126.881 38.4752 127.583 38.7056C128.284 38.9386 128.667 39.694 128.434 40.3985C128.25 40.9611 127.725 41.3173 127.163 41.3173C127.026 41.3173 126.884 41.2959 126.745 41.2504ZM88.6758 40.1628C87.9771 39.919 87.6076 39.1556 87.8485 38.4564C88.0922 37.76 88.8552 37.3876 89.554 37.6314C90.2501 37.8751 90.6223 38.6359 90.3786 39.3351C90.1859 39.8896 89.6691 40.2378 89.1149 40.2378C88.9677 40.2378 88.8204 40.2137 88.6758 40.1628ZM122.603 39.2842C121.974 38.8931 121.781 38.068 122.169 37.4385C122.56 36.8117 123.385 36.6161 124.011 37.0072C124.641 37.3956 124.836 38.2207 124.445 38.8502C124.191 39.2601 123.754 39.4851 123.307 39.4851C123.066 39.4851 122.823 39.4208 122.603 39.2842ZM118.999 36.5813C118.445 36.0938 118.392 35.2473 118.879 34.6928C119.369 34.1356 120.215 34.082 120.769 34.5723C121.323 35.0625 121.377 35.9089 120.89 36.4634C120.625 36.7635 120.255 36.9162 119.883 36.9162C119.57 36.9162 119.254 36.8063 118.999 36.5813ZM90.0761 36.1072C89.3773 35.8688 89.0025 35.108 89.2408 34.4062C89.479 33.707 90.2394 33.332 90.9382 33.5704C91.6397 33.8088 92.0118 34.5696 91.7735 35.2714C91.5861 35.8286 91.064 36.1795 90.5071 36.1795C90.3652 36.1795 90.218 36.1554 90.0761 36.1072ZM115.859 33.4311C115.369 32.8793 115.42 32.0328 115.971 31.5426C116.526 31.0524 117.372 31.1006 117.862 31.6551C118.351 32.2096 118.301 33.0561 117.749 33.5463C117.492 33.7713 117.176 33.8838 116.86 33.8838C116.491 33.8838 116.124 33.7311 115.859 33.4311ZM91.4576 32.0435C90.7561 31.8078 90.3786 31.047 90.6169 30.3452C90.8552 29.646 91.6129 29.2683 92.3143 29.5068C93.0131 29.7425 93.3906 30.5032 93.1524 31.2051C92.9649 31.7623 92.4429 32.1158 91.886 32.1158C91.7441 32.1158 91.5995 32.0917 91.4576 32.0435ZM113.099 29.9862C112.662 29.3889 112.793 28.5531 113.39 28.1165C113.99 27.6799 114.825 27.8111 115.262 28.4111C115.698 29.0085 115.567 29.847 114.967 30.2809C114.729 30.455 114.453 30.5381 114.18 30.5381C113.768 30.5381 113.358 30.3479 113.099 29.9862ZM92.8284 27.9799C92.1296 27.7415 91.7548 26.9807 91.9904 26.2815C92.2287 25.5824 92.9864 25.2047 93.6878 25.4431C94.3893 25.6788 94.7641 26.4396 94.5258 27.1414C94.3384 27.6986 93.8163 28.0495 93.2594 28.0495C93.1175 28.0495 92.9703 28.0281 92.8284 27.9799ZM110.657 26.3324C110.269 25.7029 110.467 24.8779 111.096 24.4921C111.728 24.1037 112.552 24.302 112.938 24.9341C113.323 25.5636 113.128 26.3887 112.496 26.7744C112.279 26.9084 112.036 26.9727 111.797 26.9727C111.348 26.9727 110.908 26.745 110.654 26.3324H110.657ZM94.2045 23.9162C93.5058 23.6778 93.1336 22.9144 93.3719 22.2152C93.6102 21.5161 94.3705 21.141 95.072 21.3821C95.7708 21.6205 96.1456 22.3813 95.9047 23.0831C95.7146 23.6376 95.1952 23.9885 94.6383 23.9885C94.4937 23.9885 94.3491 23.9644 94.2045 23.9162ZM108.502 22.5206C108.162 21.8643 108.416 21.0553 109.072 20.7124C109.728 20.3722 110.536 20.6267 110.876 21.283C111.219 21.9393 110.965 22.7456 110.309 23.0885C110.111 23.1903 109.899 23.2412 109.69 23.2412C109.208 23.2412 108.74 22.9787 108.502 22.5206ZM95.5968 19.8579C94.898 19.6142 94.5285 18.8507 94.7695 18.1516C95.0131 17.4524 95.7761 17.0827 96.4749 17.3265C97.171 17.5703 97.5432 18.3337 97.2995 19.0302C97.1068 19.5847 96.5874 19.9303 96.0332 19.9303C95.8886 19.9303 95.7413 19.9061 95.5968 19.8579ZM106.611 18.5694C106.314 17.8944 106.619 17.1042 107.297 16.8068C107.974 16.5068 108.764 16.8149 109.061 17.4926C109.358 18.1703 109.053 18.9605 108.376 19.2579C108.199 19.3356 108.017 19.3704 107.838 19.3704C107.324 19.3704 106.831 19.0731 106.611 18.5694ZM97.0077 15.805C96.3116 15.5559 95.9502 14.7897 96.1965 14.0933C96.4455 13.3968 97.2112 13.0352 97.9073 13.2816C98.6034 13.5307 98.9675 14.2969 98.7185 14.9933C98.5231 15.5425 98.009 15.8853 97.4575 15.8853C97.3076 15.8853 97.1576 15.8586 97.0077 15.805ZM104.981 14.5112C104.729 13.8147 105.088 13.0459 105.784 12.7941C106.477 12.5423 107.246 12.9012 107.498 13.595C107.749 14.2915 107.393 15.0603 106.697 15.3121C106.547 15.3657 106.392 15.3925 106.239 15.3925C105.693 15.3925 105.179 15.0549 104.981 14.5112ZM98.4562 11.7681C97.7627 11.511 97.4093 10.7395 97.6664 10.0457C97.9234 9.3519 98.6944 8.9983 99.3879 9.25546C100.081 9.51262 100.435 10.2841 100.178 10.9779C99.9769 11.5163 99.4655 11.8512 98.922 11.8512C98.7667 11.8512 98.6088 11.8244 98.4562 11.7681ZM103.629 10.343C103.425 9.63317 103.835 8.89115 104.547 8.68757C105.257 8.48398 105.998 8.89651 106.202 9.60638C106.405 10.3189 105.993 11.0583 105.283 11.2618C105.16 11.2993 105.037 11.3154 104.914 11.3154C104.333 11.3154 103.797 10.9324 103.629 10.343ZM99.9582 7.74733C99.2701 7.47946 98.93 6.70262 99.2005 6.01419C99.4682 5.32307 100.245 4.98555 100.935 5.25342C101.623 5.52398 101.961 6.30081 101.693 6.98925C101.487 7.51696 100.981 7.84109 100.445 7.84109C100.285 7.84109 100.119 7.81162 99.9582 7.74733ZM102.587 6.07044C102.443 5.34718 102.911 4.63999 103.637 4.49534C104.362 4.35069 105.067 4.82214 105.211 5.54541C105.356 6.27134 104.887 6.97853 104.162 7.12318C104.073 7.13926 103.985 7.14997 103.899 7.14997C103.273 7.14997 102.713 6.70798 102.587 6.07044ZM101.538 3.75868C100.858 3.46938 100.539 2.68451 100.828 2.00411C101.034 1.51658 101.492 1.21656 101.985 1.18977C102.135 0.678131 102.582 0.287035 103.144 0.236139C103.88 0.166491 104.534 0.707597 104.601 1.44425C104.67 2.18091 104.129 2.83452 103.393 2.90149C103.377 2.90417 103.361 2.90417 103.345 2.90417C103.329 2.95238 103.313 3.0006 103.291 3.04882C103.077 3.55778 102.582 3.86583 102.06 3.86583C101.886 3.86583 101.709 3.83101 101.538 3.75868Z" fill="url(#paint1_linear_1233_2752)"/>
<path d="M122.951 196.813C122.242 196.604 121.837 195.859 122.049 195.149C122.258 194.44 123.005 194.035 123.711 194.247C124.421 194.456 124.825 195.2 124.616 195.91C124.442 196.491 123.909 196.869 123.334 196.869C123.205 196.869 123.08 196.85 122.951 196.813ZM126.303 195.76C125.968 195.101 126.233 194.295 126.892 193.96C127.553 193.625 128.357 193.89 128.691 194.549C129.026 195.211 128.761 196.015 128.102 196.349C127.909 196.449 127.703 196.494 127.5 196.494C127.01 196.494 126.539 196.226 126.303 195.76ZM118.956 194.008C118.432 193.486 118.432 192.637 118.956 192.114C119.478 191.592 120.327 191.592 120.849 192.114C121.371 192.637 121.371 193.486 120.849 194.008C120.587 194.271 120.244 194.402 119.902 194.402C119.559 194.402 119.216 194.271 118.956 194.008ZM129.813 193.28C129.117 193.03 128.755 192.264 129.004 191.568C129.253 190.871 130.019 190.507 130.715 190.756C131.411 191.005 131.776 191.774 131.527 192.471C131.328 193.017 130.814 193.357 130.265 193.357C130.116 193.357 129.963 193.333 129.813 193.28ZM115.926 190.979C115.404 190.456 115.404 189.607 115.926 189.085C116.45 188.56 117.296 188.56 117.819 189.085C118.343 189.607 118.343 190.456 117.819 190.979C117.559 191.238 117.216 191.37 116.873 191.37C116.531 191.37 116.188 191.238 115.926 190.979ZM128.895 188.375C128.598 187.697 128.905 186.907 129.583 186.61C130.26 186.312 131.05 186.62 131.347 187.298C131.644 187.976 131.336 188.766 130.659 189.063C130.482 189.138 130.3 189.176 130.121 189.176C129.607 189.176 129.114 188.876 128.895 188.375ZM112.898 187.946C112.376 187.424 112.376 186.577 112.898 186.052C113.42 185.53 114.268 185.53 114.79 186.052C115.313 186.577 115.313 187.424 114.79 187.946C114.528 188.209 114.185 188.34 113.843 188.34C113.5 188.34 113.157 188.209 112.898 187.946ZM126.45 185.514C125.928 184.992 125.928 184.142 126.45 183.62C126.975 183.098 127.821 183.098 128.343 183.62C128.868 184.142 128.868 184.992 128.343 185.514C128.083 185.776 127.741 185.905 127.398 185.905C127.055 185.905 126.713 185.776 126.45 185.514ZM109.867 184.917C109.345 184.394 109.345 183.545 109.867 183.023C110.392 182.5 111.238 182.5 111.76 183.023C112.284 183.545 112.284 184.394 111.76 184.917C111.5 185.179 111.157 185.308 110.815 185.308C110.472 185.308 110.129 185.179 109.867 184.917ZM123.422 182.484C122.9 181.959 122.9 181.113 123.422 180.588C123.944 180.065 124.793 180.065 125.315 180.588C125.837 181.113 125.837 181.959 125.315 182.484C125.053 182.744 124.71 182.875 124.367 182.875C124.025 182.875 123.682 182.744 123.422 182.484ZM106.839 181.887C106.317 181.362 106.317 180.515 106.839 179.993C107.361 179.468 108.21 179.468 108.732 179.993C109.254 180.515 109.254 181.362 108.732 181.887C108.472 182.147 108.129 182.278 107.787 182.278C107.444 182.278 107.101 182.147 106.839 181.887ZM120.394 179.452C119.869 178.93 119.869 178.08 120.394 177.558C120.916 177.036 121.762 177.036 122.284 177.558C122.809 178.08 122.809 178.93 122.284 179.452C122.025 179.714 121.682 179.846 121.339 179.846C120.997 179.846 120.654 179.714 120.394 179.452ZM103.811 178.855C103.286 178.332 103.286 177.483 103.811 176.961C104.333 176.438 105.182 176.438 105.704 176.961C106.226 177.483 106.226 178.332 105.704 178.855C105.441 179.117 105.099 179.248 104.756 179.248C104.413 179.248 104.07 179.117 103.811 178.855ZM117.363 176.422C116.841 175.9 116.841 175.051 117.363 174.528C117.885 174.006 118.734 174.006 119.256 174.528C119.778 175.051 119.778 175.9 119.256 176.422C118.997 176.685 118.654 176.813 118.311 176.813C117.968 176.813 117.626 176.685 117.363 176.422ZM100.78 175.825C100.258 175.303 100.258 174.453 100.78 173.931C101.305 173.409 102.151 173.409 102.673 173.931C103.198 174.453 103.198 175.303 102.673 175.825C102.413 176.087 102.07 176.216 101.728 176.216C101.385 176.216 101.042 176.087 100.78 175.825ZM114.335 173.393C113.813 172.868 113.813 172.021 114.335 171.499C114.857 170.974 115.706 170.974 116.228 171.499C116.75 172.021 116.75 172.868 116.228 173.393C115.966 173.652 115.623 173.784 115.28 173.784C114.938 173.784 114.595 173.652 114.335 173.393ZM97.7519 172.795C97.2298 172.27 97.2298 171.424 97.7519 170.901C98.274 170.376 99.1227 170.376 99.6448 170.901C100.167 171.424 100.167 172.27 99.6448 172.795C99.3824 173.055 99.0397 173.186 98.697 173.186C98.357 173.186 98.0143 173.055 97.7519 172.795ZM111.305 170.36C110.782 169.838 110.782 168.989 111.305 168.466C111.829 167.944 112.675 167.944 113.197 168.466C113.722 168.989 113.722 169.838 113.197 170.36C112.938 170.623 112.595 170.754 112.252 170.754C111.91 170.754 111.567 170.623 111.305 170.36ZM94.7238 169.763C94.1991 169.241 94.1991 168.391 94.7238 167.869C95.2459 167.347 96.0946 167.347 96.6167 167.869C97.1388 168.391 97.1388 169.241 96.6167 169.763C96.3543 170.025 96.0116 170.157 95.6689 170.157C95.3262 170.157 94.9835 170.025 94.7238 169.763ZM108.277 167.331C107.754 166.808 107.754 165.959 108.277 165.437C108.799 164.912 109.647 164.912 110.169 165.437C110.691 165.959 110.691 166.808 110.169 167.331C109.91 167.59 109.564 167.722 109.224 167.722C108.882 167.722 108.539 167.59 108.277 167.331ZM91.6931 166.733C91.171 166.208 91.171 165.362 91.6931 164.839C92.2152 164.314 93.0639 164.314 93.5859 164.839C94.1107 165.362 94.1107 166.208 93.5859 166.733C93.3262 166.996 92.9835 167.124 92.6408 167.124C92.2981 167.124 91.9555 166.996 91.6931 166.733ZM105.248 164.298C104.724 163.776 104.724 162.929 105.248 162.404C105.771 161.882 106.617 161.882 107.141 162.404C107.663 162.929 107.663 163.776 107.141 164.298C106.879 164.561 106.536 164.692 106.194 164.692C105.851 164.692 105.508 164.561 105.248 164.298ZM88.665 163.701C88.1429 163.179 88.1429 162.332 88.665 161.807C89.1871 161.285 90.0358 161.285 90.5579 161.807C91.08 162.332 91.08 163.179 90.5579 163.701C90.2955 163.963 89.9528 164.095 89.6101 164.095C89.2701 164.095 88.9274 163.963 88.665 163.701ZM102.218 161.269C101.696 160.746 101.696 159.897 102.218 159.375C102.74 158.852 103.588 158.852 104.111 159.375C104.633 159.897 104.633 160.746 104.111 161.269C103.851 161.531 103.508 161.662 103.165 161.662C102.823 161.662 102.48 161.531 102.218 161.269ZM99.1896 158.239C98.6675 157.714 98.6675 156.867 99.1896 156.345C99.7117 155.82 100.56 155.82 101.082 156.345C101.605 156.867 101.605 157.714 101.082 158.239C100.82 158.499 100.477 158.63 100.135 158.63C99.792 158.63 99.452 158.499 99.1896 158.239ZM96.1615 155.207C95.6368 154.684 95.6368 153.835 96.1615 153.313C96.6836 152.79 97.5297 152.79 98.0544 153.313C98.5765 153.835 98.5765 154.684 98.0544 155.207C97.792 155.469 97.4494 155.6 97.1067 155.6C96.764 155.6 96.4212 155.469 96.1615 155.207Z" fill="url(#paint2_linear_1233_2752)"/>
<path d="M64.0987 171.25C63.3598 171.228 62.7788 170.609 62.7976 169.873C62.819 169.133 63.4374 168.549 64.1764 168.571C64.9153 168.592 65.4963 169.211 65.4749 169.95C65.4535 170.676 64.8591 171.25 64.1389 171.25H64.0987ZM67.0813 169.913C67.0251 169.174 67.5766 168.531 68.3156 168.474C69.0518 168.418 69.6944 168.973 69.7506 169.709C69.8068 170.446 69.2553 171.089 68.519 171.145C68.4869 171.148 68.4521 171.151 68.4173 171.151C67.7239 171.151 67.1375 170.615 67.084 169.913H67.0813ZM59.6918 170.888C58.9583 170.786 58.4469 170.111 58.5459 169.38C58.645 168.646 59.3197 168.134 60.0533 168.233C60.7842 168.333 61.2982 169.008 61.1992 169.742C61.1082 170.411 60.5325 170.899 59.8739 170.899C59.8123 170.899 59.7534 170.896 59.6918 170.888ZM71.3436 169.503C71.2098 168.775 71.6917 168.075 72.4172 167.941C73.1455 167.807 73.8443 168.29 73.9781 169.016C74.112 169.744 73.6301 170.441 72.9045 170.577C72.8215 170.591 72.7412 170.599 72.6582 170.599C72.0263 170.599 71.4641 170.146 71.3436 169.503ZM55.3465 170.058C54.629 169.878 54.1899 169.152 54.3666 168.434C54.546 167.716 55.2716 167.28 55.9891 167.457H55.9864C56.7066 167.633 57.143 168.359 56.9663 169.077C56.8164 169.688 56.2702 170.095 55.6678 170.095C55.5607 170.095 55.4536 170.084 55.3465 170.058ZM75.539 168.641C75.3275 167.931 75.7318 167.186 76.4386 166.974C77.1481 166.763 77.8951 167.165 78.1039 167.874C78.3154 168.582 77.9138 169.329 77.2043 169.541C77.0785 169.578 76.95 169.597 76.8215 169.597C76.2458 169.597 75.713 169.222 75.539 168.641ZM51.111 168.764C50.4175 168.512 50.0615 167.743 50.3131 167.047C50.5675 166.353 51.3359 165.994 52.0293 166.248C52.7254 166.503 53.0815 167.272 52.8298 167.966C52.6317 168.509 52.1176 168.847 51.5715 168.847C51.4189 168.847 51.2636 168.82 51.111 168.764ZM79.6193 167.331C79.3328 166.65 79.6541 165.865 80.3341 165.579C81.0168 165.292 81.8013 165.614 82.0878 166.294C82.3716 166.977 82.053 167.762 81.3703 168.049C81.2016 168.118 81.0276 168.153 80.8535 168.153C80.3314 168.153 79.8335 167.845 79.6193 167.331ZM47.0441 167.025C46.3801 166.698 46.107 165.898 46.4337 165.233C46.7603 164.569 47.5608 164.296 48.2248 164.622C48.8888 164.949 49.1619 165.753 48.8352 166.415C48.6023 166.889 48.1284 167.165 47.6331 167.165C47.435 167.165 47.2342 167.119 47.0441 167.025ZM83.5309 165.595C83.1748 164.947 83.4104 164.132 84.0556 163.773C84.7035 163.417 85.5175 163.653 85.8762 164.298C86.2323 164.947 85.9994 165.761 85.3515 166.12C85.1453 166.232 84.9231 166.286 84.7035 166.286C84.2323 166.286 83.7772 166.037 83.5309 165.595ZM43.1834 164.864C42.5569 164.467 42.3721 163.639 42.7684 163.015C43.162 162.388 43.9893 162.204 44.6157 162.597C45.2396 162.994 45.4243 163.822 45.0307 164.446C44.7764 164.85 44.34 165.07 43.8982 165.07C43.6519 165.07 43.4056 165.003 43.1834 164.864ZM87.239 163.449C86.8133 162.844 86.9605 162.008 87.5656 161.582C88.1707 161.159 89.006 161.306 89.4317 161.912C89.8547 162.517 89.7075 163.353 89.1024 163.776C88.8695 163.939 88.6017 164.02 88.3367 164.02C87.9137 164.02 87.4987 163.819 87.239 163.449ZM39.577 162.3C38.996 161.839 38.8996 160.998 39.3601 160.42C39.818 159.838 40.6613 159.742 41.2396 160.2C41.8179 160.661 41.917 161.502 41.4565 162.083C41.1914 162.415 40.8032 162.589 40.407 162.589C40.1151 162.589 39.8233 162.496 39.577 162.3ZM90.6954 160.92C90.2108 160.363 90.2671 159.517 90.8239 159.029C91.3808 158.544 92.2269 158.601 92.7141 159.158C93.1987 159.715 93.1398 160.561 92.5829 161.049C92.3286 161.269 92.0154 161.379 91.7021 161.379C91.33 161.379 90.9578 161.223 90.6927 160.92H90.6954ZM36.2625 159.369C35.735 158.85 35.727 158.003 36.2437 157.476C36.7631 156.948 37.6118 156.94 38.1366 157.46C38.664 157.977 38.6721 158.826 38.1553 159.353C37.893 159.619 37.5449 159.753 37.1995 159.753C36.8622 159.753 36.5222 159.627 36.2625 159.369ZM93.8654 158.038C93.3246 157.535 93.2924 156.688 93.7931 156.144C94.2964 155.603 95.1425 155.571 95.686 156.072C96.2268 156.576 96.2616 157.425 95.7583 157.966C95.4932 158.25 95.1345 158.394 94.7757 158.394C94.4517 158.394 94.1251 158.277 93.8654 158.038ZM33.2745 156.104C32.806 155.534 32.889 154.69 33.4593 154.221C34.0322 153.749 34.8756 153.832 35.3441 154.403C35.8127 154.976 35.7323 155.82 35.1594 156.289C34.9104 156.495 34.6105 156.594 34.3107 156.594C33.9251 156.594 33.5396 156.428 33.2745 156.104ZM96.7141 154.837C96.1224 154.395 95.9992 153.557 96.441 152.962C96.8828 152.37 97.7234 152.247 98.3151 152.689C98.9068 153.133 99.03 153.972 98.5882 154.564C98.3258 154.917 97.9216 155.102 97.5119 155.102C97.2362 155.102 96.955 155.016 96.7141 154.837ZM30.6534 152.541C30.2465 151.923 30.4178 151.095 31.0363 150.688C31.6548 150.28 32.4847 150.452 32.889 151.071C33.296 151.689 33.1246 152.52 32.5061 152.924C32.2812 153.074 32.0242 153.147 31.7726 153.147C31.3361 153.147 30.9105 152.932 30.6534 152.541ZM99.2067 151.352C98.5695 150.974 98.3606 150.152 98.7355 149.517C99.113 148.879 99.9349 148.671 100.569 149.046C101.207 149.423 101.418 150.246 101.041 150.881C100.792 151.304 100.345 151.537 99.8867 151.537C99.6565 151.537 99.4209 151.478 99.2067 151.352ZM28.4232 148.721C28.0859 148.062 28.3456 147.256 29.0015 146.916C29.6601 146.578 30.466 146.838 30.8034 147.495C31.1407 148.154 30.881 148.963 30.2251 149.3C30.0269 149.399 29.8181 149.447 29.6119 149.447C29.1273 149.447 28.6588 149.182 28.4205 148.721H28.4232ZM101.314 147.62C100.642 147.312 100.345 146.52 100.652 145.844C100.958 145.172 101.753 144.875 102.425 145.183C103.097 145.488 103.394 146.284 103.089 146.956H103.086C102.864 147.449 102.377 147.741 101.871 147.741C101.683 147.741 101.496 147.701 101.314 147.62ZM26.6133 144.682C26.3483 143.991 26.6936 143.217 27.3844 142.949C28.0725 142.684 28.8462 143.029 29.114 143.718C29.379 144.409 29.0336 145.183 28.3456 145.451C28.1876 145.51 28.0243 145.539 27.8636 145.539C27.3255 145.539 26.8195 145.212 26.6133 144.682ZM103.011 143.685C102.31 143.452 101.93 142.694 102.162 141.99C102.395 141.288 103.153 140.908 103.855 141.141C104.556 141.374 104.936 142.132 104.703 142.834C104.516 143.396 103.994 143.752 103.434 143.752C103.292 143.752 103.153 143.731 103.011 143.685ZM25.2479 140.471C25.0578 139.756 25.4835 139.022 26.1983 138.832C26.9132 138.641 27.6468 139.067 27.8369 139.783C28.027 140.495 27.6013 141.232 26.8864 141.419C26.7713 141.451 26.6562 141.465 26.541 141.465C25.9493 141.465 25.4085 141.071 25.2479 140.471ZM104.278 139.59C103.555 139.432 103.094 138.719 103.249 137.996C103.407 137.275 104.117 136.814 104.842 136.97C105.563 137.125 106.023 137.838 105.868 138.561C105.731 139.19 105.177 139.619 104.559 139.619C104.468 139.619 104.371 139.608 104.278 139.59ZM24.3429 136.139C24.2305 135.405 24.7312 134.722 25.4621 134.61C26.193 134.497 26.8757 134.998 26.9881 135.73C27.1006 136.461 26.5999 137.147 25.869 137.259C25.7994 137.27 25.7325 137.275 25.6629 137.275C25.015 137.275 24.4447 136.801 24.3429 136.139ZM105.094 135.384C104.361 135.304 103.828 134.645 103.905 133.911C103.983 133.174 104.642 132.641 105.378 132.719C106.112 132.796 106.644 133.455 106.567 134.192C106.494 134.88 105.913 135.389 105.239 135.389C105.191 135.389 105.142 135.387 105.094 135.384ZM23.9039 131.736C23.8691 130.996 24.4393 130.369 25.1783 130.335C25.9172 130.3 26.5437 130.873 26.5785 131.61C26.6133 132.349 26.0404 132.976 25.3041 133.011C25.2827 133.011 25.2613 133.011 25.2398 133.011C24.5277 133.011 23.936 132.451 23.9039 131.733V131.736ZM104.122 129.775C104.122 129.035 104.722 128.435 105.461 128.435C106.2 128.435 106.8 129.035 106.8 129.775C106.8 130.514 106.2 131.114 105.461 131.114C104.722 131.114 104.122 130.514 104.122 129.775ZM25.189 128.727C24.45 128.684 23.8851 128.05 23.9306 127.313C23.9735 126.574 24.6053 126.011 25.3443 126.054C26.0805 126.097 26.6455 126.729 26.6026 127.468C26.5598 128.181 25.9708 128.73 25.2666 128.73C25.2398 128.73 25.2131 128.73 25.189 128.727ZM103.951 126.105C103.884 125.368 104.422 124.715 105.158 124.648C105.895 124.578 106.548 125.119 106.618 125.856C106.687 126.592 106.144 127.246 105.41 127.313C105.367 127.318 105.324 127.321 105.282 127.321C104.599 127.321 104.015 126.799 103.951 126.105ZM25.5236 124.455C24.7927 124.334 24.3001 123.646 24.4206 122.914C24.5411 122.186 25.2291 121.693 25.9601 121.813C26.6883 121.934 27.1809 122.625 27.0604 123.354C26.9507 124.01 26.3831 124.473 25.7405 124.473C25.6682 124.473 25.5933 124.468 25.521 124.455H25.5236ZM103.346 122.009C103.199 121.286 103.667 120.579 104.393 120.431C105.116 120.284 105.822 120.753 105.97 121.479C106.117 122.202 105.648 122.909 104.925 123.056C104.834 123.075 104.746 123.083 104.658 123.083C104.034 123.083 103.474 122.647 103.346 122.009ZM26.3108 120.244C25.5986 120.046 25.1836 119.306 25.3817 118.594C25.5799 117.881 26.3188 117.466 27.031 117.664C27.7432 117.862 28.1581 118.602 27.96 119.314C27.794 119.906 27.2559 120.295 26.6695 120.295C26.5517 120.295 26.4313 120.279 26.3108 120.244ZM102.307 118.004C102.082 117.3 102.473 116.547 103.177 116.322C103.881 116.097 104.634 116.488 104.859 117.193C105.083 117.897 104.693 118.65 103.988 118.875C103.855 118.918 103.715 118.939 103.581 118.939C103.014 118.939 102.489 118.575 102.307 118.004ZM27.545 116.14C26.8596 115.864 26.525 115.084 26.7981 114.399C27.0711 113.713 27.8503 113.378 28.5383 113.651C29.2237 113.925 29.5584 114.704 29.2853 115.393C29.0765 115.918 28.5731 116.236 28.0403 116.236C27.877 116.236 27.7084 116.204 27.545 116.14ZM100.845 114.134C100.545 113.456 100.853 112.666 101.528 112.368C102.205 112.068 102.995 112.376 103.295 113.051C103.592 113.729 103.284 114.519 102.61 114.819C102.433 114.897 102.251 114.932 102.069 114.932C101.555 114.932 101.065 114.634 100.845 114.134ZM29.213 112.191C28.5597 111.846 28.3108 111.034 28.6561 110.381C29.0042 109.727 29.8127 109.478 30.466 109.823C31.1193 110.169 31.3683 110.981 31.0229 111.634C30.7819 112.09 30.3188 112.347 29.8395 112.347C29.628 112.347 29.4138 112.299 29.213 112.191ZM98.9764 110.44C98.6096 109.799 98.8292 108.982 99.4691 108.613C100.112 108.243 100.931 108.463 101.298 109.106C101.667 109.746 101.445 110.565 100.805 110.935C100.596 111.056 100.366 111.112 100.138 111.112C99.6752 111.112 99.2254 110.871 98.9791 110.44H98.9764ZM31.2933 108.444C30.6829 108.031 30.5196 107.198 30.9345 106.585H30.9319C31.3469 105.971 32.1795 105.811 32.7926 106.223C33.4057 106.638 33.5664 107.472 33.1514 108.085C32.8944 108.468 32.4713 108.674 32.043 108.674C31.7833 108.674 31.5236 108.599 31.2933 108.444ZM96.7221 106.968C96.2884 106.371 96.4196 105.532 97.0193 105.098C97.6163 104.662 98.4544 104.795 98.8881 105.393C99.3245 105.99 99.1906 106.829 98.5936 107.265C98.3553 107.437 98.0795 107.52 97.8064 107.52C97.3941 107.52 96.9845 107.33 96.7221 106.968ZM33.7618 104.94C33.1969 104.463 33.1246 103.619 33.6012 103.054C34.0777 102.489 34.9211 102.417 35.486 102.894C36.0509 103.37 36.1232 104.214 35.6467 104.779C35.3816 105.095 35.0041 105.256 34.6239 105.256C34.3187 105.256 34.0135 105.152 33.7618 104.94ZM94.1144 103.753C93.6191 103.204 93.6619 102.358 94.2108 101.862C94.7596 101.367 95.6057 101.41 96.101 101.959C96.5963 102.505 96.5534 103.354 96.0046 103.85C95.7502 104.08 95.429 104.195 95.1077 104.195C94.7436 104.195 94.3794 104.048 94.1144 103.753ZM36.5864 101.72C36.075 101.185 36.0911 100.338 36.6239 99.8264C37.1594 99.3147 38.0054 99.3308 38.5194 99.8666C39.0308 100.4 39.0121 101.246 38.4793 101.758C38.2196 102.007 37.8849 102.133 37.5529 102.133C37.1995 102.133 36.8488 101.993 36.5864 101.72ZM91.18 100.834C90.6285 100.341 90.583 99.4942 91.0756 98.9424C91.5682 98.3906 92.4143 98.345 92.9658 98.8379C93.5147 99.3308 93.5629 100.177 93.0702 100.729C92.8052 101.024 92.4384 101.174 92.0716 101.174C91.753 101.174 91.4344 101.061 91.18 100.834ZM39.735 98.8165C39.2825 98.2298 39.3896 97.3887 39.9759 96.936C40.5596 96.4833 41.4003 96.5905 41.8527 97.1771C42.3052 97.7611 42.1981 98.6022 41.6144 99.0549C41.3708 99.2451 41.0817 99.3362 40.7952 99.3362C40.3963 99.3362 40 99.1567 39.735 98.8165ZM87.9538 98.2406C87.3541 97.8093 87.2176 96.9708 87.6513 96.3708C88.0823 95.7708 88.9177 95.6342 89.5201 96.0654C90.1198 96.4994 90.2563 97.3351 89.8226 97.9352C89.5629 98.2995 89.1533 98.4924 88.7356 98.4924C88.4652 98.4924 88.1921 98.412 87.9565 98.2406H87.9538ZM43.1727 96.261C42.7871 95.6315 42.9826 94.8064 43.6117 94.418C44.2409 94.0323 45.0655 94.2278 45.4538 94.8573C45.842 95.4868 45.6465 96.3119 45.0147 96.7003C44.7978 96.8342 44.5542 96.8985 44.3159 96.8985C43.8661 96.8985 43.427 96.6735 43.1727 96.261ZM84.4679 96.0065C83.8254 95.6395 83.6005 94.8225 83.9673 94.1796C84.3314 93.5367 85.148 93.3117 85.7932 93.676C86.4358 94.043 86.6607 94.86 86.2939 95.5029C86.0476 95.9368 85.5951 96.1806 85.1292 96.1806C84.9043 96.1806 84.6768 96.1244 84.4679 96.0065ZM46.8647 94.0885C46.5461 93.4215 46.8299 92.6206 47.4966 92.3018C48.1632 91.9857 48.9637 92.267 49.2797 92.9367C49.5983 93.6037 49.3145 94.4019 48.6478 94.7207C48.4631 94.8091 48.2676 94.852 48.0722 94.852C47.5742 94.852 47.095 94.5707 46.8647 94.0885ZM80.7678 94.1555C80.0878 93.8608 79.7772 93.0706 80.0717 92.3929C80.3663 91.7151 81.1561 91.4044 81.8334 91.6991C82.5108 91.9937 82.8214 92.7813 82.5269 93.459C82.31 93.9653 81.8174 94.2653 81.3006 94.2653C81.1213 94.2653 80.9419 94.2305 80.7678 94.1555ZM50.7656 92.3205C50.522 91.6241 50.8888 90.8606 51.5849 90.6142C52.2836 90.3704 53.0467 90.7374 53.293 91.4339C53.5366 92.133 53.1698 92.8965 52.4737 93.1429C52.3265 93.1938 52.1766 93.2179 52.0293 93.2179C51.4778 93.2179 50.9584 92.8724 50.7656 92.3205ZM76.8884 92.7116C76.1816 92.492 75.788 91.7419 76.0075 91.0348C76.2298 90.3302 76.9794 89.9365 77.6862 90.1561C78.3904 90.3758 78.7839 91.1258 78.5644 91.833C78.3877 92.4063 77.8576 92.7733 77.2873 92.7733C77.1561 92.7733 77.0223 92.7545 76.8884 92.7116ZM54.8351 90.9839C54.6665 90.2633 55.1136 89.5427 55.8338 89.3739C56.554 89.2052 57.2742 89.6525 57.4429 90.3731C57.6115 91.0937 57.1644 91.8143 56.4442 91.983C56.3425 92.0071 56.2381 92.0178 56.1363 92.0178C55.5286 92.0178 54.9797 91.6026 54.8351 90.9839ZM72.8777 91.6937C72.1522 91.5517 71.681 90.8472 71.8229 90.1213C71.9674 89.3954 72.6689 88.9239 73.3945 89.0659C74.12 89.2105 74.5939 89.915 74.4493 90.641C74.3235 91.2785 73.7639 91.7205 73.1374 91.7205C73.0518 91.7205 72.9661 91.7125 72.8777 91.6937ZM59.0225 90.0918C58.9315 89.3579 59.4536 88.6882 60.1871 88.5971C60.9207 88.506 61.5901 89.0284 61.6811 89.7624C61.7721 90.4963 61.2501 91.166 60.5165 91.2571C60.4602 91.2624 60.4067 91.2651 60.3505 91.2651C59.6838 91.2651 59.1082 90.7696 59.0225 90.0918ZM68.7814 91.1124C68.0451 91.0481 67.499 90.3972 67.5659 89.6606C67.6302 88.9239 68.2807 88.3774 69.017 88.4444C69.7533 88.5087 70.2968 89.1596 70.2325 89.8963C70.1709 90.5928 69.5873 91.1178 68.8992 91.1178C68.8617 91.1178 68.8216 91.1151 68.7814 91.1124ZM63.2822 89.6498C63.2714 88.9105 63.8578 88.2998 64.5994 88.289C65.341 88.2756 65.9488 88.865 65.9622 89.6043C65.9756 90.3436 65.3865 90.9544 64.6476 90.9678H64.6235C63.8953 90.9678 63.2982 90.3811 63.2848 89.6498H63.2822Z" fill="url(#paint3_linear_1233_2752)"/>
<path d="M67.78 123.099C67.7023 122.363 68.2324 121.704 68.9687 121.623C69.7023 121.543 70.3636 122.076 70.4439 122.81C70.5215 123.547 69.9914 124.206 69.2552 124.286C69.207 124.291 69.1588 124.294 69.1106 124.294C68.4359 124.294 67.8549 123.785 67.78 123.099ZM64.2807 122.979C63.6809 122.547 63.5417 121.712 63.9755 121.112C64.4065 120.509 65.2418 120.372 65.8416 120.804C66.444 121.235 66.5805 122.073 66.1494 122.673C65.8871 123.038 65.4774 123.231 65.0598 123.231C64.7894 123.231 64.5163 123.15 64.2807 122.979ZM71.9432 122.036C71.3917 121.543 71.3462 120.696 71.8415 120.145C72.3341 119.596 73.1801 119.55 73.7317 120.043C74.2805 120.536 74.326 121.385 73.8334 121.934C73.5684 122.229 73.2042 122.379 72.8374 122.379C72.5188 122.379 72.1976 122.266 71.9432 122.036ZM61.4454 118.685C61.2874 117.961 61.7426 117.246 62.4654 117.088C63.1883 116.927 63.9005 117.386 64.0611 118.106C64.2191 118.829 63.7639 119.545 63.0411 119.703C62.9447 119.724 62.8483 119.735 62.7519 119.735C62.1388 119.735 61.5846 119.309 61.4454 118.685ZM72.9954 117.126C72.9954 116.641 73.2524 116.218 73.638 115.982C73.1909 115.931 72.7785 115.655 72.5724 115.216C72.2591 114.546 72.551 113.75 73.2203 113.437C73.8896 113.124 74.6875 113.413 75.0007 114.083C75.2952 114.709 75.0596 115.446 74.484 115.797C75.1533 115.869 75.6754 116.437 75.6754 117.126C75.6754 117.868 75.0757 118.468 74.3368 118.468C73.5951 118.468 72.9981 117.868 72.9981 117.126H72.9954ZM62.7117 115.417C62.0665 115.052 61.8389 114.238 62.2031 113.592C62.5672 112.947 63.3838 112.719 64.0263 113.083C64.6716 113.448 64.8991 114.265 64.535 114.908C64.2887 115.344 63.8336 115.591 63.3677 115.591C63.1455 115.591 62.9179 115.535 62.7117 115.417ZM70.2511 112.966C69.5711 112.676 69.2552 111.889 69.547 111.208C69.8362 110.528 70.6233 110.212 71.3033 110.504C71.9834 110.796 72.2993 111.583 72.0075 112.261C71.7906 112.77 71.2953 113.075 70.7759 113.075C70.6019 113.075 70.4225 113.041 70.2511 112.966ZM65.3248 112.004C65.0865 111.305 65.4614 110.544 66.1628 110.306C66.8616 110.067 67.622 110.442 67.8603 111.144C68.0959 111.846 67.721 112.607 67.0223 112.842C66.8804 112.891 66.7358 112.915 66.5912 112.915C66.0343 112.915 65.5122 112.561 65.3248 112.004Z" fill="url(#paint4_linear_1233_2752)"/>
<path d="M48.8634 144.299C48.8259 143.56 49.3935 142.93 50.1325 142.892C50.8714 142.855 51.4979 143.423 51.5381 144.162C51.5756 144.899 51.008 145.528 50.269 145.569H50.1994C49.4899 145.569 48.9009 145.014 48.8634 144.299ZM45.4605 144.588C44.7965 144.261 44.5208 143.46 44.8447 142.796C45.1714 142.132 45.9719 141.856 46.6359 142.183C47.2999 142.507 47.5756 143.308 47.2517 143.972C47.0187 144.449 46.5422 144.725 46.0469 144.725C45.8487 144.725 45.6479 144.679 45.4605 144.588ZM53.107 143.669C52.7134 143.04 52.9035 142.215 53.5327 141.821C54.1565 141.43 54.9838 141.62 55.3747 142.247C55.7683 142.874 55.5782 143.701 54.9517 144.093C54.7295 144.232 54.4858 144.296 54.2422 144.296C53.7978 144.296 53.3613 144.074 53.107 143.669ZM41.731 141.395C41.308 140.79 41.4552 139.954 42.0603 139.531C42.6654 139.107 43.5007 139.252 43.9237 139.86C44.3494 140.466 44.2022 141.301 43.5971 141.725C43.3615 141.888 43.0938 141.968 42.8287 141.968C42.4084 141.968 41.9934 141.767 41.731 141.395ZM56.5099 141.055C55.862 140.696 55.6291 139.879 55.9878 139.233C56.3493 138.585 57.1632 138.352 57.8084 138.714C58.4563 139.073 58.6893 139.887 58.3305 140.533C58.0842 140.975 57.629 141.224 57.1578 141.224C56.9383 141.224 56.7134 141.167 56.5099 141.055ZM40.0148 136.793C39.9398 136.056 40.4753 135.4 41.2116 135.322C41.9452 135.247 42.6038 135.783 42.6788 136.52C42.7564 137.254 42.2209 137.913 41.4847 137.988C41.4392 137.993 41.391 137.996 41.3455 137.996C40.6681 137.996 40.0871 137.481 40.0148 136.793ZM56.8794 135.778C56.8794 135.494 56.9704 135.229 57.123 135.009C56.9276 134.829 56.7883 134.588 56.7294 134.31C56.5768 133.584 57.04 132.874 57.7629 132.724C58.4884 132.571 59.1979 133.035 59.3479 133.758C59.4282 134.136 59.3398 134.511 59.1337 134.803C59.3961 135.046 59.5567 135.395 59.5567 135.778C59.5567 136.517 58.957 137.117 58.218 137.117C57.4791 137.117 56.8794 136.517 56.8794 135.778ZM41.4525 133.696C40.7725 133.407 40.4566 132.62 40.7457 131.939C41.0349 131.259 41.822 130.943 42.5021 131.232C43.1821 131.521 43.498 132.309 43.2089 132.989C42.992 133.498 42.4967 133.804 41.9746 133.804C41.8006 133.804 41.6239 133.769 41.4525 133.696ZM55.1418 131.114C54.6572 130.557 54.7161 129.71 55.2756 129.226C55.8352 128.741 56.6812 128.802 57.1658 129.359C57.6478 129.919 57.5889 130.766 57.0293 131.251C56.7776 131.47 56.4644 131.577 56.1538 131.577C55.779 131.577 55.4068 131.419 55.1418 131.114ZM43.5061 129.927C43.0509 129.346 43.1553 128.502 43.739 128.05C44.3227 127.594 45.1633 127.696 45.6185 128.28C46.0736 128.864 45.9692 129.705 45.3882 130.16C45.1419 130.351 44.8528 130.444 44.5636 130.444C44.1674 130.444 43.7711 130.268 43.5087 129.927H43.5061ZM52.2074 129.086C51.5113 128.832 51.1552 128.063 51.4096 127.369C51.6639 126.675 52.4323 126.316 53.1257 126.571C53.8218 126.825 54.1779 127.594 53.9236 128.291C53.7255 128.832 53.2114 129.169 52.6652 129.169C52.5126 129.169 52.3573 129.143 52.2074 129.086ZM47.1258 127.624C47.0107 126.892 47.5114 126.209 48.2423 126.094C48.9732 125.982 49.6559 126.48 49.771 127.211C49.8835 127.942 49.3855 128.628 48.6546 128.741C48.585 128.751 48.5154 128.757 48.4458 128.757C47.7978 128.757 47.2276 128.285 47.1258 127.624Z" fill="url(#paint5_linear_1233_2752)"/>
<path d="M77.9156 147.754C77.6933 147.05 78.0869 146.297 78.791 146.075C79.4952 145.853 80.2475 146.246 80.4697 146.951C80.692 147.658 80.2984 148.408 79.5942 148.63C79.4604 148.673 79.3265 148.692 79.1926 148.692C78.6251 148.692 78.0949 148.325 77.9156 147.754ZM74.5501 148.571C73.8514 148.333 73.4765 147.572 73.7148 146.873C73.9504 146.171 74.7108 145.796 75.4122 146.037C76.111 146.276 76.4859 147.037 76.2476 147.736C76.0575 148.293 75.5381 148.644 74.9812 148.644C74.8366 148.644 74.692 148.62 74.5501 148.571ZM81.8245 145.976C81.2274 145.539 81.1016 144.701 81.538 144.106C81.9744 143.509 82.8124 143.38 83.4095 143.819C84.0038 144.256 84.1323 145.094 83.6959 145.692C83.4335 146.048 83.0266 146.238 82.6143 146.238C82.3412 146.238 82.0627 146.153 81.8245 145.976ZM70.5181 145.539C70.0924 144.934 70.2396 144.098 70.8474 143.675C71.4525 143.249 72.2878 143.396 72.7108 144.004C73.1338 144.61 72.9866 145.445 72.3815 145.869C72.1486 146.032 71.8808 146.11 71.6158 146.11C71.1928 146.11 70.7778 145.911 70.5181 145.539ZM82.5875 140.894C82.5875 140.155 83.1872 139.555 83.9262 139.555C84.6651 139.555 85.2648 140.155 85.2648 140.894C85.2648 141.634 84.6651 142.234 83.9262 142.234C83.1872 142.234 82.5875 141.634 82.5875 140.894ZM70.3681 142.078C69.6265 142.059 69.0429 141.446 69.0589 140.709C69.075 139.967 69.6881 139.383 70.427 139.399C71.166 139.416 71.7523 140.029 71.7336 140.768C71.7175 141.497 71.1205 142.078 70.3949 142.078H70.3655H70.3681ZM81.6799 137.889C81.2729 137.273 81.4389 136.442 82.052 136.03C82.6678 135.62 83.5005 135.786 83.9101 136.402C84.3197 137.018 84.1537 137.851 83.538 138.258C83.3104 138.411 83.0507 138.483 82.7963 138.483C82.3626 138.483 81.9396 138.274 81.6799 137.889ZM70.9812 137.827C70.3949 137.374 70.2878 136.533 70.7376 135.947C71.1901 135.363 72.0308 135.253 72.6171 135.705C73.2008 136.155 73.3105 136.997 72.8607 137.583C72.5984 137.926 72.2021 138.106 71.8005 138.106C71.514 138.106 71.2276 138.015 70.9839 137.827H70.9812ZM79.0266 135.794C78.3332 135.539 77.9771 134.771 78.2315 134.074C78.4858 133.38 79.2542 133.024 79.9476 133.279C80.6411 133.533 80.9998 134.302 80.7455 134.996C80.5474 135.539 80.0333 135.874 79.4871 135.874C79.3345 135.874 79.1793 135.85 79.0266 135.794ZM73.9933 134.763C73.7871 134.053 74.1967 133.308 74.9062 133.104C75.6157 132.898 76.3573 133.308 76.5635 134.018C76.7697 134.728 76.36 135.472 75.6505 135.676C75.5274 135.713 75.4015 135.73 75.2784 135.73C74.6974 135.73 74.1619 135.349 73.9933 134.763Z" fill="url(#paint6_linear_1233_2752)"/>
<path d="M189.272 65.9912C188.897 65.3537 189.111 64.5313 189.751 64.159C190.388 63.7839 191.207 63.9982 191.582 64.6384H191.58C191.954 65.276 191.74 66.0957 191.103 66.4707C190.891 66.5939 190.659 66.6529 190.428 66.6529C189.968 66.6529 189.521 66.4171 189.272 65.9912ZM187.058 62.391C186.656 61.7695 186.835 60.9418 187.456 60.54C188.075 60.1382 188.905 60.3176 189.307 60.9391C189.708 61.5606 189.529 62.3883 188.908 62.7901C188.683 62.9348 188.431 63.0044 188.182 63.0044C187.743 63.0044 187.312 62.7874 187.058 62.391ZM184.688 58.8925C184.26 58.2898 184.402 57.4541 185.007 57.0255C185.609 56.5969 186.444 56.7388 186.873 57.3416C187.298 57.9469 187.159 58.7827 186.554 59.2086C186.319 59.3774 186.048 59.4578 185.78 59.4578C185.363 59.4578 184.95 59.2595 184.688 58.8925ZM182.171 55.4986C181.716 54.9146 181.823 54.0735 182.407 53.6181C182.991 53.1654 183.831 53.2699 184.284 53.8538C184.739 54.4405 184.632 55.2816 184.048 55.7343C183.805 55.9245 183.515 56.0156 183.229 56.0156C182.83 56.0156 182.434 55.8388 182.171 55.4986ZM179.507 52.2171C179.028 51.6519 179.098 50.8081 179.663 50.3286C180.225 49.8491 181.071 49.9188 181.55 50.484C182.027 51.0465 181.957 51.893 181.395 52.3725C181.143 52.5841 180.835 52.6886 180.528 52.6886C180.15 52.6886 179.772 52.5279 179.507 52.2171ZM176.704 49.0535C176.204 48.5097 176.236 47.6633 176.777 47.1597C177.32 46.6587 178.166 46.6909 178.669 47.232C179.173 47.7758 179.138 48.6222 178.597 49.1259C178.337 49.3643 178.013 49.4821 177.687 49.4821C177.328 49.4821 176.969 49.3375 176.704 49.0535ZM173.767 46.0132C173.242 45.4935 173.237 44.6443 173.759 44.1193C174.279 43.5942 175.127 43.5889 175.652 44.1112C176.177 44.6309 176.182 45.4801 175.66 46.0051C175.398 46.2703 175.055 46.4016 174.71 46.4016C174.37 46.4016 174.03 46.273 173.767 46.0132ZM170.702 43.104C170.156 42.6058 170.115 41.7593 170.611 41.2128C171.109 40.6637 171.955 40.6235 172.504 41.1218C173.05 41.62 173.09 42.4665 172.592 43.013C172.33 43.3049 171.965 43.4523 171.601 43.4523C171.28 43.4523 170.959 43.3371 170.702 43.104ZM167.513 40.3289C166.945 39.8574 166.868 39.0109 167.342 38.443C167.813 37.8751 168.659 37.7974 169.226 38.2716C169.794 38.743 169.872 39.5895 169.398 40.1574C169.133 40.4762 168.753 40.6396 168.37 40.6396C168.067 40.6396 167.765 40.5378 167.513 40.3289ZM164.206 37.6957C163.62 37.2483 163.505 36.4072 163.955 35.8205C164.402 35.2312 165.243 35.116 165.829 35.5661C166.418 36.0134 166.533 36.8545 166.083 37.4439C165.821 37.7894 165.422 37.9716 165.018 37.9716C164.737 37.9716 164.45 37.8805 164.206 37.6957ZM160.793 35.2098C160.185 34.7865 160.035 33.9508 160.456 33.3454C160.879 32.7373 161.711 32.5873 162.319 33.0079C162.927 33.4311 163.077 34.2669 162.654 34.8723C162.394 35.2473 161.979 35.4482 161.553 35.4482C161.291 35.4482 161.026 35.3705 160.793 35.2098ZM157.269 32.8712C156.646 32.4775 156.458 31.6497 156.854 31.0229C157.248 30.3988 158.075 30.2139 158.702 30.6077C159.326 31.0042 159.513 31.8319 159.117 32.456C158.862 32.8579 158.429 33.0802 157.984 33.0802C157.741 33.0802 157.492 33.0132 157.269 32.8712ZM153.65 30.6907C153.01 30.3238 152.788 29.5041 153.154 28.8638C153.521 28.2209 154.34 27.9986 154.98 28.3656C155.623 28.7353 155.845 29.5523 155.478 30.1952C155.229 30.6265 154.78 30.8675 154.314 30.8675C154.089 30.8675 153.861 30.8113 153.65 30.6907ZM149.939 28.6683C149.283 28.3308 149.026 27.5218 149.363 26.8655C149.703 26.2065 150.512 25.9494 151.168 26.2896C151.824 26.6298 152.083 27.4361 151.743 28.0924C151.505 28.5531 151.037 28.8183 150.552 28.8183C150.346 28.8183 150.134 28.7701 149.939 28.6683ZM146.142 26.8119C145.473 26.5012 145.179 25.7056 145.489 25.0332C145.8 24.3636 146.595 24.0689 147.267 24.3796C147.939 24.6904 148.231 25.486 147.92 26.1583C147.693 26.6458 147.211 26.9352 146.705 26.9352C146.515 26.9352 146.325 26.895 146.142 26.8119ZM142.268 25.1216C141.586 24.8404 141.259 24.0582 141.54 23.3751C141.819 22.6893 142.6 22.3625 143.286 22.6438C143.968 22.9251 144.295 23.7073 144.017 24.3903C143.802 24.91 143.304 25.2234 142.777 25.2234C142.608 25.2234 142.437 25.1886 142.268 25.1216ZM138.325 23.6028C137.631 23.3537 137.27 22.5849 137.519 21.8911C137.77 21.1946 138.536 20.833 139.232 21.0821C139.928 21.3339 140.287 22.1 140.038 22.7965C139.843 23.343 139.329 23.6832 138.78 23.6832C138.63 23.6832 138.475 23.6564 138.325 23.6028ZM134.319 22.2607C133.613 22.0411 133.219 21.2884 133.438 20.5839C133.658 19.8767 134.408 19.4829 135.115 19.7026C135.819 19.9222 136.215 20.6723 135.995 21.3794C135.816 21.9527 135.286 22.3197 134.716 22.3197C134.584 22.3197 134.451 22.3009 134.319 22.2607ZM130.258 21.0928C129.54 20.9053 129.115 20.1713 129.302 19.4561C129.492 18.7409 130.223 18.315 130.938 18.5025C131.653 18.69 132.078 19.424 131.891 20.1392C131.733 20.7392 131.192 21.1384 130.598 21.1357C130.485 21.1357 130.37 21.1223 130.258 21.0928Z" fill="url(#paint7_linear_1233_2752)"/>
<path d="M7.4711 133.777C7.33456 133.051 7.81112 132.349 8.53668 132.21C9.26224 132.073 9.9637 132.55 10.1029 133.276C10.2395 134.002 9.7629 134.704 9.03734 134.843C8.95167 134.859 8.86867 134.867 8.78567 134.867C8.1565 134.867 7.59426 134.42 7.4711 133.777ZM6.75357 129.493C6.64648 128.76 7.15518 128.082 7.88609 127.975C8.617 127.868 9.29705 128.376 9.40414 129.108C9.51123 129.839 9.00254 130.519 8.27163 130.627C8.20469 130.635 8.14044 130.64 8.07618 130.64C7.42291 130.64 6.84996 130.161 6.75357 129.493ZM6.22346 125.181C6.1485 124.444 6.68396 123.788 7.42023 123.713C8.1565 123.64 8.81245 124.176 8.88741 124.913C8.96238 125.647 8.42423 126.306 7.69064 126.378C7.64513 126.383 7.59961 126.386 7.5541 126.386C6.87406 126.386 6.29307 125.872 6.22346 125.181ZM5.88076 120.852C5.83792 120.113 6.40017 119.48 7.13911 119.438C7.87806 119.395 8.50991 119.96 8.55275 120.697C8.59558 121.436 8.03067 122.068 7.2944 122.111C7.26762 122.114 7.24085 122.114 7.21408 122.114C6.50994 122.114 5.92092 121.564 5.88076 120.852ZM5.7228 116.512C5.71209 115.773 6.30378 115.165 7.04273 115.154C7.78167 115.141 8.38943 115.733 8.40014 116.472C8.41085 117.211 7.81916 117.82 7.08021 117.83H7.06147C6.33056 117.83 5.73351 117.244 5.7228 116.512ZM7.05344 113.547C6.31181 113.526 5.73083 112.909 5.75225 112.17C5.77367 111.431 6.38946 110.847 7.1284 110.868C7.86735 110.89 8.44833 111.506 8.42691 112.245C8.40817 112.971 7.8138 113.547 7.09092 113.547H7.05344ZM7.20605 109.264C6.46978 109.213 5.91289 108.57 5.96644 107.833C6.01998 107.094 6.65987 106.539 7.39614 106.593C8.13508 106.644 8.68929 107.284 8.63842 108.023C8.58755 108.728 7.99854 109.266 7.30243 109.266C7.2703 109.266 7.23817 109.266 7.20605 109.264ZM7.54607 104.991C6.8098 104.908 6.28236 104.244 6.36804 103.51C6.45104 102.776 7.11502 102.248 7.85128 102.331C8.58487 102.414 9.11231 103.078 9.02664 103.815C8.94899 104.498 8.37069 105.002 7.69868 105.002C7.64781 105.002 7.59694 104.999 7.54607 104.991ZM8.06815 100.74C7.33723 100.622 6.84193 99.9363 6.95705 99.2076C7.07218 98.4763 7.75758 97.9781 8.48849 98.0933C9.2194 98.2112 9.71739 98.8969 9.59959 99.6282C9.49517 100.287 8.92757 100.756 8.27966 100.756C8.21005 100.756 8.14044 100.751 8.06815 100.74ZM8.77497 96.5128C8.05208 96.3655 7.58355 95.6583 7.73348 94.9324C7.88073 94.2091 8.58755 93.7403 9.31311 93.8904C10.036 94.0377 10.5045 94.7449 10.3546 95.4708C10.2261 96.103 9.66652 96.5423 9.04538 96.5423C8.95702 96.5423 8.86599 96.5316 8.77497 96.5128ZM9.66652 92.3233C8.95167 92.1438 8.51526 91.4152 8.69465 90.6973C8.87403 89.9794 9.59959 89.5454 10.3171 89.7249C11.0346 89.9044 11.471 90.6303 11.2917 91.3482C11.1391 91.9563 10.5929 92.3635 9.99315 92.3635C9.88606 92.3635 9.77629 92.3501 9.66652 92.3233ZM10.7455 88.1632C10.036 87.9543 9.63171 87.2069 9.84322 86.4997C10.0547 85.7898 10.8017 85.3853 11.5085 85.597C12.218 85.8086 12.6223 86.5533 12.4108 87.2631C12.2368 87.8444 11.704 88.2195 11.1283 88.2195C11.0025 88.2195 10.8713 88.2034 10.7455 88.1632ZM12.0038 84.0594C11.3051 83.8183 10.9356 83.0548 11.1765 82.3557C11.4175 81.6565 12.1805 81.2869 12.8793 81.528C13.5781 81.769 13.9476 82.5325 13.7066 83.2316C13.5139 83.7861 12.9945 84.1344 12.4402 84.1344C12.2957 84.1344 12.1484 84.1103 12.0038 84.0594ZM13.4389 80.0145C12.7535 79.7412 12.4161 78.9644 12.6892 78.276C12.9623 77.5875 13.7388 77.2527 14.4268 77.5232C15.1149 77.7965 15.4496 78.5733 15.1765 79.2617C14.9703 79.7895 14.467 80.1082 13.9315 80.1082C13.7682 80.1082 13.6022 80.0788 13.4389 80.0145ZM15.0533 76.0365C14.3786 75.7338 14.0761 74.9436 14.3786 74.2686C14.6812 73.5935 15.4737 73.2908 16.1484 73.5935C16.823 73.8962 17.1256 74.6865 16.823 75.3615C16.5981 75.8597 16.1109 76.1544 15.5995 76.1544C15.4174 76.1544 15.23 76.1169 15.0533 76.0365ZM16.8391 72.1363C16.1778 71.8041 15.9101 71.0005 16.2421 70.3389C16.5741 69.6772 17.3773 69.4093 18.0386 69.7415C18.6999 70.0737 18.9676 70.8773 18.6356 71.5389C18.4 72.0077 17.9288 72.2783 17.4362 72.2783C17.2354 72.2783 17.0319 72.2327 16.8391 72.1363ZM18.7909 68.3164C18.1456 67.9575 17.9127 67.1404 18.2742 66.4949C18.6356 65.8493 19.4495 65.6162 20.0948 65.9779C20.74 66.3368 20.9729 67.1538 20.6115 67.7994C20.3678 68.2387 19.9127 68.4852 19.4415 68.4852C19.2219 68.4852 18.997 68.4316 18.7909 68.3164ZM20.9087 64.5876C20.2795 64.1992 20.084 63.3741 20.4723 62.7446C20.8605 62.1151 21.6851 61.9196 22.3143 62.3053C22.9434 62.6937 23.1389 63.5188 22.7507 64.151C22.499 64.5608 22.0599 64.7858 21.6101 64.7858C21.3718 64.7858 21.1282 64.7215 20.9087 64.5876ZM23.1871 60.9552C22.574 60.54 22.416 59.7069 22.831 59.0935C23.2433 58.4827 24.076 58.322 24.6891 58.7372C25.3022 59.1524 25.4601 59.9855 25.0452 60.5963C24.7881 60.9793 24.3651 61.1856 23.9367 61.1856C23.6797 61.1856 23.4173 61.1106 23.1871 60.9552ZM25.6208 57.4246C25.0264 56.9826 24.9033 56.1442 25.345 55.5495C25.7868 54.9575 26.6248 54.8343 27.2165 55.2736C27.8108 55.7156 27.934 56.554 27.4922 57.1487C27.2299 57.5023 26.8256 57.6898 26.4186 57.6898C26.1402 57.6898 25.8617 57.6041 25.6208 57.4246ZM28.2044 54.0039C27.6315 53.5378 27.5431 52.694 28.009 52.1207C28.4748 51.5475 29.3182 51.4591 29.8911 51.9252C30.4668 52.3913 30.5524 53.2351 30.0866 53.8083C29.8215 54.1351 29.436 54.3039 29.0478 54.3039C28.7506 54.3039 28.4534 54.2075 28.2044 54.0039ZM30.9326 50.701C30.3811 50.2081 30.3302 49.3616 30.8202 48.8098C31.3101 48.2553 32.1562 48.2044 32.7104 48.6973C33.2619 49.1875 33.3128 50.034 32.8228 50.5858C32.5578 50.8858 32.191 51.0385 31.8215 51.0385C31.5056 51.0385 31.187 50.926 30.9326 50.701ZM33.8027 47.516C33.2699 47.0017 33.2566 46.1552 33.7706 45.6248C34.2846 45.0917 35.1334 45.0783 35.6635 45.5926C36.1936 46.107 36.207 46.9561 35.6956 47.4865C35.4332 47.7571 35.0825 47.8937 34.7318 47.8937C34.3971 47.8937 34.0624 47.7678 33.8027 47.516ZM36.804 44.4622C36.2953 43.9265 36.3194 43.0773 36.8549 42.5683C37.393 42.0594 38.2391 42.0835 38.7478 42.6192C39.2565 43.155 39.235 44.0041 38.6969 44.5131C38.4399 44.7569 38.1079 44.8801 37.7759 44.8801C37.4225 44.8801 37.0691 44.7408 36.804 44.4622ZM39.9365 41.5397C39.4519 40.9825 39.5108 40.136 40.0704 39.6512C40.6273 39.1663 41.4733 39.2253 41.9579 39.7824C42.4425 40.3423 42.3836 41.1861 41.8267 41.6736C41.5724 41.8933 41.2591 42.0004 40.9485 42.0004C40.5737 42.0004 40.2016 41.8451 39.9365 41.5397ZM43.1922 38.7565C42.7317 38.1779 42.828 37.3341 43.4063 36.876C43.9846 36.4126 44.8253 36.509 45.2858 37.0876C45.7463 37.6662 45.6526 38.51 45.0716 38.9708C44.8253 39.1663 44.5335 39.2628 44.239 39.2628C43.8454 39.2628 43.4572 39.0887 43.1922 38.7565ZM46.5629 36.1179C46.1292 35.5179 46.2604 34.6821 46.8574 34.2455C47.4572 33.8115 48.2925 33.9428 48.7289 34.5428C49.1626 35.1402 49.0314 35.9786 48.4344 36.4126C48.1961 36.5867 47.9203 36.6697 47.6473 36.6697C47.2323 36.6697 46.8253 36.4769 46.5629 36.1179ZM50.0461 33.6267C49.6365 33.0106 49.8052 32.1802 50.421 31.7703C51.0368 31.3632 51.8694 31.5292 52.2764 32.1454C52.686 32.7641 52.5173 33.5946 51.9015 34.0044C51.674 34.1544 51.4169 34.2267 51.1626 34.2267C50.7289 34.2267 50.3032 34.0151 50.0461 33.6267ZM53.6311 31.2908C53.2509 30.656 53.4544 29.8336 54.0889 29.4532C54.7208 29.0702 55.5427 29.2764 55.9256 29.9086C56.3058 30.5435 56.1023 31.3658 55.4678 31.7462C55.2536 31.8775 55.0153 31.9391 54.7797 31.9391C54.3245 31.9391 53.8828 31.7087 53.6311 31.2908ZM57.3151 29.113C56.9617 28.4621 57.2027 27.6504 57.8506 27.2968C58.5012 26.9432 59.3124 27.1816 59.6658 27.8326C60.0192 28.4808 59.7783 29.2952 59.1304 29.6488C58.9269 29.7586 58.7073 29.8122 58.4905 29.8122C58.0166 29.8122 57.5561 29.5577 57.3151 29.113ZM61.0875 27.0986C60.7635 26.4343 61.0393 25.6307 61.7033 25.3065C62.3673 24.9824 63.1678 25.2556 63.4944 25.9226C63.8184 26.5843 63.5426 27.3879 62.8786 27.712C62.6912 27.8058 62.4904 27.8486 62.2923 27.8486C61.797 27.8486 61.3204 27.5727 61.0875 27.0986ZM64.9455 25.2503C64.651 24.5725 64.9589 23.7823 65.639 23.4877C66.3163 23.1903 67.1035 23.5011 67.398 24.1788C67.6952 24.8565 67.3846 25.6467 66.7072 25.9414C66.5332 26.0191 66.3511 26.0539 66.1718 26.0539C65.6577 26.0539 65.1651 25.7539 64.9455 25.2503ZM68.8785 23.5734C68.6135 22.8823 68.9562 22.1081 69.6469 21.8429C70.3377 21.575 71.1115 21.9206 71.3765 22.6117C71.6416 23.3001 71.2989 24.077 70.6081 24.3422C70.4501 24.4038 70.2868 24.4306 70.1289 24.4306C69.5907 24.4306 69.082 24.1038 68.8785 23.5734ZM72.8812 22.0706C72.6456 21.3688 73.0231 20.608 73.7218 20.375C74.4233 20.1392 75.1837 20.5169 75.4193 21.2188C75.6522 21.9206 75.2747 22.6787 74.5732 22.9144C74.434 22.9626 74.2895 22.9841 74.1476 22.9841C73.588 22.9841 73.0686 22.6305 72.8812 22.0706ZM76.9454 20.7419C76.7419 20.0321 77.1515 19.2901 77.861 19.0865C78.5732 18.8802 79.3148 19.2927 79.5183 20.0026C79.7218 20.7125 79.3121 21.4572 78.6 21.6608C78.4768 21.6956 78.3537 21.7117 78.2305 21.7117C77.6495 21.7117 77.114 21.3313 76.9454 20.7419Z" fill="url(#paint8_linear_1233_2752)"/>
</g>
<defs>
<linearGradient id="paint0_linear_1233_2752" x1="26.9944" y1="176.497" x2="202.13" y2="176.497" gradientUnits="userSpaceOnUse">
<stop stop-color="#8CD6D6"/>
<stop offset="1" stop-color="#FF9F80"/>
</linearGradient>
<linearGradient id="paint1_linear_1233_2752" x1="0.818969" y1="89.6659" x2="213.825" y2="89.6659" gradientUnits="userSpaceOnUse">
<stop stop-color="#8CD6D6"/>
<stop offset="1" stop-color="#FF9F80"/>
</linearGradient>
<linearGradient id="paint2_linear_1233_2752" x1="105.983" y1="181.031" x2="115.876" y2="171.143" gradientUnits="userSpaceOnUse">
<stop stop-color="#8CD6D6"/>
<stop offset="1" stop-color="#FF9F80"/>
</linearGradient>
<linearGradient id="paint3_linear_1233_2752" x1="23.9012" y1="129.769" x2="106.797" y2="129.769" gradientUnits="userSpaceOnUse">
<stop stop-color="#8CD6D6"/>
<stop offset="1" stop-color="#FF9F80"/>
</linearGradient>
<linearGradient id="paint4_linear_1233_2752" x1="61.4132" y1="117.265" x2="75.6727" y2="117.265" gradientUnits="userSpaceOnUse">
<stop stop-color="#8CD6D6"/>
<stop offset="1" stop-color="#FF9F80"/>
</linearGradient>
<linearGradient id="paint5_linear_1233_2752" x1="40.0068" y1="135.823" x2="59.554" y2="135.823" gradientUnits="userSpaceOnUse">
<stop stop-color="#8CD6D6"/>
<stop offset="1" stop-color="#FF9F80"/>
</linearGradient>
<linearGradient id="paint6_linear_1233_2752" x1="69.0589" y1="140.873" x2="85.2648" y2="140.873" gradientUnits="userSpaceOnUse">
<stop stop-color="#8CD6D6"/>
<stop offset="1" stop-color="#FF9F80"/>
</linearGradient>
<linearGradient id="paint7_linear_1233_2752" x1="129.259" y1="42.5549" x2="191.764" y2="42.5549" gradientUnits="userSpaceOnUse">
<stop stop-color="#8CD6D6"/>
<stop offset="1" stop-color="#FF9F80"/>
</linearGradient>
<linearGradient id="paint8_linear_1233_2752" x1="5.72012" y1="76.95" x2="79.5692" y2="76.95" gradientUnits="userSpaceOnUse">
<stop stop-color="#8CD6D6"/>
<stop offset="1" stop-color="#FF9F80"/>
</linearGradient>
<clipPath id="clip0_1233_2752">
<rect width="213.006" height="214.575" fill="white" transform="translate(0.820312 0.230835)"/>
</clipPath>
</defs>
</svg>
