<svg width="205" height="214" viewBox="0 0 205 214" fill="none" xmlns="http://www.w3.org/2000/svg">
<g clip-path="url(#clip0_1233_2341)">
<path d="M50.7103 114.911C49.94 114.897 49.3259 114.26 49.3399 113.49C49.3538 112.72 49.9902 112.106 50.7606 112.12C51.5309 112.134 52.145 112.77 52.131 113.54C52.1171 114.302 51.4946 114.911 50.7354 114.911H50.7103ZM53.8057 113.473C53.7248 112.706 54.283 112.019 55.0506 111.941C55.8182 111.863 56.502 112.421 56.5802 113.189C56.6611 113.953 56.1029 114.64 55.3353 114.718C55.2879 114.724 55.2404 114.727 55.1902 114.727C54.484 114.727 53.8783 114.191 53.8057 113.473ZM46.0937 114.545C45.3317 114.439 44.7986 113.733 44.9047 112.968C45.0135 112.206 45.7197 111.673 46.4817 111.782C47.2465 111.888 47.7768 112.594 47.6707 113.359C47.573 114.054 46.9729 114.559 46.2891 114.559C46.2249 114.559 46.1579 114.554 46.0937 114.545ZM58.2353 112.915C58.0623 112.164 58.534 111.416 59.2848 111.243C60.0356 111.07 60.7837 111.542 60.9567 112.293C61.127 113.043 60.6581 113.792 59.9072 113.965C59.8012 113.987 59.6979 114.001 59.5946 114.001C58.9582 114.001 58.3833 113.563 58.2353 112.915ZM41.5525 113.618C40.81 113.42 40.369 112.653 40.5672 111.91C40.7682 111.165 41.533 110.724 42.2782 110.925C43.0234 111.123 43.4644 111.891 43.2635 112.633C43.096 113.258 42.5322 113.669 41.9181 113.669C41.7981 113.669 41.6753 113.652 41.5525 113.618ZM62.5616 111.818C62.2993 111.095 62.6733 110.294 63.399 110.032C64.1247 109.769 64.923 110.143 65.1881 110.866C65.4505 111.592 65.0765 112.393 64.3508 112.655C64.1945 112.711 64.0326 112.739 63.8763 112.739C63.3041 112.739 62.7682 112.388 62.5616 111.818ZM37.1592 112.142C36.4446 111.852 36.1013 111.037 36.3916 110.322C36.6819 109.61 37.4969 109.264 38.2087 109.554C38.9232 109.845 39.2665 110.66 38.9762 111.374C38.7557 111.916 38.2338 112.245 37.6839 112.245C37.5081 112.245 37.3322 112.212 37.1592 112.142ZM66.7261 110.199C66.3744 109.513 66.6479 108.672 67.3346 108.324C68.0212 107.972 68.8613 108.245 69.213 108.932C69.5619 109.621 69.2884 110.462 68.6017 110.81C68.398 110.914 68.1831 110.961 67.9682 110.961C67.4602 110.961 66.9717 110.685 66.7261 110.199ZM32.9808 110.135C32.3081 109.758 32.0653 108.91 32.4421 108.237C32.8161 107.564 33.6674 107.321 34.3401 107.698C35.0128 108.072 35.2556 108.924 34.8788 109.596C34.6248 110.054 34.1475 110.314 33.6591 110.314C33.4302 110.314 33.1957 110.255 32.9808 110.135ZM70.6533 108.083C70.2234 107.444 70.3909 106.576 71.0301 106.146C71.6692 105.717 72.5373 105.884 72.9671 106.523C73.3998 107.162 73.2295 108.03 72.5903 108.46C72.3531 108.622 72.0823 108.698 71.8116 108.698C71.365 108.698 70.924 108.483 70.6533 108.083ZM29.0787 107.634C28.4563 107.179 28.3223 106.305 28.7773 105.683C29.2323 105.061 30.1059 104.927 30.7255 105.382C31.348 105.837 31.4847 106.71 31.0298 107.33C30.7562 107.704 30.332 107.902 29.9021 107.902C29.6174 107.902 29.3272 107.816 29.0787 107.634ZM74.2985 105.504C73.7905 104.921 73.8547 104.039 74.4353 103.534C75.0187 103.029 75.8979 103.09 76.4059 103.673C76.9111 104.254 76.8469 105.136 76.2663 105.641C76.0011 105.87 75.6746 105.984 75.3508 105.984C74.96 105.984 74.5721 105.82 74.2985 105.504ZM25.5144 104.678C24.9506 104.151 24.9227 103.269 25.4502 102.705C25.975 102.144 26.8598 102.116 27.4208 102.641C27.9846 103.168 28.0125 104.053 27.485 104.614C27.2114 104.907 26.8402 105.055 26.4662 105.055C26.1257 105.055 25.7824 104.932 25.5144 104.678ZM77.6005 102.501C77.0283 101.982 76.9836 101.1 77.5 100.528C78.0164 99.9555 78.8984 99.9108 79.4706 100.427C80.0428 100.944 80.0874 101.826 79.5711 102.398C79.2975 102.705 78.9179 102.858 78.5355 102.858C78.2034 102.858 77.8684 102.741 77.6005 102.501ZM22.3325 101.312C21.8384 100.72 21.9166 99.841 22.5083 99.347C23.0973 98.853 23.9793 98.9311 24.4733 99.5228C24.9673 100.115 24.8892 100.994 24.2975 101.488C24.0351 101.706 23.7197 101.812 23.4015 101.812C23.0024 101.812 22.6088 101.641 22.3325 101.312ZM80.5173 99.1153C79.8865 98.6743 79.7329 97.8035 80.1767 97.1726C80.6205 96.5418 81.4914 96.3883 82.1222 96.8321C82.7502 97.2759 82.9037 98.1468 82.4599 98.7776C82.1892 99.1628 81.7565 99.3693 81.3183 99.3693C81.0392 99.3693 80.7601 99.2884 80.5173 99.1153ZM19.5832 97.5857C19.1645 96.9382 19.3487 96.0757 19.9963 95.657C20.6438 95.2383 21.5063 95.4226 21.925 96.0701C22.3436 96.7149 22.1594 97.5802 21.5119 97.9988C21.2774 98.1496 21.015 98.2221 20.7555 98.2221C20.2977 98.2221 19.8511 97.9988 19.5832 97.5857ZM82.9986 95.403C82.3204 95.0402 82.0636 94.1944 82.4264 93.5162C82.7893 92.8351 83.6322 92.5783 84.3133 92.9412C84.9943 93.304 85.2511 94.1498 84.8882 94.828C84.637 95.2997 84.1542 95.5677 83.6545 95.5677C83.434 95.5677 83.208 95.5147 82.9986 95.403ZM17.3084 93.5524C16.9734 92.8574 17.2609 92.0229 17.9531 91.6879C18.6481 91.3502 19.4827 91.6405 19.8204 92.3327C20.1554 93.0249 19.8679 93.8623 19.1729 94.1972C18.9775 94.2921 18.7709 94.3396 18.5644 94.3396C18.048 94.3368 17.5484 94.0493 17.3084 93.5524ZM85.0111 91.4144C84.2909 91.138 83.9337 90.3314 84.21 89.6113C84.4863 88.8911 85.293 88.5339 86.0131 88.8102C86.7304 89.0865 87.0905 89.8932 86.8142 90.6133C86.602 91.166 86.0717 91.5065 85.5107 91.5065C85.346 91.5065 85.1757 91.4786 85.0111 91.4144ZM15.5443 89.2679C15.2959 88.5366 15.6839 87.7439 16.4152 87.4955C17.1437 87.2471 17.9364 87.6351 18.1848 88.3664C18.436 89.0949 18.0452 89.8876 17.3167 90.136C17.166 90.189 17.0153 90.2114 16.8646 90.2114C16.284 90.2114 15.7425 89.8485 15.5443 89.2679ZM86.5183 87.208C85.7703 87.021 85.3153 86.2646 85.4995 85.5165C85.6865 84.7685 86.4429 84.3135 87.191 84.4978C87.939 84.6848 88.394 85.444 88.2097 86.192C88.0506 86.8256 87.4812 87.2499 86.856 87.2499C86.7444 87.2499 86.6299 87.2359 86.5183 87.208ZM14.319 84.7992C14.1627 84.0428 14.6456 83.3059 15.402 83.1468C16.1556 82.9905 16.8953 83.4734 17.0516 84.227C17.2107 84.9834 16.725 85.7231 15.9714 85.8794C15.8737 85.8989 15.7788 85.9101 15.6839 85.9101C15.0363 85.9101 14.4586 85.4579 14.319 84.7992ZM87.4952 82.8509C86.7304 82.7588 86.1861 82.0638 86.2782 81.299C86.3704 80.5315 87.0681 79.9872 87.8301 80.0793C88.5977 80.1742 89.142 80.8692 89.0499 81.634C88.9634 82.3429 88.3605 82.8621 87.6655 82.8621C87.6096 82.8621 87.551 82.8593 87.4952 82.8509ZM13.6519 80.2132C13.5877 79.4457 14.1599 78.773 14.9275 78.7088C15.6951 78.6418 16.3705 79.214 16.4347 79.9816C16.4989 80.7492 15.9267 81.4246 15.1592 81.4888C15.1201 81.4916 15.081 81.4944 15.0419 81.4944C14.3246 81.4944 13.7133 80.9418 13.6519 80.2132ZM86.535 77.0117C86.535 76.7019 86.6383 76.4116 86.8114 76.18C86.6271 75.9567 86.5127 75.672 86.4987 75.3621C86.4625 74.5918 87.0598 73.9386 87.8274 73.9023C88.5977 73.866 89.2508 74.4634 89.2871 75.2309C89.3011 75.5659 89.1978 75.8785 89.0136 76.1297C89.209 76.3698 89.329 76.6768 89.329 77.0117C89.329 77.7849 88.7038 78.4073 87.9334 78.4073C87.1603 78.4073 86.535 77.7849 86.535 77.0117ZM14.8884 77.0313C14.118 77.0034 13.5179 76.3558 13.5459 75.5854C13.5738 74.8151 14.2213 74.2149 14.9917 74.2429C15.762 74.2708 16.3622 74.9183 16.3342 75.6887C16.3063 76.4423 15.6867 77.0341 14.9414 77.0341C14.9247 77.0341 14.9052 77.0313 14.8884 77.0313ZM15.1536 72.5765C14.3944 72.4537 13.8752 71.7391 13.998 70.9771C14.118 70.2151 14.8354 69.696 15.5974 69.8188C16.3566 69.9416 16.8757 70.6562 16.7529 71.4182C16.6441 72.1048 16.0523 72.5933 15.3769 72.5933C15.3043 72.5933 15.2289 72.5877 15.1536 72.5765ZM86.041 71.0944H86.0382C85.9098 70.3352 86.4234 69.6122 87.1826 69.4838C87.9418 69.3554 88.6619 69.8662 88.7903 70.6282C88.9215 71.3874 88.4107 72.1076 87.6487 72.236C87.5706 72.2499 87.4924 72.2555 87.4143 72.2555C86.7472 72.2555 86.1554 71.7754 86.041 71.0944ZM15.963 68.1831C15.2206 67.9682 14.7935 67.1951 15.0084 66.4554C15.2234 65.7157 15.9965 65.2887 16.739 65.5036C17.4786 65.7157 17.9057 66.4917 17.6907 67.2313C17.5149 67.8426 16.9567 68.239 16.351 68.239C16.2226 68.239 16.0914 68.2222 15.963 68.1831ZM85.0641 66.9159C84.8408 66.1791 85.2623 65.4003 85.9991 65.1798C86.7388 64.9565 87.5175 65.378 87.738 66.1149C87.9585 66.8545 87.5399 67.6305 86.8002 67.8538C86.6662 67.8929 86.5322 67.9124 86.4011 67.9124C85.801 67.9124 85.2455 67.5216 85.0641 66.9159ZM17.3028 63.921C16.5938 63.6195 16.2673 62.7989 16.5715 62.0899C16.8729 61.381 17.6935 61.0516 18.4025 61.3558C19.1115 61.6601 19.4408 62.4807 19.1366 63.1897C18.9077 63.7172 18.3941 64.0354 17.8526 64.0354C17.6684 64.0354 17.4814 63.9991 17.3028 63.921ZM83.582 62.891C83.2721 62.1848 83.5904 61.3614 84.2965 61.0516C85.0027 60.7418 85.8261 61.06 86.1359 61.7661C86.4457 62.4723 86.1247 63.2957 85.4214 63.6056C85.2371 63.6865 85.0473 63.7256 84.8603 63.7256C84.3216 63.7256 83.8108 63.413 83.582 62.891ZM19.1561 59.857C18.4918 59.469 18.2657 58.6149 18.6537 57.9506C19.0445 57.2835 19.8986 57.0574 20.5629 57.4481C21.23 57.8361 21.4533 58.6902 21.0653 59.3545C20.8057 59.8011 20.3396 60.0496 19.8595 60.0496C19.6194 60.0496 19.3794 59.9881 19.1561 59.857ZM81.617 59.0782C81.2234 58.4167 81.4411 57.5598 82.1027 57.1634C82.7642 56.7699 83.6211 56.9876 84.0146 57.6491C84.4082 58.3134 84.1932 59.1703 83.5289 59.5639C83.3057 59.6951 83.06 59.7593 82.8172 59.7593C82.3427 59.7593 81.8794 59.5164 81.617 59.0782ZM21.4951 56.0525C20.8811 55.5864 20.761 54.71 21.2272 54.0959C21.6961 53.4846 22.5697 53.3646 23.1838 53.8307C23.7978 54.2969 23.9179 55.1733 23.4517 55.7846C23.1754 56.1474 22.7595 56.3372 22.3381 56.3372C22.045 56.3372 21.7463 56.2451 21.4951 56.0525ZM79.2026 55.5334C78.7309 54.9221 78.8398 54.0457 79.451 53.574C80.0595 53.1022 80.9359 53.2139 81.4077 53.8224C81.8794 54.4336 81.7705 55.3101 81.1592 55.7818C80.9052 55.9772 80.6038 56.0721 80.3051 56.0721C79.8893 56.0721 79.4762 55.8879 79.2026 55.5334ZM24.2779 52.558C23.7253 52.022 23.7113 51.14 24.25 50.5874C24.7887 50.0347 25.6707 50.0207 26.2234 50.5594C26.776 51.0954 26.79 51.9802 26.2513 52.5328C25.9777 52.8147 25.6149 52.9543 25.252 52.9543C24.9003 52.9543 24.5487 52.8231 24.2779 52.558ZM76.3724 52.3039C75.8309 51.7569 75.8337 50.8748 76.3835 50.3306C76.9306 49.7891 77.8126 49.7947 78.3569 50.3417C78.8984 50.8888 78.8956 51.7708 78.3457 52.3151C78.075 52.5831 77.7205 52.717 77.3632 52.717C77.006 52.717 76.6459 52.5803 76.3724 52.3039ZM27.4626 49.4318C26.9798 48.8289 27.0747 47.9525 27.6748 47.4696C28.2749 46.9839 29.1541 47.0788 29.637 47.6789C30.1198 48.2818 30.0249 49.1583 29.4248 49.6439C29.1681 49.8505 28.8582 49.951 28.5512 49.951C28.1437 49.951 27.739 49.7723 27.4626 49.4318ZM73.1709 49.443C72.568 48.9657 72.4647 48.0892 72.942 47.4835C73.4193 46.8778 74.2985 46.7746 74.9014 47.2547C75.5071 47.7319 75.6104 48.6084 75.1331 49.2141C74.8568 49.563 74.4493 49.7444 74.0362 49.7444C73.7319 49.7444 73.4277 49.6467 73.1709 49.443ZM31.0046 46.7104C30.5971 46.0572 30.7981 45.1975 31.454 44.79C32.11 44.3825 32.9696 44.5835 33.3771 45.2394C33.7847 45.8925 33.5837 46.755 32.9278 47.1598C32.6989 47.3021 32.4449 47.3719 32.1937 47.3719C31.7276 47.3719 31.2698 47.1374 31.0074 46.7104H31.0046ZM69.6484 46.9923C68.9897 46.5931 68.7804 45.7334 69.1795 45.0747C69.5814 44.416 70.4411 44.2066 71.0971 44.6086C71.7586 45.0077 71.9651 45.8674 71.566 46.5261C71.3036 46.9588 70.8431 47.196 70.3714 47.196C70.1257 47.196 69.8745 47.1318 69.6484 46.9923ZM34.8481 44.4439C34.5243 43.7461 34.8286 42.9171 35.5291 42.5933C36.2269 42.2696 37.0587 42.5738 37.3825 43.2744C37.7035 43.9722 37.3992 44.8012 36.7014 45.125C36.5116 45.2143 36.3107 45.2561 36.1153 45.2561C35.5878 45.2561 35.0826 44.9547 34.8481 44.4439ZM65.8524 44.991C65.1491 44.6728 64.8365 43.8466 65.1519 43.1432C65.4701 42.4426 66.2962 42.13 66.9996 42.4454C67.7002 42.7636 68.0156 43.5898 67.6974 44.2932C67.4629 44.8096 66.955 45.1138 66.4246 45.1138C66.232 45.1138 66.0367 45.0747 65.8524 44.991ZM38.9427 42.6631C38.7083 41.929 39.1102 41.1447 39.8443 40.9102H39.8471C40.5812 40.673 41.3655 41.0777 41.5999 41.8118C41.8344 42.5459 41.4325 43.333 40.6984 43.5675C40.556 43.6121 40.4109 43.6345 40.2713 43.6345C39.6796 43.6345 39.1325 43.2576 38.9427 42.6631ZM61.8387 43.4698H61.8359C61.1019 43.2409 60.6888 42.4594 60.9176 41.7225C61.1465 40.9856 61.9281 40.5753 62.6649 40.8014C63.399 41.0303 63.8121 41.8118 63.5832 42.5487C63.399 43.1488 62.8464 43.5312 62.2518 43.5312C62.1151 43.5312 61.9755 43.5116 61.8387 43.4698ZM43.2244 41.3987C43.0821 40.6423 43.5789 39.9138 44.3353 39.7686C45.0945 39.6263 45.823 40.1231 45.9681 40.8823C46.1105 41.6387 45.6136 42.37 44.8544 42.5124C44.7679 42.5291 44.6814 42.5375 44.5949 42.5375C43.9361 42.5375 43.3528 42.0714 43.2244 41.3987ZM57.6687 42.4538C56.9095 42.317 56.4043 41.5913 56.5439 40.8321C56.6779 40.0729 57.4036 39.5705 58.1628 39.7044C58.922 39.8412 59.4272 40.5669 59.2904 41.3261C59.1676 42.0016 58.5786 42.4761 57.9171 42.4761C57.8362 42.4761 57.7525 42.4677 57.6687 42.4538ZM47.6317 40.673C47.5814 39.9026 48.162 39.2383 48.9324 39.1881C49.6999 39.1378 50.367 39.7212 50.4145 40.4915C50.4647 41.2591 49.8813 41.9234 49.1138 41.9737C49.0831 41.9765 49.0524 41.9765 49.0217 41.9765C48.2932 41.9765 47.6791 41.4099 47.6317 40.673ZM53.4066 41.9541C52.6362 41.9123 52.0473 41.2535 52.092 40.4832C52.1338 39.7128 52.7925 39.1239 53.5629 39.1685C54.3305 39.2104 54.9222 39.8691 54.8776 40.6395C54.8357 41.3819 54.2216 41.9569 53.4875 41.9569C53.4596 41.9569 53.4345 41.9541 53.4066 41.9541Z" fill="url(#paint0_linear_1233_2341)"/>
<path d="M126.833 165.443C126.816 164.673 127.427 164.036 128.197 164.019C128.971 164.003 129.607 164.614 129.624 165.384C129.638 166.155 129.026 166.794 128.256 166.811H128.228C127.469 166.811 126.849 166.205 126.833 165.443ZM123.623 166.615C122.855 166.534 122.3 165.848 122.381 165.08C122.462 164.315 123.148 163.757 123.916 163.838C124.681 163.919 125.236 164.606 125.158 165.373C125.082 166.091 124.477 166.621 123.771 166.621C123.72 166.621 123.673 166.621 123.623 166.615ZM131.293 165.248C131.181 164.483 131.709 163.774 132.471 163.662C133.233 163.551 133.942 164.078 134.053 164.84C134.165 165.602 133.637 166.311 132.875 166.423C132.806 166.434 132.739 166.439 132.669 166.439C131.988 166.439 131.393 165.94 131.29 165.248H131.293ZM119.051 165.842C118.3 165.666 117.834 164.915 118.01 164.165C118.185 163.414 118.936 162.948 119.687 163.123C120.438 163.299 120.904 164.05 120.728 164.801C120.578 165.446 120.003 165.878 119.369 165.878C119.266 165.878 119.157 165.867 119.051 165.842ZM135.695 164.491C135.488 163.749 135.923 162.981 136.666 162.775C137.408 162.565 138.179 163.001 138.385 163.743C138.592 164.486 138.159 165.256 137.417 165.462C137.291 165.496 137.165 165.513 137.04 165.513C136.429 165.513 135.868 165.108 135.695 164.491ZM114.61 164.5C113.887 164.232 113.521 163.428 113.789 162.705C114.057 161.982 114.861 161.616 115.584 161.884C116.307 162.152 116.675 162.956 116.405 163.679C116.195 164.24 115.665 164.589 115.098 164.589C114.937 164.589 114.772 164.561 114.61 164.5ZM139.971 163.19C139.669 162.481 140.004 161.664 140.713 161.365C141.425 161.064 142.243 161.398 142.541 162.107C142.84 162.819 142.508 163.637 141.796 163.936C141.62 164.011 141.436 164.045 141.257 164.045C140.71 164.045 140.194 163.724 139.971 163.19ZM110.376 162.61C109.692 162.25 109.43 161.407 109.79 160.723C110.147 160.042 110.99 159.78 111.674 160.137C112.355 160.497 112.617 161.34 112.26 162.021C112.009 162.498 111.526 162.769 111.023 162.769C110.803 162.769 110.582 162.716 110.376 162.61ZM144.046 161.359C143.658 160.695 143.884 159.841 144.551 159.453C145.218 159.068 146.072 159.294 146.457 159.961C146.845 160.628 146.616 161.482 145.952 161.867C145.732 161.996 145.492 162.057 145.251 162.057C144.771 162.057 144.302 161.806 144.046 161.359ZM106.415 160.195C105.782 159.754 105.628 158.884 106.069 158.253C106.513 157.622 107.381 157.466 108.014 157.909C108.645 158.35 108.799 159.221 108.358 159.852C108.087 160.24 107.654 160.449 107.213 160.449C106.937 160.449 106.658 160.366 106.415 160.195ZM147.853 159.029C147.387 158.415 147.504 157.541 148.118 157.072C148.729 156.603 149.606 156.723 150.072 157.334C150.541 157.949 150.424 158.822 149.809 159.291C149.558 159.484 149.26 159.576 148.964 159.576C148.545 159.576 148.129 159.389 147.853 159.029ZM102.789 157.304C102.217 156.787 102.173 155.905 102.692 155.333C103.208 154.761 104.09 154.719 104.662 155.235C105.234 155.752 105.276 156.637 104.76 157.206C104.484 157.51 104.104 157.667 103.724 157.667C103.389 157.667 103.055 157.547 102.789 157.304ZM151.342 156.235C150.8 155.685 150.809 154.8 151.356 154.261C151.906 153.72 152.79 153.728 153.332 154.275C153.871 154.825 153.862 155.71 153.312 156.249C153.042 156.517 152.687 156.651 152.335 156.651C151.975 156.651 151.613 156.511 151.342 156.235ZM99.5516 153.985C99.0492 153.402 99.1162 152.52 99.6995 152.017C100.283 151.515 101.165 151.579 101.667 152.165C102.17 152.749 102.106 153.631 101.519 154.133C101.257 154.359 100.933 154.471 100.609 154.471C100.219 154.471 99.8279 154.306 99.5516 153.985ZM154.451 153.03C153.845 152.55 153.745 151.674 154.222 151.068C154.7 150.465 155.579 150.362 156.182 150.839C156.787 151.319 156.891 152.196 156.411 152.802C156.137 153.148 155.727 153.329 155.316 153.329C155.012 153.329 154.708 153.231 154.451 153.03ZM96.752 150.284C96.3278 149.642 96.5036 148.777 97.1456 148.352C97.7876 147.925 98.6556 148.101 99.0799 148.746C99.5041 149.388 99.3283 150.253 98.6863 150.68C98.4491 150.837 98.1811 150.912 97.9188 150.912C97.4666 150.912 97.02 150.691 96.752 150.284ZM157.136 149.463C156.478 149.067 156.265 148.207 156.662 147.548C157.061 146.887 157.918 146.675 158.577 147.074C159.238 147.47 159.45 148.33 159.054 148.989C158.791 149.424 158.328 149.664 157.856 149.664C157.611 149.664 157.362 149.6 157.136 149.463ZM94.441 146.262C94.1004 145.57 94.3851 144.732 95.0773 144.392C95.7696 144.051 96.6041 144.336 96.9446 145.028C97.2852 145.717 97.0005 146.555 96.311 146.895C96.1129 146.993 95.9007 147.04 95.6942 147.04C95.1806 147.04 94.6838 146.753 94.441 146.262ZM159.35 145.586C158.646 145.276 158.328 144.45 158.638 143.747C158.948 143.041 159.774 142.722 160.477 143.032C161.184 143.345 161.502 144.168 161.192 144.875H161.189C160.96 145.396 160.449 145.706 159.914 145.706C159.727 145.706 159.534 145.667 159.35 145.586ZM92.6602 141.977C92.409 141.246 92.797 140.453 93.5255 140.202C94.254 139.954 95.0494 140.342 95.3006 141.07C95.5491 141.799 95.1611 142.591 94.4326 142.843C94.2819 142.896 94.1283 142.918 93.9776 142.918C93.3998 142.918 92.8584 142.555 92.6602 141.977ZM161.055 141.461C160.318 141.24 159.897 140.462 160.117 139.725C160.335 138.985 161.114 138.564 161.853 138.784C162.59 139.005 163.012 139.781 162.791 140.52C162.613 141.126 162.057 141.519 161.454 141.519C161.323 141.519 161.189 141.5 161.055 141.461ZM91.4321 137.503C91.2758 136.747 91.7614 136.01 92.5151 135.853C93.2715 135.694 94.0083 136.18 94.1646 136.934H94.1674C94.3237 137.69 93.8381 138.43 93.0817 138.586C92.9868 138.605 92.8919 138.614 92.797 138.614C92.1494 138.614 91.5688 138.162 91.4321 137.503ZM162.227 137.151C161.468 137.026 160.952 136.308 161.077 135.546C161.203 134.787 161.92 134.271 162.682 134.396C163.442 134.522 163.958 135.239 163.832 136.001C163.718 136.685 163.126 137.168 162.456 137.168C162.381 137.168 162.306 137.162 162.227 137.151ZM90.7761 132.911C90.7175 132.141 91.2897 131.468 92.0573 131.41C92.8277 131.348 93.5003 131.921 93.5589 132.691C93.6204 133.458 93.0482 134.131 92.2778 134.193C92.2415 134.193 92.2052 134.193 92.1662 134.193C91.446 134.193 90.8348 133.637 90.7761 132.909V132.911ZM162.85 132.727C162.079 132.699 161.479 132.052 161.507 131.281C161.538 130.511 162.186 129.911 162.956 129.939C163.726 129.969 164.326 130.617 164.298 131.387C164.268 132.138 163.651 132.73 162.906 132.73C162.886 132.73 162.869 132.73 162.85 132.73V132.727ZM92.0322 129.732C91.2618 129.696 90.6645 129.043 90.7008 128.272C90.7371 127.505 91.3902 126.908 92.1606 126.944C92.9309 126.98 93.5255 127.633 93.4892 128.404C93.4557 129.152 92.8388 129.735 92.0964 129.735C92.074 129.735 92.0517 129.732 92.0322 129.732ZM161.401 126.994C161.334 126.226 161.901 125.548 162.671 125.481C163.436 125.414 164.114 125.984 164.181 126.751C164.248 127.519 163.682 128.194 162.914 128.261C162.872 128.267 162.83 128.267 162.791 128.267C162.074 128.267 161.465 127.72 161.401 126.994ZM92.342 125.277C91.5828 125.146 91.0748 124.423 91.206 123.664C91.3372 122.905 92.0601 122.394 92.8193 122.528C93.5785 122.659 94.0865 123.379 93.9553 124.141C93.8381 124.82 93.2491 125.297 92.582 125.297C92.5039 125.297 92.4229 125.291 92.342 125.277ZM160.759 122.754C160.597 122.001 161.075 121.258 161.828 121.096C162.582 120.932 163.324 121.412 163.489 122.165C163.651 122.919 163.174 123.661 162.42 123.823C162.319 123.846 162.219 123.854 162.121 123.854C161.479 123.854 160.902 123.407 160.759 122.754ZM93.2101 120.895C92.4704 120.669 92.0573 119.89 92.2834 119.154C92.5095 118.417 93.291 118.001 94.0279 118.227C94.7647 118.453 95.1778 119.234 94.9517 119.971C94.7675 120.571 94.2149 120.959 93.6176 120.959C93.4836 120.959 93.344 120.937 93.2101 120.895ZM159.59 118.629C159.336 117.903 159.715 117.105 160.444 116.848C161.17 116.594 161.968 116.974 162.222 117.702C162.479 118.428 162.099 119.226 161.371 119.48C161.217 119.536 161.061 119.561 160.907 119.561C160.332 119.561 159.793 119.204 159.59 118.629ZM94.6196 116.658C93.9162 116.343 93.6036 115.517 93.9218 114.813C94.24 114.11 95.0662 113.797 95.7696 114.115C96.4701 114.434 96.7828 115.26 96.4646 115.963C96.2329 116.477 95.7249 116.784 95.1918 116.784C95.002 116.784 94.8066 116.745 94.6196 116.658ZM157.909 114.688C157.563 113.998 157.842 113.158 158.532 112.812C159.219 112.466 160.059 112.742 160.405 113.432C160.751 114.121 160.475 114.958 159.785 115.307C159.584 115.408 159.369 115.455 159.16 115.455C158.649 115.455 158.155 115.173 157.909 114.688ZM96.5539 112.636C95.898 112.231 95.6914 111.372 96.0961 110.716C96.4981 110.06 97.3577 109.853 98.0165 110.258C98.6724 110.663 98.8761 111.522 98.4742 112.178C98.209 112.605 97.7513 112.843 97.2824 112.843C97.034 112.843 96.7828 112.776 96.5539 112.636ZM155.746 110.986C155.314 110.347 155.484 109.482 156.123 109.049C156.762 108.619 157.628 108.787 158.06 109.426C158.49 110.065 158.323 110.933 157.683 111.363C157.443 111.525 157.173 111.603 156.905 111.603C156.455 111.603 156.014 111.388 155.746 110.986ZM98.9822 108.89C98.3821 108.407 98.2872 107.528 98.7701 106.928C99.2529 106.328 100.129 106.233 100.732 106.716C101.332 107.199 101.427 108.078 100.944 108.678C100.668 109.021 100.263 109.197 99.8558 109.197C99.5488 109.197 99.239 109.097 98.9822 108.89ZM153.128 107.59C152.62 107.009 152.679 106.127 153.259 105.622C153.84 105.111 154.722 105.17 155.227 105.75C155.735 106.331 155.674 107.213 155.096 107.721C154.831 107.952 154.501 108.067 154.178 108.067C153.787 108.067 153.402 107.905 153.125 107.59H153.128ZM101.45 105.918C100.905 105.371 100.905 104.489 101.45 103.941C101.994 103.397 102.879 103.397 103.423 103.941C103.967 104.489 103.967 105.371 103.423 105.918C103.149 106.188 102.792 106.325 102.435 106.325C102.08 106.325 101.723 106.188 101.45 105.918ZM150.108 104.544C149.533 104.031 149.483 103.149 149.994 102.574C150.507 101.996 151.389 101.946 151.964 102.459C152.539 102.973 152.592 103.855 152.079 104.43C151.802 104.74 151.42 104.896 151.035 104.896C150.705 104.896 150.373 104.779 150.108 104.544ZM104.682 102.831C104.207 102.222 104.319 101.346 104.927 100.874C105.536 100.399 106.412 100.511 106.884 101.12C107.359 101.728 107.25 102.604 106.638 103.076C106.384 103.274 106.083 103.369 105.784 103.369C105.368 103.369 104.955 103.185 104.682 102.831ZM146.734 101.898C146.097 101.463 145.938 100.595 146.374 99.9584C146.812 99.322 147.68 99.1601 148.313 99.5983C148.95 100.034 149.112 100.902 148.673 101.538C148.403 101.932 147.967 102.144 147.523 102.144C147.25 102.144 146.976 102.063 146.734 101.898ZM108.274 100.173C107.88 99.5118 108.101 98.6549 108.765 98.2613C109.427 97.8705 110.284 98.0911 110.674 98.7526C111.068 99.4169 110.847 100.274 110.183 100.665C109.963 100.796 109.717 100.86 109.474 100.86C108.997 100.86 108.534 100.614 108.274 100.173ZM143.058 99.7016C142.374 99.3499 142.103 98.5069 142.455 97.8231C142.809 97.1365 143.649 96.8657 144.336 97.2202C145.02 97.5719 145.291 98.412 144.939 99.0987C144.69 99.5816 144.202 99.8579 143.697 99.8579C143.482 99.8579 143.264 99.8076 143.06 99.7016H143.058ZM112.17 97.9934C111.866 97.2844 112.193 96.4638 112.899 96.1595C113.608 95.8525 114.429 96.1791 114.733 96.888C115.04 97.597 114.713 98.4176 114.004 98.7219C113.826 98.8 113.639 98.8363 113.452 98.8363C112.913 98.8363 112.399 98.5209 112.17 97.9934ZM139.13 97.9878C138.405 97.7254 138.031 96.9243 138.293 96.2014C138.555 95.4757 139.357 95.1017 140.082 95.364C140.805 95.6264 141.179 96.4275 140.917 97.1532C140.71 97.7198 140.177 98.0715 139.605 98.0715C139.449 98.0715 139.287 98.0436 139.13 97.9878ZM116.313 96.3242C116.1 95.5818 116.528 94.8086 117.27 94.5965C118.01 94.3815 118.783 94.8114 118.995 95.5511C119.21 96.2907 118.783 97.0639 118.04 97.2788C117.912 97.3151 117.781 97.3318 117.655 97.3318C117.049 97.3318 116.488 96.9355 116.313 96.3242ZM135.016 96.7848C134.265 96.6145 133.791 95.8665 133.961 95.1156C134.131 94.362 134.879 93.8903 135.63 94.0606C136.381 94.2308 136.856 94.9761 136.685 95.7297C136.537 96.3772 135.962 96.8183 135.323 96.8183C135.223 96.8183 135.12 96.8071 135.016 96.7848ZM120.633 95.1882C120.516 94.4262 121.035 93.7144 121.797 93.5944C122.559 93.4772 123.274 93.9964 123.391 94.7584C123.511 95.5204 122.989 96.2349 122.227 96.3521C122.155 96.3661 122.082 96.3689 122.012 96.3689C121.337 96.3689 120.742 95.8776 120.633 95.1882ZM130.782 96.1037C130.017 96.0311 129.453 95.3473 129.529 94.5825C129.601 93.8149 130.285 93.2511 131.053 93.3265C131.818 93.399 132.381 94.0829 132.306 94.8505C132.236 95.5706 131.628 96.1121 130.919 96.1121C130.874 96.1121 130.829 96.1093 130.782 96.1037ZM125.063 94.6076C125.041 93.8345 125.646 93.1925 126.417 93.1702C127.187 93.1478 127.829 93.7535 127.851 94.5239C127.874 95.2943 127.268 95.939 126.498 95.9614H126.456C125.705 95.9614 125.085 95.3613 125.063 94.6076Z" fill="url(#paint1_linear_1233_2341)"/>
<path d="M105.785 212.419C105.785 211.649 106.402 211.021 107.175 211.015C107.946 211.009 108.574 211.632 108.579 212.402C108.579 213.173 107.962 213.801 107.192 213.806H107.181C106.416 213.806 105.791 213.187 105.785 212.419ZM102.667 213.739C101.9 213.711 101.297 213.064 101.322 212.296C101.35 211.526 101.998 210.923 102.768 210.951C103.538 210.979 104.141 211.623 104.113 212.394C104.085 213.147 103.466 213.739 102.718 213.739H102.667ZM110.251 212.358C110.215 211.587 110.809 210.934 111.58 210.898C112.347 210.859 113.003 211.453 113.039 212.224C113.076 212.994 112.481 213.647 111.714 213.683C111.688 213.686 111.666 213.686 111.644 213.686C110.904 213.686 110.287 213.106 110.251 212.358ZM98.1541 213.482C97.3837 213.424 96.8116 212.751 96.8702 211.984C96.9316 211.216 97.6014 210.641 98.369 210.7C99.1394 210.761 99.7144 211.431 99.653 212.201C99.5971 212.933 98.9859 213.488 98.263 213.488C98.2267 213.488 98.1904 213.485 98.1541 213.482ZM114.709 212.109C114.639 211.342 115.205 210.663 115.973 210.593C116.741 210.524 117.419 211.09 117.489 211.858C117.558 212.625 116.992 213.304 116.224 213.374C116.182 213.376 116.14 213.379 116.099 213.379C115.384 213.379 114.776 212.835 114.709 212.109ZM93.6519 213.036C92.8872 212.944 92.3401 212.249 92.4322 211.484C92.5271 210.719 93.2221 210.172 93.9869 210.264C94.7517 210.359 95.2959 211.054 95.2038 211.819C95.1201 212.528 94.5172 213.047 93.8222 213.047C93.7664 213.047 93.7106 213.044 93.6519 213.036ZM119.152 211.674C119.052 210.909 119.588 210.206 120.352 210.105C121.114 210.002 121.818 210.54 121.918 211.305C122.021 212.067 121.483 212.771 120.721 212.871C120.657 212.88 120.595 212.882 120.534 212.882C119.844 212.882 119.244 212.374 119.152 211.674ZM89.1749 212.399C88.4129 212.277 87.8965 211.556 88.0221 210.797C88.1477 210.035 88.8651 209.522 89.6243 209.644C90.3863 209.77 90.9026 210.487 90.777 211.249C90.6654 211.933 90.0737 212.419 89.401 212.419C89.3256 212.419 89.2503 212.413 89.1749 212.399ZM123.573 211.048C123.439 210.289 123.945 209.564 124.704 209.43C125.463 209.296 126.189 209.804 126.323 210.563C126.457 211.322 125.949 212.045 125.189 212.179C125.108 212.193 125.025 212.201 124.947 212.201C124.282 212.201 123.693 211.724 123.573 211.048ZM84.7258 211.573C83.9722 211.417 83.4865 210.677 83.6456 209.921C83.8019 209.167 84.5415 208.684 85.2952 208.841C86.0488 208.997 86.5345 209.737 86.3781 210.49C86.2414 211.149 85.6608 211.604 85.0133 211.601C84.9184 211.601 84.8235 211.593 84.7258 211.573ZM127.964 210.236C127.796 209.483 128.271 208.737 129.024 208.573C129.778 208.405 130.521 208.88 130.688 209.633C130.855 210.387 130.378 211.129 129.627 211.297C129.524 211.319 129.424 211.33 129.323 211.33C128.684 211.33 128.106 210.887 127.964 210.236ZM80.3185 210.557C79.5705 210.367 79.1183 209.608 79.3081 208.863C79.4979 208.115 80.2571 207.663 81.0023 207.853C81.7504 208.04 82.2025 208.799 82.0127 209.547C81.8537 210.178 81.2843 210.599 80.6618 210.599C80.5474 210.599 80.433 210.585 80.3185 210.557ZM132.315 209.237C132.114 208.492 132.558 207.727 133.303 207.529C134.049 207.331 134.813 207.774 135.012 208.52C135.21 209.262 134.766 210.027 134.021 210.225C133.901 210.259 133.781 210.273 133.661 210.273C133.044 210.273 132.48 209.862 132.315 209.237ZM75.9559 209.354C75.2162 209.131 74.7976 208.355 75.0181 207.615C75.2386 206.878 76.0145 206.46 76.7542 206.68C77.4938 206.901 77.9125 207.677 77.692 208.416C77.5106 209.022 76.9551 209.413 76.355 209.413C76.2239 209.413 76.0871 209.393 75.9531 209.354H75.9559ZM136.619 208.053C136.388 207.317 136.798 206.535 137.535 206.303C138.269 206.075 139.053 206.485 139.282 207.219C139.514 207.956 139.103 208.737 138.367 208.969C138.23 209.011 138.087 209.033 137.951 209.033C137.356 209.033 136.806 208.651 136.619 208.053ZM71.6519 207.964C70.9234 207.71 70.5382 206.917 70.7894 206.189C71.0434 205.46 71.8361 205.075 72.5646 205.326C73.2931 205.58 73.6811 206.373 73.4271 207.102C73.2261 207.679 72.6874 208.042 72.1097 208.042C71.9562 208.042 71.8026 208.017 71.6519 207.964ZM140.87 206.686C140.608 205.96 140.985 205.162 141.708 204.899C142.43 204.64 143.232 205.014 143.491 205.74C143.753 206.465 143.377 207.264 142.651 207.526C142.495 207.582 142.333 207.61 142.176 207.61C141.604 207.61 141.068 207.255 140.865 206.686H140.87ZM67.3982 206.387C66.6836 206.105 66.3319 205.293 66.6138 204.576C66.8985 203.861 67.708 203.509 68.4253 203.791C69.1426 204.076 69.4943 204.885 69.2096 205.603C68.9919 206.15 68.4672 206.485 67.9117 206.485C67.7415 206.485 67.5684 206.454 67.3982 206.387ZM145.057 205.139C144.767 204.425 145.107 203.61 145.819 203.317C146.534 203.027 147.349 203.367 147.642 204.079C147.932 204.793 147.591 205.608 146.877 205.901C146.704 205.971 146.525 206.005 146.349 206.005C145.799 206.005 145.277 205.678 145.057 205.139ZM63.2198 204.631C62.5164 204.316 62.1982 203.493 62.5136 202.786C62.8262 202.083 63.6524 201.768 64.3558 202.08C65.0592 202.396 65.3774 203.219 65.062 203.925C64.8303 204.444 64.3223 204.751 63.7864 204.751C63.5966 204.751 63.404 204.712 63.2198 204.631ZM149.166 203.417C148.842 202.717 149.149 201.888 149.849 201.567C150.55 201.243 151.379 201.55 151.7 202.251C152.024 202.951 151.717 203.78 151.016 204.101C150.826 204.188 150.628 204.23 150.433 204.23C149.905 204.23 149.4 203.928 149.166 203.417ZM59.1195 202.697C58.4301 202.354 58.1482 201.516 58.4915 200.827C58.8376 200.135 59.675 199.856 60.3644 200.199C61.0538 200.542 61.3357 201.38 60.9896 202.069C60.7468 202.56 60.2528 202.845 59.742 202.845C59.5326 202.845 59.3205 202.798 59.1195 202.697ZM153.199 201.522C152.847 200.835 153.118 199.995 153.802 199.644C154.488 199.292 155.329 199.563 155.68 200.249C156.032 200.933 155.761 201.776 155.074 202.128C154.871 202.231 154.653 202.281 154.441 202.281C153.933 202.281 153.444 202.005 153.199 201.522ZM55.1086 200.593C54.4332 200.219 54.1875 199.37 54.5616 198.695C54.9328 198.019 55.7841 197.776 56.4568 198.147C57.1322 198.522 57.3779 199.37 57.0038 200.046C56.7498 200.506 56.2725 200.766 55.7813 200.766C55.5524 200.766 55.3208 200.71 55.1086 200.593ZM157.146 199.457C156.766 198.787 157 197.935 157.67 197.553C158.34 197.173 159.194 197.408 159.574 198.078C159.953 198.748 159.719 199.599 159.049 199.981C158.831 200.104 158.594 200.163 158.363 200.163C157.877 200.163 157.405 199.909 157.146 199.457ZM51.1898 198.318C50.5339 197.916 50.3246 197.056 50.7265 196.4C51.1256 195.741 51.9853 195.532 52.644 195.934C53.3 196.333 53.5093 197.193 53.1102 197.852C52.845 198.284 52.3872 198.521 51.9155 198.521C51.6671 198.521 51.4187 198.455 51.1898 198.318ZM161.006 197.224C160.598 196.57 160.796 195.711 161.45 195.3C162.103 194.893 162.965 195.091 163.373 195.744C163.78 196.397 163.582 197.26 162.929 197.667C162.7 197.81 162.443 197.88 162.189 197.88C161.726 197.88 161.271 197.648 161.006 197.224ZM47.3743 195.878C46.7323 195.451 46.5621 194.583 46.9919 193.944C47.419 193.302 48.287 193.129 48.9262 193.559C49.5682 193.989 49.7384 194.854 49.3114 195.496C49.0406 195.898 48.5996 196.115 48.1502 196.115C47.8823 196.115 47.6115 196.037 47.3743 195.878ZM164.768 194.829C164.333 194.192 164.495 193.324 165.128 192.889C165.762 192.453 166.63 192.615 167.068 193.249C167.504 193.885 167.342 194.753 166.705 195.192C166.465 195.356 166.189 195.434 165.918 195.434C165.474 195.434 165.036 195.225 164.765 194.829H164.768ZM43.6648 193.282C43.0452 192.825 42.9084 191.954 43.3662 191.331C43.8211 190.709 44.6948 190.575 45.3144 191.03C45.9368 191.485 46.0708 192.359 45.6159 192.981C45.3423 193.352 44.9181 193.55 44.4882 193.55C44.2035 193.55 43.9132 193.464 43.6648 193.282ZM168.427 192.278C167.964 191.661 168.09 190.784 168.707 190.324C169.323 189.86 170.197 189.986 170.66 190.603C171.121 191.217 170.998 192.093 170.381 192.557C170.13 192.744 169.834 192.836 169.544 192.836C169.12 192.836 168.701 192.643 168.427 192.278ZM40.0726 190.53C39.4697 190.05 39.372 189.171 39.8549 188.568C40.335 187.965 41.2142 187.867 41.8143 188.35C42.4172 188.83 42.5149 189.71 42.0348 190.313C41.7584 190.656 41.3537 190.837 40.9434 190.837C40.6364 190.837 40.3294 190.737 40.0726 190.53ZM171.975 189.573C171.487 188.976 171.576 188.096 172.17 187.608C172.768 187.119 173.647 187.206 174.135 187.803C174.624 188.401 174.535 189.28 173.94 189.768C173.68 189.98 173.365 190.084 173.055 190.084C172.651 190.084 172.251 189.908 171.975 189.573ZM36.5976 187.63C36.017 187.122 35.9556 186.243 36.4636 185.66C36.9688 185.079 37.8508 185.018 38.4314 185.526C39.0119 186.031 39.0733 186.913 38.5681 187.493C38.2918 187.812 37.9038 187.974 37.5159 187.974C37.1893 187.974 36.8627 187.859 36.5976 187.63ZM175.405 186.717C174.892 186.143 174.945 185.26 175.52 184.747C176.095 184.233 176.977 184.284 177.49 184.861C178.001 185.436 177.951 186.318 177.376 186.829C177.111 187.066 176.779 187.184 176.449 187.184C176.064 187.184 175.682 187.027 175.405 186.717ZM33.251 184.585C32.6927 184.055 32.6676 183.173 33.1979 182.612C33.7282 182.053 34.613 182.031 35.1713 182.561C35.7295 183.092 35.7546 183.974 35.2243 184.535C34.948 184.822 34.5796 184.97 34.2111 184.97C33.865 184.97 33.5217 184.842 33.251 184.585ZM178.716 183.72C178.177 183.167 178.191 182.282 178.744 181.746C179.296 181.21 180.181 181.224 180.717 181.777C181.253 182.33 181.242 183.215 180.686 183.75C180.416 184.013 180.067 184.144 179.715 184.144C179.352 184.144 178.989 184.002 178.716 183.72ZM30.0355 181.403C29.4996 180.85 29.5136 179.968 30.0662 179.43C30.6189 178.894 31.5037 178.908 32.0396 179.463C32.5755 180.016 32.5615 180.898 32.0089 181.437C31.7381 181.699 31.3865 181.83 31.0376 181.83C30.6719 181.83 30.3091 181.688 30.0355 181.403ZM181.895 180.585C181.334 180.055 181.312 179.173 181.842 178.612C182.372 178.054 183.254 178.028 183.812 178.559C184.373 179.089 184.396 179.974 183.868 180.532C183.592 180.822 183.223 180.968 182.855 180.968C182.509 180.968 182.163 180.842 181.895 180.585ZM26.9569 178.09C26.4461 177.515 26.4963 176.633 27.0713 176.119C27.6491 175.608 28.5311 175.659 29.0419 176.234C29.5554 176.811 29.5024 177.694 28.9274 178.204C28.6623 178.442 28.3301 178.559 28.0008 178.559C27.6156 178.559 27.2332 178.4 26.9569 178.09ZM184.94 177.319C184.357 176.814 184.298 175.932 184.803 175.352C185.308 174.768 186.191 174.707 186.771 175.215C187.352 175.72 187.416 176.602 186.908 177.183C186.632 177.501 186.244 177.663 185.856 177.663C185.529 177.663 185.202 177.548 184.94 177.319ZM24.0233 174.651C23.5349 174.054 23.6242 173.175 24.2215 172.686C24.8188 172.2 25.698 172.287 26.1837 172.884C26.6722 173.482 26.5856 174.361 25.9883 174.849C25.7287 175.061 25.4161 175.162 25.1063 175.162C24.7016 175.162 24.2997 174.989 24.0233 174.651ZM187.846 173.928C187.243 173.445 187.145 172.569 187.625 171.966C188.105 171.363 188.984 171.265 189.587 171.745C190.19 172.226 190.288 173.105 189.808 173.708C189.534 174.051 189.127 174.232 188.717 174.232C188.412 174.232 188.105 174.132 187.848 173.928H187.846ZM21.2377 171.09C20.7772 170.473 20.9 169.599 21.5197 169.136C22.1365 168.675 23.0101 168.801 23.4707 169.418C23.934 170.034 23.8084 170.908 23.1916 171.371C22.9404 171.558 22.6473 171.651 22.357 171.651C21.93 171.651 21.5113 171.455 21.2377 171.09ZM190.603 170.414C189.984 169.959 189.847 169.085 190.302 168.463C190.757 167.841 191.63 167.704 192.253 168.159C192.875 168.614 193.009 169.487 192.554 170.11C192.281 170.484 191.857 170.682 191.427 170.682C191.142 170.682 190.852 170.595 190.603 170.414ZM18.6057 167.416C18.1702 166.78 18.3321 165.912 18.9685 165.476C19.6049 165.041 20.473 165.203 20.9084 165.839C21.3438 166.476 21.1819 167.344 20.5455 167.779C20.3055 167.944 20.0292 168.025 19.7584 168.025C19.3146 168.025 18.8764 167.813 18.6057 167.416ZM193.213 166.785C192.571 166.358 192.401 165.49 192.828 164.848C193.258 164.209 194.123 164.036 194.765 164.466C195.404 164.893 195.577 165.761 195.15 166.4C194.879 166.802 194.438 167.02 193.989 167.02C193.721 167.02 193.453 166.945 193.213 166.785ZM16.1327 163.634C15.7224 162.981 15.9234 162.121 16.5765 161.714C17.2296 161.304 18.0921 161.505 18.4996 162.158C18.9071 162.811 18.7089 163.673 18.0558 164.081C17.8241 164.223 17.5701 164.293 17.3161 164.293C16.85 164.293 16.3951 164.058 16.1327 163.634ZM195.667 163.048C195.008 162.649 194.798 161.789 195.2 161.13C195.602 160.472 196.459 160.265 197.118 160.664C197.777 161.066 197.986 161.923 197.584 162.582C197.322 163.015 196.861 163.252 196.392 163.252C196.144 163.252 195.893 163.188 195.667 163.048ZM13.8216 159.754C13.442 159.085 13.6765 158.23 14.3463 157.851C15.0162 157.471 15.8703 157.706 16.2499 158.378C16.6295 159.048 16.3951 159.9 15.7224 160.279C15.5047 160.402 15.2702 160.461 15.0358 160.461C14.5501 160.461 14.0784 160.207 13.8216 159.754ZM197.961 159.21C197.285 158.839 197.04 157.99 197.411 157.315C197.785 156.639 198.634 156.394 199.309 156.768C199.982 157.139 200.23 157.988 199.856 158.663C199.602 159.124 199.125 159.386 198.634 159.386C198.405 159.386 198.173 159.33 197.961 159.21ZM11.678 155.78C11.3263 155.093 11.597 154.253 12.2837 153.901C12.9703 153.55 13.8104 153.82 14.1621 154.507C14.5138 155.194 14.2431 156.034 13.5564 156.385C13.3527 156.489 13.135 156.539 12.92 156.539C12.4148 156.539 11.9236 156.263 11.678 155.78ZM200.088 155.277C199.398 154.934 199.116 154.097 199.46 153.407C199.803 152.718 200.64 152.436 201.33 152.779C202.022 153.122 202.301 153.96 201.961 154.649C201.715 155.141 201.221 155.425 200.707 155.425C200.501 155.425 200.289 155.378 200.088 155.277ZM9.70741 151.719C9.38363 151.018 9.69066 150.189 10.3912 149.868C11.0918 149.544 11.9208 149.851 12.2418 150.552C12.5628 151.252 12.2558 152.081 11.558 152.402C11.3682 152.489 11.17 152.531 10.9746 152.531C10.4471 152.531 9.94187 152.229 9.70741 151.719ZM202.047 151.255C201.344 150.943 201.026 150.119 201.338 149.413C201.651 148.71 202.477 148.394 203.18 148.707C203.887 149.019 204.202 149.846 203.889 150.549C203.658 151.068 203.15 151.378 202.614 151.378C202.424 151.378 202.231 151.339 202.047 151.255ZM7.90989 147.576C7.61961 146.865 7.96013 146.05 8.67467 145.756C9.38642 145.466 10.2014 145.81 10.4945 146.521C10.7848 147.236 10.4443 148.051 9.72974 148.341C9.55669 148.411 9.37805 148.444 9.20221 148.444C8.65235 148.444 8.1304 148.118 7.90989 147.576ZM203.833 147.155C203.116 146.87 202.764 146.061 203.046 145.343C203.331 144.626 204.141 144.274 204.858 144.556C205.575 144.841 205.927 145.65 205.642 146.368C205.427 146.918 204.9 147.253 204.344 147.253C204.174 147.253 204.001 147.219 203.833 147.155ZM6.28822 143.353C6.02864 142.628 6.40266 141.829 7.12837 141.57C7.85407 141.307 8.65514 141.684 8.91472 142.41C9.1743 143.136 8.80028 143.934 8.07457 144.193C7.91827 144.252 7.75917 144.277 7.60286 144.277C7.03067 144.277 6.49198 143.923 6.28822 143.353ZM205.441 142.976C204.713 142.725 204.328 141.93 204.579 141.201C204.83 140.473 205.625 140.088 206.354 140.339C207.082 140.59 207.468 141.385 207.216 142.114C207.015 142.692 206.477 143.055 205.896 143.055C205.745 143.055 205.592 143.029 205.441 142.976ZM4.84798 139.066C4.6191 138.329 5.0294 137.548 5.76627 137.316C6.50035 137.087 7.28467 137.497 7.51355 138.234C7.74242 138.968 7.33212 139.753 6.59804 139.981C6.45848 140.026 6.31893 140.046 6.17937 140.046C5.58485 140.046 5.03499 139.663 4.84798 139.066ZM206.868 138.745C206.128 138.524 205.706 137.749 205.93 137.009C206.147 136.269 206.926 135.85 207.663 136.071C208.403 136.291 208.824 137.067 208.604 137.807C208.422 138.413 207.867 138.804 207.267 138.804C207.135 138.804 206.999 138.784 206.868 138.745ZM3.59474 134.717C3.39657 133.975 3.84036 133.21 4.58561 133.012C5.32806 132.814 6.09284 133.257 6.29101 134.003C6.48919 134.748 6.04539 135.513 5.30015 135.708C5.18013 135.742 5.06011 135.756 4.94288 135.756C4.32324 135.756 3.75942 135.342 3.59474 134.717ZM208.11 134.458C207.362 134.268 206.909 133.509 207.096 132.763C207.286 132.015 208.045 131.56 208.791 131.75C209.539 131.94 209.991 132.696 209.804 133.444C209.645 134.078 209.075 134.5 208.45 134.5C208.338 134.5 208.224 134.486 208.11 134.458ZM2.52572 130.321C2.36104 129.57 2.83554 128.825 3.58916 128.66C4.34277 128.493 5.08802 128.97 5.2527 129.721C5.41738 130.475 4.94288 131.22 4.18926 131.385C4.08878 131.407 3.9883 131.418 3.88781 131.418C3.24584 131.418 2.67086 130.974 2.52572 130.321ZM209.165 130.117C208.411 129.964 207.928 129.224 208.084 128.471C208.238 127.714 208.978 127.228 209.731 127.385C210.488 127.544 210.973 128.281 210.817 129.037C210.68 129.696 210.1 130.148 209.452 130.148C209.357 130.148 209.262 130.14 209.165 130.117ZM1.6465 125.886C1.51252 125.127 2.02052 124.401 2.77972 124.267C3.53892 124.136 4.26462 124.641 4.39581 125.4C4.52978 126.159 4.02179 126.882 3.26538 127.016C3.18165 127.03 3.1007 127.039 3.01976 127.039C2.35546 127.039 1.76652 126.561 1.6465 125.886ZM210.038 125.741C209.276 125.615 208.76 124.898 208.886 124.139C209.008 123.377 209.726 122.86 210.488 122.986C211.247 123.109 211.763 123.826 211.64 124.588C211.529 125.272 210.934 125.76 210.264 125.757C210.189 125.757 210.114 125.752 210.038 125.741ZM0.959873 121.414C0.85939 120.65 1.3953 119.949 2.16008 119.848C2.92207 119.745 3.62544 120.284 3.72593 121.049C3.82641 121.813 3.2905 122.514 2.52572 122.615C2.46431 122.623 2.40012 122.626 2.3415 122.626C1.65208 122.626 1.05198 122.115 0.959873 121.414ZM210.722 121.328C209.955 121.236 209.41 120.543 209.502 119.776C209.594 119.011 210.287 118.464 211.054 118.556C211.819 118.648 212.363 119.343 212.274 120.108C212.187 120.817 211.585 121.339 210.89 121.339C210.834 121.339 210.778 121.336 210.722 121.328ZM0.460253 116.918C0.390473 116.15 0.957081 115.472 1.72745 115.405C2.49502 115.335 3.17048 115.902 3.24026 116.669C3.31004 117.437 2.74343 118.115 1.97586 118.185C1.9312 118.188 1.88933 118.19 1.84747 118.19C1.13572 118.19 0.52445 117.643 0.460253 116.918ZM211.216 116.893C210.449 116.834 209.874 116.161 209.932 115.394C209.991 114.623 210.663 114.048 211.431 114.11C212.201 114.168 212.776 114.838 212.715 115.609C212.659 116.34 212.048 116.895 211.325 116.895C211.289 116.895 211.252 116.895 211.216 116.893ZM0.153224 112.407C0.116938 111.637 0.711458 110.984 1.48182 110.947C2.24939 110.911 2.90532 111.506 2.94161 112.276C2.97789 113.046 2.38337 113.699 1.61301 113.736H1.54602C0.803567 113.736 0.186718 113.155 0.153224 112.407ZM211.526 112.438C210.756 112.41 210.153 111.765 210.181 110.995C210.206 110.224 210.853 109.621 211.624 109.649C212.394 109.675 212.997 110.322 212.969 111.092C212.944 111.846 212.324 112.438 211.573 112.438H211.526ZM0.0332031 107.885C0.0332031 107.115 0.650052 106.484 1.42321 106.481C2.19357 106.476 2.82159 107.098 2.82438 107.869C2.82996 108.642 2.20753 109.267 1.43716 109.273H1.42879C0.661217 109.273 0.0387855 108.653 0.0332031 107.885ZM210.242 106.587C210.236 105.817 210.856 105.189 211.626 105.183C212.397 105.178 213.028 105.8 213.033 106.571C213.039 107.341 212.416 107.969 211.646 107.975H211.638C210.87 107.975 210.248 107.355 210.242 106.587ZM210.119 102.183C210.083 101.415 210.675 100.759 211.445 100.723C212.215 100.684 212.871 101.279 212.908 102.049C212.944 102.819 212.352 103.472 211.582 103.509C211.559 103.512 211.534 103.512 211.512 103.512C210.772 103.512 210.156 102.931 210.119 102.183ZM209.812 97.7896C209.742 97.022 210.309 96.3437 211.077 96.2739C211.844 96.2041 212.522 96.768 212.592 97.5355C212.662 98.3031 212.098 98.9814 211.331 99.0512C211.286 99.0568 211.244 99.0596 211.202 99.0596C210.488 99.0568 209.879 98.5125 209.812 97.7896ZM209.321 93.4129C209.22 92.6481 209.756 91.9448 210.518 91.8443C211.283 91.741 211.987 92.2769 212.087 93.0417C212.19 93.8065 211.654 94.5071 210.89 94.6104C210.828 94.6187 210.764 94.6215 210.703 94.6215C210.013 94.6215 209.416 94.1135 209.321 93.4129ZM208.645 89.0586C208.509 88.2994 209.017 87.5765 209.773 87.4425C210.532 87.3058 211.258 87.8138 211.392 88.5702C211.526 89.3294 211.021 90.0551 210.262 90.1891C210.181 90.203 210.097 90.2114 210.016 90.2114C209.352 90.2114 208.766 89.7369 208.645 89.0586ZM207.783 84.7406C207.616 83.987 208.09 83.2418 208.844 83.0743C209.594 82.9096 210.34 83.3813 210.507 84.135C210.675 84.8886 210.2 85.6338 209.447 85.8013C209.346 85.8236 209.243 85.8348 209.142 85.8348C208.503 85.8348 207.925 85.391 207.783 84.7406ZM206.736 80.4617C206.538 79.7165 206.979 78.9517 207.724 78.7535C208.47 78.5553 209.234 78.9963 209.433 79.7416C209.631 80.484 209.19 81.2488 208.445 81.4498C208.324 81.4805 208.204 81.4973 208.084 81.4973C207.468 81.4973 206.904 81.0842 206.736 80.4617ZM205.508 76.2302C205.279 75.4962 205.687 74.7118 206.424 74.4829C207.158 74.2513 207.942 74.6616 208.171 75.3957C208.403 76.1326 207.992 76.9141 207.258 77.1458C207.119 77.1876 206.979 77.21 206.84 77.21C206.245 77.21 205.695 76.8276 205.508 76.2302ZM204.101 72.0574C203.839 71.3317 204.213 70.5334 204.939 70.271C205.665 70.0086 206.466 70.3855 206.725 71.1084C206.988 71.8341 206.614 72.6352 205.888 72.8948C205.732 72.9534 205.572 72.9785 205.413 72.9785C204.841 72.9785 204.305 72.6268 204.101 72.0574ZM202.516 67.9487C202.223 67.2342 202.564 66.4192 203.278 66.1261C203.99 65.8358 204.805 66.1763 205.098 66.8881C205.391 67.6026 205.05 68.4177 204.336 68.7079C204.163 68.7805 203.984 68.814 203.808 68.814C203.259 68.814 202.737 68.4874 202.516 67.9487ZM200.76 63.9182C200.439 63.2204 200.744 62.3914 201.444 62.0677C202.145 61.7439 202.974 62.0509 203.295 62.7515C203.619 63.4493 203.312 64.2783 202.614 64.6021C202.424 64.6886 202.226 64.7305 202.028 64.7305C201.5 64.7305 200.998 64.429 200.76 63.9182ZM198.835 59.9687C198.483 59.282 198.754 58.4419 199.44 58.0902C200.124 57.7357 200.967 58.0064 201.319 58.6931C201.67 59.3769 201.4 60.2199 200.716 60.5716C200.509 60.6776 200.292 60.7251 200.077 60.7251C199.571 60.7251 199.083 60.4488 198.835 59.9687ZM196.744 56.1001C196.362 55.4302 196.596 54.5788 197.266 54.1964C197.936 53.8168 198.787 54.0513 199.169 54.7212C199.549 55.3911 199.317 56.2424 198.648 56.6248C198.427 56.7476 198.193 56.8062 197.958 56.8062C197.472 56.8062 197.001 56.5522 196.744 56.1001ZM194.489 52.3235C194.078 51.6704 194.277 50.8107 194.93 50.4004C195.583 49.9901 196.442 50.1883 196.853 50.8414C197.263 51.4946 197.065 52.357 196.412 52.7673C196.18 52.9097 195.923 52.9795 195.672 52.9795C195.206 52.9795 194.751 52.7478 194.489 52.3235ZM192.072 48.6447C191.636 48.0111 191.798 47.1403 192.432 46.7048C193.068 46.2694 193.936 46.4285 194.374 47.0649C194.81 47.7013 194.648 48.5694 194.014 49.0048C193.771 49.1723 193.498 49.2504 193.224 49.2504C192.78 49.2504 192.342 49.0383 192.072 48.6447ZM189.504 45.072C189.04 44.4551 189.166 43.5815 189.783 43.1181C190.397 42.6548 191.273 42.7776 191.737 43.3945C192.2 44.0113 192.074 44.885 191.457 45.3483C191.206 45.5381 190.913 45.6274 190.62 45.6274C190.196 45.6274 189.777 45.4376 189.504 45.072ZM186.785 41.6081C186.297 41.0108 186.386 40.1315 186.98 39.6431C187.578 39.1546 188.457 39.2439 188.945 39.8385C189.434 40.4358 189.347 41.315 188.75 41.8035C188.49 42.0156 188.178 42.1189 187.865 42.1189C187.463 42.1189 187.061 41.9458 186.785 41.6081ZM183.924 38.2614C183.41 37.6864 183.461 36.8044 184.036 36.2908C184.611 35.7773 185.493 35.8275 186.006 36.4025C186.52 36.9775 186.47 37.8595 185.895 38.3731C185.627 38.6103 185.295 38.7276 184.965 38.7276C184.58 38.7276 184.198 38.5713 183.924 38.2614ZM180.921 35.0404C180.385 34.4849 180.396 33.6029 180.949 33.0642C181.501 32.5283 182.386 32.5395 182.922 33.0949C183.461 33.6476 183.447 34.5296 182.894 35.0683C182.623 35.3307 182.272 35.4618 181.923 35.4618C181.557 35.4618 181.194 35.3195 180.921 35.0404ZM177.786 31.9449C177.225 31.4146 177.2 30.5326 177.73 29.9715C178.258 29.4133 179.143 29.3882 179.704 29.9157C180.262 30.446 180.287 31.3309 179.757 31.8891C179.483 32.1794 179.115 32.3273 178.744 32.3273C178.4 32.3273 178.054 32.1989 177.786 31.9449ZM174.521 28.9834C173.937 28.4782 173.876 27.599 174.381 27.0156C174.889 26.4351 175.768 26.3737 176.352 26.8789C176.932 27.3841 176.994 28.2661 176.488 28.8467C176.212 29.1649 175.824 29.3268 175.436 29.3268C175.11 29.3268 174.786 29.2151 174.521 28.9834ZM171.132 26.1643C170.529 25.6842 170.432 24.8078 170.912 24.2049C171.392 23.602 172.271 23.5015 172.874 23.9816C173.477 24.4645 173.574 25.3409 173.094 25.9438C172.818 26.2899 172.413 26.4686 172.003 26.4686C171.696 26.4686 171.389 26.3709 171.132 26.1643ZM42.2441 24.1351C41.7808 23.5211 41.9036 22.6446 42.5177 22.1813C43.1345 21.7179 44.0081 21.8407 44.4743 22.4576C44.9376 23.0717 44.812 23.9481 44.1979 24.4114C43.9467 24.6013 43.6509 24.6906 43.3578 24.6906C42.9363 24.6906 42.5176 24.5008 42.2441 24.1351ZM167.629 23.4903C167.007 23.0354 166.87 22.1617 167.325 21.5393C167.78 20.9169 168.651 20.7829 169.273 21.2351H169.276C169.898 21.69 170.032 22.5637 169.577 23.1861C169.307 23.5601 168.88 23.7583 168.45 23.7583C168.165 23.7583 167.878 23.6718 167.629 23.4903ZM45.8308 21.4779C45.3954 20.8443 45.5544 19.9734 46.188 19.5352C46.8244 19.0998 47.6925 19.2589 48.1307 19.8953C48.5689 20.5289 48.407 21.3969 47.7734 21.8352C47.5306 22.0026 47.2543 22.0808 46.9835 22.0808C46.5397 22.0808 46.1015 21.8714 45.8308 21.4779ZM164.015 20.9671C163.373 20.54 163.2 19.672 163.627 19.03C164.054 18.3908 164.922 18.2178 165.561 18.6448C166.203 19.0719 166.376 19.9399 165.949 20.5819C165.681 20.9838 165.237 21.2016 164.788 21.2016C164.52 21.2016 164.252 21.1262 164.015 20.9671ZM49.5291 18.9742C49.1188 18.321 49.3169 17.4585 49.9673 17.0482C50.6204 16.6407 51.4829 16.8361 51.8932 17.4892C52.3035 18.1424 52.1053 19.0021 51.4522 19.4124C51.2233 19.5575 50.9665 19.6273 50.7125 19.6273C50.2492 19.6273 49.7942 19.3956 49.5291 18.9742ZM160.294 18.5974C159.635 18.1982 159.426 17.3385 159.825 16.6798C160.224 16.0211 161.084 15.8117 161.743 16.2109C162.401 16.6128 162.611 17.4697 162.212 18.1284C161.949 18.5611 161.489 18.8011 161.017 18.8011C160.771 18.8011 160.52 18.7341 160.294 18.5974ZM53.3307 16.6296C52.9483 15.9597 53.1827 15.1056 53.8498 14.726C54.5197 14.3436 55.371 14.5752 55.7534 15.2451C56.1358 15.915 55.9041 16.7663 55.2342 17.1487C55.0137 17.2743 54.7765 17.3329 54.542 17.3329C54.0592 17.3329 53.5874 17.0789 53.3307 16.6296ZM156.476 16.3895C155.8 16.0155 155.555 15.1698 155.926 14.4943C156.297 13.8188 157.146 13.5704 157.821 13.9444C158.496 14.3156 158.742 15.1642 158.371 15.8396C158.117 16.3002 157.64 16.5626 157.148 16.5626C156.919 16.5626 156.688 16.5067 156.476 16.3895ZM57.2271 14.4468C56.8727 13.763 57.1434 12.92 57.8272 12.5683C58.5111 12.2139 59.354 12.4846 59.7085 13.1685C60.0602 13.8551 59.7894 14.6952 59.1056 15.0497C58.9018 15.153 58.6841 15.2032 58.4664 15.2032C57.9612 15.2032 57.4728 14.9269 57.2271 14.4468ZM152.565 14.3436C151.876 14.0002 151.594 13.1629 151.937 12.4734C152.278 11.7812 153.115 11.4993 153.807 11.8426C154.497 12.186 154.779 13.0233 154.435 13.7127C154.192 14.204 153.698 14.4887 153.185 14.4887C152.976 14.4887 152.766 14.4412 152.565 14.3436ZM61.2129 12.4344C60.8892 11.7338 61.1934 10.9048 61.894 10.581C62.5918 10.26 63.4207 10.5643 63.7445 11.2621C64.0683 11.9627 63.7641 12.7916 63.0635 13.1154C62.8737 13.202 62.6755 13.2438 62.4801 13.2438C61.9526 13.2438 61.4474 12.9452 61.2129 12.4344ZM148.571 12.4679C147.868 12.1552 147.549 11.329 147.862 10.6257C148.175 9.91949 149.001 9.60408 149.704 9.9167C150.408 10.2293 150.726 11.0527 150.413 11.7589C150.182 12.2781 149.674 12.5879 149.138 12.5879C148.948 12.5879 148.755 12.5488 148.571 12.4679ZM65.2797 10.5922C64.9866 9.88041 65.3271 9.06538 66.0389 8.7723C66.7534 8.47922 67.5684 8.81975 67.8615 9.53151C68.1546 10.2433 67.814 11.0611 67.1023 11.3542C66.9265 11.424 66.7478 11.4574 66.572 11.4574C66.0221 11.4574 65.503 11.1337 65.2797 10.5922ZM144.499 10.7624C143.781 10.4805 143.43 9.67107 143.712 8.95373C143.994 8.23639 144.806 7.88191 145.523 8.16661C146.238 8.44852 146.592 9.25797 146.31 9.97531C146.092 10.5252 145.568 10.8601 145.01 10.8601C144.839 10.8601 144.666 10.8294 144.499 10.7624ZM69.4218 8.92861C69.1594 8.2029 69.5334 7.40182 70.2591 7.13944C70.9848 6.87707 71.7859 7.25109 72.0483 7.97681C72.3106 8.70252 71.9338 9.50081 71.2109 9.76597C71.0546 9.8218 70.8927 9.84971 70.7364 9.84971C70.1642 9.84971 69.6283 9.49522 69.4218 8.92861ZM140.357 9.23285C139.628 8.98164 139.243 8.18894 139.491 7.46043C139.745 6.73193 140.538 6.34395 141.267 6.59516C141.995 6.84637 142.383 7.64186 142.132 8.37037C141.931 8.94815 141.392 9.311 140.812 9.311C140.661 9.311 140.507 9.28588 140.357 9.23285ZM73.6337 7.44089C73.402 6.70402 73.8095 5.92248 74.5464 5.69081C75.2804 5.45914 76.0648 5.86665 76.2964 6.60353C76.5281 7.33762 76.1178 8.12195 75.3837 8.35362C75.2442 8.39828 75.1018 8.41782 74.965 8.41782C74.3705 8.41782 73.8207 8.03542 73.6337 7.44089ZM136.164 7.88749C135.425 7.66698 135.003 6.89103 135.224 6.15136C135.444 5.41168 136.22 4.993 136.96 5.21351C137.697 5.43122 138.118 6.20997 137.898 6.94685C137.719 7.55254 137.164 7.9461 136.561 7.9461C136.429 7.9461 136.295 7.92657 136.164 7.88749ZM77.9041 6.13461C77.7032 5.38936 78.1442 4.62456 78.8894 4.42639C79.6347 4.22542 80.3995 4.66643 80.5976 5.41169C80.7986 6.15694 80.3576 6.92173 79.6123 7.1227C79.4923 7.1534 79.3695 7.17015 79.2495 7.17015C78.6354 7.17015 78.0688 6.75705 77.9041 6.13461ZM131.916 6.72076C131.168 6.53375 130.713 5.77454 130.903 5.02929C131.09 4.28125 131.849 3.82628 132.597 4.01608C133.345 4.20309 133.797 4.9623 133.61 5.71034C133.451 6.34116 132.882 6.76542 132.257 6.76542C132.145 6.76542 132.031 6.75147 131.916 6.72076ZM82.2249 5.01254C82.0574 4.26171 82.5319 3.51645 83.2827 3.34898C84.0364 3.18151 84.7816 3.65601 84.9491 4.40685C85.1165 5.16048 84.642 5.90573 83.8912 6.0732C83.7879 6.09553 83.6875 6.1067 83.587 6.1067C82.945 6.1067 82.37 5.66289 82.2249 5.01254ZM127.621 5.73826C126.867 5.58195 126.381 4.84507 126.538 4.09144C126.694 3.33503 127.431 2.84936 128.187 3.00566C128.941 3.16197 129.426 3.89885 129.27 4.65527C129.136 5.31399 128.553 5.76896 127.905 5.76896C127.813 5.76896 127.718 5.7578 127.621 5.73826ZM86.5903 4.07749C86.4563 3.31828 86.9615 2.59536 87.7207 2.45859C88.4799 2.32461 89.2028 2.82982 89.3396 3.58903C89.4736 4.34544 88.9684 5.07116 88.2092 5.20793C88.1282 5.22188 88.0445 5.23026 87.9635 5.23026C87.2992 5.23026 86.7103 4.75575 86.5903 4.07749ZM123.291 4.93997C122.529 4.81716 122.013 4.09982 122.136 3.34061C122.261 2.57861 122.976 2.06223 123.738 2.18505C124.5 2.30786 125.016 3.0252 124.891 3.7872C124.779 4.47105 124.187 4.95951 123.515 4.95951C123.442 4.95951 123.367 4.95393 123.291 4.93997ZM90.992 3.32944C90.8915 2.56465 91.4274 1.86406 92.1894 1.76078C92.9542 1.65751 93.6575 2.19342 93.758 2.95821C93.8613 3.72021 93.3254 4.4236 92.5606 4.52687C92.4992 4.53525 92.435 4.53804 92.3736 4.53804C91.687 4.53804 91.0869 4.03004 90.992 3.32944ZM118.929 4.32591C118.164 4.23659 117.617 3.54157 117.709 2.77678C117.798 2.0092 118.493 1.46492 119.258 1.55423C120.023 1.64634 120.57 2.34136 120.481 3.10615C120.394 3.81511 119.791 4.33707 119.096 4.33707C119.04 4.33707 118.985 4.33707 118.929 4.32591ZM95.4215 2.76841C95.3518 2.00083 95.9184 1.32256 96.6859 1.25278C97.4535 1.18021 98.1318 1.74683 98.2016 2.51441C98.2713 3.28199 97.7075 3.96026 96.9399 4.03283C96.8953 4.03562 96.8534 4.03841 96.8116 4.03841C96.097 4.03841 95.4885 3.49412 95.4215 2.76841ZM114.544 3.89885C113.776 3.84023 113.201 3.17034 113.26 2.39997C113.319 1.63239 113.988 1.0574 114.756 1.11601C115.524 1.17463 116.099 1.84452 116.04 2.6121C115.984 3.34619 115.373 3.90164 114.65 3.90164C114.614 3.90164 114.577 3.90164 114.541 3.89885H114.544ZM99.8735 2.39718C99.8344 1.62681 100.429 0.970871 101.196 0.934585C101.967 0.895508 102.623 1.49004 102.659 2.26041C102.698 3.02799 102.106 3.68393 101.336 3.723H101.266C100.527 3.723 99.9098 3.14243 99.8735 2.39718ZM110.145 3.65601C109.375 3.6281 108.772 2.98333 108.8 2.21296C108.825 1.44259 109.472 0.839684 110.243 0.864805C111.01 0.892717 111.616 1.53749 111.588 2.30786C111.563 3.06149 110.943 3.65601 110.195 3.65601H110.145ZM104.334 2.21296C104.328 1.43979 104.948 0.811772 105.718 0.80619C106.491 0.800607 107.119 1.42026 107.125 2.19063C107.131 2.961 106.511 3.59182 105.741 3.5974H105.729C104.965 3.5974 104.339 2.97775 104.334 2.21296Z" fill="url(#paint2_linear_1233_2341)"/>
<path d="M49.1855 158.417C49.1855 157.647 49.8108 157.022 50.5811 157.022C51.3515 157.022 51.9767 157.647 51.9767 158.417C51.9767 159.188 51.3515 159.813 50.5811 159.813C49.8108 159.813 49.1855 159.188 49.1855 158.417ZM49.1855 153.951C49.1855 153.181 49.8108 152.556 50.5811 152.556C51.3515 152.556 51.9767 153.181 51.9767 153.951C51.9767 154.722 51.3515 155.347 50.5811 155.347C49.8108 155.347 49.1855 154.722 49.1855 153.951ZM49.1855 149.486C49.1855 148.715 49.8108 148.09 50.5811 148.09C51.3515 148.09 51.9767 148.715 51.9767 149.486C51.9767 150.256 51.3515 150.881 50.5811 150.881C49.8108 150.881 49.1855 150.256 49.1855 149.486ZM49.1855 145.02C49.1855 144.249 49.8108 143.624 50.5811 143.624C51.3515 143.624 51.9767 144.249 51.9767 145.02C51.9767 145.79 51.3515 146.415 50.5811 146.415C49.8108 146.415 49.1855 145.79 49.1855 145.02ZM49.1855 140.554C49.1855 139.783 49.8108 139.158 50.5811 139.158C51.3515 139.158 51.9767 139.783 51.9767 140.554C51.9767 141.324 51.3515 141.949 50.5811 141.949C49.8108 141.949 49.1855 141.324 49.1855 140.554ZM49.1855 136.088C49.1855 135.317 49.8108 134.692 50.5811 134.692C51.3515 134.692 51.9767 135.317 51.9767 136.088C51.9767 136.858 51.3515 137.483 50.5811 137.483C49.8108 137.483 49.1855 136.858 49.1855 136.088ZM49.1855 127.156C49.1855 126.385 49.8108 125.76 50.5811 125.76C51.3515 125.76 51.9767 126.385 51.9767 127.156C51.9767 127.926 51.3515 128.551 50.5811 128.551C49.8108 128.551 49.1855 127.926 49.1855 127.156ZM49.1855 122.69C49.1855 121.92 49.8108 121.294 50.5811 121.294C51.3515 121.294 51.9767 121.92 51.9767 122.69C51.9767 123.46 51.3515 124.086 50.5811 124.086C49.8108 124.086 49.1855 123.46 49.1855 122.69ZM49.1855 118.224C49.1855 117.454 49.8108 116.828 50.5811 116.828C51.3515 116.828 51.9767 117.454 51.9767 118.224C51.9767 118.994 51.3515 119.62 50.5811 119.62C49.8108 119.62 49.1855 118.994 49.1855 118.224ZM49.1855 113.758C49.1855 112.988 49.8108 112.362 50.5811 112.362C51.3515 112.362 51.9767 112.988 51.9767 113.758C51.9767 114.528 51.3515 115.154 50.5811 115.154C49.8108 115.154 49.1855 114.528 49.1855 113.758Z" fill="url(#paint3_linear_1233_2341)"/>
<path d="M69.2827 131.532C69.2827 130.762 69.908 130.137 70.6783 130.137C71.4487 130.137 72.0739 130.762 72.0739 131.532C72.0739 132.303 71.4487 132.928 70.6783 132.928C69.908 132.928 69.2827 132.303 69.2827 131.532ZM64.8169 131.532C64.8169 130.762 65.4393 130.137 66.2124 130.137C66.9828 130.137 67.608 130.762 67.608 131.532C67.608 132.303 66.9828 132.928 66.2124 132.928C65.4393 132.928 64.8169 132.303 64.8169 131.532ZM60.351 131.532C60.351 130.762 60.9762 130.137 61.7466 130.137C62.5169 130.137 63.1422 130.762 63.1422 131.532C63.1422 132.303 62.5169 132.928 61.7466 132.928C60.9762 132.928 60.351 132.303 60.351 131.532ZM55.8851 131.532C55.8851 130.762 56.5103 130.137 57.2807 130.137C58.0511 130.137 58.6763 130.762 58.6763 131.532C58.6763 132.303 58.0511 132.928 57.2807 132.928C56.5103 132.928 55.8851 132.303 55.8851 131.532ZM51.4192 131.532C51.4192 130.762 52.0417 130.137 52.8148 130.137C53.5852 130.137 54.2104 130.762 54.2104 131.532C54.2104 132.303 53.5852 132.928 52.8148 132.928C52.0417 132.928 51.4192 132.303 51.4192 131.532ZM46.9534 131.532C46.9534 130.762 47.5786 130.137 48.3489 130.137C49.1193 130.137 49.7445 130.762 49.7445 131.532C49.7445 132.303 49.1193 132.928 48.3489 132.928C47.5786 132.928 46.9534 132.303 46.9534 131.532ZM42.4875 131.532C42.4875 130.762 43.1099 130.137 43.8831 130.137C44.6534 130.137 45.2786 130.762 45.2786 131.532C45.2786 132.303 44.6534 132.928 43.8831 132.928C43.1099 132.928 42.4875 132.303 42.4875 131.532ZM38.0216 131.532C38.0216 130.762 38.6468 130.137 39.4172 130.137C40.1875 130.137 40.8128 130.762 40.8128 131.532C40.8128 132.303 40.1875 132.928 39.4172 132.928C38.6468 132.928 38.0216 132.303 38.0216 131.532ZM33.5557 131.532C33.5557 130.762 34.1809 130.137 34.9513 130.137C35.7217 130.137 36.3469 130.762 36.3469 131.532C36.3469 132.303 35.7217 132.928 34.9513 132.928C34.1809 132.928 33.5557 132.303 33.5557 131.532ZM29.0898 131.532C29.0898 130.762 29.7151 130.137 30.4854 130.137C31.2558 130.137 31.881 130.762 31.881 131.532C31.881 132.303 31.2558 132.928 30.4854 132.928C29.7151 132.928 29.0898 132.303 29.0898 131.532Z" fill="url(#paint4_linear_1233_2341)"/>
<path d="M181.822 79.214C181.277 78.6697 181.277 77.7849 181.822 77.2406C182.366 76.6963 183.251 76.6963 183.795 77.2406C184.339 77.7849 184.339 78.6697 183.795 79.214C183.251 79.7583 182.366 79.7583 181.822 79.214ZM178.665 82.3709C178.12 81.8266 178.118 80.9445 178.665 80.3975C179.209 79.8532 180.094 79.8532 180.638 80.3975C181.182 80.9418 181.182 81.8266 180.638 82.3709C180.091 82.9179 179.209 82.9151 178.665 82.3709ZM175.508 85.5277C174.964 84.9834 174.964 84.0986 175.508 83.5543C176.052 83.01 176.937 83.01 177.481 83.5543C178.026 84.0986 178.026 84.9834 177.481 85.5277C176.937 86.072 176.052 86.072 175.508 85.5277ZM172.351 88.6846C171.807 88.1403 171.807 87.2555 172.351 86.7112C172.895 86.1669 173.78 86.1669 174.324 86.7112C174.869 87.2555 174.869 88.1403 174.324 88.6846C173.78 89.2289 172.895 89.2289 172.351 88.6846ZM169.194 91.8414C168.65 91.2971 168.647 90.4151 169.194 89.868C169.739 89.3238 170.623 89.3238 171.168 89.868C171.712 90.4123 171.712 91.2971 171.168 91.8414C170.621 92.3885 169.739 92.3857 169.194 91.8414ZM166.037 94.9983C165.493 94.454 165.493 93.5692 166.037 93.0249C166.582 92.4806 167.467 92.4806 168.011 93.0249C168.555 93.5692 168.555 94.454 168.011 94.9983C167.467 95.5426 166.582 95.5426 166.037 94.9983ZM162.881 98.1551C162.336 97.6109 162.334 96.7288 162.881 96.1818C163.425 95.6375 164.31 95.6375 164.854 96.1818C165.398 96.726 165.398 97.6109 164.854 98.1551C164.307 98.7022 163.425 98.6994 162.881 98.1551ZM159.724 101.312C159.18 100.768 159.18 99.8829 159.724 99.3386C160.268 98.7943 161.153 98.7943 161.697 99.3386C162.241 99.8829 162.241 100.768 161.697 101.312C161.153 101.856 160.268 101.856 159.724 101.312ZM156.567 104.469C156.023 103.925 156.023 103.04 156.567 102.495C157.111 101.951 157.996 101.951 158.54 102.495C159.085 103.04 159.085 103.925 158.54 104.469C157.996 105.013 157.111 105.013 156.567 104.469ZM153.41 107.626C152.866 107.081 152.866 106.197 153.41 105.652C153.954 105.108 154.839 105.108 155.384 105.652C155.928 106.197 155.928 107.081 155.384 107.626C154.839 108.17 153.954 108.17 153.41 107.626Z" fill="url(#paint5_linear_1233_2341)"/>
<path d="M185.922 104.408C185.922 103.637 186.544 103.012 187.317 103.012C188.088 103.012 188.713 103.637 188.713 104.408C188.713 105.178 188.088 105.803 187.317 105.803C186.544 105.803 185.922 105.178 185.922 104.408ZM185.922 99.9416C185.922 99.1712 186.544 98.546 187.317 98.546C188.088 98.546 188.713 99.1712 188.713 99.9416C188.713 100.712 188.088 101.337 187.317 101.337C186.544 101.337 185.922 100.712 185.922 99.9416ZM185.922 95.4757C185.922 94.7053 186.544 94.0801 187.317 94.0801C188.088 94.0801 188.713 94.7053 188.713 95.4757C188.713 96.246 188.088 96.8713 187.317 96.8713C186.544 96.8713 185.922 96.246 185.922 95.4757ZM185.922 91.0097C185.922 90.2394 186.544 89.6141 187.317 89.6141C188.088 89.6141 188.713 90.2394 188.713 91.0097C188.713 91.7801 188.088 92.4053 187.317 92.4053C186.544 92.4053 185.922 91.7801 185.922 91.0097ZM185.922 86.5438C185.922 85.7734 186.544 85.1482 187.317 85.1482C188.088 85.1482 188.713 85.7734 188.713 86.5438C188.713 87.3142 188.088 87.9394 187.317 87.9394C186.544 87.9394 185.922 87.3142 185.922 86.5438ZM185.922 82.0779C185.922 81.3075 186.544 80.6823 187.317 80.6823C188.088 80.6823 188.713 81.3075 188.713 82.0779C188.713 82.8482 188.088 83.4735 187.317 83.4735C186.544 83.4735 185.922 82.8482 185.922 82.0779ZM185.922 77.6119C185.922 76.8415 186.544 76.2163 187.317 76.2163C188.088 76.2163 188.713 76.8415 188.713 77.6119C188.713 78.3823 188.088 79.0075 187.317 79.0075C186.544 79.0075 185.922 78.3823 185.922 77.6119ZM184.632 74.4355C184.632 73.6651 185.257 73.0399 186.028 73.0399C186.798 73.0399 187.423 73.6651 187.423 74.4355C187.423 75.2059 186.798 75.8311 186.028 75.8311C185.257 75.8311 184.632 75.2059 184.632 74.4355ZM180.166 74.4355C180.166 73.6651 180.792 73.0399 181.562 73.0399C182.332 73.0399 182.958 73.6651 182.958 74.4355C182.958 75.2059 182.332 75.8311 181.562 75.8311C180.792 75.8311 180.166 75.2059 180.166 74.4355ZM175.7 74.4355C175.7 73.6651 176.326 73.0399 177.096 73.0399C177.866 73.0399 178.492 73.6651 178.492 74.4355C178.492 75.2059 177.866 75.8311 177.096 75.8311C176.326 75.8311 175.7 75.2059 175.7 74.4355ZM171.235 74.4355C171.235 73.6651 171.86 73.0399 172.63 73.0399C173.401 73.0399 174.026 73.6651 174.026 74.4355C174.026 75.2059 173.401 75.8311 172.63 75.8311C171.86 75.8311 171.235 75.2059 171.235 74.4355ZM166.769 74.4355C166.769 73.6651 167.394 73.0399 168.164 73.0399C168.935 73.0399 169.56 73.6651 169.56 74.4355C169.56 75.2059 168.935 75.8311 168.164 75.8311C167.394 75.8311 166.769 75.2059 166.769 74.4355ZM162.303 74.4355C162.303 73.6651 162.928 73.0399 163.698 73.0399C164.469 73.0399 165.094 73.6651 165.094 74.4355C165.094 75.2059 164.469 75.8311 163.698 75.8311C162.928 75.8311 162.303 75.2059 162.303 74.4355ZM157.837 74.4355C157.837 73.6651 158.462 73.0399 159.233 73.0399C160.003 73.0399 160.628 73.6651 160.628 74.4355C160.628 75.2059 160.003 75.8311 159.233 75.8311C158.462 75.8311 157.837 75.2059 157.837 74.4355ZM153.371 74.4355C153.371 73.6651 153.996 73.0399 154.767 73.0399C155.537 73.0399 156.162 73.6651 156.162 74.4355C156.162 75.2059 155.537 75.8311 154.767 75.8311C153.996 75.8311 153.371 75.2059 153.371 74.4355Z" fill="url(#paint6_linear_1233_2341)"/>
</g>
<defs>
<linearGradient id="paint0_linear_1233_2341" x1="13.5459" y1="77.0397" x2="89.329" y2="77.0397" gradientUnits="userSpaceOnUse">
<stop stop-color="#8CD6D6"/>
<stop offset="1" stop-color="#FF9F80"/>
</linearGradient>
<linearGradient id="paint1_linear_1233_2341" x1="153.53" y1="156.033" x2="101.445" y2="103.948" gradientUnits="userSpaceOnUse">
<stop stop-color="#8CD6D6"/>
<stop offset="1" stop-color="#FF9F80"/>
</linearGradient>
<linearGradient id="paint2_linear_1233_2341" x1="0.0332031" y1="107.308" x2="213.033" y2="107.308" gradientUnits="userSpaceOnUse">
<stop stop-color="#8CD6D6"/>
<stop offset="1" stop-color="#FF9F80"/>
</linearGradient>
<linearGradient id="paint3_linear_1233_2341" x1="50.5811" y1="112.362" x2="50.5811" y2="159.813" gradientUnits="userSpaceOnUse">
<stop stop-color="#8CD6D6"/>
<stop offset="1" stop-color="#FF9F80"/>
</linearGradient>
<linearGradient id="paint4_linear_1233_2341" x1="29.0898" y1="131.532" x2="72.0739" y2="131.532" gradientUnits="userSpaceOnUse">
<stop stop-color="#8CD6D6"/>
<stop offset="1" stop-color="#FF9F80"/>
</linearGradient>
<linearGradient id="paint5_linear_1233_2341" x1="153.4" y1="107.634" x2="183.795" y2="77.2394" gradientUnits="userSpaceOnUse">
<stop stop-color="#8CD6D6"/>
<stop offset="1" stop-color="#FF9F80"/>
</linearGradient>
<linearGradient id="paint6_linear_1233_2341" x1="153.371" y1="89.4215" x2="188.713" y2="89.4215" gradientUnits="userSpaceOnUse">
<stop stop-color="#8CD6D6"/>
<stop offset="1" stop-color="#FF9F80"/>
</linearGradient>
<clipPath id="clip0_1233_2341">
<rect width="213" height="213" fill="white" transform="translate(0.0332031 0.806152)"/>
</clipPath>
</defs>
</svg>
