<svg width="70" height="69" viewBox="0 0 70 69" fill="none" xmlns="http://www.w3.org/2000/svg">
<path d="M18.0829 56.7887C18.0829 56.7887 39.9601 47.3252 63.4778 52.2455" stroke="url(#paint0_linear_1204_1446)" stroke-width="2" stroke-linecap="round" stroke-linejoin="round"/>
<path d="M37.96 31.5951C38.5357 36.1948 37.6168 40.8592 35.3386 44.9015C32.8198 49.3666 28.7984 52.8003 23.9851 54.5912L18.0854 56.7887L36.8439 23.5159" stroke="url(#paint1_linear_1204_1446)" stroke-width="2" stroke-linecap="round" stroke-linejoin="round"/>
<path d="M46.1812 2.39142L34.8845 22.4171L42.8354 26.8687L49.7459 14.6126" stroke="url(#paint2_linear_1204_1446)" stroke-width="2" stroke-linecap="round" stroke-linejoin="round"/>
<path d="M37.4709 17.8281L49.7459 14.6126" stroke="url(#paint3_linear_1204_1446)" stroke-width="2" stroke-linecap="round" stroke-linejoin="round"/>
<path d="M46.1814 2.39142C59.3402 7.02888 68.7667 19.5328 68.7667 34.2342" stroke="url(#paint4_linear_1204_1446)" stroke-width="2" stroke-linecap="round" stroke-linejoin="round"/>
<path d="M63.24 52.7249C57.1862 61.9244 46.7462 68 34.8847 68C16.1722 68 1 52.8838 1 34.2343C1 17.917 12.6156 4.30359 28.0553 1.1554" stroke="url(#paint5_linear_1204_1446)" stroke-width="2" stroke-linecap="round" stroke-linejoin="round"/>
<defs>
<linearGradient id="paint0_linear_1204_1446" x1="17.0019" y1="53.8074" x2="64.5589" y2="53.8074" gradientUnits="userSpaceOnUse">
<stop stop-color="#8CD6D6"/>
<stop offset="1" stop-color="#FF9F80"/>
</linearGradient>
<linearGradient id="paint1_linear_1204_1446" x1="36.4308" y1="45.1757" x2="26.5424" y2="39.6001" gradientUnits="userSpaceOnUse">
<stop stop-color="#8CD6D6"/>
<stop offset="1" stop-color="#FF9F80"/>
</linearGradient>
<linearGradient id="paint2_linear_1204_1446" x1="49.4288" y1="17.3894" x2="39.6086" y2="11.8523" gradientUnits="userSpaceOnUse">
<stop stop-color="#8CD6D6"/>
<stop offset="1" stop-color="#FF9F80"/>
</linearGradient>
<linearGradient id="paint3_linear_1204_1446" x1="48.5313" y1="18.9813" x2="38.7111" y2="13.4442" gradientUnits="userSpaceOnUse">
<stop stop-color="#8CD6D6"/>
<stop offset="1" stop-color="#FF9F80"/>
</linearGradient>
<linearGradient id="paint4_linear_1204_1446" x1="45.1004" y1="18.3128" x2="69.8477" y2="18.3128" gradientUnits="userSpaceOnUse">
<stop stop-color="#8CD6D6"/>
<stop offset="1" stop-color="#FF9F80"/>
</linearGradient>
<linearGradient id="paint5_linear_1204_1446" x1="-0.0810241" y1="34.5763" x2="64.321" y2="34.5763" gradientUnits="userSpaceOnUse">
<stop stop-color="#8CD6D6"/>
<stop offset="1" stop-color="#FF9F80"/>
</linearGradient>
</defs>
</svg>
