<svg width="219" height="223" viewBox="0 0 219 223" fill="none" xmlns="http://www.w3.org/2000/svg">
<g clip-path="url(#clip0_1233_2060)">
<path d="M56.1434 185.104C55.8258 184.375 56.1607 183.524 56.8912 183.207C57.6247 182.892 58.4736 183.227 58.7912 183.957C59.1088 184.686 58.7739 185.537 58.0433 185.854C57.8556 185.935 57.6593 185.972 57.4687 185.972C56.9114 185.972 56.3802 185.649 56.1434 185.104ZM60.4226 183.328C60.1396 182.581 60.515 181.75 61.26 181.468C62.0049 181.182 62.8394 181.557 63.1224 182.301C63.4054 183.045 63.0329 183.879 62.285 184.161C62.1175 184.225 61.9443 184.257 61.7739 184.257C61.1907 184.257 60.6421 183.902 60.4226 183.328ZM64.7538 181.704C64.4882 180.954 64.8809 180.13 65.6345 179.864H65.6316C66.3852 179.599 67.211 179.991 67.4767 180.741C67.7423 181.491 67.3496 182.316 66.5989 182.581C66.4401 182.639 66.2755 182.665 66.1167 182.665C65.5219 182.665 64.9646 182.295 64.7538 181.704ZM69.1197 180.176C68.8684 179.42 69.2756 178.604 70.0321 178.353C70.7857 178.102 71.6058 178.509 71.857 179.264C72.1082 180.02 71.701 180.836 70.9445 181.087C70.7915 181.139 70.6385 181.162 70.4883 181.162C69.8819 181.162 69.3189 180.781 69.1168 180.176H69.1197ZM73.5115 178.731C73.2747 177.97 73.6963 177.162 74.4557 176.923C75.2151 176.683 76.0265 177.107 76.2661 177.866C76.5029 178.627 76.0813 179.435 75.319 179.674C75.1747 179.72 75.0303 179.74 74.8859 179.74C74.2738 179.74 73.7021 179.345 73.5086 178.731H73.5115ZM77.9293 177.361C77.7041 176.597 78.1401 175.795 78.9024 175.567C79.6676 175.342 80.4703 175.778 80.6955 176.542C80.9236 177.303 80.4876 178.108 79.7224 178.333C79.5867 178.373 79.4481 178.393 79.3124 178.393C78.6887 178.393 78.1141 177.987 77.9293 177.361ZM82.3645 176.063C82.1508 175.296 82.6012 174.5 83.3693 174.287C84.1374 174.073 84.9343 174.52 85.148 175.287C85.3616 176.055 84.9112 176.851 84.146 177.064C84.0132 177.099 83.8833 177.116 83.7562 177.116C83.1239 177.116 82.5435 176.701 82.3645 176.063ZM86.8227 174.835C86.6206 174.065 87.0826 173.277 87.8535 173.076C88.6245 172.874 89.4156 173.335 89.6178 174.105C89.817 174.875 89.3579 175.662 88.5869 175.864C88.4628 175.896 88.3415 175.913 88.2202 175.913C87.5792 175.913 86.9931 175.484 86.8227 174.835ZM91.2983 173.678C91.1077 172.905 91.5812 172.124 92.358 171.933C93.1318 171.743 93.9114 172.216 94.102 172.989C94.2926 173.762 93.819 174.543 93.0452 174.734C92.9297 174.763 92.8142 174.777 92.6987 174.777C92.0519 174.777 91.46 174.336 91.2983 173.678ZM95.7912 172.588C95.6122 171.812 96.0973 171.039 96.874 170.861C97.6536 170.682 98.4274 171.169 98.6065 171.945C98.7826 172.721 98.2975 173.494 97.5208 173.672C97.4139 173.696 97.3042 173.71 97.1974 173.71C96.539 173.71 95.9442 173.257 95.7912 172.588ZM100.301 171.57C100.134 170.791 100.631 170.024 101.41 169.86C102.19 169.693 102.958 170.189 103.122 170.967C103.29 171.746 102.793 172.513 102.014 172.678C101.913 172.701 101.812 172.712 101.71 172.712C101.043 172.712 100.446 172.248 100.301 171.57ZM104.823 170.618C104.67 169.837 105.178 169.078 105.961 168.926C106.743 168.77 107.503 169.277 107.656 170.062C107.812 170.84 107.301 171.599 106.518 171.755C106.426 171.772 106.33 171.781 106.238 171.781C105.562 171.781 104.959 171.305 104.823 170.618ZM109.362 169.739C109.218 168.954 109.738 168.205 110.523 168.063C111.308 167.919 112.059 168.441 112.201 169.223C112.345 170.007 111.822 170.757 111.04 170.898C110.95 170.915 110.867 170.924 110.78 170.924C110.096 170.924 109.486 170.434 109.362 169.739ZM202.385 170.287C201.602 170.137 201.088 169.381 201.239 168.6C201.386 167.818 202.145 167.305 202.928 167.455C203.71 167.605 204.224 168.36 204.074 169.142C203.941 169.831 203.335 170.313 202.656 170.313C202.567 170.313 202.477 170.304 202.385 170.287ZM113.91 168.928C113.78 168.141 114.314 167.4 115.1 167.27C115.888 167.14 116.63 167.671 116.76 168.458C116.89 169.243 116.359 169.984 115.57 170.114C115.492 170.128 115.412 170.134 115.334 170.134C114.641 170.134 114.028 169.632 113.91 168.928ZM197.872 169.476C197.086 169.344 196.558 168.6 196.691 167.815C196.824 167.028 197.569 166.5 198.354 166.633C199.139 166.765 199.671 167.509 199.538 168.294C199.419 168.998 198.807 169.497 198.114 169.497C198.036 169.497 197.955 169.488 197.875 169.476H197.872ZM118.472 168.19C118.357 167.4 118.9 166.667 119.688 166.549C120.476 166.431 121.212 166.976 121.328 167.763C121.446 168.551 120.903 169.286 120.115 169.401C120.043 169.413 119.971 169.419 119.902 169.419C119.197 169.419 118.579 168.905 118.472 168.19ZM193.338 168.761C192.547 168.646 192.002 167.916 192.117 167.126C192.233 166.339 192.966 165.794 193.754 165.909C194.545 166.024 195.091 166.757 194.976 167.544C194.869 168.262 194.251 168.778 193.549 168.778C193.477 168.778 193.408 168.773 193.336 168.761H193.338ZM123.046 167.521C122.942 166.731 123.496 166.007 124.288 165.903C125.079 165.796 125.803 166.353 125.91 167.14C126.014 167.931 125.457 168.654 124.669 168.761C124.602 168.77 124.539 168.773 124.475 168.773C123.765 168.773 123.144 168.245 123.046 167.521ZM127.628 166.927C127.539 166.137 128.105 165.422 128.896 165.329C129.69 165.237 130.406 165.802 130.499 166.595C130.591 167.385 130.022 168.101 129.231 168.193C129.173 168.199 129.118 168.202 129.063 168.202C128.339 168.202 127.715 167.662 127.628 166.927ZM188.794 168.147C188.002 168.049 187.442 167.328 187.54 166.538C187.639 165.747 188.36 165.185 189.152 165.286C189.943 165.384 190.506 166.105 190.405 166.895C190.315 167.625 189.692 168.158 188.975 168.158C188.915 168.158 188.854 168.153 188.794 168.147ZM132.222 166.408C132.141 165.615 132.722 164.908 133.516 164.83C134.31 164.752 135.015 165.329 135.095 166.122C135.173 166.915 134.596 167.622 133.802 167.7C133.753 167.706 133.704 167.708 133.657 167.708C132.924 167.708 132.295 167.152 132.222 166.408ZM184.234 167.625C183.443 167.541 182.866 166.835 182.949 166.042C183.03 165.248 183.74 164.675 184.535 164.755C185.329 164.839 185.903 165.548 185.822 166.339C185.744 167.083 185.115 167.633 184.384 167.633C184.335 167.633 184.286 167.631 184.234 167.625ZM136.822 165.964C136.756 165.171 137.348 164.476 138.142 164.409C138.936 164.343 139.634 164.934 139.701 165.727C139.764 166.52 139.175 167.218 138.381 167.282C138.341 167.287 138.3 167.287 138.26 167.287C137.515 167.287 136.886 166.716 136.822 165.964ZM179.666 167.198C178.872 167.132 178.283 166.434 178.35 165.641C178.416 164.845 179.112 164.256 179.909 164.323C180.706 164.389 181.295 165.087 181.228 165.88C181.165 166.633 180.535 167.201 179.79 167.201C179.75 167.201 179.71 167.201 179.669 167.198H179.666ZM141.428 165.597C141.376 164.804 141.979 164.118 142.776 164.066C143.573 164.011 144.26 164.614 144.312 165.41C144.364 166.203 143.764 166.889 142.967 166.941C142.935 166.941 142.903 166.941 142.871 166.941C142.115 166.941 141.482 166.359 141.43 165.595L141.428 165.597ZM175.09 166.861C174.296 166.812 173.689 166.125 173.741 165.332C173.79 164.536 174.478 163.933 175.272 163.982C176.069 164.034 176.672 164.718 176.623 165.514C176.574 166.278 175.939 166.863 175.182 166.863C175.15 166.863 175.121 166.863 175.09 166.861ZM146.042 165.312C146.001 164.516 146.616 163.838 147.413 163.801C148.21 163.763 148.886 164.378 148.923 165.173C148.964 165.967 148.349 166.644 147.552 166.682C147.529 166.685 147.506 166.685 147.483 166.685C146.717 166.685 146.079 166.082 146.042 165.312ZM170.507 166.615C169.71 166.581 169.092 165.906 169.127 165.113C169.162 164.317 169.837 163.7 170.634 163.734C171.431 163.769 172.046 164.441 172.012 165.24C171.98 166.013 171.339 166.618 170.571 166.618C170.551 166.618 170.527 166.615 170.507 166.615ZM150.656 165.104C150.633 164.308 151.259 163.642 152.056 163.619C152.853 163.596 153.52 164.219 153.543 165.015C153.566 165.811 152.943 166.477 152.146 166.503H152.1C151.323 166.503 150.682 165.886 150.656 165.104ZM165.919 166.46C165.122 166.44 164.493 165.776 164.513 164.98C164.533 164.184 165.194 163.556 165.991 163.576C166.788 163.596 167.418 164.256 167.397 165.052C167.377 165.837 166.736 166.46 165.954 166.46H165.919ZM155.276 164.98C155.267 164.181 155.905 163.53 156.702 163.518C157.499 163.509 158.155 164.147 158.163 164.943C158.172 165.739 157.534 166.393 156.737 166.402H156.72C155.931 166.402 155.287 165.77 155.276 164.98ZM161.328 166.388C160.531 166.385 159.89 165.733 159.893 164.937C159.899 164.141 160.548 163.498 161.345 163.504C162.142 163.509 162.786 164.158 162.78 164.954C162.78 165.747 162.131 166.388 161.337 166.388H161.328Z" fill="url(#paint0_linear_1233_2060)"/>
<path d="M56.6334 184.839C56.3533 184.092 56.7316 183.262 57.4794 182.985C58.2273 182.705 59.0589 183.083 59.336 183.83C59.6161 184.577 59.2379 185.407 58.49 185.684C58.3225 185.748 58.1522 185.776 57.9847 185.776C57.3986 185.776 56.8499 185.419 56.6334 184.839ZM60.9588 183.224C60.6816 182.477 61.0599 181.647 61.8077 181.37C62.5556 181.09 63.3872 181.471 63.6644 182.215C63.9444 182.962 63.5662 183.792 62.8183 184.069C62.6509 184.133 62.4805 184.161 62.313 184.161C61.7269 184.161 61.1754 183.804 60.9588 183.224ZM65.2871 181.609C65.0099 180.862 65.3882 180.032 66.136 179.755C66.881 179.475 67.7126 179.853 67.9927 180.6C68.2728 181.347 67.8916 182.177 67.1466 182.454C66.9792 182.518 66.8088 182.546 66.6413 182.546C66.0552 182.546 65.5037 182.189 65.2871 181.609ZM58.7499 182.244C58.0569 181.854 57.8086 180.975 58.1984 180.28C58.5911 179.587 59.4718 179.339 60.1647 179.729C60.8606 180.118 61.109 180.998 60.7163 181.693C60.4506 182.163 59.9626 182.428 59.4573 182.428C59.2177 182.428 58.9751 182.37 58.7499 182.244ZM69.6154 179.994C69.3353 179.247 69.7165 178.417 70.4615 178.14C71.2093 177.86 72.0409 178.238 72.321 178.985C72.5982 179.732 72.2199 180.562 71.4721 180.839C71.3075 180.903 71.1371 180.931 70.9668 180.931C70.3835 180.931 69.832 180.574 69.6154 179.994ZM73.9437 178.379C73.6637 177.632 74.0419 176.802 74.7898 176.525C75.5376 176.245 76.3692 176.623 76.6493 177.37C76.9265 178.117 76.5482 178.947 75.8004 179.227C75.6358 179.288 75.4654 179.316 75.2951 179.316C74.7118 179.316 74.1603 178.959 73.9437 178.379ZM61.0137 178.22C60.3178 177.831 60.0723 176.952 60.4622 176.257C60.852 175.564 61.7326 175.316 62.4285 175.706C63.1244 176.095 63.3698 176.975 62.98 177.67C62.7144 178.14 62.2235 178.405 61.7182 178.405C61.4814 178.405 61.2389 178.347 61.0137 178.22ZM78.2692 176.761C77.9602 176.029 78.3038 175.184 79.0401 174.872C79.7735 174.564 80.6196 174.907 80.9314 175.639C81.2404 176.375 80.8968 177.22 80.1633 177.528C79.9785 177.606 79.788 177.644 79.6003 177.644C79.0372 177.644 78.503 177.312 78.2692 176.761ZM82.5022 174.915C82.147 174.203 82.4329 173.338 83.1461 172.98C83.8593 172.626 84.7284 172.914 85.0836 173.623C85.4416 174.336 85.1529 175.204 84.4397 175.559C84.2318 175.662 84.0123 175.711 83.7958 175.711C83.2645 175.711 82.7563 175.42 82.5022 174.915ZM63.2774 174.197C62.5816 173.808 62.3332 172.928 62.7259 172.233C63.1157 171.541 63.9964 171.293 64.6923 171.683C65.3882 172.075 65.6336 172.952 65.2438 173.647C64.9782 174.117 64.4873 174.382 63.982 174.382C63.7423 174.382 63.4998 174.324 63.2774 174.197ZM86.6082 172.802C86.2039 172.112 86.4378 171.23 87.125 170.826C87.8122 170.425 88.6958 170.656 89.1 171.345C89.5014 172.032 89.2704 172.914 88.5832 173.318C88.3522 173.45 88.1039 173.514 87.8555 173.514C87.3589 173.514 86.8767 173.257 86.6082 172.802ZM90.5669 170.422C90.1193 169.765 90.2926 168.868 90.9538 168.421C91.615 167.977 92.513 168.15 92.9606 168.81C93.4053 169.471 93.232 170.365 92.5708 170.812C92.3225 170.979 92.0424 171.057 91.7652 171.057C91.3003 171.057 90.8441 170.835 90.5669 170.422ZM65.5412 170.174C64.8453 169.785 64.597 168.905 64.9897 168.21C65.3795 167.518 66.2602 167.27 66.9532 167.662C67.6491 168.052 67.8974 168.928 67.5076 169.623C67.2419 170.096 66.7511 170.359 66.2458 170.359C66.0061 170.359 65.7635 170.301 65.5412 170.174ZM94.361 167.795C93.8759 167.166 93.9914 166.261 94.6209 165.773C95.2503 165.283 96.157 165.398 96.645 166.03C97.133 166.659 97.0175 167.564 96.388 168.052C96.1253 168.256 95.8134 168.354 95.5044 168.354C95.0742 168.354 94.6469 168.161 94.361 167.795ZM67.8021 166.151C67.1091 165.762 66.8608 164.882 67.2506 164.187C67.6404 163.495 68.5211 163.247 69.217 163.639C69.9128 164.029 70.1583 164.905 69.7685 165.6C69.5028 166.073 69.0148 166.336 68.5095 166.336C68.2699 166.336 68.0273 166.278 67.8021 166.151ZM97.9819 164.925C97.4535 164.329 97.5112 163.417 98.1089 162.892C98.7066 162.365 99.6162 162.419 100.145 163.019C100.673 163.616 100.618 164.528 100.018 165.052C99.7461 165.295 99.4025 165.413 99.0647 165.413C98.6633 165.413 98.2677 165.249 97.9819 164.925ZM70.0659 162.128C69.37 161.739 69.1246 160.859 69.5144 160.164C69.9042 159.472 70.7848 159.224 71.4807 159.616C72.1766 160.005 72.422 160.885 72.0322 161.577C71.7666 162.05 71.2786 162.316 70.7733 162.316C70.5336 162.316 70.2911 162.255 70.0659 162.128ZM101.406 161.831C100.843 161.269 100.84 160.354 101.401 159.792C101.964 159.227 102.879 159.224 103.442 159.786C104.008 160.346 104.011 161.26 103.448 161.825C103.168 162.108 102.795 162.249 102.426 162.249C102.056 162.249 101.689 162.111 101.406 161.831ZM104.626 158.52C104.025 157.995 103.962 157.084 104.487 156.484C105.013 155.884 105.922 155.824 106.523 156.346C107.124 156.871 107.187 157.782 106.662 158.382C106.376 158.708 105.977 158.875 105.573 158.875C105.238 158.875 104.897 158.757 104.626 158.52ZM72.3296 158.108C71.6338 157.716 71.3854 156.836 71.7781 156.144C72.1679 155.449 73.0486 155.201 73.7416 155.593C74.4375 155.982 74.6858 156.862 74.296 157.557C74.0304 158.027 73.5395 158.292 73.0342 158.292C72.7945 158.292 72.552 158.232 72.3296 158.108ZM107.62 155.005C106.988 154.523 106.867 153.618 107.352 152.986C107.837 152.352 108.743 152.233 109.376 152.715C110.008 153.199 110.129 154.105 109.644 154.737C109.361 155.109 108.931 155.302 108.498 155.302C108.192 155.302 107.883 155.207 107.62 155.005ZM74.5905 154.085C73.8975 153.693 73.6492 152.816 74.039 152.121C74.4317 151.426 75.3124 151.178 76.0054 151.57C76.7013 151.959 76.9496 152.839 76.5569 153.534C76.2912 154.004 75.8033 154.269 75.298 154.269C75.0583 154.269 74.8157 154.209 74.5905 154.085ZM110.384 151.308C109.722 150.863 109.543 149.969 109.985 149.306C110.427 148.646 111.322 148.464 111.986 148.908C112.65 149.349 112.829 150.246 112.387 150.907C112.107 151.325 111.651 151.55 111.183 151.55C110.909 151.55 110.629 151.472 110.384 151.308ZM76.8543 150.062C76.1584 149.669 75.913 148.793 76.3028 148.098C76.6926 147.403 77.5733 147.158 78.2692 147.547C78.965 147.936 79.2105 148.816 78.8207 149.511C78.555 149.981 78.0641 150.246 77.5617 150.246C77.3221 150.246 77.0795 150.186 76.8543 150.062ZM112.901 147.437C112.211 147.039 111.975 146.157 112.373 145.468C112.771 144.778 113.655 144.542 114.345 144.94C115.035 145.338 115.272 146.217 114.874 146.91C114.605 147.371 114.12 147.631 113.62 147.631C113.378 147.631 113.13 147.567 112.901 147.437ZM79.1181 146.039C78.4222 145.649 78.1739 144.77 78.5666 144.075C78.9564 143.38 79.8371 143.134 80.5329 143.524C81.2259 143.913 81.4743 144.793 81.0844 145.488C80.8188 145.958 80.3279 146.223 79.8226 146.223C79.583 146.223 79.3404 146.163 79.1181 146.039ZM115.162 143.411C114.449 143.059 114.155 142.194 114.507 141.479C114.862 140.767 115.728 140.473 116.441 140.827C117.158 141.179 117.449 142.044 117.097 142.757C116.846 143.264 116.335 143.561 115.8 143.561C115.587 143.561 115.367 143.512 115.162 143.411ZM81.3819 142.015C80.686 141.626 80.4376 140.747 80.8275 140.052C81.2201 139.356 82.1008 139.111 82.7938 139.501C83.4897 139.89 83.738 140.77 83.3453 141.465C83.0826 141.935 82.5917 142.2 82.0864 142.2C81.8467 142.2 81.6042 142.139 81.3819 142.015ZM117.158 139.25C116.421 138.944 116.072 138.099 116.378 137.364C116.684 136.628 117.53 136.282 118.266 136.588C119.003 136.894 119.352 137.736 119.046 138.471C118.815 139.028 118.278 139.359 117.712 139.359C117.527 139.359 117.339 139.325 117.158 139.25ZM83.6427 137.992C82.9469 137.603 82.7014 136.723 83.0912 136.028C83.481 135.333 84.3617 135.088 85.0576 135.478C85.7535 135.867 85.9989 136.747 85.6091 137.442C85.3435 137.912 84.8555 138.177 84.3502 138.177C84.1105 138.177 83.868 138.116 83.6427 137.992ZM118.878 134.967C118.125 134.71 117.723 133.891 117.98 133.139C118.237 132.383 119.057 131.982 119.814 132.239C120.568 132.496 120.969 133.315 120.712 134.07C120.507 134.667 119.947 135.045 119.346 135.045C119.19 135.045 119.034 135.022 118.878 134.967ZM85.9065 133.969C85.2106 133.58 84.9623 132.7 85.355 132.005C85.7448 131.31 86.6255 131.065 87.3214 131.454C88.0172 131.844 88.2627 132.723 87.8729 133.418C87.6072 133.889 87.1164 134.154 86.611 134.154C86.3714 134.154 86.1288 134.096 85.9065 133.969ZM120.319 130.584C119.551 130.376 119.095 129.583 119.303 128.816C119.511 128.046 120.305 127.593 121.073 127.801C121.844 128.008 122.3 128.798 122.089 129.568C121.916 130.212 121.333 130.633 120.698 130.633C120.573 130.633 120.446 130.618 120.319 130.584ZM88.1703 129.946C87.4744 129.557 87.2261 128.677 87.6188 127.982C88.0086 127.287 88.8893 127.042 89.5823 127.431C90.2781 127.821 90.5265 128.7 90.1366 129.395C89.871 129.865 89.3801 130.131 88.8748 130.131C88.6352 130.131 88.3926 130.073 88.1703 129.946ZM121.471 126.116C120.692 125.958 120.187 125.196 120.345 124.415C120.501 123.636 121.264 123.131 122.046 123.287C122.826 123.446 123.331 124.207 123.175 124.989C123.036 125.672 122.433 126.145 121.76 126.145C121.665 126.145 121.57 126.134 121.471 126.116ZM90.4312 125.923C89.7382 125.534 89.4899 124.654 89.8797 123.959C90.2724 123.267 91.1501 123.019 91.846 123.408C92.5419 123.801 92.7873 124.677 92.3975 125.372C92.1319 125.842 91.641 126.108 91.1386 126.108C90.8989 126.108 90.6564 126.05 90.4312 125.923ZM92.6949 121.9C91.9991 121.511 91.7536 120.631 92.1434 119.936C92.5332 119.244 93.4139 118.996 94.1098 119.385C94.8057 119.777 95.0511 120.654 94.6613 121.349C94.3957 121.822 93.9048 122.085 93.3995 122.085C93.1598 122.085 92.9173 122.027 92.6949 121.9ZM122.335 121.583C121.544 121.476 120.989 120.749 121.096 119.959C121.203 119.169 121.931 118.618 122.719 118.725C123.51 118.831 124.061 119.558 123.955 120.346C123.856 121.069 123.239 121.594 122.525 121.594C122.462 121.594 122.395 121.591 122.332 121.583H122.335ZM94.9587 117.877C94.2628 117.488 94.0145 116.608 94.4072 115.913C94.797 115.221 95.6777 114.973 96.3707 115.362C97.0666 115.754 97.3149 116.631 96.9251 117.326C96.6594 117.799 96.1686 118.061 95.6633 118.061C95.4236 118.061 95.181 118.004 94.9587 117.877ZM122.901 117.003C122.104 116.945 121.503 116.256 121.561 115.463C121.616 114.667 122.306 114.07 123.103 114.125C123.897 114.183 124.497 114.869 124.44 115.665C124.388 116.426 123.753 117.006 123.002 117.006C122.967 117.006 122.932 117.006 122.901 117.003ZM97.2196 113.854C96.5266 113.464 96.2783 112.585 96.6681 111.89C97.0608 111.198 97.9386 110.95 98.6345 111.342C99.3303 111.731 99.5758 112.611 99.186 113.303C98.9203 113.776 98.4323 114.041 97.927 114.041C97.6874 114.041 97.4448 113.981 97.2196 113.854ZM123.166 112.395C122.369 112.395 121.726 111.743 121.731 110.947C121.734 110.151 122.387 109.508 123.184 109.511C123.981 109.516 124.622 110.165 124.619 110.961C124.613 111.754 123.969 112.395 123.175 112.395H123.166ZM99.4834 109.834C98.7875 109.441 98.5421 108.562 98.9319 107.87C99.3217 107.175 100.202 106.927 100.898 107.319C101.594 107.708 101.84 108.588 101.45 109.28C101.184 109.753 100.693 110.018 100.188 110.018C99.9482 110.018 99.7057 109.958 99.4834 109.834ZM121.607 106.428C121.561 105.632 122.167 104.948 122.964 104.902C123.761 104.853 124.443 105.462 124.492 106.255C124.538 107.051 123.932 107.734 123.135 107.78C123.106 107.783 123.077 107.783 123.048 107.783C122.291 107.783 121.653 107.192 121.607 106.428ZM101.747 105.81C101.051 105.418 100.803 104.539 101.196 103.847C101.585 103.151 102.466 102.903 103.162 103.296C103.855 103.685 104.103 104.565 103.714 105.257C103.448 105.73 102.957 105.995 102.452 105.995C102.212 105.995 101.969 105.934 101.747 105.81ZM121.194 101.926C121.096 101.136 121.656 100.415 122.447 100.317C123.239 100.219 123.96 100.778 124.059 101.568C124.157 102.358 123.597 103.079 122.805 103.177C122.745 103.186 122.684 103.189 122.624 103.189C121.907 103.189 121.284 102.655 121.194 101.926ZM104.008 101.787C103.315 101.395 103.067 100.516 103.457 99.8234C103.849 99.1284 104.73 98.8804 105.423 99.2726C106.119 99.6619 106.364 100.542 105.974 101.234C105.709 101.707 105.221 101.972 104.715 101.972C104.476 101.972 104.233 101.911 104.008 101.787ZM106.272 97.7643C105.576 97.3721 105.33 96.4925 105.72 95.8003C106.11 95.1053 106.991 94.8573 107.687 95.2495C108.383 95.6388 108.628 96.5184 108.238 97.2106C107.973 97.6835 107.482 97.9489 106.979 97.9489C106.74 97.9489 106.497 97.8883 106.272 97.7643ZM108.536 93.7412C107.84 93.349 107.594 92.4694 107.984 91.7772C108.374 91.0822 109.255 90.8342 109.95 91.2264C110.643 91.6157 110.892 92.4953 110.502 93.1904C110.236 93.6604 109.745 93.9258 109.24 93.9258C109 93.9258 108.758 93.8652 108.536 93.7412ZM110.799 89.7181C110.103 89.3259 109.855 88.4492 110.248 87.7541C110.638 87.0591 111.518 86.814 112.211 87.2033C112.907 87.5926 113.156 88.4722 112.766 89.1673C112.5 89.6373 112.009 89.9027 111.504 89.9027C111.264 89.9027 111.022 89.8421 110.799 89.7181ZM113.06 85.695C112.367 85.3028 112.119 84.4261 112.509 83.731C112.901 83.036 113.779 82.7909 114.475 83.1802C115.171 83.5695 115.416 84.4491 115.027 85.1442C114.761 85.6142 114.27 85.8796 113.768 85.8796C113.528 85.8796 113.285 85.819 113.06 85.695ZM115.324 81.6719C114.628 81.2826 114.383 80.403 114.773 79.7079C115.162 79.0129 116.043 78.7678 116.739 79.1571C117.435 79.5464 117.68 80.426 117.29 81.1211C117.025 81.5911 116.534 81.8565 116.029 81.8565C115.789 81.8565 115.546 81.7959 115.324 81.6719ZM117.588 77.6488C116.892 77.2595 116.644 76.3799 117.036 75.6848C117.426 74.9898 118.307 74.7447 119 75.134C119.696 75.5262 119.944 76.4029 119.554 77.098C119.288 77.568 118.798 77.8334 118.292 77.8334C118.053 77.8334 117.81 77.7757 117.588 77.6488Z" fill="url(#paint1_linear_1233_2060)"/>
<path d="M138.286 86.7966C137.59 86.4073 137.344 85.5277 137.734 84.8326C138.124 84.1376 139.005 83.8925 139.7 84.2818C140.396 84.6711 140.642 85.5507 140.252 86.2458C139.986 86.7159 139.495 86.9812 138.993 86.9812C138.753 86.9812 138.511 86.9235 138.286 86.7966ZM134.555 85.5969C133.862 85.2076 133.614 84.328 134.004 83.6329C134.396 82.9379 135.277 82.6928 135.97 83.0821C136.666 83.4714 136.911 84.351 136.521 85.0461C136.256 85.5161 135.768 85.7815 135.262 85.7815C135.023 85.7815 134.78 85.7209 134.555 85.5969ZM130.527 83.3359C129.834 82.9465 129.586 82.0669 129.975 81.3748C130.368 80.6798 131.249 80.4317 131.942 80.824C132.638 81.2133 132.883 82.0929 132.493 82.785C132.231 83.258 131.74 83.5204 131.234 83.5204C130.995 83.5204 130.752 83.4628 130.527 83.3359ZM140.549 82.7735C139.854 82.3842 139.608 81.5046 139.998 80.8095C140.388 80.1174 141.268 79.8694 141.964 80.2587C142.657 80.6509 142.906 81.5276 142.516 82.2227C142.25 82.6928 141.759 82.9581 141.254 82.9581C141.014 82.9581 140.772 82.9004 140.549 82.7735ZM126.499 81.0749C125.806 80.6855 125.558 79.8059 125.95 79.1138C126.34 78.4188 127.221 78.1707 127.914 78.563C128.61 78.9523 128.858 79.8319 128.468 80.5269C128.203 80.997 127.712 81.2623 127.206 81.2623C126.967 81.2623 126.724 81.2018 126.499 81.0749ZM122.474 78.8167C121.778 78.4274 121.53 77.5478 121.922 76.8528C122.312 76.1577 123.193 75.9126 123.886 76.3019C124.582 76.6913 124.83 77.5709 124.437 78.2659C124.175 78.736 123.684 79.0013 123.178 79.0013C122.939 79.0013 122.696 78.9408 122.474 78.8167ZM142.813 78.7504C142.117 78.3611 141.869 77.4815 142.259 76.7864C142.651 76.0943 143.532 75.8463 144.225 76.2356C144.921 76.6278 145.169 77.5045 144.777 78.1996C144.514 78.6697 144.023 78.935 143.518 78.935C143.278 78.935 143.036 78.8773 142.813 78.7504ZM118.446 76.5557C117.75 76.1664 117.502 75.2868 117.894 74.5918C118.284 73.8996 119.165 73.6516 119.858 74.0409C120.554 74.4331 120.802 75.3099 120.409 76.0049C120.147 76.4779 119.656 76.7403 119.15 76.7403C118.911 76.7403 118.668 76.6826 118.446 76.5557ZM145.074 74.7273C144.378 74.338 144.133 73.4584 144.523 72.7633C144.915 72.0712 145.793 71.8232 146.489 72.2125C147.185 72.6047 147.43 73.4843 147.04 74.1765C146.775 74.6466 146.287 74.9119 145.781 74.9119C145.542 74.9119 145.299 74.8542 145.074 74.7273ZM114.418 74.2947C113.722 73.9054 113.474 73.0258 113.866 72.3336C114.256 71.6386 115.137 71.3906 115.833 71.7828C116.526 72.1721 116.774 73.0517 116.384 73.7468C116.119 74.2169 115.628 74.4822 115.122 74.4822C114.883 74.4822 114.64 74.4216 114.418 74.2947ZM112.651 71.4021C111.955 71.0128 111.709 70.1332 112.099 69.4382C112.492 68.7431 113.37 68.498 114.066 68.8873C114.761 69.2795 115.01 70.1591 114.617 70.8513C114.351 71.3214 113.863 71.5867 113.358 71.5867C113.118 71.5867 112.876 71.529 112.651 71.4021ZM147.338 70.7042C146.642 70.3149 146.397 69.4353 146.786 68.7431C147.176 68.0481 148.057 67.8001 148.753 68.1894C149.449 68.5816 149.694 69.4612 149.304 70.1534C149.039 70.6263 148.548 70.8888 148.042 70.8888C147.803 70.8888 147.56 70.8311 147.338 70.7042ZM114.914 67.379C114.221 66.9897 113.973 66.1101 114.366 65.4151C114.756 64.7229 115.636 64.4749 116.329 64.8671C117.025 65.2564 117.274 66.136 116.881 66.8282C116.618 67.3012 116.127 67.5665 115.622 67.5665C115.382 67.5665 115.14 67.5059 114.914 67.379ZM149.602 66.6811C148.906 66.2918 148.657 65.4122 149.05 64.72C149.44 64.025 150.321 63.777 151.014 64.1663C151.709 64.5585 151.958 65.4352 151.565 66.1303C151.302 66.6032 150.811 66.8657 150.306 66.8657C150.066 66.8657 149.824 66.808 149.602 66.6811ZM117.178 63.3588C116.485 62.9666 116.237 62.087 116.63 61.3948C117.019 60.6998 117.9 60.4547 118.593 60.844C119.289 61.2333 119.537 62.113 119.145 62.808C118.882 63.2781 118.391 63.5434 117.886 63.5434C117.646 63.5434 117.403 63.4828 117.178 63.3588ZM151.862 62.658C151.17 62.2687 150.921 61.3891 151.311 60.6941C151.704 60.0019 152.584 59.7539 153.277 60.1461C153.973 60.5354 154.222 61.415 153.829 62.1101C153.566 62.5802 153.075 62.8455 152.57 62.8455C152.33 62.8455 152.088 62.7849 151.862 62.658ZM119.445 59.3357C118.749 58.9464 118.501 58.0668 118.893 57.3718C119.283 56.6767 120.164 56.4316 120.86 56.8209C121.553 57.2103 121.801 58.0899 121.408 58.7849C121.146 59.255 120.655 59.5203 120.149 59.5203C119.91 59.5203 119.667 59.4597 119.445 59.3357ZM154.126 58.6378C153.43 58.2456 153.185 57.3689 153.575 56.6738C153.965 55.9788 154.845 55.7308 155.541 56.123C156.237 56.5123 156.482 57.3919 156.093 58.087C155.827 58.5571 155.336 58.8224 154.831 58.8224C154.594 58.8224 154.349 58.7618 154.126 58.6378ZM121.709 55.3126C121.013 54.9233 120.767 54.0437 121.157 53.3487C121.547 52.6565 122.428 52.4085 123.124 52.7978C123.819 53.19 124.065 54.0696 123.675 54.7618C123.409 55.2348 122.919 55.4972 122.413 55.4972C122.174 55.4972 121.931 55.4395 121.709 55.3126ZM156.39 54.6147C155.694 54.2225 155.446 53.3458 155.839 52.6507C156.228 51.9557 157.109 51.7106 157.802 52.0999C158.498 52.4892 158.746 53.3688 158.356 54.061C158.091 54.534 157.6 54.7993 157.095 54.7993C156.855 54.7993 156.612 54.7387 156.39 54.6147ZM123.972 51.2895C123.277 50.9002 123.031 50.0206 123.421 49.3284C123.811 48.6334 124.691 48.3854 125.387 48.7776C126.083 49.1669 126.329 50.0465 125.939 50.7416C125.673 51.2117 125.182 51.477 124.68 51.477C124.44 51.477 124.195 51.4164 123.972 51.2895ZM158.651 50.5916C157.958 50.1994 157.71 49.3198 158.102 48.6276C158.492 47.9326 159.373 47.6846 160.066 48.0768C160.762 48.4661 161.01 49.3457 160.617 50.0408C160.352 50.5109 159.864 50.7762 159.358 50.7762C159.119 50.7762 158.876 50.7156 158.651 50.5916ZM126.236 47.2693C125.54 46.8771 125.295 46.0004 125.685 45.3053C126.075 44.6103 126.955 44.3652 127.651 44.7545C128.347 45.1467 128.592 46.0234 128.203 46.7185C127.937 47.1886 127.446 47.4539 126.944 47.4539C126.704 47.4539 126.459 47.3933 126.236 47.2693ZM128.5 43.2462C127.804 42.8569 127.559 41.9773 127.948 41.2822C128.341 40.5901 129.219 40.3421 129.915 40.7343C130.611 41.1236 130.856 42.0032 130.466 42.6954C130.201 43.1683 129.71 43.4308 129.205 43.4308C128.965 43.4308 128.722 43.3731 128.5 43.2462ZM130.764 39.226C130.071 38.8338 129.822 37.9542 130.212 37.262C130.605 36.567 131.486 36.319 132.179 36.7112C132.875 37.1005 133.12 37.9801 132.73 38.6752C132.464 39.1452 131.974 39.4106 131.471 39.4106C131.232 39.4106 130.989 39.35 130.764 39.226ZM133.028 35.2029C132.335 34.8136 132.086 33.934 132.479 33.2389C132.869 32.5439 133.749 32.2988 134.442 32.6881C135.138 33.0774 135.387 33.957 134.994 34.6521C134.728 35.1222 134.24 35.3875 133.735 35.3875C133.495 35.3875 133.253 35.3269 133.028 35.2029ZM135.291 31.1798C134.598 30.7905 134.35 29.9109 134.743 29.2158C135.133 28.5208 136.013 28.2757 136.709 28.665C137.402 29.0572 137.65 29.9368 137.258 30.629C136.992 31.1019 136.504 31.3644 135.999 31.3644C135.759 31.3644 135.517 31.3067 135.291 31.1798ZM137.558 27.1567C136.862 26.7674 136.614 25.8878 137.006 25.1927C137.396 24.5006 138.277 24.2526 138.973 24.6448C139.666 25.0341 139.914 25.9137 139.524 26.6059C139.259 27.0788 138.768 27.3442 138.263 27.3442C138.023 27.3442 137.78 27.2836 137.558 27.1567ZM139.822 23.1365C139.126 22.7443 138.878 21.8647 139.27 21.1725C139.66 20.4775 140.541 20.2324 141.237 20.6217C141.932 21.011 142.178 21.8906 141.788 22.5857C141.522 23.0557 141.032 23.3211 140.526 23.3211C140.287 23.3211 140.044 23.2605 139.822 23.1365ZM142.086 19.1134C141.39 18.7241 141.141 17.8445 141.534 17.1494C141.924 16.4544 142.805 16.2093 143.5 16.5986C144.193 16.9908 144.442 17.8675 144.049 18.5626C143.786 19.0326 143.295 19.298 142.79 19.298C142.55 19.298 142.308 19.2374 142.086 19.1134ZM144.349 15.0903C143.653 14.701 143.408 13.8214 143.798 13.1263C144.188 12.4342 145.068 12.1862 145.764 12.5784C146.457 12.9677 146.705 13.8473 146.316 14.5424C146.05 15.0124 145.559 15.2778 145.054 15.2778C144.814 15.2778 144.572 15.2172 144.349 15.0903ZM146.613 11.0701C145.917 10.6779 145.672 9.79827 146.062 9.10612C146.454 8.4111 147.332 8.16308 148.028 8.55529C148.724 8.94462 148.969 9.82423 148.579 10.5193C148.314 10.9893 147.823 11.2547 147.321 11.2547C147.081 11.2547 146.838 11.1941 146.613 11.0701ZM148.877 7.04699C148.181 6.65766 147.936 5.77806 148.325 5.08303C148.718 4.388 149.596 4.14286 150.292 4.53219C150.988 4.92441 151.233 5.80113 150.843 6.49616C150.578 6.96624 150.09 7.23156 149.584 7.23156C149.345 7.23156 149.102 7.171 148.877 7.04699Z" fill="url(#paint2_linear_1233_2060)"/>
<path d="M119.63 56.8786C119.427 56.1086 119.889 55.3213 120.66 55.1165C121.431 54.9147 122.22 55.3761 122.425 56.1461C122.627 56.9161 122.165 57.7034 121.394 57.9082C121.272 57.9399 121.148 57.9543 121.027 57.9543C120.386 57.9543 119.8 57.5275 119.63 56.8786ZM124.099 55.7049C123.897 54.9348 124.356 54.1475 125.127 53.9428C125.898 53.7409 126.686 54.2023 126.891 54.9723C127.094 55.7424 126.634 56.5297 125.861 56.7344C125.739 56.7661 125.615 56.7806 125.494 56.7806C124.853 56.7806 124.27 56.3537 124.099 55.7049ZM128.566 54.5311C128.364 53.7611 128.823 52.9738 129.594 52.7719C130.368 52.5671 131.156 53.0286 131.358 53.7986C131.561 54.5686 131.101 55.3559 130.33 55.5607C130.206 55.5924 130.082 55.6068 129.961 55.6068C129.323 55.6068 128.737 55.18 128.566 54.5311ZM133.036 53.3573C132.831 52.5873 133.293 51.8 134.064 51.5981C134.835 51.3934 135.623 51.8548 135.828 52.6248C136.03 53.3948 135.568 54.1821 134.797 54.3869C134.676 54.4186 134.552 54.433 134.431 54.433C133.79 54.433 133.206 54.0062 133.036 53.3573ZM137.503 52.1836C137.301 51.4136 137.76 50.6262 138.531 50.4244C139.302 50.2196 140.093 50.681 140.295 51.451C140.497 52.2211 140.038 53.0084 139.267 53.2131C139.143 53.2449 139.019 53.2593 138.898 53.2593C138.257 53.2593 137.673 52.8325 137.503 52.1836ZM141.97 51.0098C141.768 50.2398 142.23 49.4525 143.001 49.2477C143.772 49.0458 144.56 49.5073 144.762 50.2773C144.967 51.0473 144.505 51.8375 143.734 52.0394C143.61 52.0711 143.489 52.0855 143.364 52.0855C142.726 52.0855 142.14 51.6587 141.97 51.0098ZM146.44 49.836C146.235 49.066 146.697 48.2787 147.468 48.0768C148.239 47.8721 149.03 48.3335 149.232 49.1035C149.434 49.8735 148.972 50.6637 148.201 50.8656C148.08 50.8973 147.956 50.9118 147.834 50.9118C147.193 50.9118 146.61 50.4849 146.44 49.836ZM150.907 48.6623C150.704 47.8923 151.164 47.1049 151.937 46.9031C152.708 46.7012 153.497 47.1597 153.699 47.9298C153.901 48.6998 153.442 49.49 152.671 49.6918C152.547 49.7236 152.422 49.738 152.301 49.738C151.663 49.738 151.077 49.3112 150.907 48.6623ZM155.373 47.4914C155.171 46.7185 155.633 45.9312 156.404 45.7293C157.175 45.5274 157.963 45.986 158.168 46.756C158.371 47.526 157.909 48.3162 157.138 48.5181C157.016 48.5498 156.892 48.5642 156.771 48.5642C156.13 48.5642 155.547 48.1374 155.373 47.4914ZM159.843 46.3176C159.641 45.5476 160.1 44.7574 160.871 44.5555C161.642 44.3537 162.433 44.8122 162.635 45.5822C162.838 46.3522 162.378 47.1424 161.605 47.3443C161.483 47.376 161.359 47.3933 161.238 47.3933C160.6 47.3933 160.014 46.9636 159.843 46.3176Z" fill="url(#paint3_linear_1233_2060)"/>
<path d="M222.149 107.642C222.128 106.846 222.758 106.182 223.555 106.162C224.352 106.145 225.013 106.774 225.033 107.57C225.053 108.366 224.424 109.026 223.627 109.046H223.589C222.81 109.046 222.166 108.423 222.149 107.642ZM221.941 103.091C221.889 102.298 222.489 101.611 223.286 101.557C224.08 101.505 224.77 102.107 224.822 102.9C224.874 103.696 224.271 104.383 223.477 104.435C223.445 104.435 223.413 104.435 223.379 104.435C222.625 104.435 221.99 103.849 221.941 103.088V103.091ZM221.545 98.5573C221.461 97.7642 222.033 97.0518 222.827 96.9682C223.618 96.8817 224.331 97.4556 224.418 98.2458C224.502 99.0389 223.93 99.7512 223.136 99.8349C223.084 99.8406 223.032 99.8435 222.98 99.8435C222.25 99.8435 221.626 99.2956 221.545 98.5573ZM220.965 94.041C220.846 93.2508 221.389 92.5183 222.177 92.4001C222.966 92.2818 223.702 92.824 223.82 93.6113C223.939 94.4015 223.393 95.134 222.605 95.2523C222.533 95.2638 222.46 95.2696 222.391 95.2696C221.687 95.2696 221.072 94.7562 220.965 94.041ZM220.194 89.5536C220.044 88.7692 220.555 88.0136 221.337 87.8636C222.12 87.7137 222.879 88.2241 223.029 89.0057C223.179 89.7872 222.668 90.5457 221.886 90.6956C221.793 90.713 221.701 90.7216 221.612 90.7216C220.933 90.7216 220.327 90.2429 220.194 89.5536ZM219.238 85.1008C219.053 84.3279 219.533 83.5492 220.309 83.3647C221.086 83.183 221.863 83.6617 222.048 84.4375C222.229 85.2133 221.75 85.9891 220.973 86.1736C220.864 86.1996 220.751 86.2111 220.641 86.2111C219.989 86.2111 219.394 85.7641 219.238 85.1008ZM218.095 80.6941C217.878 79.927 218.326 79.131 219.094 78.9147C219.862 78.7013 220.659 79.1455 220.875 79.9126C221.092 80.6797 220.644 81.4757 219.876 81.692C219.746 81.7295 219.613 81.7468 219.483 81.7468C218.854 81.7468 218.274 81.3315 218.095 80.6941ZM216.772 76.348C216.524 75.5896 216.937 74.7763 217.696 74.5283C218.453 74.2803 219.27 74.6955 219.518 75.4511C219.766 76.2096 219.354 77.0229 218.597 77.2709C218.447 77.3199 218.294 77.343 218.147 77.343C217.537 77.343 216.974 76.9566 216.775 76.348H216.772ZM215.268 72.0596C214.988 71.3156 215.366 70.4821 216.114 70.2052C216.862 69.9255 217.693 70.3033 217.973 71.0502C218.251 71.7943 217.872 72.6249 217.127 72.9046C216.96 72.9681 216.789 72.9969 216.622 72.9969C216.036 72.9969 215.484 72.6393 215.268 72.0596ZM213.584 67.8375C213.275 67.105 213.619 66.2571 214.352 65.9486C215.089 65.6371 215.935 65.9803 216.244 66.7157C216.556 67.4482 216.212 68.2932 215.476 68.6047C215.294 68.6825 215.103 68.7171 214.915 68.7171C214.352 68.7171 213.818 68.3884 213.584 67.8375ZM211.725 63.6875C211.387 62.9666 211.693 62.1071 212.415 61.7668C213.134 61.4265 213.997 61.7351 214.335 62.4561C214.679 63.1742 214.37 64.0336 213.648 64.3739C213.449 64.4691 213.238 64.5123 213.033 64.5123C212.493 64.5123 211.973 64.2095 211.725 63.6875ZM209.695 59.6183C209.325 58.9117 209.597 58.0408 210.304 57.6716C211.009 57.2996 211.881 57.5707 212.253 58.2773C212.623 58.9809 212.351 59.8548 211.644 60.2239C211.43 60.3364 211.202 60.3883 210.977 60.3883C210.457 60.3883 209.955 60.1086 209.695 59.6183ZM207.498 55.6356C207.096 54.9434 207.333 54.0638 208.023 53.663C208.713 53.265 209.597 53.5015 209.995 54.1907C210.394 54.8771 210.16 55.7596 209.47 56.1605C209.242 56.2902 208.993 56.3537 208.748 56.3537C208.248 56.3537 207.763 56.097 207.498 55.6356ZM205.133 51.7451C204.705 51.0732 204.902 50.182 205.577 49.7552C206.25 49.3284 207.142 49.5245 207.57 50.1965C207.997 50.8713 207.798 51.7596 207.125 52.1893C206.885 52.3421 206.617 52.4142 206.351 52.4142C205.875 52.4142 205.407 52.1777 205.133 51.7451ZM202.609 47.9556C202.153 47.3039 202.315 46.4041 202.97 45.9484C203.625 45.4956 204.523 45.6543 204.98 46.3089C205.436 46.9636 205.274 47.8634 204.619 48.3161C204.368 48.4921 204.079 48.5757 203.796 48.5757C203.34 48.5757 202.889 48.3594 202.609 47.9556ZM199.93 44.2757C199.447 43.6413 199.571 42.7357 200.207 42.2541C200.842 41.7725 201.749 41.8965 202.231 42.5309C202.713 43.1654 202.589 44.071 201.954 44.5526C201.691 44.7487 201.385 44.8468 201.082 44.8468C200.646 44.8468 200.215 44.6478 199.93 44.2757ZM197.1 40.7083C196.592 40.094 196.678 39.1856 197.293 38.678C197.908 38.1704 198.818 38.257 199.326 38.8712C199.834 39.4855 199.748 40.3911 199.133 40.9015C198.864 41.1236 198.538 41.2303 198.214 41.2303C197.799 41.2303 197.386 41.0515 197.1 40.7083ZM194.123 37.2591C193.592 36.6679 193.641 35.7537 194.233 35.223C194.827 34.6895 195.74 34.7385 196.271 35.3326C196.805 35.9238 196.756 36.8352 196.161 37.3687C195.887 37.6138 195.541 37.7378 195.197 37.7378C194.804 37.7378 194.409 37.5763 194.123 37.2591ZM191.007 33.9368C190.453 33.3658 190.462 32.4545 191.033 31.8979C191.602 31.3413 192.517 31.3528 193.075 31.9209C193.632 32.492 193.62 33.4033 193.049 33.9599C192.769 34.2339 192.405 34.3694 192.041 34.3694C191.666 34.3694 191.29 34.2252 191.007 33.9368ZM187.756 30.7443C187.176 30.1963 187.15 29.285 187.698 28.7053C188.244 28.1257 189.156 28.0997 189.737 28.6448C190.317 29.1927 190.343 30.1041 189.797 30.6837C189.514 30.9837 189.13 31.1365 188.746 31.1365C188.391 31.1365 188.036 31.0067 187.756 30.7443ZM184.375 27.6873C183.774 27.1653 183.708 26.254 184.23 25.6541C184.753 25.0514 185.665 24.9879 186.269 25.5099C186.87 26.0319 186.936 26.9433 186.41 27.5431C186.127 27.8719 185.726 28.0392 185.322 28.0392C184.987 28.0392 184.649 27.9238 184.375 27.6873ZM180.869 24.7745C180.246 24.2756 180.145 23.3701 180.641 22.7471C181.138 22.1242 182.047 22.0233 182.671 22.5193C183.295 23.0153 183.396 23.9238 182.899 24.5467C182.613 24.9014 182.195 25.0889 181.77 25.0889C181.453 25.0889 181.135 24.9851 180.869 24.7745ZM177.246 22.0059C176.602 21.5359 176.463 20.6332 176.934 19.9901C177.404 19.3498 178.308 19.2085 178.952 19.6815C179.596 20.1516 179.735 21.0514 179.264 21.6945C178.981 22.0809 178.542 22.2857 178.097 22.2857C177.803 22.2857 177.505 22.1934 177.246 22.0059ZM173.512 19.3902C172.848 18.949 172.672 18.0521 173.117 17.3916C173.558 16.7283 174.456 16.5524 175.118 16.9965C175.782 17.4407 175.958 18.3347 175.513 18.998C175.236 19.4133 174.78 19.6353 174.315 19.6353C174.038 19.6353 173.758 19.5575 173.512 19.3902ZM169.669 16.9331C168.99 16.5178 168.774 15.6324 169.192 14.9518C169.608 14.2741 170.495 14.0578 171.176 14.4731C171.855 14.8884 172.071 15.7766 171.655 16.4572C171.381 16.9014 170.908 17.1465 170.423 17.1465C170.166 17.1465 169.906 17.0773 169.669 16.9331ZM165.728 14.6375C165.032 14.251 164.78 13.3714 165.167 12.6764C165.554 11.9814 166.435 11.7305 167.131 12.1169C167.827 12.5034 168.078 13.383 167.691 14.078C167.428 14.551 166.934 14.8192 166.429 14.8192C166.189 14.8192 165.95 14.7615 165.728 14.6375ZM161.694 12.5062C160.983 12.1486 160.695 11.2835 161.053 10.5711C161.411 9.85879 162.277 9.57328 162.99 9.93089C163.703 10.2885 163.989 11.1537 163.631 11.866C163.38 12.3707 162.869 12.662 162.34 12.662C162.124 12.662 161.902 12.6101 161.694 12.5062ZM157.573 10.5481C156.846 10.2193 156.522 9.36563 156.851 8.63888C157.181 7.91213 158.035 7.58913 158.763 7.9179C159.491 8.24378 159.814 9.10031 159.488 9.82418C159.245 10.3577 158.72 10.6749 158.168 10.6749C157.972 10.6749 157.77 10.6346 157.576 10.5481H157.573ZM153.375 8.76001C152.633 8.46296 152.275 7.62373 152.572 6.88256C152.87 6.14427 153.71 5.78666 154.449 6.08371C155.191 6.38076 155.549 7.21998 155.252 7.95827C155.027 8.52064 154.484 8.86383 153.912 8.86383C153.733 8.86383 153.551 8.82922 153.375 8.76001ZM149.101 7.14788C148.351 6.88256 147.958 6.06064 148.224 5.30793C148.489 4.55811 149.315 4.16589 150.066 4.43121C150.817 4.69653 151.212 5.51846 150.947 6.27117C150.736 6.86237 150.178 7.23152 149.584 7.23152C149.425 7.23152 149.26 7.20556 149.101 7.14788Z" fill="url(#paint4_linear_1233_2060)"/>
<path d="M111.845 222.806C111.048 222.803 110.407 222.152 110.41 221.356C110.415 220.56 111.065 219.919 111.862 219.922C112.659 219.928 113.303 220.577 113.297 221.373C113.297 222.166 112.648 222.806 111.853 222.806H111.845ZM115.03 221.35C115.004 220.554 115.624 219.885 116.424 219.859C117.221 219.83 117.888 220.453 117.917 221.249C117.943 222.045 117.319 222.711 116.522 222.74H116.473C115.7 222.74 115.059 222.128 115.03 221.35ZM107.17 222.682C106.373 222.645 105.758 221.97 105.796 221.177C105.833 220.381 106.509 219.767 107.306 219.804C108.103 219.839 108.718 220.516 108.68 221.309C108.643 222.082 108.004 222.685 107.239 222.685C107.216 222.685 107.193 222.685 107.17 222.682ZM119.644 221.154C119.586 220.358 120.181 219.666 120.975 219.605C121.772 219.544 122.465 220.141 122.526 220.935C122.586 221.728 121.988 222.42 121.194 222.48C121.157 222.483 121.119 222.486 121.082 222.486C120.337 222.486 119.702 221.909 119.644 221.154ZM102.504 222.368C101.71 222.296 101.121 221.598 101.193 220.805C101.262 220.012 101.964 219.423 102.758 219.495C103.552 219.565 104.138 220.265 104.069 221.059C104.002 221.808 103.373 222.374 102.631 222.374C102.59 222.374 102.547 222.371 102.504 222.368ZM124.249 220.767C124.154 219.977 124.72 219.259 125.514 219.167C126.305 219.074 127.021 219.64 127.117 220.43C127.209 221.223 126.643 221.938 125.852 222.03C125.794 222.039 125.736 222.042 125.679 222.042C124.957 222.042 124.333 221.503 124.249 220.767ZM97.8521 221.86C97.061 221.756 96.5066 221.033 96.6076 220.242C96.7116 219.455 97.4363 218.896 98.2275 218.999C99.0158 219.103 99.5759 219.827 99.472 220.617C99.3767 221.344 98.7559 221.872 98.0427 221.872C97.9792 221.872 97.9156 221.872 97.8521 221.86ZM128.832 220.193C128.705 219.406 129.242 218.668 130.03 218.541C130.818 218.414 131.56 218.95 131.685 219.735C131.812 220.522 131.275 221.263 130.489 221.387C130.411 221.402 130.333 221.407 130.258 221.407C129.562 221.407 128.947 220.903 128.835 220.193H128.832ZM93.2293 221.159C92.4439 221.024 91.9155 220.277 92.0512 219.493C92.1869 218.708 92.9348 218.183 93.7202 218.316C94.5055 218.454 95.034 219.198 94.8982 219.983C94.7741 220.686 94.1648 221.18 93.4747 221.18C93.3939 221.18 93.3101 221.174 93.2293 221.159ZM133.388 219.426C133.226 218.648 133.732 217.886 134.514 217.728C135.294 217.566 136.056 218.071 136.215 218.852C136.374 219.631 135.871 220.395 135.089 220.554C134.994 220.571 134.895 220.583 134.8 220.583C134.127 220.583 133.527 220.11 133.388 219.426ZM88.6353 220.265C87.8557 220.098 87.362 219.331 87.5294 218.552C87.6969 217.774 88.4679 217.281 89.2446 217.448C90.0242 217.615 90.5209 218.382 90.3505 219.161C90.2061 219.839 89.6084 220.3 88.9414 220.3C88.8403 220.3 88.7393 220.289 88.6353 220.265ZM137.898 218.475C137.708 217.702 138.181 216.92 138.955 216.727C139.729 216.537 140.512 217.007 140.702 217.779C140.893 218.555 140.422 219.337 139.648 219.527C139.53 219.556 139.414 219.57 139.299 219.57C138.652 219.57 138.063 219.129 137.898 218.475ZM84.0847 219.184C83.3137 218.982 82.8489 218.195 83.051 217.425C83.2531 216.652 84.0414 216.19 84.8123 216.392C85.5833 216.594 86.0482 217.382 85.846 218.152C85.6757 218.8 85.0895 219.23 84.4485 219.23C84.3301 219.23 84.206 219.216 84.0847 219.184ZM142.368 217.332C142.146 216.568 142.585 215.766 143.35 215.544C144.115 215.319 144.915 215.761 145.14 216.525C145.362 217.289 144.924 218.088 144.158 218.313C144.023 218.351 143.887 218.371 143.754 218.371C143.128 218.371 142.553 217.961 142.368 217.332ZM79.5831 217.909C78.8208 217.676 78.3906 216.871 78.6245 216.11C78.8584 215.348 79.664 214.919 80.4263 215.152C81.1886 215.386 81.6188 216.19 81.3849 216.952C81.1943 217.575 80.6226 217.973 80.0047 217.973C79.8661 217.973 79.7246 217.953 79.5831 217.909ZM146.786 216.006C146.532 215.25 146.936 214.434 147.693 214.177C148.446 213.924 149.266 214.327 149.52 215.083C149.777 215.836 149.373 216.655 148.617 216.909C148.464 216.96 148.308 216.986 148.155 216.986C147.551 216.986 146.991 216.606 146.786 216.006ZM75.1249 216.444C74.3713 216.179 73.9786 215.357 74.2442 214.604C74.5098 213.854 75.3328 213.459 76.0835 213.725C76.8372 213.99 77.2327 214.812 76.9671 215.565C76.7592 216.156 76.2019 216.528 75.6042 216.528C75.4454 216.528 75.2837 216.502 75.1249 216.444ZM151.146 214.495C150.86 213.751 151.23 212.917 151.975 212.632C152.717 212.343 153.554 212.715 153.84 213.456C154.126 214.201 153.756 215.034 153.011 215.322C152.841 215.389 152.665 215.418 152.495 215.418C151.914 215.418 151.366 215.066 151.146 214.495ZM70.7359 214.795C69.9939 214.5 69.6358 213.658 69.9303 212.92C70.2277 212.182 71.068 211.821 71.8072 212.118C72.5493 212.415 72.9073 213.255 72.6128 213.993C72.3876 214.555 71.8447 214.898 71.273 214.898C71.094 214.898 70.9121 214.867 70.7359 214.795ZM155.44 212.802C155.122 212.072 155.457 211.224 156.188 210.907C156.918 210.59 157.77 210.924 158.088 211.654C158.405 212.384 158.07 213.234 157.34 213.552C157.152 213.632 156.956 213.67 156.765 213.67C156.208 213.67 155.677 213.347 155.44 212.802ZM66.4192 212.963C65.6915 212.637 65.3681 211.784 65.6944 211.057C66.0236 210.33 66.8783 210.007 67.603 210.333C68.3307 210.659 68.657 211.513 68.3278 212.239C68.0881 212.773 67.5626 213.09 67.0111 213.09C66.8119 213.09 66.6126 213.05 66.4192 212.963ZM159.658 210.933C159.312 210.218 159.609 209.353 160.328 209.007C161.044 208.658 161.908 208.958 162.257 209.676C162.604 210.391 162.306 211.253 161.587 211.602C161.385 211.7 161.168 211.746 160.958 211.746C160.424 211.746 159.907 211.446 159.658 210.933ZM62.1861 210.953C61.4729 210.596 61.1842 209.73 61.5422 209.018C61.9003 208.306 62.7665 208.017 63.4797 208.375C64.1929 208.733 64.4817 209.598 64.1236 210.31C63.8695 210.815 63.3614 211.106 62.8329 211.106C62.6135 211.106 62.394 211.057 62.1861 210.953ZM163.796 208.888C163.418 208.188 163.681 207.314 164.385 206.936C165.087 206.558 165.962 206.821 166.34 207.524C166.715 208.225 166.453 209.099 165.751 209.477C165.534 209.592 165.3 209.647 165.069 209.647C164.555 209.647 164.056 209.373 163.796 208.888ZM58.0426 208.767C57.3439 208.384 57.0927 207.504 57.4796 206.809C57.8665 206.111 58.7443 205.86 59.4431 206.247C60.1389 206.633 60.3901 207.51 60.0032 208.208C59.7405 208.681 59.2496 208.949 58.7414 208.949C58.5046 208.949 58.265 208.891 58.0426 208.767ZM167.847 206.673C167.44 205.987 167.665 205.105 168.352 204.698C169.037 204.291 169.923 204.519 170.33 205.203C170.735 205.889 170.509 206.771 169.822 207.178C169.591 207.317 169.34 207.38 169.089 207.38C168.595 207.38 168.116 207.129 167.847 206.673ZM53.9915 206.414C53.313 205.999 53.0964 205.113 53.5122 204.433C53.928 203.752 54.8173 203.539 55.4988 203.954C56.1773 204.369 56.3939 205.255 55.9781 205.935C55.7067 206.379 55.2302 206.627 54.7423 206.627C54.4882 206.627 54.2283 206.558 53.9915 206.414ZM171.8 204.291C171.364 203.625 171.555 202.731 172.225 202.296C172.892 201.863 173.787 202.05 174.22 202.72C174.656 203.389 174.465 204.28 173.795 204.715C173.553 204.874 173.281 204.949 173.01 204.949C172.539 204.949 172.074 204.718 171.8 204.291ZM50.0472 203.893C49.3831 203.452 49.207 202.555 49.6517 201.895C50.0934 201.231 50.9914 201.056 51.6527 201.497C52.3168 201.941 52.4929 202.835 52.0511 203.498C51.7711 203.913 51.3148 204.138 50.85 204.138C50.5728 204.138 50.2927 204.061 50.0472 203.893ZM175.652 201.748C175.19 201.099 175.343 200.199 175.993 199.738C176.642 199.276 177.543 199.429 178.005 200.078C178.467 200.727 178.314 201.627 177.665 202.088C177.41 202.267 177.119 202.353 176.83 202.353C176.377 202.353 175.932 202.143 175.652 201.748ZM46.2098 201.214C45.5659 200.744 45.4273 199.841 45.898 199.198C46.3686 198.555 47.2695 198.417 47.9134 198.884C48.5544 199.354 48.6959 200.257 48.2253 200.9C47.9423 201.286 47.5034 201.491 47.0587 201.491C46.7613 201.491 46.4639 201.402 46.2069 201.214H46.2098ZM179.394 199.045C178.906 198.417 179.022 197.511 179.651 197.024C180.281 196.536 181.187 196.649 181.678 197.28C182.166 197.909 182.051 198.815 181.421 199.302C181.158 199.507 180.847 199.605 180.538 199.605C180.107 199.605 179.68 199.412 179.394 199.045ZM42.4879 198.376C41.8642 197.88 41.7631 196.975 42.2598 196.352C42.7564 195.729 43.6659 195.625 44.2867 196.121C44.9133 196.617 45.0144 197.526 44.5177 198.149C44.2319 198.506 43.8132 198.691 43.3887 198.691C43.0711 198.691 42.7535 198.59 42.4879 198.376ZM183.024 196.193C182.51 195.585 182.588 194.673 183.197 194.16C183.806 193.647 184.716 193.725 185.23 194.333C185.744 194.942 185.666 195.85 185.059 196.363C184.788 196.594 184.456 196.704 184.127 196.704C183.717 196.704 183.31 196.531 183.024 196.193ZM38.8901 195.389C38.2866 194.867 38.2231 193.958 38.7428 193.355C39.2654 192.753 40.1779 192.689 40.7814 193.211C41.382 193.73 41.4484 194.642 40.9257 195.244C40.6399 195.573 40.2385 195.74 39.8343 195.74C39.4993 195.74 39.1615 195.625 38.8901 195.389ZM186.532 193.191C185.992 192.603 186.032 191.691 186.619 191.152C187.208 190.616 188.12 190.653 188.66 191.241C189.197 191.827 189.157 192.741 188.571 193.278C188.293 193.531 187.944 193.658 187.595 193.658C187.205 193.658 186.815 193.5 186.532 193.191ZM35.4165 192.257C34.8361 191.712 34.8101 190.797 35.3558 190.218C35.9015 189.638 36.8169 189.612 37.3973 190.157C37.9776 190.702 38.0036 191.616 37.4579 192.196C37.1749 192.496 36.7909 192.649 36.4069 192.649C36.0517 192.649 35.6965 192.519 35.4165 192.257ZM189.91 190.045C189.35 189.482 189.35 188.568 189.916 188.006C190.479 187.443 191.394 187.446 191.958 188.011C192.521 188.574 192.518 189.488 191.958 190.05C191.675 190.33 191.305 190.471 190.935 190.469C190.566 190.469 190.196 190.327 189.913 190.045H189.91ZM32.0785 188.983C31.5213 188.412 31.5299 187.501 32.1016 186.944C32.6705 186.388 33.5858 186.396 34.1431 186.967C34.7004 187.536 34.6888 188.45 34.12 189.006C33.8399 189.28 33.4761 189.416 33.1123 189.416C32.7369 189.416 32.3615 189.272 32.0785 188.983ZM193.159 186.763C192.573 186.223 192.538 185.312 193.078 184.727C193.621 184.141 194.533 184.107 195.119 184.646C195.705 185.185 195.74 186.099 195.2 186.685C194.914 186.991 194.527 187.146 194.138 187.146C193.788 187.146 193.436 187.019 193.159 186.763ZM28.8792 185.577C28.345 184.983 28.3941 184.072 28.9861 183.538C29.578 183.008 30.4904 183.054 31.0246 183.648C31.5588 184.239 31.5097 185.151 30.9178 185.684C30.6406 185.932 30.297 186.053 29.9534 186.053C29.5578 186.053 29.1622 185.892 28.8792 185.577ZM196.269 183.351C195.662 182.835 195.587 181.923 196.104 181.318C196.621 180.712 197.53 180.637 198.14 181.153C198.746 181.67 198.821 182.581 198.304 183.187C198.018 183.521 197.611 183.694 197.204 183.694C196.872 183.694 196.54 183.582 196.269 183.351ZM25.8214 182.042C25.3132 181.427 25.3998 180.519 26.0149 180.011C26.627 179.504 27.5394 179.587 28.0476 180.202C28.5558 180.816 28.4692 181.724 27.8542 182.232C27.5856 182.454 27.2594 182.564 26.936 182.564C26.5202 182.564 26.1073 182.385 25.8214 182.042ZM199.234 179.812C198.607 179.322 198.495 178.417 198.986 177.788C199.477 177.159 200.383 177.05 201.013 177.54C201.642 178.03 201.752 178.936 201.261 179.564C200.975 179.928 200.551 180.118 200.123 180.118C199.811 180.118 199.5 180.017 199.234 179.812ZM22.9166 178.382C22.4344 177.75 22.5586 176.845 23.1909 176.363C23.8262 175.882 24.7328 176.003 25.215 176.637C25.6972 177.272 25.5731 178.177 24.9407 178.659C24.678 178.855 24.3719 178.953 24.0658 178.953C23.6327 178.953 23.1996 178.757 22.9166 178.382ZM202.052 176.153C201.402 175.691 201.255 174.789 201.717 174.143C202.182 173.494 203.086 173.347 203.733 173.808C204.382 174.272 204.53 175.175 204.065 175.821C203.785 176.216 203.34 176.424 202.892 176.424C202.601 176.424 202.306 176.337 202.052 176.153ZM20.1649 174.61C19.7086 173.955 19.8703 173.055 20.5258 172.603C21.1784 172.147 22.0764 172.306 22.5355 172.96C22.9917 173.612 22.83 174.512 22.1745 174.967C21.9233 175.143 21.6375 175.227 21.3516 175.227C20.8954 175.227 20.4449 175.011 20.1649 174.61ZM204.714 172.38C204.047 171.945 203.86 171.051 204.299 170.385C204.735 169.719 205.63 169.534 206.297 169.97C206.964 170.408 207.151 171.299 206.712 171.965C206.435 172.389 205.973 172.617 205.503 172.617C205.231 172.617 204.957 172.542 204.714 172.38ZM17.5719 170.725C17.1446 170.053 17.3409 169.162 18.0166 168.735C18.6865 168.305 19.5816 168.504 20.0089 169.176C20.4363 169.848 20.2399 170.74 19.5672 171.166C19.3275 171.319 19.0561 171.391 18.7933 171.391C18.314 171.391 17.8491 171.158 17.5719 170.725ZM15.1464 166.74C14.7451 166.05 14.979 165.168 15.6691 164.767C16.3592 164.369 17.2427 164.602 17.6441 165.292C18.0426 165.981 17.8087 166.864 17.1186 167.261C16.8905 167.394 16.6421 167.458 16.3967 167.458C15.8972 167.458 15.4121 167.201 15.1464 166.74ZM12.8856 162.656C12.5131 161.952 12.7874 161.078 13.4919 160.709C14.1965 160.337 15.0714 160.608 15.441 161.315C15.8134 162.018 15.542 162.889 14.8346 163.261C14.6209 163.374 14.3928 163.426 14.1647 163.426C13.645 163.426 13.1454 163.146 12.8856 162.656ZM10.7979 158.483C10.4572 157.765 10.7662 156.905 11.4851 156.565C12.207 156.222 13.0675 156.53 13.4082 157.248C13.7518 157.969 13.4428 158.829 12.7239 159.169C12.5217 159.264 12.3109 159.308 12.1059 159.308C11.5631 159.308 11.0462 159.005 10.7979 158.483ZM8.8893 154.232C8.57745 153.496 8.92106 152.651 9.65448 152.34C10.3908 152.029 11.2368 152.372 11.5487 153.104C11.8576 153.84 11.514 154.685 10.7806 154.996C10.5987 155.074 10.4081 155.109 10.2175 155.109C9.65737 155.109 9.12319 154.78 8.8893 154.232ZM7.15971 149.903C6.87963 149.156 7.25788 148.326 8.00285 148.046C8.7507 147.766 9.58229 148.144 9.86238 148.888C10.1425 149.635 9.7642 150.465 9.01924 150.745C8.85176 150.809 8.67852 150.837 8.51104 150.837C7.92778 150.837 7.37627 150.48 7.15971 149.903ZM5.60625 145.494C5.35793 144.738 5.77084 143.922 6.52735 143.674C7.28676 143.426 8.10102 143.838 8.35223 144.594H8.34935C8.60055 145.352 8.18765 146.165 7.42824 146.413C7.2781 146.463 7.12795 146.486 6.9778 146.486C6.37143 146.486 5.80837 146.102 5.60625 145.494ZM4.24337 141.023C4.02681 140.256 4.47148 139.46 5.23954 139.244C6.00761 139.028 6.80455 139.475 7.02111 140.239C7.23767 141.006 6.79011 141.802 6.02494 142.021C5.89211 142.056 5.75929 142.076 5.62935 142.076C4.99988 142.076 4.42239 141.661 4.24337 141.023ZM3.06528 136.501C2.88048 135.726 3.3598 134.95 4.13653 134.765C4.91037 134.581 5.68999 135.059 5.87479 135.835C6.05958 136.608 5.58027 137.387 4.80354 137.571C4.69093 137.597 4.57831 137.612 4.46859 137.609C3.81602 137.609 3.22409 137.165 3.06528 136.501ZM2.07777 131.933C1.92762 131.152 2.4387 130.396 3.22121 130.243C4.00371 130.093 4.76311 130.604 4.91326 131.385C5.0663 132.167 4.55521 132.922 3.76982 133.075C3.67743 133.093 3.58503 133.101 3.49551 133.101C2.81696 133.101 2.21348 132.622 2.07777 131.933ZM1.28372 127.328C1.16533 126.54 1.70817 125.808 2.49645 125.687C3.28473 125.568 4.02103 126.111 4.13942 126.898C4.25781 127.685 3.71496 128.421 2.92668 128.539C2.8545 128.55 2.78231 128.556 2.71012 128.556C2.00847 128.556 1.39344 128.043 1.28372 127.328ZM0.683123 122.696C0.596499 121.903 1.16822 121.193 1.96227 121.107C2.75344 121.02 3.46664 121.591 3.55326 122.384C3.63989 123.175 3.06528 123.887 2.27412 123.974C2.22214 123.979 2.16728 123.982 2.11531 123.982C1.38766 123.982 0.763972 123.434 0.683123 122.696ZM0.273103 118.041C0.221129 117.245 0.821722 116.559 1.61866 116.507C2.41272 116.452 3.10282 117.055 3.15479 117.848C3.20966 118.644 2.60618 119.33 1.81212 119.382C1.77747 119.382 1.74571 119.388 1.71106 119.388C0.96032 119.388 0.325077 118.803 0.273103 118.041ZM0.0565431 113.375C0.0363308 112.579 0.665798 111.916 1.46274 111.896C2.25968 111.875 2.9238 112.504 2.94401 113.3C2.96422 114.096 2.33475 114.759 1.53781 114.78H1.50028C0.72066 114.78 0.0767553 114.157 0.0565431 113.375ZM1.45408 110.165C0.657136 110.154 0.019006 109.499 0.0334434 108.703C0.0449932 107.907 0.700448 107.27 1.49739 107.281C2.29433 107.293 2.93246 107.947 2.92091 108.746C2.90936 109.534 2.26545 110.165 1.48006 110.165H1.45696H1.45408ZM1.55803 105.554C0.763972 105.508 0.154717 104.827 0.198029 104.034C0.241341 103.238 0.922783 102.63 1.71972 102.673C2.51666 102.719 3.12592 103.4 3.08261 104.195C3.0393 104.963 2.40117 105.557 1.64176 105.557C1.61289 105.557 1.5869 105.554 1.55803 105.554ZM1.85255 100.948C1.05849 100.873 0.478113 100.167 0.556075 99.3735C0.634036 98.5833 1.33858 98.0037 2.13263 98.0786C2.92668 98.1565 3.50706 98.8631 3.4291 99.6533C3.35692 100.4 2.73034 100.957 1.99403 100.957C1.94783 100.957 1.90163 100.957 1.85255 100.948ZM2.33764 96.3627C1.54648 96.2531 0.997857 95.5235 1.10758 94.7362C1.2173 93.946 1.94783 93.3951 2.73611 93.5076C3.52728 93.6172 4.0759 94.3439 3.96617 95.1341C3.86511 95.8551 3.24719 96.3771 2.53976 96.3771C2.47335 96.3771 2.40405 96.3714 2.33764 96.3627ZM3.01042 91.7974C2.22792 91.6561 1.70817 90.9063 1.84966 90.1219C1.99403 89.3374 2.74477 88.8183 3.53016 88.9625C4.31556 89.1038 4.8353 89.8536 4.69093 90.6381C4.56388 91.3331 3.95751 91.8234 3.27318 91.8234C3.18656 91.8234 3.09993 91.8147 3.01042 91.7974ZM3.87666 87.2667C3.09993 87.0908 2.60906 86.3179 2.7852 85.5422C2.96133 84.7664 3.73517 84.279 4.5119 84.4549C5.29152 84.6279 5.7795 85.4008 5.60337 86.1766C5.45033 86.8486 4.85551 87.3014 4.19717 87.3014C4.09033 87.3014 3.9835 87.2898 3.87666 87.2667ZM4.93059 82.7736C4.15963 82.5659 3.7063 81.7757 3.9142 81.0057C4.1221 80.2386 4.91326 79.7829 5.68421 79.9906C6.45228 80.1982 6.9085 80.9913 6.7006 81.7584C6.52735 82.4015 5.94409 82.8255 5.30884 82.8255C5.1818 82.8255 5.05475 82.8082 4.93059 82.7736ZM6.17508 78.3208C5.41279 78.0785 4.99122 77.271 5.23088 76.5097C5.47343 75.7512 6.28481 75.3301 7.04421 75.5695C7.80361 75.8088 8.22518 76.6192 7.98552 77.3806C7.79206 77.9949 7.22323 78.3871 6.6082 78.3871C6.46383 78.3871 6.31946 78.3669 6.17508 78.3208ZM7.60438 73.9228C6.85364 73.6517 6.46672 72.824 6.73814 72.0741C7.01245 71.3272 7.83826 70.9408 8.589 71.2118C9.33975 71.4829 9.72667 72.3106 9.45525 73.0604C9.24157 73.6459 8.68718 74.0093 8.09814 74.0093C7.93355 74.0093 7.76608 73.9804 7.60438 73.9228ZM9.21847 69.5911C8.47928 69.2883 8.12701 68.4433 8.43019 67.7079C8.73338 66.9725 9.57652 66.6206 10.3157 66.9234C11.052 67.2262 11.4043 68.0684 11.1011 68.8066C10.873 69.3632 10.333 69.6978 9.76709 69.6978C9.58229 69.6978 9.3975 69.6632 9.21847 69.5911ZM11.0087 65.3315C10.2868 64.997 9.96921 64.1404 10.3042 63.4166C10.6362 62.6927 11.4967 62.3783 12.2185 62.71C12.9433 63.0445 13.2609 63.9011 12.926 64.6249C12.6834 65.1527 12.1608 65.4641 11.6151 65.4641C11.4129 65.4641 11.205 65.4209 11.0087 65.3315ZM12.9808 61.1498C12.2705 60.7864 11.9904 59.9183 12.3543 59.2089C12.7181 58.4994 13.5872 58.2197 14.2975 58.5831C15.0078 58.9464 15.2879 59.8174 14.9241 60.524C14.6671 61.0229 14.1618 61.3084 13.6392 61.3084C13.4168 61.3084 13.1916 61.2565 12.9808 61.1498ZM15.1233 57.0575C14.4275 56.6624 14.1849 55.7828 14.5776 55.0906C14.9703 54.3985 15.8539 54.1562 16.5469 54.5484C17.2399 54.9407 17.4824 55.8203 17.0897 56.5124C16.8241 56.9825 16.3361 57.2449 15.8337 57.2449C15.5911 57.2449 15.3486 57.1844 15.1233 57.0575ZM17.4333 53.0574C16.7576 52.6364 16.5497 51.7452 16.9713 51.0704C17.3929 50.3927 18.2851 50.1879 18.9608 50.609C19.6364 51.03 19.8443 51.9183 19.4228 52.596C19.1485 53.0344 18.6778 53.2737 18.1956 53.2737C17.9357 53.2737 17.6701 53.2045 17.4333 53.0574ZM19.9108 49.1555C19.2495 48.7085 19.0821 47.8116 19.5296 47.154C19.9801 46.4965 20.8781 46.3263 21.5364 46.7733C22.1947 47.2232 22.3651 48.1201 21.9147 48.7777C21.6346 49.1872 21.1841 49.4064 20.7221 49.4064C20.4421 49.4064 20.1591 49.3256 19.9108 49.1555ZM22.5441 45.3631C21.9031 44.8872 21.7732 43.9846 22.2496 43.3443C22.726 42.707 23.6298 42.5743 24.2679 43.0502C24.909 43.526 25.0418 44.4287 24.5654 45.0689C24.2795 45.4496 23.8464 45.6486 23.4046 45.6486C23.1043 45.6486 22.804 45.5563 22.5441 45.3631ZM25.3334 41.6832C24.7155 41.1814 24.6202 40.2729 25.1226 39.6558C25.6251 39.0357 26.5346 38.9434 27.1525 39.4452C27.7733 39.947 27.8657 40.8555 27.3633 41.4726C27.0803 41.8245 26.6617 42.0062 26.243 42.0062C25.9225 42.0062 25.602 41.8995 25.3334 41.6832ZM28.2729 38.1215C27.6752 37.5966 27.6174 36.6853 28.1458 36.0883C28.6742 35.4914 29.5867 35.4337 30.1844 35.9614C30.7821 36.4863 30.8369 37.3976 30.3114 37.9946C30.0256 38.3176 29.6271 38.4849 29.2257 38.4849C28.8879 38.4849 28.5472 38.3638 28.2729 38.1215ZM31.3567 34.6867C30.7792 34.1359 30.7619 33.2217 31.3134 32.6478C31.8649 32.0739 32.7802 32.0537 33.3548 32.6045C33.9294 33.1554 33.9496 34.0696 33.3981 34.6435C33.1151 34.9405 32.734 35.0876 32.3557 35.0876C31.9948 35.0876 31.6368 34.9549 31.3567 34.6867ZM34.5791 31.3817C34.0276 30.8078 34.0449 29.8936 34.6195 29.3428C35.197 28.792 36.1094 28.8093 36.6609 29.3832C37.2153 29.96 37.1951 30.8713 36.6205 31.4221C36.3404 31.6903 35.9795 31.8259 35.6215 31.8259C35.2403 31.8259 34.8621 31.6759 34.5791 31.3817ZM37.9343 28.2123C37.4059 27.6153 37.4637 26.704 38.0614 26.1762C38.6591 25.6513 39.5715 25.7061 40.0999 26.3031C40.6254 26.9001 40.5706 27.8114 39.9729 28.3392C39.6986 28.5814 39.3578 28.6997 39.0171 28.6997C38.6187 28.6997 38.2202 28.5353 37.9343 28.2123ZM41.4195 25.187C40.9171 24.567 41.0095 23.6585 41.6274 23.1567C42.2482 22.6549 43.1577 22.7472 43.6602 23.3673C44.1626 23.9844 44.0673 24.8929 43.4494 25.3947C43.1809 25.6139 42.8603 25.7177 42.5398 25.7177C42.1212 25.7177 41.7025 25.536 41.4195 25.187ZM45.0231 22.306C44.5466 21.6657 44.6794 20.7631 45.3176 20.2872C45.9586 19.8114 46.8624 19.944 47.3388 20.5814C47.8152 21.2187 47.6824 22.1243 47.0443 22.5973C46.7844 22.7905 46.4812 22.8856 46.1809 22.8856C45.742 22.8856 45.3089 22.6838 45.0231 22.306ZM48.745 19.5778C48.2946 18.9202 48.4649 18.0233 49.1233 17.5734C49.7787 17.1235 50.6796 17.2908 51.1272 17.9512C51.5776 18.6088 51.4101 19.5057 50.7518 19.9527C50.5006 20.1228 50.2176 20.2065 49.9375 20.2065C49.4755 20.2065 49.0251 19.9844 48.745 19.5778ZM52.5738 17.0053C52.1522 16.3305 52.3572 15.4393 53.0358 15.0183C53.7114 14.5972 54.6008 14.802 55.0252 15.4797C55.4468 16.1545 55.2389 17.0428 54.5632 17.4667C54.3265 17.6138 54.0608 17.683 53.8009 17.683C53.3187 17.683 52.8481 17.4437 52.5738 17.0053ZM56.5065 14.5943C56.1138 13.9022 56.3564 13.0226 57.0494 12.6304C57.7423 12.2353 58.623 12.4775 59.0186 13.1697C59.4113 13.8647 59.1687 14.7443 58.4758 15.1365C58.2505 15.2663 58.0051 15.3268 57.7654 15.3268C57.2601 15.3268 56.7722 15.0615 56.5065 14.5943ZM60.5345 12.3506C60.1707 11.644 60.4508 10.7731 61.1582 10.4097C61.8685 10.0463 62.7377 10.3232 63.1044 11.0327C63.4682 11.7421 63.1881 12.6102 62.4807 12.9735C62.2699 13.0831 62.0447 13.135 61.8223 13.135C61.2968 13.135 60.7915 12.8495 60.5345 12.3506ZM64.652 10.2771C64.32 9.55319 64.6347 8.69666 65.3566 8.36212C66.0813 8.02758 66.9389 8.34193 67.2739 9.0658C67.6088 9.78967 67.2941 10.6462 66.5693 10.9807C66.373 11.0701 66.168 11.1134 65.9658 11.1134C65.4201 11.1134 64.8975 10.8048 64.652 10.2771ZM68.8533 8.37654C68.5472 7.64114 68.8995 6.79614 69.6358 6.49333C70.3721 6.19051 71.2181 6.53947 71.5213 7.27488C71.8245 8.01316 71.4751 8.85528 70.7388 9.15809C70.5569 9.23307 70.3721 9.26768 70.1873 9.26768C69.6214 9.26768 69.0814 8.93314 68.8533 8.37654ZM73.1268 6.65194C72.8524 5.905 73.2394 5.07731 73.9872 4.80334C74.738 4.53225 75.5667 4.9187 75.8381 5.66564C76.1124 6.41258 75.7255 7.24027 74.9776 7.51424C74.813 7.57481 74.6484 7.60076 74.4839 7.60076C73.8948 7.60076 73.3404 7.23738 73.1268 6.65194ZM77.4666 5.11192C77.2241 4.35056 77.6456 3.54017 78.405 3.29792C79.1645 3.05855 79.9758 3.47673 80.2184 4.23809C80.4609 4.99656 80.0394 5.80695 79.2799 6.04632C79.1356 6.09246 78.9854 6.11553 78.841 6.11553C78.2289 6.11553 77.663 5.72332 77.4666 5.11192ZM81.8787 3.74782C81.6708 2.9778 82.1241 2.18472 82.8922 1.97708C83.6631 1.76655 84.4572 2.21933 84.6651 2.98934C84.8759 3.75647 84.4225 4.54955 83.6516 4.76008C83.5245 4.79469 83.3975 4.80911 83.2733 4.80911C82.6381 4.80911 82.0548 4.38805 81.8787 3.74782ZM86.3398 2.57117C86.1608 1.79539 86.6488 1.01961 87.4255 0.843688C88.2022 0.667767 88.9761 1.15227 89.1551 1.92805C89.3312 2.70671 88.8461 3.47961 88.0665 3.65553C87.9597 3.68149 87.8499 3.69302 87.746 3.69302C87.0848 3.69302 86.4899 3.24024 86.3398 2.57117Z" fill="url(#paint5_linear_1233_2060)"/>
</g>
<defs>
<linearGradient id="paint0_linear_1233_2060" x1="56.025" y1="174.737" x2="204.1" y2="174.737" gradientUnits="userSpaceOnUse">
<stop stop-color="#8CD6D6"/>
<stop offset="1" stop-color="#FF9F80"/>
</linearGradient>
<linearGradient id="paint1_linear_1233_2060" x1="115.635" y1="145.781" x2="86.8408" y2="129.583" gradientUnits="userSpaceOnUse">
<stop stop-color="#8CD6D6"/>
<stop offset="1" stop-color="#FF9F80"/>
</linearGradient>
<linearGradient id="paint2_linear_1233_2060" x1="158.485" y1="54.0674" x2="129.917" y2="37.9967" gradientUnits="userSpaceOnUse">
<stop stop-color="#8CD6D6"/>
<stop offset="1" stop-color="#FF9F80"/>
</linearGradient>
<linearGradient id="paint3_linear_1233_2060" x1="155.518" y1="59.2933" x2="126.971" y2="43.234" gradientUnits="userSpaceOnUse">
<stop stop-color="#8CD6D6"/>
<stop offset="1" stop-color="#FF9F80"/>
</linearGradient>
<linearGradient id="paint4_linear_1233_2060" x1="148.14" y1="56.6998" x2="225.033" y2="56.6998" gradientUnits="userSpaceOnUse">
<stop stop-color="#8CD6D6"/>
<stop offset="1" stop-color="#FF9F80"/>
</linearGradient>
<linearGradient id="paint5_linear_1233_2060" x1="0.0334434" y1="111.806" x2="206.949" y2="111.806" gradientUnits="userSpaceOnUse">
<stop stop-color="#8CD6D6"/>
<stop offset="1" stop-color="#FF9F80"/>
</linearGradient>
<clipPath id="clip0_1233_2060">
<rect width="225" height="222" fill="white" transform="translate(0.0332031 0.806152)"/>
</clipPath>
</defs>
</svg>
