<svg width="262" height="240" viewBox="0 0 262 240" fill="none" xmlns="http://www.w3.org/2000/svg">
<g clip-path="url(#clip0_1203_5350)">
<path d="M177.812 239.797C177.019 239.711 176.443 239 176.527 238.208C176.611 237.413 177.326 236.838 178.122 236.925C178.915 237.009 179.491 237.72 179.407 238.514C179.326 239.254 178.698 239.806 177.969 239.806C177.917 239.806 177.865 239.803 177.812 239.797ZM179.969 238.503C179.844 237.714 180.383 236.974 181.17 236.847C181.96 236.72 182.702 237.257 182.829 238.046C182.953 238.832 182.418 239.575 181.628 239.702C181.552 239.714 181.474 239.719 181.399 239.719C180.701 239.719 180.085 239.214 179.969 238.503ZM173.207 239.306C172.414 239.219 171.838 238.509 171.922 237.714C172.009 236.922 172.721 236.347 173.517 236.431C174.31 236.518 174.886 237.229 174.802 238.023C174.721 238.763 174.096 239.315 173.363 239.315C173.311 239.315 173.259 239.315 173.207 239.306ZM168.602 238.812C167.808 238.728 167.232 238.017 167.316 237.223C167.403 236.431 168.115 235.856 168.911 235.94C169.704 236.024 170.28 236.737 170.197 237.529C170.115 238.272 169.49 238.821 168.758 238.821C168.706 238.821 168.654 238.821 168.602 238.812ZM163.996 238.321C163.203 238.237 162.627 237.523 162.714 236.731C162.798 235.937 163.513 235.362 164.306 235.448C165.102 235.532 165.675 236.246 165.591 237.038C165.51 237.78 164.885 238.329 164.152 238.329C164.103 238.329 164.051 238.329 163.996 238.321ZM184.485 237.46C184.091 236.769 184.331 235.885 185.026 235.492C185.721 235.096 186.604 235.336 187 236.029C187.397 236.723 187.153 237.607 186.462 238C186.236 238.13 185.99 238.191 185.747 238.191C185.246 238.191 184.757 237.928 184.488 237.46H184.485ZM159.394 237.83C158.598 237.743 158.022 237.032 158.108 236.237C158.192 235.446 158.904 234.871 159.7 234.954C160.497 235.041 161.07 235.752 160.986 236.547C160.908 237.286 160.279 237.838 159.547 237.838C159.498 237.838 159.446 237.835 159.394 237.83ZM154.788 237.338C153.992 237.252 153.416 236.541 153.503 235.746C153.587 234.954 154.299 234.379 155.095 234.463C155.891 234.55 156.464 235.261 156.38 236.055C156.302 236.795 155.674 237.347 154.945 237.347C154.892 237.347 154.84 237.347 154.788 237.338ZM150.183 236.844C149.387 236.76 148.811 236.047 148.898 235.255C148.982 234.46 149.694 233.885 150.49 233.972C151.286 234.056 151.859 234.769 151.775 235.561C151.697 236.304 151.069 236.853 150.339 236.853C150.287 236.853 150.235 236.853 150.183 236.844ZM145.577 236.353C144.781 236.269 144.208 235.555 144.292 234.764C144.376 233.969 145.091 233.394 145.884 233.481C146.68 233.564 147.253 234.275 147.169 235.07C147.091 235.813 146.463 236.362 145.731 236.362C145.682 236.362 145.63 236.359 145.577 236.353ZM140.972 235.862C140.179 235.775 139.603 235.064 139.687 234.269C139.774 233.478 140.486 232.903 141.279 232.986C142.075 233.073 142.651 233.784 142.564 234.579C142.486 235.318 141.858 235.87 141.128 235.87C141.076 235.87 141.024 235.867 140.972 235.862ZM136.367 235.368C135.571 235.284 134.997 234.573 135.081 233.778C135.165 232.984 135.88 232.411 136.673 232.495C137.469 232.582 138.045 233.293 137.959 234.085C137.88 234.827 137.252 235.376 136.523 235.376C136.471 235.376 136.419 235.373 136.367 235.368ZM188.349 234.905C187.735 234.394 187.654 233.481 188.17 232.871C188.682 232.258 189.594 232.177 190.207 232.689C190.821 233.2 190.902 234.113 190.387 234.723C190.103 235.067 189.692 235.243 189.278 235.243C188.951 235.243 188.621 235.131 188.349 234.905ZM131.761 234.876C130.965 234.793 130.392 234.079 130.476 233.287C130.56 232.492 131.275 231.917 132.071 232.004C132.864 232.088 133.44 232.802 133.356 233.593C133.275 234.336 132.647 234.885 131.917 234.885C131.865 234.885 131.813 234.885 131.761 234.876ZM127.156 234.385C126.363 234.301 125.787 233.588 125.871 232.793C125.957 232.001 126.669 231.426 127.465 231.513C128.259 231.597 128.835 232.307 128.751 233.102C128.67 233.842 128.042 234.391 127.312 234.391C127.26 234.391 127.208 234.391 127.156 234.385ZM122.55 233.891C121.757 233.807 121.181 233.096 121.265 232.302C121.352 231.507 122.064 230.935 122.86 231.019C123.653 231.105 124.229 231.816 124.145 232.611C124.064 233.351 123.436 233.9 122.707 233.9C122.655 233.9 122.602 233.897 122.55 233.891ZM117.945 233.4C117.152 233.316 116.576 232.602 116.66 231.81C116.747 231.016 117.459 230.444 118.255 230.527C119.051 230.611 119.624 231.325 119.54 232.117C119.459 232.859 118.834 233.408 118.101 233.408C118.052 233.408 117.997 233.408 117.945 233.4ZM113.342 232.908C112.546 232.822 111.97 232.111 112.057 231.316C112.141 230.524 112.853 229.949 113.649 230.033C114.445 230.12 115.018 230.831 114.934 231.625C114.856 232.365 114.228 232.917 113.496 232.917C113.447 232.917 113.394 232.917 113.342 232.908ZM108.737 232.414C107.941 232.33 107.365 231.62 107.452 230.825C107.536 230.033 108.248 229.458 109.044 229.542C109.84 229.626 110.413 230.34 110.329 231.134C110.248 231.874 109.623 232.423 108.893 232.423C108.841 232.423 108.789 232.423 108.737 232.414ZM104.132 231.923C103.336 231.839 102.759 231.125 102.843 230.334C102.93 229.539 103.642 228.967 104.438 229.051C105.234 229.135 105.808 229.848 105.724 230.64C105.643 231.383 105.017 231.932 104.288 231.932C104.236 231.932 104.184 231.929 104.132 231.923ZM99.5261 231.432C98.7301 231.345 98.1541 230.634 98.2409 229.842C98.3249 229.048 99.0398 228.473 99.833 228.557C100.629 228.643 101.205 229.354 101.118 230.149C101.04 230.889 100.412 231.44 99.6825 231.44C99.6304 231.44 99.5783 231.44 99.5261 231.432ZM191.076 231.166C190.323 230.9 189.927 230.077 190.19 229.322C190.453 228.571 191.281 228.172 192.037 228.438C192.789 228.701 193.186 229.527 192.923 230.279C192.714 230.874 192.153 231.247 191.556 231.247C191.397 231.247 191.235 231.221 191.076 231.166ZM94.9207 230.941C94.1247 230.854 93.5487 230.143 93.6355 229.348C93.7194 228.557 94.4344 227.982 95.2276 228.065C96.0236 228.152 96.5996 228.863 96.5128 229.658C96.4346 230.397 95.8065 230.949 95.077 230.949C95.0249 230.949 94.9728 230.946 94.9207 230.941ZM90.3153 230.446C89.5193 230.363 88.9432 229.649 89.0301 228.857C89.114 228.062 89.829 227.487 90.6222 227.574C91.4182 227.658 91.9942 228.372 91.9074 229.163C91.8292 229.906 91.2011 230.455 90.4716 230.455C90.4195 230.455 90.3674 230.455 90.3153 230.446ZM85.7099 229.955C84.9139 229.871 84.3407 229.158 84.4247 228.366C84.5115 227.571 85.2236 226.996 86.0196 227.083C86.8128 227.167 87.3888 227.877 87.302 228.672C87.2238 229.415 86.5957 229.964 85.8662 229.964C85.8141 229.964 85.762 229.961 85.7099 229.955ZM81.1045 229.464C80.3114 229.377 79.7353 228.666 79.8193 227.872C79.9061 227.08 80.6182 226.505 81.4113 226.589C82.2074 226.675 82.7834 227.386 82.6994 228.181C82.6184 228.921 81.9903 229.473 81.2608 229.473C81.2087 229.473 81.1566 229.473 81.1045 229.464ZM76.3254 228.822C75.5496 228.632 75.0749 227.849 75.2659 227.074C75.457 226.3 76.2415 225.826 77.0172 226.017C77.793 226.207 78.2677 226.987 78.0767 227.765C77.9146 228.424 77.3241 228.863 76.6728 228.863C76.5599 228.863 76.4412 228.851 76.3254 228.822ZM71.6505 226.73C70.9905 226.279 70.8226 225.381 71.2742 224.722C71.7258 224.063 72.6289 223.896 73.286 224.346C73.9431 224.8 74.111 225.699 73.6594 226.358C73.3786 226.765 72.9271 226.985 72.4639 226.985C72.1831 226.985 71.8966 226.901 71.6476 226.73H71.6505ZM192.231 226.704C191.438 226.618 190.862 225.907 190.948 225.115C191.032 224.32 191.747 223.745 192.54 223.829C193.337 223.916 193.91 224.627 193.826 225.421C193.748 226.161 193.119 226.713 192.387 226.713C192.338 226.713 192.286 226.71 192.231 226.704ZM68.009 223.138C67.5488 222.485 67.7051 221.584 68.3593 221.124C69.0135 220.665 69.9166 220.824 70.3769 221.474C70.8371 222.13 70.6779 223.029 70.0237 223.488C69.7719 223.667 69.4824 223.751 69.1929 223.751C68.7385 223.751 68.2898 223.537 68.009 223.138ZM192.726 222.107C191.93 222.023 191.357 221.309 191.441 220.515C191.524 219.723 192.239 219.148 193.033 219.232C193.829 219.318 194.402 220.029 194.318 220.824C194.24 221.564 193.611 222.115 192.882 222.115C192.83 222.115 192.778 222.115 192.726 222.107ZM65.8525 218.5C65.6499 217.729 66.113 216.94 66.8888 216.738C67.6617 216.535 68.4519 217.001 68.6516 217.772C68.8543 218.544 68.3911 219.333 67.6182 219.535C67.4967 219.567 67.3722 219.581 67.2506 219.581C66.6109 219.581 66.0233 219.151 65.8525 218.5ZM193.218 217.509C192.422 217.426 191.849 216.712 191.933 215.92C192.019 215.125 192.732 214.55 193.528 214.637C194.321 214.721 194.897 215.435 194.813 216.226C194.732 216.969 194.104 217.518 193.374 217.518C193.322 217.518 193.27 217.518 193.218 217.509ZM66.7585 214.99C65.9625 214.906 65.3836 214.198 65.4646 213.403C65.5485 212.608 66.2606 212.033 67.0538 212.114C67.8498 212.195 68.4259 212.906 68.3448 213.701C68.2695 214.443 67.6414 214.995 66.909 214.995C66.8598 214.995 66.8077 214.995 66.7585 214.99ZM193.713 212.912C192.917 212.828 192.341 212.114 192.428 211.322C192.512 210.528 193.224 209.953 194.02 210.039C194.816 210.123 195.389 210.837 195.305 211.629C195.227 212.371 194.599 212.92 193.866 212.92C193.817 212.92 193.765 212.918 193.713 212.912ZM67.2448 210.392C66.4488 210.305 65.8728 209.594 65.9596 208.8C66.0435 208.008 66.7585 207.433 67.5517 207.517C68.3477 207.603 68.9237 208.314 68.8369 209.109C68.7587 209.849 68.1306 210.401 67.3982 210.401C67.349 210.401 67.2969 210.401 67.2448 210.392ZM194.205 208.314C193.409 208.231 192.836 207.517 192.92 206.725C193.004 205.93 193.719 205.355 194.512 205.442C195.308 205.526 195.884 206.24 195.797 207.031C195.719 207.774 195.091 208.323 194.361 208.323C194.309 208.323 194.257 208.323 194.205 208.314ZM67.7369 205.795C66.9438 205.708 66.3677 204.997 66.4517 204.202C66.5385 203.411 67.2506 202.835 68.0438 202.922C68.8398 203.006 69.4158 203.717 69.329 204.512C69.2508 205.251 68.6227 205.803 67.8932 205.8C67.8411 205.8 67.789 205.8 67.7369 205.795ZM194.697 203.72C193.904 203.633 193.328 202.922 193.412 202.128C193.499 201.333 194.211 200.761 195.007 200.844C195.8 200.928 196.376 201.642 196.292 202.437C196.211 203.176 195.583 203.726 194.853 203.726C194.801 203.726 194.749 203.726 194.697 203.72ZM68.229 201.197C67.4359 201.11 66.8598 200.399 66.9438 199.608C67.0306 198.813 67.7427 198.238 68.5387 198.322C69.3319 198.409 69.9079 199.119 69.824 199.914C69.7429 200.654 69.1177 201.206 68.3853 201.206C68.3332 201.206 68.2811 201.203 68.229 201.197ZM195.192 199.122C194.396 199.036 193.82 198.325 193.904 197.53C193.991 196.738 194.703 196.163 195.499 196.247C196.292 196.334 196.868 197.045 196.784 197.836C196.703 198.579 196.075 199.128 195.345 199.128C195.293 199.128 195.241 199.125 195.192 199.122ZM68.724 196.6C67.928 196.513 67.3519 195.802 67.4388 195.01C67.5227 194.216 68.2348 193.641 69.0308 193.724C69.8269 193.811 70.4 194.522 70.3161 195.317C70.2379 196.056 69.6098 196.608 68.8803 196.608C68.8282 196.608 68.7761 196.608 68.724 196.6ZM195.684 194.522C194.888 194.438 194.312 193.727 194.399 192.933C194.483 192.141 195.195 191.566 195.991 191.65C196.787 191.736 197.363 192.447 197.276 193.239C197.198 193.981 196.57 194.531 195.838 194.531C195.788 194.531 195.736 194.531 195.684 194.522ZM69.2161 192.002C68.4201 191.918 67.844 191.205 67.9309 190.41C68.0148 189.618 68.7298 189.043 69.5229 189.13C70.319 189.214 70.895 189.927 70.8082 190.719C70.73 191.462 70.1019 192.011 69.3724 192.011C69.3203 192.011 69.2682 192.008 69.2161 192.002ZM196.176 189.927C195.38 189.841 194.807 189.13 194.891 188.335C194.978 187.543 195.69 186.968 196.483 187.052C197.279 187.139 197.855 187.85 197.768 188.644C197.69 189.384 197.062 189.933 196.333 189.933C196.28 189.933 196.228 189.933 196.176 189.927ZM69.7082 187.405C68.915 187.321 68.339 186.607 68.423 185.815C68.5098 185.021 69.2219 184.446 70.0179 184.532C70.8111 184.616 71.3871 185.33 71.3003 186.122C71.2221 186.864 70.594 187.413 69.8645 187.413C69.8124 187.413 69.7603 187.41 69.7082 187.405ZM196.668 185.33C195.875 185.243 195.299 184.532 195.383 183.738C195.47 182.946 196.182 182.371 196.978 182.455C197.771 182.541 198.347 183.252 198.263 184.047C198.182 184.787 197.554 185.338 196.825 185.338C196.772 185.338 196.72 185.338 196.668 185.33ZM70.2003 182.807C69.4071 182.723 68.8311 182.01 68.915 181.218C69.0019 180.423 69.714 179.848 70.51 179.935C71.3031 180.019 71.8792 180.732 71.7952 181.524C71.7142 182.267 71.0889 182.816 70.3566 182.816C70.3074 182.816 70.2553 182.816 70.2003 182.807ZM197.163 180.732C196.367 180.646 195.791 179.935 195.875 179.14C195.962 178.348 196.674 177.773 197.47 177.857C198.263 177.944 198.839 178.655 198.755 179.449C198.674 180.189 198.049 180.741 197.32 180.741C197.267 180.741 197.215 180.738 197.163 180.732ZM70.6953 178.21C69.8992 178.126 69.3261 177.412 69.41 176.62C69.494 175.826 70.209 175.253 71.0021 175.337C71.7981 175.421 72.3742 176.135 72.2873 176.927C72.2092 177.669 71.581 178.218 70.8516 178.218C70.7995 178.218 70.7474 178.218 70.6953 178.21ZM197.655 176.135C196.859 176.051 196.283 175.337 196.37 174.543C196.454 173.751 197.169 173.176 197.962 173.262C198.758 173.346 199.334 174.057 199.247 174.852C199.169 175.592 198.541 176.143 197.812 176.143C197.76 176.143 197.707 176.141 197.655 176.135ZM71.1874 173.615C70.3913 173.528 69.8182 172.817 69.9021 172.023C69.989 171.228 70.7011 170.656 71.4971 170.74C72.2902 170.824 72.8663 171.537 72.7794 172.329C72.7013 173.072 72.0731 173.621 71.3437 173.621C71.2916 173.621 71.2395 173.618 71.1874 173.615ZM198.147 171.537C197.354 171.454 196.778 170.74 196.862 169.948C196.949 169.153 197.661 168.578 198.454 168.665C199.25 168.749 199.826 169.463 199.74 170.254C199.661 170.997 199.033 171.546 198.304 171.546C198.252 171.546 198.2 171.546 198.147 171.537ZM71.6795 169.015C70.8863 168.931 70.3103 168.22 70.3971 167.425C70.4811 166.634 71.196 166.058 71.9892 166.142C72.7852 166.229 73.3584 166.94 73.2744 167.732C73.1934 168.474 72.5681 169.023 71.8358 169.023C71.7866 169.023 71.7345 169.023 71.6795 169.015ZM198.64 166.94C197.846 166.856 197.27 166.142 197.354 165.351C197.441 164.556 198.153 163.981 198.949 164.067C199.742 164.151 200.318 164.862 200.234 165.657C200.153 166.399 199.528 166.949 198.796 166.949C198.744 166.949 198.692 166.949 198.64 166.94ZM72.1715 164.417C71.3784 164.333 70.8024 163.622 70.8892 162.828C70.9732 162.033 71.6881 161.461 72.4813 161.545C73.2773 161.629 73.8505 162.342 73.7665 163.137C73.6884 163.877 73.0602 164.426 72.3308 164.426C72.2786 164.426 72.2265 164.426 72.1715 164.417ZM199.135 162.342C198.339 162.259 197.762 161.545 197.849 160.753C197.933 159.958 198.645 159.383 199.441 159.47C200.237 159.554 200.811 160.265 200.727 161.059C200.648 161.799 200.02 162.351 199.291 162.351C199.239 162.351 199.187 162.348 199.135 162.342ZM72.6665 159.823C71.8705 159.736 71.2974 159.025 71.3813 158.23C71.4681 157.439 72.1802 156.864 72.9763 156.947C73.7694 157.034 74.3454 157.745 74.2586 158.54C74.1804 159.279 73.5523 159.828 72.8228 159.828C72.7707 159.828 72.7186 159.825 72.6665 159.823ZM199.627 157.745C198.831 157.661 198.257 156.947 198.341 156.156C198.425 155.361 199.14 154.789 199.936 154.873C200.73 154.956 201.306 155.67 201.219 156.462C201.141 157.204 200.512 157.754 199.783 157.754C199.731 157.754 199.679 157.754 199.627 157.745ZM73.1615 155.225C72.3655 155.138 71.7895 154.428 71.8763 153.633C71.9602 152.841 72.6723 152.266 73.4684 152.35C74.2615 152.437 74.8375 153.147 74.7536 153.942C74.6725 154.682 74.0473 155.234 73.3149 155.234C73.2657 155.234 73.2136 155.231 73.1615 155.225ZM200.119 153.147C199.326 153.064 198.75 152.353 198.833 151.558C198.92 150.763 199.632 150.191 200.428 150.275C201.224 150.359 201.798 151.073 201.711 151.864C201.633 152.607 201.004 153.156 200.275 153.156C200.223 153.156 200.171 153.156 200.119 153.147ZM73.6536 150.628C72.8576 150.541 72.2815 149.83 72.3684 149.035C72.4523 148.244 73.1673 147.669 73.9605 147.752C74.7565 147.839 75.3325 148.55 75.2457 149.345C75.1675 150.084 74.5394 150.636 73.807 150.636C73.7578 150.636 73.7057 150.633 73.6536 150.628ZM200.611 148.55C199.818 148.466 199.242 147.752 199.328 146.961C199.412 146.166 200.127 145.594 200.921 145.678C201.717 145.761 202.29 146.475 202.206 147.267C202.125 148.01 201.499 148.559 200.767 148.559C200.718 148.559 200.666 148.556 200.611 148.55ZM74.1457 146.03C73.3526 145.946 72.7765 145.233 72.8605 144.438C72.9473 143.646 73.6594 143.071 74.4525 143.158C75.2486 143.242 75.8246 143.955 75.7378 144.747C75.6596 145.487 75.0315 146.039 74.302 146.039C74.2499 146.039 74.1978 146.039 74.1457 146.03ZM201.106 143.955C200.31 143.869 199.737 143.158 199.821 142.363C199.905 141.568 200.619 140.996 201.416 141.08C202.209 141.164 202.785 141.878 202.698 142.672C202.62 143.412 201.992 143.961 201.262 143.961C201.21 143.961 201.158 143.961 201.106 143.955ZM74.6378 141.433C73.8447 141.349 73.2686 140.635 73.3526 139.843C73.4394 139.049 74.1515 138.474 74.9475 138.56C75.7407 138.644 76.3167 139.355 76.2328 140.15C76.1517 140.892 75.5236 141.441 74.7941 141.441C74.742 141.441 74.6899 141.438 74.6378 141.433ZM201.598 139.358C200.805 139.271 200.229 138.56 200.313 137.766C200.4 136.974 201.112 136.399 201.908 136.483C202.701 136.569 203.277 137.28 203.193 138.075C203.112 138.815 202.484 139.366 201.754 139.366C201.702 139.366 201.65 139.364 201.598 139.358ZM75.1328 136.835C74.3368 136.751 73.7607 136.038 73.8476 135.246C73.9315 134.451 74.6436 133.876 75.4396 133.963C76.2328 134.047 76.8088 134.757 76.7249 135.552C76.6438 136.292 76.0186 136.844 75.2862 136.844C75.237 136.844 75.1849 136.841 75.1328 136.835ZM202.093 134.76C201.297 134.674 200.721 133.963 200.808 133.168C200.892 132.376 201.607 131.801 202.4 131.885C203.196 131.972 203.769 132.683 203.685 133.477C203.604 134.217 202.979 134.769 202.246 134.769C202.197 134.769 202.145 134.769 202.093 134.76ZM75.6249 132.238C74.8289 132.154 74.2528 131.44 74.3397 130.648C74.4236 129.854 75.1386 129.279 75.9317 129.365C76.7278 129.449 77.3038 130.163 77.217 130.955C77.1388 131.697 76.5106 132.246 75.7812 132.246C75.7291 132.246 75.677 132.246 75.6249 132.238ZM202.585 130.163C201.789 130.076 201.213 129.365 201.3 128.571C201.384 127.779 202.099 127.204 202.892 127.288C203.688 127.374 204.264 128.085 204.177 128.88C204.099 129.62 203.471 130.171 202.741 130.171C202.689 130.171 202.637 130.169 202.585 130.163ZM76.117 127.64C75.3238 127.556 74.7478 126.845 74.8317 126.051C74.9186 125.256 75.6307 124.684 76.4238 124.768C77.2198 124.852 77.7959 125.565 77.709 126.357C77.6309 127.1 77.0027 127.649 76.2733 127.649C76.2212 127.649 76.1691 127.649 76.117 127.64ZM203.077 125.565C202.284 125.482 201.708 124.768 201.792 123.976C201.879 123.181 202.591 122.606 203.387 122.693C204.18 122.777 204.756 123.488 204.672 124.282C204.591 125.022 203.963 125.574 203.233 125.574C203.181 125.574 203.129 125.571 203.077 125.565ZM76.6091 123.043C75.8159 122.959 75.2399 122.248 75.3238 121.453C75.4107 120.659 76.1228 120.086 76.9188 120.17C77.7119 120.254 78.288 120.968 78.204 121.76C78.123 122.502 77.4977 123.051 76.7654 123.051C76.7133 123.051 76.6612 123.048 76.6091 123.043ZM203.572 120.968C202.776 120.881 202.2 120.17 202.284 119.379C202.371 118.584 203.083 118.009 203.879 118.096C204.672 118.179 205.248 118.89 205.164 119.685C205.083 120.425 204.458 120.977 203.725 120.977C203.676 120.977 203.624 120.977 203.572 120.968ZM77.1041 118.445C76.308 118.361 75.732 117.648 75.8188 116.856C75.9028 116.061 76.6149 115.489 77.4109 115.573C78.2069 115.657 78.783 116.37 78.6961 117.162C78.618 117.905 77.9898 118.454 77.2604 118.454C77.2083 118.454 77.1562 118.454 77.1041 118.445ZM204.064 116.37C203.268 116.287 202.692 115.573 202.779 114.781C202.863 113.986 203.578 113.411 204.371 113.498C205.167 113.582 205.743 114.296 205.656 115.087C205.578 115.827 204.95 116.379 204.218 116.379C204.168 116.379 204.116 116.379 204.064 116.37ZM77.5962 113.851C76.8001 113.764 76.2241 113.053 76.3109 112.258C76.3949 111.467 77.1099 110.892 77.903 110.975C78.699 111.062 79.2751 111.773 79.1882 112.568C79.1101 113.307 78.4819 113.856 77.7525 113.856C77.7004 113.856 77.6483 113.856 77.5962 113.851ZM204.556 111.773C203.763 111.689 203.187 110.975 203.271 110.184C203.358 109.389 204.07 108.817 204.863 108.901C205.659 108.984 206.235 109.698 206.148 110.49C206.07 111.233 205.442 111.782 204.713 111.782C204.66 111.782 204.608 111.779 204.556 111.773ZM78.0882 109.253C77.2951 109.166 76.7191 108.456 76.803 107.661C76.8899 106.869 77.6019 106.294 78.3951 106.378C79.1911 106.465 79.7672 107.175 79.6832 107.97C79.6022 108.71 78.974 109.262 78.2446 109.262C78.1925 109.262 78.1403 109.262 78.0882 109.253ZM205.048 107.175C204.255 107.092 203.679 106.378 203.763 105.586C203.85 104.791 204.562 104.216 205.358 104.303C206.151 104.387 206.727 105.101 206.643 105.892C206.562 106.635 205.937 107.184 205.205 107.184C205.153 107.184 205.1 107.184 205.048 107.175ZM78.5803 104.656C77.7872 104.569 77.2112 103.858 77.298 103.063C77.382 102.272 78.094 101.697 78.8901 101.78C79.6861 101.867 80.2592 102.578 80.1753 103.373C80.0942 104.112 79.469 104.664 78.7367 104.664C78.6846 104.664 78.6353 104.661 78.5803 104.656ZM205.543 102.578C204.747 102.494 204.171 101.78 204.258 100.989C204.342 100.194 205.054 99.6218 205.85 99.7056C206.643 99.7894 207.219 100.503 207.135 101.295C207.054 102.038 206.429 102.587 205.7 102.587C205.648 102.587 205.595 102.584 205.543 102.578ZM79.0753 100.058C78.2793 99.9743 77.7061 99.2605 77.7901 98.4659C77.874 97.6741 78.589 97.0991 79.3822 97.1858C80.1782 97.2696 80.7542 97.9804 80.6674 98.7751C80.5892 99.5177 79.9611 100.067 79.2287 100.067C79.1795 100.067 79.1274 100.064 79.0753 100.058ZM206.035 97.9804C205.239 97.8966 204.663 97.1858 204.75 96.3911C204.834 95.5964 205.549 95.0243 206.342 95.1081C207.138 95.1919 207.714 95.9056 207.627 96.7003C207.549 97.44 206.921 97.9891 206.192 97.9891C206.14 97.9891 206.088 97.9862 206.035 97.9804ZM79.5674 95.4606C78.7714 95.3739 78.1982 94.6631 78.2822 93.8713C78.3661 93.0766 79.0811 92.5016 79.8771 92.5883C80.6703 92.6721 81.2463 93.3829 81.1595 94.1776C81.0813 94.9174 80.4532 95.4693 79.7237 95.4693C79.6716 95.4693 79.6195 95.4664 79.5674 95.4606ZM206.528 93.3858C205.734 93.2991 205.158 92.5883 205.242 91.7936C205.329 91.0018 206.041 90.4268 206.834 90.5106C207.63 90.5973 208.206 91.3081 208.12 92.1028C208.041 92.8426 207.413 93.3945 206.684 93.3916C206.632 93.3916 206.58 93.3916 206.528 93.3858ZM80.0595 90.8631C79.2664 90.7764 78.6903 90.0656 78.7772 89.2738C78.8611 88.4791 79.5732 87.9041 80.3692 87.9908C81.1653 88.0746 81.7384 88.7854 81.6545 89.5801C81.5734 90.3199 80.9482 90.8718 80.2158 90.8718C80.1666 90.8718 80.1145 90.8689 80.0595 90.8631ZM207.02 88.7854C206.226 88.7016 205.65 87.9908 205.734 87.1961C205.821 86.4043 206.533 85.8293 207.329 85.9131C208.122 85.9998 208.699 86.7106 208.615 87.5024C208.534 88.2451 207.908 88.7941 207.176 88.7941C207.124 88.7941 207.072 88.7912 207.02 88.7854ZM80.5545 86.2656C79.7585 86.1818 79.1824 85.4681 79.2693 84.6734C79.3532 83.8817 80.0682 83.3066 80.8613 83.3933C81.6574 83.4771 82.2305 84.1908 82.1466 84.9826C82.0684 85.7253 81.4403 86.2743 80.7108 86.2743C80.6587 86.2743 80.6066 86.2714 80.5545 86.2656ZM207.515 84.1908C206.719 84.1041 206.143 83.3933 206.229 82.5986C206.313 81.8068 207.028 81.2318 207.821 81.3156C208.617 81.4023 209.193 82.1132 209.107 82.9078C209.029 83.6476 208.4 84.1966 207.671 84.1966C207.619 84.1966 207.567 84.1966 207.515 84.1908ZM81.0466 81.6681C80.2535 81.5843 79.6774 80.8706 79.7614 80.0788C79.8453 79.2842 80.5603 78.7091 81.3563 78.7958C82.1495 78.8796 82.7255 79.5934 82.6416 80.3851C82.5605 81.1278 81.9324 81.6768 81.2029 81.6768C81.1508 81.6768 81.0987 81.6739 81.0466 81.6681ZM208.007 79.5934C207.211 79.5067 206.638 78.7958 206.721 78.004C206.805 77.2094 207.52 76.6343 208.314 76.7181C209.11 76.8048 209.686 77.5157 209.599 78.3103C209.521 79.0501 208.892 79.602 208.163 79.602C208.111 79.602 208.059 79.5991 208.007 79.5934ZM81.5387 77.0707C80.7456 76.9869 80.1695 76.2731 80.2564 75.4813C80.3403 74.6867 81.0524 74.1116 81.8484 74.1983C82.6416 74.2821 83.2176 74.9959 83.1336 75.7876C83.0526 76.5303 82.4245 77.0793 81.695 77.0793C81.6458 77.0793 81.5937 77.0764 81.5387 77.0707ZM208.499 74.9959C207.706 74.9092 207.13 74.1983 207.214 73.4037C207.3 72.6119 208.012 72.0368 208.809 72.1206C209.602 72.2073 210.178 72.9182 210.094 73.7129C210.013 74.4526 209.385 75.0045 208.655 75.0045C208.603 75.0045 208.551 75.0016 208.499 74.9959ZM82.0337 72.4732C81.2376 72.3894 80.6616 71.6756 80.7484 70.8839C80.8324 70.0892 81.5474 69.517 82.3405 69.6008C83.1365 69.6846 83.7126 70.3984 83.6257 71.1902C83.5476 71.9328 82.9194 72.4818 82.1871 72.4818C82.1379 72.4818 82.0858 72.479 82.0337 72.4732ZM208.991 70.3984C208.198 70.3117 207.622 69.6008 207.709 68.8062C207.792 68.0144 208.507 67.4394 209.301 67.5232C210.097 67.6098 210.67 68.3207 210.586 69.1154C210.505 69.8551 209.88 70.4071 209.147 70.4071C209.098 70.4071 209.046 70.4042 208.991 70.3984ZM82.5258 67.8786C81.7297 67.7919 81.1566 67.081 81.2405 66.2864C81.3274 65.4917 82.0395 64.9195 82.8326 65.0033C83.6286 65.09 84.2047 65.8009 84.1178 66.5956C84.0397 67.3353 83.4115 67.8844 82.6821 67.8844C82.63 67.8844 82.5779 67.8815 82.5258 67.8786ZM209.486 65.8009C208.69 65.7171 208.117 65.0033 208.201 64.2116C208.285 63.4169 209 62.8419 209.793 62.9286C210.589 63.0124 211.165 63.7261 211.078 64.5179C211 65.2605 210.372 65.8096 209.642 65.8096C209.59 65.8096 209.538 65.8067 209.486 65.8009ZM83.0179 63.2811C82.2247 63.1944 81.6487 62.4835 81.7326 61.6889C81.8195 60.8971 82.5316 60.3221 83.3276 60.4059C84.1207 60.4925 84.6968 61.2034 84.6128 61.9952C84.5318 62.7378 83.9036 63.2898 83.1742 63.2869C83.1221 63.2869 83.07 63.2869 83.0179 63.2811ZM209.978 61.2034C209.185 61.1196 208.609 60.4059 208.693 59.6141C208.777 58.8194 209.492 58.2444 210.288 58.3311C211.081 58.4149 211.657 59.1286 211.573 59.9204C211.492 60.663 210.864 61.2121 210.134 61.2121C210.082 61.2121 210.033 61.2092 209.978 61.2034ZM83.5129 58.6807C82.7168 58.5969 82.1408 57.8861 82.2276 57.0914C82.3116 56.2996 83.0237 55.7246 83.8197 55.8084C84.6157 55.8951 85.1889 56.6059 85.1049 57.3977C85.0239 58.1403 84.3986 58.6894 83.6663 58.6894C83.6171 58.6894 83.565 58.6865 83.5129 58.6807ZM210.47 56.6059C209.677 56.5221 209.101 55.8084 209.188 55.0166C209.272 54.2219 209.987 53.6469 210.78 53.7336C211.576 53.8174 212.149 54.5311 212.065 55.3229C211.987 56.0656 211.356 56.6146 210.626 56.6146C210.574 56.6146 210.522 56.6117 210.47 56.6059ZM84.0049 54.0861C83.2089 53.9994 82.6329 53.2886 82.7197 52.4939C82.8037 51.7021 83.5186 51.1271 84.3118 51.2109C85.1078 51.2976 85.6838 52.0084 85.597 52.8031C85.5189 53.5429 84.8907 54.0919 84.1613 54.0919C84.1092 54.0919 84.057 54.089 84.0049 54.0861ZM210.965 52.0084C210.169 51.9246 209.596 51.2138 209.68 50.4191C209.767 49.6245 210.479 49.0523 211.272 49.1361C212.068 49.2199 212.644 49.9336 212.557 50.7254C212.479 51.4681 211.851 52.0171 211.118 52.0171C211.069 52.0171 211.017 52.0142 210.965 52.0084ZM84.497 49.4886C83.7039 49.4019 83.1279 48.6911 83.2118 47.8964C83.2986 47.1046 84.0107 46.5296 84.8039 46.6134C85.5999 46.7001 86.1759 47.4109 86.092 48.2056C86.0109 48.9454 85.3828 49.4973 84.6533 49.4973C84.6012 49.4973 84.5491 49.4944 84.497 49.4886ZM211.457 47.4109C210.664 47.3271 210.088 46.6163 210.172 45.8216C210.259 45.0299 210.971 44.4548 211.767 44.5386C212.56 44.6253 213.136 45.3362 213.052 46.1279C212.971 46.8706 212.346 47.4196 211.613 47.4196C211.561 47.4196 211.509 47.4167 211.457 47.4109ZM84.9891 44.8911C84.196 44.8045 83.62 44.0936 83.7039 43.2989C83.7907 42.5072 84.5028 41.9321 85.2989 42.0159C86.092 42.1026 86.668 42.8135 86.5841 43.6081C86.503 44.3479 85.8778 44.8998 85.1454 44.8998C85.0933 44.8998 85.0412 44.8969 84.9891 44.8911ZM211.949 42.8135C211.156 42.7297 210.58 42.0188 210.667 41.2241C210.751 40.4295 211.463 39.8573 212.259 39.9411C213.052 40.0249 213.628 40.7387 213.544 41.5304C213.463 42.2731 212.838 42.8221 212.106 42.8221C212.056 42.8221 212.004 42.8192 211.949 42.8135ZM85.4841 40.2937C84.6881 40.2099 84.1121 39.4961 84.1989 38.7014C84.2828 37.9097 84.9949 37.3346 85.791 37.4213C86.587 37.5051 87.163 38.2189 87.0762 39.0106C86.998 39.7504 86.3699 40.3023 85.6404 40.3023C85.5883 40.3023 85.5362 40.2994 85.4841 40.2937ZM212.444 38.2189C211.648 38.1322 211.072 37.4213 211.159 36.6267C211.243 35.832 211.958 35.2598 212.751 35.3436C213.547 35.4303 214.123 36.1412 214.036 36.9358C213.958 37.6756 213.33 38.2246 212.601 38.2246C212.548 38.2246 212.496 38.2218 212.444 38.2189ZM85.9762 35.6962C85.1802 35.6124 84.607 34.8986 84.691 34.1068C84.7749 33.3122 85.4899 32.7371 86.283 32.8238C87.0791 32.9076 87.6551 33.6214 87.5683 34.4132C87.4901 35.1558 86.862 35.7048 86.1325 35.7048C86.0804 35.7048 86.0283 35.702 85.9762 35.6962ZM212.936 33.6214C212.143 33.5347 211.567 32.8238 211.651 32.0292C211.738 31.2374 212.45 30.6623 213.243 30.7461C214.039 30.8328 214.615 31.5437 214.528 32.3384C214.45 33.0781 213.822 33.63 213.093 33.63C213.04 33.63 212.988 33.6272 212.936 33.6214ZM86.4683 31.0987C85.6752 31.0149 85.0991 30.3011 85.1831 29.5094C85.2699 28.7147 85.982 28.1397 86.778 28.2263C87.5712 28.3101 88.1472 29.021 88.0633 29.8157C87.9822 30.5583 87.3541 31.1074 86.6246 31.1074C86.5725 31.1074 86.5204 31.1045 86.4683 31.0987ZM213.428 29.0239C212.635 28.9372 212.059 28.2263 212.143 27.4317C212.23 26.6399 212.942 26.0649 213.738 26.1487C214.531 26.2353 215.107 26.9462 215.023 27.7409C214.942 28.4806 214.317 29.0326 213.585 29.0326C213.533 29.0326 213.48 29.0297 213.428 29.0239ZM86.9604 26.5012C86.1673 26.4174 85.5912 25.7036 85.6752 24.9119C85.762 24.1172 86.4741 23.5451 87.2701 23.6289C88.0662 23.7127 88.6393 24.4264 88.5554 25.2182C88.4743 25.9608 87.8491 26.5099 87.1167 26.5099C87.0646 26.5099 87.0125 26.507 86.9604 26.5012ZM212.022 23.2879H212.019C211.854 22.5077 212.352 21.7419 213.136 21.5743C213.918 21.4096 214.685 21.9095 214.85 22.6897C215.018 23.4699 214.517 24.2357 213.735 24.4033C213.634 24.4235 213.533 24.4351 213.434 24.4351C212.766 24.4351 212.163 23.9669 212.022 23.2879ZM87.4554 21.9037C86.6594 21.8199 86.0862 21.109 86.1702 20.3144C86.2541 19.5197 86.9691 18.9476 87.7622 19.0314C88.5583 19.1152 89.1343 19.8289 89.0475 20.6207C88.9693 21.3633 88.3412 21.9124 87.6117 21.9124C87.5596 21.9124 87.5075 21.9095 87.4554 21.9037ZM210.47 19.5111C210.042 18.8378 210.238 17.9448 210.913 17.5172C211.587 17.0866 212.482 17.2831 212.91 17.9564C213.339 18.6297 213.142 19.5226 212.467 19.9532C212.227 20.1063 211.958 20.1786 211.692 20.1786C211.214 20.1786 210.745 19.9416 210.47 19.5111ZM87.9475 17.3062C87.1514 17.2224 86.5783 16.5116 86.6622 15.7169C86.7462 14.9251 87.4612 14.3501 88.2572 14.4339C89.0503 14.5177 89.6264 15.2314 89.5395 16.0232C89.4614 16.7659 88.8332 17.3149 88.1038 17.3149C88.0517 17.3149 87.9996 17.312 87.9475 17.3062ZM207.691 16.5087C207.054 16.0261 206.927 15.1216 207.41 14.4859C207.891 13.8473 208.8 13.723 209.437 14.2027C210.073 14.6853 210.201 15.5898 209.72 16.2255C209.437 16.6011 209.002 16.8005 208.562 16.8005C208.261 16.8005 207.955 16.7052 207.691 16.5087ZM204.044 14.6708C203.277 14.4454 202.84 13.6421 203.065 12.8763C203.291 12.1106 204.096 11.6742 204.863 11.8996C205.63 12.125 206.067 12.9284 205.841 13.6941C205.656 14.3241 205.08 14.7315 204.455 14.7315C204.319 14.7315 204.18 14.7113 204.044 14.6708ZM199.728 14.0207C198.935 13.9369 198.359 13.226 198.443 12.4313C198.53 11.6367 199.242 11.0645 200.038 11.1483C200.834 11.2321 201.407 11.9459 201.323 12.7376C201.242 13.4803 200.617 14.0293 199.884 14.0293C199.835 14.0293 199.78 14.0264 199.728 14.0207ZM195.125 13.5294C194.329 13.4456 193.753 12.7319 193.84 11.9401C193.924 11.1454 194.639 10.5704 195.432 10.6571C196.228 10.7409 196.801 11.4546 196.717 12.2464C196.639 12.989 196.011 13.5381 195.279 13.5381C195.23 13.5381 195.178 13.5352 195.125 13.5294ZM190.52 13.0382C189.724 12.9515 189.148 12.2406 189.235 11.4488C189.319 10.6542 190.031 10.0791 190.827 10.1629C191.623 10.2496 192.199 10.9605 192.112 11.7551C192.034 12.4949 191.406 13.0468 190.676 13.0468C190.624 13.0468 190.572 13.0439 190.52 13.0382ZM88.3962 12.6943C87.632 12.466 87.1978 11.6598 87.4264 10.8969C87.6551 10.1311 88.4627 9.69769 89.2269 9.92597C89.994 10.1571 90.4282 10.9605 90.1995 11.7262C90.0114 12.3533 89.4353 12.755 88.813 12.755C88.674 12.755 88.5351 12.7376 88.3962 12.6943ZM185.915 12.5469C185.119 12.4602 184.545 11.7494 184.629 10.9547C184.713 10.1629 185.428 9.58788 186.221 9.67168C187.017 9.75837 187.591 10.4692 187.507 11.2639C187.429 12.0037 186.8 12.5556 186.071 12.5556C186.019 12.5556 185.967 12.5527 185.915 12.5469ZM181.309 12.0528C180.513 11.969 179.94 11.2581 180.024 10.4635C180.108 9.66879 180.823 9.09374 181.616 9.18043C182.412 9.26423 182.988 9.97799 182.901 10.7698C182.823 11.5124 182.195 12.0614 181.465 12.0614C181.413 12.0614 181.361 12.0586 181.309 12.0528ZM176.704 11.5615C175.908 11.4777 175.335 10.764 175.419 9.97221C175.502 9.17754 176.217 8.6025 177.011 8.68919C177.807 8.77299 178.383 9.48385 178.296 10.2785C178.218 11.0212 177.59 11.5702 176.86 11.5702C176.808 11.5702 176.756 11.5673 176.704 11.5615ZM172.098 11.0703C171.302 10.9836 170.729 10.2727 170.813 9.47807C170.897 8.6863 171.612 8.11125 172.405 8.19505C173.201 8.28174 173.777 8.9926 173.69 9.78727C173.612 10.527 172.984 11.079 172.255 11.079C172.203 11.079 172.15 11.0761 172.098 11.0703ZM167.493 10.579C166.697 10.4923 166.124 9.78149 166.208 8.98682C166.295 8.19505 167.007 7.62 167.803 7.7038C168.596 7.7905 169.172 8.50136 169.085 9.29313C169.007 10.0358 168.379 10.5848 167.646 10.5848C167.597 10.5848 167.545 10.5819 167.493 10.579ZM162.888 10.0849C162.094 10.0011 161.518 9.28735 161.602 8.49558C161.689 7.70091 162.401 7.12587 163.197 7.21256C163.99 7.29636 164.566 8.01011 164.482 8.80188C164.401 9.54453 163.773 10.0936 163.044 10.0936C162.992 10.0936 162.94 10.0907 162.888 10.0849ZM158.282 9.59366C157.489 9.50986 156.913 8.7961 156.997 8.00144C157.084 7.20967 157.796 6.63462 158.592 6.72131C159.385 6.80511 159.961 7.51597 159.877 8.31064C159.796 9.0504 159.168 9.60233 158.438 9.60233C158.386 9.60233 158.334 9.59944 158.282 9.59366ZM153.677 9.10241C152.884 9.01572 152.308 8.30486 152.391 7.5102C152.478 6.71842 153.19 6.14338 153.986 6.22718C154.78 6.31387 155.356 7.02473 155.272 7.81939C155.191 8.55915 154.562 9.10819 153.833 9.10819C153.781 9.10819 153.732 9.1053 153.677 9.10241ZM90.0259 8.36265C89.389 7.88007 89.2675 6.97271 89.7509 6.33987C90.2372 5.70414 91.1461 5.58278 91.78 6.06535C92.4168 6.54793 92.5384 7.45529 92.055 8.09102C91.7713 8.46379 91.34 8.66029 90.9029 8.66029C90.5961 8.66029 90.2893 8.56204 90.0259 8.36265ZM149.074 8.60828C148.278 8.52447 147.702 7.81072 147.789 7.01895C147.873 6.22429 148.585 5.65213 149.381 5.73593C150.174 5.81973 150.75 6.53348 150.666 7.32526C150.585 8.0679 149.96 8.61694 149.228 8.61694C149.178 8.61694 149.126 8.61406 149.074 8.60828ZM144.469 8.11703C143.673 8.03323 143.097 7.31948 143.184 6.52481C143.267 5.73304 143.98 5.15799 144.776 5.24468C145.572 5.32848 146.145 6.04224 146.061 6.83401C145.983 7.57666 145.355 8.1257 144.625 8.1257C144.573 8.1257 144.521 8.1257 144.469 8.11703ZM139.863 7.62578C139.067 7.53909 138.491 6.82823 138.578 6.03357C138.662 5.24179 139.377 4.66675 140.17 4.75055C140.966 4.83724 141.539 5.5481 141.455 6.34276C141.374 7.08252 140.749 7.63156 140.02 7.63156C139.968 7.63156 139.915 7.62867 139.863 7.62578ZM135.258 7.13165C134.462 7.04785 133.889 6.33409 133.973 5.54232C134.057 4.74766 134.772 4.1755 135.565 4.2593C136.361 4.3431 136.937 5.05685 136.85 5.84863C136.772 6.59128 136.144 7.14032 135.411 7.14032C135.362 7.14032 135.31 7.13743 135.258 7.13165ZM130.652 6.6404C129.856 6.5566 129.28 5.84285 129.367 5.05107C129.451 4.25641 130.166 3.68136 130.959 3.76806C131.755 3.85186 132.331 4.56272 132.245 5.35738C132.166 6.09714 131.538 6.64907 130.809 6.64907C130.757 6.64907 130.705 6.64618 130.652 6.6404ZM126.047 6.14915C125.251 6.06246 124.675 5.3516 124.762 4.55694C124.846 3.76517 125.561 3.19012 126.354 3.27392C127.15 3.36061 127.726 4.07147 127.639 4.86614C127.561 5.60589 126.933 6.15782 126.203 6.15782C126.151 6.15782 126.099 6.15493 126.047 6.14915ZM121.442 5.65502C120.646 5.57122 120.072 4.86036 120.156 4.06569C120.24 3.27103 120.955 2.69887 121.751 2.78267C122.545 2.86647 123.121 3.58023 123.034 4.372C122.956 5.11465 122.327 5.66369 121.598 5.66369C121.546 5.66369 121.494 5.6608 121.442 5.65502ZM93.0768 4.88058C92.6484 4.2044 92.851 3.31437 93.5255 2.8867C94.2029 2.46192 95.0973 2.66131 95.5228 3.33749C95.9512 4.01079 95.7486 4.9037 95.0713 5.32848C94.831 5.48164 94.5618 5.55388 94.2984 5.55388C93.8179 5.55388 93.3489 5.31404 93.0739 4.88058H93.0768ZM116.836 5.16377C116.043 5.07997 115.467 4.36622 115.551 3.57445C115.638 2.77978 116.35 2.20474 117.146 2.29143C117.939 2.37523 118.515 3.08609 118.431 3.88075C118.35 4.6234 117.722 5.17244 116.993 5.17244C116.94 5.17244 116.888 5.16955 116.836 5.16377ZM112.231 4.67253C111.438 4.58584 110.862 3.87497 110.946 3.08031C111.032 2.28854 111.745 1.71349 112.541 1.79729C113.334 1.88398 113.91 2.59484 113.823 3.38951C113.745 4.12927 113.117 4.6812 112.387 4.6812C112.335 4.6812 112.283 4.67831 112.231 4.67253ZM107.625 4.18128C106.829 4.09459 106.256 3.38373 106.343 2.58906C106.427 1.79729 107.139 1.22224 107.935 1.30604C108.728 1.39274 109.304 2.1036 109.22 2.89826C109.139 3.63802 108.514 4.18995 107.782 4.18995C107.73 4.18995 107.68 4.18706 107.625 4.18128ZM97.1525 2.67575C96.9904 1.89554 97.4912 1.12977 98.2728 0.967952C99.0572 0.806129 99.8243 1.30604 99.9864 2.08915C100.148 2.86936 99.6448 3.63513 98.8633 3.79695C98.7649 3.81718 98.6635 3.82874 98.568 3.82874C97.8965 3.82874 97.2944 3.35772 97.1525 2.67575ZM103.02 3.68714C102.227 3.60334 101.651 2.89248 101.735 2.09782C101.822 1.30316 102.534 0.728108 103.33 0.814798C104.123 0.898599 104.699 1.61235 104.615 2.40412C104.534 3.14677 103.909 3.69581 103.176 3.69581C103.124 3.69581 103.072 3.69292 103.02 3.68714Z" fill="url(#paint0_linear_1203_5350)"/>
<path d="M210.854 43.9462C210.061 43.8624 209.485 43.1487 209.569 42.354C209.656 41.5622 210.368 40.9872 211.164 41.071C211.957 41.1577 212.533 41.8685 212.449 42.6632C212.368 43.4029 211.74 43.9549 211.01 43.9549C210.958 43.9549 210.906 43.952 210.854 43.9462ZM206.249 43.455C205.456 43.3683 204.879 42.6574 204.966 41.8627C205.05 41.071 205.762 40.4959 206.558 40.5797C207.352 40.6635 207.928 41.3773 207.844 42.1719C207.763 42.9117 207.134 43.4607 206.405 43.4607C206.353 43.4607 206.301 43.4607 206.249 43.455ZM201.643 42.9608C200.85 42.877 200.274 42.1633 200.358 41.3715C200.445 40.5768 201.157 40.0047 201.953 40.0885C202.746 40.1723 203.322 40.886 203.238 41.6778C203.157 42.4205 202.529 42.9695 201.8 42.9695C201.747 42.9695 201.695 42.9666 201.643 42.9608ZM197.041 42.4696C196.245 42.3829 195.669 41.672 195.756 40.8802C195.839 40.0856 196.552 39.5105 197.348 39.5972C198.141 39.681 198.717 40.3948 198.633 41.1866C198.552 41.9263 197.924 42.4782 197.194 42.4782C197.145 42.4782 197.093 42.4754 197.041 42.4696ZM192.435 41.9783C191.639 41.8916 191.063 41.1808 191.15 40.3861C191.234 39.5943 191.946 39.0193 192.742 39.1031C193.538 39.1898 194.111 39.9006 194.027 40.6953C193.946 41.4351 193.321 41.9841 192.592 41.9841C192.54 41.9841 192.487 41.9812 192.435 41.9783ZM187.83 41.4871C187.034 41.4004 186.458 40.6895 186.545 39.8949C186.629 39.1002 187.344 38.528 188.137 38.6118C188.933 38.6956 189.509 39.4094 189.422 40.2041C189.344 40.9438 188.716 41.4929 187.983 41.4929C187.934 41.4929 187.882 41.49 187.83 41.4871ZM183.224 40.9929C182.428 40.9091 181.852 40.1954 181.939 39.4036C182.023 38.609 182.735 38.0339 183.531 38.1206C184.327 38.2044 184.903 38.9153 184.817 39.7099C184.738 40.4497 184.11 41.0016 183.381 41.0016C183.329 41.0016 183.277 40.9987 183.224 40.9929ZM178.619 40.5017C177.823 40.415 177.247 39.7041 177.334 38.9095C177.418 38.1177 178.133 37.5427 178.926 37.6265C179.722 37.7132 180.298 38.424 180.211 39.2187C180.133 39.9584 179.505 40.5104 178.775 40.5104C178.723 40.5104 178.671 40.5075 178.619 40.5017ZM174.014 40.0076C173.218 39.9238 172.644 39.2129 172.728 38.4182C172.812 37.6265 173.527 37.0514 174.32 37.1352C175.117 37.2219 175.693 37.9328 175.606 38.7245C175.528 39.4672 174.899 40.0162 174.17 40.0162C174.118 40.0162 174.066 40.0133 174.014 40.0076ZM169.408 39.5163C168.612 39.4325 168.039 38.7188 168.123 37.927C168.21 37.1323 168.922 36.5602 169.715 36.644C170.511 36.7278 171.087 37.4415 171 38.2333C170.922 38.9759 170.294 39.525 169.565 39.525C169.512 39.525 169.46 39.5221 169.408 39.5163ZM164.803 39.0251C164.01 38.9413 163.434 38.2275 163.518 37.4357C163.604 36.6411 164.317 36.066 165.11 36.1527C165.906 36.2365 166.482 36.9474 166.395 37.7421C166.317 38.4818 165.689 39.0337 164.959 39.0337C164.907 39.0337 164.855 39.0308 164.803 39.0251ZM160.197 38.5338C159.404 38.4471 158.828 37.7363 158.912 36.9416C158.999 36.1469 159.711 35.5748 160.507 35.6586C161.3 35.7453 161.876 36.4561 161.789 37.2508C161.711 37.9906 161.083 38.5425 160.354 38.5425C160.302 38.5425 160.25 38.5396 160.197 38.5338ZM155.592 38.0397C154.799 37.9559 154.223 37.245 154.307 36.4504C154.394 35.6557 155.106 35.0807 155.902 35.1673C156.695 35.2511 157.271 35.9649 157.187 36.7567C157.106 37.4993 156.478 38.0484 155.748 38.0484C155.696 38.0484 155.644 38.0455 155.592 38.0397ZM150.987 37.5484C150.193 37.4646 149.617 36.7509 149.701 35.9562C149.788 35.1645 150.5 34.5894 151.296 34.6761C152.089 34.7599 152.665 35.4736 152.582 36.2654C152.5 37.0081 151.872 37.5571 151.143 37.5571C151.091 37.5571 151.039 37.5542 150.987 37.5484ZM146.381 37.0572C145.588 36.9705 145.012 36.2596 145.096 35.4679C145.183 34.6732 145.895 34.0982 146.691 34.182C147.484 34.2687 148.06 34.9795 147.976 35.7742C147.895 36.5139 147.27 37.0659 146.537 37.0659C146.488 37.0659 146.436 37.063 146.381 37.0572ZM141.776 36.5631C140.983 36.4793 140.407 35.7684 140.491 34.9737C140.577 34.1791 141.289 33.6069 142.085 33.6907C142.879 33.7774 143.455 34.4883 143.371 35.2829C143.293 36.0227 142.664 36.5717 141.932 36.5717C141.883 36.5717 141.831 36.5688 141.776 36.5631ZM137.173 36.0718C136.377 35.988 135.801 35.2743 135.888 34.4825C135.972 33.6878 136.684 33.1128 137.48 33.1995C138.276 33.2833 138.849 33.997 138.765 34.7888C138.687 35.5314 138.059 36.0805 137.327 36.0805C137.277 36.0805 137.225 36.0776 137.173 36.0718ZM132.568 35.5806C131.772 35.4968 131.196 34.783 131.283 33.9884C131.367 33.1966 132.079 32.6215 132.875 32.7053C133.671 32.792 134.247 33.5029 134.16 34.2975C134.082 35.0373 133.454 35.5892 132.721 35.5892C132.672 35.5892 132.62 35.5863 132.568 35.5806ZM127.962 35.0893C127.166 35.0026 126.59 34.2918 126.677 33.4971C126.761 32.7053 127.473 32.1303 128.269 32.2141C129.065 32.2979 129.641 33.0116 129.554 33.8063C129.476 34.5461 128.848 35.0951 128.119 35.0951C128.067 35.0951 128.014 35.0951 127.962 35.0893ZM123.357 34.5952C122.561 34.5114 121.988 33.7976 122.072 33.0059C122.156 32.2112 122.868 31.639 123.664 31.7228C124.46 31.8066 125.036 32.5204 124.949 33.3122C124.871 34.0548 124.243 34.6039 123.513 34.6039C123.461 34.6039 123.409 34.601 123.357 34.5952ZM118.752 34.1039C117.956 34.0172 117.382 33.3064 117.466 32.5146C117.55 31.7199 118.265 31.1449 119.061 31.2316C119.854 31.3154 120.43 32.0291 120.344 32.8209C120.265 33.5607 119.637 34.1126 118.908 34.1126C118.856 34.1126 118.804 34.1097 118.752 34.1039ZM114.146 33.6127C113.35 33.526 112.777 32.8151 112.861 32.0205C112.948 31.2287 113.66 30.6537 114.456 30.7375C115.249 30.8241 115.825 31.535 115.738 32.3297C115.66 33.0694 115.032 33.6185 114.302 33.6185C114.25 33.6185 114.198 33.6156 114.146 33.6127ZM109.541 33.1214C108.745 33.0348 108.172 32.3239 108.256 31.5292C108.342 30.7346 109.054 30.1624 109.85 30.2462C110.644 30.33 111.22 31.0438 111.136 31.8384C111.055 32.5782 110.427 33.1272 109.697 33.1272C109.645 33.1272 109.593 33.1243 109.541 33.1214ZM104.935 32.6273C104.142 32.5435 103.566 31.8298 103.65 31.038C103.737 30.2433 104.449 29.6683 105.245 29.755C106.038 29.8388 106.614 30.5496 106.53 31.3443C106.449 32.084 105.821 32.636 105.092 32.636C105.04 32.636 104.987 32.6331 104.935 32.6273ZM100.33 32.1361C99.5368 32.0494 98.9607 31.3385 99.0447 30.5438C99.1315 29.7521 99.8436 29.177 100.64 29.2608C101.433 29.3475 102.009 30.0584 101.925 30.853C101.844 31.5928 101.219 32.1447 100.486 32.1447C100.434 32.1447 100.382 32.1418 100.33 32.1361ZM95.7245 31.6419C94.9313 31.5581 94.3553 30.8473 94.4393 30.0526C94.5261 29.2608 95.2382 28.6858 96.0342 28.7696C96.8302 28.8563 97.4034 29.5671 97.3194 30.3589C97.2384 31.1016 96.6131 31.6506 95.8808 31.6506C95.8287 31.6506 95.7766 31.6477 95.7245 31.6419ZM91.1191 31.1507C90.3259 31.0669 89.7499 30.3531 89.8338 29.5614C89.9207 28.7667 90.6328 28.1945 91.4288 28.2783C92.2248 28.3621 92.798 29.0759 92.714 29.8677C92.633 30.6103 92.0077 31.1593 91.2754 31.1593C91.2262 31.1593 91.1712 31.1565 91.1191 31.1507ZM86.5137 30.6594C85.7205 30.5727 85.1445 29.8619 85.2313 29.0701C85.3153 28.2754 86.0302 27.7004 86.8234 27.7871C87.6194 27.8709 88.1926 28.5818 88.1086 29.3764C88.0276 30.1162 87.4023 30.6681 86.67 30.6681C86.6208 30.6681 86.5687 30.6652 86.5137 30.6594Z" fill="url(#paint1_linear_1203_5350)"/>
<path d="M193.433 206.453C192.637 206.367 192.061 205.656 192.147 204.861C192.231 204.069 192.943 203.494 193.739 203.578C194.535 203.665 195.109 204.379 195.025 205.17C194.944 205.91 194.318 206.462 193.586 206.462C193.534 206.462 193.485 206.462 193.433 206.453ZM188.827 205.962C188.031 205.875 187.455 205.165 187.542 204.37C187.626 203.578 188.338 203.003 189.134 203.087C189.93 203.174 190.503 203.884 190.419 204.679C190.341 205.419 189.713 205.971 188.981 205.971C188.929 205.971 188.879 205.971 188.827 205.962ZM184.222 205.468C183.426 205.384 182.85 204.673 182.937 203.879C183.021 203.084 183.733 202.509 184.529 202.596C185.325 202.679 185.898 203.393 185.814 204.185C185.733 204.928 185.108 205.477 184.375 205.477C184.323 205.477 184.274 205.477 184.222 205.468ZM179.616 204.977C178.82 204.893 178.244 204.179 178.331 203.387C178.415 202.593 179.13 202.018 179.923 202.104C180.719 202.188 181.292 202.899 181.208 203.694C181.127 204.436 180.502 204.985 179.77 204.985C179.721 204.985 179.668 204.983 179.616 204.977ZM175.011 204.486C174.215 204.399 173.642 203.688 173.726 202.893C173.81 202.102 174.525 201.527 175.318 201.61C176.114 201.697 176.687 202.408 176.603 203.203C176.525 203.942 175.897 204.494 175.164 204.494C175.115 204.494 175.063 204.494 175.011 204.486ZM170.406 203.991C169.61 203.908 169.036 203.197 169.12 202.402C169.204 201.607 169.919 201.035 170.715 201.119C171.508 201.206 172.084 201.917 171.998 202.708C171.919 203.451 171.291 204 170.562 204C170.51 204 170.458 204 170.406 203.991ZM165.8 203.5C165.004 203.416 164.428 202.703 164.515 201.911C164.599 201.116 165.314 200.541 166.107 200.628C166.903 200.712 167.479 201.425 167.392 202.217C167.314 202.96 166.686 203.509 165.956 203.509C165.904 203.509 165.852 203.509 165.8 203.5ZM161.195 203.009C160.399 202.922 159.826 202.211 159.91 201.417C159.993 200.625 160.708 200.05 161.502 200.134C162.298 200.22 162.874 200.931 162.787 201.726C162.709 202.466 162.08 203.018 161.351 203.018C161.299 203.018 161.247 203.015 161.195 203.009ZM156.589 202.518C155.796 202.431 155.22 201.72 155.304 200.925C155.391 200.134 156.103 199.559 156.899 199.642C157.692 199.729 158.268 200.44 158.184 201.235C158.103 201.974 157.475 202.526 156.746 202.526C156.694 202.526 156.641 202.526 156.589 202.518ZM151.984 202.024C151.191 201.94 150.615 201.229 150.699 200.434C150.786 199.64 151.498 199.064 152.294 199.151C153.087 199.235 153.663 199.949 153.579 200.741C153.498 201.483 152.87 202.032 152.14 202.032C152.088 202.032 152.036 202.032 151.984 202.024ZM147.378 201.532C146.585 201.448 146.009 200.735 146.093 199.943C146.18 199.148 146.892 198.573 147.688 198.66C148.481 198.744 149.057 199.455 148.973 200.249C148.892 200.992 148.264 201.541 147.535 201.541C147.483 201.541 147.431 201.538 147.378 201.532ZM142.776 201.041C141.98 200.954 141.404 200.243 141.488 199.449C141.575 198.657 142.287 198.082 143.083 198.166C143.879 198.252 144.452 198.963 144.368 199.758C144.287 200.498 143.662 201.05 142.932 201.047C142.88 201.047 142.828 201.047 142.776 201.041ZM138.171 200.547C137.375 200.463 136.798 199.752 136.885 198.958C136.969 198.166 137.681 197.591 138.477 197.675C139.273 197.761 139.847 198.472 139.763 199.264C139.684 200.007 139.056 200.556 138.327 200.556C138.275 200.556 138.223 200.553 138.171 200.547ZM133.565 200.056C132.769 199.972 132.193 199.258 132.28 198.466C132.364 197.672 133.076 197.097 133.872 197.183C134.668 197.267 135.241 197.981 135.157 198.773C135.079 199.515 134.451 200.064 133.719 200.064C133.666 200.064 133.617 200.064 133.565 200.056ZM128.96 199.564C128.164 199.481 127.588 198.767 127.674 197.975C127.758 197.18 128.473 196.605 129.267 196.692C130.063 196.776 130.636 197.487 130.552 198.281C130.474 199.024 129.845 199.573 129.113 199.573C129.064 199.573 129.012 199.57 128.96 199.564ZM124.354 199.07C123.558 198.986 122.982 198.276 123.069 197.481C123.153 196.689 123.868 196.114 124.661 196.198C125.457 196.285 126.03 196.995 125.946 197.79C125.868 198.53 125.24 199.079 124.511 199.079C124.459 199.079 124.406 199.076 124.354 199.07ZM119.749 198.579C118.953 198.495 118.38 197.781 118.464 196.99C118.548 196.195 119.263 195.623 120.056 195.707C120.852 195.79 121.428 196.504 121.341 197.296C121.263 198.039 120.635 198.588 119.902 198.588C119.853 198.588 119.801 198.588 119.749 198.579ZM115.143 198.088C114.347 198.004 113.771 197.29 113.858 196.496C113.942 195.704 114.657 195.129 115.453 195.215C116.246 195.299 116.822 196.01 116.736 196.805C116.657 197.545 116.029 198.096 115.3 198.096C115.248 198.096 115.196 198.096 115.143 198.088ZM110.538 197.594C109.742 197.51 109.166 196.799 109.253 196.004C109.337 195.213 110.052 194.637 110.845 194.721C111.641 194.808 112.217 195.519 112.13 196.314C112.052 197.053 111.424 197.602 110.694 197.602C110.642 197.602 110.59 197.602 110.538 197.594ZM105.933 197.102C105.137 197.019 104.563 196.305 104.647 195.513C104.731 194.718 105.446 194.146 106.239 194.23C107.036 194.317 107.612 195.028 107.525 195.819C107.447 196.562 106.818 197.111 106.089 197.111C106.037 197.111 105.985 197.108 105.933 197.102ZM101.327 196.611C100.534 196.524 99.958 195.814 100.042 195.022C100.129 194.227 100.841 193.652 101.637 193.739C102.43 193.823 103.006 194.536 102.922 195.328C102.841 196.071 102.213 196.62 101.484 196.62C101.431 196.62 101.379 196.62 101.327 196.611ZM96.7218 196.12C95.9287 196.033 95.3526 195.322 95.4366 194.528C95.5234 193.736 96.2355 193.161 97.0315 193.245C97.8247 193.331 98.4007 194.042 98.3168 194.837C98.2357 195.577 97.6076 196.129 96.8781 196.129C96.826 196.129 96.7739 196.126 96.7218 196.12ZM92.1164 195.626C91.3233 195.542 90.7472 194.831 90.8312 194.036C90.918 193.242 91.6301 192.67 92.4261 192.753C93.2193 192.837 93.7953 193.551 93.7114 194.343C93.6303 195.085 93.0022 195.634 92.2727 195.634C92.2206 195.634 92.1685 195.634 92.1164 195.626ZM87.5139 195.135C86.7178 195.051 86.1418 194.337 86.2286 193.545C86.3126 192.751 87.0247 192.178 87.8207 192.262C88.6167 192.346 89.1899 193.057 89.1059 193.851C89.0278 194.594 88.3996 195.143 87.6702 195.143C87.6181 195.143 87.566 195.14 87.5139 195.135ZM82.9085 194.643C82.1124 194.557 81.5364 193.846 81.6232 193.051C81.7072 192.259 82.4193 191.684 83.2153 191.768C84.0113 191.855 84.5874 192.566 84.5005 193.36C84.4224 194.1 83.7942 194.652 83.0648 194.652C83.0127 194.652 82.9606 194.652 82.9085 194.643ZM78.3002 194.152C77.507 194.065 76.931 193.354 77.0178 192.56C77.1018 191.768 77.8167 191.193 78.6099 191.277C79.4059 191.363 79.9791 192.074 79.8951 192.866C79.817 193.609 79.1888 194.161 78.4565 194.161C78.4044 194.161 78.3552 194.158 78.3002 194.152ZM73.6976 193.658C72.9016 193.574 72.3256 192.86 72.4124 192.069C72.4963 191.274 73.2113 190.699 74.0045 190.786C74.8005 190.869 75.3736 191.583 75.2897 192.375C75.2115 193.118 74.5834 193.667 73.851 193.667C73.8018 193.667 73.7497 193.664 73.6976 193.658ZM69.0922 193.167C68.2962 193.083 67.723 192.369 67.807 191.577C67.8909 190.783 68.6059 190.208 69.3991 190.294C70.1951 190.378 70.7711 191.089 70.6843 191.884C70.6061 192.626 69.978 193.175 69.2485 193.175C69.1964 193.175 69.1443 193.172 69.0922 193.167Z" fill="url(#paint2_linear_1203_5350)"/>
<path d="M160.3 23.7328C159.507 23.649 158.931 22.9353 159.015 22.1435C159.102 21.3489 159.814 20.7767 160.61 20.8605C161.406 20.9443 161.979 21.6581 161.895 22.4498C161.814 23.1925 161.186 23.7415 160.457 23.7415C160.405 23.7415 160.353 23.7386 160.3 23.7328ZM155.695 23.2416C154.902 23.1578 154.326 22.444 154.41 21.6494C154.497 20.8576 155.209 20.2826 156.005 20.3693C156.801 20.4531 157.374 21.1668 157.29 21.9586C157.209 22.7012 156.584 23.2503 155.851 23.2503C155.799 23.2503 155.747 23.2474 155.695 23.2416ZM151.093 22.7504C150.297 22.6637 149.72 21.9528 149.807 21.1581C149.891 20.3664 150.606 19.7913 151.399 19.878C152.195 19.9618 152.769 20.6727 152.685 21.4673C152.604 22.2071 151.978 22.7561 151.249 22.7561C151.197 22.7561 151.145 22.7561 151.093 22.7504ZM146.487 22.2591C145.691 22.1724 145.115 21.4616 145.202 20.6669C145.286 19.8722 146.001 19.3001 146.794 19.3839C147.59 19.4706 148.163 20.1814 148.079 20.9732C147.998 21.7158 147.373 22.2649 146.643 22.2649C146.591 22.2649 146.539 22.262 146.487 22.2591ZM141.882 21.765C141.086 21.6812 140.513 20.9674 140.596 20.1756C140.68 19.381 141.393 18.8059 142.189 18.8926C142.985 18.9764 143.561 19.6902 143.474 20.482C143.396 21.2246 142.768 21.7736 142.038 21.7736C141.986 21.7736 141.934 21.7708 141.882 21.765ZM137.276 21.2737C136.48 21.187 135.904 20.4762 135.991 19.6844C136.075 18.8897 136.787 18.3147 137.583 18.3985C138.379 18.4852 138.955 19.196 138.868 19.9907C138.79 20.7305 138.162 21.2824 137.433 21.2824C137.381 21.2824 137.328 21.2795 137.276 21.2737Z" fill="url(#paint3_linear_1203_5350)"/>
<path d="M150.085 151.249C149.292 151.165 148.716 150.454 148.799 149.66C148.886 148.868 149.598 148.293 150.394 148.377C151.188 148.463 151.764 149.174 151.68 149.969C151.599 150.709 150.97 151.258 150.241 151.258C150.189 151.258 150.137 151.258 150.085 151.249ZM145.479 150.758C144.686 150.674 144.11 149.963 144.197 149.168C144.281 148.377 144.993 147.799 145.789 147.885C146.582 147.969 147.158 148.683 147.074 149.475C146.993 150.217 146.365 150.766 145.636 150.766C145.584 150.766 145.531 150.766 145.479 150.758ZM140.874 150.266C140.081 150.183 139.505 149.469 139.589 148.677C139.675 147.882 140.388 147.307 141.184 147.394C141.98 147.478 142.553 148.189 142.469 148.983C142.388 149.726 141.76 150.275 141.03 150.275C140.978 150.275 140.929 150.272 140.874 150.266ZM136.268 149.775C135.475 149.688 134.899 148.978 134.983 148.183C135.07 147.391 135.782 146.816 136.578 146.9C137.374 146.987 137.947 147.698 137.863 148.492C137.782 149.232 137.154 149.784 136.425 149.784C136.373 149.784 136.321 149.784 136.268 149.775ZM131.663 149.281C130.87 149.197 130.294 148.486 130.381 147.692C130.465 146.9 131.177 146.325 131.973 146.409C132.769 146.495 133.342 147.206 133.258 148.001C133.177 148.741 132.552 149.29 131.822 149.29C131.77 149.29 131.718 149.29 131.663 149.281ZM127.061 148.79C126.265 148.706 125.688 147.992 125.775 147.2C125.859 146.406 126.571 145.831 127.367 145.917C128.163 146.001 128.739 146.712 128.653 147.507C128.574 148.249 127.946 148.798 127.217 148.798C127.165 148.798 127.113 148.796 127.061 148.79ZM152.01 148.426C151.214 148.339 150.638 147.628 150.724 146.833C150.808 146.042 151.523 145.467 152.317 145.55C153.113 145.637 153.686 146.348 153.602 147.143C153.524 147.882 152.895 148.431 152.163 148.431C152.114 148.431 152.062 148.431 152.01 148.426ZM122.527 148.241C121.731 148.154 121.155 147.443 121.242 146.649C121.326 145.857 122.041 145.282 122.834 145.366C123.63 145.452 124.204 146.163 124.12 146.958C124.041 147.698 123.413 148.249 122.681 148.249C122.629 148.249 122.58 148.249 122.527 148.241ZM152.502 143.828C151.706 143.742 151.133 143.031 151.217 142.236C151.3 141.444 152.015 140.869 152.809 140.953C153.605 141.04 154.181 141.751 154.094 142.545C154.016 143.285 153.388 143.837 152.658 143.837C152.606 143.837 152.554 143.837 152.502 143.828ZM123.02 143.643C122.224 143.557 121.65 142.846 121.734 142.051C121.818 141.259 122.533 140.684 123.326 140.771C124.122 140.855 124.698 141.566 124.612 142.36C124.533 143.1 123.905 143.652 123.176 143.652C123.124 143.652 123.072 143.649 123.02 143.643ZM152.994 139.231C152.201 139.144 151.625 138.433 151.709 137.639C151.795 136.847 152.508 136.272 153.304 136.355C154.1 136.442 154.673 137.153 154.589 137.948C154.508 138.687 153.883 139.237 153.15 139.237C153.098 139.237 153.046 139.237 152.994 139.231ZM123.512 139.046C122.719 138.962 122.143 138.248 122.226 137.456C122.313 136.662 123.025 136.087 123.821 136.173C124.615 136.257 125.191 136.971 125.107 137.763C125.026 138.503 124.397 139.054 123.668 139.054C123.616 139.054 123.564 139.054 123.512 139.046ZM153.489 134.633C152.693 134.547 152.117 133.836 152.204 133.041C152.288 132.249 153 131.674 153.796 131.758C154.592 131.845 155.165 132.556 155.081 133.35C155.003 134.09 154.375 134.642 153.642 134.642C153.593 134.642 153.541 134.642 153.489 134.633ZM124.004 134.448C123.211 134.365 122.635 133.651 122.721 132.859C122.805 132.064 123.517 131.489 124.314 131.576C125.11 131.66 125.683 132.374 125.599 133.165C125.521 133.908 124.892 134.457 124.16 134.457C124.108 134.457 124.056 134.457 124.004 134.448ZM153.981 130.036C153.185 129.949 152.612 129.238 152.696 128.444C152.78 127.652 153.495 127.077 154.288 127.163C155.084 127.247 155.66 127.958 155.573 128.753C155.495 129.492 154.867 130.044 154.137 130.044C154.085 130.044 154.033 130.044 153.981 130.036ZM124.499 129.851C123.703 129.767 123.127 129.053 123.214 128.261C123.297 127.467 124.01 126.892 124.806 126.978C125.602 127.062 126.178 127.773 126.091 128.568C126.013 129.308 125.385 129.859 124.655 129.859C124.603 129.859 124.551 129.857 124.499 129.851ZM174.652 129.582C173.859 129.498 173.283 128.785 173.367 127.993C173.453 127.198 174.165 126.623 174.961 126.71C175.755 126.794 176.331 127.507 176.247 128.299C176.166 129.039 175.54 129.591 174.808 129.591C174.759 129.591 174.707 129.591 174.652 129.582ZM170.046 129.091C169.253 129.004 168.677 128.293 168.761 127.499C168.848 126.707 169.56 126.132 170.356 126.216C171.149 126.302 171.725 127.013 171.641 127.808C171.56 128.548 170.932 129.099 170.203 129.099C170.151 129.099 170.098 129.099 170.046 129.091ZM178.424 129.042C177.627 128.955 177.051 128.244 177.138 127.449C177.222 126.658 177.934 126.083 178.73 126.166C179.526 126.253 180.1 126.964 180.016 127.759C179.937 128.498 179.309 129.05 178.577 129.05C178.528 129.05 178.476 129.05 178.424 129.042ZM165.441 128.6C164.648 128.513 164.072 127.802 164.159 127.007C164.243 126.216 164.955 125.641 165.751 125.724C166.544 125.811 167.12 126.522 167.036 127.317C166.955 128.056 166.33 128.608 165.597 128.608C165.545 128.608 165.493 128.605 165.441 128.6ZM160.838 128.105C160.042 128.022 159.466 127.311 159.553 126.516C159.637 125.721 160.349 125.149 161.145 125.233C161.941 125.317 162.514 126.031 162.43 126.822C162.352 127.565 161.724 128.114 160.995 128.114C160.943 128.114 160.891 128.111 160.838 128.105ZM156.233 127.614C155.437 127.53 154.861 126.817 154.948 126.022C155.032 125.23 155.747 124.655 156.54 124.742C157.336 124.826 157.909 125.537 157.825 126.331C157.747 127.071 157.119 127.623 156.389 127.623C156.337 127.623 156.285 127.623 156.233 127.614ZM124.991 125.253C124.198 125.17 123.622 124.456 123.706 123.664C123.792 122.869 124.505 122.297 125.301 122.381C126.094 122.465 126.67 123.179 126.586 123.97C126.505 124.713 125.877 125.262 125.147 125.262C125.095 125.262 125.043 125.262 124.991 125.253ZM178.916 124.444C178.12 124.358 177.546 123.647 177.63 122.852C177.714 122.06 178.429 121.485 179.222 121.572C180.018 121.656 180.594 122.367 180.508 123.161C180.429 123.901 179.801 124.453 179.069 124.453C179.02 124.453 178.968 124.45 178.916 124.444ZM121.459 123.898C120.663 123.814 120.09 123.101 120.174 122.309C120.258 121.514 120.973 120.939 121.766 121.026C122.562 121.11 123.135 121.82 123.051 122.615C122.973 123.355 122.345 123.907 121.616 123.907C121.564 123.907 121.511 123.904 121.459 123.898ZM116.854 123.407C116.058 123.32 115.482 122.609 115.569 121.815C115.653 121.023 116.368 120.448 117.161 120.532C117.957 120.618 118.53 121.329 118.446 122.124C118.368 122.864 117.74 123.415 117.007 123.415C116.958 123.415 116.906 123.415 116.854 123.407ZM112.249 122.916C111.452 122.829 110.876 122.118 110.963 121.323C111.047 120.532 111.762 119.957 112.555 120.04C113.351 120.127 113.927 120.838 113.841 121.633C113.762 122.372 113.134 122.921 112.402 122.921C112.353 122.921 112.301 122.921 112.249 122.916ZM107.643 122.421C106.847 122.338 106.274 121.624 106.358 120.832C106.442 120.037 107.157 119.462 107.95 119.549C108.746 119.633 109.322 120.347 109.235 121.138C109.157 121.881 108.529 122.43 107.799 122.43C107.747 122.43 107.695 122.427 107.643 122.421ZM103.038 121.93C102.242 121.846 101.669 121.133 101.752 120.338C101.836 119.546 102.551 118.971 103.345 119.058C104.141 119.142 104.717 119.853 104.63 120.647C104.552 121.387 103.923 121.939 103.194 121.939C103.142 121.939 103.09 121.939 103.038 121.93ZM179.408 119.847C178.615 119.763 178.039 119.049 178.122 118.257C178.209 117.463 178.921 116.888 179.717 116.974C180.511 117.058 181.087 117.769 181.003 118.564C180.922 119.303 180.293 119.855 179.564 119.855C179.512 119.855 179.46 119.853 179.408 119.847ZM101.315 119.119C100.519 119.032 99.9433 118.321 100.03 117.526C100.114 116.735 100.829 116.16 101.622 116.243C102.418 116.33 102.991 117.041 102.907 117.836C102.826 118.575 102.201 119.127 101.472 119.127C101.42 119.127 101.367 119.124 101.315 119.119ZM179.903 115.249C179.107 115.165 178.531 114.452 178.617 113.66C178.701 112.865 179.413 112.29 180.21 112.374C181.006 112.461 181.579 113.172 181.495 113.966C181.417 114.709 180.788 115.258 180.056 115.258C180.007 115.258 179.955 115.258 179.903 115.249ZM101.807 114.521C101.011 114.434 100.438 113.723 100.522 112.929C100.606 112.137 101.321 111.562 102.114 111.646C102.91 111.733 103.483 112.443 103.4 113.238C103.321 113.978 102.693 114.53 101.964 114.53C101.912 114.53 101.86 114.53 101.807 114.521ZM180.395 110.652C179.599 110.568 179.026 109.854 179.11 109.062C179.193 108.268 179.908 107.693 180.702 107.779C181.498 107.863 182.074 108.574 181.987 109.369C181.909 110.111 181.281 110.66 180.548 110.66C180.499 110.66 180.447 110.658 180.395 110.652ZM102.3 109.924C101.504 109.837 100.93 109.126 101.014 108.331C101.098 107.54 101.813 106.965 102.606 107.048C103.402 107.135 103.978 107.846 103.895 108.641C103.813 109.38 103.185 109.932 102.456 109.932C102.404 109.932 102.352 109.929 102.3 109.924ZM180.887 106.054C180.094 105.97 179.518 105.257 179.602 104.465C179.688 103.67 180.401 103.095 181.197 103.182C181.99 103.266 182.566 103.977 182.479 104.771C182.401 105.514 181.773 106.063 181.043 106.063C180.991 106.063 180.939 106.06 180.887 106.054ZM102.795 105.326C101.999 105.242 101.422 104.529 101.506 103.734C101.593 102.942 102.305 102.367 103.101 102.454C103.897 102.538 104.471 103.248 104.387 104.043C104.306 104.783 103.68 105.335 102.951 105.335C102.899 105.335 102.847 105.332 102.795 105.326ZM181.379 101.457C180.586 101.373 180.01 100.659 180.094 99.8675C180.105 99.7634 180.128 99.6652 180.157 99.5698C180.149 99.4716 180.149 99.3675 180.157 99.2664C180.241 98.4717 180.953 97.8996 181.749 97.9834C182.546 98.0672 183.122 98.7809 183.035 99.5727C183.023 99.6767 183.003 99.775 182.971 99.8703C182.983 99.9686 182.983 100.073 182.971 100.174C182.89 100.916 182.262 101.465 181.532 101.465C181.48 101.465 181.428 101.463 181.376 101.457H181.379ZM103.287 100.729C102.491 100.645 101.915 99.931 102.001 99.1393C102.085 98.3446 102.8 97.7696 103.593 97.8562C104.39 97.94 104.966 98.6538 104.879 99.4456C104.801 100.188 104.172 100.737 103.44 100.737C103.391 100.737 103.339 100.734 103.287 100.729ZM176.84 100.364C176.044 100.281 175.468 99.5669 175.555 98.7752C175.639 97.9805 176.354 97.4054 177.147 97.4921C177.943 97.5759 178.516 98.2897 178.432 99.0815C178.354 99.8241 177.726 100.373 176.994 100.373C176.944 100.373 176.892 100.37 176.84 100.364ZM172.235 99.8732C171.439 99.7865 170.863 99.0757 170.949 98.281C171.033 97.4893 171.748 96.9142 172.542 96.998C173.338 97.0847 173.911 97.7956 173.827 98.5902C173.749 99.33 173.12 99.8819 172.388 99.8819C172.339 99.8819 172.287 99.879 172.235 99.8732ZM167.629 99.3791C166.833 99.2953 166.257 98.5844 166.344 97.7898C166.428 96.998 167.143 96.423 167.939 96.5068C168.732 96.5934 169.308 97.3043 169.221 98.099C169.143 98.8387 168.515 99.3878 167.786 99.3878C167.734 99.3878 167.681 99.3849 167.629 99.3791ZM163.024 98.8879C162.228 98.8041 161.655 98.0932 161.739 97.2985C161.823 96.5039 162.538 95.9288 163.331 96.0155C164.127 96.0993 164.703 96.8131 164.616 97.6048C164.538 98.3475 163.91 98.8965 163.18 98.8965C163.128 98.8965 163.076 98.8936 163.024 98.8879ZM158.418 98.3966C157.622 98.3099 157.049 97.5991 157.133 96.8044C157.217 96.0126 157.932 95.4376 158.725 95.5243C159.521 95.6081 160.097 96.3189 160.011 97.1136C159.932 97.8533 159.304 98.4053 158.575 98.4053C158.523 98.4053 158.471 98.4024 158.418 98.3966ZM103.779 96.1311C102.983 96.0473 102.41 95.3335 102.494 94.5418C102.58 93.7471 103.292 93.1721 104.086 93.2588C104.882 93.3426 105.458 94.0563 105.374 94.8481C105.293 95.5907 104.665 96.1398 103.932 96.1398C103.883 96.1398 103.831 96.1369 103.779 96.1311ZM128.221 95.137C127.425 95.0532 126.849 94.3395 126.936 93.5477C127.02 92.7531 127.735 92.178 128.528 92.2647C129.324 92.3485 129.897 93.0623 129.813 93.854C129.735 94.5967 129.107 95.1457 128.378 95.1457C128.326 95.1457 128.273 95.1428 128.221 95.137ZM157.767 94.7209C156.971 94.6342 156.398 93.9234 156.482 93.1287C156.566 92.3369 157.281 91.7619 158.074 91.8457C158.87 91.9324 159.446 92.6432 159.359 93.4379C159.281 94.1777 158.653 94.7296 157.921 94.7296C157.871 94.7296 157.819 94.7267 157.767 94.7209ZM123.645 94.6805C122.849 94.5967 122.273 93.8829 122.36 93.0911C122.444 92.2965 123.159 91.7214 123.952 91.8081C124.748 91.8919 125.321 92.6057 125.237 93.3975C125.159 94.1401 124.531 94.6891 123.798 94.6891C123.746 94.6891 123.697 94.6863 123.645 94.6805ZM119.039 94.1892C118.243 94.1025 117.667 93.3917 117.754 92.597C117.838 91.8052 118.553 91.2302 119.346 91.314C120.142 91.4007 120.718 92.1115 120.631 92.9062C120.553 93.646 119.925 94.195 119.196 94.195C119.144 94.195 119.092 94.1921 119.039 94.1892ZM114.434 93.6951C113.638 93.6113 113.065 92.9004 113.149 92.1058C113.233 91.314 113.948 90.7389 114.741 90.8228C115.537 90.9066 116.113 91.6203 116.026 92.415C115.948 93.1547 115.32 93.7038 114.59 93.7038C114.538 93.7038 114.486 93.7009 114.434 93.6951ZM109.829 93.2038C109.033 93.12 108.459 92.4063 108.543 91.6145C108.627 90.8199 109.342 90.2448 110.135 90.3315C110.931 90.4153 111.507 91.1262 111.421 91.9208C111.342 92.6606 110.714 93.2125 109.985 93.2125C109.933 93.2125 109.881 93.2096 109.829 93.2038ZM105.223 92.7126C104.427 92.6259 103.854 91.9151 103.938 91.1204C104.022 90.3286 104.737 89.7536 105.53 89.8374C106.326 89.9241 106.902 90.6349 106.815 91.4296C106.737 92.1693 106.109 92.7213 105.379 92.7213C105.327 92.7213 105.275 92.7213 105.223 92.7126ZM128.713 90.5396C127.917 90.4558 127.344 89.742 127.428 88.9502C127.512 88.1556 128.227 87.5805 129.02 87.6672C129.816 87.751 130.392 88.4648 130.308 89.2565C130.227 89.9992 129.599 90.5482 128.867 90.5482C128.818 90.5482 128.766 90.5453 128.713 90.5396ZM158.259 90.1234C157.466 90.0368 156.89 89.3259 156.974 88.5312C157.061 87.7395 157.773 87.1644 158.569 87.2511C159.362 87.3349 159.938 88.0458 159.854 88.8404C159.773 89.5802 159.148 90.1321 158.416 90.1321C158.366 90.1321 158.314 90.1292 158.259 90.1234ZM129.205 85.9421C128.412 85.8583 127.836 85.1445 127.92 84.3527C128.007 83.5581 128.719 82.983 129.515 83.0697C130.311 83.1535 130.884 83.8673 130.8 84.659C130.719 85.3988 130.094 85.9507 129.362 85.9507C129.31 85.9507 129.258 85.9478 129.205 85.9421ZM158.754 85.526C157.958 85.4422 157.382 84.7284 157.469 83.9366C157.553 83.142 158.268 82.5669 159.061 82.6536C159.857 82.7374 160.43 83.4512 160.346 84.2429C160.268 84.9856 159.64 85.5346 158.911 85.5346C158.858 85.5346 158.806 85.5317 158.754 85.526ZM129.698 81.3446C128.904 81.2608 128.328 80.547 128.415 79.7553C128.499 78.9606 129.211 78.3884 130.007 78.4722C130.803 78.556 131.376 79.2698 131.293 80.0616C131.214 80.8042 130.586 81.3533 129.857 81.3533C129.805 81.3533 129.753 81.3504 129.698 81.3446ZM159.246 80.9285C158.45 80.8447 157.877 80.1309 157.961 79.3391C158.045 78.5445 158.76 77.9694 159.553 78.0561C160.349 78.1399 160.925 78.8537 160.838 79.6454C160.76 80.3881 160.132 80.9371 159.4 80.9371C159.351 80.9371 159.298 80.9342 159.246 80.9285ZM130.193 76.7471C129.397 76.6633 128.823 75.9495 128.907 75.1578C128.991 74.3631 129.706 73.791 130.499 73.8748C131.295 73.9586 131.871 74.6723 131.785 75.4641C131.706 76.2067 131.078 76.7558 130.346 76.7558C130.297 76.7558 130.245 76.7558 130.193 76.7471ZM159.738 76.331C158.945 76.2472 158.369 75.5363 158.453 74.7417C158.54 73.947 159.252 73.3719 160.048 73.4586C160.841 73.5424 161.417 74.2562 161.333 75.048C161.252 75.7906 160.624 76.3397 159.895 76.3397C159.843 76.3397 159.791 76.3368 159.738 76.331ZM157.423 73.9961C156.627 73.9123 156.051 73.2015 156.137 72.4068C156.221 71.6121 156.936 71.0371 157.73 71.1238C158.526 71.2076 159.102 71.9213 159.015 72.716C158.937 73.4557 158.308 74.0048 157.579 74.0048C157.527 74.0048 157.475 74.0019 157.423 73.9961ZM152.817 73.5049C152.021 73.4182 151.448 72.7073 151.532 71.9127C151.616 71.1209 152.331 70.5458 153.124 70.6325C153.92 70.7163 154.496 71.4272 154.409 72.2219C154.331 72.9616 153.703 73.5135 152.974 73.5135C152.921 73.5135 152.869 73.5107 152.817 73.5049ZM148.212 73.0136C147.416 72.9269 146.843 72.2161 146.927 71.4214C147.011 70.6296 147.726 70.0546 148.519 70.1384C149.315 70.2251 149.891 70.9359 149.804 71.7306C149.726 72.4704 149.098 73.0223 148.365 73.0223C148.316 73.0223 148.264 73.0194 148.212 73.0136ZM143.606 72.5224C142.81 72.4357 142.237 71.7248 142.321 70.9302C142.405 70.1384 143.12 69.5633 143.916 69.6471C144.709 69.7338 145.285 70.4447 145.199 71.2394C145.12 71.9791 144.492 72.5282 143.763 72.5282C143.711 72.5282 143.659 72.5253 143.606 72.5224ZM130.685 72.1496C129.892 72.0658 129.315 71.3549 129.399 70.5603C129.486 69.7656 130.198 69.1935 130.994 69.2773C131.788 69.3611 132.364 70.0748 132.28 70.8666C132.199 71.6092 131.57 72.1583 130.841 72.1583C130.789 72.1583 130.737 72.1554 130.685 72.1496ZM139.001 72.0282C138.208 71.9444 137.632 71.2307 137.716 70.4389C137.803 69.6443 138.515 69.0692 139.311 69.1559C140.104 69.2397 140.68 69.9535 140.596 70.7452C140.515 71.4879 139.887 72.0369 139.157 72.0369C139.105 72.0369 139.053 72.034 139.001 72.0282ZM134.396 71.537C133.602 71.4532 133.026 70.7394 133.11 69.9477C133.197 69.153 133.909 68.578 134.705 68.6647C135.498 68.7485 136.075 69.4593 135.991 70.254C135.91 70.9937 135.281 71.5457 134.552 71.5457C134.5 71.5457 134.448 71.5428 134.396 71.537Z" fill="url(#paint4_linear_1203_5350)"/>
<path d="M222.896 175.031C222.097 175.031 221.451 174.378 221.454 173.58C221.454 172.783 222.109 172.138 222.908 172.141C223.709 172.144 224.352 172.791 224.349 173.592C224.349 174.387 223.701 175.031 222.902 175.031H222.896ZM226.086 173.586C226.08 172.789 226.723 172.136 227.522 172.13C228.321 172.121 228.975 172.763 228.981 173.56C228.989 174.358 228.347 175.011 227.548 175.019H227.533C226.74 175.019 226.095 174.381 226.086 173.586ZM218.247 174.985C217.448 174.973 216.811 174.317 216.823 173.52C216.837 172.722 217.494 172.083 218.293 172.095C219.092 172.109 219.729 172.765 219.718 173.563C219.706 174.352 219.06 174.985 218.27 174.985H218.247ZM230.72 173.534C230.7 172.737 231.334 172.075 232.133 172.057C232.932 172.04 233.595 172.67 233.612 173.468C233.632 174.265 232.998 174.927 232.199 174.947H232.165C231.38 174.947 230.738 174.32 230.72 173.534ZM213.601 174.889C212.802 174.869 212.171 174.205 212.194 173.407C212.215 172.609 212.877 171.979 213.679 172C214.478 172.02 215.112 172.685 215.089 173.482C215.069 174.268 214.423 174.889 213.642 174.889H213.604H213.601ZM235.349 173.416C235.32 172.618 235.942 171.948 236.741 171.916C237.54 171.887 238.212 172.508 238.243 173.306C238.272 174.103 237.65 174.774 236.851 174.806H236.796C236.02 174.806 235.381 174.196 235.349 173.416ZM208.958 174.745C208.159 174.716 207.534 174.046 207.563 173.248C207.592 172.45 208.263 171.826 209.062 171.855C209.861 171.884 210.486 172.555 210.458 173.352C210.429 174.132 209.786 174.745 209.013 174.745H208.958ZM239.977 173.225C239.934 172.427 240.545 171.745 241.341 171.702C242.14 171.659 242.823 172.266 242.869 173.063C242.913 173.861 242.302 174.543 241.503 174.586C241.477 174.589 241.451 174.589 241.422 174.589C240.66 174.589 240.021 173.994 239.977 173.225ZM204.315 174.554C203.516 174.52 202.9 173.84 202.937 173.046C202.975 172.248 203.649 171.63 204.448 171.667C205.247 171.705 205.864 172.378 205.829 173.176C205.791 173.95 205.152 174.554 204.382 174.554H204.315ZM199.678 174.323C198.879 174.28 198.268 173.598 198.312 172.8C198.355 172.005 199.038 171.393 199.834 171.436C200.633 171.48 201.244 172.162 201.2 172.959C201.16 173.728 200.52 174.323 199.759 174.323H199.678ZM244.603 172.95C244.542 172.156 245.139 171.462 245.935 171.402C246.734 171.341 247.428 171.936 247.489 172.731C247.55 173.528 246.954 174.222 246.155 174.283C246.117 174.283 246.082 174.283 246.045 174.283C245.295 174.283 244.661 173.707 244.603 172.948V172.95ZM195.041 174.048C194.245 173.999 193.64 173.314 193.689 172.517C193.738 171.719 194.427 171.115 195.223 171.165C196.022 171.217 196.627 171.901 196.578 172.699C196.528 173.465 195.892 174.051 195.136 174.051C195.104 174.051 195.072 174.051 195.041 174.051V174.048ZM249.22 172.581C249.139 171.786 249.721 171.078 250.517 171C251.31 170.919 252.019 171.5 252.1 172.294C252.181 173.086 251.599 173.794 250.803 173.875C250.754 173.878 250.705 173.881 250.659 173.881C249.923 173.881 249.295 173.326 249.22 172.581ZM190.409 173.739C189.61 173.681 189.011 172.991 189.069 172.196C189.124 171.399 189.816 170.8 190.615 170.855C191.411 170.913 192.013 171.604 191.955 172.401C191.9 173.161 191.266 173.742 190.513 173.742C190.479 173.742 190.444 173.739 190.409 173.739ZM185.778 173.393C184.982 173.329 184.388 172.633 184.449 171.838C184.513 171.04 185.21 170.448 186.006 170.512C186.802 170.572 187.399 171.269 187.335 172.063C187.274 172.82 186.64 173.395 185.893 173.395C185.856 173.395 185.818 173.395 185.778 173.395V173.393ZM253.828 172.098C253.724 171.306 254.283 170.584 255.076 170.48C255.869 170.379 256.596 170.936 256.697 171.728C256.801 172.52 256.24 173.245 255.449 173.346C255.386 173.355 255.322 173.358 255.261 173.358C254.543 173.358 253.921 172.826 253.828 172.098ZM181.152 173.008C180.356 172.939 179.765 172.24 179.835 171.445C179.904 170.647 180.605 170.061 181.401 170.13C182.197 170.197 182.787 170.899 182.718 171.693C182.654 172.445 182.02 173.014 181.279 173.014C181.236 173.014 181.195 173.014 181.152 173.008ZM258.419 171.48C258.286 170.691 258.822 169.948 259.609 169.818C260.399 169.685 261.143 170.22 261.273 171.006C261.404 171.795 260.871 172.537 260.084 172.667C260.003 172.682 259.922 172.687 259.843 172.687C259.149 172.687 258.535 172.185 258.419 171.48ZM176.526 172.592C175.733 172.517 175.148 171.812 175.224 171.017C175.299 170.223 176.002 169.639 176.798 169.714C177.594 169.789 178.179 170.494 178.104 171.289C178.034 172.037 177.403 172.598 176.662 172.598C176.619 172.598 176.573 172.595 176.526 172.592ZM171.909 172.141C171.113 172.06 170.534 171.352 170.612 170.558C170.693 169.763 171.403 169.185 172.199 169.266C172.995 169.347 173.574 170.055 173.493 170.85C173.417 171.592 172.789 172.15 172.054 172.15C172.008 172.15 171.958 172.15 171.909 172.141ZM262.981 170.688C262.813 169.908 263.311 169.139 264.093 168.971C264.874 168.804 265.644 169.304 265.812 170.084C265.98 170.864 265.482 171.63 264.701 171.797C264.596 171.821 264.495 171.829 264.394 171.829C263.728 171.829 263.126 171.367 262.981 170.688ZM167.289 171.659C166.496 171.572 165.923 170.861 166.007 170.066C166.094 169.272 166.806 168.7 167.602 168.786C168.395 168.87 168.971 169.584 168.884 170.379C168.806 171.118 168.178 171.667 167.449 171.667C167.396 171.667 167.344 171.667 167.289 171.659ZM162.678 171.144C161.885 171.055 161.315 170.338 161.405 169.546C161.497 168.752 162.215 168.182 163.008 168.275C163.804 168.364 164.372 169.081 164.282 169.876C164.195 170.613 163.57 171.156 162.846 171.156C162.791 171.156 162.736 171.15 162.678 171.144ZM267.5 169.673C267.283 168.905 267.729 168.104 268.496 167.888C269.266 167.671 270.065 168.116 270.285 168.882C270.505 169.65 270.056 170.448 269.289 170.668C269.156 170.705 269.022 170.722 268.892 170.722C268.261 170.722 267.682 170.309 267.5 169.673ZM158.07 170.601C157.277 170.506 156.709 169.783 156.808 168.992C156.903 168.2 157.624 167.636 158.417 167.732C159.213 167.827 159.778 168.549 159.679 169.341C159.592 170.072 158.967 170.61 158.246 170.61C158.189 170.61 158.128 170.607 158.07 170.601ZM153.464 170.026C152.671 169.925 152.11 169.202 152.211 168.411C152.315 167.619 153.039 167.058 153.832 167.159C154.625 167.261 155.184 167.986 155.083 168.778C154.99 169.506 154.368 170.038 153.65 170.038C153.589 170.038 153.525 170.035 153.464 170.026ZM148.862 169.422C148.072 169.315 147.513 168.587 147.62 167.798C147.727 167.006 148.457 166.451 149.25 166.558C150.04 166.665 150.596 167.394 150.489 168.182C150.39 168.908 149.771 169.437 149.056 169.437C148.992 169.437 148.929 169.431 148.862 169.422ZM271.937 168.341C271.642 167.602 272.004 166.761 272.745 166.463C273.489 166.168 274.328 166.53 274.627 167.272C274.922 168.012 274.56 168.853 273.816 169.148C273.642 169.22 273.46 169.252 273.283 169.252C272.707 169.252 272.163 168.908 271.937 168.341ZM144.265 168.789C143.472 168.677 142.922 167.948 143.035 167.157C143.145 166.365 143.877 165.816 144.67 165.928C145.461 166.038 146.011 166.769 145.901 167.561C145.799 168.284 145.177 168.804 144.468 168.804C144.401 168.804 144.335 168.798 144.265 168.789ZM139.671 168.128C138.881 168.009 138.334 167.278 138.453 166.486C138.568 165.697 139.304 165.151 140.094 165.27C140.884 165.385 141.431 166.119 141.316 166.908C141.208 167.628 140.592 168.142 139.886 168.142C139.813 168.142 139.744 168.139 139.671 168.128ZM135.083 167.437C134.293 167.316 133.752 166.579 133.873 165.79C133.995 165.001 134.733 164.461 135.523 164.582C136.314 164.703 136.855 165.44 136.733 166.229C136.623 166.943 136.007 167.454 135.303 167.454C135.231 167.454 135.156 167.448 135.083 167.437ZM276.198 166.527C275.767 165.85 275.967 164.958 276.641 164.53C277.316 164.102 278.21 164.299 278.639 164.975C279.07 165.648 278.87 166.541 278.196 166.969C277.955 167.122 277.686 167.194 277.42 167.194C276.942 167.194 276.473 166.957 276.198 166.527ZM130.498 166.717C129.708 166.59 129.17 165.85 129.297 165.064C129.424 164.276 130.165 163.738 130.956 163.865C131.743 163.992 132.281 164.732 132.154 165.521C132.041 166.232 131.427 166.738 130.73 166.738C130.652 166.738 130.576 166.732 130.498 166.717ZM125.916 165.969C125.129 165.839 124.596 165.093 124.726 164.307C124.856 163.521 125.603 162.99 126.394 163.12C127.181 163.25 127.713 163.995 127.58 164.784C127.465 165.489 126.851 165.989 126.156 165.989C126.078 165.989 125.997 165.983 125.916 165.969ZM121.339 165.194C120.552 165.056 120.025 164.31 120.161 163.524C120.297 162.738 121.047 162.209 121.834 162.345C122.622 162.484 123.149 163.229 123.013 164.015C122.891 164.721 122.28 165.215 121.588 165.215C121.507 165.215 121.423 165.209 121.339 165.194ZM116.769 164.388C115.981 164.247 115.457 163.495 115.599 162.709C115.741 161.923 116.494 161.403 117.281 161.545C118.068 161.684 118.59 162.435 118.448 163.221C118.323 163.92 117.712 164.411 117.026 164.411C116.94 164.411 116.856 164.403 116.769 164.388ZM279.99 163.845C279.319 163.414 279.122 162.522 279.553 161.848C279.985 161.178 280.882 160.984 281.553 161.412C282.228 161.845 282.422 162.738 281.991 163.409C281.713 163.839 281.247 164.073 280.769 164.073C280.503 164.073 280.233 164.001 279.99 163.845ZM112.201 163.553C111.417 163.406 110.898 162.649 111.046 161.866C111.191 161.08 111.946 160.565 112.734 160.71C113.521 160.857 114.036 161.611 113.891 162.397C113.761 163.091 113.153 163.576 112.47 163.576C112.38 163.576 112.291 163.568 112.201 163.553ZM107.642 162.686C106.857 162.533 106.342 161.776 106.496 160.99C106.646 160.207 107.407 159.695 108.192 159.849C108.976 160.002 109.489 160.759 109.338 161.542C109.202 162.233 108.597 162.712 107.917 162.712C107.827 162.712 107.735 162.704 107.642 162.686ZM103.086 161.788C102.301 161.632 101.795 160.869 101.954 160.086C102.11 159.302 102.874 158.797 103.656 158.956C104.44 159.112 104.947 159.872 104.791 160.655C104.652 161.343 104.047 161.816 103.372 161.816C103.28 161.816 103.181 161.808 103.086 161.788ZM98.5381 160.857C97.7537 160.695 97.2529 159.929 97.415 159.149C97.5771 158.369 98.3442 157.866 99.1287 158.028C99.9102 158.193 100.411 158.959 100.249 159.739C100.107 160.421 99.505 160.889 98.8363 160.889C98.7379 160.889 98.6366 160.88 98.5381 160.857ZM93.9964 159.898C93.2149 159.73 92.717 158.961 92.8849 158.181C93.0527 157.401 93.8256 156.904 94.6043 157.072C95.3859 157.242 95.8837 158.011 95.7158 158.791C95.5682 159.467 94.969 159.929 94.3033 159.929C94.2019 159.929 94.0977 159.921 93.9964 159.898ZM280.17 158.519C280.005 157.739 280.508 156.973 281.29 156.809C282.072 156.644 282.839 157.144 283.004 157.927C283.166 158.707 282.665 159.473 281.883 159.638C281.785 159.658 281.684 159.667 281.585 159.667C280.914 159.667 280.312 159.201 280.17 158.519ZM89.4605 158.901C88.6789 158.727 88.1868 157.956 88.3634 157.176C88.5371 156.398 89.31 155.91 90.0915 156.083C90.8702 156.257 91.3623 157.028 91.1886 157.808C91.0381 158.482 90.4389 158.938 89.7789 158.938C89.6718 158.938 89.5647 158.927 89.4605 158.901ZM84.9303 157.872C84.1517 157.693 83.6682 156.916 83.8477 156.138C84.0301 155.364 84.8058 154.878 85.5845 155.057C86.3632 155.24 86.8495 156.014 86.6671 156.791C86.5137 157.459 85.9174 157.912 85.2603 157.912C85.1503 157.912 85.0403 157.898 84.9303 157.872ZM80.4089 156.809C79.6331 156.621 79.1555 155.841 79.3407 155.066C79.5289 154.289 80.3104 153.812 81.0862 154C81.8649 154.185 82.3425 154.965 82.1572 155.742C81.9951 156.404 81.4046 156.849 80.7504 156.849C80.6375 156.849 80.5246 156.835 80.4089 156.809ZM75.899 155.705C75.1232 155.511 74.6514 154.728 74.8424 153.954C75.0392 153.179 75.8237 152.708 76.5995 152.902C77.3723 153.095 77.8442 153.878 77.6531 154.653C77.4881 155.309 76.8976 155.748 76.2492 155.748C76.1334 155.748 76.0147 155.734 75.899 155.705ZM278.398 155.008C277.915 154.373 278.039 153.465 278.676 152.983C279.313 152.5 280.222 152.624 280.705 153.26C281.189 153.896 281.064 154.803 280.427 155.286C280.167 155.482 279.857 155.578 279.553 155.578C279.116 155.578 278.682 155.381 278.398 155.008ZM71.3949 154.563C70.622 154.364 70.1559 153.575 70.3557 152.804C70.5554 152.032 71.3456 151.567 72.1214 151.766C72.8943 151.965 73.3603 152.754 73.1577 153.526C72.9898 154.179 72.4022 154.61 71.7596 154.61C71.638 154.61 71.5164 154.595 71.3949 154.563ZM66.9023 153.381C66.1295 153.173 65.6721 152.382 65.8805 151.61C66.086 150.839 66.8821 150.382 67.6521 150.59C68.4249 150.798 68.8823 151.59 68.6739 152.361C68.5031 153.006 67.9184 153.431 67.2786 153.431C67.1542 153.431 67.0268 153.413 66.9023 153.381ZM275.414 151.867C274.815 151.336 274.76 150.422 275.292 149.824C275.822 149.229 276.737 149.174 277.333 149.706C277.932 150.235 277.987 151.148 277.458 151.743C277.171 152.067 276.771 152.228 276.372 152.228C276.03 152.228 275.689 152.11 275.414 151.867ZM62.4214 152.156C61.6514 151.94 61.1998 151.142 61.414 150.373C61.6311 149.605 62.4301 149.157 63.2001 149.371C63.97 149.587 64.4187 150.382 64.2045 151.151C64.025 151.789 63.4432 152.208 62.8093 152.208C62.6819 152.208 62.5488 152.191 62.4214 152.156ZM57.9491 150.882C57.182 150.659 56.7392 149.856 56.962 149.09C57.1878 148.325 57.9897 147.885 58.7596 148.108H58.7567C59.5238 148.33 59.9667 149.131 59.7438 149.899C59.5586 150.529 58.9825 150.94 58.3544 150.94C58.2212 150.94 58.0852 150.922 57.9491 150.882ZM53.4913 149.561C52.7271 149.327 52.2958 148.521 52.5274 147.758C52.759 146.995 53.5666 146.562 54.3308 146.796C55.095 147.027 55.5292 147.833 55.2976 148.596C55.1066 149.22 54.5334 149.622 53.914 149.622C53.7721 149.622 53.6332 149.602 53.4913 149.561ZM271.9 149.105C271.248 148.642 271.092 147.741 271.555 147.091C272.018 146.44 272.922 146.287 273.573 146.747C274.227 147.209 274.378 148.111 273.917 148.761C273.634 149.16 273.188 149.371 272.736 149.371C272.447 149.371 272.152 149.284 271.9 149.105ZM49.0509 148.183C48.2867 147.943 47.867 147.131 48.1073 146.371C48.3475 145.608 49.1609 145.189 49.9251 145.429C50.6864 145.672 51.1061 146.484 50.8659 147.244C50.6719 147.859 50.1017 148.252 49.488 148.252C49.3433 148.252 49.1957 148.229 49.0509 148.183ZM268.108 146.631C267.425 146.218 267.207 145.331 267.621 144.646C268.035 143.964 268.927 143.747 269.61 144.16C270.293 144.577 270.51 145.464 270.096 146.146C269.824 146.594 269.347 146.842 268.857 146.842C268.603 146.842 268.342 146.773 268.108 146.631ZM44.6221 146.75C43.8637 146.498 43.4555 145.68 43.7045 144.923C43.9592 144.166 44.7784 143.756 45.5368 144.007C46.2952 144.259 46.7062 145.077 46.4544 145.834C46.2518 146.44 45.6873 146.825 45.0794 146.825C44.9289 146.825 44.7755 146.799 44.6221 146.75ZM40.2164 145.25C39.4609 144.987 39.0643 144.163 39.3277 143.409C39.5912 142.658 40.4161 142.259 41.1716 142.522C41.9243 142.788 42.3237 143.609 42.0603 144.363C41.8519 144.958 41.2932 145.334 40.694 145.334C40.5348 145.334 40.3727 145.305 40.2164 145.25ZM264.148 144.38C263.444 144.002 263.181 143.126 263.557 142.424C263.937 141.722 264.814 141.459 265.517 141.834C266.223 142.213 266.487 143.088 266.108 143.791C265.847 144.276 265.349 144.553 264.831 144.553C264.602 144.553 264.365 144.496 264.148 144.38ZM35.831 143.678C35.0813 143.403 34.6992 142.571 34.9742 141.823C35.252 141.074 36.0828 140.693 36.8325 140.967C37.5823 141.245 37.9672 142.074 37.6894 142.825C37.4752 143.409 36.9223 143.77 36.3318 143.77C36.1668 143.77 35.996 143.741 35.831 143.678ZM260.075 142.305C259.354 141.959 259.056 141.095 259.403 140.375C259.754 139.658 260.619 139.358 261.337 139.707C262.058 140.054 262.356 140.918 262.009 141.638C261.757 142.152 261.242 142.453 260.706 142.453C260.492 142.453 260.278 142.404 260.075 142.305ZM31.4745 142.028C30.7277 141.736 30.363 140.898 30.6524 140.155C30.9448 139.41 31.7842 139.046 32.5282 139.335C33.2721 139.627 33.6397 140.465 33.3474 141.207C33.1245 141.776 32.5774 142.126 32.0013 142.126C31.8248 142.126 31.6453 142.094 31.4745 142.028ZM255.915 140.381C255.186 140.057 254.856 139.202 255.18 138.474C255.504 137.742 256.358 137.416 257.091 137.74C257.82 138.063 258.15 138.916 257.826 139.647C257.586 140.184 257.056 140.505 256.503 140.505C256.306 140.505 256.106 140.465 255.915 140.381ZM27.147 140.28C26.4088 139.97 26.0615 139.124 26.3712 138.387C26.678 137.653 27.5262 137.306 28.2643 137.612C29.0025 137.922 29.3498 138.768 29.0401 139.505C28.8085 140.057 28.2701 140.392 27.7057 140.392C27.5175 140.392 27.3293 140.355 27.147 140.28ZM251.692 138.58C250.951 138.277 250.598 137.433 250.902 136.696C251.206 135.96 252.051 135.604 252.789 135.908C253.53 136.211 253.883 137.055 253.579 137.792C253.351 138.352 252.809 138.69 252.242 138.69C252.057 138.69 251.872 138.656 251.692 138.58ZM22.86 138.419C22.1305 138.089 21.8063 137.234 22.1363 136.509C22.4663 135.78 23.3231 135.457 24.0526 135.786C24.7791 136.116 25.1033 136.971 24.7734 137.696C24.5331 138.231 24.0063 138.549 23.4563 138.549C23.2565 138.549 23.0539 138.505 22.86 138.419ZM247.417 136.893C246.67 136.61 246.294 135.775 246.58 135.029C246.864 134.284 247.7 133.911 248.447 134.194C249.194 134.477 249.567 135.312 249.284 136.058C249.064 136.636 248.514 136.988 247.932 136.988C247.761 136.988 247.585 136.959 247.417 136.893ZM18.6251 136.422C17.9072 136.069 17.6148 135.202 17.968 134.489C18.3211 133.772 19.1895 133.48 19.9074 133.833C20.6224 134.185 20.9177 135.052 20.5616 135.769C20.3098 136.277 19.7974 136.572 19.2648 136.572C19.0477 136.572 18.8306 136.526 18.6251 136.422ZM243.098 135.309C242.345 135.041 241.952 134.217 242.218 133.463C242.487 132.712 243.315 132.319 244.068 132.584C244.82 132.853 245.214 133.68 244.948 134.431C244.736 135.023 244.178 135.393 243.581 135.393C243.422 135.393 243.257 135.364 243.098 135.309ZM14.4568 134.255C13.7591 133.87 13.5044 132.989 13.8894 132.29C14.2773 131.593 15.1573 131.339 15.8578 131.726C16.5554 132.11 16.8101 132.989 16.4251 133.688C16.1617 134.165 15.6667 134.434 15.1544 134.434C14.9199 134.434 14.6797 134.376 14.4568 134.255ZM238.744 133.815C237.986 133.564 237.575 132.746 237.827 131.989C238.078 131.232 238.898 130.822 239.656 131.073C240.417 131.324 240.825 132.142 240.574 132.899C240.374 133.506 239.807 133.891 239.202 133.891C239.051 133.891 238.898 133.865 238.744 133.815ZM234.359 132.408C233.598 132.171 233.169 131.362 233.406 130.599C233.644 129.839 234.454 129.412 235.219 129.648C235.983 129.885 236.408 130.697 236.171 131.457C235.98 132.076 235.407 132.475 234.79 132.475C234.648 132.475 234.504 132.454 234.359 132.408ZM10.3926 131.856C9.71819 131.426 9.52135 130.533 9.94976 129.859C10.3782 129.186 11.2726 128.99 11.9471 129.417C12.6215 129.848 12.8184 130.741 12.39 131.414C12.115 131.845 11.646 132.082 11.1684 132.082C10.9021 132.082 10.6329 132.009 10.3926 131.856ZM229.947 131.082C229.18 130.859 228.74 130.059 228.963 129.293C229.186 128.527 229.991 128.085 230.758 128.308C231.525 128.533 231.965 129.334 231.742 130.102C231.56 130.732 230.981 131.142 230.353 131.142C230.219 131.142 230.083 131.122 229.947 131.082ZM225.513 129.836C224.743 129.625 224.285 128.831 224.497 128.062C224.708 127.29 225.504 126.837 226.274 127.048C227.047 127.256 227.501 128.05 227.29 128.822C227.113 129.464 226.532 129.885 225.895 129.885C225.767 129.885 225.64 129.871 225.513 129.836ZM6.48774 129.123C5.8596 128.631 5.74671 127.724 6.2388 127.097C6.7309 126.467 7.63982 126.354 8.27086 126.845C8.899 127.337 9.01189 128.247 8.5198 128.874C8.23323 129.238 7.80771 129.429 7.37641 129.429C7.06668 129.429 6.75116 129.331 6.48774 129.123ZM221.055 128.66C220.282 128.464 219.813 127.678 220.01 126.903C220.21 126.132 220.997 125.664 221.773 125.86C222.546 126.059 223.015 126.845 222.818 127.617C222.65 128.273 222.062 128.706 221.417 128.706C221.298 128.706 221.176 128.692 221.055 128.66ZM216.58 127.559C215.801 127.374 215.323 126.597 215.506 125.82C215.691 125.042 216.473 124.563 217.251 124.748C218.027 124.933 218.508 125.713 218.322 126.487C218.166 127.152 217.573 127.6 216.916 127.6C216.806 127.6 216.693 127.585 216.58 127.559ZM212.084 126.528C211.306 126.354 210.814 125.583 210.987 124.805C211.161 124.025 211.934 123.534 212.712 123.707C213.494 123.881 213.986 124.652 213.812 125.43C213.662 126.103 213.066 126.562 212.4 126.562C212.296 126.562 212.191 126.551 212.084 126.528ZM2.89257 125.849C2.35705 125.256 2.40047 124.343 2.99388 123.806C3.58439 123.271 4.49911 123.314 5.03752 123.907C5.57303 124.499 5.52961 125.412 4.9362 125.947C4.65831 126.198 4.31095 126.322 3.96649 126.322C3.56992 126.322 3.17914 126.164 2.89257 125.849ZM207.577 125.565C206.793 125.404 206.289 124.641 206.451 123.858C206.613 123.077 207.378 122.575 208.162 122.736C208.944 122.895 209.447 123.661 209.285 124.441C209.146 125.126 208.541 125.597 207.87 125.597C207.774 125.597 207.676 125.586 207.577 125.565ZM203.053 124.672C202.269 124.522 201.753 123.765 201.904 122.982C202.051 122.199 202.81 121.685 203.594 121.832C204.379 121.982 204.894 122.739 204.746 123.522C204.613 124.216 204.008 124.698 203.328 124.698C203.238 124.698 203.146 124.69 203.053 124.672ZM0.122372 121.537C-0.152622 120.792 0.229474 119.959 0.979193 119.682C1.73181 119.407 2.56258 119.792 2.83757 120.54C3.11546 121.289 2.73047 122.118 1.98075 122.395C1.81575 122.456 1.64786 122.485 1.47997 122.485C0.892353 122.485 0.336577 122.124 0.122372 121.537ZM0.941562 117.885C0.22079 117.535 -0.0802551 116.674 0.267105 115.954C0.614465 115.235 1.48286 114.934 2.20074 115.284C2.92151 115.631 3.22256 116.495 2.8752 117.211C2.62336 117.729 2.10811 118.029 1.56971 118.029C1.35839 118.029 1.14419 117.983 0.941562 117.885ZM3.5265 114.108C3.09519 113.437 3.28624 112.542 3.95781 112.108C4.62937 111.675 5.52382 111.868 5.95802 112.539C6.39222 113.209 6.20117 114.102 5.52961 114.535C5.28646 114.694 5.01436 114.769 4.74515 114.769C4.27043 114.769 3.80439 114.535 3.5265 114.108ZM7.53851 111.81C7.25194 111.065 7.62535 110.23 8.37217 109.944C9.119 109.658 9.95555 110.03 10.2421 110.773C10.5287 111.519 10.1553 112.354 9.40846 112.64C9.23768 112.706 9.064 112.738 8.89032 112.738C8.30849 112.738 7.7614 112.383 7.53851 111.81ZM11.9008 110.256C11.6924 109.487 12.1468 108.692 12.9197 108.487C13.6926 108.279 14.4857 108.733 14.6941 109.504C14.9025 110.276 14.4452 111.068 13.6752 111.276C13.5478 111.311 13.4234 111.325 13.2989 111.325C12.6592 111.325 12.0745 110.9 11.9008 110.256ZM16.3875 109.114C16.2283 108.334 16.7349 107.571 17.5164 107.409C18.3009 107.251 19.0651 107.756 19.2243 108.539C19.3835 109.32 18.8798 110.085 18.0954 110.244C17.9969 110.262 17.9014 110.273 17.8059 110.273C17.1314 110.273 16.5293 109.799 16.3875 109.114ZM20.935 108.233C20.8106 107.447 21.349 106.704 22.1363 106.58C22.9266 106.456 23.6705 106.99 23.795 107.779C23.9194 108.568 23.381 109.308 22.5937 109.432C22.5155 109.447 22.4403 109.452 22.3621 109.452C21.6645 109.452 21.0508 108.947 20.935 108.233ZM25.5144 107.537C25.4131 106.745 25.9746 106.022 26.7678 105.921C27.5609 105.82 28.2846 106.381 28.3859 107.173C28.4872 107.964 27.9256 108.687 27.1325 108.788C27.0717 108.797 27.0109 108.799 26.9473 108.799C26.2323 108.799 25.607 108.265 25.5144 107.537ZM30.114 106.976C30.033 106.181 30.609 105.473 31.405 105.392C32.2011 105.309 32.9103 105.887 32.9913 106.681C33.0753 107.473 32.4963 108.184 31.7003 108.265C31.6511 108.271 31.6019 108.273 31.5527 108.273C30.8203 108.273 30.1893 107.719 30.114 106.976ZM34.7252 106.522C34.6586 105.728 35.2492 105.028 36.0452 104.962C36.8412 104.895 37.5417 105.488 37.6083 106.282C37.6749 107.077 37.0815 107.776 36.2854 107.843C36.2449 107.843 36.2044 107.843 36.1639 107.843C35.4199 107.843 34.786 107.274 34.7252 106.519V106.522ZM39.3422 106.152C39.2872 105.358 39.8893 104.667 40.6882 104.615C41.4872 104.56 42.1761 105.164 42.2282 105.959C42.2832 106.756 41.6782 107.444 40.8822 107.499C40.8503 107.499 40.8185 107.502 40.7838 107.502C40.0282 107.502 39.3914 106.915 39.3422 106.152ZM43.965 105.855C43.9216 105.06 44.5352 104.378 45.3342 104.335C46.1331 104.291 46.8162 104.904 46.8568 105.702C46.9002 106.499 46.2894 107.178 45.4905 107.222C45.4644 107.222 45.4355 107.225 45.4094 107.225C44.6481 107.225 44.0084 106.626 43.9679 105.855H43.965ZM48.5907 105.618C48.5559 104.823 49.1783 104.15 49.9743 104.115C50.7761 104.081 51.4506 104.702 51.4824 105.497C51.5172 106.294 50.8948 106.967 50.0988 107.002H50.0351C49.2651 107.002 48.6225 106.395 48.5907 105.618ZM53.2192 105.436C53.1932 104.635 53.8213 103.971 54.6203 103.945C55.4192 103.919 56.0879 104.543 56.1139 105.34C56.14 106.141 55.5118 106.806 54.7129 106.832H54.6666C53.8879 106.832 53.2453 106.216 53.2192 105.436ZM57.8478 105.294C57.8304 104.497 58.4644 103.835 59.2633 103.818C60.0622 103.797 60.7251 104.43 60.7425 105.228C60.7627 106.025 60.1288 106.687 59.3299 106.704H59.2952C58.5107 106.704 57.8681 106.08 57.8478 105.294ZM62.4822 105.193C62.4677 104.396 63.1074 103.74 63.9064 103.728C64.7053 103.714 65.3624 104.352 65.3768 105.15C65.3884 105.947 64.7487 106.603 63.9498 106.615C63.9498 106.615 63.9353 106.615 63.9266 106.615C63.1393 106.615 62.4938 105.979 62.4822 105.19V105.193ZM67.1136 105.13C67.105 104.332 67.7476 103.679 68.5465 103.67C69.3425 103.664 69.9967 104.306 70.0054 105.103C70.0112 105.901 69.3686 106.554 68.5697 106.56H68.5581C67.7649 106.56 67.1165 105.924 67.1107 105.13H67.1136ZM71.7451 105.095C71.7451 104.297 72.3906 103.65 73.1896 103.647C73.9885 103.644 74.6369 104.292 74.6398 105.089C74.6398 105.887 73.9943 106.534 73.1953 106.537C72.3964 106.537 71.7509 105.892 71.748 105.095H71.7451Z" fill="url(#paint5_linear_1203_5350)"/>
</g>
<defs>
<linearGradient id="paint0_linear_1203_5350" x1="76.1822" y1="113.426" x2="204.362" y2="127.17" gradientUnits="userSpaceOnUse">
<stop stop-color="#8CD6D6"/>
<stop offset="1" stop-color="#FF9F80"/>
</linearGradient>
<linearGradient id="paint1_linear_1203_5350" x1="85.2296" y1="29.0696" x2="212.442" y2="42.7106" gradientUnits="userSpaceOnUse">
<stop stop-color="#8CD6D6"/>
<stop offset="1" stop-color="#FF9F80"/>
</linearGradient>
<linearGradient id="paint2_linear_1203_5350" x1="67.8056" y1="191.576" x2="195.018" y2="205.217" gradientUnits="userSpaceOnUse">
<stop stop-color="#8CD6D6"/>
<stop offset="1" stop-color="#FF9F80"/>
</linearGradient>
<linearGradient id="paint3_linear_1203_5350" x1="135.99" y1="19.6838" x2="161.893" y2="22.4613" gradientUnits="userSpaceOnUse">
<stop stop-color="#8CD6D6"/>
<stop offset="1" stop-color="#FF9F80"/>
</linearGradient>
<linearGradient id="paint4_linear_1203_5350" x1="101.31" y1="105.567" x2="181.474" y2="114.163" gradientUnits="userSpaceOnUse">
<stop stop-color="#8CD6D6"/>
<stop offset="1" stop-color="#FF9F80"/>
</linearGradient>
<linearGradient id="paint5_linear_1203_5350" x1="-0.272545" y1="119.064" x2="282.499" y2="161.852" gradientUnits="userSpaceOnUse">
<stop stop-color="#8CD6D6"/>
<stop offset="1" stop-color="#FF9F80"/>
</linearGradient>
<clipPath id="clip0_1203_5350">
<rect width="283" height="239" fill="white" transform="translate(0.0332031 0.806152)"/>
</clipPath>
</defs>
</svg>
