<svg width="224" height="200" viewBox="0 0 224 200" fill="none" xmlns="http://www.w3.org/2000/svg">
<g clip-path="url(#clip0_1233_2514)">
<path d="M40.755 103.118C40.7496 102.374 41.3494 101.768 42.0918 101.763C42.8341 101.76 43.4393 102.358 43.4447 103.102C43.4501 103.849 42.8503 104.455 42.1079 104.458H42.0998C41.3602 104.458 40.7604 103.859 40.755 103.118ZM37.7829 104.45C37.0378 104.441 36.4434 103.832 36.4515 103.089C36.4595 102.345 37.0674 101.747 37.8098 101.755C38.5521 101.763 39.1492 102.372 39.1412 103.116C39.1331 103.857 38.5333 104.45 37.7963 104.45H37.7829ZM45.0585 103.081C45.0424 102.337 45.6314 101.722 46.3738 101.706C47.1188 101.69 47.7321 102.28 47.7482 103.027C47.7617 103.77 47.1726 104.385 46.4303 104.401H46.4034C45.6744 104.401 45.0746 103.816 45.0585 103.081ZM33.4524 104.363C32.7101 104.339 32.1264 103.719 32.1479 102.975C32.1694 102.232 32.7908 101.647 33.5331 101.668C34.2755 101.693 34.8591 102.312 34.8376 103.056C34.8161 103.787 34.2163 104.363 33.4928 104.363H33.4524ZM49.362 102.981C49.3351 102.237 49.9161 101.615 50.6612 101.59C51.4035 101.563 52.0248 102.148 52.049 102.892C52.0733 103.636 51.4923 104.258 50.7499 104.282H50.7042C49.9807 104.282 49.3862 103.708 49.362 102.981ZM29.1193 104.183C28.3796 104.142 27.8094 103.506 27.8498 102.765C27.8901 102.021 28.5222 101.45 29.2646 101.491C30.0069 101.531 30.5744 102.167 30.5341 102.908C30.4964 103.628 29.902 104.185 29.1919 104.185C29.1677 104.185 29.1435 104.183 29.1193 104.183ZM53.6602 102.827C53.6279 102.083 54.2035 101.453 54.9432 101.42C55.6855 101.385 56.3149 101.962 56.3499 102.706C56.3822 103.45 55.8066 104.078 55.0642 104.113H55.005C54.2896 104.113 53.6925 103.549 53.6602 102.827ZM57.961 102.622C57.918 101.881 58.4855 101.245 59.2279 101.202C59.9702 101.162 60.605 101.73 60.6453 102.474C60.6884 103.218 60.1209 103.854 59.3785 103.894C59.3516 103.897 59.3274 103.897 59.3032 103.897C58.5931 103.897 58.0014 103.342 57.961 102.622ZM24.7862 103.886C24.0465 103.824 23.4951 103.175 23.5597 102.431C23.6189 101.69 24.2698 101.14 25.0094 101.202C25.7491 101.264 26.3005 101.914 26.2386 102.657C26.1795 103.361 25.5931 103.892 24.9019 103.892C24.8642 103.892 24.8239 103.889 24.7862 103.886ZM62.2565 102.377C62.2081 101.633 62.7702 100.992 63.5099 100.943C64.2522 100.895 64.8924 101.458 64.9408 102.202C64.9892 102.943 64.4271 103.584 63.6874 103.633C63.6578 103.636 63.6255 103.636 63.596 103.636C62.8939 103.636 62.3022 103.089 62.2565 102.377ZM20.4531 103.444C19.7161 103.353 19.1916 102.682 19.2831 101.943C19.3718 101.205 20.0443 100.679 20.7812 100.768C21.5182 100.86 22.0427 101.531 21.9513 102.269C21.8679 102.954 21.2869 103.455 20.6199 103.455C20.5634 103.455 20.5096 103.45 20.4531 103.444ZM66.5519 102.089C66.4955 101.345 67.0522 100.698 67.7919 100.644C68.5342 100.588 69.1771 101.146 69.2336 101.887C69.2874 102.63 68.7333 103.275 67.9909 103.331C67.9587 103.334 67.9237 103.334 67.8914 103.334C67.1921 103.334 66.603 102.795 66.5519 102.089ZM70.842 101.76C70.7802 101.019 71.3315 100.367 72.0712 100.307C72.8109 100.246 73.4618 100.795 73.5237 101.539C73.5828 102.28 73.0341 102.93 72.2945 102.992C72.2568 102.992 72.2191 102.997 72.1815 102.997C71.4875 102.997 70.9012 102.463 70.842 101.76ZM16.1227 102.8C15.3911 102.668 14.9069 101.968 15.036 101.235C15.1678 100.502 15.8645 100.016 16.5961 100.146C17.3277 100.278 17.8145 100.976 17.6854 101.709C17.567 102.361 16.9995 102.819 16.362 102.819C16.284 102.819 16.2034 102.814 16.1227 102.8ZM75.1294 101.396C75.0595 100.655 75.6055 100 76.3425 99.9302C77.0821 99.8601 77.7384 100.405 77.8084 101.143C77.8783 101.884 77.335 102.542 76.5953 102.612C76.5523 102.617 76.5092 102.617 76.4662 102.617C75.783 102.617 75.1967 102.094 75.1294 101.396ZM79.4141 100.987C79.3388 100.245 79.8794 99.5853 80.6164 99.5098C81.3561 99.437 82.0151 99.976 82.0904 100.717C82.1657 101.456 81.6277 102.118 80.8881 102.191C80.8423 102.197 80.7966 102.199 80.7509 102.199C80.0704 102.199 79.484 101.682 79.4141 100.987ZM11.8084 101.849C11.0902 101.655 10.6653 100.917 10.8589 100.197C11.0526 99.4775 11.7922 99.0517 12.5077 99.2457C13.2259 99.4397 13.6508 100.181 13.4572 100.898C13.2958 101.499 12.7525 101.895 12.158 101.895C12.0424 101.895 11.924 101.881 11.8084 101.849ZM83.6961 100.547C83.6154 99.8062 84.1507 99.1433 84.8877 99.0624C85.6273 98.9843 86.289 99.5179 86.3697 100.259C86.4504 100.997 85.9151 101.663 85.1781 101.741C85.127 101.747 85.0786 101.749 85.0302 101.749C84.3551 101.749 83.7714 101.237 83.6961 100.547ZM87.9728 100.078C87.8894 99.34 88.4192 98.6717 89.1562 98.5854C89.8959 98.5019 90.5629 99.0328 90.6463 99.7712C90.7324 100.512 90.2025 101.178 89.4628 101.264C89.4117 101.27 89.3606 101.272 89.3095 101.272C88.6344 101.272 88.0535 100.766 87.9728 100.078ZM92.2494 99.5826C92.1606 98.8442 92.6851 98.1704 93.4221 98.0815C94.1591 97.9926 94.8315 98.5181 94.9203 99.2565C95.009 99.9949 94.4845 100.669 93.7449 100.758C93.6911 100.763 93.6373 100.768 93.5835 100.768C92.911 100.768 92.3328 100.264 92.2494 99.5826ZM7.53981 100.351C6.8647 100.041 6.56883 99.2403 6.87815 98.5639C7.19015 97.8875 7.989 97.591 8.66142 97.9036C9.33654 98.2135 9.6324 99.0139 9.32309 99.6903C9.09446 100.184 8.61032 100.475 8.09927 100.475C7.91099 100.475 7.72002 100.434 7.53981 100.351ZM96.5206 99.057C96.4265 98.3186 96.9483 97.6449 97.6853 97.5506C98.4223 97.4563 99.0947 97.9791 99.1888 98.7175C99.283 99.4559 98.7612 100.13 98.0242 100.224C97.9677 100.232 97.9112 100.235 97.8547 100.235C97.185 100.235 96.6067 99.7389 96.5206 99.057ZM100.789 98.5073C100.69 97.7689 101.206 97.0925 101.943 96.9928C102.68 96.893 103.358 97.4105 103.455 98.1489C103.554 98.8873 103.038 99.5664 102.301 99.6634C102.239 99.6715 102.18 99.6769 102.121 99.6769C101.456 99.6769 100.881 99.1837 100.789 98.5073ZM105.052 97.9306C104.947 97.1949 105.461 96.5131 106.196 96.4107C106.932 96.3055 107.613 96.8203 107.715 97.556C107.817 98.2944 107.304 98.9762 106.569 99.0786C106.508 99.0867 106.443 99.0921 106.381 99.0921C105.722 99.0921 105.147 98.6043 105.052 97.9306ZM109.31 97.3296C109.203 96.5912 109.711 95.9067 110.445 95.7989C111.182 95.6911 111.865 96.2031 111.973 96.9389C112.078 97.6746 111.57 98.3591 110.835 98.4669C110.771 98.4776 110.703 98.4803 110.639 98.4803C109.983 98.4803 109.407 97.998 109.31 97.3296ZM3.57788 97.4644C3.12332 96.8769 3.2336 96.0307 3.81995 95.5752C4.409 95.1198 5.25357 95.2303 5.70544 95.8178C6.15731 96.408 6.04972 97.2542 5.46067 97.7096C5.21591 97.8982 4.92811 97.9899 4.64031 97.9899C4.23686 97.9899 3.83878 97.8093 3.57519 97.4644H3.57788ZM113.565 96.699C113.452 95.966 113.958 95.2761 114.692 95.1656C115.427 95.0524 116.112 95.5591 116.225 96.2948C116.336 97.0305 115.833 97.7177 115.098 97.8309C115.028 97.839 114.961 97.8443 114.894 97.8443C114.24 97.8443 113.668 97.3673 113.565 96.699ZM117.818 96.0468C117.702 95.3138 118.202 94.6212 118.937 94.5054C119.668 94.3895 120.357 94.8907 120.472 95.6264C120.591 96.3621 120.091 97.052 119.356 97.1679C119.284 97.1787 119.214 97.1841 119.144 97.1841C118.496 97.1841 117.923 96.7125 117.818 96.0468ZM122.065 95.3704C121.946 94.6347 122.441 93.9421 123.176 93.8208C123.907 93.6996 124.598 94.1981 124.72 94.9338C124.841 95.6669 124.343 96.3594 123.611 96.4807C123.536 96.4915 123.463 96.4996 123.391 96.4996C122.745 96.4996 122.175 96.0307 122.065 95.3704ZM126.312 94.667C126.185 93.934 126.678 93.236 127.409 93.1121C128.144 92.9881 128.837 93.4813 128.961 94.2143C129.088 94.9473 128.595 95.6426 127.861 95.7693C127.786 95.78 127.71 95.7881 127.635 95.7881C126.99 95.7881 126.422 95.3219 126.312 94.667ZM130.553 93.9394C130.424 93.2064 130.914 92.5057 131.645 92.3791C132.377 92.2497 133.074 92.7402 133.203 93.4732C133.329 94.2062 132.842 94.9042 132.111 95.0336C132.03 95.047 131.952 95.0524 131.877 95.0524C131.234 95.0524 130.666 94.5916 130.553 93.9394ZM134.79 93.1875C134.658 92.4545 135.142 91.7538 135.874 91.6218C136.605 91.4871 137.305 91.9721 137.436 92.7052C137.571 93.4382 137.084 94.1388 136.355 94.2736C136.272 94.2871 136.194 94.2951 136.113 94.2951C135.476 94.2951 134.908 93.837 134.79 93.1875ZM3.65319 93.8397C2.97001 93.5514 2.64993 92.7591 2.93773 92.0745C3.22553 91.39 4.0163 91.0693 4.69949 91.3577C5.38267 91.6488 5.70275 92.4411 5.41226 93.1256C5.19708 93.6376 4.6968 93.9475 4.1723 93.9475C4.00016 93.9475 3.81995 93.9125 3.6505 93.8397H3.65319ZM139.023 92.4114C138.886 91.6811 139.368 90.975 140.097 90.8376C140.828 90.7001 141.53 91.1825 141.667 91.9155C141.805 92.6459 141.323 93.3492 140.594 93.4867C140.511 93.5028 140.427 93.5109 140.344 93.5109C139.709 93.5109 139.144 93.0582 139.023 92.4114ZM143.254 91.611C143.112 90.8807 143.59 90.1746 144.319 90.0345C145.048 89.8917 145.753 90.3714 145.893 91.1017C146.035 91.832 145.557 92.5381 144.828 92.6782C144.742 92.6971 144.658 92.7052 144.572 92.7052C143.94 92.7052 143.378 92.2551 143.254 91.611ZM147.477 90.7891C147.335 90.0614 147.808 89.35 148.537 89.2072C149.266 89.0616 149.973 89.5359 150.116 90.2663C150.261 90.9966 149.788 91.7053 149.059 91.8509C148.97 91.867 148.881 91.8751 148.795 91.8751C148.166 91.8751 147.606 91.4305 147.477 90.7891ZM151.7 89.9483C151.552 89.2179 152.023 88.5092 152.749 88.361C153.478 88.2127 154.188 88.6843 154.336 89.4147C154.484 90.1423 154.013 90.8538 153.284 91.002C153.193 91.0181 153.104 91.0289 153.015 91.0289C152.388 91.0289 151.829 90.587 151.7 89.9483ZM5.78344 90.1261C5.27777 89.5791 5.31005 88.7275 5.85337 88.2208C6.39669 87.7142 7.24933 87.7438 7.75499 88.2909C8.26065 88.8353 8.22838 89.6869 7.68506 90.1935C7.42685 90.436 7.0987 90.5546 6.77056 90.5546C6.41014 90.5546 6.04972 90.4091 5.78344 90.1261ZM155.915 89.0778C155.761 88.3502 156.224 87.6333 156.95 87.4797C157.676 87.3234 158.392 87.7896 158.545 88.5173C158.701 89.2449 158.236 89.9617 157.51 90.1153C157.416 90.1369 157.321 90.145 157.227 90.145C156.609 90.145 156.049 89.7111 155.915 89.0778ZM160.124 88.175C159.965 87.4501 160.425 86.7305 161.152 86.5715C161.875 86.4125 162.593 86.8734 162.752 87.601C162.911 88.3259 162.451 89.0455 161.727 89.2045C161.628 89.226 161.531 89.2368 161.437 89.2368C160.818 89.2368 160.261 88.8056 160.124 88.175ZM164.328 87.248C164.164 86.523 164.619 85.8008 165.345 85.6364C166.068 85.472 166.789 85.9275 166.951 86.6551C167.115 87.38 166.66 88.1023 165.937 88.2666C165.837 88.2882 165.738 88.299 165.641 88.299C165.025 88.299 164.471 87.8732 164.328 87.248ZM9.04336 87.3153C8.62914 86.6982 8.79053 85.8601 9.40378 85.4424C10.0197 85.0274 10.8562 85.1864 11.2731 85.8035C11.69 86.4206 11.526 87.2587 10.9127 87.6765C10.6814 87.8328 10.4205 87.9082 10.1596 87.9055C9.72923 87.9055 9.30426 87.698 9.04336 87.3153ZM168.527 86.294C168.357 85.569 168.806 84.8441 169.53 84.6743C170.254 84.5072 170.977 84.9573 171.146 85.6822C171.313 86.4072 170.864 87.1321 170.141 87.2992C170.038 87.3234 169.936 87.3342 169.837 87.3342C169.223 87.3342 168.672 86.9165 168.527 86.294ZM172.717 85.3103C172.545 84.5854 172.989 83.8578 173.712 83.6853C174.433 83.5101 175.16 83.9548 175.332 84.6797C175.507 85.4047 175.063 86.1296 174.339 86.3048C174.234 86.329 174.129 86.3425 174.024 86.3425C173.417 86.3425 172.865 85.9275 172.717 85.3103ZM12.6529 84.9654C12.2898 84.3186 12.5185 83.4967 13.1667 83.1301C13.8122 82.7636 14.6326 82.9954 14.9984 83.6422C15.3615 84.2917 15.1329 85.1136 14.4846 85.4774C14.2775 85.596 14.0516 85.6526 13.8283 85.6526C13.3576 85.6526 12.9004 85.4047 12.6529 84.9654ZM176.902 84.297C176.725 83.5748 177.163 82.8445 177.884 82.6639C178.605 82.4861 179.334 82.9253 179.511 83.6476C179.692 84.3698 179.253 85.1001 178.532 85.2807C178.422 85.3076 178.315 85.3211 178.207 85.3211C177.602 85.3211 177.053 84.9088 176.902 84.297ZM181.08 83.2541C180.894 82.5319 181.33 81.7989 182.048 81.6129C182.769 81.4297 183.5 81.8635 183.686 82.5858C183.869 83.3053 183.436 84.0383 182.715 84.2243C182.605 84.2539 182.492 84.2674 182.381 84.2674C181.782 84.2674 181.236 83.8605 181.08 83.2541ZM16.4293 82.893C16.0985 82.2274 16.3701 81.4189 17.0372 81.0874C17.7015 80.7559 18.5084 81.0281 18.8393 81.6965C19.1674 82.3621 18.8958 83.1706 18.2314 83.502C18.0377 83.5964 17.836 83.6422 17.6343 83.6422C17.1394 83.6422 16.6633 83.3673 16.4293 82.893ZM185.249 82.1762C185.058 81.4593 185.485 80.7209 186.203 80.5296C186.922 80.3409 187.659 80.7694 187.85 81.489C188.038 82.2085 187.61 82.9442 186.892 83.1355C186.776 83.1652 186.661 83.1814 186.548 83.1814C185.953 83.1814 185.407 82.7798 185.249 82.1762ZM189.407 81.0685C189.213 80.349 189.636 79.6079 190.351 79.4139C191.066 79.2171 191.806 79.6402 192.002 80.3571C192.199 81.0766 191.777 81.815 191.061 82.0118C190.94 82.0441 190.822 82.0603 190.703 82.0603C190.114 82.0603 189.571 81.6668 189.407 81.0685ZM20.2998 81.0093C19.9958 80.3301 20.2998 79.5324 20.9749 79.2252C21.6527 78.9207 22.4488 79.2225 22.7528 79.9016C23.0567 80.5808 22.7528 81.3785 22.0777 81.683C21.9001 81.7638 21.7119 81.8043 21.5263 81.8043C21.0152 81.8043 20.523 81.5078 20.2998 81.0093ZM193.56 79.9232C193.358 79.2064 193.772 78.4626 194.485 78.2605C195.201 78.0556 195.946 78.4733 196.147 79.1902C196.349 79.9043 195.935 80.6508 195.219 80.853C195.098 80.888 194.975 80.9042 194.851 80.9042C194.264 80.9042 193.727 80.5161 193.56 79.9232ZM24.2375 79.263C23.9524 78.5758 24.2778 77.7861 24.9637 77.5005C25.6469 77.2175 26.435 77.5409 26.7201 78.2281C27.0052 78.9153 26.6798 79.7049 25.9939 79.9906C25.8271 80.0606 25.6523 80.093 25.4801 80.093C24.953 80.093 24.4527 79.7804 24.2375 79.263ZM197.699 78.7401C197.489 78.026 197.898 77.2768 198.611 77.0666C199.324 76.8591 200.072 77.266 200.279 77.9802C200.488 78.6943 200.082 79.4435 199.37 79.6537C199.243 79.6914 199.114 79.7076 198.988 79.7076C198.407 79.7076 197.871 79.3276 197.699 78.7401ZM28.221 77.6271C27.952 76.9346 28.2936 76.153 28.9875 75.8835C29.6788 75.6141 30.4588 75.959 30.7278 76.6516C30.9967 77.3442 30.6524 78.1257 29.9612 78.3952C29.7998 78.4572 29.6357 78.4868 29.4744 78.4868C28.9337 78.4868 28.4254 78.1607 28.221 77.6271ZM201.828 77.5167C201.61 76.8052 202.011 76.0533 202.721 75.835C203.431 75.6167 204.181 76.0183 204.399 76.7297C204.617 77.4412 204.216 78.1958 203.506 78.4114C203.375 78.4518 203.243 78.4707 203.114 78.4707C202.538 78.4707 202.005 78.0988 201.828 77.5167ZM205.943 76.2501C205.717 75.5413 206.11 74.7813 206.817 74.5577C207.525 74.3313 208.281 74.722 208.507 75.4335C208.73 76.1423 208.34 76.8995 207.632 77.1259C207.495 77.169 207.358 77.1879 207.223 77.1879C206.653 77.1879 206.123 76.8214 205.943 76.2501ZM32.2394 76.0803C31.9839 75.3823 32.3416 74.6089 33.0382 74.3528C33.7348 74.0968 34.5068 74.4552 34.7623 75.1559C35.0178 75.8539 34.6601 76.6273 33.9635 76.8834C33.8102 76.9399 33.6542 76.9669 33.5008 76.9669C32.9521 76.9669 32.4384 76.6273 32.2394 76.0803ZM210.042 74.9322C209.808 74.2262 210.19 73.4635 210.895 73.2291C211.6 72.9946 212.361 73.3773 212.595 74.0833C212.829 74.7894 212.447 75.5521 211.742 75.7865C211.602 75.835 211.46 75.8566 211.317 75.8566C210.755 75.8566 210.231 75.4982 210.042 74.9322ZM36.2847 74.6115C36.0399 73.9082 36.4111 73.1401 37.1131 72.8976C37.8151 72.6524 38.5817 73.0242 38.8265 73.7276C39.0685 74.431 38.7 75.1963 37.998 75.4416C37.8501 75.4928 37.7022 75.517 37.5542 75.517C36.9975 75.517 36.4783 75.1667 36.2847 74.6115ZM214.125 73.5632C213.881 72.8599 214.252 72.0918 214.954 71.8466C215.653 71.6013 216.42 71.9732 216.664 72.6766C216.909 73.38 216.538 74.148 215.836 74.3933C215.691 74.4445 215.543 74.4687 215.395 74.4687C214.838 74.4687 214.319 74.1184 214.125 73.5632ZM40.3542 73.2075C40.1202 72.5014 40.5021 71.7388 41.2095 71.5043C41.9142 71.2699 42.6754 71.6525 42.9094 72.3586C43.1408 73.0647 42.7588 73.8273 42.0541 74.0618C41.9142 74.1076 41.7717 74.1319 41.6318 74.1319C41.067 74.1319 40.5425 73.7734 40.3542 73.2075ZM218.187 72.1322C217.931 71.4343 218.289 70.6581 218.986 70.4021C219.682 70.1461 220.457 70.5045 220.712 71.2052C220.968 71.9032 220.61 72.6766 219.911 72.9326C219.76 72.9892 219.604 73.0162 219.448 73.0162C218.902 73.0162 218.386 72.6766 218.187 72.1322ZM44.4453 71.86C44.2193 71.1513 44.612 70.394 45.3194 70.1676C46.0268 69.944 46.7826 70.3374 47.0085 71.0462C47.2318 71.7549 46.8418 72.5122 46.1317 72.7386C45.9972 72.779 45.86 72.8006 45.7256 72.8006C45.1553 72.8006 44.6255 72.4341 44.4453 71.86ZM48.5497 70.5665C48.3346 69.855 48.7353 69.1005 49.4454 68.8822C50.1555 68.6666 50.9059 69.0681 51.1238 69.7796C51.339 70.491 50.9382 71.2456 50.2281 71.4612C50.099 71.5016 49.9645 71.5205 49.8354 71.5205C49.2598 71.5205 48.7273 71.1459 48.5497 70.5665ZM222.224 70.6312C221.955 69.9386 222.297 69.1571 222.991 68.8876C223.682 68.6181 224.462 68.963 224.731 69.6556C225 70.3482 224.655 71.1297 223.964 71.3992C223.806 71.4612 223.639 71.4908 223.477 71.4908C222.939 71.4908 222.431 71.1648 222.224 70.6312ZM52.6704 69.3161C52.4606 68.6046 52.8694 67.8554 53.5822 67.6452C54.295 67.435 55.0427 67.8446 55.2498 68.5588C55.4596 69.2729 55.0508 70.0221 54.338 70.2323C54.2116 70.2674 54.0852 70.2862 53.9587 70.2862C53.3778 70.2862 52.8425 69.9035 52.6704 69.3161ZM226.229 69.052C225.944 68.3648 226.269 67.5751 226.955 67.2895C227.641 67.0038 228.426 67.3299 228.712 68.0171C228.999 68.7043 228.674 69.4912 227.988 69.7769C227.819 69.8496 227.644 69.882 227.472 69.882C226.944 69.882 226.444 69.5694 226.229 69.052ZM56.8045 68.1114C56.6027 67.3973 57.0169 66.6508 57.7324 66.4487C58.4479 66.2466 59.1902 66.6643 59.3919 67.3784C59.5937 68.0953 59.1768 68.8391 58.464 69.0412C58.3403 69.0762 58.2165 69.0924 58.0955 69.0924C57.5092 69.0924 56.9712 68.707 56.8045 68.1114ZM230.196 67.3757C229.89 66.6966 230.196 65.8989 230.871 65.5917C231.549 65.2872 232.345 65.589 232.652 66.2681C232.956 66.9445 232.652 67.7422 231.977 68.0494C231.799 68.1303 231.611 68.168 231.425 68.168C230.914 68.168 230.422 67.8743 230.199 67.3757H230.196ZM234.11 65.5782C233.779 64.9126 234.051 64.1014 234.715 63.7699C235.382 63.4385 236.186 63.7106 236.52 64.3763C236.851 65.0446 236.579 65.8531 235.915 66.1846C235.721 66.2789 235.517 66.3247 235.315 66.3247C234.823 66.3247 234.346 66.0498 234.11 65.5782ZM237.951 63.6244C237.582 62.9749 237.811 62.1557 238.456 61.7892C239.105 61.42 239.925 61.649 240.291 62.2958C240.657 62.9453 240.428 63.7672 239.782 64.1338C239.573 64.2523 239.344 64.3089 239.121 64.3089C238.653 64.3089 238.198 64.061 237.951 63.6244ZM241.671 61.455C241.251 60.8406 241.41 59.9998 242.023 59.5821C242.636 59.1616 243.473 59.3206 243.892 59.9351C244.309 60.5495 244.153 61.3876 243.54 61.808H243.537C243.306 61.967 243.042 62.0425 242.781 62.0425C242.351 62.0425 241.929 61.8377 241.671 61.455ZM245.178 58.9541C244.667 58.4125 244.691 57.5609 245.232 57.0488C245.77 56.5368 246.622 56.5611 247.133 57.1027C247.642 57.6444 247.617 58.496 247.077 59.008C246.816 59.2533 246.482 59.3745 246.152 59.3745C245.794 59.3745 245.439 59.2344 245.175 58.9541H245.178ZM248.193 55.8658C247.505 55.5936 247.163 54.8094 247.435 54.1168C247.706 53.4242 248.489 53.0846 249.18 53.3568C249.871 53.6317 250.21 54.4132 249.939 55.1058C249.729 55.6367 249.223 55.9601 248.685 55.9601C248.521 55.9601 248.354 55.9278 248.193 55.8658ZM247.047 51.4434C246.579 50.8667 246.665 50.0178 247.241 49.5489C247.817 49.0773 248.664 49.1662 249.134 49.7429C249.602 50.3197 249.516 51.1686 248.941 51.6375C248.691 51.8423 248.389 51.9393 248.094 51.9393C247.701 51.9393 247.314 51.7695 247.047 51.4434ZM244.04 49.3872C243.362 49.0827 243.061 48.285 243.365 47.6059C243.669 46.9268 244.465 46.6249 245.143 46.9295C245.821 47.2367 246.122 48.0344 245.818 48.7135C245.595 49.2121 245.105 49.5085 244.592 49.5085C244.406 49.5085 244.218 49.4681 244.04 49.3872ZM240.18 48.064C239.462 47.8727 239.035 47.1343 239.226 46.4147C239.417 45.6952 240.154 45.2694 240.872 45.458C241.59 45.6494 242.018 46.3878 241.827 47.1073C241.665 47.711 241.122 48.1098 240.527 48.1098C240.412 48.1098 240.296 48.0937 240.18 48.064ZM236.087 47.1747C235.355 47.0453 234.868 46.3474 234.997 45.6143C235.126 44.8813 235.823 44.3909 236.555 44.5202C237.286 44.6496 237.776 45.3502 237.644 46.0833C237.531 46.7354 236.964 47.1963 236.321 47.1963C236.245 47.1963 236.167 47.1909 236.087 47.1747ZM179.159 45.8488C179.097 45.1077 179.646 44.4555 180.386 44.3909C181.125 44.3289 181.776 44.8813 181.838 45.6224C181.903 46.3635 181.351 47.0157 180.612 47.0777C180.574 47.0804 180.534 47.0831 180.496 47.0831C179.805 47.0831 179.218 46.5522 179.159 45.8488ZM183.447 45.4931C183.393 44.7493 183.947 44.1025 184.686 44.0459C185.426 43.9893 186.074 44.5472 186.131 45.2883C186.185 46.0321 185.631 46.6788 184.891 46.7327C184.856 46.7354 184.821 46.7381 184.786 46.7381C184.089 46.7381 183.5 46.1991 183.447 45.4931ZM231.902 46.5603C231.165 46.4713 230.64 45.7976 230.729 45.0592C230.818 44.3208 231.487 43.7953 232.224 43.8842C232.961 43.9732 233.488 44.6442 233.4 45.3826C233.316 46.0671 232.735 46.571 232.066 46.5683C232.012 46.5683 231.958 46.5657 231.902 46.5603ZM187.739 45.1724C187.691 44.4313 188.25 43.7899 188.993 43.7387C189.732 43.6902 190.372 44.2507 190.424 44.9945C190.472 45.7356 189.913 46.3797 189.17 46.4282C189.141 46.4309 189.111 46.4309 189.081 46.4309C188.379 46.4309 187.788 45.8865 187.739 45.1724ZM192.035 44.8948C191.992 44.151 192.559 43.515 193.302 43.4719C194.041 43.4315 194.679 44.0001 194.719 44.7412C194.762 45.485 194.195 46.121 193.452 46.1641H193.377C192.667 46.1641 192.075 45.6117 192.035 44.8948ZM227.671 46.1318C226.931 46.0725 226.38 45.4203 226.441 44.6792C226.501 43.9381 227.152 43.3857 227.891 43.4476C228.631 43.5069 229.182 44.1591 229.12 44.9002C229.064 45.6036 228.475 46.1372 227.784 46.1372C227.746 46.1372 227.708 46.1345 227.671 46.1318ZM196.333 44.6577C196.298 43.9139 196.871 43.2833 197.613 43.2509C198.356 43.2159 198.985 43.7899 199.017 44.5337C199.052 45.2775 198.479 45.9081 197.737 45.9404C197.715 45.9431 197.694 45.9431 197.672 45.9431C196.96 45.9431 196.365 45.3799 196.333 44.6577ZM223.416 45.8488C222.673 45.8084 222.106 45.1724 222.143 44.4313C222.184 43.6875 222.816 43.1162 223.558 43.1566C224.3 43.1943 224.868 43.8303 224.83 44.5741C224.793 45.291 224.198 45.8488 223.488 45.8488H223.416ZM200.631 44.469C200.604 43.7252 201.185 43.1 201.927 43.0757C202.67 43.0488 203.294 43.6309 203.318 44.3747C203.345 45.1185 202.764 45.7437 202.022 45.768H201.973C201.252 45.768 200.655 45.1966 200.631 44.469ZM219.147 45.6736C218.405 45.6521 217.821 45.0296 217.842 44.2885C217.864 43.542 218.483 42.9572 219.225 42.9787C219.967 43.0003 220.554 43.6228 220.532 44.3666C220.511 45.0969 219.911 45.6736 219.187 45.6736H219.147ZM204.932 44.3289C204.916 43.5851 205.505 42.9706 206.247 42.9545C206.99 42.9383 207.605 43.5285 207.622 44.2723C207.638 45.0161 207.049 45.6305 206.306 45.6467H206.274C205.545 45.6467 204.948 45.0646 204.932 44.3289ZM214.87 45.5901C214.128 45.5847 213.531 44.9757 213.539 44.2319C213.547 43.4881 214.152 42.8898 214.897 42.8952C215.64 42.9033 216.234 43.5123 216.229 44.2561C216.221 44.9972 215.621 45.5901 214.884 45.5901H214.87ZM209.235 44.248C209.23 43.5042 209.827 42.8952 210.569 42.8925C211.312 42.8871 211.917 43.4854 211.922 44.2292C211.928 44.973 211.328 45.582 210.586 45.5847H210.575C209.838 45.5847 209.238 44.9891 209.233 44.248H209.235Z" fill="url(#paint0_linear_1233_2514)"/>
<path d="M65.7236 198.575C65.6618 197.833 66.2105 197.181 66.9501 197.117C67.6898 197.055 68.3407 197.602 68.4053 198.346C68.4698 199.087 67.9211 199.739 67.1787 199.803C67.1411 199.803 67.1008 199.803 67.0631 199.803C66.3718 199.803 65.7855 199.275 65.7236 198.572V198.575ZM62.3991 197.542C61.8908 196.998 61.9204 196.144 62.4637 195.637C63.007 195.128 63.857 195.157 64.3653 195.702C64.871 196.246 64.8441 197.098 64.3008 197.607C64.0399 197.85 63.7117 197.968 63.3836 197.968C63.0232 197.968 62.6627 197.825 62.3991 197.542ZM69.8523 197.448C69.3117 196.936 69.2848 196.084 69.7958 195.543C70.3042 195.001 71.1568 194.974 71.6975 195.486C72.2381 195.996 72.2623 196.85 71.7539 197.391H71.7513C71.4877 197.672 71.1299 197.815 70.7722 197.815C70.4414 197.815 70.1105 197.693 69.8523 197.448ZM59.5776 194.069C59.1392 193.465 59.2737 192.624 59.8762 192.188C60.476 191.751 61.3179 191.883 61.7536 192.487C62.1894 193.09 62.0576 193.931 61.4551 194.368C61.2157 194.543 60.9413 194.627 60.667 194.627C60.2501 194.627 59.8385 194.432 59.5776 194.069ZM72.4963 194.053C71.7997 193.797 71.4419 193.023 71.6975 192.325C71.953 191.624 72.7249 191.266 73.4242 191.522C74.1209 191.778 74.4786 192.551 74.2231 193.252C74.0241 193.796 73.5103 194.136 72.9616 194.136C72.8056 194.136 72.6496 194.109 72.4963 194.053ZM57.1327 190.401C56.74 189.77 56.9337 188.94 57.5631 188.547C58.1951 188.153 59.0236 188.347 59.4163 188.978C59.809 189.611 59.6153 190.441 58.9832 190.835C58.7627 190.972 58.5179 191.037 58.2758 191.037C57.8266 191.037 57.3855 190.813 57.1327 190.401ZM73.704 189.916C72.9643 189.916 72.3618 189.312 72.3618 188.566C72.3618 187.822 72.9643 187.221 73.7094 187.221C74.4517 187.221 75.0515 187.825 75.0515 188.568C75.0515 189.312 74.449 189.916 73.7067 189.916H73.704ZM54.911 186.639C54.5452 185.989 54.7738 185.167 55.4221 184.801C56.0676 184.437 56.8879 184.663 57.2537 185.313C57.6195 185.96 57.3909 186.782 56.7454 187.148C56.5356 187.267 56.3097 187.323 56.0837 187.323C55.6157 187.323 55.1585 187.075 54.911 186.639ZM72.0229 184.461C71.918 183.723 72.4264 183.041 73.1633 182.936C73.8976 182.831 74.5808 183.343 74.6857 184.079C74.7906 184.814 74.2796 185.499 73.5453 185.604C73.4807 185.612 73.4162 185.617 73.3516 185.617C72.6926 185.617 72.1197 185.132 72.0229 184.461ZM156.326 184.903C155.608 184.72 155.175 183.984 155.358 183.265C155.541 182.543 156.275 182.109 156.993 182.292C157.714 182.478 158.147 183.211 157.964 183.933C157.808 184.54 157.262 184.946 156.663 184.946C156.552 184.946 156.439 184.933 156.326 184.903ZM159.659 183.618C159.204 183.03 159.315 182.184 159.904 181.729C160.49 181.273 161.335 181.384 161.789 181.971C162.244 182.561 162.133 183.408 161.547 183.86C161.302 184.052 161.012 184.143 160.724 184.143C160.323 184.143 159.925 183.963 159.659 183.618ZM52.8265 182.826C52.4768 182.171 52.7243 181.354 53.3806 181.004C54.0342 180.651 54.8491 180.899 55.1988 181.556C55.5485 182.211 55.301 183.03 54.6474 183.381C54.4457 183.488 54.2278 183.54 54.0153 183.54C53.5339 183.54 53.0686 183.281 52.8265 182.826ZM152.074 182.551C151.504 182.074 151.426 181.225 151.899 180.653C152.375 180.079 153.222 180.001 153.793 180.476C154.363 180.953 154.444 181.801 153.967 182.373C153.701 182.693 153.319 182.861 152.932 182.861C152.631 182.861 152.327 182.758 152.074 182.551ZM71.2725 180.3C71.1192 179.573 71.5845 178.859 72.3107 178.702C73.0369 178.549 73.7497 179.015 73.9057 179.743C74.059 180.47 73.5937 181.187 72.8675 181.341C72.7733 181.359 72.6792 181.37 72.5878 181.37C71.9637 181.37 71.407 180.934 71.2725 180.3ZM162.663 180.556C161.98 180.265 161.66 179.476 161.951 178.791C162.241 178.104 163.032 177.786 163.715 178.077C164.398 178.368 164.718 179.16 164.425 179.845C164.21 180.357 163.712 180.664 163.188 180.664C163.013 180.664 162.835 180.629 162.663 180.556ZM148.889 179.303C148.413 178.729 148.491 177.88 149.061 177.403C149.632 176.926 150.482 177.005 150.955 177.576C151.431 178.147 151.356 178.996 150.786 179.473C150.533 179.683 150.229 179.786 149.925 179.786C149.54 179.786 149.156 179.621 148.889 179.303ZM50.8146 178.993C50.4703 178.336 50.7258 177.522 51.3848 177.177C52.0411 176.832 52.8534 177.088 53.1977 177.748C53.542 178.409 53.2864 179.222 52.6274 179.565C52.4284 179.67 52.2159 179.718 52.0061 179.718C51.522 179.718 51.054 179.454 50.8146 178.993ZM70.3042 176.15C70.1213 175.428 70.557 174.695 71.2779 174.512C71.996 174.328 72.7276 174.765 72.9105 175.487C73.0934 176.207 72.6577 176.943 71.9395 177.123C71.8266 177.153 71.7163 177.166 71.606 177.166C71.0062 177.166 70.4575 176.759 70.3042 176.15ZM164.126 176.503C163.392 176.379 162.9 175.684 163.024 174.951C163.147 174.215 163.841 173.722 164.573 173.846C165.305 173.97 165.799 174.665 165.676 175.398C165.565 176.056 164.995 176.522 164.35 176.522C164.277 176.522 164.202 176.517 164.126 176.503ZM146.235 175.741C145.815 175.126 145.976 174.285 146.59 173.868C147.203 173.45 148.039 173.609 148.459 174.226C148.876 174.841 148.717 175.679 148.101 176.096C147.87 176.255 147.606 176.331 147.348 176.331C146.918 176.331 146.493 176.123 146.235 175.741ZM48.8215 175.172C48.4772 174.514 48.7301 173.701 49.3864 173.353C50.0453 173.008 50.8576 173.261 51.2019 173.919C51.5462 174.579 51.2934 175.393 50.6344 175.741C50.4353 175.843 50.2229 175.894 50.0104 175.894C49.5262 175.894 49.0609 175.633 48.8188 175.172H48.8215ZM69.1934 172.019C68.9889 171.302 69.4031 170.558 70.1186 170.354C70.8341 170.151 71.5764 170.566 71.7808 171.283C71.9826 171.997 71.5684 172.744 70.8529 172.946C70.7319 172.981 70.6054 172.997 70.4844 172.997C69.898 172.997 69.3601 172.612 69.1934 172.019ZM143.886 172.022C143.507 171.38 143.717 170.556 144.357 170.176C144.997 169.796 145.823 170.009 146.2 170.647C146.579 171.289 146.369 172.113 145.729 172.493C145.514 172.623 145.277 172.682 145.046 172.682C144.586 172.682 144.137 172.445 143.886 172.022ZM164.726 172.235C163.987 172.189 163.422 171.55 163.465 170.809C163.511 170.065 164.145 169.499 164.888 169.542C165.63 169.588 166.195 170.227 166.149 170.971C166.106 171.685 165.514 172.237 164.81 172.237C164.783 172.237 164.753 172.237 164.726 172.235ZM46.8015 171.386C46.4465 170.733 46.6859 169.917 47.3368 169.559C47.9877 169.2 48.8054 169.44 49.1604 170.092C49.5155 170.747 49.2761 171.566 48.6252 171.922C48.4207 172.035 48.2002 172.089 47.9796 172.089C47.5063 172.089 47.0436 171.836 46.7989 171.386H46.8015ZM141.745 168.206C141.396 167.551 141.643 166.734 142.297 166.381C142.953 166.031 143.768 166.279 144.118 166.934C144.467 167.591 144.22 168.408 143.566 168.758C143.365 168.866 143.147 168.917 142.934 168.917C142.453 168.917 141.988 168.661 141.745 168.206ZM67.9776 167.909C67.7597 167.198 68.1605 166.443 68.8679 166.225C69.578 166.007 70.3311 166.405 70.549 167.117C70.7668 167.828 70.3687 168.583 69.6587 168.801C69.5269 168.842 69.3951 168.861 69.2633 168.861C68.6877 168.861 68.1551 168.489 67.9776 167.909ZM44.6982 167.677C44.319 167.036 44.5287 166.211 45.1662 165.831C45.8064 165.449 46.6294 165.659 47.0113 166.3C47.3906 166.939 47.1808 167.766 46.5406 168.146C46.3255 168.276 46.0888 168.335 45.8548 168.335C45.3975 168.335 44.951 168.101 44.6982 167.677ZM163.58 166.581C163.58 165.837 164.18 165.233 164.923 165.233C165.665 165.23 166.267 165.834 166.27 166.578C166.27 167.322 165.668 167.925 164.925 167.928C164.183 167.928 163.58 167.324 163.58 166.581ZM139.758 164.328C139.427 163.659 139.701 162.851 140.366 162.522C141.033 162.193 141.84 162.466 142.168 163.134C142.499 163.799 142.224 164.608 141.56 164.937C141.366 165.034 141.164 165.077 140.963 165.077C140.468 165.077 139.992 164.802 139.758 164.328ZM66.6838 163.816C66.4525 163.107 66.8372 162.347 67.5445 162.115C68.2493 161.886 69.0078 162.271 69.2391 162.978C69.4704 163.686 69.0858 164.446 68.3784 164.678C68.2412 164.724 68.0986 164.745 67.9615 164.745C67.3939 164.745 66.8694 164.384 66.6838 163.816ZM42.4362 164.112C42.0139 163.5 42.1699 162.66 42.7804 162.239C43.391 161.816 44.2302 161.97 44.6525 162.584C45.0721 163.196 44.9188 164.034 44.3082 164.457C44.0742 164.619 43.8079 164.694 43.5443 164.694C43.1167 164.694 42.6971 164.492 42.4362 164.112ZM163.484 162.32C163.454 161.576 164.03 160.948 164.772 160.919C165.514 160.889 166.141 161.466 166.173 162.21C166.203 162.953 165.625 163.581 164.882 163.611C164.863 163.611 164.847 163.614 164.828 163.614C164.11 163.611 163.513 163.045 163.484 162.32ZM39.9025 160.849C39.4049 160.296 39.4479 159.445 39.9993 158.946C40.5507 158.447 41.4006 158.491 41.8982 159.043C42.3958 159.593 42.3528 160.444 41.8041 160.946C41.5459 161.177 41.2231 161.293 40.9003 161.293C40.5345 161.293 40.1687 161.142 39.9025 160.849ZM137.883 160.399C137.571 159.725 137.867 158.924 138.539 158.612C139.214 158.299 140.013 158.593 140.325 159.267C140.637 159.943 140.344 160.743 139.669 161.056C139.486 161.142 139.295 161.18 139.107 161.18C138.598 161.18 138.112 160.892 137.883 160.399ZM65.3202 159.741C65.0781 159.038 65.452 158.27 66.154 158.027C66.856 157.787 67.6226 158.162 67.8619 158.865C68.104 159.568 67.7301 160.334 67.0281 160.576C66.8829 160.628 66.7376 160.652 66.5924 160.652C66.0329 160.652 65.5111 160.299 65.3202 159.741ZM163.244 158.049C163.19 157.305 163.75 156.661 164.49 156.609C165.232 156.556 165.875 157.116 165.926 157.857C165.98 158.601 165.42 159.245 164.681 159.296C164.648 159.299 164.616 159.302 164.584 159.302C163.884 159.302 163.293 158.757 163.244 158.049ZM36.8981 158.119C36.3117 157.666 36.1987 156.82 36.6506 156.229C37.1052 155.639 37.9497 155.529 38.5388 155.982C39.1278 156.434 39.2381 157.281 38.7862 157.871C38.5199 158.216 38.1219 158.399 37.7184 158.399C37.4333 158.399 37.1428 158.307 36.8981 158.119ZM136.105 156.437C135.807 155.755 136.116 154.96 136.796 154.661C137.477 154.362 138.27 154.675 138.569 155.356C138.867 156.038 138.555 156.83 137.875 157.13C137.7 157.208 137.517 157.243 137.337 157.243C136.821 157.243 136.326 156.941 136.105 156.437ZM63.8919 155.688C63.6391 154.987 64.0022 154.214 64.6988 153.96C65.3982 153.707 66.1701 154.071 66.4229 154.769C66.6731 155.47 66.3127 156.243 65.616 156.494C65.4627 156.55 65.3094 156.574 65.1561 156.574C64.6074 156.574 64.091 156.235 63.8919 155.688ZM33.4579 155.739C32.8285 155.34 32.6429 154.507 33.0383 153.88C33.4364 153.249 34.2648 153.063 34.8942 153.459C35.5209 153.858 35.7092 154.691 35.3138 155.319C35.0556 155.726 34.6199 155.947 34.1734 155.947C33.9286 155.947 33.6812 155.879 33.4579 155.739ZM162.892 153.774C162.822 153.033 163.368 152.376 164.105 152.308C164.845 152.238 165.501 152.783 165.568 153.524C165.635 154.265 165.092 154.922 164.352 154.993C164.309 154.995 164.269 154.998 164.226 154.998C163.54 154.998 162.954 154.472 162.889 153.774H162.892ZM29.8134 153.564C29.1652 153.198 28.9392 152.376 29.305 151.729C29.6708 151.082 30.4912 150.853 31.1367 151.22C31.7822 151.586 32.0109 152.408 31.6451 153.058C31.3976 153.494 30.943 153.739 30.4723 153.739C30.2491 153.739 30.0205 153.683 29.8134 153.564ZM134.403 152.443C134.115 151.759 134.44 150.969 135.126 150.681C135.812 150.395 136.597 150.721 136.885 151.406C137.17 152.093 136.847 152.882 136.162 153.168C135.992 153.241 135.817 153.273 135.645 153.273C135.118 153.273 134.618 152.961 134.403 152.443ZM65.6322 152.459C65.1453 151.896 65.2072 151.047 65.7693 150.559C66.3288 150.072 67.1788 150.134 67.6656 150.694C68.1524 151.257 68.0906 152.109 67.5311 152.597C67.2756 152.818 66.9609 152.926 66.6489 152.926C66.2723 152.926 65.8985 152.767 65.6322 152.459ZM26.0639 151.508C25.4103 151.158 25.1602 150.344 25.5098 149.686C25.8595 149.029 26.6745 148.781 27.3308 149.131C27.9844 149.481 28.2345 150.298 27.8822 150.956C27.6401 151.408 27.1775 151.667 26.696 151.667C26.4835 151.667 26.2657 151.616 26.0639 151.508ZM162.453 149.503C162.373 148.765 162.903 148.096 163.642 148.015C164.379 147.932 165.046 148.465 165.127 149.204C165.21 149.945 164.678 150.611 163.938 150.691C163.89 150.7 163.839 150.702 163.788 150.702C163.112 150.702 162.531 150.193 162.453 149.503ZM68.8867 149.635C68.3999 149.075 68.4591 148.223 69.0212 147.735C69.5834 147.247 70.4333 147.309 70.9174 147.873C71.4043 148.436 71.3451 149.285 70.783 149.773C70.5274 149.993 70.2154 150.101 69.9034 150.101C69.5269 150.101 69.1503 149.945 68.8867 149.635ZM22.2661 149.508C21.6071 149.163 21.3516 148.35 21.6958 147.689C22.0374 147.029 22.8497 146.773 23.5087 147.118C24.1677 147.463 24.4232 148.277 24.0789 148.937C23.8395 149.398 23.3715 149.659 22.8847 149.659C22.6776 149.659 22.4651 149.611 22.2661 149.508ZM132.767 148.433C132.49 147.741 132.826 146.956 133.515 146.681C134.206 146.404 134.989 146.741 135.263 147.431C135.54 148.121 135.204 148.905 134.516 149.182C134.351 149.247 134.182 149.279 134.015 149.279C133.483 149.279 132.977 148.959 132.767 148.433ZM18.4413 147.506C17.785 147.158 17.5322 146.345 17.8792 145.687C18.2234 145.027 19.0357 144.773 19.6947 145.121C20.351 145.469 20.6038 146.283 20.2595 146.94C20.0175 147.398 19.5495 147.66 19.068 147.66C18.8555 147.66 18.6403 147.611 18.4413 147.506ZM72.1386 146.813C71.6517 146.25 71.7136 145.399 72.2757 144.914C72.8352 144.426 73.6852 144.488 74.172 145.048C74.6588 145.612 74.597 146.463 74.0348 146.951C73.782 147.169 73.4673 147.28 73.1553 147.28C72.7787 147.28 72.4049 147.121 72.1386 146.813ZM161.948 145.234C161.856 144.496 162.378 143.822 163.115 143.731C163.852 143.636 164.525 144.159 164.619 144.897C164.71 145.636 164.188 146.31 163.451 146.404C163.395 146.409 163.338 146.415 163.282 146.415C162.612 146.415 162.034 145.916 161.951 145.234H161.948ZM14.6246 145.458C13.9737 145.102 13.7343 144.283 14.092 143.628C14.4471 142.976 15.2648 142.736 15.9184 143.095C16.5693 143.453 16.806 144.272 16.4509 144.924C16.2062 145.372 15.7462 145.625 15.2701 145.625C15.0523 145.625 14.829 145.571 14.6246 145.458ZM131.186 144.393C130.919 143.698 131.264 142.919 131.958 142.653C132.649 142.383 133.429 142.731 133.695 143.423C133.961 144.119 133.617 144.9 132.923 145.167C132.765 145.229 132.6 145.256 132.442 145.256C131.901 145.256 131.39 144.93 131.186 144.393ZM75.3904 143.989C74.9063 143.426 74.9655 142.577 75.5276 142.089C76.0898 141.602 76.937 141.664 77.4238 142.227C77.9107 142.787 77.8488 143.639 77.2867 144.127C77.0338 144.348 76.7191 144.455 76.4071 144.455C76.0306 144.455 75.6567 144.296 75.3904 143.989ZM10.8402 143.307C10.2 142.93 9.98756 142.105 10.3668 141.464C10.7434 140.823 11.5691 140.61 12.2093 140.99C12.8467 141.367 13.0592 142.192 12.6826 142.833C12.4325 143.259 11.9833 143.496 11.5234 143.496C11.2894 143.496 11.0554 143.437 10.8402 143.307ZM161.38 140.971C161.278 140.235 161.792 139.553 162.526 139.451C163.263 139.349 163.941 139.863 164.046 140.599C164.148 141.337 163.634 142.019 162.897 142.122C162.835 142.13 162.774 142.132 162.712 142.132C162.05 142.132 161.474 141.647 161.38 140.971ZM78.645 141.168C78.1581 140.604 78.2173 139.753 78.7795 139.265C79.3416 138.78 80.1916 138.839 80.6784 139.402C81.1625 139.966 81.1034 140.817 80.5412 141.302C80.2857 141.523 79.9737 141.631 79.6617 141.631C79.2851 141.631 78.9112 141.475 78.645 141.168ZM129.655 140.34C129.394 139.642 129.749 138.866 130.446 138.608C131.143 138.349 131.917 138.705 132.175 139.4C132.436 140.098 132.081 140.874 131.385 141.133C131.229 141.192 131.07 141.219 130.914 141.219C130.371 141.219 129.857 140.882 129.655 140.34ZM7.12571 140.982C6.50708 140.569 6.34301 139.731 6.75453 139.114C7.16606 138.494 8.00256 138.327 8.6185 138.74C9.23713 139.155 9.40389 139.99 8.99237 140.61C8.73147 140.998 8.30649 141.208 7.87076 141.208C7.61524 141.208 7.35434 141.135 7.12571 140.982ZM81.8968 138.343C81.41 137.78 81.4718 136.931 82.034 136.443C82.5935 135.956 83.4434 136.018 83.9302 136.581C84.4171 137.141 84.3552 137.993 83.7931 138.481C83.5402 138.702 83.2255 138.81 82.9135 138.81C82.537 138.81 82.1631 138.651 81.8968 138.343ZM3.5484 138.362C2.97281 137.893 2.88405 137.044 3.35475 136.468C3.82275 135.888 4.67001 135.802 5.24561 136.271C5.82121 136.74 5.90997 137.589 5.44196 138.166C5.17568 138.494 4.78836 138.664 4.39566 138.664C4.09979 138.664 3.79855 138.564 3.5484 138.362ZM160.764 136.713C160.654 135.977 161.16 135.29 161.894 135.18C162.628 135.069 163.314 135.576 163.424 136.311C163.535 137.047 163.029 137.734 162.295 137.845C162.228 137.856 162.16 137.861 162.093 137.861C161.439 137.861 160.864 137.381 160.764 136.713ZM128.168 136.271C127.918 135.57 128.281 134.8 128.977 134.546C129.677 134.296 130.449 134.659 130.699 135.357C130.952 136.058 130.589 136.832 129.889 137.082C129.739 137.136 129.585 137.163 129.435 137.163C128.883 137.163 128.367 136.821 128.168 136.271ZM85.1487 135.522C84.6645 134.959 84.7237 134.107 85.2859 133.619C85.848 133.134 86.6979 133.193 87.1821 133.757C87.6689 134.32 87.6097 135.169 87.0476 135.657C86.7921 135.878 86.4801 135.985 86.1681 135.985C85.7915 135.985 85.415 135.829 85.1487 135.522ZM0.178204 134.897C-0.163388 134.236 0.0948233 133.425 0.753801 133.083C1.41278 132.741 2.22507 132.999 2.56666 133.66C2.90825 134.32 2.65004 135.134 1.98838 135.476C1.79203 135.578 1.57954 135.627 1.37243 135.627C0.885597 135.627 0.414898 135.36 0.175514 134.897H0.178204ZM45.099 134.716C44.7654 134.05 45.0317 133.239 45.6961 132.905C46.3577 132.571 47.1674 132.838 47.5009 133.501C47.8371 134.166 47.5681 134.977 46.9064 135.312C46.7128 135.411 46.5057 135.457 46.3013 135.457C45.8117 135.457 45.3357 135.185 45.099 134.716ZM41.7368 134.743C41.0375 134.495 40.669 133.727 40.9165 133.024C41.1639 132.323 41.9305 131.954 42.6325 132.202C43.3345 132.45 43.7003 133.22 43.4529 133.921C43.2592 134.474 42.7401 134.821 42.186 134.821C42.0381 134.821 41.8848 134.794 41.7368 134.743ZM160.105 132.458C159.987 131.725 160.487 131.032 161.222 130.916C161.956 130.798 162.644 131.299 162.763 132.035C162.878 132.768 162.378 133.458 161.647 133.576C161.574 133.587 161.504 133.595 161.431 133.595C160.783 133.595 160.21 133.121 160.105 132.458ZM37.6808 133.344C36.9761 133.107 36.5968 132.345 36.8335 131.638C37.0702 130.932 37.8341 130.552 38.5361 130.79C39.2408 131.027 39.62 131.789 39.3833 132.495C39.1951 133.059 38.6706 133.414 38.1084 133.414C37.9686 133.414 37.8233 133.393 37.6808 133.344ZM88.4032 132.698C87.9164 132.134 87.9782 131.285 88.5404 130.798C89.0999 130.31 89.9498 130.372 90.4366 130.932C90.9208 131.496 90.8616 132.347 90.2995 132.835C90.0466 133.056 89.7319 133.164 89.4199 133.164C89.0434 133.164 88.6695 133.005 88.4032 132.698ZM126.723 132.191C126.479 131.488 126.847 130.72 127.549 130.474C128.251 130.226 129.018 130.598 129.263 131.302C129.507 132.002 129.139 132.77 128.437 133.018C128.289 133.069 128.141 133.094 127.993 133.094C127.436 133.094 126.917 132.746 126.723 132.191ZM48.3643 132.01C47.8021 131.525 47.7429 130.674 48.2298 130.11C48.7166 129.547 49.5639 129.488 50.126 129.976C50.6882 130.461 50.7473 131.312 50.2632 131.876C49.9969 132.183 49.623 132.339 49.2465 132.339C48.9345 132.339 48.6198 132.231 48.3643 132.01ZM33.6059 132.01C32.8985 131.784 32.5058 131.027 32.7317 130.318C32.9549 129.609 33.7134 129.216 34.4208 129.442C35.1282 129.666 35.5182 130.423 35.295 131.135C35.1121 131.709 34.5849 132.072 34.0147 132.072C33.8775 132.072 33.7403 132.053 33.6059 132.01ZM1.0147 131.326C0.371863 130.954 0.153997 130.129 0.525176 129.485C0.899045 128.841 1.7194 128.623 2.36224 128.995C3.00508 129.367 3.22564 130.191 2.85177 130.835C2.60432 131.267 2.15245 131.509 1.68982 131.509C1.4585 131.509 1.22719 131.45 1.0147 131.326ZM29.5121 130.749C28.7994 130.536 28.3932 129.787 28.6057 129.073C28.8155 128.361 29.5632 127.955 30.276 128.165C30.9888 128.378 31.3949 129.127 31.1824 129.841C31.0103 130.426 30.475 130.806 29.8941 130.806C29.7676 130.806 29.6385 130.787 29.5121 130.749ZM91.6551 129.873C91.1682 129.313 91.2301 128.461 91.7922 127.973C92.3544 127.486 93.2017 127.548 93.6885 128.111C94.1753 128.674 94.1135 129.523 93.554 130.011C93.2985 130.232 92.9865 130.34 92.6745 130.34C92.2952 130.34 91.9213 130.183 91.6551 129.873ZM25.3969 129.58C24.6814 129.386 24.2564 128.644 24.4501 127.925C24.6438 127.208 25.3834 126.782 26.1016 126.976C26.8197 127.17 27.2447 127.911 27.051 128.628C26.887 129.229 26.3437 129.625 25.7519 129.625C25.6363 129.625 25.5179 129.609 25.3996 129.58H25.3969ZM159.409 128.202C159.288 127.469 159.78 126.774 160.514 126.65C161.246 126.526 161.94 127.022 162.063 127.755H162.061C162.184 128.488 161.692 129.183 160.961 129.307C160.885 129.321 160.81 129.326 160.735 129.326C160.089 129.326 159.522 128.86 159.411 128.202H159.409ZM51.1831 128.752C50.6209 128.264 50.5591 127.413 51.0459 126.852C51.5327 126.289 52.3827 126.227 52.9448 126.715C53.5043 127.203 53.5662 128.054 53.0793 128.615C52.813 128.925 52.4392 129.081 52.0626 129.081C51.7506 129.081 51.4359 128.973 51.1831 128.752ZM125.317 128.095C125.077 127.391 125.454 126.626 126.156 126.386C126.861 126.146 127.624 126.524 127.861 127.23C128.101 127.933 127.724 128.698 127.022 128.938C126.879 128.987 126.734 129.011 126.589 129.011C126.03 129.011 125.505 128.655 125.317 128.095ZM3.61027 127.901C3.23909 127.254 3.46233 126.432 4.10517 126.06C4.7507 125.688 5.57106 125.912 5.94224 126.556C6.31073 127.2 6.09018 128.025 5.44734 128.397C5.23485 128.518 5.00622 128.574 4.7776 128.574C4.31228 128.574 3.85772 128.332 3.61027 127.901ZM21.2682 128.529C20.5473 128.356 20.0982 127.631 20.2676 126.906C20.4398 126.184 21.1633 125.734 21.8868 125.904C22.6077 126.076 23.0568 126.801 22.8874 127.523C22.7421 128.146 22.1881 128.564 21.5775 128.564C21.478 128.564 21.3731 128.553 21.2709 128.529H21.2682ZM17.118 127.65C16.3864 127.515 15.9022 126.812 16.0367 126.082C16.1712 125.349 16.8705 124.863 17.6021 124.998C18.3337 125.133 18.8179 125.834 18.6834 126.567C18.5623 127.216 17.9975 127.672 17.3627 127.672C17.282 127.672 17.1987 127.663 17.118 127.65ZM94.9096 127.052C94.4228 126.489 94.4819 125.637 95.0441 125.152C95.6062 124.664 96.4562 124.726 96.9403 125.287C97.4272 125.85 97.368 126.701 96.8059 127.189C96.5503 127.41 96.2383 127.518 95.9263 127.518C95.5498 127.518 95.1732 127.359 94.9096 127.052ZM7.47537 125.985C7.35165 125.252 7.84386 124.556 8.57546 124.432C9.30975 124.308 10.0037 124.801 10.1274 125.535C10.2511 126.27 9.75624 126.966 9.02464 127.087C8.94933 127.1 8.87402 127.108 8.79871 127.108C8.15587 127.108 7.58565 126.642 7.47537 125.985ZM12.9731 127.06C12.2335 126.992 11.6901 126.338 11.7547 125.596C11.8219 124.855 12.4755 124.308 13.2152 124.376C13.9549 124.443 14.5009 125.095 14.4336 125.839C14.3718 126.537 13.7854 127.065 13.0969 127.065C13.0565 127.065 13.0162 127.063 12.9731 127.06ZM53.9992 125.494C53.4397 125.006 53.3779 124.155 53.8647 123.591C54.3515 123.031 55.1988 122.969 55.761 123.457C56.3231 123.945 56.385 124.793 55.8981 125.357C55.6319 125.664 55.258 125.823 54.8814 125.823C54.5694 125.823 54.2547 125.712 53.9992 125.494ZM158.677 123.958C158.548 123.228 159.038 122.527 159.769 122.398C160.501 122.268 161.197 122.759 161.326 123.492C161.456 124.225 160.966 124.923 160.234 125.052C160.156 125.066 160.078 125.074 160 125.074C159.36 125.074 158.793 124.613 158.677 123.958ZM123.942 123.99C123.708 123.282 124.093 122.522 124.798 122.287C125.502 122.053 126.264 122.438 126.498 123.144C126.729 123.85 126.347 124.613 125.642 124.845C125.502 124.893 125.36 124.915 125.22 124.915C124.655 124.915 124.131 124.556 123.942 123.99ZM98.1615 124.227C97.6746 123.667 97.7365 122.815 98.2986 122.328C98.8581 121.84 99.708 121.902 100.195 122.465C100.682 123.028 100.62 123.877 100.058 124.365C99.8049 124.586 99.4902 124.694 99.1782 124.694C98.8016 124.694 98.4277 124.537 98.1615 124.227ZM56.818 122.233C56.2559 121.745 56.1967 120.894 56.6808 120.333C57.1677 119.77 58.0176 119.708 58.5798 120.196C59.1419 120.684 59.2011 121.535 58.7142 122.099C58.448 122.406 58.0741 122.562 57.6975 122.562C57.3855 122.562 57.0735 122.454 56.818 122.233ZM101.416 121.406C100.929 120.843 100.988 119.991 101.55 119.503C102.113 119.018 102.96 119.078 103.447 119.641C103.934 120.204 103.872 121.056 103.312 121.543C103.057 121.762 102.745 121.872 102.433 121.872C102.056 121.869 101.68 121.713 101.416 121.406ZM157.916 119.719C157.781 118.986 158.266 118.285 158.997 118.15C159.726 118.016 160.428 118.501 160.563 119.234C160.694 119.964 160.213 120.668 159.481 120.802C159.401 120.816 159.317 120.824 159.237 120.824C158.602 120.824 158.034 120.368 157.916 119.719ZM122.603 119.873C122.374 119.164 122.764 118.404 123.472 118.177C124.179 117.948 124.935 118.339 125.163 119.048C125.392 119.757 125.002 120.514 124.295 120.743C124.157 120.786 124.02 120.808 123.883 120.808C123.316 120.808 122.786 120.444 122.603 119.873ZM59.6368 118.975C59.0747 118.487 59.0128 117.636 59.4996 117.073C59.9865 116.512 60.8364 116.45 61.3959 116.938C61.958 117.426 62.0199 118.277 61.5331 118.838C61.2668 119.145 60.8929 119.304 60.5164 119.304C60.2043 119.304 59.8897 119.196 59.6368 118.975ZM104.668 118.582C104.181 118.021 104.24 117.17 104.802 116.682C105.364 116.194 106.214 116.256 106.701 116.819C107.188 117.38 107.126 118.231 106.564 118.719C106.311 118.94 105.997 119.048 105.685 119.048C105.308 119.048 104.934 118.892 104.668 118.582ZM121.296 115.747C121.072 115.035 121.468 114.281 122.178 114.057C122.885 113.833 123.641 114.229 123.862 114.941C124.085 115.65 123.689 116.407 122.982 116.628C122.848 116.671 122.71 116.69 122.579 116.69C122.006 116.69 121.476 116.321 121.296 115.747ZM157.128 115.483C156.988 114.752 157.467 114.046 158.196 113.909C158.927 113.769 159.632 114.248 159.769 114.979C159.906 115.712 159.428 116.415 158.699 116.555C158.615 116.571 158.529 116.579 158.446 116.579C157.814 116.579 157.249 116.129 157.128 115.483ZM107.92 115.76C107.436 115.197 107.495 114.345 108.057 113.857C108.616 113.372 109.466 113.432 109.953 113.995C110.44 114.558 110.378 115.407 109.816 115.895C109.563 116.116 109.248 116.224 108.936 116.224C108.56 116.224 108.186 116.067 107.92 115.76ZM62.4529 115.714C61.8908 115.227 61.8316 114.378 62.3185 113.814C62.8026 113.251 63.6525 113.192 64.2147 113.68C64.7768 114.165 64.836 115.016 64.3492 115.58C64.0856 115.887 63.709 116.043 63.3325 116.043C63.0205 116.043 62.7085 115.935 62.4529 115.714ZM111.172 112.936C110.687 112.373 110.747 111.524 111.309 111.036C111.871 110.548 112.721 110.61 113.205 111.171C113.692 111.734 113.633 112.585 113.07 113.073C112.815 113.294 112.503 113.402 112.191 113.402C111.814 113.402 111.438 113.243 111.172 112.936ZM65.2718 112.456C64.7096 111.968 64.6477 111.117 65.1346 110.556C65.6214 109.993 66.4714 109.931 67.0308 110.419C67.593 110.907 67.6548 111.758 67.168 112.319C66.9017 112.626 66.5278 112.785 66.1513 112.785C65.8393 112.785 65.5246 112.677 65.2718 112.456ZM120.021 111.607C119.806 110.896 120.206 110.141 120.916 109.926C121.629 109.71 122.38 110.112 122.595 110.823C122.81 111.534 122.409 112.289 121.699 112.505C121.57 112.542 121.438 112.561 121.306 112.561C120.731 112.561 120.198 112.187 120.021 111.607ZM156.313 111.252C156.17 110.518 156.644 109.812 157.373 109.67C158.102 109.527 158.809 110.001 158.951 110.731C159.094 111.464 158.621 112.17 157.892 112.313C157.803 112.332 157.717 112.34 157.631 112.34C157.001 112.34 156.437 111.893 156.313 111.252ZM114.426 110.112C113.939 109.551 114.001 108.699 114.563 108.212C115.123 107.727 115.973 107.786 116.46 108.349C116.946 108.912 116.884 109.761 116.322 110.249C116.07 110.47 115.755 110.578 115.443 110.578C115.066 110.578 114.692 110.421 114.426 110.112ZM68.0879 109.195C67.5257 108.71 67.4666 107.859 67.9534 107.295C68.4375 106.735 69.2875 106.673 69.8496 107.161C70.4118 107.648 70.471 108.497 69.9841 109.061C69.7205 109.368 69.344 109.527 68.9701 109.527C68.6581 109.527 68.3434 109.416 68.0879 109.195ZM118.73 108.964C118.03 108.716 117.665 107.945 117.915 107.241C118.165 106.541 118.934 106.177 119.633 106.428C120.333 106.676 120.699 107.446 120.448 108.15C120.252 108.699 119.736 109.044 119.182 109.044C119.031 109.044 118.88 109.017 118.73 108.964ZM155.474 107.023C155.326 106.293 155.799 105.581 156.525 105.436C157.254 105.288 157.964 105.759 158.11 106.49C158.258 107.22 157.784 107.929 157.058 108.077C156.966 108.096 156.878 108.104 156.789 108.104C156.162 108.104 155.603 107.662 155.474 107.023ZM70.9067 105.937C70.3445 105.449 70.2827 104.6 70.7695 104.037C71.2563 103.474 72.1063 103.412 72.6684 103.9C73.2279 104.388 73.2898 105.239 72.8029 105.802C72.5367 106.11 72.1628 106.266 71.7862 106.266C71.4742 106.266 71.1595 106.158 70.9067 105.937ZM154.613 102.798C154.462 102.067 154.93 101.356 155.657 101.205C156.385 101.054 157.096 101.523 157.246 102.251C157.397 102.981 156.929 103.695 156.203 103.843C156.111 103.862 156.02 103.873 155.928 103.873C155.304 103.873 154.745 103.434 154.613 102.798ZM73.7228 102.679C73.1634 102.191 73.1015 101.34 73.5883 100.779C74.0725 100.216 74.9224 100.154 75.4846 100.642C76.0467 101.129 76.1086 101.981 75.6217 102.542C75.3555 102.849 74.9789 103.008 74.6023 103.008C74.2903 103.008 73.9783 102.9 73.7228 102.679ZM76.5416 99.4182C75.9795 98.9331 75.9203 98.0815 76.4044 97.5183C76.8913 96.955 77.7412 96.8957 78.3034 97.3808C78.8655 97.8686 78.9247 98.7202 78.4379 99.2834C78.1716 99.5907 77.7977 99.7496 77.4212 99.7496C77.1092 99.7496 76.7971 99.6392 76.5416 99.4182ZM153.731 98.5774C153.577 97.8497 154.04 97.1329 154.766 96.9793C155.495 96.8257 156.208 97.2892 156.361 98.0168C156.515 98.7471 156.052 99.4613 155.326 99.6149C155.232 99.6365 155.137 99.6446 155.046 99.6446C154.425 99.6446 153.865 99.2107 153.731 98.5774ZM79.3577 96.16C78.7983 95.6723 78.7364 94.8207 79.2233 94.2601C79.7101 93.6969 80.56 93.6349 81.1195 94.1227C81.6816 94.6105 81.7435 95.4621 81.2567 96.0253C80.9904 96.3325 80.6165 96.4888 80.24 96.4888C79.928 96.4888 79.6133 96.381 79.3577 96.16ZM152.827 94.3598C152.671 93.6322 153.131 92.9154 153.857 92.7564C154.583 92.6001 155.299 93.0609 155.458 93.7885C155.614 94.5161 155.154 95.233 154.427 95.3893C154.331 95.4109 154.236 95.4216 154.142 95.4216C153.521 95.4216 152.964 94.9904 152.827 94.3598ZM82.1766 92.9019C81.6144 92.4141 81.5552 91.5625 82.0421 90.9993C82.5262 90.4387 83.3762 90.3768 83.9383 90.8645C84.5005 91.3496 84.5596 92.2012 84.0728 92.7645C83.8092 93.0717 83.4326 93.2307 83.0561 93.2307C82.7441 93.2307 82.4321 93.1229 82.1766 92.9019ZM151.904 90.145C151.746 89.4201 152.203 88.7005 152.927 88.5388C153.653 88.3771 154.371 88.8353 154.532 89.5629C154.694 90.2878 154.236 91.0074 153.51 91.1691C153.413 91.1906 153.314 91.2014 153.217 91.2014C152.601 91.2014 152.044 90.7756 151.904 90.145ZM84.9954 89.6411C84.4332 89.1533 84.3714 88.3044 84.8582 87.7411C85.345 87.1779 86.195 87.1186 86.7544 87.6037C87.3166 88.0915 87.3784 88.9431 86.8916 89.5063C86.6253 89.8135 86.2515 89.9698 85.8749 89.9698C85.5629 89.9698 85.2482 89.862 84.9954 89.6411ZM150.963 85.9356C150.799 85.2106 151.254 84.4884 151.977 84.324C152.701 84.1596 153.421 84.6151 153.586 85.34C153.75 86.0649 153.298 86.7871 152.574 86.9515C152.472 86.9758 152.372 86.9866 152.273 86.9866C151.66 86.9866 151.106 86.5608 150.963 85.9356ZM87.8115 86.3829C87.2493 85.8951 87.1902 85.0435 87.677 84.483C88.1611 83.9198 89.0111 83.8578 89.5732 84.3456C90.1354 84.8333 90.1946 85.6822 89.7077 86.2455C89.4441 86.5527 89.0676 86.7117 88.691 86.7117C88.379 86.7117 88.067 86.6039 87.8115 86.3829ZM90.8347 83.2595C90.1757 82.9173 89.9175 82.1034 90.2591 81.4432C90.6007 80.7829 91.413 80.5242 92.072 80.8664C92.731 81.2087 92.9892 82.0226 92.6476 82.6828C92.4082 83.1463 91.9375 83.4104 91.4533 83.4104C91.2435 83.4104 91.0311 83.3619 90.8347 83.2595ZM150 81.7315C149.833 81.0066 150.283 80.2816 151.006 80.1146C151.73 79.9448 152.453 80.3975 152.62 81.1225C152.789 81.8474 152.337 82.5696 151.614 82.7394C151.512 82.7637 151.41 82.7744 151.31 82.7744C150.699 82.7744 150.145 82.354 150 81.7315ZM89.6109 79.7885C88.9116 79.5405 88.5458 78.7698 88.7959 78.0691C89.0434 77.3658 89.8126 76.9993 90.5119 77.2499C91.2113 77.4978 91.5771 78.2685 91.3296 78.9719C91.1333 79.5217 90.6142 79.8666 90.0628 79.8666C89.9121 79.8666 89.7615 79.8424 89.6109 79.7885ZM85.5387 78.5461C84.8286 78.3278 84.4332 77.5733 84.6511 76.8618C84.8716 76.1504 85.6221 75.7515 86.3321 75.9725C87.0422 76.1908 87.4403 76.9454 87.2224 77.6568C87.0422 78.2362 86.5124 78.6054 85.9368 78.6054C85.805 78.6054 85.6705 78.5865 85.5387 78.5461ZM149.013 77.5275C148.841 76.8052 149.287 76.0776 150.011 75.9051C150.732 75.7326 151.458 76.18 151.63 76.9022C151.802 77.6272 151.356 78.3548 150.635 78.5273C150.53 78.5515 150.425 78.5623 150.32 78.5623C149.712 78.5623 149.161 78.1473 149.013 77.5275ZM81.4154 77.2526C80.7053 77.0262 80.3153 76.2689 80.5412 75.5602C80.7645 74.8514 81.5203 74.458 82.2277 74.6843C82.9377 74.908 83.3277 75.6653 83.1045 76.3767C82.9216 76.9507 82.3917 77.3172 81.8215 77.3172C81.687 77.3146 81.5498 77.2957 81.4154 77.2526ZM77.3001 75.9267C76.5954 75.6949 76.2081 74.935 76.4394 74.2262C76.6707 73.5201 77.4292 73.1321 78.1366 73.3638C78.8413 73.5956 79.2259 74.3555 78.9973 75.0643C78.8117 75.6329 78.2845 75.9913 77.717 75.9913C77.5798 75.9913 77.44 75.9698 77.3001 75.9267ZM150.748 74.4202C150.223 73.8947 150.223 73.0404 150.748 72.5149C151.272 71.9894 152.125 71.9894 152.649 72.5149C153.174 73.0404 153.174 73.8947 152.649 74.4202C152.386 74.6843 152.044 74.8164 151.7 74.8164C151.356 74.8164 151.011 74.6843 150.748 74.4202ZM73.1983 74.5658C72.4936 74.3286 72.1144 73.5659 72.3511 72.8599C72.5851 72.1538 73.3489 71.7738 74.0536 72.011C74.7557 72.2481 75.1376 73.0108 74.9009 73.7169C74.7126 74.2801 74.1881 74.6358 73.626 74.6358C73.4834 74.6358 73.3409 74.6143 73.1983 74.5658ZM69.1073 73.1725C68.4053 72.9299 68.0341 72.1646 68.2762 71.4585C68.5182 70.7552 69.2821 70.3832 69.9841 70.6258C70.6861 70.8683 71.06 71.6337 70.8179 72.3371C70.627 72.8949 70.1052 73.2452 69.5457 73.2452C69.4005 73.2452 69.2552 73.2237 69.11 73.1725H69.1073ZM65.027 71.7442C64.325 71.4936 63.9592 70.7255 64.2093 70.0221C64.4568 69.3215 65.226 68.955 65.9254 69.2029C66.6247 69.4535 66.9905 70.2243 66.743 70.9249C66.5467 71.4774 66.0276 71.8223 65.4762 71.8223C65.3255 71.8223 65.1749 71.7954 65.027 71.7442ZM153.79 71.3723C153.265 70.8468 153.265 69.9925 153.79 69.467C154.317 68.9415 155.167 68.9415 155.692 69.467C156.219 69.9925 156.219 70.8468 155.692 71.3723C155.431 71.6337 155.086 71.7657 154.742 71.7657C154.398 71.7657 154.054 71.6337 153.79 71.3723ZM60.9575 70.2755C60.2608 70.0194 59.9031 69.246 60.1586 68.5453C60.4141 67.8473 61.1861 67.4889 61.8827 67.7449C62.5821 67.9983 62.9398 68.7744 62.6843 69.4724C62.4852 70.0194 61.9688 70.3563 61.4201 70.3563C61.2668 70.3563 61.1108 70.3294 60.9575 70.2755ZM56.9068 68.7636C56.2101 68.4995 55.8605 67.7207 56.1241 67.0254C56.3877 66.3301 57.1623 65.9798 57.8562 66.2439H57.8589C58.5529 66.5053 58.9025 67.2841 58.6389 67.9794C58.4372 68.5184 57.9235 68.8499 57.3828 68.8499C57.2242 68.8499 57.0628 68.8229 56.9068 68.7636ZM156.835 68.3243C156.307 67.7961 156.307 66.9446 156.835 66.4164C157.359 65.8908 158.212 65.8908 158.736 66.4164C159.261 66.9446 159.261 67.7961 158.736 68.3243C158.473 68.5857 158.128 68.7178 157.784 68.7178C157.44 68.7178 157.096 68.5857 156.835 68.3243ZM52.8722 67.206C52.181 66.9338 51.8394 66.1523 52.111 65.4597C52.3827 64.7671 53.1627 64.4248 53.854 64.697C54.5452 64.9692 54.8868 65.7507 54.6151 66.4433C54.408 66.9742 53.8997 67.3003 53.3617 67.3003C53.2004 67.3003 53.0336 67.2706 52.8722 67.206ZM48.8511 65.5944C48.1625 65.3114 47.8344 64.5245 48.1141 63.8346C48.3965 63.1474 49.1819 62.816 49.8678 63.0989C50.5564 63.3792 50.8872 64.1661 50.6048 64.856C50.3923 65.3788 49.8893 65.6941 49.3595 65.6941C49.19 65.6941 49.0179 65.6618 48.8511 65.5944ZM159.877 65.2737C159.352 64.7482 159.352 63.8939 159.877 63.3684C160.401 62.8429 161.254 62.8429 161.778 63.3684C162.306 63.8939 162.306 64.7482 161.778 65.2737C161.517 65.5378 161.173 65.6699 160.829 65.6699C160.485 65.6699 160.14 65.5378 159.877 65.2737ZM44.8542 63.9209C44.171 63.6271 43.8563 62.8348 44.1468 62.1503C44.44 61.4658 45.2308 61.1505 45.9113 61.4416C46.5944 61.7353 46.9118 62.5276 46.6213 63.2121C46.4008 63.7214 45.9059 64.0287 45.3814 64.0287C45.2066 64.0287 45.0263 63.9936 44.8542 63.9209ZM162.921 62.2258C162.394 61.7003 162.394 60.846 162.921 60.3205C163.446 59.7923 164.296 59.7923 164.823 60.3205C165.348 60.846 165.348 61.7003 164.823 62.2258C164.56 62.4872 164.215 62.6192 163.871 62.6192C163.527 62.6192 163.182 62.4872 162.921 62.2258ZM40.8842 62.1773C40.2064 61.87 39.9051 61.0723 40.2118 60.3932C40.5157 59.7168 41.3119 59.4123 41.9897 59.7195C42.6648 60.024 42.9687 60.8217 42.6621 61.5008C42.4388 61.9994 41.9493 62.2958 41.4356 62.2958C41.2527 62.2958 41.0644 62.2581 40.8842 62.1773ZM36.9465 60.3474C36.2767 60.0267 35.9943 59.221 36.3144 58.5499C36.6345 57.8789 37.436 57.5959 38.1084 57.9166C38.7782 58.2373 39.0606 59.0404 38.7405 59.7141C38.5092 60.1965 38.0277 60.4795 37.5248 60.4795C37.3311 60.4795 37.1348 60.4364 36.9465 60.3474ZM165.964 59.1751C165.439 58.6496 165.439 57.798 165.964 57.2698C166.488 56.7443 167.341 56.7443 167.865 57.2698C168.39 57.798 168.39 58.6496 167.865 59.1751C167.602 59.4392 167.257 59.5713 166.913 59.5713C166.569 59.5713 166.224 59.4392 165.964 59.1751ZM33.0491 58.4125C32.3874 58.0729 32.1265 57.2618 32.4654 56.5988C32.8043 55.9359 33.6166 55.6771 34.2783 56.0167C34.9373 56.3563 35.1982 57.1701 34.8593 57.8304C34.6199 58.2966 34.1492 58.5634 33.6623 58.5634C33.4552 58.5634 33.2427 58.5149 33.0464 58.4125H33.0491ZM169.006 56.1272C168.481 55.6017 168.481 54.7474 169.006 54.2219C169.53 53.6964 170.383 53.6964 170.907 54.2219C171.434 54.7474 171.434 55.6017 170.907 56.1272C170.646 56.3913 170.302 56.5233 169.958 56.5233C169.613 56.5233 169.269 56.3913 169.006 56.1272ZM29.2082 56.3482C28.5627 55.9817 28.3313 55.1624 28.6945 54.5129C29.0603 53.8635 29.8806 53.6344 30.5261 53.9982C31.1744 54.3647 31.403 55.1867 31.0399 55.8335C30.7924 56.2727 30.3379 56.5207 29.8672 56.5207C29.6439 56.5207 29.418 56.4641 29.2082 56.3482ZM25.4453 54.106C24.8186 53.7072 24.6303 52.8771 25.0284 52.2465C25.4238 51.6186 26.2549 51.43 26.8816 51.8288C27.5083 52.225 27.6966 53.0577 27.2985 53.6856C27.043 54.0925 26.6072 54.3135 26.1608 54.3135C25.916 54.3135 25.6658 54.2462 25.4426 54.106H25.4453ZM172.05 53.0793C171.523 52.5511 171.523 51.6995 172.05 51.174C172.575 50.6458 173.425 50.6458 173.952 51.174C174.476 51.6995 174.476 52.5511 173.952 53.0793C173.688 53.3407 173.344 53.4727 173 53.4727C172.656 53.4727 172.311 53.3407 172.05 53.0793ZM21.8034 51.6105C21.209 51.1659 21.088 50.3224 21.5318 49.7241C21.9756 49.1285 22.8174 49.0046 23.4119 49.4519C24.0063 49.8966 24.1273 50.7401 23.6835 51.3383C23.4199 51.6914 23.0138 51.8773 22.605 51.8773C22.3252 51.8773 22.0428 51.7911 21.8007 51.6105H21.8034ZM175.092 50.0286C174.568 49.5031 174.568 48.6515 175.092 48.1233C175.617 47.5978 176.47 47.5978 176.994 48.1233C177.519 48.6515 177.519 49.5031 176.994 50.0286C176.73 50.2927 176.386 50.4248 176.042 50.4248C175.698 50.4248 175.356 50.2927 175.092 50.0286ZM122.955 49.3765C122.643 48.7 122.939 47.8997 123.614 47.5897C124.289 47.2798 125.088 47.5763 125.397 48.2527C125.709 48.9291 125.414 49.7268 124.738 50.0394C124.556 50.1229 124.365 50.1607 124.176 50.1607C123.668 50.1607 123.181 49.8696 122.955 49.3765ZM119.666 49.6729C118.942 49.5031 118.496 48.7782 118.665 48.0533C118.835 47.3283 119.558 46.881 120.282 47.0508C121.005 47.2205 121.454 47.9455 121.282 48.6704C121.137 49.2902 120.586 49.7106 119.975 49.7106C119.873 49.7106 119.771 49.6972 119.666 49.6729ZM18.3794 48.7135C17.8496 48.1934 17.8388 47.3391 18.3579 46.8082C18.877 46.2773 19.7297 46.2665 20.2595 46.7867C20.7921 47.3068 20.8002 48.1611 20.2811 48.692C20.0175 48.9614 19.6705 49.0989 19.3208 49.0989C18.9819 49.0989 18.643 48.9695 18.3794 48.7135ZM115.472 48.6973C114.746 48.5303 114.294 47.808 114.461 47.0831C114.628 46.3582 115.349 45.9054 116.072 46.0698C116.796 46.2369 117.248 46.9591 117.084 47.6841C116.941 48.3093 116.387 48.7324 115.774 48.7324C115.674 48.7324 115.572 48.7216 115.472 48.6973ZM111.271 47.7433C110.548 47.5816 110.093 46.8594 110.254 46.1345C110.416 45.4069 111.137 44.9514 111.86 45.1131C112.586 45.2775 113.041 45.997 112.88 46.722C112.737 47.3499 112.183 47.7757 111.567 47.7757C111.47 47.7757 111.371 47.7649 111.271 47.7433ZM178.134 46.9807C177.61 46.4552 177.61 45.6009 178.134 45.0754C178.662 44.5499 179.512 44.5499 180.036 45.0754C180.563 45.6009 180.563 46.4552 180.036 46.9807C179.775 47.2421 179.431 47.3741 179.087 47.3741C178.742 47.3741 178.398 47.2421 178.134 46.9807ZM126.366 46.8432C125.841 46.3177 125.841 45.4635 126.366 44.9379C126.893 44.4124 127.743 44.4124 128.27 44.9379C128.795 45.4635 128.795 46.3177 128.27 46.8432C128.006 47.1073 127.662 47.2367 127.318 47.2367C126.974 47.2367 126.629 47.1073 126.366 46.8432ZM107.067 46.8082C106.344 46.6492 105.884 45.9297 106.042 45.2047C106.201 44.4771 106.919 44.0163 107.645 44.1753C108.369 44.337 108.829 45.0538 108.67 45.7815C108.533 46.4094 107.976 46.8405 107.358 46.8405C107.263 46.8405 107.167 46.8298 107.067 46.8082ZM102.86 45.8946C102.134 45.7383 101.672 45.0215 101.828 44.2939C101.984 43.5662 102.699 43.1027 103.425 43.259C104.151 43.4153 104.614 44.1322 104.458 44.8598C104.324 45.4904 103.764 45.9243 103.143 45.9243C103.051 45.9243 102.957 45.9135 102.86 45.8946ZM15.4611 45.0727C15.0926 44.4286 15.3159 43.604 15.9587 43.2348C16.6042 42.8656 17.4273 43.0892 17.7958 43.7333C18.1643 44.3801 17.941 45.2047 17.2955 45.5739C17.0857 45.6952 16.8544 45.7518 16.6284 45.7518C16.1631 45.7518 15.7086 45.5093 15.4611 45.0727ZM98.651 44.9999C97.9221 44.8463 97.4568 44.1322 97.6101 43.4045C97.7607 42.6769 98.4762 42.2107 99.2024 42.3616C99.9286 42.5152 100.394 43.2294 100.243 43.957C100.109 44.593 99.552 45.0296 98.928 45.0296C98.8366 45.0296 98.7424 45.0188 98.651 44.9999ZM181.185 43.9381C180.655 43.418 180.647 42.5637 181.166 42.0328C181.688 41.5019 182.538 41.4939 183.07 42.014C183.6 42.5341 183.608 43.3884 183.089 43.9193C182.825 44.1888 182.476 44.3235 182.129 44.3235C181.787 44.3235 181.448 44.1968 181.185 43.9381ZM129.41 43.7953C128.886 43.2671 128.886 42.4155 129.41 41.89C129.935 41.3618 130.788 41.3618 131.312 41.89C131.837 42.4155 131.837 43.2671 131.312 43.7953C131.048 44.0567 130.704 44.1888 130.36 44.1888C130.016 44.1888 129.671 44.0567 129.41 43.7953ZM94.4362 44.1268C93.7073 43.9759 93.2393 43.2644 93.3872 42.5368C93.5352 41.8065 94.2453 41.3376 94.9742 41.4858C95.7031 41.634 96.1711 42.3454 96.0232 43.0758C95.8914 43.7145 95.3319 44.1537 94.7052 44.1537C94.6164 44.1537 94.5277 44.1456 94.4362 44.1268ZM90.2188 43.2752C89.4899 43.1297 89.0165 42.4209 89.1617 41.6906C89.3043 40.9603 90.0144 40.486 90.7406 40.6315C91.4668 40.777 91.9402 41.4858 91.7976 42.2161C91.6685 42.8575 91.1064 43.2994 90.477 43.2994C90.3909 43.2994 90.3021 43.2914 90.2161 43.2752H90.2188ZM85.9959 42.4452C85.267 42.305 84.7883 41.599 84.9308 40.8659C85.0707 40.1356 85.7754 39.6586 86.5043 39.7988C87.2359 39.9389 87.712 40.6477 87.5694 41.378C87.4457 42.0221 86.8835 42.4694 86.2515 42.4694C86.1681 42.4694 86.082 42.4613 85.9959 42.4452ZM81.7704 41.6421C81.0388 41.5046 80.5574 40.8013 80.6945 40.0682C80.8317 39.3379 81.5337 38.8555 82.2626 38.993C82.9942 39.1277 83.4757 39.8338 83.3385 40.5641C83.2175 41.2109 82.6526 41.6636 82.0179 41.6636C81.9372 41.6636 81.8538 41.6555 81.7704 41.6421ZM15.4746 41.6017C14.7483 41.448 14.283 40.7339 14.4363 40.0063C14.5896 39.2759 15.3024 38.8124 16.0313 38.966C16.7575 39.1196 17.2229 39.8338 17.0695 40.5614C16.9351 41.1947 16.3756 41.6313 15.7543 41.6313C15.6628 41.6313 15.5687 41.6205 15.4746 41.6017ZM132.453 40.7447C131.928 40.2192 131.928 39.3649 132.453 38.8394C132.977 38.3139 133.83 38.3139 134.354 38.8394C134.881 39.3649 134.881 40.2192 134.354 40.7447C134.093 41.0088 133.749 41.1408 133.405 41.1408C133.06 41.1408 132.716 41.0088 132.453 40.7447ZM184.157 40.8201C183.589 40.3377 183.519 39.4888 183.998 38.9202C184.479 38.3516 185.327 38.2815 185.894 38.7612C186.462 39.2409 186.532 40.0925 186.053 40.6611C185.787 40.9764 185.407 41.1381 185.023 41.1381C184.716 41.1381 184.41 41.033 184.157 40.8201ZM77.5395 40.8632C76.8079 40.7312 76.3211 40.0305 76.4529 39.2975C76.5847 38.5672 77.284 38.0794 78.0156 38.2115C78.7472 38.3435 79.234 39.0442 79.1022 39.7772C78.9839 40.4267 78.419 40.8848 77.7789 40.8848C77.7009 40.8848 77.6202 40.8767 77.5395 40.8632ZM73.3059 40.1141C72.5716 39.9901 72.0821 39.2921 72.2085 38.5591C72.3349 37.8261 73.0316 37.3329 73.7632 37.4596C74.4948 37.5862 74.9843 38.2842 74.8579 39.0172C74.7449 39.6721 74.1774 40.1356 73.5345 40.1356C73.4592 40.1356 73.3812 40.1275 73.3059 40.1141ZM69.0642 39.3999C68.3299 39.2786 67.835 38.5861 67.9534 37.8503C68.0744 37.1173 68.7684 36.6188 69.5 36.74C70.2316 36.8613 70.7292 37.5539 70.6081 38.2869C70.5005 38.9472 69.9303 39.4161 69.2821 39.4161C69.2095 39.4161 69.1369 39.4107 69.0642 39.3999ZM64.8253 38.7181C64.091 38.6049 63.588 37.915 63.7037 37.182C63.8166 36.4463 64.5052 35.9423 65.2368 36.0555C65.9684 36.1714 66.4714 36.8586 66.3584 37.5943C66.2562 38.26 65.6833 38.7343 65.0297 38.7343C64.9624 38.7343 64.8925 38.7289 64.8226 38.7181H64.8253ZM17.1529 37.6752C16.7414 37.058 16.9082 36.2199 17.5241 35.8076C18.1427 35.3926 18.9766 35.5597 19.3908 36.1795C19.8023 36.7966 19.6382 37.6348 19.0196 38.0471C18.791 38.2007 18.5301 38.2761 18.2718 38.2761C17.8388 38.2761 17.4138 38.0659 17.1529 37.6752ZM60.5782 38.0794C59.8439 37.9716 59.3356 37.2871 59.4432 36.5514C59.5481 35.8157 60.2312 35.3064 60.9655 35.4115C61.6998 35.5192 62.2109 36.2038 62.1033 36.9395C62.0065 37.6105 61.4309 38.0929 60.7746 38.0929C60.71 38.0929 60.6455 38.0875 60.5809 38.0794H60.5782ZM135.497 37.6967C134.97 37.1712 134.97 36.3169 135.497 35.7914C136.022 35.2659 136.872 35.2659 137.399 35.7914C137.923 36.3169 137.923 37.1712 137.399 37.6967C137.135 37.9608 136.791 38.0902 136.447 38.0902C136.102 38.0902 135.758 37.9608 135.497 37.6967ZM186.889 37.4892C186.287 37.0526 186.152 36.2091 186.588 35.6055C187.024 35.0045 187.866 34.8671 188.466 35.3064C189.068 35.7402 189.203 36.5837 188.767 37.1874C188.503 37.5512 188.094 37.7452 187.678 37.7452C187.403 37.7452 187.129 37.6617 186.889 37.4892ZM56.3231 37.4838C55.5888 37.3868 55.0697 36.7104 55.1692 35.972C55.266 35.2336 55.9439 34.7162 56.6808 34.8132C57.4151 34.9129 57.9342 35.5893 57.8347 36.3277C57.746 37.0041 57.1677 37.4973 56.5033 37.4973C56.4441 37.4973 56.385 37.4919 56.3231 37.4838ZM52.068 36.9449C51.3283 36.8559 50.8011 36.1849 50.8899 35.4465C50.9787 34.7081 51.6484 34.1799 52.3854 34.2688C53.1224 34.3577 53.6495 35.0288 53.5608 35.7672C53.4801 36.4517 52.8991 36.9556 52.2267 36.9556C52.1756 36.9556 52.1218 36.9502 52.068 36.9449ZM20.9104 35.5839C20.7168 34.8644 21.1391 34.126 21.8572 33.9293C22.5754 33.7352 23.3124 34.161 23.506 34.8806C23.7024 35.5974 23.2774 36.3385 22.5592 36.5325C22.4436 36.5649 22.3252 36.5783 22.2069 36.5783C21.6152 36.5783 21.0718 36.1849 20.9104 35.5839ZM47.8048 36.4679C47.0651 36.3924 46.5299 35.7295 46.6052 34.991C46.6805 34.2499 47.3422 33.711 48.0818 33.7864C48.8188 33.8646 49.3568 34.5248 49.2815 35.2659C49.2088 35.9585 48.6252 36.4759 47.9447 36.4759C47.8989 36.4759 47.8505 36.4732 47.8048 36.4679ZM43.5416 36.069C42.7993 36.007 42.2506 35.3576 42.3124 34.6138C42.3743 33.8727 43.0225 33.3229 43.7622 33.3822C44.5019 33.4442 45.0505 34.0963 44.9887 34.8374C44.9322 35.5408 44.3432 36.0744 43.6519 36.0744C43.6142 36.0744 43.5766 36.0717 43.5389 36.069H43.5416ZM25.1064 34.6326C25.0311 33.8942 25.569 33.2313 26.3087 33.1558C27.0457 33.0804 27.7073 33.6193 27.7826 34.3604C27.858 35.0988 27.32 35.7618 26.583 35.8372C26.5346 35.8426 26.4889 35.8453 26.4432 35.8453C25.7627 35.8453 25.179 35.3279 25.1064 34.6326ZM39.2758 35.7672C38.5334 35.7241 37.9659 35.0854 38.0089 34.3443C38.0519 33.6005 38.6894 33.0318 39.4291 33.075C40.1714 33.1181 40.739 33.7568 40.6959 34.4979C40.6529 35.2147 40.0611 35.7672 39.3538 35.7672H39.2758ZM35.0153 35.5893C34.2729 35.5705 33.6839 34.9533 33.7027 34.2122C33.7188 33.4657 34.3348 32.8782 35.0771 32.8944C35.8195 32.9133 36.4085 33.5304 36.3897 34.2742C36.3736 35.0072 35.7738 35.5893 35.0475 35.5893H35.0153ZM29.3938 34.2715C29.3776 33.5277 29.964 32.9106 30.7064 32.8917C31.4487 32.8728 32.0673 33.4603 32.0835 34.2041C32.1023 34.9479 31.516 35.5678 30.7736 35.5866H30.7386C30.0124 35.5866 29.4126 35.0045 29.3938 34.2715ZM138.539 34.6488C138.015 34.1206 138.015 33.269 138.539 32.7408C139.064 32.2153 139.916 32.2153 140.441 32.7408C140.965 33.269 140.965 34.1206 140.441 34.6488C140.177 34.9102 139.833 35.0422 139.489 35.0422C139.147 35.0422 138.803 34.9102 138.539 34.6488ZM189.361 33.9589C188.729 33.5708 188.527 32.7408 188.915 32.1075C189.302 31.4715 190.131 31.2721 190.763 31.6574C191.397 32.0455 191.596 32.8755 191.212 33.5115C190.956 33.9266 190.515 34.1556 190.061 34.1556C189.821 34.1556 189.582 34.0936 189.361 33.9589ZM141.581 31.5982C141.057 31.0727 141.057 30.2184 141.581 29.6929C142.109 29.1674 142.958 29.1674 143.483 29.6929C144.01 30.2184 144.01 31.0727 143.483 31.5982C143.222 31.8623 142.878 31.9943 142.534 31.9943C142.189 31.9943 141.845 31.8623 141.581 31.5982ZM191.551 30.2453C190.886 29.9111 190.62 29.1 190.954 28.4343C191.287 27.7714 192.097 27.5046 192.761 27.8388C193.423 28.1729 193.689 28.9841 193.355 29.6497C193.119 30.1187 192.645 30.3908 192.153 30.3908C191.949 30.3908 191.744 30.3423 191.551 30.2453ZM144.626 28.5502C144.099 28.0247 144.099 27.1704 144.626 26.6449C145.151 26.1167 146.001 26.1167 146.528 26.6449C147.052 27.1704 147.052 28.0247 146.528 28.5502C146.264 28.8116 145.92 28.9437 145.576 28.9437C145.231 28.9437 144.887 28.8116 144.626 28.5502ZM193.425 26.3646C192.737 26.0871 192.403 25.3029 192.68 24.6103C192.957 23.9204 193.74 23.5862 194.429 23.8638C195.12 24.1413 195.453 24.9283 195.176 25.6182C194.964 26.1437 194.461 26.4617 193.928 26.4617C193.759 26.4617 193.59 26.432 193.425 26.3646ZM147.668 25.4996C147.144 24.9741 147.144 24.1225 147.668 23.5943C148.193 23.0688 149.045 23.0688 149.57 23.5943C150.094 24.1225 150.094 24.9741 149.57 25.4996C149.306 25.7637 148.965 25.8957 148.62 25.8957C148.276 25.8957 147.932 25.7637 147.668 25.4996ZM150.71 22.4516C150.186 21.9261 150.186 21.0719 150.71 20.5463C151.237 20.0208 152.087 20.0208 152.612 20.5463C153.139 21.0719 153.139 21.9261 152.612 22.4516C152.351 22.7157 152.007 22.8478 151.662 22.8478C151.318 22.8478 150.974 22.7157 150.71 22.4516ZM194.967 22.3385C194.257 22.1229 193.856 21.371 194.074 20.6568C194.189 20.2769 194.456 19.9858 194.789 19.8295C194.587 19.5223 194.509 19.1342 194.606 18.7515C194.792 18.0293 195.523 17.5954 196.244 17.7814C196.962 17.9646 197.398 18.7003 197.213 19.4199C197.108 19.8268 196.831 20.1394 196.481 20.3065C196.693 20.6299 196.766 21.0422 196.645 21.4411C196.47 22.0232 195.935 22.3977 195.359 22.3977C195.23 22.3977 195.098 22.3789 194.967 22.3385ZM153.755 19.4037C153.228 18.8782 153.228 18.0239 153.755 17.4984C154.279 16.9702 155.132 16.9702 155.657 17.4984C156.181 18.0239 156.181 18.8782 155.657 19.4037C155.393 19.6651 155.049 19.7972 154.704 19.7972C154.36 19.7972 154.016 19.6651 153.755 19.4037ZM156.797 16.3531C156.273 15.8276 156.273 14.976 156.797 14.4478C157.322 13.9223 158.174 13.9223 158.699 14.4478C159.223 14.976 159.223 15.8276 158.699 16.3531C158.438 16.6172 158.093 16.7492 157.749 16.7492C157.405 16.7492 157.061 16.6172 156.797 16.3531ZM196.564 16.1914C195.825 16.1051 195.3 15.4341 195.386 14.693C195.475 13.9546 196.145 13.4291 196.882 13.5153C197.621 13.6043 198.146 14.2753 198.057 15.0164C197.976 15.6982 197.395 16.2022 196.726 16.2022C196.672 16.2022 196.618 16.1995 196.564 16.1914ZM159.812 13.2728C159.32 12.7176 159.371 11.8661 159.928 11.3729C160.482 10.8797 161.332 10.9282 161.827 11.4861C162.319 12.0412 162.268 12.8955 161.711 13.3887C161.456 13.615 161.138 13.7282 160.821 13.7282C160.45 13.7282 160.078 13.5746 159.812 13.2728ZM195.459 10.6965C195.381 9.95806 195.916 9.29242 196.653 9.21426C197.393 9.13342 198.054 9.6697 198.135 10.4108C198.213 11.1492 197.678 11.8148 196.941 11.893C196.892 11.8984 196.844 11.9011 196.796 11.9011C196.118 11.9011 195.534 11.3891 195.459 10.6965ZM163.123 10.5132C162.709 9.89608 162.873 9.05796 163.489 8.64294C164.108 8.23062 164.941 8.39501 165.356 9.01215C165.77 9.62928 165.606 10.4674 164.99 10.8824C164.759 11.036 164.498 11.1115 164.239 11.1115C163.806 11.1115 163.381 10.9013 163.123 10.5132ZM166.744 8.17942C166.389 7.52456 166.631 6.70531 167.284 6.35227C167.935 5.99654 168.753 6.23639 169.108 6.89125C169.46 7.54612 169.221 8.36267 168.567 8.7184C168.363 8.82889 168.142 8.88279 167.927 8.88279C167.448 8.88279 166.988 8.62677 166.744 8.17942ZM194.396 7.12302C194.031 6.47624 194.257 5.65429 194.902 5.28778C195.548 4.91858 196.371 5.14495 196.736 5.79443C197.102 6.4412 196.876 7.26315 196.231 7.62966C196.021 7.74823 195.792 7.80483 195.566 7.80483C195.098 7.80483 194.644 7.55959 194.396 7.12302ZM170.558 6.1771C170.259 5.49799 170.566 4.70029 171.246 4.40116C171.924 4.09933 172.717 4.40924 173.019 5.08836C173.32 5.77017 173.011 6.56517 172.333 6.867C172.155 6.94515 171.97 6.98019 171.789 6.98019C171.273 6.98019 170.781 6.68105 170.558 6.1771ZM174.525 4.49548C174.283 3.79211 174.657 3.02406 175.359 2.78152C176.061 2.54167 176.827 2.91627 177.067 3.61964C177.309 4.32301 176.935 5.09106 176.233 5.3309C176.088 5.38211 175.94 5.40636 175.794 5.40636C175.238 5.40636 174.716 5.05333 174.525 4.49548ZM191.892 4.63831C191.244 4.2745 191.015 3.45255 191.379 2.80578C191.742 2.1563 192.562 1.92454 193.21 2.29105C193.856 2.65486 194.087 3.47681 193.724 4.12358C193.477 4.56555 193.019 4.81348 192.551 4.81348C192.328 4.81348 192.102 4.75689 191.892 4.63831ZM178.619 3.1642C178.452 2.43927 178.901 1.71434 179.625 1.54456C180.348 1.37747 181.069 1.82752 181.238 2.55245C181.408 3.27738 180.959 3.99962 180.235 4.1694C180.133 4.19365 180.031 4.20443 179.928 4.20443C179.318 4.20443 178.764 3.78672 178.619 3.1642ZM188.296 3.52801C187.559 3.43369 187.037 2.75727 187.132 2.01886C187.226 1.28046 187.901 0.760341 188.638 0.854663C189.375 0.948985 189.894 1.62541 189.8 2.36381C189.714 3.04293 189.135 3.53879 188.468 3.53879C188.412 3.53879 188.353 3.5361 188.293 3.52801H188.296ZM182.833 2.27488C182.766 1.53378 183.312 0.878917 184.052 0.811544C184.791 0.744172 185.445 1.28854 185.512 2.02964C185.58 2.77074 185.034 3.4256 184.297 3.49298C184.254 3.49837 184.213 3.50106 184.173 3.50106C183.484 3.50106 182.898 2.97555 182.833 2.27488Z" fill="url(#paint1_linear_1233_2514)"/>
</g>
<defs>
<linearGradient id="paint0_linear_1233_2514" x1="2.83283" y1="73.6764" x2="250.033" y2="73.6764" gradientUnits="userSpaceOnUse">
<stop stop-color="#8CD6D6"/>
<stop offset="1" stop-color="#FF9F80"/>
</linearGradient>
<linearGradient id="paint1_linear_1233_2514" x1="0.0302703" y1="100.307" x2="198.143" y2="100.307" gradientUnits="userSpaceOnUse">
<stop stop-color="#8CD6D6"/>
<stop offset="1" stop-color="#FF9F80"/>
</linearGradient>
<clipPath id="clip0_1233_2514">
<rect width="250" height="199" fill="white" transform="translate(0.03125 0.806152)"/>
</clipPath>
</defs>
</svg>
