<svg width="224" height="241" viewBox="0 0 224 241" fill="none" xmlns="http://www.w3.org/2000/svg">
<g clip-path="url(#clip0_1203_4890)">
<path d="M110.433 173.956C109.608 173.72 109.13 172.864 109.366 172.039C109.599 171.214 110.458 170.736 111.279 170.972C112.104 171.205 112.582 172.061 112.349 172.886C112.154 173.568 111.534 174.015 110.858 174.015C110.718 174.015 110.575 173.997 110.433 173.956ZM114.337 172.005C113.578 171.608 113.286 170.671 113.683 169.911C114.08 169.154 115.017 168.863 115.776 169.26C116.533 169.657 116.828 170.594 116.431 171.354C116.152 171.881 115.612 172.182 115.054 172.182C114.812 172.182 114.567 172.126 114.337 172.005ZM106.389 169.455C106.035 168.677 106.379 167.755 107.158 167.399C107.936 167.045 108.857 167.389 109.211 168.168C109.568 168.947 109.223 169.868 108.445 170.221C108.234 170.318 108.017 170.361 107.803 170.361C107.214 170.361 106.649 170.026 106.389 169.455ZM116.133 167.399C115.314 167.144 114.858 166.276 115.11 165.457C115.364 164.638 116.235 164.182 117.051 164.436C117.87 164.691 118.329 165.559 118.071 166.378C117.867 167.042 117.253 167.467 116.592 167.467C116.44 167.467 116.285 167.445 116.133 167.399ZM104.333 164.939C103.976 164.16 104.32 163.239 105.099 162.885C105.877 162.529 106.798 162.873 107.155 163.652C107.508 164.43 107.164 165.351 106.386 165.705C106.178 165.801 105.958 165.848 105.744 165.848C105.154 165.848 104.593 165.51 104.333 164.939ZM117.603 162.659C116.787 162.405 116.328 161.536 116.583 160.717C116.837 159.898 117.708 159.442 118.524 159.697C119.343 159.951 119.799 160.82 119.544 161.638C119.337 162.302 118.726 162.73 118.065 162.73C117.913 162.73 117.758 162.706 117.603 162.659ZM102.273 160.422C101.92 159.644 102.261 158.723 103.042 158.369C103.821 158.012 104.739 158.357 105.095 159.135C105.449 159.917 105.108 160.835 104.326 161.192C104.119 161.285 103.901 161.331 103.684 161.331C103.095 161.331 102.534 160.993 102.273 160.422ZM119.076 157.919C118.257 157.665 117.801 156.796 118.056 155.977C118.31 155.158 119.178 154.703 119.997 154.957C120.816 155.211 121.272 156.08 121.018 156.899C120.813 157.562 120.199 157.991 119.538 157.991C119.386 157.991 119.231 157.966 119.076 157.919ZM100.214 155.906C99.8605 155.127 100.205 154.206 100.983 153.853C101.762 153.496 102.683 153.84 103.036 154.619C103.393 155.4 103.049 156.319 102.27 156.675C102.059 156.768 101.842 156.815 101.628 156.815C101.039 156.815 100.475 156.477 100.214 155.906ZM120.549 153.179C119.73 152.925 119.275 152.057 119.529 151.238C119.783 150.422 120.652 149.963 121.47 150.217C122.289 150.471 122.745 151.34 122.491 152.159C122.283 152.823 121.672 153.251 121.011 153.251C120.859 153.251 120.704 153.226 120.549 153.179ZM98.1579 151.39C97.8012 150.611 98.1455 149.69 98.9239 149.336C99.7054 148.979 100.623 149.324 100.98 150.102C101.334 150.884 100.992 151.802 100.211 152.159C100.003 152.252 99.786 152.299 99.569 152.299C98.9797 152.299 98.4184 151.96 98.1579 151.39ZM122.022 148.44C121.204 148.185 120.748 147.317 121.002 146.498C121.256 145.682 122.125 145.223 122.943 145.477C123.759 145.732 124.218 146.6 123.964 147.419C123.756 148.083 123.145 148.511 122.481 148.511C122.329 148.511 122.174 148.486 122.022 148.44ZM96.0986 146.876C95.742 146.095 96.0862 145.173 96.8677 144.82C97.6461 144.466 98.5641 144.807 98.9208 145.589C99.2774 146.368 98.9332 147.289 98.1517 147.642C97.9439 147.739 97.7268 147.782 97.5097 147.782C96.9235 147.782 96.3591 147.447 96.0986 146.876ZM123.495 143.7C122.677 143.446 122.221 142.577 122.475 141.758C122.729 140.942 123.598 140.483 124.413 140.738C125.232 140.992 125.691 141.86 125.437 142.679C125.229 143.343 124.618 143.771 123.958 143.771C123.802 143.771 123.647 143.746 123.495 143.7ZM94.0393 142.36C93.6858 141.578 94.03 140.657 94.8085 140.303C95.5869 139.95 96.508 140.294 96.8615 141.073C97.2182 141.851 96.8739 142.772 96.0955 143.126C95.8846 143.222 95.6675 143.266 95.4535 143.266C94.8643 143.266 94.2999 142.931 94.0393 142.36ZM210.13 138.147C210.13 137.291 210.825 136.596 211.681 136.596C212.537 136.596 213.231 137.291 213.231 138.147C213.231 139.004 212.537 139.698 211.681 139.698C210.825 139.698 210.13 139.004 210.13 138.147ZM205.168 138.147C205.168 137.291 205.863 136.596 206.719 136.596C207.575 136.596 208.269 137.291 208.269 138.147C208.269 139.004 207.575 139.698 206.719 139.698C205.863 139.698 205.168 139.004 205.168 138.147ZM200.206 138.147C200.206 137.291 200.901 136.596 201.757 136.596C202.613 136.596 203.307 137.291 203.307 138.147C203.307 139.004 202.613 139.698 201.757 139.698C200.901 139.698 200.206 139.004 200.206 138.147ZM195.244 138.147C195.244 137.291 195.939 136.596 196.795 136.596C197.651 136.596 198.345 137.291 198.345 138.147C198.345 139.004 197.651 139.698 196.795 139.698C195.939 139.698 195.244 139.004 195.244 138.147ZM190.282 138.147C190.282 137.291 190.977 136.596 191.833 136.596C192.688 136.596 193.383 137.291 193.383 138.147C193.383 139.004 192.688 139.698 191.833 139.698C190.977 139.698 190.282 139.004 190.282 138.147ZM185.32 138.147C185.32 137.291 186.014 136.596 186.87 136.596C187.726 136.596 188.421 137.291 188.421 138.147C188.421 139.004 187.726 139.698 186.87 139.698C186.014 139.698 185.32 139.004 185.32 138.147ZM180.358 138.147C180.358 137.291 181.052 136.596 181.908 136.596C182.764 136.596 183.459 137.291 183.459 138.147C183.459 139.004 182.764 139.698 181.908 139.698C181.052 139.698 180.358 139.004 180.358 138.147ZM57.3107 138.147C57.3107 137.291 58.0054 136.596 58.8613 136.596C59.7173 136.596 60.412 137.291 60.412 138.147C60.412 139.004 59.7173 139.698 58.8613 139.698C58.0054 139.698 57.3107 139.004 57.3107 138.147ZM52.3486 138.147C52.3486 137.291 53.0433 136.596 53.8993 136.596C54.7552 136.596 55.4499 137.291 55.4499 138.147C55.4499 139.004 54.7552 139.698 53.8993 139.698C53.0433 139.698 52.3486 139.004 52.3486 138.147ZM47.3865 138.147C47.3865 137.291 48.0812 136.596 48.9372 136.596C49.7931 136.596 50.4878 137.291 50.4878 138.147C50.4878 139.004 49.7931 139.698 48.9372 139.698C48.0812 139.698 47.3865 139.004 47.3865 138.147ZM42.4245 138.147C42.4245 137.291 43.1192 136.596 43.9751 136.596C44.8311 136.596 45.5258 137.291 45.5258 138.147C45.5258 139.004 44.8311 139.698 43.9751 139.698C43.1192 139.698 42.4245 139.004 42.4245 138.147ZM37.4624 138.147C37.4624 137.291 38.1571 136.596 39.013 136.596C39.869 136.596 40.5637 137.291 40.5637 138.147C40.5637 139.004 39.869 139.698 39.013 139.698C38.1571 139.698 37.4624 139.004 37.4624 138.147ZM32.5003 138.147C32.5003 137.291 33.195 136.596 34.051 136.596C34.9069 136.596 35.6016 137.291 35.6016 138.147C35.6016 139.004 34.9069 139.698 34.051 139.698C33.195 139.698 32.5003 139.004 32.5003 138.147ZM27.5382 138.147C27.5382 137.291 28.2329 136.596 29.0889 136.596C29.9449 136.596 30.6395 137.291 30.6395 138.147C30.6395 139.004 29.9449 139.698 29.0889 139.698C28.2329 139.698 27.5382 139.004 27.5382 138.147ZM22.5762 138.147C22.5762 137.291 23.2709 136.596 24.1268 136.596C24.9828 136.596 25.6775 137.291 25.6775 138.147C25.6775 139.004 24.9828 139.698 24.1268 139.698C23.2709 139.698 22.5762 139.004 22.5762 138.147ZM124.969 138.96C124.15 138.706 123.694 137.837 123.948 137.018C124.199 136.203 125.071 135.743 125.887 135.998C126.705 136.252 127.161 137.121 126.907 137.94C126.702 138.603 126.088 139.032 125.428 139.032C125.276 139.032 125.121 139.01 124.969 138.96ZM91.9832 137.843C91.6265 137.062 91.9708 136.144 92.7492 135.787C93.5307 135.433 94.4487 135.778 94.8054 136.556C95.162 137.335 94.8178 138.256 94.0362 138.61C93.8285 138.706 93.6114 138.749 93.3943 138.749C92.805 138.749 92.2437 138.414 91.9832 137.843ZM176.174 137.657C175.65 136.978 175.777 136.004 176.456 135.483C177.135 134.959 178.109 135.086 178.63 135.765C179.154 136.444 179.027 137.419 178.348 137.94C178.066 138.157 177.734 138.262 177.402 138.262C176.94 138.262 176.478 138.054 176.174 137.657ZM62.403 137.812C61.6959 137.329 61.5098 136.367 61.9936 135.657C62.4743 134.949 63.4389 134.766 64.1459 135.247C64.8561 135.728 65.0391 136.693 64.5584 137.4C64.2576 137.843 63.7707 138.079 63.2745 138.079C62.9737 138.079 62.6697 137.992 62.403 137.812ZM126.439 134.22C125.623 133.966 125.164 133.098 125.418 132.279C125.673 131.463 126.541 131.004 127.36 131.258C128.178 131.512 128.634 132.381 128.38 133.2C128.175 133.867 127.561 134.292 126.901 134.292C126.749 134.292 126.594 134.27 126.439 134.22ZM89.9239 133.327C89.5704 132.545 89.9115 131.627 90.693 131.27C91.4715 130.917 92.3926 131.261 92.7461 132.04C93.1028 132.818 92.7585 133.74 91.9801 134.093C91.7692 134.189 91.5521 134.233 91.335 134.233C90.7489 134.233 90.1844 133.898 89.9239 133.327ZM64.9957 133.581C64.2545 133.153 64.0033 132.204 64.4313 131.463C64.8623 130.721 65.8113 130.47 66.5526 130.898C67.2938 131.329 67.545 132.279 67.1139 133.02C66.8286 133.516 66.3076 133.792 65.771 133.792C65.5074 133.792 65.2407 133.724 64.9957 133.581ZM174.267 132.496C174.025 131.674 174.496 130.811 175.315 130.569C176.137 130.324 176.999 130.796 177.241 131.618C177.486 132.44 177.015 133.302 176.196 133.544C176.047 133.588 175.901 133.609 175.755 133.609C175.086 133.609 174.468 133.169 174.267 132.496ZM87.8647 128.811C87.5111 128.032 87.8554 127.111 88.6338 126.754C89.4122 126.4 90.3333 126.745 90.6868 127.523C91.0435 128.302 90.6992 129.223 89.9208 129.577C89.713 129.673 89.4928 129.716 89.2789 129.716C88.6896 129.716 88.1252 129.381 87.8647 128.811ZM127.912 129.481C127.096 129.226 126.637 128.358 126.891 127.542C127.146 126.723 128.017 126.267 128.833 126.518C129.652 126.773 130.107 127.644 129.853 128.46C129.645 129.127 129.034 129.552 128.374 129.552C128.222 129.552 128.067 129.53 127.912 129.481ZM67.486 129.291C66.7448 128.86 66.4936 127.911 66.9216 127.17C67.3527 126.428 68.3017 126.177 69.0429 126.608C69.7841 127.036 70.0353 127.986 69.6042 128.727C69.3189 129.223 68.7979 129.499 68.2614 129.499C67.9978 129.499 67.731 129.431 67.486 129.291ZM172.865 127.734C172.62 126.912 173.091 126.05 173.913 125.808C174.735 125.566 175.597 126.034 175.839 126.856C176.081 127.678 175.613 128.541 174.791 128.783C174.645 128.826 174.496 128.848 174.351 128.848C173.681 128.848 173.063 128.41 172.865 127.734ZM69.9764 124.998C69.2352 124.567 68.984 123.618 69.412 122.877C69.843 122.135 70.792 121.884 71.5332 122.315C72.2744 122.743 72.5257 123.692 72.0946 124.434C71.8093 124.93 71.2882 125.206 70.7517 125.206C70.4881 125.206 70.2214 125.138 69.9764 124.998ZM85.8085 124.294C85.4519 123.516 85.7961 122.594 86.5745 122.238C87.356 121.884 88.274 122.228 88.6307 123.007C88.9873 123.789 88.6431 124.707 87.8616 125.063C87.6538 125.157 87.4367 125.203 87.2196 125.203C86.6335 125.203 86.069 124.865 85.8085 124.294ZM129.385 124.744C128.566 124.487 128.11 123.618 128.364 122.802C128.619 121.983 129.487 121.527 130.306 121.779C131.122 122.033 131.581 122.905 131.326 123.723C131.118 124.387 130.507 124.812 129.847 124.812C129.695 124.812 129.537 124.791 129.385 124.744ZM171.46 122.976C171.218 122.154 171.687 121.292 172.508 121.05C173.33 120.805 174.192 121.276 174.434 122.098C174.676 122.92 174.208 123.782 173.386 124.024C173.24 124.068 173.091 124.086 172.946 124.086C172.279 124.086 171.659 123.649 171.46 122.976ZM72.4667 120.705C71.7255 120.274 71.4743 119.325 71.9023 118.584C72.3334 117.842 73.2824 117.591 74.0236 118.022C74.7648 118.45 75.016 119.399 74.5849 120.141C74.2996 120.637 73.7786 120.913 73.2421 120.913C72.9784 120.913 72.7117 120.848 72.4667 120.705ZM83.7492 119.778C83.3957 118.999 83.7368 118.078 84.5184 117.724C85.2968 117.368 86.2179 117.712 86.5714 118.49C86.9281 119.272 86.5838 120.19 85.8054 120.547C85.5976 120.64 85.3774 120.687 85.1634 120.687C84.5742 120.687 84.0098 120.349 83.7492 119.778ZM130.858 120.004C130.039 119.747 129.583 118.878 129.838 118.062C130.092 117.244 130.96 116.788 131.779 117.042C132.598 117.296 133.054 118.165 132.799 118.984C132.592 119.648 131.981 120.072 131.32 120.072C131.168 120.072 131.013 120.051 130.858 120.004ZM170.055 118.214C169.813 117.392 170.282 116.53 171.103 116.288C171.925 116.046 172.787 116.515 173.029 117.337C173.271 118.159 172.803 119.021 171.981 119.263C171.835 119.306 171.687 119.328 171.544 119.328C170.874 119.328 170.254 118.891 170.055 118.214ZM74.9571 116.412C74.2159 115.981 73.9647 115.032 74.3926 114.29C74.8237 113.549 75.7727 113.298 76.5139 113.729C77.252 114.157 77.5063 115.106 77.0753 115.848C76.7868 116.344 76.2689 116.62 75.7324 116.62C75.4688 116.62 75.2021 116.555 74.9571 116.412ZM81.6931 115.261C81.3364 114.483 81.6807 113.562 82.4591 113.208C83.2375 112.851 84.1586 113.195 84.5153 113.974C84.8688 114.756 84.5246 115.674 83.7461 116.031C83.5384 116.124 83.3182 116.17 83.1042 116.17C82.5149 116.17 81.9505 115.832 81.6931 115.261ZM132.331 115.264C131.512 115.01 131.056 114.138 131.311 113.323C131.565 112.504 132.433 112.048 133.252 112.302C134.068 112.556 134.527 113.425 134.272 114.244C134.065 114.908 133.454 115.333 132.79 115.333C132.638 115.333 132.483 115.311 132.331 115.264ZM168.65 113.453C168.408 112.634 168.88 111.772 169.702 111.527C170.52 111.285 171.383 111.756 171.628 112.578C171.869 113.397 171.398 114.259 170.576 114.501C170.43 114.545 170.282 114.567 170.139 114.567C169.469 114.567 168.852 114.129 168.65 113.453ZM77.7637 112.119C77.6986 111.266 78.3375 110.522 79.1903 110.456C80.0463 110.391 80.7906 111.03 80.8557 111.883C80.9209 112.736 80.282 113.484 79.4291 113.549C79.3888 113.552 79.3485 113.552 79.3082 113.552C78.5049 113.552 77.8258 112.935 77.7637 112.119ZM133.801 110.525C132.985 110.27 132.526 109.399 132.784 108.583C133.038 107.764 133.907 107.308 134.722 107.562C135.541 107.817 135.997 108.685 135.742 109.504C135.538 110.168 134.927 110.593 134.263 110.593C134.111 110.593 133.956 110.571 133.801 110.525ZM167.249 108.695C167.007 107.873 167.475 107.01 168.297 106.768C169.119 106.523 169.981 106.995 170.223 107.817C170.465 108.639 169.996 109.501 169.174 109.743C169.029 109.786 168.88 109.808 168.734 109.808C168.064 109.808 167.447 109.368 167.249 108.695ZM135.277 105.785C134.459 105.531 134.003 104.662 134.257 103.843C134.508 103.024 135.38 102.568 136.195 102.823C137.014 103.077 137.47 103.946 137.216 104.764C137.011 105.428 136.397 105.856 135.736 105.856C135.584 105.856 135.429 105.831 135.277 105.785ZM165.844 103.933C165.602 103.111 166.07 102.249 166.892 102.007C167.714 101.765 168.576 102.233 168.818 103.055C169.06 103.877 168.591 104.74 167.77 104.982C167.624 105.025 167.475 105.047 167.332 105.047C166.662 105.047 166.042 104.609 165.844 103.933ZM136.747 101.045C135.932 100.791 135.473 99.9223 135.727 99.1034C135.981 98.2845 136.85 97.8285 137.668 98.0828C138.487 98.3372 138.943 99.2057 138.689 100.025C138.484 100.688 137.87 101.117 137.209 101.117C137.057 101.117 136.902 101.092 136.747 101.045ZM164.439 99.1747C164.197 98.3527 164.668 97.4904 165.487 97.2484C166.309 97.0065 167.171 97.4749 167.413 98.2969C167.658 99.1189 167.187 99.9812 166.365 100.223C166.219 100.267 166.073 100.285 165.927 100.285C165.258 100.285 164.637 99.8478 164.439 99.1747ZM138.22 96.3054C137.402 96.0511 136.946 95.1825 137.2 94.3636C137.454 93.5447 138.323 93.0887 139.141 93.3431C139.96 93.5974 140.416 94.466 140.162 95.2849C139.954 95.9487 139.343 96.3768 138.683 96.3768C138.531 96.3768 138.375 96.352 138.22 96.3054ZM163.037 94.4132C162.795 93.5912 163.263 92.7289 164.085 92.4869C164.907 92.245 165.769 92.7134 166.011 93.5354C166.253 94.3574 165.782 95.2197 164.963 95.4617C164.814 95.5051 164.668 95.5268 164.523 95.5268C163.853 95.5237 163.235 95.0864 163.037 94.4132ZM139.694 91.5657C138.875 91.3113 138.419 90.4428 138.673 89.6238C138.928 88.808 139.796 88.349 140.615 88.6033C141.43 88.8577 141.889 89.7262 141.635 90.5451C141.427 91.2089 140.816 91.637 140.156 91.637C140.001 91.637 139.845 91.6122 139.694 91.5657ZM161.632 89.6518C161.39 88.8298 161.859 87.9674 162.68 87.7255C163.502 87.4835 164.364 87.955 164.606 88.7739C164.848 89.5959 164.38 90.4583 163.558 90.7002C163.412 90.7436 163.263 90.7654 163.118 90.7654C162.448 90.7654 161.831 90.328 161.632 89.6518ZM141.167 86.8259C140.348 86.5715 139.892 85.703 140.146 84.8841C140.401 84.0683 141.269 83.6092 142.088 83.8636C142.903 84.1179 143.362 84.9865 143.105 85.8054C142.9 86.4692 142.289 86.8973 141.629 86.8973C141.474 86.8973 141.319 86.8724 141.167 86.8259ZM160.227 84.8934C159.985 84.0714 160.454 83.209 161.275 82.9671C162.097 82.722 162.959 83.1935 163.201 84.0155C163.443 84.8376 162.975 85.6999 162.153 85.9418C162.007 85.9853 161.859 86.0039 161.713 86.0039C161.043 86.0039 160.426 85.5665 160.227 84.8934ZM142.64 82.0861C141.821 81.8318 141.365 80.9632 141.616 80.1443C141.874 79.3285 142.742 78.8694 143.558 79.1238C144.376 79.3782 144.835 80.2467 144.581 81.0656C144.373 81.7294 143.759 82.1575 143.099 82.1575C142.947 82.1575 142.792 82.1358 142.64 82.0861ZM158.825 80.1319C158.58 79.3099 159.049 78.4476 159.874 78.2056C160.692 77.9637 161.555 78.4321 161.8 79.2541C162.041 80.0761 161.57 80.9384 160.748 81.1804C160.602 81.2238 160.457 81.2455 160.311 81.2455C159.641 81.2455 159.024 80.8081 158.825 80.1319ZM144.11 77.3464C143.294 77.092 142.835 76.2235 143.089 75.4046C143.347 74.5888 144.215 74.1297 145.031 74.384C145.85 74.6384 146.305 75.51 146.051 76.3258C145.846 76.9928 145.232 77.4177 144.572 77.4177C144.42 77.4177 144.265 77.396 144.11 77.3464ZM157.421 75.3736C157.176 74.5515 157.647 73.6892 158.469 73.4472C159.291 73.2022 160.153 73.6737 160.395 74.4957C160.637 75.3177 160.168 76.177 159.346 76.422C159.201 76.4654 159.052 76.484 158.906 76.484C158.236 76.484 157.619 76.0467 157.421 75.3736ZM145.583 72.6097C144.767 72.3523 144.308 71.4837 144.563 70.6648C144.817 69.849 145.685 69.393 146.504 69.6443C147.323 69.8986 147.779 70.7703 147.524 71.5861C147.32 72.253 146.706 72.678 146.045 72.678C145.893 72.678 145.738 72.6563 145.583 72.6097ZM156.016 70.6121C155.774 69.7901 156.242 68.9277 157.064 68.6858C157.886 68.4438 158.748 68.9122 158.99 69.7342C159.232 70.5562 158.763 71.4186 157.942 71.6605C157.796 71.704 157.647 71.7257 157.501 71.7257C156.831 71.7257 156.214 71.2852 156.016 70.6121ZM147.056 67.87C146.24 67.6125 145.781 66.744 146.036 65.9282C146.29 65.1092 147.158 64.6533 147.977 64.9045C148.796 65.162 149.252 66.0305 148.997 66.8494C148.79 67.5132 148.179 67.9382 147.518 67.9382C147.366 67.9382 147.211 67.9165 147.056 67.87ZM154.611 65.8506C154.369 65.0286 154.837 64.1663 155.659 63.9243C156.481 63.6823 157.343 64.1538 157.585 64.9728C157.83 65.7948 157.359 66.6571 156.537 66.8991C156.391 66.9425 156.242 66.9642 156.096 66.9642C155.43 66.9642 154.809 66.5268 154.611 65.8506ZM148.272 62.9534C147.636 62.3764 147.589 61.3962 148.163 60.7603C148.74 60.1275 149.72 60.0779 150.353 60.6518C150.988 61.2287 151.038 62.2089 150.461 62.8448C150.157 63.1829 149.736 63.3535 149.314 63.3535C148.942 63.3535 148.569 63.2202 148.272 62.9534ZM153.042 62.4757C152.31 62.0321 152.074 61.0798 152.517 60.3447C152.961 59.6126 153.913 59.38 154.645 59.8235C155.377 60.2671 155.609 61.2194 155.166 61.9515C154.874 62.4354 154.363 62.7021 153.839 62.7021C153.566 62.7021 153.29 62.6277 153.035 62.4757H153.042Z" fill="url(#paint0_linear_1203_4890)"/>
<path d="M0.0332031 120.804C0.0332031 119.948 0.727894 119.253 1.58385 119.253C2.43981 119.253 3.1345 119.948 3.1345 120.804C3.1345 121.66 2.43981 122.355 1.58385 122.355C0.727894 122.355 0.0332031 121.66 0.0332031 120.804ZM1.62107 117.392C0.765109 117.358 0.101432 116.635 0.138647 115.779C0.175863 114.923 0.898465 114.259 1.75442 114.293C2.61038 114.33 3.27406 115.053 3.23994 115.909C3.20273 116.741 2.51734 117.395 1.6893 117.395C1.66759 117.395 1.64588 117.395 1.62417 117.392H1.62107ZM1.86607 112.438C1.01321 112.367 0.377447 111.616 0.448777 110.763C0.520107 109.91 1.27062 109.274 2.12348 109.346C2.97633 109.417 3.6121 110.168 3.54077 111.021C3.47254 111.83 2.79336 112.445 1.99632 112.445C1.95291 112.445 1.90949 112.445 1.86607 112.438ZM2.31576 107.497C1.466 107.388 0.864351 106.616 0.972896 105.766C1.07834 104.916 1.85366 104.311 2.70342 104.42C3.55317 104.525 4.15483 105.301 4.04628 106.151C3.95014 106.935 3.28026 107.509 2.51114 107.509C2.44601 107.509 2.38088 107.506 2.31576 107.497ZM2.97323 102.58C2.12968 102.438 1.55904 101.637 1.7017 100.791C1.84436 99.9468 2.64449 99.3792 3.48805 99.5187C4.3316 99.6614 4.90224 100.462 4.75958 101.309C4.63243 102.065 3.97495 102.602 3.23064 102.602C3.1469 102.602 3.06007 102.593 2.97323 102.58ZM3.83539 97.6948C2.99804 97.5149 2.46152 96.6929 2.64139 95.8554C2.81817 95.0147 3.64311 94.4812 4.48046 94.658C5.31781 94.8379 5.85434 95.6599 5.67446 96.4975C5.5194 97.2264 4.87433 97.7289 4.15793 97.7289C4.05248 97.7289 3.94394 97.7165 3.83539 97.6948ZM4.90534 92.8496C4.07419 92.6356 3.57488 91.7887 3.78887 90.9605C3.99976 90.1292 4.84642 89.6298 5.67756 89.8438C6.50561 90.0578 7.00492 90.9016 6.79093 91.7298C6.61105 92.4308 5.98149 92.8961 5.2899 92.8961C5.16275 92.8961 5.03249 92.8806 4.90534 92.8496ZM6.17687 88.0509C5.35503 87.8027 4.89293 86.9373 5.14104 86.1184C5.38914 85.2995 6.2544 84.8342 7.07315 85.0823C7.89499 85.3305 8.35708 86.1959 8.10898 87.0148C7.90739 87.688 7.29024 88.1191 6.62656 88.1191C6.4777 88.1191 6.32573 88.0974 6.17687 88.0509ZM7.65309 83.3018C6.84675 83.0195 6.41877 82.1355 6.70099 81.3259C6.98321 80.5163 7.86708 80.0882 8.67652 80.3736C9.48596 80.6559 9.91393 81.5399 9.62861 82.3495C9.40842 82.9885 8.80677 83.3887 8.1648 83.3887C7.99733 83.3887 7.82366 83.3608 7.65309 83.3018ZM9.33089 78.6179C8.53696 78.3015 8.14619 77.3988 8.46253 76.6047C8.77886 75.8075 9.68134 75.4198 10.4784 75.7362C11.2723 76.0526 11.66 76.9553 11.3436 77.7494C11.1017 78.3573 10.5218 78.7296 9.90463 78.7296C9.71235 78.7296 9.52007 78.6923 9.33089 78.6179ZM11.2041 74.0115C10.4225 73.661 10.0721 72.7459 10.4225 71.9642C10.7699 71.1825 11.6879 70.832 12.4694 71.1795C13.2509 71.53 13.6014 72.4481 13.254 73.2298C12.9966 73.8068 12.4291 74.148 11.8367 74.148C11.6258 74.148 11.4088 74.1046 11.2041 74.0115ZM13.2695 69.492C12.5035 69.1074 12.1903 68.1768 12.5748 67.4106C12.9563 66.6444 13.8867 66.3311 14.6527 66.7158C15.4187 67.0973 15.732 68.0279 15.3474 68.7941C15.0776 69.34 14.5287 69.6533 13.9611 69.6533C13.7285 69.6533 13.4928 69.6006 13.2695 69.492ZM15.5211 65.0593C14.7706 64.6468 14.5008 63.7038 14.9132 62.9531C15.3288 62.2024 16.2716 61.9326 17.0221 62.3451C17.7695 62.7608 18.0424 63.7038 17.63 64.4544C17.3446 64.9663 16.8174 65.2548 16.2716 65.2548C16.0173 65.2548 15.7599 65.1927 15.5211 65.0593ZM17.9587 60.7321C17.2268 60.2854 16.9942 59.3332 17.4377 58.6011C17.8843 57.869 18.8395 57.6364 19.5683 58.08C20.3002 58.5266 20.5328 59.4789 20.0893 60.211C19.7978 60.6918 19.2861 60.9586 18.7619 60.9586C18.489 60.9586 18.2099 60.8841 17.9587 60.7321ZM20.5731 56.5073C19.8598 56.0327 19.6675 55.0711 20.142 54.3576C20.6165 53.6442 21.581 53.4519 22.2943 53.9296C23.0045 54.4042 23.1968 55.3658 22.7223 56.0792C22.4246 56.5259 21.9315 56.771 21.4321 56.771C21.1344 56.771 20.8367 56.6841 20.5731 56.5073ZM23.3612 52.4003C22.6696 51.8947 22.5176 50.9238 23.02 50.2321C23.5255 49.5403 24.4962 49.3883 25.1878 49.894C25.8794 50.3965 26.0314 51.3674 25.5259 52.0591C25.225 52.4748 24.7505 52.6981 24.2729 52.6981C23.9566 52.6981 23.6372 52.5988 23.3612 52.4003ZM26.3167 48.4112C25.6468 47.8777 25.5352 46.9006 26.0686 46.2306C26.5989 45.5605 27.5758 45.4489 28.2457 45.9824C28.9187 46.5159 29.0272 47.49 28.4938 48.1631C28.1899 48.5477 27.7371 48.7462 27.2812 48.7462C26.9432 48.7462 26.602 48.6377 26.3167 48.4112ZM29.4366 44.5493C28.7884 43.9879 28.7171 43.0077 29.2784 42.3624C29.8367 41.7141 30.8167 41.6428 31.4648 42.2043C32.113 42.7626 32.1812 43.7428 31.623 44.3911C31.316 44.7447 30.8849 44.9278 30.4507 44.9278C30.091 44.9278 29.7281 44.8037 29.4366 44.5493ZM32.7116 40.8208C32.0882 40.2345 32.0572 39.2512 32.6433 38.6277C33.2326 38.0042 34.2126 37.9763 34.836 38.5626C35.4593 39.1488 35.4903 40.1291 34.9042 40.7556C34.5972 41.0782 34.1878 41.2426 33.7722 41.2426C33.3938 41.2426 33.0124 41.1031 32.7116 40.8208ZM36.1385 37.2349C35.5399 36.6208 35.5493 35.6406 36.1633 35.0388C36.7743 34.4401 37.7574 34.4525 38.3559 35.0636C38.9545 35.6778 38.9452 36.658 38.3311 37.2567C38.0303 37.5513 37.6395 37.7002 37.2457 37.7002C36.8456 37.7002 36.4424 37.5451 36.1385 37.2349ZM39.7112 33.7918C39.1375 33.1559 39.1902 32.1757 39.8259 31.6018C40.4617 31.028 41.4448 31.0807 42.0154 31.7166C42.5892 32.3525 42.5365 33.3327 41.9007 33.9066C41.6061 34.1733 41.2339 34.3036 40.8649 34.3036C40.44 34.3036 40.0182 34.133 39.7112 33.7918ZM43.4234 30.5006C42.8776 29.843 42.9676 28.8659 43.6281 28.3169C44.2887 27.7709 45.2656 27.864 45.8114 28.5247C46.3573 29.1854 46.2642 30.1625 45.6068 30.7085C45.3152 30.9473 44.9679 31.0652 44.6174 31.0652C44.1709 31.0652 43.7305 30.8729 43.4234 30.5006ZM47.2659 27.3708C46.748 26.6884 46.8814 25.7144 47.5637 25.1963C48.2429 24.6783 49.2167 24.8117 49.7346 25.4941C50.2525 26.1734 50.1222 27.1474 49.44 27.6655C49.1577 27.8795 48.829 27.9819 48.5034 27.9819C48.0351 27.9819 47.573 27.7709 47.2659 27.3708ZM51.2356 24.3991C50.7456 23.6981 50.9193 22.7303 51.6233 22.2402C52.3242 21.7501 53.2918 21.9238 53.7818 22.6279C54.2718 23.3321 54.0981 24.2968 53.3941 24.7869C53.1243 24.9761 52.8142 25.066 52.5102 25.066C52.0202 25.066 51.5364 24.8334 51.2356 24.3991ZM55.3231 21.5981C54.8641 20.8784 55.0781 19.9199 55.8007 19.4577C56.5233 18.9987 57.4816 19.2127 57.9406 19.9354C58.3996 20.6582 58.1887 21.6167 57.4661 22.0758C57.2087 22.2402 56.9203 22.3177 56.635 22.3177C56.1232 22.3177 55.6208 22.0634 55.3231 21.5981ZM59.5254 18.9738C59.0974 18.2325 59.3486 17.2833 60.0898 16.8521C60.831 16.424 61.78 16.6784 62.208 17.4167C62.6391 18.1611 62.3848 19.1103 61.6436 19.5384C61.3986 19.678 61.1318 19.7462 60.8682 19.7462C60.3348 19.7462 59.8138 19.4702 59.5254 18.9738ZM63.83 16.5233C63.433 15.7664 63.7245 14.8266 64.4843 14.4295C65.2411 14.0325 66.1808 14.324 66.5777 15.084C66.9747 15.8409 66.6832 16.7808 65.9233 17.1778C65.6939 17.2988 65.4488 17.3546 65.2069 17.3546C64.6487 17.3546 64.1091 17.0537 63.83 16.5233ZM68.2338 14.2589C67.8679 13.4834 68.1997 12.559 68.975 12.193C69.7472 11.827 70.6714 12.1589 71.0374 12.9344C71.4033 13.7099 71.0715 14.6342 70.2962 15.0003C70.0853 15.0995 69.8589 15.1492 69.6387 15.1492C69.0557 15.1492 68.4974 14.8203 68.2338 14.2589ZM72.7245 12.1806C72.3927 11.3896 72.7617 10.4807 73.5525 10.1488C74.3403 9.81692 75.2489 10.1861 75.5839 10.9739C75.9157 11.7649 75.5467 12.6738 74.7558 13.0057C74.5605 13.0895 74.3558 13.1298 74.1542 13.1298C73.5494 13.1298 72.9757 12.7731 72.7245 12.1806ZM77.2989 10.2946C77.0012 9.49122 77.4074 8.59786 78.2107 8.29697C79.0108 7.99919 79.9071 8.40554 80.2048 9.20894C80.5056 10.0123 80.0963 10.9057 79.293 11.2035C79.1163 11.2717 78.9333 11.3028 78.7534 11.3028C78.1238 11.3028 77.5315 10.9181 77.2989 10.2946ZM81.9602 8.59476C81.6965 7.78205 82.14 6.9073 82.9557 6.64054C83.7682 6.37377 84.6428 6.82045 84.9095 7.63626C85.1762 8.44897 84.7296 9.32682 83.914 9.59048C83.7558 9.64321 83.5945 9.66803 83.4333 9.66803C82.782 9.66803 82.1741 9.25237 81.9602 8.59476ZM86.6896 7.09652C86.4601 6.27141 86.9408 5.41527 87.7658 5.18573C88.5907 4.95619 89.4467 5.43699 89.6762 6.2621C89.9057 7.08722 89.425 7.94335 88.6 8.17289C88.4605 8.21322 88.3209 8.23183 88.1814 8.23183C87.5053 8.23183 86.8819 7.78205 86.6896 7.09652ZM91.478 5.79991C91.2826 4.96549 91.8006 4.13107 92.6348 3.93565C93.4722 3.74023 94.3033 4.25825 94.5018 5.09267C94.6972 5.92399 94.1793 6.76151 93.345 6.95383C93.2272 6.98175 93.1062 6.99726 92.9884 6.99726C92.2844 6.99726 91.6486 6.51336 91.4811 5.79991H91.478ZM96.316 4.70493C96.1548 3.8643 96.7099 3.0516 97.5504 2.8903C98.3908 2.7321 99.2034 3.28424 99.3615 4.12487C99.5228 4.96549 98.9708 5.7782 98.1303 5.9395C98.0311 5.95811 97.9318 5.96742 97.8357 5.96742C97.1069 5.96742 96.4587 5.44939 96.316 4.70493ZM101.197 3.81467C101.073 2.96784 101.66 2.17995 102.506 2.05587C103.353 1.9318 104.141 2.51806 104.265 3.36489C104.389 4.21172 103.803 4.99961 102.956 5.12369C102.878 5.1361 102.804 5.1423 102.73 5.1423C101.973 5.1423 101.309 4.58705 101.197 3.81467ZM106.11 3.13225C106.02 2.28232 106.637 1.51924 107.49 1.42928C108.343 1.34243 109.106 1.95971 109.196 2.81275C109.283 3.66268 108.665 4.42575 107.813 4.51571C107.76 4.52191 107.704 4.52191 107.648 4.52191C106.867 4.52191 106.194 3.92944 106.11 3.13225ZM111.047 2.65765C110.994 1.80152 111.643 1.06636 112.499 1.01362C113.355 0.957788 114.09 1.6092 114.142 2.46533C114.195 3.31836 113.547 4.05662 112.691 4.10936C112.657 4.10936 112.626 4.11246 112.595 4.11246C111.782 4.11246 111.097 3.47966 111.047 2.65765ZM116 2.38778C115.984 1.53165 116.664 0.821303 117.52 0.805793C118.376 0.787182 119.086 1.46651 119.101 2.32264C119.12 3.17878 118.441 3.88912 117.582 3.90463H117.548C116.704 3.90463 116.015 3.23151 115.997 2.38778H116Z" fill="url(#paint1_linear_1203_4890)"/>
<path d="M119.353 219.003C119.347 218.147 120.032 217.445 120.888 217.439C121.744 217.43 122.445 218.119 122.451 218.975C122.458 219.831 121.769 220.532 120.913 220.538H120.898C120.048 220.538 119.356 219.856 119.347 219.003H119.353ZM115.88 220.457C115.024 220.423 114.357 219.701 114.391 218.844C114.425 217.988 115.148 217.325 116.004 217.359C116.86 217.393 117.527 218.116 117.489 218.972C117.458 219.806 116.77 220.461 115.942 220.461C115.92 220.461 115.898 220.461 115.877 220.461L115.88 220.457ZM124.312 218.913C124.263 218.057 124.917 217.325 125.773 217.275C126.626 217.222 127.361 217.877 127.41 218.733C127.46 219.586 126.806 220.321 125.953 220.371C125.922 220.374 125.891 220.374 125.86 220.374C125.044 220.374 124.362 219.738 124.312 218.913ZM110.856 220.126C110.003 220.048 109.373 219.294 109.451 218.441C109.528 217.588 110.285 216.958 111.135 217.036C111.991 217.117 112.617 217.87 112.54 218.724C112.465 219.527 111.789 220.132 110.998 220.132C110.952 220.132 110.902 220.132 110.856 220.126ZM129.262 218.578C129.169 217.725 129.783 216.959 130.636 216.865C131.485 216.772 132.251 217.387 132.345 218.24C132.438 219.09 131.824 219.856 130.971 219.952C130.915 219.955 130.856 219.958 130.8 219.958C130.022 219.958 129.349 219.372 129.262 218.578ZM105.85 219.542C105.004 219.421 104.414 218.637 104.535 217.787C104.656 216.94 105.441 216.351 106.287 216.471C107.137 216.592 107.726 217.377 107.605 218.224C107.494 219 106.83 219.558 106.07 219.558C105.999 219.558 105.925 219.552 105.85 219.542ZM134.187 217.991C134.053 217.145 134.627 216.351 135.474 216.214C136.317 216.078 137.114 216.655 137.251 217.498C137.384 218.345 136.81 219.139 135.964 219.276C135.883 219.291 135.799 219.297 135.719 219.297C134.968 219.297 134.311 218.755 134.187 217.991ZM100.882 218.705C100.041 218.54 99.4925 217.728 99.6569 216.887C99.8212 216.047 100.634 215.497 101.474 215.659C102.315 215.823 102.864 216.639 102.699 217.48C102.557 218.221 101.908 218.736 101.18 218.736C101.08 218.736 100.981 218.724 100.882 218.705ZM139.077 217.16C138.901 216.323 139.434 215.497 140.271 215.318C141.109 215.141 141.934 215.674 142.111 216.512C142.29 217.349 141.757 218.174 140.92 218.351C140.808 218.376 140.699 218.385 140.594 218.385C139.878 218.385 139.233 217.889 139.077 217.16ZM95.9632 217.616C95.1321 217.411 94.6235 216.571 94.8313 215.739C95.0359 214.908 95.8764 214.399 96.7075 214.607C97.5387 214.812 98.0473 215.653 97.8395 216.487C97.6658 217.191 97.0332 217.663 96.3385 217.663C96.2144 217.663 96.0873 217.647 95.9632 217.616ZM143.919 216.078C143.698 215.252 144.188 214.399 145.02 214.179C145.844 213.959 146.694 214.452 146.918 215.277C147.138 216.105 146.645 216.955 145.817 217.176C145.683 217.213 145.55 217.228 145.416 217.228C144.731 217.228 144.105 216.772 143.919 216.078ZM91.1035 216.279C90.2848 216.034 89.8196 215.166 90.0677 214.347C90.3158 213.528 91.1841 213.062 92.0029 213.311C92.8216 213.559 93.2837 214.427 93.0387 215.246C92.834 215.916 92.22 216.347 91.5532 216.347C91.4043 216.347 91.2523 216.326 91.1035 216.279ZM148.701 214.753C148.437 213.937 148.884 213.062 149.699 212.802C150.515 212.538 151.39 212.985 151.653 213.801C151.914 214.617 151.467 215.491 150.651 215.755C150.493 215.805 150.332 215.829 150.174 215.829C149.52 215.829 148.912 215.411 148.701 214.753ZM86.3089 214.694C85.5026 214.403 85.0839 213.515 85.3723 212.709C85.6638 211.905 86.5508 211.487 87.3571 211.775C88.1635 212.064 88.5821 212.954 88.2906 213.757C88.0642 214.393 87.4688 214.787 86.833 214.787C86.6593 214.787 86.4795 214.756 86.3089 214.694ZM153.405 213.187C153.102 212.383 153.505 211.49 154.305 211.186C155.108 210.882 156.001 211.285 156.305 212.085C156.609 212.886 156.209 213.782 155.406 214.086C155.226 214.154 155.04 214.185 154.857 214.185C154.23 214.185 153.641 213.804 153.405 213.187ZM81.6011 212.867C80.8103 212.535 80.4381 211.626 80.77 210.835C81.0987 210.047 82.0074 209.672 82.7982 210.004C83.5891 210.336 83.9612 211.242 83.6294 212.033C83.3813 212.628 82.8044 212.985 82.1997 212.985C81.9981 212.985 81.7965 212.948 81.6011 212.867ZM158.017 211.384C157.673 210.6 158.029 209.684 158.814 209.343C159.599 208.999 160.514 209.356 160.858 210.14C161.202 210.922 160.845 211.837 160.061 212.182C159.856 212.271 159.645 212.315 159.437 212.315C158.842 212.315 158.271 211.967 158.017 211.384ZM76.9957 210.801C76.2235 210.429 75.8978 209.505 76.2669 208.732C76.6359 207.957 77.5632 207.631 78.3354 208.003C79.1077 208.372 79.4333 209.3 79.0643 210.072C78.7975 210.627 78.2424 210.953 77.6625 210.953C77.4392 210.953 77.2128 210.904 76.9957 210.801ZM162.533 209.353C162.151 208.586 162.461 207.656 163.224 207.271C163.99 206.89 164.924 207.2 165.305 207.963C165.69 208.729 165.38 209.663 164.614 210.044C164.39 210.156 164.155 210.209 163.919 210.209C163.351 210.209 162.805 209.895 162.533 209.353ZM72.5019 208.506C71.7483 208.096 71.4692 207.153 71.8786 206.403C72.2879 205.649 73.2276 205.37 73.9812 205.779C74.7349 206.189 75.014 207.128 74.6046 207.882C74.3224 208.4 73.789 208.692 73.24 208.692C72.9888 208.692 72.7376 208.633 72.5019 208.506ZM166.943 207.094C166.521 206.347 166.781 205.401 167.526 204.979C168.27 204.557 169.216 204.821 169.638 205.565C170.059 206.313 169.796 207.259 169.051 207.681C168.81 207.817 168.549 207.882 168.289 207.882C167.749 207.882 167.225 207.597 166.939 207.094H166.943ZM68.1291 205.984C67.4003 205.537 67.1677 204.582 67.6143 203.853C68.0609 203.121 69.0161 202.891 69.748 203.338C70.4799 203.785 70.7094 204.737 70.2628 205.469C69.9713 205.947 69.4595 206.21 68.9385 206.21C68.6625 206.21 68.3834 206.139 68.1291 205.984ZM171.232 204.613C170.773 203.89 170.987 202.932 171.709 202.472C172.435 202.013 173.39 202.227 173.849 202.95C174.308 203.673 174.094 204.631 173.372 205.09C173.114 205.255 172.826 205.332 172.54 205.332C172.029 205.332 171.526 205.078 171.232 204.613ZM63.8958 203.248C63.1856 202.764 63.0058 201.799 63.4865 201.092C63.9703 200.385 64.9348 200.202 65.6418 200.686C66.3489 201.167 66.5319 202.134 66.0481 202.842C65.7504 203.282 65.2635 203.518 64.7673 203.518C64.4665 203.518 64.1625 203.431 63.8958 203.248ZM175.391 201.917C174.897 201.219 175.062 200.251 175.763 199.755C176.46 199.262 177.428 199.426 177.924 200.127C178.417 200.825 178.25 201.793 177.552 202.289C177.279 202.482 176.969 202.575 176.659 202.575C176.172 202.575 175.694 202.345 175.391 201.917ZM59.8021 200.301C59.1198 199.783 58.9896 198.809 59.5044 198.127C60.0223 197.444 60.9961 197.311 61.6784 197.829C62.3607 198.347 62.494 199.321 61.9761 200.003C61.6722 200.403 61.207 200.617 60.7387 200.617C60.4131 200.617 60.0812 200.512 59.8021 200.301ZM179.413 199.017C178.883 198.344 179 197.367 179.673 196.839C180.346 196.309 181.32 196.427 181.851 197.1C182.381 197.773 182.263 198.75 181.59 199.277C181.305 199.501 180.967 199.609 180.632 199.609C180.173 199.609 179.717 199.405 179.413 199.017ZM55.8666 197.153C55.2091 196.6 55.1254 195.623 55.6774 194.966C56.2294 194.311 57.2063 194.228 57.8638 194.78C58.5182 195.329 58.6019 196.309 58.0499 196.963C57.7429 197.329 57.3056 197.516 56.8621 197.516C56.5116 197.516 56.155 197.398 55.8666 197.153ZM183.283 195.915C182.719 195.27 182.787 194.29 183.432 193.728C184.08 193.167 185.06 193.235 185.622 193.88C186.183 194.525 186.115 195.505 185.47 196.067C185.175 196.324 184.812 196.448 184.452 196.448C184.018 196.448 183.587 196.269 183.283 195.915ZM52.0923 193.812C51.4658 193.229 51.4317 192.245 52.0148 191.619C52.5978 190.992 53.5778 190.958 54.2074 191.541C54.8338 192.124 54.8679 193.105 54.2849 193.731C53.9779 194.06 53.5654 194.227 53.1498 194.227C52.7715 194.227 52.3931 194.088 52.0923 193.812ZM186.992 192.624C186.397 192.007 186.419 191.026 187.033 190.431C187.65 189.838 188.633 189.857 189.225 190.471C189.821 191.088 189.802 192.072 189.185 192.664C188.884 192.956 188.497 193.098 188.109 193.098C187.703 193.098 187.296 192.94 186.992 192.624ZM48.4917 190.285C47.8962 189.671 47.9086 188.687 48.5258 188.092C49.1399 187.496 50.1199 187.509 50.7184 188.123C51.3139 188.74 51.2984 189.72 50.6843 190.316C50.3835 190.611 49.9958 190.756 49.605 190.756C49.2019 190.756 48.7956 190.598 48.4917 190.285ZM190.534 189.15C189.911 188.563 189.88 187.58 190.466 186.957C191.052 186.333 192.032 186.302 192.659 186.888C193.282 187.475 193.313 188.458 192.727 189.081C192.42 189.404 192.007 189.568 191.595 189.568C191.213 189.568 190.832 189.429 190.534 189.15ZM45.0741 186.584C44.5096 185.939 44.5747 184.959 45.2167 184.394C45.8618 183.83 46.8387 183.895 47.4062 184.537C47.9707 185.182 47.9055 186.159 47.2636 186.727C46.9689 186.984 46.603 187.112 46.2401 187.112C45.8091 187.112 45.3811 186.932 45.0741 186.584ZM193.899 185.499C193.245 184.943 193.164 183.966 193.719 183.315C194.271 182.66 195.251 182.58 195.906 183.135C196.557 183.69 196.637 184.667 196.082 185.322C195.775 185.682 195.338 185.868 194.901 185.868C194.544 185.868 194.191 185.747 193.899 185.499ZM41.8487 182.716C41.3153 182.046 41.43 181.069 42.0999 180.536C42.7729 180.005 43.7467 180.117 44.277 180.79C44.8073 181.46 44.6957 182.437 44.0227 182.967C43.7374 183.194 43.3994 183.302 43.0613 183.302C42.6054 183.302 42.1526 183.104 41.8456 182.716H41.8487ZM197.075 181.686C196.396 181.165 196.265 180.191 196.786 179.512C197.307 178.833 198.281 178.702 198.96 179.223C199.64 179.745 199.77 180.719 199.249 181.398C198.942 181.795 198.483 182.006 198.014 182.006C197.686 182.006 197.354 181.9 197.075 181.686ZM38.8218 178.693C38.3225 177.995 38.4838 177.027 39.1816 176.528C39.8794 176.032 40.847 176.193 41.3432 176.891C41.8425 177.589 41.6812 178.557 40.9834 179.053C40.7105 179.248 40.3973 179.341 40.0841 179.341C39.6003 179.341 39.1227 179.115 38.8218 178.693ZM200.055 177.716C199.351 177.229 199.171 176.264 199.658 175.557C200.145 174.853 201.11 174.673 201.814 175.16C202.521 175.647 202.697 176.612 202.211 177.319C201.91 177.753 201.426 177.989 200.933 177.989C200.629 177.989 200.325 177.899 200.055 177.716ZM35.9997 174.521C35.5376 173.801 35.7485 172.843 36.4711 172.381C37.1906 171.918 38.1489 172.126 38.611 172.849C39.073 173.572 38.8622 174.53 38.1427 174.992C37.8821 175.157 37.5937 175.237 37.3053 175.237C36.7967 175.237 36.2943 174.983 35.9997 174.521ZM202.834 173.6C202.105 173.15 201.879 172.194 202.325 171.465C202.775 170.733 203.73 170.51 204.462 170.96C205.191 171.407 205.417 172.362 204.968 173.094C204.673 173.569 204.164 173.829 203.646 173.829C203.367 173.829 203.085 173.755 202.834 173.6ZM33.3946 170.215C32.9666 169.471 33.2271 168.525 33.9714 168.1C34.7126 167.675 35.6616 167.932 36.0865 168.677C36.5114 169.421 36.2509 170.367 35.5097 170.792C35.2678 170.932 35.001 170.997 34.7405 170.997C34.204 170.997 33.6799 170.718 33.3946 170.215ZM205.399 169.347C204.648 168.934 204.375 167.991 204.788 167.241C205.2 166.49 206.143 166.214 206.893 166.626C207.644 167.039 207.917 167.982 207.504 168.733C207.222 169.248 206.692 169.539 206.146 169.539C205.892 169.539 205.637 169.477 205.399 169.347ZM31.0097 165.786C30.622 165.02 30.9259 164.086 31.692 163.701C32.4549 163.314 33.3884 163.621 33.776 164.384C34.1637 165.147 33.8567 166.081 33.0937 166.468C32.8674 166.58 32.6286 166.636 32.3929 166.636C31.8284 166.636 31.2826 166.322 31.0097 165.786ZM207.749 164.967C206.977 164.595 206.658 163.667 207.03 162.895C207.405 162.126 208.332 161.803 209.102 162.175C209.871 162.551 210.193 163.478 209.821 164.247C209.554 164.803 208.999 165.122 208.426 165.122C208.199 165.122 207.967 165.072 207.749 164.967ZM28.8512 161.238C28.5038 160.457 28.8574 159.542 29.6389 159.194C30.4204 158.847 31.3384 159.194 31.6858 159.982C32.0331 160.764 31.6796 161.682 30.898 162.029C30.6933 162.119 30.4794 162.163 30.2685 162.163C29.6761 162.163 29.1086 161.818 28.8512 161.238ZM209.874 160.475C209.083 160.14 208.717 159.231 209.049 158.44C209.384 157.653 210.292 157.283 211.083 157.618C211.871 157.95 212.24 158.862 211.905 159.65C211.657 160.243 211.08 160.596 210.475 160.596C210.274 160.596 210.069 160.559 209.874 160.475ZM26.9284 156.592C26.6213 155.794 27.0214 154.898 27.8184 154.591C28.6186 154.281 29.5149 154.681 29.8219 155.478C30.1289 156.278 29.7319 157.178 28.9318 157.485C28.7488 157.553 28.5628 157.587 28.3767 157.587C27.7533 157.587 27.1641 157.209 26.9284 156.592ZM211.766 155.878C210.962 155.584 210.547 154.693 210.841 153.89C211.133 153.083 212.023 152.671 212.829 152.962C213.633 153.257 214.048 154.147 213.754 154.951C213.524 155.58 212.932 155.971 212.299 155.971C212.122 155.971 211.942 155.94 211.766 155.878ZM25.2382 151.846C24.9715 151.03 25.418 150.155 26.2306 149.888C27.0462 149.622 27.9208 150.065 28.1875 150.881C28.4542 151.694 28.0107 152.572 27.1951 152.835C27.0369 152.888 26.8725 152.913 26.7144 152.913C26.06 152.913 25.4522 152.497 25.2382 151.846ZM213.425 151.188C212.606 150.937 212.147 150.068 212.398 149.249C212.649 148.43 213.518 147.971 214.337 148.223C215.155 148.474 215.614 149.342 215.363 150.161C215.158 150.828 214.544 151.256 213.881 151.256C213.729 151.256 213.577 151.235 213.425 151.188ZM23.7961 147.016C23.5728 146.188 24.0597 145.338 24.8846 145.115C25.7127 144.888 26.5624 145.375 26.7888 146.203C27.0121 147.028 26.5252 147.881 25.6972 148.105C25.5607 148.142 25.4242 148.161 25.2909 148.161C24.6086 148.161 23.9821 147.705 23.7961 147.016ZM214.839 146.433C214.005 146.222 213.502 145.378 213.713 144.547C213.924 143.719 214.768 143.216 215.596 143.424C216.427 143.635 216.929 144.479 216.721 145.307C216.545 146.011 215.912 146.479 215.22 146.479C215.093 146.479 214.966 146.464 214.839 146.433ZM22.599 142.121C22.416 141.284 22.9463 140.459 23.7837 140.275C24.621 140.092 25.4459 140.623 25.6289 141.46C25.8119 142.298 25.2785 143.123 24.4442 143.306C24.3326 143.331 24.2209 143.343 24.1124 143.343C23.3991 143.343 22.7571 142.847 22.599 142.121ZM216.005 141.609C215.168 141.442 214.622 140.626 214.789 139.785C214.957 138.945 215.772 138.399 216.613 138.566C217.453 138.734 217.996 139.553 217.832 140.393H217.829C217.683 141.129 217.035 141.64 216.312 141.64C216.21 141.64 216.107 141.631 216.005 141.609ZM21.65 137.17C21.5135 136.327 22.0841 135.526 22.9277 135.387C23.7744 135.247 24.5714 135.821 24.7109 136.665C24.8505 137.509 24.2799 138.309 23.4332 138.448C23.3495 138.464 23.2626 138.47 23.1789 138.47C22.4346 138.47 21.7771 137.93 21.65 137.17ZM216.929 136.733C216.083 136.612 215.496 135.824 215.621 134.974C215.745 134.127 216.532 133.541 217.379 133.665C218.226 133.789 218.812 134.577 218.688 135.427C218.576 136.196 217.912 136.752 217.156 136.752C217.081 136.752 217.004 136.745 216.929 136.733ZM20.9584 132.179C20.8591 131.33 21.4732 130.56 22.3229 130.464C23.1727 130.368 23.9418 130.979 24.038 131.829C24.1341 132.682 23.5231 133.448 22.6734 133.544C22.6145 133.554 22.5555 133.557 22.4966 133.557C21.7182 133.557 21.0483 132.97 20.9584 132.179ZM217.602 131.82C216.749 131.739 216.126 130.982 216.207 130.129C216.29 129.276 217.047 128.649 217.9 128.733C218.753 128.814 219.376 129.571 219.296 130.424C219.218 131.227 218.542 131.826 217.754 131.826C217.705 131.826 217.655 131.826 217.602 131.82ZM20.5149 127.161C20.4622 126.304 21.1103 125.569 21.9663 125.516C22.8192 125.461 23.5573 126.112 23.61 126.965C23.6627 127.821 23.0145 128.559 22.1586 128.612C22.1276 128.612 22.0934 128.615 22.0593 128.615C21.2499 128.615 20.5645 127.983 20.5149 127.161ZM218.03 126.878C217.174 126.838 216.514 126.112 216.551 125.259C216.588 124.4 217.314 123.739 218.17 123.779C219.026 123.817 219.689 124.542 219.649 125.399C219.612 126.23 218.923 126.878 218.102 126.878H218.03ZM20.3226 122.126C20.3102 121.27 20.9956 120.566 21.8515 120.553C22.7075 120.544 23.4115 121.23 23.4208 122.086C23.4301 122.942 22.7447 123.646 21.8888 123.655H21.8702C21.0204 123.655 20.3288 122.976 20.3164 122.126H20.3226ZM216.65 120.373C216.65 119.517 217.339 118.819 218.195 118.816C219.051 118.816 219.748 119.505 219.751 120.361C219.751 121.217 219.066 121.915 218.207 121.918H218.201C217.348 121.918 216.656 121.227 216.65 120.373ZM21.8764 118.695C21.0204 118.664 20.3505 117.945 20.3815 117.089C20.4156 116.232 21.1351 115.562 21.9911 115.593C22.8471 115.624 23.5138 116.344 23.4828 117.2C23.4518 118.038 22.7633 118.695 21.9322 118.695H21.8764ZM216.507 115.491C216.461 114.635 217.118 113.906 217.971 113.859C218.827 113.813 219.559 114.467 219.606 115.324C219.652 116.18 218.995 116.912 218.142 116.958H218.055C217.236 116.958 216.551 116.319 216.507 115.491ZM22.1028 113.738C21.2499 113.664 20.6203 112.913 20.6917 112.06C20.7692 111.204 21.5197 110.574 22.3726 110.649C23.2254 110.72 23.8581 111.474 23.7837 112.327C23.7123 113.137 23.0362 113.745 22.2392 113.745C22.1958 113.745 22.1493 113.742 22.1028 113.738ZM216.123 110.624C216.033 109.771 216.65 109.008 217.503 108.921C218.353 108.831 219.119 109.448 219.206 110.301C219.296 111.155 218.678 111.918 217.826 112.004C217.77 112.011 217.717 112.014 217.664 112.014C216.88 112.014 216.207 111.421 216.123 110.624ZM22.5804 108.8C21.7306 108.682 21.1382 107.901 21.2561 107.051C21.3739 106.204 22.1555 105.611 23.0052 105.726C23.8519 105.844 24.4442 106.626 24.3264 107.476C24.2209 108.251 23.5573 108.816 22.7943 108.816C22.723 108.816 22.6517 108.809 22.5804 108.8ZM215.49 105.782C215.36 104.938 215.94 104.144 216.784 104.011C217.63 103.88 218.424 104.457 218.554 105.304C218.688 106.151 218.111 106.945 217.261 107.075C217.18 107.088 217.1 107.094 217.022 107.094C216.272 107.094 215.611 106.548 215.49 105.782ZM23.3061 103.893C22.4625 103.732 21.9105 102.919 22.0686 102.078C22.2268 101.238 23.0393 100.685 23.8798 100.844C24.7233 101.005 25.2754 101.818 25.1141 102.658C24.9715 103.403 24.3233 103.921 23.5945 103.921C23.4983 103.921 23.3991 103.911 23.303 103.893H23.3061ZM214.616 100.98C214.442 100.143 214.982 99.3206 215.819 99.1469C216.656 98.9701 217.478 99.5067 217.652 100.347C217.826 101.185 217.286 102.007 216.449 102.181C216.343 102.205 216.235 102.215 216.129 102.215C215.413 102.215 214.768 101.712 214.613 100.98H214.616ZM24.2768 99.0259C23.4456 98.8243 22.9339 97.9837 23.1355 97.1524C23.3371 96.3211 24.1775 95.8092 25.0087 96.0109C25.8429 96.2156 26.3515 97.0531 26.1499 97.8844C25.9763 98.5948 25.3436 99.0694 24.6458 99.0694C24.5249 99.0694 24.4008 99.057 24.2768 99.0259ZM213.499 96.228C213.282 95.3998 213.778 94.5529 214.606 94.3327C215.434 94.1156 216.281 94.6119 216.501 95.4401C216.718 96.2714 216.222 97.1182 215.391 97.3354C215.261 97.3695 215.127 97.385 214.997 97.385C214.312 97.385 213.682 96.9228 213.499 96.228ZM25.4956 94.2179C24.6737 93.9729 24.2085 93.1074 24.4504 92.2885C24.6954 91.4665 25.5576 90.9981 26.3794 91.2432C27.2013 91.4882 27.6696 92.3537 27.4246 93.1726C27.223 93.8457 26.6058 94.28 25.9391 94.28C25.7902 94.28 25.6413 94.2614 25.4956 94.2179ZM212.144 91.5379C211.883 90.7221 212.336 89.8504 213.152 89.5898C213.968 89.3324 214.839 89.7822 215.1 90.6011C215.357 91.4169 214.904 92.2885 214.088 92.546C213.933 92.5956 213.775 92.6204 213.62 92.6204C212.963 92.6204 212.352 92.1986 212.144 91.5379ZM26.9563 89.4751C26.1499 89.1897 25.7251 88.3025 26.0135 87.496C26.2988 86.6864 27.1858 86.2646 27.9921 86.5499C28.7985 86.8384 29.2202 87.7225 28.9349 88.529C28.7116 89.168 28.1131 89.565 27.4742 89.565C27.3036 89.565 27.1269 89.534 26.9563 89.4751ZM210.547 86.9222C210.246 86.1219 210.652 85.2285 211.455 84.9276C212.259 84.6267 213.152 85.0331 213.453 85.8365C213.75 86.6368 213.347 87.5333 212.544 87.831C212.364 87.8993 212.181 87.9303 211.998 87.9303C211.372 87.9303 210.779 87.5457 210.547 86.9222ZM28.662 84.8036C27.8681 84.4779 27.4928 83.5721 27.8184 82.778C28.1472 81.987 29.0528 81.6117 29.8436 81.9374C30.6344 82.2631 31.0128 83.1688 30.6871 83.9629C30.439 84.5616 29.8622 84.9214 29.2512 84.9214C29.0559 84.9214 28.8543 84.8842 28.662 84.8036ZM208.723 82.4058C208.385 81.621 208.745 80.709 209.53 80.3678C210.317 80.0266 211.229 80.3864 211.57 81.1743C211.911 81.9591 211.549 82.871 210.764 83.2123C210.562 83.2991 210.355 83.3425 210.15 83.3425C209.548 83.3425 208.978 82.992 208.723 82.4058ZM30.6003 80.2282C29.825 79.8622 29.4962 78.9378 29.8622 78.1623C30.2281 77.3868 31.1554 77.058 31.9277 77.424C32.703 77.7901 33.0317 78.7145 32.6658 79.4899C32.3991 80.0514 31.8439 80.3771 31.264 80.3771C31.0407 80.3771 30.8143 80.3306 30.6003 80.2282ZM206.673 77.9855C206.295 77.2193 206.608 76.2887 207.377 75.9072C208.143 75.5288 209.074 75.8421 209.455 76.6113C209.834 77.3775 209.52 78.3081 208.751 78.6865C208.531 78.7982 208.295 78.8478 208.066 78.8478C207.495 78.8478 206.946 78.5314 206.673 77.9855ZM32.7712 75.7583C32.0145 75.352 31.7323 74.4121 32.1385 73.6583C32.5417 72.9014 33.4845 72.6191 34.2381 73.0255C34.9917 73.4319 35.274 74.3717 34.8708 75.1255C34.5886 75.6466 34.0551 75.9413 33.5031 75.9413C33.255 75.9413 33.0038 75.8824 32.7712 75.7583ZM204.403 73.6738C203.984 72.9262 204.251 71.9801 204.999 71.5614C205.746 71.1426 206.689 71.4094 207.107 72.157C207.526 72.9045 207.259 73.8506 206.512 74.2694C206.273 74.4028 206.013 74.4648 205.755 74.4648C205.213 74.4648 204.685 74.1794 204.403 73.6738ZM35.1623 71.4032C34.4304 70.9596 34.1947 70.0073 34.6382 69.2753C35.0817 68.5432 36.0338 68.3074 36.7657 68.751C37.5007 69.1946 37.7364 70.1469 37.2929 70.879C37.0014 71.3629 36.4897 71.6265 35.9624 71.6265C35.6895 71.6265 35.4135 71.5552 35.1623 71.4032ZM201.913 69.48C201.46 68.7541 201.677 67.7956 202.403 67.3396C203.125 66.8868 204.084 67.1039 204.54 67.8298C204.995 68.5556 204.778 69.511 204.05 69.967C203.795 70.1283 203.51 70.2058 203.228 70.2058C202.713 70.2058 202.207 69.9484 201.913 69.48ZM37.7705 67.1783C37.0634 66.6975 36.8773 65.7359 37.3549 65.0256C37.8356 64.3153 38.797 64.1291 39.5072 64.6099C40.2174 65.0876 40.4035 66.0523 39.9259 66.7627C39.6251 67.2063 39.1382 67.4451 38.6389 67.4451C38.3411 67.4451 38.0372 67.3583 37.7705 67.1783ZM199.218 65.4133C198.725 64.7123 198.895 63.7445 199.596 63.2544C200.297 62.7612 201.265 62.9318 201.755 63.6328C202.248 64.337 202.077 65.3017 201.376 65.7949C201.106 65.9841 200.796 66.0772 200.489 66.0741C199.999 66.0741 199.519 65.8445 199.218 65.4133ZM40.5896 63.09C39.9042 62.5751 39.7677 61.6042 40.2826 60.9186C40.7974 60.2331 41.7712 60.0966 42.4535 60.6115C43.1388 61.1265 43.2753 62.1005 42.7636 62.7829C42.4566 63.1893 41.9914 63.4033 41.52 63.4033C41.1974 63.4033 40.8687 63.3009 40.5896 63.09ZM196.315 61.4894C195.791 60.8132 195.912 59.8392 196.588 59.3118C197.264 58.7876 198.238 58.9086 198.765 59.5848C199.289 60.261 199.168 61.235 198.492 61.7624C198.21 61.9826 197.875 62.0881 197.54 62.0881C197.078 62.0881 196.622 61.8833 196.315 61.4894ZM43.6102 59.1505C42.9528 58.6015 42.8628 57.6244 43.4149 56.9668C43.9638 56.3092 44.9407 56.2192 45.5982 56.7682C46.2587 57.3173 46.3456 58.2944 45.7998 58.9551C45.4927 59.3211 45.0523 59.5104 44.6089 59.5104C44.2584 59.5104 43.908 59.3925 43.6164 59.1505H43.6102ZM193.223 57.7143C192.665 57.066 192.736 56.0858 193.384 55.5275C194.032 54.966 195.012 55.0405 195.571 55.6888C196.129 56.3371 196.058 57.3173 195.409 57.8756C195.118 58.13 194.755 58.2541 194.398 58.2541C193.961 58.2541 193.53 58.0711 193.223 57.7143ZM46.8232 55.3693C46.1936 54.7892 46.1564 53.8059 46.7363 53.1793C47.3163 52.5496 48.2994 52.5093 48.9259 53.0893C49.5585 53.6694 49.5957 54.6527 49.0158 55.2824C48.7088 55.6143 48.2932 55.7818 47.8776 55.7818C47.4993 55.7818 47.124 55.6453 46.8232 55.3693ZM189.942 54.0975C189.353 53.4802 189.374 52.4969 189.995 51.9075C190.612 51.315 191.595 51.3367 192.187 51.9571C192.776 52.5775 192.755 53.5577 192.134 54.1502C191.834 54.4356 191.449 54.5783 191.064 54.5783C190.655 54.5783 190.249 54.417 189.942 54.0975ZM50.2253 51.7555C49.6237 51.1413 49.633 50.1611 50.247 49.5624C50.858 48.9607 51.838 48.97 52.4396 49.5842C53.0382 50.1952 53.0289 51.1786 52.4179 51.7772C52.114 52.0719 51.7232 52.2208 51.3325 52.2208C50.9293 52.2208 50.5292 52.0657 50.2253 51.7555ZM186.484 50.6512C185.864 50.0619 185.836 49.0816 186.425 48.4582C187.014 47.8378 187.994 47.8098 188.618 48.3992C189.238 48.9886 189.266 49.9719 188.676 50.5923C188.373 50.9149 187.963 51.0762 187.551 51.0762C187.169 51.0762 186.785 50.9366 186.484 50.6512ZM53.798 48.3155C53.2305 47.6734 53.2894 46.6932 53.9314 46.1255C54.5733 45.5578 55.5533 45.6168 56.1209 46.2589C56.6884 46.901 56.6295 47.8781 55.9875 48.4488C55.6929 48.7094 55.3269 48.8366 54.961 48.8366C54.533 48.8366 54.105 48.6629 53.798 48.3155ZM182.855 47.3818C182.204 46.8234 182.127 45.8463 182.685 45.1949C183.24 44.5435 184.22 44.4691 184.871 45.0243C185.522 45.5827 185.597 46.5629 185.042 47.2112C184.735 47.571 184.297 47.754 183.86 47.754C183.503 47.754 183.144 47.633 182.852 47.3818H182.855ZM57.5413 45.0615C57.0078 44.3915 57.1164 43.4175 57.7832 42.8809C58.453 42.3473 59.4269 42.4559 59.9634 43.1228C60.4968 43.7928 60.3883 44.7699 59.7215 45.3035C59.4362 45.533 59.0919 45.6447 58.7539 45.6447C58.298 45.6447 57.8483 45.4431 57.5413 45.0615ZM179.069 44.2985C178.393 43.7742 178.265 42.8002 178.79 42.1209C179.314 41.4447 180.287 41.3206 180.964 41.8417C181.64 42.3659 181.764 43.3431 181.24 44.0193C180.936 44.4132 180.477 44.6211 180.011 44.6211C179.683 44.6211 179.348 44.5156 179.066 44.2985H179.069ZM61.4427 41.9999C60.9403 41.3051 61.0984 40.3373 61.7931 39.8348C62.4878 39.3354 63.4585 39.4904 63.9578 40.1853C64.4572 40.8801 64.3021 41.851 63.6074 42.3504C63.3314 42.549 63.0151 42.6451 62.7018 42.6451C62.2211 42.6451 61.7435 42.4218 61.4427 41.9999ZM175.13 41.4074C174.426 40.9173 174.252 39.9526 174.739 39.2485C175.229 38.5444 176.197 38.3707 176.898 38.8608C177.602 39.3509 177.775 40.3156 177.285 41.0197C176.985 41.454 176.504 41.6866 176.014 41.6866C175.707 41.6866 175.4 41.5967 175.13 41.4074ZM65.4899 39.1399C65.0247 38.4203 65.2294 37.4587 65.9489 36.9934C66.6653 36.5281 67.6267 36.7359 68.0919 37.4556C68.5571 38.1752 68.3493 39.1337 67.6298 39.599C67.3724 39.7696 67.0778 39.8503 66.7893 39.8503C66.2838 39.8503 65.7845 39.599 65.4868 39.1399H65.4899ZM171.049 38.7181C170.32 38.2652 170.1 37.3098 170.553 36.5839C171.005 35.855 171.96 35.6347 172.686 36.0876C173.415 36.5405 173.635 37.4959 173.186 38.2218C172.891 38.6964 172.385 38.9538 171.867 38.9538C171.585 38.9538 171.303 38.8794 171.049 38.7181ZM69.6766 36.4878C69.2487 35.7464 69.503 34.7972 70.2442 34.3692C70.9854 33.9411 71.9344 34.1954 72.3624 34.9368C72.7903 35.6782 72.536 36.6274 71.7948 37.0554C71.5498 37.195 71.2831 37.2633 71.0195 37.2633C70.4861 37.2633 69.9651 36.9841 69.6766 36.4878ZM166.834 36.2396C166.087 35.824 165.817 34.881 166.232 34.1303C166.648 33.3827 167.591 33.1129 168.341 33.5285C169.089 33.9442 169.359 34.8872 168.943 35.6378C168.661 36.1466 168.133 36.435 167.588 36.435C167.333 36.435 167.073 36.373 166.834 36.2396ZM73.9905 34.0497C73.5998 33.2866 73.9006 32.3529 74.6635 31.962C75.4264 31.5743 76.3599 31.8752 76.7507 32.6383C77.1415 33.3982 76.8375 34.335 76.0777 34.7259C75.8544 34.8406 75.6125 34.8965 75.3737 34.8965C74.8124 34.8965 74.2665 34.5863 73.9936 34.0497H73.9905ZM162.502 33.9783C161.732 33.5999 161.416 32.6724 161.791 31.9031C162.17 31.1338 163.097 30.8143 163.866 31.1928C164.635 31.5681 164.955 32.4987 164.576 33.268C164.306 33.817 163.758 34.1365 163.184 34.1365C162.954 34.1365 162.722 34.0838 162.502 33.9783ZM78.4192 31.8349C78.0656 31.0532 78.4192 30.135 79.1976 29.7845C79.9791 29.434 80.8971 29.7845 81.2476 30.5631C81.598 31.3448 81.2476 32.2629 80.4691 32.6135C80.2614 32.7065 80.0474 32.7499 79.8334 32.7499C79.241 32.7499 78.6766 32.4087 78.4192 31.8349ZM158.057 31.9372C157.27 31.5991 156.907 30.6872 157.242 29.9024C157.58 29.1145 158.492 28.7484 159.279 29.0866C160.067 29.4247 160.43 30.3366 160.095 31.1214C159.844 31.7108 159.27 32.0644 158.668 32.0644C158.464 32.0644 158.256 32.0241 158.057 31.9372ZM82.9533 29.8496C82.6432 29.0524 83.037 28.1529 83.8341 27.8396C84.6311 27.5294 85.5305 27.9233 85.8437 28.7236C86.1538 29.5208 85.7569 30.4204 84.9598 30.7306C84.7768 30.8019 84.5846 30.836 84.3985 30.836C83.7782 30.836 83.1921 30.4607 82.9533 29.8496ZM153.514 30.1257C152.714 29.8279 152.301 28.9377 152.599 28.1343C152.894 27.3309 153.787 26.9183 154.59 27.2161C155.393 27.5139 155.803 28.4041 155.508 29.2075C155.276 29.8341 154.683 30.2219 154.054 30.2219C153.874 30.2219 153.691 30.1908 153.514 30.1257ZM87.5928 28.0908C87.3199 27.2781 87.7603 26.4003 88.5728 26.1304C89.3885 25.8605 90.2661 26.301 90.536 27.1137C90.8058 27.9264 90.3654 28.8043 89.5528 29.0741C89.3916 29.1269 89.2241 29.1548 89.0628 29.1548C88.4147 29.1548 87.8099 28.7422 87.5928 28.0908ZM148.884 28.5468C148.065 28.2925 147.609 27.4239 147.867 26.605C148.121 25.7861 148.992 25.3301 149.808 25.5876C150.627 25.8419 151.083 26.7136 150.825 27.5294C150.617 28.1932 150.006 28.6182 149.346 28.6182C149.194 28.6182 149.039 28.5964 148.884 28.5468ZM92.313 26.5709C92.0866 25.7458 92.5704 24.8927 93.3954 24.6632C94.2203 24.4367 95.0763 24.9207 95.3027 25.7458C95.5321 26.5709 95.0483 27.427 94.2234 27.6535C94.0838 27.6907 93.9443 27.7093 93.8078 27.7093C93.1286 27.7093 92.5053 27.2595 92.313 26.5709ZM144.188 27.2099C143.36 26.9989 142.861 26.1521 143.075 25.3208C143.286 24.4926 144.133 23.9932 144.961 24.2072C145.792 24.4212 146.291 25.265 146.077 26.0963C145.897 26.7942 145.268 27.2595 144.576 27.2595C144.449 27.2595 144.319 27.244 144.188 27.2099ZM97.1076 25.296C96.9215 24.4585 97.4487 23.6302 98.283 23.4441C99.1203 23.258 99.9484 23.7853 100.134 24.6229C100.321 25.4573 99.7933 26.2855 98.9591 26.4716C98.8443 26.4964 98.7296 26.5088 98.6179 26.5088C97.9077 26.5088 97.2689 26.0187 97.1076 25.296ZM139.431 26.1149C138.594 25.9443 138.051 25.1254 138.221 24.2848C138.395 23.4441 139.214 22.9044 140.051 23.075C140.892 23.2456 141.431 24.0645 141.261 24.9051C141.112 25.6403 140.467 26.1459 139.744 26.1459C139.642 26.1459 139.536 26.1366 139.431 26.1149ZM101.958 24.263C101.815 23.4193 102.386 22.619 103.23 22.4763C104.073 22.3305 104.873 22.9013 105.019 23.745C105.162 24.5887 104.591 25.389 103.747 25.5348C103.661 25.5472 103.574 25.5565 103.487 25.5565C102.743 25.5565 102.088 25.0199 101.958 24.263ZM134.627 25.2619C133.78 25.1316 133.197 24.3437 133.325 23.4969C133.455 22.6469 134.243 22.0669 135.092 22.194C135.939 22.3212 136.522 23.1122 136.392 23.9622C136.277 24.7283 135.613 25.2805 134.86 25.2805C134.782 25.2805 134.705 25.2743 134.627 25.2619ZM106.858 23.4814C106.759 22.6283 107.367 21.859 108.216 21.7598C109.066 21.6574 109.835 22.2654 109.938 23.1153C110.037 23.9684 109.429 24.7376 108.579 24.8369C108.517 24.8462 108.455 24.8493 108.393 24.8493C107.621 24.8493 106.951 24.2692 106.858 23.4814ZM129.783 24.6539C128.93 24.567 128.31 23.8071 128.393 22.954C128.48 22.101 129.24 21.4806 130.093 21.5644C130.946 21.6512 131.566 22.4112 131.482 23.2642C131.402 24.0645 130.726 24.6601 129.938 24.6601C129.888 24.6601 129.836 24.657 129.783 24.6539ZM111.789 22.9447C111.73 22.0917 112.378 21.3503 113.231 21.2945C114.087 21.2355 114.825 21.8808 114.881 22.7369C114.94 23.5899 114.295 24.3313 113.439 24.3871C113.405 24.3871 113.371 24.3933 113.334 24.3933C112.527 24.3933 111.845 23.7636 111.789 22.9447ZM124.914 24.2879C124.061 24.2444 123.4 23.5186 123.444 22.6624C123.487 21.8063 124.213 21.1487 125.069 21.189C125.925 21.2324 126.582 21.9614 126.539 22.8144C126.499 23.6458 125.813 24.291 124.994 24.291C124.967 24.291 124.942 24.2879 124.914 24.2879ZM116.742 22.6562C116.726 21.8001 117.409 21.096 118.265 21.0805C118.593 21.0742 118.897 21.1704 119.152 21.341C119.403 21.1673 119.707 21.0649 120.035 21.0649C120.891 21.0649 121.586 21.7598 121.586 22.6159C121.586 23.472 120.891 24.1669 120.035 24.1669C119.716 24.1669 119.421 24.0707 119.173 23.9063C118.931 24.0738 118.637 24.1762 118.317 24.1824H118.289C117.446 24.1824 116.757 23.5031 116.742 22.6562Z" fill="url(#paint2_linear_1203_4890)"/>
<path d="M120.969 239.286C120.951 238.43 121.63 237.723 122.486 237.704C123.342 237.686 124.052 238.365 124.07 239.221C124.086 240.08 123.407 240.788 122.551 240.806H122.517C121.676 240.806 120.985 240.133 120.969 239.286ZM125.928 239.144C125.875 238.29 126.524 237.555 127.379 237.5C128.232 237.447 128.97 238.098 129.023 238.951C129.076 239.807 128.428 240.543 127.572 240.595C127.538 240.595 127.507 240.595 127.473 240.595C126.66 240.595 125.978 239.962 125.928 239.14V239.144ZM130.875 238.799C130.788 237.946 131.405 237.183 132.258 237.096C133.108 237.006 133.871 237.624 133.96 238.477C134.05 239.327 133.43 240.09 132.58 240.18C132.525 240.186 132.469 240.189 132.416 240.189C131.631 240.189 130.958 239.596 130.875 238.799ZM135.806 238.244C135.682 237.397 136.265 236.609 137.114 236.485C137.961 236.361 138.749 236.944 138.873 237.794C138.997 238.641 138.411 239.429 137.564 239.553C137.49 239.565 137.412 239.568 137.338 239.568C136.581 239.568 135.917 239.016 135.806 238.244ZM140.706 237.484C140.548 236.643 141.1 235.831 141.94 235.669C142.781 235.511 143.593 236.063 143.754 236.904C143.913 237.745 143.36 238.557 142.52 238.719C142.421 238.737 142.325 238.746 142.229 238.746C141.497 238.746 140.848 238.228 140.706 237.484ZM145.572 236.516C145.376 235.685 145.894 234.85 146.728 234.655C147.563 234.46 148.397 234.978 148.592 235.809C148.788 236.643 148.27 237.478 147.436 237.673C147.318 237.701 147.197 237.714 147.082 237.714C146.375 237.714 145.739 237.233 145.572 236.516ZM150.394 235.347C150.162 234.522 150.645 233.666 151.47 233.436C152.295 233.206 153.151 233.687 153.384 234.512C153.613 235.337 153.133 236.194 152.308 236.423C152.168 236.463 152.029 236.482 151.889 236.482C151.21 236.482 150.586 236.032 150.397 235.347H150.394ZM155.161 233.973C154.894 233.16 155.341 232.285 156.153 232.018C156.969 231.755 157.844 232.198 158.107 233.014C158.374 233.827 157.93 234.702 157.115 234.968C156.953 235.021 156.792 235.046 156.634 235.046C155.98 235.046 155.372 234.627 155.161 233.973ZM159.866 232.4C159.565 231.597 159.974 230.703 160.777 230.405C161.581 230.104 162.474 230.514 162.775 231.314C163.072 232.118 162.666 233.011 161.863 233.312C161.683 233.377 161.5 233.408 161.32 233.408C160.694 233.408 160.101 233.023 159.869 232.4H159.866ZM164.487 230.635C164.155 229.844 164.524 228.935 165.315 228.603H165.311C166.102 228.268 167.011 228.64 167.343 229.428C167.678 230.216 167.306 231.128 166.518 231.46C166.322 231.544 166.118 231.584 165.916 231.584C165.311 231.584 164.735 231.227 164.487 230.635ZM169.033 228.674C168.667 227.899 168.999 226.975 169.771 226.609C170.546 226.243 171.471 226.574 171.837 227.35C172.203 228.125 171.871 229.05 171.095 229.416C170.881 229.515 170.658 229.565 170.435 229.565C169.855 229.565 169.297 229.236 169.033 228.674ZM173.493 226.525C173.096 225.768 173.387 224.828 174.144 224.431C174.904 224.034 175.84 224.326 176.24 225.082C176.637 225.842 176.343 226.779 175.586 227.176C175.357 227.297 175.108 227.356 174.867 227.356C174.308 227.356 173.769 227.052 173.493 226.525ZM177.859 224.189C177.431 223.448 177.686 222.499 178.424 222.07C179.165 221.639 180.114 221.894 180.545 222.635C180.973 223.376 180.719 224.326 179.981 224.757C179.739 224.896 179.469 224.965 179.205 224.965C178.672 224.965 178.151 224.685 177.862 224.189H177.859ZM182.127 221.673C181.668 220.951 181.882 219.992 182.604 219.533C183.327 219.074 184.285 219.285 184.744 220.008C185.206 220.73 184.992 221.689 184.27 222.148C184.012 222.316 183.724 222.393 183.439 222.393C182.927 222.393 182.424 222.139 182.127 221.673ZM186.289 218.981C185.799 218.277 185.972 217.312 186.676 216.822C187.377 216.332 188.345 216.506 188.835 217.207C189.322 217.911 189.151 218.879 188.447 219.366C188.177 219.555 187.87 219.645 187.563 219.645C187.073 219.645 186.589 219.412 186.289 218.981ZM190.333 216.115C189.815 215.432 189.948 214.461 190.63 213.943C191.313 213.425 192.287 213.556 192.804 214.238C193.322 214.921 193.189 215.895 192.507 216.413C192.228 216.623 191.896 216.729 191.57 216.729C191.102 216.729 190.64 216.518 190.333 216.115ZM194.259 213.084C193.713 212.423 193.803 211.446 194.464 210.9C195.124 210.354 196.101 210.448 196.647 211.105C197.193 211.766 197.1 212.743 196.442 213.289C196.151 213.531 195.803 213.646 195.453 213.646C195.006 213.646 194.566 213.456 194.259 213.084ZM198.055 209.892C197.481 209.256 197.531 208.273 198.17 207.702C198.805 207.128 199.785 207.181 200.359 207.817C200.93 208.453 200.88 209.433 200.244 210.007C199.947 210.274 199.575 210.404 199.205 210.404C198.781 210.404 198.359 210.233 198.055 209.892ZM201.714 206.542C201.116 205.931 201.125 204.948 201.736 204.352C202.35 203.75 203.33 203.763 203.929 204.374C204.53 204.988 204.518 205.968 203.907 206.567C203.603 206.862 203.212 207.011 202.822 207.011C202.418 207.011 202.018 206.855 201.714 206.542ZM205.234 203.046C204.608 202.46 204.58 201.477 205.166 200.853C205.752 200.23 206.732 200.199 207.359 200.788C207.982 201.374 208.01 202.355 207.424 202.978C207.12 203.304 206.708 203.468 206.295 203.468C205.914 203.468 205.532 203.329 205.234 203.046ZM208.606 199.405C207.957 198.843 207.886 197.863 208.447 197.218C209.006 196.569 209.986 196.498 210.634 197.06C211.282 197.621 211.353 198.598 210.792 199.246C210.485 199.6 210.054 199.783 209.62 199.783C209.26 199.783 208.897 199.659 208.606 199.405ZM211.822 195.626C211.152 195.093 211.04 194.116 211.573 193.446C212.107 192.776 213.081 192.664 213.754 193.198C214.424 193.731 214.535 194.705 214.002 195.375C213.695 195.763 213.245 195.961 212.789 195.961C212.448 195.961 212.107 195.853 211.822 195.626ZM214.883 191.715C214.188 191.209 214.039 190.238 214.541 189.55C215.047 188.855 216.018 188.703 216.709 189.209C217.401 189.714 217.553 190.682 217.047 191.377C216.743 191.792 216.272 192.013 215.794 192.013C215.478 192.013 215.159 191.917 214.883 191.715ZM217.776 187.679C217.063 187.205 216.87 186.24 217.345 185.53C217.819 184.816 218.784 184.624 219.497 185.098C220.211 185.576 220.403 186.538 219.925 187.251C219.628 187.698 219.134 187.94 218.635 187.94C218.337 187.94 218.04 187.856 217.776 187.679ZM220.499 183.526C219.767 183.079 219.535 182.127 219.981 181.395C220.425 180.663 221.38 180.43 222.112 180.877C222.844 181.32 223.076 182.276 222.63 183.008C222.338 183.489 221.826 183.752 221.305 183.752C221.029 183.752 220.75 183.681 220.499 183.526ZM223.048 179.261C222.298 178.848 222.025 177.905 222.44 177.154C222.853 176.404 223.796 176.131 224.546 176.546C225.297 176.959 225.57 177.905 225.154 178.656C224.872 179.164 224.342 179.456 223.796 179.456C223.541 179.456 223.284 179.394 223.048 179.261ZM225.415 174.893C224.649 174.512 224.338 173.578 224.72 172.812C225.101 172.046 226.032 171.735 226.798 172.117C227.567 172.498 227.877 173.429 227.496 174.198C227.223 174.741 226.677 175.054 226.106 175.054C225.874 175.054 225.638 175.005 225.415 174.893ZM227.598 170.426C226.816 170.076 226.466 169.161 226.816 168.379C227.167 167.597 228.082 167.247 228.863 167.594C229.645 167.945 229.998 168.863 229.648 169.645C229.39 170.222 228.823 170.563 228.231 170.563C228.02 170.563 227.803 170.519 227.598 170.426ZM229.592 165.873C228.795 165.556 228.407 164.654 228.724 163.86C229.04 163.062 229.942 162.671 230.736 162.988C231.533 163.304 231.921 164.207 231.605 165.004C231.363 165.612 230.78 165.981 230.166 165.981C229.973 165.981 229.778 165.947 229.592 165.873ZM231.391 161.235C230.584 160.953 230.156 160.069 230.439 159.259C230.721 158.45 231.605 158.025 232.414 158.307C233.224 158.589 233.648 159.473 233.366 160.283C233.143 160.922 232.544 161.322 231.902 161.322C231.735 161.322 231.561 161.294 231.391 161.235ZM232.994 156.527C232.175 156.278 231.71 155.41 231.958 154.591C232.206 153.772 233.072 153.307 233.894 153.555C234.712 153.803 235.174 154.668 234.926 155.487C234.725 156.161 234.107 156.592 233.444 156.592C233.295 156.592 233.143 156.57 232.994 156.527ZM234.393 151.765C233.562 151.551 233.062 150.707 233.276 149.876C233.49 149.045 234.334 148.548 235.165 148.759C235.993 148.973 236.492 149.817 236.282 150.648C236.102 151.349 235.472 151.815 234.78 151.815C234.653 151.815 234.523 151.796 234.393 151.765ZM235.587 146.948C234.749 146.771 234.216 145.946 234.393 145.108C234.57 144.271 235.395 143.737 236.232 143.914C237.069 144.091 237.606 144.916 237.429 145.754C237.274 146.482 236.632 146.982 235.916 146.982C235.807 146.982 235.698 146.973 235.59 146.948H235.587ZM236.579 142.087C235.736 141.944 235.165 141.144 235.308 140.3C235.45 139.457 236.25 138.886 237.094 139.029C237.941 139.171 238.508 139.971 238.366 140.815C238.238 141.572 237.584 142.109 236.84 142.109C236.753 142.109 236.666 142.103 236.579 142.087ZM237.367 137.189C236.517 137.08 235.912 136.305 236.021 135.455C236.126 134.605 236.902 134.003 237.752 134.112C238.601 134.217 239.203 134.993 239.097 135.843C238.998 136.628 238.331 137.201 237.562 137.201C237.497 137.201 237.432 137.195 237.367 137.189ZM237.944 132.26C237.091 132.189 236.458 131.441 236.53 130.588H236.526C236.601 129.732 237.348 129.099 238.201 129.171C239.057 129.239 239.69 129.989 239.618 130.846C239.55 131.655 238.874 132.266 238.074 132.266C238.031 132.266 237.987 132.263 237.944 132.26ZM238.316 127.312C237.463 127.278 236.796 126.556 236.834 125.699C236.868 124.843 237.59 124.18 238.446 124.214C239.302 124.251 239.966 124.974 239.932 125.827C239.898 126.661 239.209 127.316 238.384 127.316C238.362 127.316 238.341 127.312 238.316 127.312ZM236.933 120.805C236.933 119.945 237.627 119.254 238.483 119.254C239.339 119.254 240.034 119.945 240.034 120.805C240.034 121.661 239.339 122.356 238.483 122.356C237.627 122.356 236.933 121.661 236.933 120.805Z" fill="url(#paint3_linear_1203_4890)"/>
</g>
<defs>
<linearGradient id="paint0_linear_1203_4890" x1="22.5762" y1="116.806" x2="213.231" y2="116.806" gradientUnits="userSpaceOnUse">
<stop stop-color="#8CD6D6"/>
<stop offset="1" stop-color="#FF9F80"/>
</linearGradient>
<linearGradient id="paint1_linear_1203_4890" x1="0.0332031" y1="61.5821" x2="119.101" y2="61.5821" gradientUnits="userSpaceOnUse">
<stop stop-color="#8CD6D6"/>
<stop offset="1" stop-color="#FF9F80"/>
</linearGradient>
<linearGradient id="paint2_linear_1203_4890" x1="20.3226" y1="120.802" x2="219.751" y2="120.802" gradientUnits="userSpaceOnUse">
<stop stop-color="#8CD6D6"/>
<stop offset="1" stop-color="#FF9F80"/>
</linearGradient>
<linearGradient id="paint3_linear_1203_4890" x1="120.969" y1="180.03" x2="240.034" y2="180.03" gradientUnits="userSpaceOnUse">
<stop stop-color="#8CD6D6"/>
<stop offset="1" stop-color="#FF9F80"/>
</linearGradient>
<clipPath id="clip0_1203_4890">
<rect width="240" height="240" fill="white" transform="translate(0.0332031 0.806152)"/>
</clipPath>
</defs>
</svg>
