<svg width="212" height="210" viewBox="0 0 212 210" fill="none" xmlns="http://www.w3.org/2000/svg">
<g clip-path="url(#clip0_1203_3958)">
<path d="M159.319 169.421C158.659 169.137 158.355 168.374 158.638 167.712C158.919 167.05 159.686 166.745 160.344 167.029C161.004 167.313 161.308 168.079 161.025 168.738C160.814 169.233 160.336 169.528 159.832 169.528C159.66 169.528 159.486 169.494 159.319 169.421ZM160.879 165.557C160.193 165.343 159.811 164.611 160.024 163.926C160.237 163.238 160.968 162.855 161.654 163.071C162.338 163.285 162.72 164.015 162.507 164.702C162.333 165.26 161.821 165.617 161.267 165.617C161.137 165.617 161.007 165.599 160.879 165.557ZM162.05 161.558C161.35 161.401 160.908 160.706 161.061 160.002C161.217 159.301 161.912 158.858 162.614 159.012C163.313 159.168 163.758 159.867 163.599 160.567C163.467 161.175 162.928 161.589 162.333 161.589C162.239 161.589 162.146 161.578 162.05 161.558ZM162.895 157.475C162.185 157.368 161.696 156.706 161.8 155.992C161.907 155.281 162.57 154.791 163.279 154.898C163.989 155.005 164.478 155.667 164.374 156.38C164.278 157.024 163.724 157.488 163.092 157.488C163.027 157.488 162.962 157.488 162.897 157.475H162.895ZM163.461 153.345C162.746 153.28 162.219 152.649 162.281 151.93C162.343 151.214 162.978 150.685 163.693 150.75C164.408 150.812 164.936 151.446 164.871 152.162C164.811 152.84 164.244 153.35 163.578 153.35C163.539 153.35 163.5 153.348 163.461 153.345ZM163.786 149.187C163.069 149.161 162.51 148.556 162.536 147.837C162.559 147.118 163.165 146.555 163.88 146.581C164.598 146.607 165.159 147.212 165.133 147.931C165.107 148.634 164.53 149.187 163.836 149.187H163.786ZM162.585 143.728C162.577 143.009 163.155 142.42 163.87 142.412C164.59 142.405 165.177 142.98 165.185 143.699C165.193 144.419 164.618 145.01 163.898 145.018H163.885C163.173 145.018 162.593 144.442 162.585 143.728ZM162.45 139.617C162.411 138.9 162.96 138.285 163.677 138.246C164.392 138.207 165.006 138.757 165.045 139.476C165.086 140.192 164.535 140.807 163.818 140.846C163.794 140.849 163.771 140.849 163.747 140.849C163.061 140.849 162.486 140.312 162.45 139.617ZM162.141 135.513C162.07 134.796 162.596 134.161 163.311 134.09C164.023 134.023 164.66 134.546 164.728 135.263C164.798 135.979 164.273 136.615 163.558 136.685C163.516 136.685 163.474 136.691 163.433 136.691C162.772 136.691 162.206 136.188 162.141 135.513ZM161.665 131.425C161.568 130.711 162.065 130.054 162.778 129.955C163.487 129.859 164.145 130.359 164.241 131.071C164.338 131.785 163.841 132.441 163.129 132.538C163.069 132.548 163.009 132.551 162.952 132.551C162.312 132.551 161.753 132.076 161.665 131.425ZM161.028 127.358C160.9 126.649 161.373 125.974 162.081 125.849C162.785 125.722 163.461 126.193 163.589 126.902C163.714 127.611 163.243 128.288 162.536 128.413C162.458 128.426 162.38 128.434 162.304 128.434C161.685 128.434 161.139 127.988 161.028 127.358ZM160.227 123.322C160.071 122.618 160.513 121.923 161.215 121.769C161.917 121.615 162.611 122.058 162.765 122.762C162.918 123.463 162.476 124.158 161.776 124.312C161.68 124.333 161.587 124.343 161.493 124.343C160.898 124.343 160.359 123.929 160.227 123.322ZM159.254 119.328C159.07 118.632 159.481 117.918 160.175 117.73C160.869 117.545 161.581 117.96 161.766 118.653C161.953 119.348 161.54 120.062 160.846 120.247C160.734 120.279 160.622 120.294 160.51 120.294C159.936 120.294 159.41 119.909 159.254 119.328ZM158.103 115.386C157.884 114.7 158.261 113.968 158.945 113.749C159.629 113.528 160.359 113.906 160.578 114.591C160.796 115.276 160.419 116.011 159.735 116.23C159.605 116.271 159.47 116.292 159.34 116.292C158.789 116.292 158.279 115.941 158.103 115.386ZM156.748 111.524C156.49 110.852 156.823 110.099 157.494 109.841C158.165 109.58 158.916 109.917 159.174 110.589C159.431 111.258 159.096 112.014 158.425 112.272C158.272 112.329 158.116 112.358 157.96 112.358C157.437 112.358 156.943 112.04 156.745 111.524H156.748ZM155.188 107.566C154.975 106.879 155.359 106.149 156.046 105.935C156.732 105.724 157.46 106.107 157.674 106.795H157.671C157.884 107.483 157.499 108.213 156.813 108.426C156.685 108.465 156.555 108.484 156.428 108.484C155.874 108.484 155.359 108.124 155.188 107.566ZM155.838 104.369C155.12 104.351 154.553 103.749 154.574 103.03C154.598 102.311 155.196 101.746 155.913 101.767C156.631 101.787 157.195 102.387 157.174 103.106C157.153 103.812 156.576 104.372 155.877 104.372C155.877 104.372 155.851 104.372 155.838 104.369ZM156.132 100.19C155.474 99.9037 155.172 99.1376 155.456 98.4758C155.742 97.8167 156.509 97.5144 157.166 97.801C157.824 98.085 158.129 98.8536 157.843 99.5128C157.629 100.005 157.151 100.297 156.649 100.297C156.477 100.297 156.301 100.263 156.132 100.19ZM158.493 96.837C158.305 96.1413 158.716 95.4274 159.41 95.2398C160.105 95.0548 160.817 95.4665 161.004 96.1596C161.189 96.8552 160.778 97.5691 160.086 97.7567C159.972 97.788 159.86 97.801 159.748 97.801C159.174 97.801 158.649 97.418 158.493 96.837ZM162.57 96.0579C162.51 95.3388 163.04 94.7083 163.755 94.6458C164.47 94.5858 165.099 95.1174 165.162 95.8339C165.222 96.5504 164.691 97.1809 163.976 97.2434C163.94 97.2434 163.903 97.2487 163.864 97.2487C163.196 97.2487 162.629 96.7354 162.57 96.0579ZM166.714 95.6723C166.584 94.9662 167.052 94.2862 167.759 94.1559C168.464 94.0257 169.143 94.4946 169.273 95.2033C169.403 95.9094 168.935 96.5895 168.227 96.7197C168.149 96.7328 168.071 96.7406 167.993 96.7406C167.377 96.7406 166.831 96.3003 166.714 95.6723ZM170.781 94.7943C170.523 94.1221 170.861 93.3691 171.532 93.1137C172.2 92.8558 172.954 93.1919 173.209 93.8641C173.467 94.5363 173.131 95.2893 172.46 95.5473C172.307 95.6046 172.151 95.6333 171.995 95.6333C171.472 95.6333 170.978 95.3154 170.781 94.7943ZM174.603 93.1606C174.218 92.5536 174.4 91.7485 175.006 91.3628C175.612 90.9798 176.415 91.1596 176.8 91.7667C177.185 92.3764 177.003 93.1815 176.397 93.5645C176.181 93.7026 175.939 93.7677 175.703 93.7677C175.271 93.7677 174.85 93.5515 174.603 93.1606ZM178.032 90.8131C177.549 90.279 177.585 89.4556 178.118 88.971C178.649 88.4864 179.47 88.5255 179.954 89.0596C180.438 89.5911 180.399 90.4144 179.868 90.8991C179.619 91.1257 179.307 91.2378 178.995 91.2378C178.641 91.2378 178.287 91.0945 178.032 90.8131ZM181.028 87.921C180.451 87.4937 180.331 86.6782 180.757 86.0997C181.184 85.5213 181.998 85.3989 182.575 85.8262C183.152 86.2535 183.274 87.0716 182.848 87.6474C182.59 87.9939 182.198 88.1763 181.8 88.1763C181.532 88.1763 181.262 88.0929 181.028 87.921ZM112.273 85.5995C111.568 85.4692 111.103 84.7866 111.233 84.0805C111.365 83.3744 112.044 82.908 112.751 83.0409C113.456 83.1712 113.921 83.8512 113.789 84.5599C113.672 85.1852 113.126 85.6229 112.515 85.6229C112.434 85.6229 112.353 85.6151 112.273 85.5995ZM183.371 84.4739C182.726 84.1612 182.455 83.3796 182.77 82.7334C183.084 82.0873 183.862 81.8189 184.509 82.1342C185.154 82.4494 185.422 83.2285 185.107 83.8746C184.884 84.3384 184.421 84.6068 183.937 84.6068C183.748 84.6068 183.553 84.5651 183.371 84.4739ZM113.035 81.4984C112.33 81.3655 111.865 80.6855 111.997 79.9768C112.13 79.2707 112.811 78.8043 113.516 78.9372C114.223 79.0727 114.686 79.7527 114.553 80.4588C114.436 81.0841 113.89 81.5219 113.276 81.5219C113.198 81.5219 113.115 81.5141 113.035 81.4984ZM185.084 80.6725C184.4 80.451 184.028 79.7137 184.249 79.031C184.473 78.3458 185.206 77.9732 185.89 78.1946C186.571 78.4187 186.946 79.1535 186.722 79.8361C186.545 80.3885 186.036 80.7376 185.487 80.7376C185.354 80.7376 185.217 80.7168 185.084 80.6725ZM113.812 77.4026C113.107 77.2593 112.652 76.5714 112.795 75.8679C112.938 75.1619 113.622 74.7059 114.327 74.8492C115.031 74.9925 115.487 75.6777 115.344 76.3838C115.219 77.0013 114.675 77.4286 114.069 77.4286C113.984 77.4286 113.898 77.4208 113.812 77.4026ZM186.285 76.6756C185.581 76.5323 185.128 75.8419 185.274 75.1384C185.417 74.4323 186.106 73.979 186.808 74.1249C187.513 74.2682 187.965 74.9586 187.819 75.6621C187.695 76.2796 187.151 76.7043 186.548 76.7043C186.462 76.7043 186.374 76.6939 186.285 76.6756ZM114.652 73.3198C113.952 73.1582 113.513 72.46 113.674 71.7591C113.835 71.0556 114.532 70.6179 115.232 70.7794C115.931 70.9383 116.368 71.6392 116.209 72.3401C116.072 72.942 115.536 73.351 114.943 73.351C114.847 73.351 114.748 73.3406 114.652 73.3198ZM187.06 72.5694C186.345 72.5173 185.807 71.8919 185.859 71.1754C185.911 70.4563 186.532 69.917 187.247 69.9691C187.965 70.0212 188.503 70.6439 188.451 71.363C188.402 72.0483 187.832 72.572 187.156 72.572C187.125 72.572 187.094 72.572 187.06 72.572V72.5694ZM182.905 70.5032C182.263 70.1775 182.008 69.3959 182.33 68.7523C182.655 68.1114 183.436 67.8534 184.078 68.1791C184.717 68.5022 184.975 69.2865 184.65 69.9274C184.424 70.3834 183.966 70.6439 183.49 70.6439C183.293 70.6439 183.092 70.5996 182.905 70.5032ZM115.606 69.2604C114.914 69.0728 114.506 68.3563 114.696 67.6606C114.883 66.9676 115.598 66.5585 116.293 66.7487C116.984 66.9363 117.392 67.6528 117.203 68.3485C117.047 68.9269 116.521 69.3073 115.952 69.3073C115.838 69.3073 115.721 69.2917 115.606 69.2604ZM179.19 68.6429C178.547 68.325 178.282 67.546 178.599 66.8998C178.917 66.2537 179.697 65.9879 180.339 66.3058C180.984 66.6236 181.249 67.4053 180.932 68.0514C180.705 68.51 180.243 68.7784 179.764 68.7784C179.572 68.7784 179.374 68.7341 179.19 68.6429ZM175.352 66.6731C174.751 66.2823 174.579 65.4746 174.972 64.8727C175.365 64.2683 176.171 64.0989 176.771 64.4923C177.372 64.8858 177.544 65.6909 177.151 66.2953C176.901 66.6784 176.485 66.8868 176.062 66.8868C175.817 66.8868 175.57 66.8164 175.352 66.6731ZM116.742 65.2505C116.061 65.0187 115.697 64.2787 115.926 63.5987C116.157 62.916 116.896 62.5512 117.574 62.7831C118.256 63.0124 118.62 63.7524 118.388 64.4324C118.204 64.977 117.697 65.3183 117.156 65.3183C117.018 65.3183 116.878 65.2974 116.74 65.2505H116.742ZM172.094 63.3016C171.719 62.6893 171.909 61.8868 172.52 61.509C173.131 61.1312 173.932 61.3214 174.309 61.9337C174.684 62.546 174.496 63.3485 173.883 63.7263C173.672 63.8592 173.435 63.9217 173.204 63.9217C172.767 63.9217 172.341 63.7003 172.094 63.3016ZM118.128 61.3188C117.468 61.0322 117.166 60.2662 117.452 59.6044C117.736 58.9452 118.503 58.643 119.16 58.9296C119.818 59.2136 120.123 59.9796 119.837 60.6414C119.623 61.1339 119.147 61.4257 118.643 61.4257C118.471 61.4257 118.295 61.3918 118.128 61.3188ZM170.266 59.297C170.011 58.6222 170.346 57.8718 171.017 57.6138C171.691 57.3585 172.44 57.6972 172.697 58.3694C172.952 59.039 172.616 59.792 171.943 60.05C171.792 60.1073 171.636 60.1359 171.483 60.1359C170.958 60.1359 170.464 59.8155 170.266 59.297ZM119.85 57.5252C119.225 57.1683 119.007 56.3736 119.363 55.7483C119.717 55.123 120.513 54.9041 121.134 55.2611C121.761 55.6154 121.976 56.4127 121.623 57.0354C121.384 57.4575 120.944 57.6946 120.492 57.6946C120.273 57.6946 120.052 57.6399 119.85 57.5252ZM168.68 55.6519C168.329 55.024 168.555 54.2293 169.182 53.8801C169.811 53.531 170.601 53.7551 170.952 54.3856C171.303 55.0135 171.077 55.8056 170.451 56.1574C170.25 56.2694 170.032 56.3215 169.819 56.3215C169.361 56.3215 168.919 56.0792 168.682 55.6519H168.68ZM121.992 53.9505C121.423 53.5128 121.316 52.6946 121.753 52.124C122.19 51.5534 123.006 51.4466 123.575 51.8843C124.145 52.3221 124.252 53.1402 123.815 53.7108C123.557 54.0443 123.172 54.2215 122.782 54.2215C122.507 54.2215 122.229 54.1329 121.992 53.9505ZM166.389 52.7181C165.859 52.2335 165.82 51.4101 166.306 50.8786C166.79 50.3471 167.611 50.3106 168.142 50.7952C168.672 51.2799 168.711 52.1032 168.225 52.6347C167.97 52.9161 167.619 53.0594 167.265 53.0594C166.953 53.0594 166.639 52.9474 166.389 52.7181ZM124.618 50.7223C124.127 50.1986 124.153 49.3726 124.675 48.8802C125.201 48.3878 126.022 48.4138 126.514 48.9375C127.005 49.4612 126.979 50.2872 126.456 50.7796C126.204 51.0167 125.884 51.134 125.565 51.134C125.219 51.134 124.876 50.9959 124.618 50.7223ZM163.22 50.5764H163.217C162.588 50.2351 162.351 49.443 162.692 48.8098C163.035 48.1793 163.823 47.9422 164.455 48.2835C165.086 48.6275 165.32 49.4169 164.98 50.0501C164.746 50.4852 164.299 50.7327 163.836 50.7327C163.628 50.7327 163.415 50.6832 163.22 50.5764ZM159.582 48.7864C158.927 48.4972 158.625 47.7286 158.914 47.0694C159.205 46.4102 159.969 46.1132 160.627 46.3998C161.285 46.689 161.584 47.4576 161.295 48.1168C161.082 48.6066 160.606 48.8958 160.105 48.8958C159.93 48.8958 159.754 48.862 159.582 48.7864ZM127.366 47.6817C126.719 47.3716 126.443 46.5926 126.753 45.9438C127.062 45.295 127.837 45.0189 128.485 45.3289C129.132 45.639 129.408 46.4154 129.098 47.0642C128.875 47.5332 128.409 47.8067 127.923 47.8067C127.736 47.8067 127.546 47.7677 127.366 47.6817ZM155.825 47.3612C155.141 47.1423 154.761 46.4102 154.98 45.7249C155.196 45.0397 155.926 44.6593 156.61 44.8755C157.296 45.0944 157.674 45.8266 157.458 46.5118C157.283 47.0668 156.771 47.4211 156.22 47.4211C156.09 47.4211 155.957 47.4029 155.825 47.3612ZM151.93 46.3607C151.225 46.2148 150.773 45.5243 150.921 44.8208C151.067 44.1147 151.753 43.664 152.458 43.8099C153.16 43.9558 153.612 44.6463 153.466 45.3497C153.339 45.9646 152.798 46.3867 152.195 46.3867C152.107 46.3867 152.018 46.3789 151.93 46.3607ZM147.354 44.2242C147.013 43.591 147.247 42.8016 147.879 42.4602C148.511 42.1163 149.301 42.3534 149.642 42.9866C149.982 43.6197 149.746 44.4092 149.114 44.7505C148.919 44.8573 148.706 44.9068 148.498 44.9068C148.035 44.9068 147.588 44.6593 147.354 44.2242ZM129.21 43.935C128.583 43.5806 128.362 42.7859 128.713 42.1606C129.064 41.5327 129.857 41.3112 130.484 41.663C131.108 42.0147 131.332 42.8094 130.981 43.4373C130.741 43.862 130.299 44.1017 129.844 44.1017C129.629 44.1017 129.41 44.047 129.21 43.935ZM146.16 39.7662C146.061 39.0549 146.555 38.3957 147.268 38.2941C147.978 38.1951 148.635 38.6901 148.734 39.404C148.836 40.1153 148.342 40.7745 147.629 40.8761C147.569 40.8839 147.507 40.8891 147.447 40.8891C146.81 40.8891 146.254 40.4175 146.16 39.7662ZM131.295 40.3211C130.695 39.9251 130.526 39.12 130.918 38.5181C131.313 37.9163 132.119 37.7469 132.72 38.1403C133.318 38.5364 133.487 39.3415 133.095 39.9433C132.845 40.3263 132.429 40.5348 132.005 40.5348C131.761 40.5348 131.514 40.4644 131.295 40.3211ZM133.622 36.8584C133.056 36.4207 132.949 35.6026 133.388 35.032C133.828 34.464 134.644 34.3572 135.211 34.7975C135.78 35.2378 135.884 36.0533 135.445 36.6239C135.188 36.9574 134.803 37.132 134.413 37.132C134.137 37.132 133.856 37.0434 133.62 36.8584H133.622ZM145.76 35.5062C145.718 34.7897 146.264 34.1722 146.982 34.1305C147.699 34.0888 148.313 34.6359 148.357 35.3524C148.399 36.0716 147.85 36.6891 147.135 36.7308C147.109 36.7308 147.083 36.7308 147.057 36.7308C146.373 36.7308 145.801 36.1966 145.76 35.5036V35.5062ZM136.22 33.5963C135.695 33.1065 135.666 32.2832 136.155 31.7569C136.644 31.2306 137.468 31.1993 137.993 31.6917C138.518 32.1816 138.547 33.0049 138.056 33.5312C137.801 33.8074 137.452 33.9481 137.107 33.9481C136.787 33.9481 136.47 33.8308 136.22 33.5963ZM145.609 31.2801C145.596 30.5609 146.168 29.9695 146.886 29.9565C147.606 29.9434 148.196 30.5166 148.209 31.2384C148.219 31.9575 147.647 32.5489 146.93 32.562H146.906C146.199 32.562 145.619 31.9914 145.609 31.2801ZM139.116 30.6026C138.654 30.0529 138.721 29.2321 139.267 28.7658C139.816 28.302 140.635 28.3671 141.1 28.9169C141.566 29.4666 141.498 30.2874 140.95 30.7537C140.705 30.9596 140.406 31.0612 140.11 31.0612C139.74 31.0612 139.374 30.9049 139.116 30.6026ZM142.359 27.9841C141.979 27.3718 142.169 26.5693 142.78 26.1915C143.391 25.8137 144.192 26.0013 144.569 26.6136C144.946 27.2259 144.759 28.0284 144.148 28.4062C143.934 28.5391 143.698 28.6016 143.466 28.6016C143.03 28.6016 142.606 28.3827 142.359 27.9841ZM145.606 27.3249C145.476 26.6162 145.942 25.9362 146.649 25.8059C147.356 25.6756 148.032 26.1446 148.162 26.8533C148.292 27.5594 147.827 28.2394 147.12 28.3697C147.039 28.3827 146.961 28.3906 146.883 28.3906C146.267 28.3906 145.721 27.9528 145.606 27.3249Z" fill="url(#paint0_linear_1203_3958)"/>
<path d="M105.71 209.806C104.99 209.798 104.413 209.209 104.42 208.49C104.428 207.771 105.016 207.193 105.734 207.201C106.451 207.206 107.028 207.795 107.021 208.516C107.013 209.23 106.433 209.806 105.721 209.806H105.71ZM108.586 208.498C108.562 207.779 109.127 207.18 109.844 207.159C110.562 207.135 111.163 207.701 111.183 208.42C111.207 209.142 110.64 209.741 109.922 209.762C109.922 209.762 109.896 209.764 109.883 209.764C109.184 209.764 108.607 209.204 108.586 208.498ZM101.498 209.681C100.78 209.645 100.229 209.032 100.263 208.313C100.299 207.597 100.91 207.042 101.628 207.078C102.346 207.112 102.897 207.724 102.86 208.443C102.827 209.139 102.252 209.681 101.563 209.681H101.498ZM112.741 208.344C112.691 207.625 113.232 207.003 113.947 206.953C114.662 206.904 115.284 207.443 115.336 208.162C115.385 208.881 114.844 209.501 114.129 209.553C114.098 209.553 114.067 209.553 114.038 209.553C113.36 209.553 112.79 209.027 112.741 208.342V208.344ZM97.2962 209.387C96.5811 209.322 96.0533 208.688 96.1183 207.972C96.1807 207.255 96.8125 206.726 97.5276 206.792C98.2426 206.857 98.7704 207.49 98.7054 208.206C98.6456 208.884 98.0788 209.392 97.4132 209.392C97.3742 209.392 97.3352 209.392 97.2962 209.387ZM116.888 208.021C116.807 207.307 117.322 206.664 118.037 206.583C118.75 206.505 119.392 207.021 119.473 207.737C119.551 208.451 119.036 209.095 118.323 209.173C118.274 209.178 118.227 209.181 118.178 209.181C117.525 209.181 116.961 208.688 116.888 208.021ZM93.1074 208.923C92.3949 208.832 91.8931 208.178 91.9867 207.464C92.0803 206.75 92.7329 206.247 93.4454 206.341C94.1578 206.435 94.657 207.089 94.566 207.8C94.4802 208.456 93.9212 208.936 93.279 208.936C93.2218 208.936 93.1672 208.931 93.1074 208.923ZM121.017 207.534C120.91 206.823 121.399 206.158 122.109 206.049C122.819 205.942 123.482 206.432 123.589 207.143C123.695 207.855 123.206 208.519 122.497 208.626C122.432 208.636 122.367 208.641 122.302 208.641C121.67 208.641 121.116 208.178 121.017 207.534ZM88.942 208.292C88.2347 208.17 87.7589 207.498 87.8811 206.789C88.0033 206.078 88.6768 205.603 89.384 205.726C90.0912 205.846 90.567 206.521 90.4448 207.229C90.3356 207.865 89.787 208.311 89.1656 208.311C89.0928 208.311 89.0174 208.305 88.942 208.292ZM125.125 206.878C124.987 206.171 125.45 205.486 126.155 205.351C126.86 205.215 127.541 205.676 127.676 206.383C127.814 207.089 127.354 207.771 126.646 207.909C126.563 207.925 126.48 207.933 126.399 207.933C125.788 207.933 125.245 207.5 125.125 206.878ZM84.8052 207.492C84.1031 207.341 83.6559 206.648 83.8067 205.945C83.9575 205.241 84.6492 204.793 85.3512 204.944C86.0506 205.095 86.4978 205.788 86.3496 206.492C86.2196 207.104 85.6788 207.521 85.0782 207.521C84.9898 207.521 84.8962 207.513 84.8052 207.492ZM129.202 206.057C129.038 205.356 129.47 204.655 130.17 204.488C130.869 204.324 131.568 204.757 131.732 205.458C131.899 206.158 131.464 206.859 130.765 207.023C130.666 207.05 130.565 207.06 130.466 207.06C129.878 207.06 129.343 206.656 129.202 206.057ZM80.7048 206.523C80.0079 206.346 79.5893 205.635 79.7687 204.939C79.9481 204.241 80.6554 203.821 81.3522 204.001C82.0464 204.181 82.4651 204.89 82.2856 205.588C82.1374 206.174 81.607 206.565 81.0298 206.565C80.9206 206.565 80.8114 206.552 80.7048 206.523ZM133.243 205.069C133.05 204.376 133.453 203.657 134.145 203.464C134.837 203.272 135.554 203.675 135.747 204.368C135.939 205.062 135.536 205.781 134.845 205.973C134.728 206.007 134.611 206.023 134.496 206.023C133.927 206.023 133.404 205.645 133.243 205.069ZM76.646 205.39C75.9569 205.184 75.5695 204.457 75.7749 203.767C75.9829 203.079 76.7084 202.688 77.3948 202.896C78.0838 203.102 78.4713 203.829 78.2659 204.52C78.0968 205.082 77.5794 205.447 77.0204 205.447C76.8956 205.447 76.7708 205.429 76.646 205.39ZM137.239 203.918C137.018 203.232 137.393 202.5 138.076 202.276C138.76 202.055 139.494 202.43 139.715 203.115C139.936 203.8 139.561 204.535 138.877 204.757C138.745 204.798 138.61 204.819 138.477 204.819C137.928 204.819 137.419 204.47 137.239 203.918ZM72.6366 204.092C71.958 203.855 71.5991 203.115 71.8332 202.435C72.0672 201.755 72.8082 201.393 73.4868 201.627C74.1655 201.865 74.5269 202.607 74.2903 203.287C74.1031 203.827 73.6012 204.163 73.063 204.163C72.92 204.163 72.777 204.142 72.6366 204.092ZM141.189 202.605C140.939 201.93 141.282 201.182 141.958 200.932C142.635 200.682 143.381 201.028 143.63 201.703C143.877 202.378 143.534 203.128 142.861 203.376C142.713 203.43 142.559 203.457 142.411 203.457C141.88 203.457 141.384 203.131 141.191 202.605H141.189ZM68.6844 202.631C68.0162 202.367 67.686 201.612 67.9486 200.942C68.2112 200.273 68.9652 199.942 69.6334 200.205C70.3017 200.468 70.6319 201.224 70.3693 201.893C70.1691 202.407 69.6777 202.719 69.1576 202.719C69.0016 202.719 68.8404 202.691 68.6844 202.631ZM145.068 201.138C144.793 200.471 145.105 199.71 145.768 199.434C146.431 199.157 147.193 199.473 147.468 200.137C147.744 200.802 147.429 201.562 146.766 201.839C146.602 201.906 146.433 201.94 146.267 201.94C145.757 201.94 145.276 201.638 145.068 201.138ZM64.7946 201.01C64.1368 200.718 63.8378 199.95 64.1264 199.29C64.4176 198.634 65.1846 198.334 65.8399 198.623C66.4977 198.913 66.7967 199.681 66.5055 200.34C66.2923 200.83 65.8165 201.119 65.3172 201.119C65.1404 201.119 64.9636 201.086 64.7946 201.01ZM148.885 199.512C148.584 198.858 148.867 198.084 149.517 197.782C150.17 197.477 150.942 197.761 151.244 198.412C151.548 199.066 151.264 199.84 150.612 200.145C150.435 200.226 150.248 200.265 150.066 200.265C149.574 200.265 149.106 199.986 148.885 199.512ZM60.9724 199.23C60.3276 198.915 60.0598 198.134 60.377 197.487C60.6916 196.841 61.4717 196.573 62.1165 196.891C62.7587 197.206 63.0265 197.988 62.7119 198.634C62.4857 199.095 62.0229 199.363 61.5445 199.363C61.3521 199.363 61.157 199.322 60.9724 199.23ZM152.637 197.732C152.31 197.091 152.559 196.307 153.199 195.976C153.836 195.648 154.621 195.901 154.949 196.539C155.276 197.18 155.027 197.964 154.387 198.292C154.197 198.391 153.994 198.438 153.794 198.438C153.321 198.438 152.866 198.18 152.637 197.732ZM57.2257 197.3C56.5938 196.956 56.3598 196.166 56.7004 195.533C57.041 194.9 57.8315 194.666 58.4633 195.007C59.0951 195.348 59.3292 196.14 58.9885 196.773C58.7545 197.209 58.3073 197.456 57.8445 197.456C57.6339 197.456 57.4233 197.407 57.2257 197.3ZM156.314 195.802C155.96 195.174 156.179 194.379 156.805 194.025C157.429 193.67 158.222 193.889 158.576 194.514C158.929 195.142 158.711 195.937 158.087 196.291C157.884 196.406 157.663 196.461 157.445 196.461C156.992 196.461 156.553 196.224 156.314 195.802ZM53.5621 195.215C52.9459 194.851 52.7404 194.051 53.1071 193.431C53.4737 192.813 54.2719 192.61 54.8907 192.977C55.507 193.345 55.7098 194.144 55.3432 194.762C55.1014 195.171 54.6671 195.4 54.2251 195.4C53.9989 195.4 53.7701 195.34 53.5621 195.215ZM159.912 193.722C159.533 193.11 159.72 192.308 160.331 191.927C160.939 191.549 161.74 191.734 162.12 192.347C162.499 192.959 162.312 193.761 161.701 194.142C161.488 194.275 161.251 194.337 161.017 194.337C160.583 194.337 160.157 194.118 159.912 193.722ZM49.9843 192.988C49.3811 192.597 49.2121 191.789 49.6021 191.185C49.9947 190.583 50.7982 190.411 51.4014 190.804C52.0046 191.195 52.1736 192.003 51.7836 192.605C51.534 192.99 51.118 193.199 50.6915 193.199C50.4497 193.199 50.2027 193.131 49.9843 192.988ZM163.425 191.497C163.019 190.903 163.175 190.093 163.768 189.689C164.364 189.285 165.172 189.442 165.575 190.036C165.978 190.63 165.822 191.44 165.23 191.844C165.006 191.998 164.751 192.071 164.502 192.071C164.086 192.071 163.675 191.87 163.425 191.497ZM166.844 189.134C166.418 188.556 166.54 187.74 167.117 187.313C167.695 186.886 168.508 187.008 168.935 187.586C169.364 188.165 169.239 188.98 168.662 189.408C168.43 189.58 168.16 189.663 167.892 189.663C167.492 189.663 167.099 189.481 166.844 189.134ZM49.8049 189.512C49.0873 189.491 48.5204 188.892 48.5412 188.173C48.562 187.454 49.1601 186.888 49.8751 186.906C50.5927 186.925 51.1596 187.527 51.1388 188.246C51.1206 188.952 50.5433 189.512 49.8413 189.512H49.8049ZM170.167 186.635C169.72 186.073 169.808 185.255 170.367 184.804C170.929 184.353 171.745 184.442 172.195 185.004C172.645 185.565 172.554 186.385 171.995 186.836C171.756 187.029 171.467 187.123 171.184 187.123C170.802 187.123 170.425 186.956 170.167 186.635ZM49.9375 185.338C49.2199 185.301 48.6687 184.689 48.7051 183.97C48.7415 183.251 49.3525 182.699 50.0701 182.735C50.7878 182.774 51.339 183.386 51.3026 184.103C51.2662 184.801 50.6915 185.341 50.0051 185.341C49.9817 185.341 49.9583 185.341 49.9375 185.341V185.338ZM173.391 184.001C172.918 183.459 172.975 182.636 173.516 182.164C174.057 181.69 174.879 181.748 175.352 182.289C175.822 182.831 175.765 183.655 175.224 184.129C174.977 184.343 174.673 184.449 174.372 184.449C174.008 184.449 173.646 184.298 173.391 184.001ZM176.504 181.242C176.012 180.718 176.036 179.895 176.556 179.4C177.078 178.905 177.9 178.928 178.394 179.452C178.888 179.976 178.865 180.799 178.342 181.294C178.09 181.531 177.77 181.649 177.45 181.649C177.104 181.649 176.761 181.513 176.504 181.242ZM50.1715 181.169C49.4539 181.112 48.9235 180.484 48.9807 179.767C49.0379 179.048 49.6645 178.514 50.3821 178.574C51.0972 178.631 51.6302 179.259 51.573 179.978C51.5184 180.658 50.9516 181.174 50.2807 181.174C50.2443 181.174 50.2079 181.174 50.1741 181.169H50.1715ZM179.507 178.358C178.992 177.855 178.984 177.029 179.486 176.516C179.988 176 180.81 175.989 181.324 176.492C181.837 176.995 181.847 177.821 181.345 178.334C181.09 178.597 180.752 178.728 180.414 178.728C180.087 178.728 179.759 178.605 179.507 178.358ZM50.5355 177.013C49.8231 176.922 49.3187 176.271 49.4097 175.557C49.4981 174.843 50.1481 174.337 50.8606 174.429C51.573 174.517 52.0774 175.169 51.989 175.883C51.9058 176.542 51.3442 177.024 50.6993 177.024C50.6447 177.024 50.5901 177.019 50.5355 177.013ZM182.39 175.354C181.857 174.872 181.816 174.048 182.297 173.514C182.778 172.98 183.599 172.936 184.132 173.418C184.665 173.9 184.707 174.723 184.229 175.257C183.971 175.544 183.618 175.69 183.261 175.69C182.949 175.69 182.64 175.578 182.39 175.354ZM51.118 172.884C50.4107 172.748 49.9479 172.066 50.0831 171.359C50.2183 170.651 50.8996 170.19 51.6042 170.325C52.3088 170.458 52.7716 171.141 52.6364 171.847C52.5194 172.472 51.9734 172.907 51.3624 172.907C51.2818 172.907 51.1986 172.899 51.118 172.884ZM185.154 172.237C184.603 171.776 184.525 170.956 184.985 170.401C185.443 169.848 186.265 169.773 186.816 170.234C187.37 170.692 187.445 171.513 186.985 172.068C186.727 172.378 186.358 172.537 185.984 172.537C185.693 172.537 185.396 172.438 185.154 172.237ZM157.289 170.401C157.107 169.705 157.52 168.991 158.214 168.809C158.909 168.624 159.619 169.038 159.803 169.734C159.988 170.429 159.574 171.143 158.877 171.326C158.768 171.357 158.656 171.37 158.545 171.37C157.97 171.37 157.445 170.984 157.289 170.401ZM187.791 169.009C187.219 168.572 187.112 167.753 187.549 167.183C187.986 166.612 188.802 166.503 189.372 166.94C189.944 167.378 190.05 168.196 189.616 168.767C189.361 169.103 188.974 169.278 188.584 169.278C188.308 169.278 188.03 169.189 187.796 169.009H187.791ZM51.9214 168.796C51.222 168.631 50.7878 167.931 50.9542 167.23C51.118 166.529 51.8174 166.094 52.5168 166.26C53.2163 166.425 53.6479 167.125 53.4841 167.826C53.3437 168.428 52.8106 168.832 52.2204 168.832C52.1216 168.832 52.0202 168.819 51.9214 168.796ZM156.142 166.464C155.924 165.778 156.301 165.046 156.987 164.825C157.668 164.606 158.402 164.984 158.62 165.672C158.838 166.357 158.461 167.089 157.778 167.308C157.645 167.35 157.512 167.37 157.382 167.37C156.831 167.37 156.319 167.016 156.142 166.464ZM190.295 165.679C189.707 165.265 189.567 164.452 189.98 163.863C190.391 163.275 191.205 163.134 191.79 163.548C192.377 163.962 192.52 164.773 192.107 165.362C191.852 165.724 191.449 165.917 191.041 165.917C190.784 165.917 190.521 165.838 190.295 165.679ZM52.9173 164.752C52.2308 164.538 51.8486 163.809 52.0592 163.123C52.2724 162.436 53.0005 162.05 53.6869 162.264C54.3733 162.477 54.7555 163.207 54.5449 163.895C54.3707 164.452 53.8559 164.812 53.3021 164.812C53.1747 164.812 53.0447 164.791 52.9173 164.752ZM154.8 162.589C154.548 161.917 154.889 161.164 155.56 160.911C156.233 160.661 156.982 161 157.234 161.675C157.486 162.347 157.146 163.1 156.475 163.353C156.324 163.407 156.171 163.436 156.017 163.436C155.492 163.436 154.995 163.113 154.8 162.589ZM192.663 162.248C192.06 161.857 191.886 161.052 192.276 160.448C192.666 159.843 193.47 159.669 194.073 160.057C194.676 160.448 194.85 161.253 194.46 161.857C194.213 162.245 193.795 162.456 193.368 162.456C193.126 162.456 192.882 162.389 192.663 162.248ZM54.2121 160.797C53.5465 160.528 53.2241 159.768 53.4919 159.101C53.7597 158.434 54.5189 158.11 55.1846 158.381C55.8502 158.65 56.1726 159.408 55.9048 160.075C55.6994 160.583 55.2132 160.891 54.6983 160.891C54.5371 160.891 54.3707 160.862 54.2121 160.797ZM153.269 158.785C152.986 158.123 153.29 157.357 153.948 157.073C154.608 156.787 155.373 157.092 155.656 157.754C155.942 158.413 155.638 159.179 154.977 159.465C154.811 159.538 154.637 159.572 154.462 159.572C153.961 159.572 153.482 159.278 153.269 158.785ZM194.894 158.723C194.276 158.358 194.07 157.561 194.434 156.941C194.801 156.32 195.596 156.112 196.215 156.479C196.834 156.844 197.04 157.641 196.675 158.262C196.434 158.673 195.999 158.905 195.555 158.905C195.331 158.905 195.102 158.845 194.897 158.723H194.894ZM55.8138 156.956C55.1612 156.657 54.8725 155.885 55.1716 155.229C55.468 154.575 56.2402 154.286 56.8928 154.585C57.5455 154.882 57.8341 155.656 57.5377 156.31C57.3193 156.789 56.846 157.073 56.352 157.073C56.1726 157.073 55.9906 157.034 55.8138 156.956ZM151.558 155.054C151.244 154.408 151.511 153.626 152.159 153.311C152.804 152.996 153.581 153.264 153.896 153.913C154.21 154.559 153.942 155.338 153.298 155.653C153.113 155.745 152.921 155.786 152.728 155.786C152.247 155.786 151.784 155.515 151.558 155.054ZM196.98 155.112C196.348 154.77 196.109 153.981 196.447 153.348C196.787 152.712 197.575 152.475 198.207 152.813C198.841 153.155 199.078 153.942 198.74 154.577C198.506 155.015 198.056 155.265 197.593 155.265C197.385 155.265 197.175 155.216 196.98 155.112ZM57.5637 153.176C56.9058 152.889 56.6042 152.123 56.8902 151.461C57.1737 150.802 57.9407 150.5 58.5985 150.786C59.259 151.073 59.5606 151.839 59.2746 152.498C59.0613 152.991 58.5829 153.282 58.0811 153.282C57.9095 153.282 57.7327 153.249 57.5637 153.176ZM149.681 151.401C149.338 150.768 149.572 149.976 150.203 149.635C150.835 149.291 151.623 149.525 151.966 150.158C152.31 150.789 152.076 151.581 151.444 151.922C151.246 152.032 151.033 152.081 150.825 152.081C150.362 152.081 149.917 151.836 149.681 151.401ZM198.919 151.414C198.272 151.102 198.002 150.323 198.316 149.674C198.628 149.028 199.406 148.757 200.053 149.069C200.698 149.385 200.968 150.164 200.656 150.812C200.43 151.276 199.967 151.547 199.484 151.547C199.294 151.547 199.101 151.503 198.919 151.414ZM59.1289 149.312C58.4321 149.14 58.0057 148.434 58.1773 147.735C58.3489 147.037 59.0509 146.61 59.7504 146.779C60.4472 146.951 60.8736 147.657 60.702 148.355C60.5564 148.95 60.026 149.348 59.441 149.348C59.3396 149.348 59.233 149.335 59.1289 149.312ZM147.648 147.827C147.281 147.209 147.481 146.409 148.097 146.039C148.714 145.672 149.514 145.872 149.881 146.49C150.25 147.107 150.047 147.907 149.431 148.277C149.221 148.402 148.992 148.462 148.766 148.462C148.324 148.462 147.892 148.236 147.648 147.827ZM200.708 147.644C200.048 147.358 199.746 146.589 200.035 145.93C200.321 145.271 201.085 144.968 201.746 145.255C202.404 145.542 202.705 146.31 202.419 146.969C202.206 147.459 201.728 147.751 201.226 147.751C201.051 147.751 200.877 147.717 200.708 147.644ZM58.4841 144.119C58.3723 143.41 58.8559 142.741 59.5658 142.629C60.2756 142.517 60.9412 143.001 61.053 143.712C61.1648 144.421 60.6812 145.091 59.974 145.203C59.9038 145.213 59.8362 145.218 59.7686 145.218C59.1394 145.218 58.5855 144.762 58.4841 144.119ZM145.474 144.33C145.084 143.726 145.255 142.92 145.859 142.527C146.459 142.136 147.265 142.308 147.655 142.913C148.048 143.514 147.876 144.322 147.273 144.713C147.055 144.856 146.81 144.924 146.566 144.924C146.142 144.924 145.723 144.716 145.474 144.33ZM202.341 143.801C201.67 143.541 201.34 142.785 201.598 142.115C201.858 141.443 202.612 141.112 203.28 141.37C203.951 141.631 204.283 142.386 204.023 143.056C203.823 143.572 203.332 143.89 202.812 143.89C202.656 143.89 202.495 143.861 202.341 143.801ZM35.1194 142.574C35.109 141.855 35.681 141.263 36.4013 141.255C37.1189 141.245 37.7091 141.821 37.7169 142.54C37.7273 143.259 37.1527 143.851 36.4351 143.858H36.4169C35.707 143.858 35.1272 143.288 35.1194 142.574ZM32.2203 143.83C31.5026 143.809 30.9384 143.21 30.9592 142.49C30.98 141.771 31.578 141.203 32.2957 141.227C33.0133 141.248 33.5775 141.847 33.5593 142.566C33.5359 143.272 32.9587 143.832 32.2593 143.832C32.2463 143.832 32.2333 143.832 32.2203 143.832V143.83ZM39.277 142.49C39.2458 141.771 39.7996 141.162 40.5173 141.128C41.2349 141.097 41.8433 141.652 41.8745 142.371C41.9083 143.09 41.3519 143.699 40.6343 143.731C40.6135 143.731 40.5953 143.731 40.5745 143.731C39.8854 143.731 39.3082 143.186 39.277 142.488V142.49ZM27.9925 143.587C27.2748 143.525 26.747 142.892 26.812 142.175C26.8744 141.459 27.5063 140.93 28.2213 140.992C28.9363 141.055 29.4641 141.688 29.3991 142.405C29.3419 143.082 28.7725 143.593 28.1069 143.593C28.0679 143.593 28.0289 143.593 27.9925 143.587ZM43.432 142.279C43.3826 141.56 43.9234 140.938 44.6385 140.888C45.3561 140.839 45.9749 141.381 46.0243 142.097C46.0763 142.816 45.5355 143.436 44.8205 143.488C44.7919 143.491 44.7607 143.491 44.7295 143.491C44.0534 143.491 43.4814 142.965 43.4346 142.279H43.432ZM47.5818 141.972C47.5168 141.258 48.0472 140.625 48.7623 140.562C49.4773 140.5 50.1091 141.029 50.1715 141.745C50.2339 142.462 49.7061 143.095 48.9885 143.158C48.9495 143.16 48.9131 143.163 48.8741 143.163C48.2084 143.163 47.6416 142.652 47.5818 141.972ZM23.7621 143.048C23.0548 142.928 22.579 142.253 22.6986 141.545C22.8208 140.836 23.4917 140.359 24.1989 140.479C24.9061 140.602 25.3819 141.274 25.2623 141.982C25.1531 142.618 24.6045 143.066 23.9831 143.066C23.9103 143.066 23.8349 143.061 23.7621 143.048ZM51.7238 141.597C51.651 140.883 52.1736 140.242 52.8861 140.169C53.6011 140.099 54.2381 140.62 54.3109 141.336C54.3837 142.05 53.8637 142.691 53.1487 142.761C53.1045 142.767 53.0603 142.769 53.0161 142.769C52.3556 142.769 51.7914 142.269 51.7238 141.597ZM57.0228 142.412C56.3078 142.339 55.7904 141.698 55.8632 140.985C55.9386 140.268 56.5782 139.747 57.2907 139.822C58.0057 139.895 58.5257 140.536 58.4503 141.253C58.3827 141.923 57.8185 142.42 57.1607 142.42C57.1139 142.42 57.0696 142.42 57.0228 142.412ZM19.5655 142.1C18.8764 141.902 18.476 141.183 18.6762 140.489C18.8738 139.799 19.5941 139.398 20.2831 139.596C20.9747 139.796 21.3726 140.518 21.1749 141.209C21.0111 141.779 20.4911 142.152 19.9269 142.152C19.8073 142.152 19.6877 142.136 19.5655 142.1ZM143.175 140.909C142.765 140.32 142.908 139.507 143.498 139.096C144.085 138.684 144.897 138.83 145.307 139.419C145.718 140.007 145.575 140.82 144.985 141.232C144.759 141.391 144.499 141.467 144.244 141.467C143.833 141.467 143.428 141.274 143.175 140.909ZM15.4833 140.609C14.8306 140.31 14.542 139.538 14.8384 138.884C15.1349 138.228 15.9045 137.939 16.5597 138.236C17.2124 138.533 17.501 139.307 17.2046 139.961C16.9862 140.44 16.5155 140.724 16.0215 140.724C15.8421 140.724 15.6575 140.688 15.4833 140.609ZM203.818 139.893C203.139 139.661 202.775 138.918 203.007 138.238C203.241 137.558 203.979 137.194 204.658 137.428C205.339 137.66 205.701 138.4 205.469 139.08C205.284 139.622 204.78 139.963 204.239 139.963C204.099 139.963 203.958 139.94 203.818 139.893ZM11.6637 138.452C11.0735 138.04 10.9253 137.23 11.3335 136.639C11.7417 136.047 12.5503 135.899 13.1406 136.308C13.7334 136.717 13.8816 137.527 13.4734 138.118C13.2212 138.486 12.8156 138.681 12.4021 138.681C12.1473 138.681 11.8899 138.606 11.6637 138.452ZM140.765 137.561C140.336 136.985 140.456 136.167 141.033 135.737C141.607 135.31 142.421 135.43 142.85 136.005C143.279 136.584 143.16 137.399 142.583 137.829C142.351 138.004 142.078 138.087 141.808 138.087C141.412 138.087 141.02 137.905 140.765 137.561ZM8.28614 135.685C7.76611 135.185 7.75051 134.361 8.24714 133.843C8.74376 133.324 9.568 133.306 10.0854 133.804C10.6028 134.304 10.621 135.127 10.1244 135.646C9.86701 135.914 9.5264 136.047 9.18578 136.047C8.86077 136.047 8.53835 135.927 8.28614 135.685ZM205.131 135.938C204.445 135.734 204.052 135.008 204.255 134.32C204.46 133.629 205.183 133.236 205.872 133.439C206.559 133.645 206.951 134.369 206.748 135.06C206.579 135.625 206.062 135.992 205.503 135.992C205.381 135.992 205.256 135.974 205.131 135.938ZM138.258 134.278H138.256C137.814 133.713 137.913 132.894 138.477 132.449C139.041 132.003 139.858 132.102 140.302 132.668C140.744 133.233 140.648 134.054 140.084 134.497C139.845 134.684 139.561 134.776 139.28 134.776C138.896 134.776 138.513 134.606 138.258 134.278ZM5.387 132.42C4.95278 131.847 5.06458 131.032 5.63661 130.596C6.20864 130.161 7.02508 130.273 7.4593 130.847C7.89352 131.42 7.78171 132.235 7.20969 132.67C6.97308 132.85 6.69746 132.936 6.42445 132.936C6.03183 132.936 5.64441 132.759 5.387 132.42ZM206.283 131.933C205.589 131.756 205.165 131.05 205.342 130.351C205.518 129.653 206.226 129.231 206.92 129.408C207.617 129.583 208.038 130.292 207.861 130.99C207.713 131.579 207.185 131.972 206.603 131.972C206.496 131.972 206.39 131.959 206.283 131.933ZM135.666 131.052C135.211 130.497 135.292 129.674 135.846 129.218C136.399 128.762 137.218 128.84 137.676 129.398C138.131 129.953 138.053 130.774 137.497 131.232C137.255 131.43 136.964 131.527 136.672 131.527C136.298 131.527 135.924 131.365 135.666 131.052ZM3.02609 128.76C2.68287 128.126 2.91428 127.337 3.54611 126.99C4.17534 126.646 4.96578 126.878 5.309 127.511C5.65221 128.145 5.4208 128.934 4.78897 129.278C4.59136 129.387 4.37815 129.437 4.16754 129.437C3.70732 129.437 3.2601 129.192 3.02609 128.76ZM133.009 127.874C132.543 127.327 132.608 126.506 133.154 126.037C133.703 125.57 134.522 125.636 134.988 126.183C135.453 126.732 135.388 127.553 134.842 128.02C134.598 128.228 134.299 128.332 133.999 128.332C133.633 128.332 133.266 128.176 133.009 127.874ZM207.271 127.884C206.569 127.736 206.119 127.045 206.267 126.342C206.416 125.638 207.102 125.187 207.804 125.336C208.509 125.482 208.958 126.172 208.81 126.876C208.683 127.491 208.142 127.913 207.541 127.913C207.453 127.913 207.362 127.902 207.271 127.884ZM1.232 124.789C0.982392 124.111 1.33081 123.364 2.00424 123.116C2.67767 122.868 3.42391 123.215 3.67352 123.892C3.92053 124.567 3.57471 125.315 2.90128 125.563C2.75308 125.617 2.60227 125.643 2.45406 125.643C1.92364 125.643 1.42701 125.315 1.2346 124.789H1.232ZM130.297 124.734C129.824 124.195 129.876 123.371 130.417 122.897C130.955 122.423 131.776 122.478 132.25 123.017C132.72 123.559 132.668 124.382 132.127 124.856C131.88 125.073 131.576 125.18 131.272 125.18C130.911 125.18 130.549 125.028 130.292 124.734H130.297ZM208.095 123.799C207.388 123.679 206.91 123.009 207.029 122.3C207.149 121.589 207.82 121.11 208.527 121.23C209.237 121.349 209.712 122.022 209.595 122.73C209.489 123.366 208.938 123.817 208.314 123.817C208.243 123.817 208.171 123.812 208.098 123.799H208.095ZM127.549 121.623C127.07 121.086 127.114 120.263 127.65 119.784C128.186 119.304 129.007 119.351 129.486 119.888C129.964 120.425 129.917 121.248 129.382 121.727C129.135 121.949 128.825 122.058 128.518 122.058C128.16 122.058 127.803 121.91 127.549 121.623ZM0.0567479 120.568C-0.0758584 119.859 0.389564 119.179 1.0942 119.046C1.80143 118.913 2.48006 119.38 2.61267 120.086C2.74528 120.795 2.27985 121.475 1.57522 121.607C1.49462 121.623 1.41401 121.631 1.33341 121.631C0.719779 121.631 0.173753 121.193 0.0567479 120.568ZM208.753 119.685C208.041 119.593 207.534 118.942 207.627 118.228C207.716 117.514 208.366 117.009 209.078 117.1C209.79 117.191 210.295 117.842 210.204 118.556H210.207C210.123 119.213 209.562 119.695 208.917 119.695C208.862 119.695 208.808 119.692 208.753 119.685ZM124.772 118.523C124.291 117.988 124.335 117.165 124.868 116.683C125.401 116.201 126.223 116.245 126.704 116.779C127.185 117.314 127.14 118.137 126.607 118.619C126.36 118.843 126.048 118.955 125.739 118.955C125.383 118.955 125.029 118.809 124.772 118.523ZM0.979792 117.428C0.808184 116.73 1.232 116.026 1.92884 115.852C2.62567 115.68 3.3329 116.105 3.50451 116.803C3.67612 117.504 3.2497 118.21 2.55287 118.382C2.44886 118.408 2.34486 118.421 2.24085 118.421C1.65842 118.421 1.1254 118.022 0.979792 117.428ZM5.02818 116.423C4.84617 115.727 5.26219 115.013 5.95643 114.831C6.65066 114.648 7.36049 115.065 7.5451 115.761C7.72451 116.456 7.31109 117.168 6.61686 117.35C6.50505 117.379 6.39325 117.394 6.28404 117.394C5.70942 117.394 5.18159 117.006 5.02818 116.423ZM9.05577 115.344C8.85816 114.653 9.25598 113.932 9.94502 113.731C10.634 113.533 11.3543 113.932 11.5519 114.622C11.7521 115.315 11.3543 116.037 10.6627 116.235C10.543 116.269 10.4208 116.287 10.3038 116.287C9.73701 116.287 9.21698 115.914 9.05317 115.344H9.05577ZM121.984 115.425H121.987C121.506 114.888 121.55 114.065 122.083 113.583C122.616 113.103 123.438 113.147 123.919 113.682C124.4 114.218 124.356 115.042 123.823 115.521C123.573 115.745 123.264 115.857 122.952 115.857C122.595 115.857 122.242 115.711 121.984 115.425ZM209.242 115.547C208.527 115.485 207.996 114.854 208.059 114.137C208.121 113.421 208.75 112.889 209.465 112.949C210.181 113.012 210.711 113.642 210.649 114.359C210.591 115.039 210.025 115.55 209.356 115.55C209.317 115.55 209.281 115.55 209.242 115.55V115.547ZM13.0548 114.169C12.839 113.481 13.2134 112.749 13.8998 112.53C14.5862 112.311 15.3169 112.689 15.5353 113.374C15.7537 114.062 15.3767 114.794 14.6928 115.013C14.5602 115.055 14.4276 115.075 14.2976 115.075C13.7464 115.075 13.2342 114.721 13.0574 114.169H13.0548ZM17.0174 112.874C16.7755 112.196 17.1266 111.451 17.8026 111.206C18.4786 110.967 19.2223 111.318 19.4641 111.996C19.7059 112.671 19.3549 113.418 18.6788 113.661C18.5358 113.713 18.3876 113.736 18.242 113.736C17.709 113.736 17.2072 113.405 17.0174 112.874ZM119.207 112.308C118.729 111.769 118.778 110.946 119.317 110.469C119.852 109.992 120.674 110.042 121.152 110.578C121.628 111.118 121.579 111.941 121.043 112.418C120.793 112.639 120.487 112.746 120.18 112.746C119.821 112.746 119.462 112.598 119.207 112.308ZM20.9279 111.436C20.6575 110.771 20.9747 110.01 21.6378 109.737C22.3034 109.463 23.0626 109.781 23.3357 110.448C23.6061 111.115 23.2888 111.873 22.6258 112.147C22.4646 112.215 22.2956 112.246 22.1318 112.246C21.6196 112.246 21.1333 111.941 20.9279 111.436ZM209.567 111.391C208.849 111.357 208.295 110.75 208.329 110.031C208.363 109.312 208.971 108.757 209.689 108.788C210.407 108.822 210.961 109.432 210.927 110.148C210.896 110.847 210.321 111.394 209.629 111.394C209.608 111.394 209.59 111.394 209.569 111.394L209.567 111.391ZM24.7683 109.815C24.4563 109.169 24.7293 108.39 25.3767 108.077C26.0242 107.764 26.799 108.038 27.111 108.687C27.423 109.333 27.15 110.112 26.5052 110.425C26.3232 110.513 26.1308 110.555 25.941 110.555C25.4574 110.555 24.9919 110.281 24.7683 109.815ZM116.451 109.158C115.983 108.616 116.043 107.793 116.586 107.321C117.13 106.853 117.952 106.912 118.42 107.457C118.888 108.002 118.83 108.822 118.287 109.294C118.04 109.505 117.738 109.609 117.437 109.609C117.073 109.609 116.709 109.458 116.451 109.158ZM28.4969 107.955C28.1303 107.337 28.3357 106.537 28.9519 106.17C29.5707 105.802 30.3664 106.008 30.733 106.626C31.0996 107.243 30.8968 108.043 30.278 108.411C30.07 108.533 29.8438 108.593 29.6175 108.593C29.1729 108.593 28.7413 108.366 28.4969 107.955ZM209.725 107.228C209.008 107.222 208.428 106.636 208.433 105.917C208.438 105.198 209.023 104.617 209.741 104.622C210.459 104.622 211.039 105.214 211.033 105.933C211.033 106.649 210.448 107.228 209.733 107.228H209.725ZM113.745 105.959C113.287 105.404 113.362 104.583 113.916 104.125C114.467 103.666 115.289 103.742 115.747 104.294C116.204 104.849 116.129 105.67 115.575 106.131C115.333 106.331 115.039 106.43 114.748 106.43C114.374 106.43 114.002 106.269 113.745 105.959ZM32.0383 105.756C31.5884 105.193 31.6794 104.372 32.2411 103.924C32.8027 103.473 33.6217 103.564 34.069 104.127C34.5162 104.69 34.4252 105.508 33.8636 105.959C33.6243 106.149 33.3383 106.243 33.0549 106.243C32.6727 106.243 32.2957 106.076 32.0383 105.756ZM35.2026 103.041C34.6254 102.611 34.5084 101.793 34.9374 101.217C35.3664 100.638 36.1803 100.521 36.7549 100.951C37.3321 101.381 37.4491 102.196 37.0201 102.775C36.7653 103.116 36.3753 103.299 35.9775 103.299C35.707 103.299 35.434 103.213 35.2026 103.041ZM111.111 102.684C110.666 102.118 110.767 101.298 111.332 100.855C111.898 100.412 112.715 100.513 113.157 101.079C113.599 101.647 113.5 102.465 112.936 102.908C112.697 103.093 112.416 103.184 112.135 103.184C111.748 103.184 111.365 103.012 111.111 102.684ZM208.376 101.8C208.353 101.081 208.914 100.479 209.632 100.453C210.35 100.43 210.95 100.993 210.976 101.712C211 102.431 210.438 103.035 209.72 103.059H209.676C208.977 103.059 208.399 102.504 208.376 101.8ZM108.578 99.3148C108.157 98.7312 108.287 97.9156 108.869 97.4962C109.452 97.0741 110.266 97.2044 110.687 97.788H110.684C111.105 98.3716 110.975 99.1871 110.393 99.6092C110.162 99.7734 109.896 99.8541 109.631 99.8541C109.228 99.8541 108.833 99.6665 108.578 99.3148ZM37.3295 99.4894C36.6769 99.1897 36.3909 98.4185 36.6899 97.7645C36.9863 97.1105 37.7585 96.8213 38.4112 97.121C39.0638 97.4206 39.3524 98.1918 39.0534 98.8458C38.835 99.3252 38.3644 99.6092 37.8703 99.6092C37.6909 99.6092 37.5063 99.5701 37.3295 99.4894ZM208.155 97.6916C208.103 96.9725 208.641 96.3497 209.356 96.295C210.071 96.2429 210.695 96.7823 210.747 97.4988C210.802 98.2179 210.264 98.8406 209.549 98.8953C209.515 98.8953 209.484 98.8953 209.45 98.8953C208.776 98.8953 208.207 98.3716 208.155 97.689V97.6916ZM106.186 95.826C105.796 95.2242 105.965 94.4165 106.568 94.023C107.169 93.6322 107.975 93.8042 108.367 94.406C108.757 95.0105 108.586 95.8156 107.985 96.2091C107.767 96.3524 107.52 96.4201 107.278 96.4201C106.852 96.4201 106.436 96.2117 106.186 95.826ZM39.1314 95.7348C38.5126 95.3675 38.3124 94.5676 38.679 93.9501C39.0456 93.33 39.8438 93.1267 40.4601 93.4941C41.0763 93.8615 41.2791 94.6614 40.9125 95.2815C40.6707 95.6906 40.2391 95.9172 39.7944 95.9172C39.5682 95.9172 39.3394 95.8573 39.1314 95.7348ZM207.77 93.5931C207.69 92.8792 208.202 92.2331 208.914 92.1497C209.627 92.0689 210.272 92.5822 210.355 93.2961C210.435 94.0126 209.923 94.6588 209.211 94.7395C209.161 94.7448 209.112 94.7474 209.062 94.7474C208.41 94.7474 207.846 94.2575 207.77 93.5931ZM4.31835 94.4347C3.60332 94.3513 3.09369 93.7026 3.1769 92.9887C3.2627 92.2747 3.90753 91.7641 4.62256 91.8475C5.3324 91.9308 5.84462 92.577 5.76142 93.2935C5.68341 93.9553 5.12179 94.4451 4.47176 94.4451C4.41975 94.4451 4.37035 94.4399 4.31835 94.4347ZM103.984 92.1966C103.63 91.5713 103.851 90.7766 104.475 90.4222C105.102 90.0679 105.895 90.2894 106.246 90.9147C106.599 91.5426 106.378 92.3373 105.752 92.6916C105.552 92.8063 105.331 92.861 105.115 92.861C104.66 92.861 104.22 92.6213 103.981 92.1966H103.984ZM41.3337 92.1966C40.7669 91.7563 40.6629 90.9381 41.0997 90.3701C41.5417 89.7995 42.3582 89.6953 42.925 90.1382C43.4918 90.576 43.5958 91.3941 43.1564 91.9647C42.9016 92.2956 42.5168 92.4702 42.1293 92.4702C41.8511 92.4702 41.5703 92.3816 41.3337 92.1966ZM207.222 89.5129C207.11 88.8016 207.596 88.1346 208.306 88.0252C209.016 87.9131 209.679 88.4004 209.79 89.1117C209.902 89.823 209.416 90.49 208.706 90.5994C208.639 90.6098 208.571 90.6151 208.506 90.6151C207.874 90.6151 207.32 90.1565 207.222 89.5129ZM4.83317 90.2972C4.12594 90.1851 3.63972 89.5155 3.75412 88.8068C3.86593 88.0955 4.53156 87.6109 5.24139 87.7229C5.95123 87.835 6.43485 88.5046 6.32044 89.2133C6.21904 89.8568 5.66781 90.3128 5.03858 90.3128C4.97098 90.3128 4.90338 90.3076 4.83317 90.2972ZM43.9572 88.9632C43.4528 88.4525 43.4554 87.6291 43.9676 87.1211C44.4773 86.6156 45.2989 86.6208 45.8059 87.1315C46.3103 87.6422 46.3051 88.4681 45.7955 88.9736C45.5433 89.2263 45.2105 89.3514 44.8803 89.3514C44.5449 89.3514 44.212 89.2211 43.9572 88.9632ZM102.031 88.403C101.727 87.7516 102.008 86.9778 102.658 86.6703C103.308 86.3655 104.082 86.6469 104.387 87.2982C104.691 87.9496 104.41 88.7261 103.76 89.0309C103.583 89.1143 103.393 89.1534 103.209 89.1534C102.72 89.1534 102.252 88.8772 102.031 88.403ZM46.9864 86.1101C46.5522 85.5343 46.6666 84.7188 47.2412 84.2863C47.8132 83.8512 48.6297 83.9658 49.0613 84.539C49.4929 85.1148 49.3811 85.9304 48.8065 86.3655C48.5724 86.5427 48.2968 86.6286 48.0238 86.6286C47.6312 86.6286 47.2412 86.4489 46.9864 86.1101ZM206.509 85.464C206.371 84.7605 206.829 84.0726 207.534 83.9345C208.238 83.7965 208.922 84.255 209.06 84.9611C209.2 85.6672 208.74 86.3524 208.035 86.4905C207.952 86.5062 207.866 86.5166 207.783 86.5166C207.175 86.5166 206.631 86.0841 206.509 85.464ZM5.51701 86.1857C4.81237 86.045 4.35475 85.3572 4.49776 84.6537C4.63816 83.9476 5.3246 83.489 6.02923 83.6323C6.73126 83.773 7.18889 84.4583 7.04588 85.1643C6.92367 85.7845 6.38025 86.2118 5.77442 86.2118C5.68861 86.2118 5.60281 86.2039 5.51701 86.1857ZM100.356 84.5026C100.091 83.8329 100.416 83.0773 101.085 82.8116C101.75 82.5458 102.507 82.8715 102.772 83.5411C103.037 84.2107 102.71 84.9663 102.044 85.2321C101.885 85.2946 101.724 85.3259 101.563 85.3259C101.048 85.3259 100.559 85.0132 100.356 84.5026ZM50.3665 83.6818C50.0077 83.0591 50.2235 82.2618 50.845 81.9023C51.469 81.5453 52.262 81.759 52.6208 82.3843C52.9771 83.007 52.7638 83.8043 52.1398 84.1638C51.937 84.2811 51.7134 84.3358 51.495 84.3358C51.0452 84.3358 50.6057 84.1013 50.3665 83.6818ZM54.0171 81.686C53.7285 81.0268 54.0275 80.2608 54.6853 79.9716C55.3432 79.685 56.1076 79.9846 56.3962 80.6438C56.6822 81.303 56.3832 82.0716 55.7254 82.3582C55.5564 82.4338 55.3796 82.4677 55.2054 82.4677C54.7061 82.4677 54.2277 82.1758 54.0145 81.686H54.0171ZM205.633 81.4489C205.466 80.7506 205.896 80.0471 206.595 79.8778C207.292 79.711 207.994 80.1409 208.163 80.8418C208.329 81.5401 207.9 82.2436 207.201 82.4129C207.099 82.4364 206.998 82.4494 206.897 82.4494C206.309 82.4494 205.776 82.0456 205.633 81.4489ZM6.36465 82.1055C5.66781 81.9361 5.23879 81.23 5.4078 80.5318C5.57941 79.8335 6.28144 79.4036 6.97828 79.5729C7.67771 79.7423 8.10413 80.4484 7.93512 81.1467C7.79211 81.7433 7.25909 82.142 6.67406 82.142C6.57266 82.142 6.46865 82.1315 6.36465 82.1055ZM98.8874 80.5396C98.6508 79.8622 99.007 79.117 99.6857 78.8799C100.364 78.6428 101.105 79.0023 101.342 79.6824C101.579 80.3598 101.22 81.1024 100.544 81.3395C100.401 81.389 100.258 81.4124 100.115 81.4124C99.5765 81.4124 99.0746 81.0763 98.8874 80.5396ZM57.8575 80.0888C57.6313 79.4062 58.0005 78.6688 58.6817 78.4422C59.363 78.2155 60.0988 78.5829 60.325 79.2681C60.5512 79.9508 60.182 80.6881 59.5008 80.9148C59.3656 80.9591 59.2278 80.9825 59.0925 80.9825C58.5465 80.9825 58.0395 80.636 57.8575 80.0888ZM61.8227 78.833C61.6459 78.1347 62.0671 77.426 62.7613 77.2488C63.4582 77.0691 64.1654 77.4912 64.3448 78.1894C64.5216 78.8851 64.1004 79.5938 63.4036 79.7736C63.2969 79.7996 63.1877 79.8127 63.0811 79.8127C62.5039 79.8127 61.9735 79.4218 61.8227 78.833ZM65.8841 77.9211C65.6813 77.2306 66.0791 76.5063 66.7681 76.3056C67.4571 76.105 68.18 76.5011 68.3802 77.1941C68.5804 77.8846 68.1852 78.6063 67.4961 78.8095C67.3739 78.8434 67.2517 78.8616 67.1321 78.8616C66.5679 78.8616 66.0479 78.4917 65.8841 77.9211ZM204.595 77.4729C204.4 76.7799 204.801 76.0581 205.492 75.8627C206.184 75.6673 206.902 76.0686 207.097 76.7616C207.294 77.4547 206.891 78.1738 206.2 78.3692C206.083 78.4031 205.963 78.4213 205.846 78.4213C205.279 78.4213 204.757 78.0461 204.595 77.4729ZM7.3787 78.0644C6.68966 77.8663 6.28924 77.1446 6.48685 76.4516C6.68446 75.7611 7.4047 75.3599 8.09373 75.5579C8.78536 75.7559 9.18318 76.4776 8.98557 77.1707C8.82176 77.7413 8.30434 78.1139 7.73751 78.1139C7.61791 78.1139 7.4983 78.0982 7.3787 78.0644ZM97.5588 76.5506C97.3404 75.8653 97.7174 75.1306 98.4012 74.9117C99.085 74.6929 99.8157 75.0706 100.037 75.7559C100.255 76.4411 99.8781 77.1733 99.1942 77.3922C99.0616 77.4364 98.929 77.4547 98.7964 77.4547C98.2478 77.4547 97.7356 77.1029 97.5588 76.5506ZM69.7868 76.4959C69.3942 75.894 69.5632 75.0863 70.1639 74.6928C70.7645 74.2994 71.5705 74.4662 71.9632 75.068C72.3558 75.6699 72.1868 76.4776 71.5861 76.8737C71.3677 77.017 71.1207 77.0847 70.8763 77.0847C70.4525 77.0847 70.0365 76.8789 69.7868 76.4959ZM73.167 74.0649C72.6652 73.5516 72.6756 72.7257 73.1904 72.2228C73.7052 71.72 74.5269 71.733 75.0287 72.2463C75.5305 72.7622 75.5201 73.5855 75.0053 74.0884C74.7531 74.3359 74.4255 74.4584 74.0979 74.4584C73.7598 74.4584 73.4218 74.3281 73.167 74.0649ZM203.397 73.5412C203.173 72.856 203.545 72.1212 204.229 71.8972C204.91 71.6731 205.646 72.0457 205.87 72.7283C206.093 73.4136 205.721 74.1483 205.04 74.3724C204.905 74.4167 204.77 74.4375 204.634 74.4375C204.088 74.4375 203.579 74.0884 203.399 73.5412H203.397ZM8.55915 74.0545C7.87792 73.8278 7.5061 73.0905 7.73231 72.4078C7.95852 71.7252 8.69436 71.3552 9.37559 71.5819C10.0594 71.8086 10.4286 72.5459 10.2024 73.2286C10.0204 73.7757 9.5134 74.1223 8.96737 74.1223C8.83216 74.1223 8.69436 74.0988 8.55915 74.0545ZM96.3107 72.5563C96.0975 71.8711 96.4823 71.1416 97.1687 70.9279C97.8526 70.7169 98.5806 71.0999 98.7938 71.7877C99.007 72.4756 98.6222 73.2051 97.9358 73.4162C97.8084 73.4578 97.6784 73.4761 97.5536 73.4761C96.9971 73.4761 96.4823 73.1165 96.3107 72.5563ZM76.061 71.0686C75.4967 70.6257 75.3953 69.8075 75.8373 69.2395C76.2794 68.6741 77.0958 68.5725 77.6626 69.0155C78.2295 69.4584 78.3283 70.2765 77.8862 70.8419C77.6314 71.1728 77.2466 71.3448 76.8618 71.3448C76.581 71.3448 76.3002 71.2536 76.061 71.0686ZM202.04 69.659C201.79 68.9868 202.131 68.2364 202.804 67.9837C203.475 67.731 204.224 68.0749 204.476 68.7471C204.728 69.4219 204.385 70.1723 203.714 70.425C203.563 70.4798 203.41 70.5058 203.259 70.5058C202.731 70.5058 202.235 70.1827 202.04 69.659ZM9.90082 70.0994C9.22738 69.844 8.88937 69.0936 9.14418 68.4214C9.39639 67.7466 10.1478 67.4079 10.8187 67.6606C11.4895 67.916 11.8301 68.6663 11.5753 69.3412C11.3803 69.8623 10.8837 70.1827 10.3584 70.1827C10.2076 70.1827 10.0516 70.1567 9.90082 70.0994ZM95.0783 68.5804C94.8624 67.8951 95.2447 67.163 95.9285 66.9467C96.6149 66.7331 97.343 67.1135 97.5588 67.7987C97.7746 68.4866 97.3924 69.2187 96.7085 69.4324C96.5785 69.474 96.4459 69.4923 96.3185 69.4923C95.7647 69.4923 95.2525 69.1379 95.0783 68.5804ZM78.5545 67.7258C77.946 67.3453 77.7614 66.5403 78.1411 65.9306C78.5233 65.3209 79.3241 65.1359 79.9325 65.5189C80.541 65.8993 80.7256 66.7044 80.346 67.3141C80.0989 67.7075 79.6751 67.9264 79.2435 67.9264C79.0069 67.9264 78.7677 67.8612 78.5545 67.7258ZM200.526 65.8368C200.248 65.175 200.56 64.409 201.22 64.1302C201.884 63.8514 202.645 64.164 202.924 64.8258C203.202 65.4902 202.89 66.2536 202.229 66.5324C202.063 66.6028 201.894 66.6367 201.725 66.6367C201.218 66.6367 200.737 66.337 200.526 65.8368ZM11.4011 66.2015C10.7407 65.9227 10.4312 65.1567 10.7121 64.4949C10.9929 63.8331 11.7573 63.5231 12.4177 63.8045C13.0782 64.0859 13.3876 64.8519 13.1068 65.5137C12.8962 66.0087 12.4151 66.3058 11.9107 66.3058C11.7391 66.3058 11.5675 66.2745 11.4011 66.2015ZM93.8068 64.6382C93.578 63.9556 93.9446 63.2182 94.6258 62.989C95.3045 62.7597 96.0429 63.127 96.2717 63.8097C96.5005 64.4923 96.1339 65.2297 95.4527 65.459C95.3149 65.5059 95.1771 65.5267 95.0393 65.5267C94.4958 65.5267 93.9888 65.1828 93.8068 64.6382ZM80.6996 64.1536C80.0599 63.8253 79.8077 63.0411 80.1327 62.4001C80.4578 61.7592 81.243 61.5038 81.8826 61.8321C82.5223 62.1578 82.7745 62.9421 82.4495 63.583C82.2206 64.0364 81.763 64.2943 81.2898 64.2943C81.0922 64.2943 80.8894 64.25 80.6996 64.1536ZM198.86 62.0796C198.555 61.4283 198.834 60.6518 199.484 60.347C200.134 60.0395 200.908 60.3209 201.213 60.9723C201.52 61.6237 201.239 62.4001 200.589 62.705C200.409 62.7883 200.222 62.83 200.037 62.83C199.549 62.83 199.081 62.5512 198.86 62.0796ZM13.06 62.3715C12.4099 62.064 12.1343 61.2876 12.4411 60.6362C12.7479 59.9874 13.5228 59.7086 14.1728 60.0161C14.8202 60.3235 15.0985 61.1026 14.7916 61.7513C14.568 62.2229 14.1 62.4965 13.6138 62.4965C13.4292 62.4965 13.2394 62.4574 13.06 62.3715ZM92.4339 60.7534C92.1817 60.0812 92.5197 59.3308 93.1932 59.0755C93.8666 58.8228 94.6154 59.1641 94.8676 59.8389C95.1199 60.5111 94.7818 61.2615 94.1084 61.5168C93.9576 61.5716 93.8042 61.6002 93.6508 61.6002C93.1256 61.6002 92.6289 61.2771 92.4339 60.7534ZM82.5327 60.4069C81.8696 60.1333 81.5524 59.3725 81.8254 58.7055C82.0984 58.0411 82.8577 57.7232 83.5233 57.9968C84.1863 58.2704 84.5036 59.0312 84.2305 59.6956C84.0251 60.2011 83.5389 60.5059 83.0267 60.5033C82.8629 60.5033 82.6965 60.472 82.5327 60.4069ZM197.042 58.3903C196.709 57.7519 196.959 56.965 197.596 56.6341C198.233 56.3032 199.016 56.5508 199.348 57.1891C199.679 57.8275 199.432 58.6143 198.795 58.9452C198.602 59.0468 198.397 59.0937 198.197 59.0937C197.726 59.0937 197.274 58.8384 197.042 58.3903ZM14.8722 58.6117C14.2352 58.2782 13.9908 57.4914 14.3236 56.853C14.6564 56.2173 15.4417 55.9724 16.0787 56.3059C16.7131 56.6394 16.9601 57.4262 16.6247 58.0646C16.3933 58.5075 15.9409 58.7628 15.4729 58.7628C15.2701 58.7628 15.0647 58.7133 14.8722 58.6117ZM90.8973 56.9572C90.6112 56.298 90.9077 55.5294 91.5655 55.2402C92.2233 54.951 92.9904 55.2506 93.279 55.9098C93.5676 56.5664 93.2686 57.3376 92.6107 57.6242C92.4417 57.6998 92.2623 57.7363 92.0881 57.7363C91.5889 57.7363 91.1105 57.4445 90.8973 56.9572ZM84.0563 56.5221C83.3725 56.3059 82.9929 55.5763 83.2087 54.8885C83.4245 54.2032 84.1551 53.8228 84.839 54.0391C85.5254 54.2553 85.905 54.9875 85.6892 55.6727C85.5124 56.2277 85.0002 56.5846 84.449 56.5846C84.3189 56.5846 84.1863 56.5638 84.0563 56.5221ZM195.074 54.7816C194.718 54.1563 194.933 53.359 195.557 53.0021C196.181 52.6451 196.974 52.8614 197.333 53.4867C197.69 54.112 197.471 54.9067 196.85 55.2637C196.644 55.3809 196.423 55.4356 196.205 55.4356C195.752 55.4356 195.316 55.2011 195.074 54.7816ZM16.8327 54.9302C16.2113 54.5706 15.9981 53.7759 16.3569 53.1506C16.7157 52.5279 17.5114 52.3142 18.1328 52.6738C18.7542 53.0334 18.9674 53.8306 18.6086 54.4533C18.3668 54.8728 17.93 55.1047 17.4802 55.1047C17.2618 55.1047 17.0382 55.05 16.8327 54.9302ZM89.1344 53.2887C88.799 52.6529 89.0408 51.8661 89.6726 51.5274C90.307 51.1913 91.0949 51.431 91.4329 52.0667C91.7683 52.7025 91.5265 53.4919 90.8921 53.828C90.697 53.9322 90.489 53.9818 90.2836 53.9818C89.8182 53.9818 89.3684 53.729 89.1344 53.2887ZM85.2446 52.5227C84.54 52.3742 84.0927 51.6837 84.2409 50.9802C84.3891 50.2767 85.0782 49.826 85.7802 49.9745C86.4822 50.123 86.9321 50.8135 86.7839 51.517C86.6539 52.1319 86.1156 52.5513 85.5124 52.5513C85.424 52.5513 85.333 52.5435 85.2446 52.5227ZM192.965 51.2512C192.583 50.6415 192.768 49.8364 193.376 49.456C193.984 49.073 194.785 49.258 195.167 49.8677C195.55 50.4774 195.365 51.2799 194.757 51.6629C194.541 51.7983 194.304 51.8609 194.068 51.8609C193.633 51.8609 193.212 51.6446 192.965 51.2512ZM18.9414 51.332C18.333 50.949 18.1536 50.1439 18.5358 49.5368C18.918 48.9271 19.7215 48.7447 20.3273 49.1303C20.9357 49.5159 21.1151 50.321 20.7329 50.9281C20.4833 51.3189 20.0621 51.5352 19.6331 51.5352C19.3939 51.5352 19.1547 51.4701 18.9388 51.332H18.9414ZM87.0803 49.813C86.6851 49.2137 86.8489 48.4034 87.4469 48.0073C88.0449 47.6087 88.8536 47.7755 89.2488 48.3747C89.6466 48.974 89.4828 49.7817 88.8822 50.1803C88.6611 50.3262 88.4141 50.3966 88.1671 50.3966C87.7459 50.3966 87.3325 50.1908 87.0803 49.813ZM86.0194 48.4216C85.3044 48.3669 84.7688 47.7416 84.8234 47.0251C84.878 46.306 85.502 45.7692 86.2196 45.8239C86.9347 45.8813 87.4703 46.5066 87.4157 47.2231C87.3637 47.9083 86.7943 48.4268 86.1208 48.4268C86.087 48.4268 86.0532 48.4242 86.0194 48.4216ZM190.713 47.8093C190.308 47.2153 190.459 46.405 191.051 45.9985C191.644 45.592 192.453 45.7432 192.858 46.3372C193.264 46.9313 193.113 47.7416 192.52 48.148C192.297 48.3018 192.039 48.3773 191.787 48.3773C191.374 48.3773 190.966 48.1793 190.713 47.8093ZM21.1931 47.8224C20.6003 47.4159 20.4521 46.603 20.8603 46.0115C21.2686 45.4201 22.0772 45.2716 22.67 45.6806C23.2602 46.0871 23.4085 46.9 23.0002 47.4915C22.748 47.8588 22.3424 48.0542 21.9316 48.0542C21.6742 48.0542 21.4168 47.9787 21.1931 47.8224ZM188.326 44.4613C187.897 43.8854 188.014 43.0699 188.592 42.6374C189.166 42.2075 189.983 42.3274 190.412 42.9058C190.841 43.4816 190.721 44.2971 190.147 44.727C189.913 44.9016 189.64 44.985 189.369 44.985C188.974 44.985 188.581 44.8052 188.326 44.4613ZM23.5827 44.4092C23.008 43.9766 22.8936 43.1611 23.3253 42.5853C23.7569 42.0095 24.5733 41.8948 25.1479 42.3274C25.7226 42.7573 25.837 43.5754 25.4053 44.1512C25.1505 44.4899 24.7605 44.6697 24.3653 44.6697C24.0949 44.6697 23.8193 44.5863 23.5853 44.4092H23.5827ZM185.804 41.2122H185.807C185.355 40.6546 185.44 39.8339 185.997 39.3805C186.556 38.9272 187.375 39.0132 187.827 39.5733C188.28 40.1309 188.191 40.9517 187.635 41.405C187.393 41.6004 187.104 41.6968 186.816 41.6968C186.439 41.6968 186.062 41.5301 185.804 41.2122ZM26.1074 41.095C25.551 40.639 25.4678 39.8183 25.9228 39.2607C26.3778 38.7031 27.1968 38.6197 27.7533 39.0757C28.3097 39.5317 28.3903 40.3524 27.9379 40.91C27.6805 41.2252 27.306 41.3868 26.929 41.3868C26.6404 41.3868 26.3492 41.293 26.1074 41.095ZM183.157 38.0674C182.682 37.528 182.736 36.7047 183.274 36.2279C183.815 35.7537 184.637 35.8084 185.11 36.3477C185.583 36.8871 185.531 37.7104 184.993 38.1846C184.746 38.4035 184.439 38.5103 184.135 38.5103C183.774 38.5103 183.415 38.3618 183.157 38.0674ZM28.7621 37.885C28.2265 37.4082 28.1771 36.5848 28.6529 36.0455C29.1287 35.5062 29.9504 35.4567 30.4886 35.9335C31.0242 36.4103 31.0762 37.2336 30.5978 37.773C30.343 38.0648 29.9842 38.2133 29.6253 38.2133C29.3185 38.2133 29.0117 38.1038 28.7621 37.885ZM180.383 35.032C179.889 34.5109 179.91 33.6849 180.43 33.1899C180.95 32.6922 181.772 32.7131 182.268 33.2342C182.762 33.7553 182.741 34.5786 182.221 35.0763C181.972 35.316 181.649 35.4358 181.327 35.4358C180.981 35.4358 180.641 35.3003 180.383 35.032ZM31.5442 34.7844C31.0268 34.2868 31.0112 33.4609 31.5078 32.9424C32.0045 32.4239 32.8287 32.4082 33.3461 32.9059C33.8635 33.4035 33.8792 34.2295 33.3825 34.748C33.1277 35.0137 32.7871 35.1466 32.4465 35.1466C32.1215 35.1466 31.7965 35.0268 31.5442 34.7844ZM177.492 32.1086C176.977 31.6083 176.964 30.7824 177.463 30.2665C177.962 29.7506 178.787 29.7376 179.301 30.2379C179.816 30.7381 179.829 31.5614 179.33 32.0799C179.075 32.3431 178.737 32.476 178.397 32.476C178.072 32.476 177.744 32.3535 177.492 32.1086ZM34.4486 31.8012C33.9494 31.2827 33.9676 30.4567 34.485 29.9591C35.0024 29.4588 35.824 29.477 36.3233 29.9955C36.8199 30.514 36.8043 31.3374 36.2869 31.8376C36.0347 32.0799 35.7096 32.1998 35.3846 32.1998C35.044 32.1998 34.7034 32.0669 34.4486 31.8012ZM174.486 29.3051C173.95 28.8257 173.904 28.0023 174.382 27.4656C174.86 26.9289 175.682 26.882 176.218 27.3614C176.753 27.8408 176.8 28.6641 176.319 29.2009C176.064 29.4901 175.708 29.636 175.352 29.636C175.042 29.636 174.733 29.5266 174.486 29.3051ZM37.4673 28.9351C36.9915 28.3958 37.0409 27.5724 37.5765 27.0956C38.1148 26.6188 38.9364 26.6683 39.4122 27.2051C39.888 27.7444 39.8412 28.5677 39.303 29.0445C39.056 29.266 38.7466 29.3728 38.4398 29.3728C38.081 29.3728 37.7247 29.2243 37.4673 28.9351ZM171.368 26.624C170.815 26.1655 170.734 25.3447 171.192 24.7898C171.647 24.2348 172.466 24.1566 173.022 24.6126C173.576 25.0712 173.654 25.8919 173.199 26.4469C172.942 26.7595 172.57 26.9211 172.193 26.9211C171.902 26.9211 171.61 26.8246 171.368 26.624ZM40.5979 26.1941C40.1454 25.6365 40.2261 24.8158 40.7825 24.3598C41.3389 23.9065 42.1579 23.9873 42.613 24.5448C43.0654 25.1024 42.9848 25.9231 42.4284 26.3765C42.1865 26.5745 41.8953 26.6709 41.6067 26.6709C41.2297 26.6709 40.8553 26.5094 40.5979 26.1941ZM43.8376 23.5808C43.406 23.0076 43.5204 22.1895 44.0924 21.757C44.6671 21.3244 45.4835 21.4391 45.9151 22.0149C46.3467 22.5881 46.2323 23.4062 45.6577 23.8388C45.4237 24.0159 45.1481 24.1019 44.8777 24.1019C44.4825 24.1019 44.0924 23.9221 43.8376 23.5808ZM47.1762 21.103C46.768 20.5115 46.9162 19.6986 47.5064 19.2896C48.0966 18.8805 48.9079 19.029 49.3161 19.6204C49.7243 20.2119 49.5761 21.0222 48.9859 21.4313C48.7597 21.5902 48.5022 21.6632 48.2474 21.6632C47.834 21.6632 47.4284 21.4677 47.1762 21.103ZM50.6109 18.7606C50.2261 18.1536 50.4081 17.3485 51.014 16.9628C51.6198 16.5772 52.4232 16.757 52.808 17.3667C53.1929 17.9738 53.0109 18.7789 52.405 19.1619C52.1892 19.3 51.9474 19.3651 51.7108 19.3651C51.2792 19.3651 50.858 19.1515 50.6109 18.7606ZM54.1367 16.559C53.7779 15.9363 53.9911 15.139 54.6099 14.7794C55.2314 14.4199 56.027 14.6309 56.3858 15.2536C56.7446 15.8764 56.534 16.6736 55.91 17.0332C55.7072 17.153 55.4836 17.2104 55.2626 17.2104C54.8127 17.2104 54.3759 16.9759 54.1341 16.559H54.1367ZM57.7483 14.5033C57.4129 13.8649 57.6573 13.078 58.2943 12.7419C58.9287 12.4084 59.714 12.6533 60.0494 13.2917C60.3848 13.9274 60.1404 14.7143 59.5034 15.0504C59.311 15.152 59.1029 15.1989 58.9001 15.1989C58.4321 15.1989 57.9797 14.9462 57.7483 14.5033ZM61.4379 12.596C61.1284 11.9447 61.4041 11.1682 62.0541 10.8582C62.7015 10.5507 63.479 10.8269 63.7858 11.4757C64.0952 12.127 63.817 12.9035 63.1695 13.2135C62.9901 13.2969 62.8003 13.3386 62.6131 13.3386C62.1269 13.3386 61.6615 13.065 61.4379 12.596ZM65.2002 10.8373C64.9194 10.1755 65.2262 9.41211 65.8867 9.13072C66.5471 8.84672 67.3089 9.15417 67.5923 9.81596C67.8732 10.4778 67.5664 11.2438 66.9059 11.5278C66.7395 11.5981 66.5679 11.632 66.3963 11.632C65.8919 11.632 65.4109 11.335 65.2002 10.8373ZM69.0302 9.23754C68.7728 8.56272 69.1108 7.81234 69.7843 7.557C70.4551 7.30166 71.2065 7.64037 71.4613 8.31259C71.7135 8.98741 71.3755 9.7378 70.7047 9.99314C70.5539 10.0505 70.3979 10.0791 70.2445 10.0791C69.7193 10.0791 69.2252 9.75864 69.0302 9.23754ZM72.9278 7.78889C72.7016 7.10625 73.0708 6.36889 73.752 6.14221C74.4333 5.91293 75.1691 6.28291 75.3953 6.96555C75.6241 7.64819 75.2549 8.38554 74.5737 8.61483C74.4385 8.65912 74.2981 8.67997 74.1629 8.67997C73.6194 8.67997 73.1098 8.33604 72.9278 7.78889ZM76.8852 6.50177C76.6876 5.81131 77.0828 5.08698 77.7744 4.88897C78.4661 4.68834 79.1863 5.08698 79.3865 5.78005C79.5841 6.4705 79.1863 7.19223 78.4973 7.39285C78.3751 7.42672 78.2555 7.44235 78.1358 7.44235C77.5716 7.44235 77.0516 7.07237 76.8878 6.50177H76.8852ZM80.8894 5.3762C80.7178 4.67792 81.1442 3.97183 81.8436 3.79987C82.5405 3.63051 83.2451 4.05781 83.4141 4.75609C83.5857 5.45436 83.1593 6.16045 82.4625 6.33241C82.3584 6.35586 82.2544 6.36889 82.153 6.36889C81.568 6.36889 81.035 5.97025 80.8894 5.3762ZM84.9378 4.41477C84.7948 3.71128 85.2498 3.02343 85.9544 2.88013C86.6591 2.73683 87.3455 3.19279 87.4885 3.89888C87.6315 4.60497 87.1739 5.29282 86.4718 5.43352C86.3834 5.45175 86.2976 5.45957 86.2118 5.45957C85.606 5.45957 85.0652 5.03487 84.9404 4.41477H84.9378ZM89.02 3.62009C88.9056 2.90879 89.3866 2.24178 90.0964 2.12714C90.8063 2.0125 91.4719 2.49712 91.5863 3.20582C91.7007 3.91712 91.2171 4.58673 90.5098 4.70137C90.4396 4.71179 90.3694 4.717 90.3018 4.717C89.6752 4.717 89.1214 4.26104 89.02 3.62009ZM119.163 4.15943C118.451 4.07345 117.944 3.42207 118.032 2.70817C118.118 1.99426 118.765 1.48619 119.478 1.57217C120.19 1.66076 120.697 2.30952 120.611 3.02343C120.531 3.68523 119.969 4.16985 119.322 4.16985C119.27 4.16985 119.218 4.16464 119.163 4.15943ZM93.1308 2.98956C93.045 2.27565 93.5546 1.62949 94.267 1.54351C94.9795 1.45753 95.6269 1.9682 95.7127 2.68211C95.7985 3.39602 95.2889 4.04479 94.5764 4.13077C94.5244 4.13598 94.4724 4.13858 94.4204 4.13858C93.7704 4.13858 93.2088 3.65396 93.1308 2.98956ZM115.076 3.74515C114.361 3.68523 113.828 3.0573 113.885 2.34079C113.945 1.62428 114.571 1.09015 115.286 1.14747C116.001 1.20479 116.537 1.83532 116.477 2.55184C116.423 3.23187 115.853 3.74776 115.182 3.74776C115.149 3.74776 115.112 3.74776 115.076 3.74515ZM97.2624 2.52839C97.2078 1.81187 97.7408 1.18395 98.4584 1.12663C99.1734 1.07191 99.8001 1.60604 99.8547 2.32516C99.9119 3.04167 99.3789 3.66959 98.6612 3.72431C98.6274 3.72692 98.5936 3.72952 98.5598 3.72952C97.8864 3.72952 97.317 3.21103 97.2624 2.52839ZM110.975 3.49503C110.258 3.46376 109.701 2.85928 109.73 2.14017C109.761 1.42105 110.364 0.860868 111.082 0.892134C111.8 0.920794 112.359 1.52527 112.327 2.24439C112.301 2.94527 111.724 3.49503 111.03 3.49503H110.975ZM101.412 2.23397C101.384 1.51485 101.945 0.907767 102.663 0.881712C103.378 0.853051 103.984 1.41323 104.01 2.13235C104.038 2.85147 103.479 3.45594 102.762 3.4846H102.71C102.015 3.4846 101.438 2.93484 101.412 2.23397ZM106.87 3.40904C106.152 3.40904 105.57 2.82281 105.572 2.10369C105.572 1.38718 106.155 0.806152 106.872 0.806152C107.59 0.806152 108.172 1.38978 108.17 2.1089C108.17 2.82802 107.587 3.41165 106.87 3.41165V3.40904Z" fill="url(#paint1_linear_1203_3958)"/>
</g>
<defs>
<linearGradient id="paint0_linear_1203_3958" x1="111.209" y1="97.6551" x2="188.454" y2="97.6551" gradientUnits="userSpaceOnUse">
<stop stop-color="#8CD6D6"/>
<stop offset="1" stop-color="#FF9F80"/>
</linearGradient>
<linearGradient id="paint1_linear_1203_3958" x1="0.0333467" y1="105.307" x2="211.033" y2="105.307" gradientUnits="userSpaceOnUse">
<stop stop-color="#8CD6D6"/>
<stop offset="1" stop-color="#FF9F80"/>
</linearGradient>
<clipPath id="clip0_1203_3958">
<rect width="211" height="209" fill="white" transform="translate(0.0332031 0.806152)"/>
</clipPath>
</defs>
</svg>
