<svg width="249" height="220" viewBox="0 0 249 220" fill="none" xmlns="http://www.w3.org/2000/svg">
<g clip-path="url(#clip0_1203_4169)">
<path d="M103.914 219.599C103.351 219.22 103.199 218.458 103.575 217.892C103.951 217.326 104.716 217.173 105.28 217.552C105.845 217.929 105.998 218.691 105.621 219.257C105.383 219.614 104.994 219.806 104.596 219.806C104.362 219.806 104.126 219.74 103.914 219.599ZM101.051 217.687C100.486 217.308 100.333 216.546 100.709 215.98C101.088 215.416 101.851 215.263 102.417 215.64C102.98 216.016 103.132 216.779 102.756 217.345C102.52 217.702 102.129 217.894 101.733 217.894C101.497 217.894 101.26 217.825 101.051 217.687ZM98.1859 215.775C97.6202 215.396 97.4677 214.633 97.8465 214.067C98.2228 213.504 98.9853 213.351 99.551 213.728C100.117 214.104 100.269 214.87 99.8929 215.433C99.6543 215.79 99.2657 215.982 98.8672 215.982C98.6335 215.982 98.395 215.916 98.1859 215.775ZM95.3204 213.863C94.7571 213.487 94.6046 212.721 94.9809 212.155C95.3573 211.592 96.1222 211.439 96.688 211.816C97.2512 212.192 97.4037 212.958 97.0274 213.521C96.7913 213.878 96.4002 214.07 96.0017 214.07C95.768 214.07 95.5319 214.003 95.3204 213.863ZM92.4573 211.951C91.8916 211.575 91.7391 210.809 92.1154 210.243C92.4942 209.68 93.2567 209.527 93.8224 209.904C94.3882 210.28 94.5382 211.046 94.1619 211.609C93.9258 211.966 93.5347 212.158 93.1387 212.158C92.905 212.158 92.6664 212.091 92.4573 211.951ZM89.5918 210.039C89.0286 209.663 88.8736 208.897 89.2524 208.331C89.6287 207.768 90.3937 207.615 90.9569 207.992C91.5227 208.368 91.6752 209.133 91.2988 209.697C91.0602 210.054 90.6716 210.246 90.2732 210.246C90.0395 210.246 89.8009 210.179 89.5918 210.039ZM86.7288 208.127C86.1631 207.75 86.0106 206.985 86.3869 206.419C86.7657 205.856 87.5282 205.703 88.0939 206.08C88.6572 206.456 88.8097 207.221 88.4333 207.787C88.1972 208.142 87.8061 208.334 87.4101 208.334C87.174 208.334 86.9379 208.267 86.7288 208.127ZM83.8633 206.215C83.2976 205.838 83.1451 205.073 83.5238 204.51C83.9002 203.944 84.6627 203.791 85.2284 204.168C85.7941 204.544 85.9466 205.309 85.5678 205.873C85.3317 206.23 84.9431 206.422 84.5446 206.422C84.3109 206.422 84.0724 206.355 83.8633 206.215ZM80.9978 204.303C80.4345 203.926 80.282 203.161 80.6583 202.597C80.9683 202.132 81.5389 201.945 82.0456 202.103C81.7357 201.697 81.6988 201.121 81.9989 200.673C82.3776 200.107 83.1401 199.955 83.7059 200.331C84.2691 200.708 84.4216 201.473 84.0453 202.036C83.7354 202.502 83.1647 202.689 82.658 202.529C82.968 202.937 83.0049 203.513 82.7048 203.963C82.4662 204.318 82.0776 204.51 81.6791 204.51C81.4454 204.51 81.2093 204.443 80.9978 204.303ZM78.1347 202.391C77.569 202.014 77.4165 201.249 77.7928 200.685C78.1716 200.119 78.9341 199.967 79.4998 200.343C80.0631 200.722 80.2156 201.485 79.8393 202.051C79.6031 202.406 79.2121 202.597 78.8161 202.597C78.5799 202.597 78.3438 202.531 78.1347 202.391ZM75.2692 200.479C74.7035 200.102 74.5535 199.337 74.9298 198.773C75.3061 198.207 76.0686 198.055 76.6343 198.431C77.2001 198.808 77.3526 199.573 76.9762 200.139C76.7376 200.493 76.349 200.685 75.9505 200.685C75.7169 200.685 75.4783 200.619 75.2692 200.479ZM84.2519 199.512C83.6862 199.135 83.5337 198.372 83.91 197.806C84.2863 197.24 85.0513 197.088 85.617 197.467C86.1803 197.843 86.3328 198.606 85.9564 199.172C85.7203 199.526 85.3292 199.721 84.9332 199.718C84.6971 199.718 84.461 199.652 84.2519 199.512ZM72.4037 198.567C71.8405 198.19 71.688 197.425 72.0643 196.861C72.4406 196.295 73.2056 196.143 73.7713 196.519C74.3346 196.898 74.4871 197.661 74.1107 198.227C73.8746 198.581 73.4835 198.773 73.0875 198.773C72.8514 198.773 72.6153 198.707 72.4037 198.567ZM69.5407 196.655C68.9749 196.278 68.8225 195.515 69.1988 194.949C69.5776 194.383 70.3401 194.231 70.9058 194.607C71.4715 194.986 71.624 195.749 71.2452 196.315C71.0091 196.669 70.618 196.861 70.222 196.861C69.9883 196.861 69.7497 196.795 69.5407 196.655ZM86.1631 196.647C85.5973 196.271 85.4448 195.505 85.8212 194.939C86.1975 194.376 86.9625 194.223 87.5282 194.6C88.0914 194.976 88.2439 195.742 87.8676 196.305C87.6315 196.662 87.2404 196.854 86.8444 196.854C86.6083 196.854 86.3721 196.787 86.1631 196.647ZM116.181 195.331C115.517 195.193 115.089 194.543 115.226 193.876C115.364 193.212 116.014 192.784 116.678 192.921C117.344 193.057 117.772 193.709 117.634 194.373C117.514 194.957 117.002 195.358 116.432 195.358C116.348 195.358 116.267 195.348 116.183 195.331H116.181ZM118.665 194.292C118.426 193.655 118.749 192.946 119.383 192.707C120.02 192.469 120.729 192.791 120.967 193.428C121.206 194.063 120.884 194.774 120.247 195.011C120.106 195.065 119.959 195.092 119.816 195.092C119.319 195.092 118.85 194.787 118.665 194.292ZM66.6752 194.742C66.1119 194.366 65.9594 193.603 66.3357 193.037C66.7121 192.471 67.477 192.319 68.0403 192.695C68.606 193.074 68.7585 193.837 68.3822 194.403C68.1436 194.757 67.755 194.949 67.3565 194.949C67.1228 194.949 66.8842 194.883 66.6752 194.742ZM88.0742 193.78C87.5085 193.404 87.356 192.641 87.7323 192.075C88.1087 191.509 88.8736 191.356 89.4393 191.733C90.0026 192.109 90.1551 192.875 89.7788 193.441C89.5426 193.795 89.1516 193.987 88.7555 193.987C88.5194 193.987 88.2833 193.921 88.0742 193.78ZM112.681 193.64C112.117 193.264 111.965 192.498 112.341 191.932C112.718 191.369 113.483 191.216 114.046 191.593C114.612 191.969 114.764 192.734 114.388 193.298C114.149 193.655 113.76 193.847 113.364 193.847C113.128 193.847 112.892 193.78 112.681 193.64ZM121.796 192.808C121.255 192.397 121.147 191.627 121.558 191.086C121.587 191.046 121.619 191.009 121.651 190.972C121.673 190.931 121.698 190.889 121.725 190.847C122.101 190.281 122.866 190.128 123.432 190.507C123.995 190.884 124.148 191.647 123.771 192.213C123.729 192.274 123.685 192.331 123.636 192.383C123.602 192.447 123.565 192.508 123.52 192.567C123.277 192.887 122.91 193.057 122.537 193.057C122.278 193.057 122.018 192.976 121.796 192.808ZM63.8121 192.83C63.2464 192.454 63.0939 191.691 63.4702 191.125C63.849 190.559 64.6115 190.406 65.1772 190.783C65.7405 191.162 65.893 191.925 65.5167 192.491C65.2805 192.845 64.8895 193.037 64.4934 193.037C64.2573 193.037 64.0212 192.971 63.8121 192.83ZM109.818 191.728C109.252 191.351 109.099 190.586 109.476 190.02C109.855 189.457 110.617 189.304 111.183 189.681C111.746 190.057 111.901 190.822 111.522 191.386C111.286 191.743 110.895 191.935 110.499 191.935C110.263 191.935 110.027 191.868 109.818 191.728ZM60.9466 190.918C60.3809 190.542 60.2284 189.779 60.6072 189.213C60.9835 188.647 61.746 188.494 62.3117 188.873C62.8774 189.25 63.0299 190.013 62.6512 190.579C62.415 190.933 62.0264 191.125 61.6279 191.125C61.3943 191.125 61.1557 191.059 60.9466 190.918ZM89.9829 190.918C89.4197 190.539 89.2672 189.777 89.6435 189.211C90.0198 188.645 90.7848 188.492 91.3505 188.871C91.9138 189.247 92.0663 190.01 91.6899 190.576C91.4538 190.933 91.0627 191.125 90.6667 191.125C90.4306 191.125 90.1945 191.056 89.9829 190.918ZM106.952 189.818C106.386 189.442 106.234 188.677 106.613 188.111C106.989 187.547 107.752 187.394 108.317 187.771C108.883 188.147 109.035 188.913 108.657 189.479C108.421 189.833 108.032 190.025 107.633 190.025C107.4 190.025 107.161 189.959 106.952 189.818ZM123.975 189.69C123.412 189.314 123.26 188.549 123.636 187.983C124.012 187.419 124.777 187.266 125.341 187.643C125.906 188.019 126.059 188.785 125.682 189.348C125.446 189.705 125.055 189.897 124.657 189.897C124.423 189.897 124.187 189.831 123.975 189.69ZM58.0811 189.009C57.5178 188.632 57.3653 187.869 57.7417 187.303C58.118 186.737 58.883 186.585 59.4462 186.964C60.0119 187.34 60.1644 188.103 59.7881 188.669C59.5495 189.023 59.1609 189.218 58.7624 189.215C58.5288 189.215 58.2926 189.149 58.0811 189.009ZM91.8965 188.051C91.3308 187.675 91.1783 186.91 91.5546 186.344C91.931 185.78 92.6959 185.628 93.2592 186.004C93.8249 186.381 93.9774 187.146 93.6011 187.712C93.365 188.066 92.9739 188.258 92.5754 188.258C92.3417 188.258 92.1056 188.192 91.8965 188.051ZM104.089 187.906C103.523 187.53 103.371 186.764 103.747 186.201C104.124 185.635 104.888 185.482 105.452 185.859C106.017 186.235 106.17 187.001 105.794 187.564C105.557 187.921 105.166 188.113 104.77 188.113C104.534 188.113 104.298 188.047 104.089 187.906ZM125.889 186.824C125.323 186.447 125.171 185.684 125.547 185.118C125.924 184.552 126.688 184.4 127.252 184.776C127.817 185.153 127.97 185.918 127.594 186.484C127.357 186.838 126.966 187.03 126.57 187.03C126.334 187.03 126.098 186.964 125.889 186.824ZM101.224 185.994C100.658 185.618 100.505 184.852 100.882 184.289C101.26 183.723 102.023 183.57 102.589 183.947C103.152 184.323 103.307 185.089 102.928 185.655C102.692 186.009 102.301 186.201 101.905 186.201C101.671 186.201 101.433 186.134 101.224 185.994ZM93.8052 185.185C93.242 184.808 93.0895 184.045 93.4658 183.479C93.8421 182.913 94.6071 182.761 95.1703 183.14C95.7361 183.516 95.8886 184.279 95.5122 184.845C95.2761 185.199 94.885 185.391 94.4866 185.391C94.2529 185.391 94.0168 185.325 93.8052 185.185ZM98.3581 184.082C97.7948 183.706 97.6423 182.94 98.0186 182.377C98.395 181.811 99.1575 181.658 99.7232 182.035C100.289 182.411 100.441 183.177 100.065 183.743C99.8265 184.097 99.4379 184.289 99.0394 184.289C98.8057 184.289 98.5696 184.222 98.3581 184.082ZM127.798 183.959C127.234 183.58 127.082 182.817 127.458 182.251C127.835 181.685 128.6 181.533 129.163 181.912C129.729 182.288 129.881 183.051 129.505 183.617C129.266 183.974 128.878 184.166 128.479 184.166C128.245 184.166 128.009 184.097 127.798 183.959ZM95.7164 182.32C95.6795 182.293 95.6451 182.268 95.6106 182.239C95.5713 182.219 95.5319 182.195 95.495 182.17C94.9293 181.794 94.7768 181.028 95.1531 180.465C95.5295 179.899 96.2944 179.746 96.8601 180.123C96.897 180.147 96.9315 180.174 96.9659 180.204C97.0052 180.224 97.0446 180.246 97.0815 180.273C97.6472 180.649 97.7997 181.412 97.4234 181.978C97.1848 182.335 96.7962 182.527 96.3977 182.527C96.164 182.527 95.9279 182.46 95.7164 182.32ZM129.709 181.092C129.146 180.716 128.993 179.95 129.369 179.387C129.746 178.821 130.511 178.668 131.074 179.045C131.64 179.421 131.792 180.187 131.416 180.753C131.177 181.107 130.789 181.299 130.39 181.299C130.157 181.299 129.92 181.232 129.709 181.092ZM92.6295 180.258C92.0638 179.881 91.9113 179.116 92.2901 178.553C92.6664 177.987 93.4289 177.834 93.9946 178.211C94.5603 178.59 94.7128 179.352 94.3341 179.918C94.0979 180.273 93.7093 180.465 93.3108 180.465C93.0772 180.465 92.8386 180.398 92.6295 180.258ZM89.764 178.346C89.2007 177.969 89.0482 177.207 89.4246 176.641C89.8009 176.075 90.5659 175.922 91.1291 176.298C91.6948 176.677 91.8473 177.44 91.471 178.006C91.2324 178.361 90.8438 178.553 90.4453 178.553C90.2117 178.553 89.9755 178.486 89.764 178.346ZM131.62 178.225C131.057 177.849 130.904 177.086 131.281 176.52C131.657 175.954 132.419 175.801 132.985 176.18C133.551 176.557 133.703 177.32 133.327 177.886C133.088 178.24 132.7 178.432 132.301 178.432C132.068 178.432 131.832 178.366 131.62 178.225ZM86.901 176.434C86.3352 176.057 86.1827 175.294 86.5591 174.728C86.9379 174.162 87.7004 174.01 88.2661 174.386C88.8293 174.765 88.9843 175.528 88.6055 176.094C88.3694 176.449 87.9783 176.641 87.5823 176.641C87.3462 176.641 87.11 176.574 86.901 176.434ZM133.531 175.361C132.966 174.982 132.815 174.219 133.192 173.653C133.568 173.09 134.333 172.935 134.896 173.313C135.462 173.69 135.615 174.455 135.238 175.019C135 175.376 134.611 175.568 134.213 175.568C133.979 175.568 133.743 175.501 133.531 175.361ZM84.0355 174.522C83.4697 174.145 83.3172 173.382 83.696 172.816C84.0724 172.25 84.8348 172.098 85.4006 172.474C85.9663 172.853 86.1188 173.616 85.74 174.182C85.5039 174.537 85.1152 174.728 84.7168 174.728C84.4831 174.728 84.2445 174.662 84.0355 174.522ZM81.1724 172.61C80.6067 172.233 80.4542 171.47 80.8305 170.904C81.2068 170.338 81.9718 170.186 82.5351 170.565C83.1008 170.941 83.2533 171.704 82.877 172.27C82.6408 172.624 82.2497 172.816 81.8537 172.816C81.6176 172.816 81.3815 172.75 81.1724 172.61ZM135.442 172.494C134.899 172.132 134.736 171.411 135.061 170.853C134.995 170.54 135.049 170.201 135.241 169.913C135.619 169.347 136.382 169.194 136.948 169.573C137.491 169.935 137.654 170.656 137.329 171.214C137.395 171.527 137.341 171.867 137.149 172.154C136.911 172.509 136.522 172.701 136.124 172.701C135.89 172.701 135.651 172.634 135.442 172.494ZM78.3069 170.698C77.7412 170.321 77.5887 169.558 77.965 168.992C78.3438 168.426 79.1063 168.274 79.672 168.653C80.2353 169.029 80.3902 169.792 80.0114 170.358C79.7753 170.712 79.3842 170.907 78.9882 170.907C78.7546 170.907 78.516 170.838 78.3069 170.698ZM132.717 169.708C132.151 169.332 131.999 168.567 132.378 168.001C132.754 167.437 133.516 167.284 134.082 167.661C134.648 168.037 134.8 168.803 134.424 169.366C134.186 169.723 133.797 169.915 133.398 169.915C133.165 169.915 132.926 169.849 132.717 169.708ZM137.354 169.627C136.788 169.251 136.635 168.488 137.014 167.922C137.39 167.356 138.153 167.203 138.719 167.582C139.284 167.959 139.437 168.722 139.058 169.288C138.822 169.642 138.433 169.836 138.035 169.836C137.801 169.836 137.563 169.767 137.354 169.627ZM75.5103 167.868C75.1782 167.272 75.3897 166.524 75.985 166.192C76.5778 165.86 77.3255 166.074 77.6576 166.667C77.9896 167.26 77.7756 168.008 77.1828 168.34C76.9934 168.446 76.7868 168.498 76.5851 168.498C76.1547 168.498 75.7366 168.269 75.5103 167.868ZM129.854 167.796C129.288 167.42 129.136 166.654 129.512 166.088C129.888 165.525 130.653 165.372 131.217 165.749C131.782 166.125 131.935 166.891 131.559 167.454C131.322 167.811 130.931 168.003 130.535 168.003C130.299 168.003 130.063 167.937 129.854 167.796ZM139.265 166.763C138.699 166.386 138.546 165.621 138.925 165.055C139.302 164.491 140.064 164.339 140.63 164.715C141.196 165.092 141.348 165.857 140.972 166.421C140.733 166.777 140.344 166.969 139.946 166.969C139.712 166.969 139.474 166.903 139.265 166.763ZM126.989 165.884C126.423 165.508 126.27 164.742 126.647 164.176C127.025 163.613 127.788 163.46 128.354 163.837C128.917 164.213 129.072 164.979 128.693 165.542C128.457 165.899 128.066 166.091 127.67 166.091C127.436 166.091 127.198 166.024 126.989 165.884ZM75.7513 165.183C75.0724 165.148 74.551 164.57 74.5854 163.891C74.6223 163.212 75.2003 162.69 75.8792 162.727C76.5581 162.761 77.0771 163.34 77.0426 164.019C77.0082 164.676 76.4646 165.185 75.8153 165.185C75.7931 165.185 75.7735 165.185 75.7513 165.185V165.183ZM124.123 163.972C123.56 163.596 123.407 162.83 123.784 162.264C124.16 161.701 124.925 161.548 125.488 161.925C126.054 162.301 126.206 163.067 125.83 163.633C125.591 163.987 125.203 164.179 124.804 164.179C124.571 164.179 124.335 164.112 124.123 163.972ZM141.176 163.896C140.61 163.519 140.458 162.756 140.836 162.19C141.213 161.624 141.975 161.472 142.541 161.848C143.107 162.227 143.259 162.99 142.88 163.556C142.644 163.911 142.256 164.103 141.857 164.103C141.624 164.103 141.385 164.036 141.176 163.896ZM121.26 162.06C120.694 161.684 120.542 160.918 120.918 160.355C121.294 159.789 122.059 159.636 122.625 160.013C123.188 160.389 123.341 161.154 122.965 161.718C122.728 162.075 122.337 162.267 121.941 162.267C121.705 162.267 121.469 162.2 121.26 162.06ZM76.2482 161.767C75.6824 161.388 75.5299 160.625 75.9063 160.059C76.2851 159.496 77.0476 159.343 77.6133 159.72C78.179 160.096 78.3315 160.862 77.9527 161.425C77.7166 161.782 77.3255 161.974 76.9295 161.974C76.6934 161.974 76.4572 161.908 76.2482 161.767ZM143.087 161.031C142.521 160.652 142.369 159.89 142.748 159.324C143.124 158.758 143.886 158.605 144.452 158.984C145.018 159.361 145.17 160.123 144.792 160.689C144.555 161.046 144.167 161.238 143.768 161.238C143.535 161.238 143.296 161.169 143.087 161.031ZM118.394 160.148C117.829 159.771 117.676 159.006 118.055 158.443C118.431 157.877 119.194 157.724 119.76 158.101C120.325 158.477 120.478 159.242 120.099 159.808C119.863 160.163 119.474 160.355 119.076 160.355C118.842 160.355 118.604 160.288 118.394 160.148ZM78.1593 158.9C77.5936 158.524 77.4411 157.759 77.8174 157.195C78.1938 156.629 78.9587 156.476 79.5244 156.853C80.0877 157.232 80.2402 157.995 79.8639 158.561C79.6277 158.915 79.2367 159.107 78.8406 159.107C78.607 159.107 78.3684 159.041 78.1593 158.9ZM115.529 158.236C114.966 157.859 114.813 157.094 115.19 156.531C115.566 155.965 116.331 155.812 116.894 156.189C117.46 156.567 117.612 157.33 117.236 157.896C116.997 158.251 116.609 158.443 116.21 158.443C115.977 158.443 115.74 158.376 115.529 158.236ZM144.998 158.165C144.432 157.788 144.28 157.023 144.659 156.459C145.035 155.893 145.798 155.741 146.363 156.117C146.929 156.494 147.081 157.259 146.703 157.825C146.467 158.179 146.076 158.371 145.679 158.371C145.446 158.371 145.207 158.305 144.998 158.165ZM80.0705 156.036C79.5048 155.657 79.3523 154.894 79.7286 154.328C80.1074 153.762 80.8699 153.61 81.4356 153.989C81.9989 154.365 82.1514 155.128 81.775 155.694C81.5389 156.051 81.1478 156.243 80.7518 156.243C80.5157 156.243 80.2796 156.174 80.0705 156.036ZM146.909 155.298C146.344 154.921 146.191 154.158 146.567 153.592C146.946 153.026 147.709 152.874 148.274 153.253C148.84 153.629 148.993 154.392 148.614 154.958C148.378 155.312 147.987 155.504 147.591 155.504C147.357 155.504 147.118 155.438 146.909 155.298ZM81.9816 153.169C81.4159 152.793 81.2634 152.027 81.6397 151.461C82.0161 150.898 82.781 150.745 83.3468 151.122C83.91 151.498 84.0625 152.263 83.6862 152.829C83.4501 153.184 83.059 153.376 82.663 153.376C82.4268 153.376 82.1907 153.309 81.9816 153.169ZM148.82 152.433C148.255 152.054 148.102 151.291 148.479 150.725C148.857 150.162 149.62 150.007 150.186 150.386C150.749 150.762 150.901 151.528 150.525 152.091C150.289 152.448 149.898 152.64 149.502 152.64C149.268 152.64 149.03 152.574 148.82 152.433ZM83.8928 150.302C83.3271 149.926 83.1746 149.163 83.5509 148.597C83.9272 148.031 84.6922 147.878 85.2579 148.255C85.8212 148.634 85.9737 149.397 85.5973 149.963C85.3612 150.317 84.9701 150.509 84.5741 150.509C84.338 150.509 84.1019 150.442 83.8928 150.302ZM150.732 149.566C150.166 149.19 150.013 148.425 150.39 147.861C150.769 147.295 151.531 147.142 152.097 147.519C152.66 147.898 152.813 148.661 152.436 149.227C152.2 149.581 151.809 149.773 151.413 149.773C151.177 149.773 150.941 149.707 150.732 149.566ZM85.804 147.438C85.2382 147.061 85.0857 146.296 85.4621 145.73C85.8384 145.166 86.6033 145.014 87.1691 145.39C87.7323 145.767 87.8848 146.53 87.5085 147.096C87.2724 147.453 86.8813 147.644 86.4853 147.644C86.2492 147.644 86.013 147.578 85.804 147.438ZM152.643 146.7C152.077 146.323 151.925 145.56 152.301 144.994C152.68 144.428 153.442 144.276 154.008 144.655C154.571 145.031 154.724 145.794 154.347 146.36C154.111 146.714 153.72 146.909 153.324 146.909C153.088 146.909 152.852 146.84 152.643 146.7ZM87.7151 144.571C87.1494 144.194 86.9969 143.429 87.3732 142.866C87.7495 142.3 88.5145 142.147 89.0778 142.523C89.6435 142.9 89.796 143.665 89.4197 144.231C89.1835 144.586 88.7924 144.778 88.3964 144.778C88.1603 144.778 87.9242 144.711 87.7151 144.571ZM154.554 143.835C153.988 143.459 153.836 142.693 154.212 142.127C154.588 141.564 155.353 141.411 155.919 141.788C156.482 142.164 156.635 142.93 156.259 143.493C156.022 143.85 155.631 144.042 155.235 144.042C154.999 144.042 154.763 143.975 154.554 143.835ZM89.6238 141.706C89.0605 141.327 88.908 140.565 89.2844 139.999C89.6607 139.433 90.4257 139.28 90.9889 139.659C91.5546 140.036 91.7071 140.798 91.3308 141.364C91.0947 141.719 90.7036 141.913 90.3051 141.913C90.0715 141.913 89.8353 141.844 89.6238 141.706ZM156.465 140.968C155.899 140.592 155.747 139.829 156.123 139.263C156.5 138.697 157.264 138.544 157.83 138.921C158.393 139.297 158.546 140.063 158.17 140.629C157.934 140.983 157.542 141.175 157.146 141.175C156.91 141.175 156.674 141.108 156.465 140.968ZM91.535 138.84C90.9717 138.461 90.8192 137.698 91.1955 137.132C91.5719 136.568 92.3368 136.416 92.9001 136.792C93.4658 137.169 93.6183 137.934 93.242 138.498C93.0034 138.854 92.6148 139.046 92.2163 139.046C91.9826 139.046 91.7465 138.98 91.535 138.84ZM158.374 138.104C157.811 137.725 157.658 136.962 158.034 136.396C158.411 135.83 159.176 135.677 159.741 136.056C160.305 136.433 160.457 137.196 160.081 137.762C159.845 138.119 159.454 138.311 159.058 138.311C158.821 138.311 158.585 138.242 158.374 138.104ZM93.4461 135.973C92.8829 135.596 92.7304 134.831 93.1067 134.267C93.483 133.701 94.248 133.549 94.8112 133.925C95.377 134.304 95.5295 135.067 95.1531 135.633C94.9145 135.987 94.5259 136.179 94.1274 136.179C93.8938 136.179 93.6576 136.113 93.4461 135.973ZM160.287 135.237C159.722 134.86 159.569 134.095 159.946 133.529C160.322 132.966 161.087 132.813 161.65 133.189C162.216 133.566 162.368 134.331 161.992 134.897C161.756 135.252 161.365 135.444 160.969 135.444C160.733 135.444 160.497 135.377 160.287 135.237ZM95.3573 133.108C94.794 132.729 94.6415 131.966 95.0178 131.4C95.3942 130.834 96.1567 130.682 96.7224 131.061C97.2881 131.437 97.4406 132.2 97.0643 132.766C96.8257 133.123 96.4371 133.315 96.0386 133.315C95.8049 133.315 95.5688 133.246 95.3573 133.108ZM162.196 132.37C161.633 131.994 161.48 131.231 161.857 130.665C162.233 130.099 162.998 129.946 163.564 130.325C164.127 130.702 164.279 131.464 163.903 132.03C163.667 132.385 163.276 132.577 162.88 132.577C162.644 132.577 162.408 132.51 162.196 132.37ZM97.2684 130.241C96.7027 129.865 96.5527 129.1 96.929 128.536C97.3053 127.97 98.0703 127.817 98.6335 128.194C99.1993 128.57 99.3518 129.336 98.9754 129.902C98.7369 130.256 98.3482 130.448 97.9498 130.448C97.7161 130.448 97.48 130.382 97.2684 130.241ZM164.107 129.506C163.544 129.127 163.392 128.364 163.768 127.798C164.144 127.232 164.909 127.079 165.472 127.458C166.038 127.835 166.191 128.6 165.814 129.164C165.576 129.52 165.187 129.712 164.789 129.712C164.555 129.712 164.319 129.646 164.107 129.506ZM99.1796 127.375C98.6163 126.998 98.4638 126.235 98.8402 125.669C99.2165 125.103 99.979 124.951 100.545 125.327C101.11 125.706 101.263 126.469 100.887 127.035C100.648 127.389 100.259 127.581 99.8609 127.581C99.6272 127.581 99.3911 127.515 99.1796 127.375ZM166.018 126.639C165.455 126.262 165.303 125.497 165.679 124.933C166.055 124.367 166.82 124.215 167.384 124.591C167.949 124.97 168.102 125.733 167.725 126.299C167.487 126.653 167.098 126.845 166.7 126.845C166.466 126.845 166.23 126.779 166.018 126.639ZM101.091 124.51C100.525 124.134 100.373 123.368 100.751 122.802C101.128 122.239 101.893 122.086 102.456 122.463C103.022 122.839 103.174 123.602 102.798 124.168C102.559 124.525 102.171 124.717 101.772 124.717C101.538 124.717 101.3 124.65 101.091 124.51ZM167.93 123.772C167.366 123.395 167.214 122.632 167.59 122.066C167.966 121.501 168.731 121.348 169.295 121.724C169.86 122.103 170.013 122.866 169.637 123.432C169.398 123.787 169.009 123.981 168.611 123.981C168.377 123.981 168.141 123.912 167.93 123.772ZM103.002 121.643C102.439 121.267 102.284 120.501 102.662 119.938C103.039 119.372 103.801 119.219 104.367 119.596C104.933 119.972 105.085 120.738 104.709 121.304C104.47 121.658 104.082 121.85 103.683 121.85C103.45 121.85 103.211 121.784 103.002 121.643ZM169.841 120.907C169.277 120.531 169.123 119.766 169.501 119.2C169.878 118.636 170.64 118.484 171.206 118.86C171.772 119.237 171.924 120.002 171.548 120.565C171.309 120.922 170.921 121.114 170.522 121.114C170.288 121.114 170.05 121.048 169.841 120.907ZM104.913 118.779C104.347 118.4 104.195 117.637 104.574 117.071C104.95 116.505 105.712 116.352 106.278 116.731C106.844 117.108 106.996 117.871 106.618 118.437C106.381 118.791 105.993 118.986 105.594 118.986C105.361 118.986 105.122 118.917 104.913 118.779ZM171.752 118.041C171.189 117.664 171.036 116.901 171.412 116.335C171.789 115.769 172.551 115.617 173.117 115.993C173.683 116.37 173.835 117.135 173.459 117.701C173.22 118.055 172.832 118.247 172.433 118.247C172.2 118.247 171.963 118.181 171.752 118.041ZM106.824 115.912C106.258 115.533 106.106 114.77 106.485 114.207C106.861 113.641 107.624 113.488 108.189 113.865C108.755 114.241 108.908 115.006 108.529 115.57C108.293 115.927 107.904 116.119 107.506 116.119C107.272 116.119 107.033 116.052 106.824 115.912ZM173.663 115.176C173.097 114.797 172.945 114.034 173.324 113.468C173.7 112.902 174.462 112.75 175.028 113.129C175.594 113.505 175.746 114.268 175.37 114.834C175.131 115.191 174.743 115.383 174.344 115.383C174.111 115.383 173.872 115.314 173.663 115.176ZM108.735 113.045C108.17 112.669 108.017 111.903 108.396 111.34C108.772 110.774 109.535 110.621 110.1 110.998C110.664 111.377 110.819 112.139 110.44 112.705C110.204 113.06 109.813 113.252 109.417 113.252C109.183 113.252 108.944 113.185 108.735 113.045ZM175.574 112.309C175.008 111.933 174.856 111.167 175.235 110.601C175.611 110.038 176.374 109.885 176.939 110.262C177.505 110.638 177.658 111.404 177.281 111.97C177.043 112.324 176.654 112.516 176.256 112.516C176.022 112.516 175.783 112.45 175.574 112.309ZM110.647 110.178C110.081 109.802 109.928 109.039 110.305 108.473C110.683 107.907 111.446 107.757 112.012 108.133C112.577 108.51 112.73 109.273 112.351 109.839C112.115 110.195 111.724 110.387 111.328 110.387C111.094 110.387 110.856 110.318 110.647 110.178ZM177.485 109.442C176.92 109.066 176.767 108.303 177.146 107.737C177.522 107.171 178.285 107.018 178.85 107.397C179.416 107.774 179.569 108.537 179.19 109.103C178.954 109.457 178.565 109.649 178.167 109.649C177.933 109.649 177.694 109.583 177.485 109.442ZM112.558 107.314C111.992 106.937 111.839 106.172 112.216 105.606C112.595 105.042 113.357 104.89 113.923 105.266C114.486 105.643 114.639 106.408 114.262 106.972C114.026 107.329 113.635 107.52 113.239 107.52C113.005 107.52 112.767 107.454 112.558 107.314ZM179.397 106.578C178.831 106.199 178.678 105.436 179.057 104.87C179.433 104.304 180.196 104.152 180.762 104.531C181.327 104.907 181.48 105.672 181.101 106.236C180.865 106.593 180.474 106.785 180.078 106.785C179.844 106.785 179.606 106.718 179.397 106.578ZM114.469 104.447C113.903 104.07 113.751 103.308 114.127 102.742C114.506 102.176 115.268 102.023 115.834 102.399C116.397 102.778 116.552 103.541 116.173 104.107C115.937 104.462 115.546 104.654 115.15 104.654C114.914 104.654 114.678 104.587 114.469 104.447ZM181.308 103.711C180.742 103.335 180.589 102.569 180.968 102.006C181.345 101.44 182.107 101.287 182.673 101.664C183.239 102.043 183.391 102.806 183.012 103.371C182.776 103.726 182.385 103.918 181.989 103.918C181.755 103.918 181.517 103.851 181.308 103.711ZM116.38 101.582C115.814 101.206 115.662 100.441 116.038 99.8746C116.414 99.3111 117.179 99.1585 117.745 99.535C118.308 99.9116 118.461 100.674 118.085 101.24C117.848 101.597 117.457 101.789 117.061 101.789C116.825 101.789 116.589 101.723 116.38 101.582ZM183.219 100.844C182.653 100.468 182.501 99.7048 182.879 99.1389C183.256 98.5729 184.018 98.4203 184.584 98.7968C185.15 99.1758 185.3 99.9386 184.923 100.505C184.687 100.859 184.299 101.053 183.9 101.053C183.667 101.053 183.428 100.984 183.219 100.844ZM118.291 98.7156C117.725 98.3391 117.573 97.5738 117.949 97.0102C118.328 96.4442 119.091 96.2917 119.656 96.6682C120.22 97.0447 120.372 97.81 119.996 98.376C119.76 98.7304 119.368 98.9223 118.972 98.9223C118.736 98.9223 118.5 98.8559 118.291 98.7156ZM185.13 97.9798C184.564 97.6033 184.412 96.838 184.788 96.272C185.167 95.7084 185.929 95.5559 186.495 95.9324C187.058 96.3089 187.213 97.0742 186.835 97.6377C186.598 97.9946 186.207 98.1865 185.811 98.1865C185.575 98.1865 185.339 98.1201 185.13 97.9798ZM120.202 95.8487C119.637 95.4722 119.484 94.7093 119.86 94.1433C120.237 93.5774 121.002 93.4248 121.567 93.8037C122.131 94.1803 122.283 94.9431 121.907 95.5091C121.671 95.8635 121.28 96.0579 120.884 96.0579C120.648 96.0579 120.411 95.989 120.202 95.8487ZM187.041 95.1129C186.475 94.7364 186.323 93.9735 186.699 93.4076C187.078 92.8416 187.841 92.689 188.406 93.0655C188.97 93.442 189.122 94.2073 188.746 94.7733C188.51 95.1277 188.118 95.3196 187.722 95.3196C187.486 95.3196 187.25 95.2532 187.041 95.1129ZM122.113 92.9843C121.548 92.6078 121.395 91.8425 121.772 91.2789C122.148 90.7129 122.913 90.5604 123.479 90.9369C124.042 91.3134 124.194 92.0787 123.818 92.6422C123.582 92.9991 123.191 93.191 122.795 93.191C122.559 93.191 122.323 93.1246 122.113 92.9843ZM188.952 92.2485C188.387 91.8695 188.234 91.1067 188.61 90.5407C188.987 89.9747 189.752 89.8221 190.317 90.2011C190.881 90.5776 191.033 91.3405 190.657 91.9064C190.421 92.2608 190.03 92.4552 189.634 92.4552C189.398 92.4552 189.161 92.3863 188.952 92.2485ZM124.025 90.1174C123.459 89.7409 123.306 88.978 123.683 88.412C124.059 87.8461 124.824 87.6935 125.387 88.07C125.953 88.449 126.106 89.2118 125.729 89.7778C125.493 90.1322 125.102 90.3241 124.706 90.3241C124.47 90.3241 124.234 90.2577 124.025 90.1174ZM190.863 89.3816C190.298 89.0051 190.145 88.2398 190.522 87.6738C190.9 87.1103 191.663 86.9577 192.229 87.3342C192.792 87.7107 192.944 88.476 192.568 89.042C192.332 89.3964 191.941 89.5883 191.545 89.5883C191.309 89.5883 191.073 89.5219 190.863 89.3816ZM125.933 87.2505C125.37 86.874 125.218 86.1112 125.594 85.5452C125.97 84.9792 126.735 84.8266 127.298 85.2056C127.864 85.5821 128.017 86.3449 127.64 86.9109C127.404 87.2678 127.013 87.4597 126.617 87.4597C126.381 87.4597 126.145 87.3908 125.933 87.2505ZM192.775 86.5147C192.209 86.1382 192.056 85.3729 192.433 84.8094C192.809 84.2434 193.574 84.0908 194.14 84.4673C194.703 84.8463 194.855 85.6092 194.479 86.1751C194.243 86.5295 193.852 86.7215 193.456 86.7215C193.22 86.7215 192.984 86.655 192.775 86.5147ZM127.844 84.3861C127.281 84.0096 127.129 83.2443 127.505 82.6783C127.881 82.1148 128.646 81.9622 129.21 82.3387C129.775 82.7152 129.928 83.4805 129.551 84.0441C129.313 84.4009 128.924 84.5928 128.526 84.5928C128.292 84.5928 128.056 84.5264 127.844 84.3861ZM194.686 83.6503C194.12 83.2714 193.968 82.5085 194.344 81.9425C194.72 81.3765 195.485 81.2264 196.048 81.6029C196.614 81.9794 196.767 82.7447 196.39 83.3083C196.154 83.6651 195.763 83.857 195.367 83.857C195.131 83.857 194.895 83.7906 194.686 83.6503ZM129.756 81.5192C129.192 81.1427 129.04 80.3799 129.416 79.8139C129.793 79.2479 130.558 79.0953 131.121 79.4718C131.686 79.8508 131.839 80.6136 131.463 81.1796C131.224 81.534 130.835 81.7284 130.437 81.7284C130.203 81.7284 129.967 81.6595 129.756 81.5192ZM196.594 80.7834C196.031 80.4069 195.879 79.6416 196.255 79.0781C196.631 78.5121 197.396 78.3595 197.962 78.736C198.525 79.1125 198.678 79.8779 198.301 80.4439C198.065 80.7982 197.674 80.9902 197.278 80.9902C197.042 80.9902 196.806 80.9237 196.594 80.7834ZM131.667 78.6548C131.104 78.2783 130.951 77.513 131.327 76.947C131.704 76.3835 132.469 76.2309 133.032 76.6074C133.598 76.9839 133.75 77.7468 133.374 78.3128C133.135 78.6696 132.747 78.8615 132.348 78.8615C132.114 78.8615 131.878 78.7951 131.667 78.6548ZM198.508 77.919C197.942 77.5425 197.79 76.7772 198.166 76.2112C198.543 75.6477 199.305 75.4926 199.871 75.8691C200.436 76.2457 200.589 77.0085 200.213 77.5745C199.977 77.9313 199.585 78.1257 199.187 78.1233C198.953 78.1233 198.717 78.0568 198.508 77.919ZM133.578 75.7879C133.015 75.4114 132.862 74.6461 133.239 74.0826C133.615 73.5166 134.377 73.364 134.943 73.7405C135.509 74.117 135.661 74.8824 135.285 75.4483C135.046 75.8027 134.658 75.9947 134.259 75.9947C134.026 75.9947 133.789 75.9282 133.578 75.7879ZM200.183 74.8824C199.504 74.8676 198.966 74.3041 198.98 73.6249C198.998 72.9457 199.561 72.4067 200.24 72.4215C200.919 72.4363 201.457 72.9998 201.44 73.679C201.425 74.3508 200.877 74.8824 200.213 74.8824H200.183ZM135.489 72.9211C134.923 72.5446 134.773 71.7817 135.15 71.2157C135.526 70.6497 136.291 70.4971 136.854 70.8761C137.42 71.2526 137.572 72.0155 137.196 72.5815C136.958 72.9358 136.569 73.1302 136.17 73.1302C135.937 73.1302 135.701 73.0613 135.489 72.9211ZM198.289 70.9967C197.94 70.4135 198.129 69.658 198.712 69.3085C199.295 68.9591 200.05 69.1486 200.4 69.7343C200.749 70.315 200.559 71.0705 199.977 71.42C199.777 71.5381 199.561 71.5947 199.344 71.5947C198.926 71.5947 198.518 71.383 198.289 70.9967ZM137.4 70.0566C136.837 69.6801 136.682 68.9148 137.061 68.3513C137.437 67.7853 138.2 67.6327 138.765 68.0092C139.331 68.3857 139.484 69.1511 139.107 69.7146C138.869 70.0714 138.48 70.2634 138.082 70.2634C137.848 70.2634 137.609 70.1969 137.4 70.0566ZM196.196 69.0354C195.63 68.6589 195.478 67.896 195.857 67.33C196.233 66.764 196.995 66.6115 197.561 66.988C198.127 67.367 198.279 68.1298 197.901 68.6958C197.664 69.0502 197.273 69.2421 196.877 69.2421C196.644 69.2421 196.405 69.1757 196.196 69.0354ZM139.311 67.1898C138.746 66.8133 138.593 66.0504 138.972 65.4844C139.348 64.9184 140.111 64.7658 140.677 65.1423C141.242 65.5213 141.395 66.2842 141.016 66.8502C140.78 67.2045 140.391 67.3965 139.993 67.3965C139.759 67.3965 139.521 67.33 139.311 67.1898ZM193.331 67.1233C192.767 66.7468 192.615 65.984 192.991 65.418C193.367 64.852 194.13 64.6994 194.696 65.0759C195.261 65.4549 195.414 66.2177 195.038 66.7837C194.799 67.1381 194.41 67.33 194.012 67.33C193.778 67.33 193.54 67.2636 193.331 67.1233ZM190.467 65.2113C189.902 64.8347 189.749 64.0719 190.126 63.5059C190.504 62.9399 191.267 62.7873 191.833 63.1638C192.396 63.5428 192.548 64.3057 192.172 64.8717C191.936 65.226 191.545 65.4204 191.149 65.4204C190.913 65.418 190.677 65.3515 190.467 65.2113ZM141.223 64.3229C140.657 63.9464 140.504 63.1835 140.883 62.6175C141.259 62.0515 142.022 61.899 142.588 62.2779C143.153 62.6544 143.306 63.4173 142.927 63.9833C142.691 64.3401 142.302 64.5321 141.904 64.5321C141.67 64.5321 141.432 64.4632 141.223 64.3229ZM187.602 63.2992C187.036 62.9227 186.884 62.1598 187.263 61.5938C187.639 61.0278 188.401 60.8753 188.967 61.2542C189.533 61.6307 189.685 62.3936 189.307 62.9596C189.07 63.3139 188.682 63.5059 188.283 63.5059C188.05 63.5059 187.811 63.4394 187.602 63.2992ZM143.134 61.4585C142.568 61.082 142.416 60.3166 142.794 59.7507C143.171 59.1871 143.933 59.0345 144.499 59.4111C145.065 59.7876 145.217 60.5529 144.838 61.1189C144.602 61.4732 144.214 61.6652 143.815 61.6652C143.581 61.6652 143.343 61.5987 143.134 61.4585ZM184.736 61.3871C184.173 61.0106 184.021 60.2477 184.397 59.6817C184.773 59.1158 185.538 58.9632 186.102 59.3422C186.667 59.7187 186.82 60.4815 186.443 61.0475C186.205 61.4019 185.816 61.5963 185.418 61.5963C185.184 61.5938 184.948 61.5274 184.736 61.3871ZM181.873 59.4775C181.308 59.0985 181.155 58.3357 181.532 57.7697C181.91 57.2037 182.673 57.0536 183.239 57.4301C183.802 57.8066 183.957 58.5694 183.578 59.1354C183.342 59.4923 182.951 59.6842 182.555 59.6842C182.321 59.6842 182.082 59.6153 181.873 59.4775ZM145.045 58.5916C144.479 58.2151 144.327 57.4522 144.703 56.8862C145.082 56.3202 145.844 56.1677 146.41 56.5442C146.976 56.9231 147.128 57.686 146.749 58.252C146.513 58.6064 146.122 58.7983 145.726 58.7983C145.493 58.7983 145.254 58.7319 145.045 58.5916ZM179.008 57.5654C178.996 57.5556 178.983 57.5482 178.971 57.5384C178.971 57.5384 178.949 57.5236 178.937 57.5162C178.371 57.1397 178.218 56.3744 178.595 55.8108C178.973 55.2449 179.736 55.0923 180.302 55.4688C180.314 55.4786 180.326 55.486 180.339 55.4959C180.351 55.5032 180.361 55.5106 180.373 55.518C180.939 55.8945 181.091 56.6574 180.715 57.2234C180.476 57.5802 180.088 57.7721 179.689 57.7721C179.456 57.7721 179.217 57.7032 179.008 57.5654ZM146.956 55.7272C146.39 55.3507 146.238 54.5854 146.617 54.0194C146.993 53.4558 147.755 53.3033 148.321 53.6798C148.887 54.0563 149.039 54.8191 148.661 55.3851C148.424 55.7419 148.036 55.9339 147.637 55.9339C147.404 55.9339 147.165 55.8674 146.956 55.7272ZM176.142 55.6534C175.579 55.2744 175.427 54.5115 175.803 53.9455C176.179 53.382 176.944 53.2294 177.51 53.6059C178.073 53.9824 178.226 54.7453 177.849 55.3113C177.613 55.6681 177.222 55.8601 176.826 55.8601C176.59 55.8601 176.354 55.7912 176.142 55.6534ZM180.848 54.6493C180.282 54.2728 180.13 53.51 180.506 52.944C180.885 52.378 181.647 52.2254 182.213 52.6019C182.779 52.9809 182.931 53.7437 182.552 54.3097C182.316 54.6641 181.925 54.8585 181.529 54.8585C181.293 54.8585 181.057 54.7896 180.848 54.6493ZM173.279 53.7413C172.714 53.3623 172.561 52.5994 172.94 52.0335C173.316 51.4699 174.079 51.3149 174.644 51.6939C175.21 52.0704 175.363 52.8332 174.984 53.3992C174.748 53.756 174.359 53.948 173.961 53.948C173.727 53.948 173.488 53.8815 173.279 53.7413ZM148.867 52.8603C148.301 52.4838 148.149 51.7185 148.525 51.1549C148.904 50.5889 149.667 50.4364 150.232 50.8129C150.798 51.1894 150.951 51.9547 150.572 52.5207C150.336 52.8751 149.945 53.067 149.549 53.067C149.312 53.067 149.076 53.0006 148.867 52.8603ZM170.414 51.8292C169.851 51.4502 169.698 50.6874 170.074 50.1214C170.451 49.5578 171.213 49.4053 171.779 49.7818C172.345 50.1583 172.497 50.9236 172.121 51.4872C171.882 51.844 171.494 52.0359 171.095 52.0359C170.862 52.0359 170.623 51.9695 170.414 51.8292ZM182.759 51.7849C182.193 51.4084 182.041 50.6431 182.417 50.0771C182.796 49.5136 183.558 49.361 184.124 49.7375C184.687 50.114 184.84 50.8793 184.463 51.4429C184.227 51.7997 183.836 51.9916 183.44 51.9916C183.207 51.9916 182.968 51.9252 182.759 51.7849ZM150.778 49.9934C150.213 49.6169 150.06 48.8541 150.436 48.2881C150.815 47.7221 151.578 47.5695 152.143 47.9485C152.707 48.325 152.859 49.0878 152.483 49.6538C152.247 50.0082 151.856 50.2026 151.46 50.2026C151.226 50.2026 150.987 50.1337 150.778 49.9934ZM167.551 49.9171C166.985 49.5406 166.833 48.7753 167.209 48.2093C167.585 47.6458 168.35 47.4932 168.916 47.8697C169.479 48.2462 169.632 49.0115 169.255 49.5751C169.019 49.9319 168.628 50.1238 168.232 50.1238C167.996 50.1238 167.76 50.0574 167.551 49.9171ZM184.67 48.918C184.104 48.5415 183.952 47.7787 184.328 47.2127C184.707 46.6467 185.469 46.4941 186.035 46.8706C186.598 47.2471 186.753 48.0124 186.375 48.5784C186.138 48.9328 185.747 49.1247 185.351 49.1247C185.115 49.1247 184.879 49.0583 184.67 48.918ZM164.685 48.0051C164.12 47.6286 163.967 46.8632 164.346 46.2972C164.722 45.7337 165.485 45.5811 166.05 45.9576C166.616 46.3342 166.769 47.0995 166.39 47.663C166.154 48.0198 165.765 48.2118 165.367 48.2118C165.133 48.2118 164.894 48.1453 164.685 48.0051ZM152.662 47.1093C152.107 46.7156 151.979 45.9478 152.37 45.3941C152.763 44.8404 153.531 44.71 154.087 45.1037C154.64 45.4975 154.77 46.2652 154.377 46.8189C154.136 47.1561 153.757 47.3382 153.373 47.3382C153.127 47.3382 152.876 47.2644 152.662 47.1093ZM161.82 46.093C161.257 45.7165 161.104 44.9512 161.48 44.3852C161.857 43.8216 162.622 43.6691 163.185 44.0456C163.751 44.4221 163.903 45.1874 163.527 45.7534C163.288 46.1078 162.9 46.2997 162.501 46.2997C162.267 46.2997 162.031 46.2333 161.82 46.093ZM186.581 46.0536C186.015 45.6746 185.863 44.9118 186.239 44.3458C186.618 43.7798 187.381 43.6297 187.946 44.0062C188.51 44.3827 188.662 45.1456 188.286 45.7116C188.05 46.0684 187.659 46.2603 187.263 46.2603C187.026 46.2603 186.79 46.1914 186.581 46.0536ZM154.896 44.459C154.638 43.829 154.94 43.1105 155.567 42.8545C156.197 42.5961 156.915 42.8964 157.171 43.5263C157.429 44.1563 157.129 44.8749 156.5 45.1308C156.347 45.1948 156.19 45.2243 156.035 45.2219C155.55 45.2219 155.09 44.9339 154.896 44.459ZM159.2 44.838C158.531 44.7198 158.084 44.0825 158.202 43.4131C158.317 42.7438 158.954 42.2959 159.623 42.414C160.292 42.5322 160.74 43.1695 160.624 43.8389C160.519 44.4368 160 44.8576 159.414 44.8576C159.343 44.8576 159.272 44.8503 159.2 44.838ZM188.492 43.1867C187.927 42.8102 187.774 42.0449 188.15 41.4789C188.527 40.9154 189.292 40.7628 189.857 41.1393C190.421 41.5158 190.573 42.2812 190.197 42.8471C189.961 43.2015 189.57 43.3934 189.174 43.3934C188.938 43.3934 188.701 43.327 188.492 43.1867ZM190.404 40.3199C189.838 39.9434 189.685 39.1805 190.062 38.6145C190.438 38.0485 191.203 37.8959 191.769 38.2724C192.332 38.6514 192.484 39.4143 192.108 39.9803C191.872 40.3346 191.481 40.5266 191.085 40.5266C190.849 40.5266 190.613 40.4601 190.404 40.3199ZM192.312 37.4554C191.749 37.0765 191.596 36.3136 191.973 35.7476C192.349 35.1841 193.114 35.0291 193.68 35.408C194.243 35.7845 194.396 36.5474 194.019 37.1134C193.783 37.4702 193.392 37.6622 192.996 37.6622C192.76 37.6622 192.524 37.5957 192.312 37.4554ZM194.226 34.5886C193.66 34.2121 193.508 33.4467 193.884 32.8832C194.26 32.3172 195.025 32.1646 195.588 32.5411C196.154 32.9201 196.307 33.683 195.93 34.249C195.694 34.6033 195.303 34.7953 194.905 34.7953C194.671 34.7953 194.435 34.7288 194.226 34.5886ZM196.135 31.7217C195.571 31.3452 195.419 30.5823 195.795 30.0163C196.171 29.4503 196.936 29.2978 197.5 29.6743C198.065 30.0532 198.218 30.8161 197.842 31.3821C197.603 31.7365 197.214 31.9309 196.818 31.9309C196.582 31.9309 196.346 31.862 196.135 31.7217ZM198.046 28.8573C197.482 28.4808 197.33 27.7154 197.706 27.1494C198.083 26.5859 198.848 26.4333 199.411 26.8099C199.977 27.1864 200.129 27.9517 199.753 28.5152C199.514 28.872 199.125 29.064 198.727 29.064C198.493 29.064 198.257 28.9975 198.046 28.8573ZM199.957 25.9904C199.394 25.6139 199.241 24.851 199.617 24.285C199.994 23.719 200.756 23.5665 201.322 23.943C201.888 24.3195 202.04 25.0848 201.664 25.6508C201.425 26.0052 201.037 26.1971 200.638 26.1971C200.404 26.1971 200.168 26.1307 199.957 25.9904ZM201.868 23.126C201.305 22.747 201.152 21.9841 201.529 21.4182C201.905 20.8522 202.67 20.702 203.233 21.0786C203.799 21.4551 203.951 22.2179 203.575 22.7839C203.336 23.1407 202.948 23.3327 202.549 23.3327C202.316 23.3327 202.08 23.2638 201.868 23.126ZM203.779 20.2591C203.216 19.8826 203.061 19.1173 203.44 18.5513C203.816 17.9877 204.579 17.8352 205.144 18.2117C205.71 18.5882 205.862 19.3535 205.486 19.9195C205.248 20.2739 204.859 20.4658 204.46 20.4658C204.227 20.4658 203.988 20.3994 203.779 20.2591ZM205.69 17.3922C205.127 17.0157 204.972 16.2504 205.351 15.6869C205.727 15.1209 206.49 14.9683 207.055 15.3448C207.621 15.7238 207.774 16.4866 207.397 17.0526C207.159 17.407 206.77 17.5989 206.372 17.5989C206.138 17.5989 205.899 17.5325 205.69 17.3922ZM207.601 14.5278C207.036 14.1488 206.883 13.386 207.262 12.82C207.638 12.2564 208.401 12.1014 208.967 12.4804C209.532 12.8569 209.685 13.6197 209.308 14.1857C209.07 14.5426 208.681 14.7345 208.283 14.7345C208.049 14.7345 207.811 14.6681 207.601 14.5278ZM209.513 11.6609C208.947 11.2844 208.794 10.5191 209.173 9.95556C209.55 9.38957 210.312 9.23699 210.878 9.6135C211.443 9.99001 211.596 10.7553 211.217 11.3213C210.981 11.6757 210.592 11.8676 210.194 11.8676C209.96 11.8676 209.722 11.8012 209.513 11.6609ZM211.424 8.79404C210.858 8.41753 210.706 7.65467 211.084 7.08868C211.461 6.52269 212.223 6.37012 212.789 6.74662C213.355 7.12559 213.507 7.88845 213.128 8.45445C212.892 8.80881 212.504 9.00321 212.105 9.00321C211.871 9.00321 211.633 8.93431 211.424 8.79404ZM213.335 5.92963C212.769 5.55312 212.617 4.7878 212.996 4.2218C213.372 3.65827 214.134 3.5057 214.7 3.88221C215.266 4.25872 215.418 5.02404 215.039 5.58757C214.803 5.94439 214.412 6.13634 214.016 6.13634C213.783 6.13634 213.544 6.06989 213.335 5.92963ZM215.246 3.06275C214.68 2.68624 214.528 1.92338 214.904 1.35739C215.283 0.791392 216.045 0.63882 216.611 1.01533C217.177 1.39184 217.329 2.15716 216.951 2.72315C216.715 3.07751 216.323 3.26946 215.927 3.26946C215.694 3.26946 215.455 3.20302 215.246 3.06275Z" fill="url(#paint0_linear_1203_4169)"/>
<path d="M233.392 141.908C233.392 141.229 233.938 140.678 234.616 140.675C235.298 140.675 235.849 141.224 235.851 141.903C235.851 142.583 235.303 143.134 234.624 143.136H234.621C233.942 143.136 233.392 142.587 233.392 141.908ZM231.166 143.124C230.487 143.119 229.941 142.563 229.948 141.884C229.953 141.202 230.509 140.658 231.188 140.663C231.867 140.67 232.413 141.227 232.408 141.906C232.4 142.58 231.852 143.124 231.178 143.124H231.166ZM236.835 141.893C236.825 141.214 237.366 140.656 238.045 140.646C238.724 140.634 239.282 141.177 239.295 141.857C239.305 142.536 238.763 143.094 238.082 143.107H238.06C237.391 143.107 236.842 142.568 236.833 141.893H236.835ZM227.71 143.072C227.031 143.06 226.49 142.499 226.504 141.817C226.517 141.138 227.08 140.599 227.759 140.614C228.438 140.626 228.976 141.187 228.962 141.866C228.949 142.538 228.401 143.075 227.734 143.072H227.71ZM240.279 141.834C240.256 141.155 240.793 140.587 241.469 140.567C242.148 140.545 242.716 141.081 242.736 141.761C242.758 142.44 242.224 143.006 241.545 143.025C241.533 143.025 241.521 143.025 241.506 143.025C240.844 143.025 240.298 142.499 240.279 141.832V141.834ZM224.254 142.986C223.575 142.966 223.041 142.4 223.061 141.721C223.081 141.042 223.649 140.508 224.328 140.528C225.007 140.547 225.54 141.113 225.521 141.793C225.501 142.459 224.952 142.989 224.291 142.989C224.291 142.989 224.266 142.989 224.254 142.989V142.986ZM243.72 141.721C243.688 141.042 244.212 140.466 244.89 140.434C245.569 140.402 246.145 140.926 246.177 141.606C246.209 142.285 245.685 142.861 245.006 142.893C244.986 142.893 244.967 142.893 244.947 142.893C244.295 142.893 243.752 142.378 243.72 141.719V141.721ZM220.8 142.868C220.122 142.841 219.593 142.27 219.62 141.591C219.647 140.912 220.218 140.383 220.896 140.41C221.575 140.437 222.104 141.008 222.077 141.687C222.052 142.349 221.506 142.87 220.85 142.87C220.832 142.87 220.818 142.87 220.8 142.87V142.868ZM217.35 142.72C216.671 142.688 216.147 142.113 216.179 141.433C216.211 140.754 216.789 140.23 217.465 140.262C218.144 140.294 218.668 140.87 218.636 141.549C218.606 142.208 218.06 142.72 217.409 142.72H217.35ZM247.161 141.549C247.114 140.872 247.628 140.287 248.304 140.24C248.983 140.195 249.569 140.707 249.615 141.384C249.66 142.063 249.148 142.649 248.469 142.696C248.442 142.696 248.413 142.698 248.386 142.698C247.744 142.698 247.202 142.199 247.161 141.549ZM213.901 142.543C213.222 142.506 212.703 141.925 212.74 141.246C212.777 140.57 213.358 140.048 214.036 140.087C214.715 140.124 215.234 140.702 215.197 141.382C215.161 142.039 214.619 142.546 213.97 142.546C213.948 142.546 213.923 142.546 213.901 142.546V142.543ZM250.597 141.308C250.535 140.631 251.032 140.033 251.709 139.972C252.385 139.91 252.983 140.41 253.047 141.086C253.108 141.761 252.609 142.361 251.932 142.423C251.893 142.423 251.856 142.427 251.819 142.427C251.19 142.427 250.653 141.948 250.597 141.308ZM210.455 142.341C209.776 142.297 209.262 141.714 209.304 141.035C209.346 140.358 209.929 139.841 210.608 139.885C211.287 139.927 211.801 140.51 211.759 141.19C211.717 141.842 211.176 142.344 210.531 142.344C210.507 142.344 210.48 142.341 210.455 142.341ZM207.009 142.112C206.333 142.066 205.821 141.478 205.868 140.801C205.915 140.122 206.502 139.612 207.179 139.659C207.858 139.706 208.369 140.294 208.323 140.971C208.276 141.62 207.737 142.117 207.095 142.117C207.068 142.117 207.039 142.117 207.009 142.112ZM254.026 140.983C253.942 140.309 254.424 139.696 255.098 139.615C255.772 139.534 256.384 140.016 256.466 140.69C256.547 141.364 256.067 141.977 255.393 142.058C255.341 142.063 255.292 142.068 255.243 142.068C254.631 142.068 254.099 141.608 254.026 140.983ZM203.566 141.861C202.889 141.81 202.383 141.219 202.434 140.542C202.486 139.866 203.076 139.356 203.753 139.408C204.431 139.46 204.938 140.05 204.886 140.729C204.837 141.374 204.299 141.866 203.662 141.866C203.63 141.866 203.598 141.864 203.566 141.861ZM257.442 140.557C257.336 139.885 257.794 139.255 258.465 139.15C259.134 139.041 259.764 139.502 259.872 140.171C259.978 140.843 259.52 141.473 258.849 141.578C258.783 141.591 258.719 141.596 258.655 141.596C258.059 141.596 257.538 141.163 257.442 140.557ZM200.127 141.591C199.448 141.534 198.946 140.939 199.001 140.262C199.057 139.585 199.652 139.081 200.329 139.137C201.005 139.194 201.509 139.787 201.453 140.464C201.401 141.108 200.862 141.593 200.228 141.593C200.196 141.593 200.161 141.593 200.127 141.593V141.591ZM196.686 141.296C196.01 141.236 195.51 140.638 195.569 139.962C195.631 139.285 196.228 138.785 196.905 138.844C197.581 138.904 198.081 139.502 198.022 140.178C197.965 140.818 197.426 141.3 196.797 141.3C196.76 141.3 196.723 141.3 196.686 141.296ZM193.25 140.981C192.573 140.917 192.079 140.319 192.143 139.642C192.204 138.965 192.805 138.468 193.481 138.532C194.157 138.596 194.654 139.196 194.59 139.873C194.531 140.508 193.995 140.988 193.368 140.988C193.329 140.988 193.289 140.988 193.25 140.981ZM260.841 139.999C260.701 139.334 261.127 138.682 261.791 138.542C262.457 138.402 263.109 138.827 263.247 139.492C263.387 140.159 262.962 140.811 262.297 140.949C262.211 140.968 262.128 140.976 262.044 140.976C261.473 140.976 260.962 140.577 260.841 139.999ZM189.816 140.648C189.14 140.579 188.648 139.976 188.714 139.3C188.783 138.625 189.386 138.131 190.06 138.2C190.736 138.266 191.23 138.869 191.162 139.546C191.1 140.181 190.564 140.653 189.939 140.653C189.9 140.653 189.858 140.653 189.816 140.648ZM186.385 140.294C185.709 140.225 185.219 139.617 185.29 138.943C185.362 138.266 185.967 137.777 186.641 137.848C187.317 137.919 187.807 138.525 187.735 139.201C187.669 139.831 187.135 140.301 186.515 140.301C186.471 140.301 186.427 140.301 186.385 140.294ZM264.206 139.265C264.019 138.611 264.396 137.929 265.05 137.742C265.702 137.555 266.383 137.934 266.57 138.586C266.757 139.238 266.38 139.92 265.726 140.107C265.613 140.141 265.5 140.156 265.387 140.156C264.853 140.156 264.361 139.804 264.206 139.265ZM182.954 139.925C182.28 139.849 181.79 139.241 181.867 138.566C181.94 137.89 182.548 137.405 183.224 137.479C183.898 137.553 184.385 138.16 184.311 138.837C184.243 139.467 183.709 139.932 183.091 139.932C183.045 139.932 183 139.932 182.954 139.925ZM179.525 139.536C178.851 139.457 178.366 138.847 178.445 138.173C178.524 137.498 179.134 137.014 179.808 137.092C180.484 137.169 180.966 137.781 180.888 138.456C180.816 139.083 180.285 139.543 179.668 139.543C179.621 139.543 179.574 139.543 179.525 139.536ZM176.099 139.13C175.425 139.049 174.945 138.436 175.026 137.762C175.107 137.087 175.72 136.605 176.394 136.689C177.068 136.77 177.55 137.383 177.469 138.057C177.392 138.682 176.861 139.14 176.249 139.14C176.199 139.14 176.15 139.137 176.099 139.13ZM267.507 138.276C267.244 137.651 267.536 136.93 268.164 136.664C268.788 136.403 269.512 136.696 269.772 137.324C270.038 137.949 269.743 138.67 269.116 138.936C268.961 139 268.798 139.032 268.641 139.032C268.161 139.032 267.704 138.749 267.507 138.276ZM172.675 138.709C172.001 138.623 171.524 138.008 171.61 137.334C171.693 136.659 172.308 136.182 172.982 136.268C173.656 136.352 174.133 136.967 174.05 137.641C173.971 138.264 173.442 138.719 172.83 138.719C172.781 138.719 172.726 138.717 172.675 138.709ZM169.253 138.271C168.579 138.183 168.107 137.565 168.193 136.891C168.282 136.216 168.899 135.741 169.573 135.83C170.245 135.919 170.719 136.536 170.633 137.211C170.552 137.828 170.023 138.281 169.416 138.281C169.362 138.281 169.307 138.281 169.253 138.271ZM165.834 137.816C165.161 137.725 164.691 137.105 164.782 136.433C164.87 135.759 165.49 135.286 166.164 135.377C166.838 135.468 167.31 136.088 167.217 136.763C167.136 137.38 166.607 137.828 166.002 137.828C165.945 137.828 165.891 137.823 165.834 137.816ZM270.66 136.881C270.259 136.334 270.377 135.564 270.923 135.163C271.472 134.76 272.239 134.878 272.643 135.424C273.046 135.973 272.928 136.743 272.38 137.144C272.161 137.306 271.905 137.383 271.654 137.383C271.275 137.383 270.901 137.211 270.66 136.881ZM162.418 137.346C161.744 137.252 161.274 136.63 161.37 135.958C161.464 135.284 162.086 134.816 162.757 134.91C163.431 135.003 163.899 135.626 163.805 136.298C163.719 136.913 163.193 137.358 162.59 137.358C162.534 137.358 162.475 137.353 162.418 137.346ZM159.004 136.864C158.332 136.765 157.865 136.142 157.961 135.471C158.057 134.796 158.679 134.329 159.353 134.427C160.025 134.523 160.492 135.146 160.396 135.82C160.308 136.433 159.781 136.876 159.179 136.876C159.122 136.876 159.063 136.871 159.004 136.864ZM155.59 136.364C154.918 136.266 154.454 135.64 154.554 134.966C154.653 134.294 155.278 133.832 155.952 133.93C156.623 134.031 157.085 134.656 156.987 135.328C156.896 135.938 156.372 136.379 155.772 136.379C155.71 136.379 155.651 136.374 155.59 136.364ZM152.178 135.85C151.507 135.749 151.047 135.121 151.15 134.449C151.251 133.778 151.878 133.315 152.55 133.418C153.221 133.522 153.684 134.149 153.58 134.821C153.487 135.429 152.963 135.864 152.365 135.864C152.304 135.864 152.242 135.86 152.178 135.85ZM148.769 135.321C148.1 135.215 147.64 134.587 147.746 133.915C147.852 133.244 148.482 132.786 149.153 132.892C149.825 132.995 150.282 133.625 150.176 134.297C150.08 134.905 149.559 135.338 148.964 135.338C148.9 135.338 148.836 135.333 148.769 135.321ZM145.365 134.777C144.694 134.668 144.239 134.038 144.347 133.367C144.455 132.697 145.087 132.24 145.756 132.348C146.428 132.456 146.883 133.089 146.775 133.76C146.679 134.363 146.155 134.794 145.562 134.794C145.498 134.794 145.432 134.789 145.365 134.777ZM273.376 134.696C272.739 134.459 272.412 133.751 272.65 133.113C272.886 132.478 273.592 132.151 274.229 132.387C274.866 132.624 275.191 133.332 274.955 133.97C274.77 134.467 274.303 134.772 273.801 134.772C273.661 134.772 273.516 134.747 273.376 134.696ZM141.961 134.221C141.292 134.11 140.839 133.475 140.95 132.806C141.061 132.134 141.693 131.681 142.364 131.792C143.033 131.902 143.486 132.537 143.375 133.207C143.277 133.81 142.755 134.238 142.165 134.238C142.096 134.238 142.03 134.23 141.961 134.221ZM138.559 133.65C137.89 133.536 137.44 132.899 137.553 132.23C137.669 131.56 138.303 131.11 138.972 131.223C139.642 131.336 140.092 131.971 139.979 132.643C139.878 133.241 139.356 133.667 138.768 133.667C138.699 133.667 138.631 133.66 138.559 133.65ZM135.162 133.064C134.493 132.948 134.043 132.311 134.161 131.642C134.277 130.972 134.914 130.524 135.583 130.64C136.252 130.756 136.7 131.393 136.584 132.062C136.481 132.66 135.959 133.084 135.374 133.084C135.303 133.084 135.234 133.076 135.162 133.064ZM131.763 132.464C131.097 132.345 130.651 131.706 130.77 131.036C130.89 130.367 131.53 129.921 132.199 130.042C132.868 130.163 133.31 130.802 133.192 131.469C133.087 132.065 132.568 132.483 131.982 132.483C131.911 132.483 131.837 132.478 131.763 132.464ZM128.371 131.851C127.705 131.728 127.262 131.085 127.385 130.419C127.506 129.749 128.148 129.306 128.814 129.429C129.483 129.552 129.926 130.192 129.803 130.862C129.695 131.455 129.178 131.87 128.595 131.87C128.521 131.87 128.448 131.863 128.371 131.851ZM272.49 130.699C272.222 130.074 272.512 129.351 273.135 129.082C273.759 128.817 274.483 129.105 274.751 129.73C275.019 130.355 274.729 131.078 274.104 131.346C273.946 131.413 273.782 131.445 273.619 131.445C273.142 131.445 272.689 131.164 272.49 130.699ZM124.982 131.223C124.315 131.098 123.875 130.456 124.001 129.786C124.126 129.119 124.768 128.679 125.435 128.804C126.104 128.927 126.544 129.572 126.418 130.239C126.308 130.83 125.791 131.243 125.211 131.243C125.134 131.243 125.058 131.238 124.982 131.223ZM121.595 130.581C120.928 130.453 120.491 129.808 120.618 129.141C120.744 128.475 121.388 128.036 122.057 128.164C122.724 128.292 123.162 128.937 123.034 129.604C122.921 130.195 122.407 130.603 121.826 130.603C121.75 130.603 121.674 130.596 121.595 130.581ZM118.21 129.926C117.544 129.798 117.109 129.151 117.239 128.484C117.369 127.817 118.014 127.382 118.68 127.512C119.347 127.643 119.78 128.288 119.649 128.954C119.536 129.543 119.022 129.951 118.444 129.951C118.368 129.951 118.287 129.944 118.208 129.926H118.21ZM114.828 129.26C114.162 129.127 113.729 128.479 113.862 127.813C113.995 127.146 114.644 126.713 115.308 126.845C115.975 126.978 116.408 127.628 116.275 128.292C116.157 128.878 115.645 129.284 115.07 129.284C114.991 129.284 114.91 129.277 114.828 129.26ZM270.786 128.233C270.323 127.734 270.355 126.956 270.855 126.494C271.351 126.033 272.131 126.063 272.591 126.562C273.054 127.062 273.022 127.84 272.522 128.302C272.286 128.521 271.988 128.63 271.688 128.63C271.359 128.63 271.027 128.497 270.786 128.233ZM111.449 128.578C110.782 128.443 110.354 127.793 110.49 127.126C110.625 126.459 111.274 126.031 111.941 126.166C112.605 126.302 113.035 126.951 112.9 127.618C112.78 128.201 112.268 128.602 111.695 128.602C111.614 128.602 111.533 128.595 111.449 128.578ZM108.072 127.881C107.408 127.744 106.98 127.092 107.117 126.425C107.258 125.76 107.909 125.332 108.574 125.472C109.238 125.61 109.666 126.262 109.528 126.927C109.405 127.507 108.893 127.906 108.323 127.906C108.241 127.906 108.155 127.899 108.072 127.881ZM104.697 127.17C104.033 127.028 103.61 126.373 103.75 125.709C103.893 125.044 104.547 124.621 105.211 124.764C105.875 124.904 106.298 125.558 106.158 126.223C106.033 126.801 105.524 127.197 104.955 127.197C104.872 127.197 104.783 127.188 104.697 127.17ZM101.327 126.442C100.663 126.299 100.243 125.642 100.388 124.978C100.533 124.316 101.187 123.892 101.851 124.038C102.515 124.183 102.936 124.837 102.791 125.502C102.665 126.078 102.156 126.471 101.591 126.471C101.504 126.471 101.416 126.462 101.327 126.442ZM268.385 126.046C267.851 125.622 267.763 124.847 268.186 124.316C268.606 123.784 269.381 123.693 269.913 124.116C270.444 124.54 270.535 125.312 270.112 125.846C269.868 126.151 269.512 126.311 269.148 126.311C268.879 126.311 268.611 126.225 268.385 126.046ZM97.9601 125.701C97.296 125.551 96.8803 124.894 97.0279 124.232C97.1755 123.568 97.8322 123.149 98.4963 123.299C99.158 123.447 99.5761 124.104 99.4285 124.766C99.3006 125.339 98.7915 125.731 98.2282 125.731C98.1397 125.731 98.0511 125.721 97.9601 125.701ZM94.5953 124.941C93.9336 124.791 93.518 124.131 93.6704 123.469C93.8205 122.805 94.4797 122.391 95.1413 122.541C95.803 122.692 96.2187 123.351 96.0686 124.015C95.9383 124.586 95.4316 124.973 94.8683 124.973C94.7798 124.973 94.6863 124.963 94.5953 124.941ZM265.677 124.097C265.109 123.723 264.954 122.96 265.328 122.391C265.702 121.825 266.464 121.668 267.032 122.042C267.598 122.416 267.755 123.181 267.382 123.747C267.145 124.107 266.752 124.301 266.353 124.301C266.12 124.301 265.886 124.235 265.677 124.097ZM91.2329 124.166C90.5713 124.013 90.1605 123.351 90.3155 122.689C90.468 122.027 91.1296 121.616 91.7913 121.771C92.4529 121.924 92.8637 122.586 92.7087 123.248C92.5784 123.816 92.0717 124.2 91.5133 124.2C91.4199 124.2 91.3264 124.188 91.2329 124.166ZM87.8755 123.376C87.2138 123.218 86.8055 122.554 86.963 121.894C87.1204 121.232 87.7845 120.824 88.4437 120.981C89.1053 121.139 89.5136 121.803 89.3562 122.463C89.2209 123.029 88.7167 123.41 88.1608 123.41C88.0649 123.41 87.969 123.398 87.8755 123.376ZM84.5205 122.566C83.8589 122.406 83.4555 121.742 83.6154 121.08C83.7777 120.42 84.4418 120.017 85.101 120.177C85.7626 120.337 86.166 121.003 86.0061 121.663C85.8684 122.224 85.3666 122.603 84.8108 122.603C84.7148 122.603 84.6164 122.591 84.5205 122.566ZM262.807 122.327C262.219 121.985 262.02 121.232 262.359 120.644C262.698 120.056 263.451 119.857 264.039 120.196C264.627 120.538 264.828 121.291 264.487 121.879C264.26 122.273 263.847 122.492 263.421 122.492C263.212 122.492 263.001 122.438 262.807 122.327ZM81.168 121.742C80.5088 121.579 80.1079 120.91 80.2727 120.25C80.4375 119.591 81.104 119.19 81.7632 119.355C82.4224 119.517 82.8233 120.186 82.6586 120.846C82.5208 121.405 82.019 121.779 81.4681 121.779C81.3697 121.779 81.2688 121.766 81.168 121.742ZM77.8229 120.898C77.1637 120.73 76.7652 120.061 76.9349 119.404C77.1022 118.744 77.7712 118.346 78.4304 118.513C79.0871 118.683 79.4856 119.352 79.3183 120.012C79.1757 120.568 78.6764 120.937 78.1279 120.937C78.027 120.937 77.9237 120.925 77.8229 120.898ZM259.835 120.688C259.233 120.373 259.001 119.628 259.316 119.027C259.634 118.424 260.376 118.193 260.979 118.511C261.579 118.826 261.81 119.569 261.496 120.172C261.274 120.59 260.849 120.829 260.406 120.829C260.212 120.829 260.017 120.784 259.835 120.688ZM74.4802 120.039C73.8234 119.867 73.4299 119.195 73.5996 118.538C73.7718 117.878 74.4433 117.484 75.1 117.657C75.7592 117.826 76.1527 118.498 75.9806 119.158C75.8354 119.711 75.3386 120.078 74.7925 120.078C74.6892 120.078 74.5835 120.066 74.4802 120.039ZM256.793 119.155C256.183 118.858 255.927 118.122 256.225 117.511C256.52 116.899 257.255 116.643 257.868 116.941C258.478 117.236 258.733 117.974 258.436 118.584C258.224 119.022 257.786 119.278 257.329 119.278C257.149 119.278 256.967 119.239 256.793 119.155ZM71.1424 119.155C70.4857 118.981 70.0971 118.306 70.2717 117.649C70.4463 116.992 71.1203 116.601 71.777 116.778C72.4337 116.953 72.8224 117.627 72.6477 118.284C72.5026 118.833 72.0033 119.197 71.4597 119.197C71.3564 119.197 71.2482 119.182 71.1424 119.155ZM67.8096 118.255C67.1553 118.075 66.7691 117.398 66.9487 116.744C67.1282 116.089 67.8022 115.703 68.4589 115.88C69.1132 116.06 69.4994 116.736 69.3198 117.391C69.1722 117.94 68.6754 118.299 68.1342 118.299C68.0285 118.299 67.9203 118.284 67.8096 118.255ZM253.703 117.703C253.084 117.423 252.811 116.692 253.091 116.074C253.371 115.454 254.102 115.181 254.719 115.462C255.339 115.742 255.612 116.473 255.332 117.091C255.125 117.543 254.677 117.812 254.21 117.812C254.04 117.812 253.868 117.777 253.703 117.703ZM64.4841 117.334C63.8298 117.152 63.4486 116.473 63.6306 115.818C63.8126 115.164 64.4915 114.782 65.1458 114.965C65.8 115.147 66.1813 115.826 65.9993 116.48C65.8468 117.024 65.3524 117.381 64.8162 117.381C64.7055 117.381 64.5948 117.366 64.4841 117.334ZM61.1611 116.392C60.5093 116.205 60.1305 115.523 60.3199 114.871C60.5068 114.216 61.1882 113.84 61.84 114.027C62.4918 114.214 62.8706 114.896 62.6836 115.548C62.5287 116.089 62.0367 116.441 61.5005 116.441C61.3899 116.441 61.2743 116.424 61.1611 116.392ZM250.575 116.323C249.95 116.057 249.66 115.334 249.928 114.709C250.196 114.084 250.919 113.793 251.544 114.061C252.169 114.33 252.456 115.053 252.188 115.678C251.989 116.143 251.536 116.424 251.059 116.424C250.897 116.424 250.732 116.392 250.575 116.323ZM57.8455 115.427C57.1937 115.235 56.8223 114.551 57.0141 113.899C57.206 113.247 57.8898 112.875 58.5416 113.067C59.1934 113.259 59.5648 113.943 59.3729 114.595C59.2155 115.132 58.726 115.479 58.1948 115.479C58.0792 115.479 57.9611 115.462 57.8455 115.427ZM247.417 115.004C246.787 114.748 246.484 114.029 246.74 113.402C246.996 112.772 247.714 112.469 248.344 112.725C248.973 112.981 249.276 113.7 249.018 114.33C248.826 114.807 248.366 115.095 247.879 115.095C247.726 115.095 247.569 115.065 247.417 115.004ZM54.5372 114.438C53.8879 114.241 53.5189 113.554 53.7157 112.905C53.9125 112.255 54.5987 111.886 55.2481 112.083C55.8999 112.28 56.2664 112.966 56.0696 113.618C55.9097 114.15 55.4203 114.492 54.8939 114.492C54.7758 114.492 54.6553 114.475 54.5372 114.438ZM244.234 113.739C243.602 113.49 243.287 112.779 243.533 112.144C243.779 111.512 244.492 111.197 245.127 111.446H245.124C245.759 111.692 246.071 112.403 245.825 113.038C245.636 113.525 245.171 113.823 244.679 113.823C244.531 113.823 244.379 113.796 244.234 113.739ZM51.2339 113.424C50.587 113.222 50.2254 112.533 50.4247 111.884C50.6264 111.236 51.3175 110.875 51.9644 111.076C52.6138 111.278 52.9754 111.967 52.7737 112.617C52.6113 113.143 52.1243 113.481 51.6004 113.481C51.4799 113.481 51.3569 113.463 51.2339 113.424ZM241.031 112.518C240.394 112.28 240.069 111.571 240.308 110.934C240.544 110.299 241.253 109.974 241.89 110.213C242.527 110.449 242.851 111.158 242.613 111.795C242.428 112.29 241.958 112.595 241.459 112.595C241.317 112.595 241.171 112.57 241.031 112.518ZM47.9404 112.386C47.2935 112.176 46.9369 111.485 47.1435 110.838C47.3501 110.19 48.0437 109.834 48.6906 110.04C49.3375 110.247 49.6942 110.941 49.4876 111.588C49.3203 112.11 48.8357 112.445 48.3143 112.445C48.1913 112.445 48.0659 112.425 47.9404 112.386ZM237.809 111.337C237.17 111.108 236.837 110.402 237.069 109.765C237.297 109.125 238.003 108.793 238.64 109.022C239.28 109.253 239.612 109.957 239.383 110.597C239.204 111.099 238.729 111.411 238.225 111.411C238.087 111.411 237.947 111.386 237.809 111.337ZM44.6543 111.315C44.0099 111.101 43.6582 110.407 43.8721 109.76C44.0837 109.115 44.7798 108.766 45.4267 108.977C46.0735 109.191 46.4228 109.888 46.2088 110.533C46.0391 111.049 45.5595 111.377 45.0429 111.377C44.915 111.377 44.7847 111.357 44.6568 111.315H44.6543ZM41.3756 110.215C40.7312 109.996 40.3893 109.297 40.6082 108.652C40.8271 108.01 41.5256 107.666 42.1676 107.885C42.812 108.106 43.1539 108.805 42.935 109.447C42.7604 109.959 42.2832 110.282 41.7716 110.282C41.6388 110.282 41.506 110.259 41.3731 110.215H41.3756ZM234.575 110.195C233.933 109.974 233.593 109.273 233.815 108.63C234.038 107.988 234.739 107.648 235.381 107.87C236.021 108.094 236.363 108.795 236.139 109.435C235.964 109.944 235.487 110.264 234.978 110.264C234.843 110.264 234.707 110.242 234.575 110.195ZM231.325 109.088C230.681 108.871 230.334 108.173 230.551 107.53C230.767 106.886 231.466 106.539 232.108 106.755C232.752 106.969 233.099 107.668 232.882 108.313C232.71 108.827 232.231 109.152 231.716 109.152C231.589 109.152 231.456 109.13 231.325 109.088ZM38.1092 109.081C37.4697 108.854 37.1327 108.15 37.359 107.511C37.5853 106.871 38.2887 106.534 38.9282 106.76C39.5702 106.986 39.9047 107.69 39.6784 108.33C39.5013 108.835 39.0266 109.152 38.5199 109.152C38.3846 109.152 38.2444 109.127 38.1092 109.081ZM228.066 108.01C227.419 107.801 227.068 107.107 227.277 106.46C227.488 105.813 228.179 105.461 228.826 105.67C229.473 105.879 229.825 106.576 229.616 107.22C229.446 107.739 228.967 108.072 228.448 108.072C228.322 108.072 228.192 108.052 228.066 108.01ZM34.855 107.909C34.218 107.676 33.8884 106.969 34.122 106.329C34.3557 105.692 35.0641 105.365 35.7011 105.599C36.3382 105.832 36.6678 106.539 36.4341 107.178C36.2497 107.676 35.7799 107.986 35.2781 107.986C35.1379 107.986 34.9952 107.961 34.855 107.909ZM224.795 106.962C224.148 106.758 223.789 106.066 223.993 105.419C224.197 104.772 224.888 104.41 225.535 104.617C226.185 104.821 226.544 105.512 226.34 106.16C226.172 106.684 225.688 107.018 225.166 107.018C225.043 107.018 224.918 107.001 224.795 106.962ZM31.6132 106.699C30.9786 106.455 30.6613 105.744 30.9024 105.109C31.1434 104.474 31.8542 104.156 32.4888 104.398C33.1234 104.641 33.4432 105.35 33.1997 105.985C33.0127 106.477 32.5454 106.777 32.051 106.777C31.9059 106.777 31.7583 106.753 31.6132 106.699ZM221.516 105.941C220.867 105.741 220.503 105.055 220.702 104.405C220.901 103.755 221.588 103.389 222.237 103.588C222.886 103.787 223.253 104.476 223.054 105.126C222.891 105.655 222.404 105.997 221.878 105.997C221.757 105.997 221.637 105.978 221.516 105.941ZM28.3861 105.439C27.7564 105.188 27.4465 104.471 27.6999 103.842C27.9508 103.209 28.6665 102.901 29.2962 103.152C29.9283 103.406 30.2358 104.12 29.9849 104.752C29.793 105.234 29.3306 105.527 28.8412 105.527C28.6887 105.527 28.5362 105.5 28.3861 105.439ZM218.228 104.946C217.578 104.752 217.207 104.065 217.401 103.416C217.596 102.764 218.282 102.395 218.931 102.589C219.583 102.783 219.952 103.467 219.76 104.12C219.6 104.654 219.111 104.998 218.582 104.998C218.464 104.998 218.346 104.981 218.228 104.946ZM25.1787 104.129C24.5515 103.869 24.2563 103.148 24.5171 102.52C24.7803 101.893 25.4985 101.597 26.1257 101.861C26.7529 102.121 27.0481 102.842 26.7873 103.47C26.5881 103.942 26.1331 104.225 25.651 104.225C25.4936 104.225 25.3337 104.196 25.1787 104.129ZM214.934 103.974C214.28 103.785 213.906 103.103 214.095 102.449C214.285 101.797 214.966 101.423 215.62 101.612C216.272 101.801 216.646 102.483 216.457 103.138C216.302 103.674 215.81 104.024 215.276 104.024C215.163 104.024 215.047 104.009 214.934 103.974ZM211.631 103.027C210.977 102.84 210.598 102.161 210.782 101.506C210.967 100.854 211.648 100.473 212.302 100.657C212.954 100.844 213.335 101.523 213.148 102.178C212.996 102.719 212.502 103.074 211.965 103.074C211.855 103.074 211.742 103.059 211.631 103.027ZM21.9885 102.761C21.3687 102.486 21.0858 101.76 21.3613 101.137C21.6344 100.517 22.3624 100.234 22.9822 100.51C23.6045 100.783 23.8849 101.511 23.6119 102.131C23.4078 102.591 22.9576 102.867 22.4854 102.867C22.3206 102.867 22.1509 102.833 21.9885 102.761ZM208.32 102.099C207.666 101.917 207.282 101.24 207.464 100.586C207.644 99.9288 208.323 99.5473 208.977 99.727C209.631 99.9091 210.015 100.586 209.835 101.24C209.683 101.787 209.188 102.144 208.65 102.144C208.542 102.144 208.431 102.129 208.32 102.099ZM18.8279 101.322C18.213 101.031 17.9498 100.3 18.2376 99.6852C18.5278 99.0699 19.2583 98.8042 19.8732 99.0946C20.4881 99.3825 20.7538 100.116 20.4636 100.731C20.2545 101.176 19.8117 101.437 19.3493 101.437C19.1747 101.437 18.9976 101.4 18.8279 101.322ZM205.007 101.194C204.35 101.016 203.962 100.34 204.139 99.6852C204.316 99.0281 204.992 98.6393 205.647 98.8165C206.303 98.9937 206.692 99.6704 206.515 100.325C206.365 100.874 205.87 101.235 205.327 101.235C205.221 101.235 205.113 101.221 205.007 101.194ZM201.684 100.305C201.027 100.133 200.636 99.4588 200.808 98.8017C200.983 98.1447 201.654 97.7534 202.311 97.9257C202.968 98.1004 203.361 98.7722 203.187 99.4292C203.042 99.9829 202.545 100.347 201.999 100.347C201.896 100.347 201.79 100.335 201.684 100.305ZM15.6992 99.7959C15.0917 99.4908 14.8506 98.75 15.1556 98.1422C15.4631 97.5368 16.2034 97.2932 16.8085 97.6008C17.416 97.906 17.6571 98.6467 17.3521 99.2545C17.1356 99.6827 16.7027 99.9288 16.2526 99.9288C16.0657 99.9288 15.8763 99.8869 15.6992 99.7959ZM198.359 99.4391C197.702 99.2693 197.306 98.5975 197.476 97.9404C197.645 97.2834 198.314 96.8872 198.973 97.0545C199.63 97.2243 200.026 97.8961 199.856 98.5532C199.714 99.1093 199.215 99.4784 198.666 99.4784C198.565 99.4784 198.462 99.4661 198.359 99.4391ZM195.028 98.5901C194.369 98.4252 193.971 97.7559 194.135 97.0964C194.3 96.4368 194.969 96.0382 195.628 96.2031C196.288 96.3704 196.686 97.0373 196.521 97.6968C196.381 98.2554 195.879 98.627 195.328 98.627C195.23 98.627 195.129 98.6147 195.028 98.5901ZM12.6123 98.1644C12.0171 97.8371 11.8031 97.089 12.1327 96.4934C12.4598 95.8979 13.2076 95.6838 13.8028 96.0111C14.398 96.3409 14.612 97.089 14.2849 97.6845C14.0586 98.0905 13.6405 98.3194 13.2076 98.3194C13.0059 98.3194 12.8017 98.2702 12.6123 98.1644ZM191.693 97.7583C191.034 97.5959 190.633 96.929 190.795 96.2695C190.957 95.61 191.624 95.2064 192.283 95.3688C192.942 95.5313 193.346 96.1981 193.183 96.8577C193.046 97.4187 192.541 97.7952 191.99 97.7952C191.892 97.7952 191.794 97.7829 191.695 97.7583H191.693ZM188.353 96.9438C187.691 96.7863 187.285 96.1219 187.445 95.4599C187.602 94.8004 188.267 94.3944 188.928 94.5518C189.587 94.7118 189.996 95.3762 189.836 96.0357C189.701 96.6017 189.196 96.9782 188.64 96.9782C188.544 96.9782 188.449 96.9684 188.353 96.9438ZM9.58693 96.3975C9.00891 96.0382 8.82936 95.2803 9.18847 94.702C9.54512 94.1261 10.3052 93.9465 10.8807 94.3058C11.4587 94.6626 11.6358 95.4205 11.2792 95.9988C11.0455 96.3753 10.6446 96.582 10.2314 96.582C10.01 96.582 9.78862 96.523 9.58693 96.3975ZM6.64764 94.4362C6.09913 94.0375 5.97615 93.2673 6.37461 92.7185C6.77062 92.1673 7.54049 92.0442 8.09146 92.4429C8.63996 92.8416 8.76294 93.6118 8.36694 94.1606C8.12589 94.4928 7.74956 94.67 7.36832 94.67C7.11743 94.67 6.86655 94.5937 6.64764 94.4362ZM3.86084 92.1796C3.36153 91.7194 3.32955 90.9418 3.78951 90.4422C4.24947 89.9402 5.02918 89.9082 5.52849 90.3709C6.0278 90.8311 6.05978 91.6087 5.59982 92.1082C5.35631 92.3715 5.02672 92.5044 4.69466 92.5044C4.39705 92.5044 4.09943 92.3986 3.86084 92.1796ZM1.40118 89.3964C1.01993 88.8353 1.16997 88.07 1.73323 87.6886C2.29649 87.3096 3.05899 87.4572 3.44024 88.0208C3.81903 88.5843 3.67145 89.3496 3.10818 89.7286C2.89665 89.8713 2.65806 89.9402 2.42194 89.9402C2.02593 89.9402 1.63977 89.7507 1.40118 89.3964ZM0.0336064 85.5845C0.0163888 84.9054 0.552595 84.3418 1.23146 84.3246C1.91033 84.3074 2.47605 84.8438 2.49327 85.523C2.50803 86.2022 1.97182 86.7682 1.29295 86.7854H1.26344C0.596869 86.7854 0.0508241 86.2539 0.0336064 85.5845ZM128.059 84.9989C127.387 84.893 126.932 84.2631 127.038 83.5913C127.146 82.9195 127.776 82.4642 128.448 82.57C129.117 82.6783 129.574 83.3083 129.468 83.9801C129.37 84.5854 128.849 85.0161 128.256 85.0161C128.189 85.0161 128.125 85.0112 128.059 84.9989ZM124.662 84.4649C123.991 84.359 123.531 83.7315 123.636 83.0597C123.74 82.3879 124.369 81.9277 125.041 82.0335C125.71 82.1369 126.17 82.7669 126.067 83.4387C125.973 84.0441 125.449 84.4796 124.854 84.4796C124.79 84.4796 124.726 84.4747 124.662 84.4649ZM121.263 83.9432C120.591 83.8423 120.129 83.2148 120.232 82.5429C120.333 81.8711 120.96 81.4085 121.632 81.5094C122.303 81.6127 122.766 82.2378 122.662 82.9096C122.571 83.5199 122.048 83.9579 121.447 83.9579C121.388 83.9579 121.327 83.953 121.263 83.9432ZM1.69388 83.3649C1.19457 82.9047 1.16259 82.1271 1.62009 81.6251C2.08004 81.1255 2.85976 81.0935 3.35907 81.5537C3.85838 82.0139 3.89036 82.7915 3.43286 83.291C3.18935 83.5543 2.8573 83.6897 2.52524 83.6897C2.22762 83.6897 1.93001 83.5814 1.69388 83.3649ZM117.864 83.4362C117.19 83.3378 116.725 82.7127 116.823 82.0409C116.922 81.3691 117.546 80.904 118.22 81.0025C118.892 81.1009 119.357 81.7259 119.258 82.3978C119.167 83.0105 118.643 83.451 118.043 83.451C117.984 83.451 117.923 83.4461 117.864 83.4362ZM114.46 82.9465C113.788 82.8506 113.318 82.228 113.414 81.5537C113.51 80.8819 114.132 80.4143 114.806 80.5103C115.478 80.6038 115.945 81.2289 115.849 81.9007C115.763 82.5159 115.237 82.9588 114.634 82.9588C114.575 82.9588 114.519 82.9539 114.46 82.9465ZM111.055 82.4691C110.381 82.3756 109.912 81.7555 110.003 81.0812C110.096 80.4094 110.716 79.9394 111.39 80.0304C112.061 80.1239 112.534 80.7441 112.44 81.4183C112.356 82.0335 111.828 82.4814 111.223 82.4814C111.168 82.4814 111.112 82.4765 111.055 82.4691ZM107.646 82.0089C106.972 81.9179 106.5 81.3002 106.591 80.6259C106.68 79.9517 107.297 79.4792 107.971 79.5678C108.645 79.6588 109.117 80.2765 109.029 80.9508C108.945 81.5684 108.419 82.0188 107.811 82.0188C107.757 82.0188 107.703 82.0163 107.646 82.0089ZM4.20519 81.0197C3.89281 80.4168 4.12648 79.6736 4.7291 79.3586C5.33172 79.0461 6.07453 79.2799 6.38937 79.8828C6.70175 80.4857 6.46808 81.2289 5.86546 81.5438C5.68345 81.6374 5.48914 81.6816 5.29974 81.6816C4.85454 81.6816 4.4241 81.4405 4.20519 81.0197ZM104.237 81.5635C103.563 81.4774 103.088 80.8597 103.175 80.1855C103.261 79.5112 103.876 79.0362 104.55 79.1224C105.223 79.2085 105.701 79.8237 105.615 80.498C105.536 81.1206 105.005 81.5734 104.397 81.5734C104.343 81.5734 104.291 81.5685 104.237 81.5635ZM100.826 81.1329C100.152 81.0492 99.6745 80.4365 99.7557 79.7622C99.8393 79.0879 100.454 78.6081 101.128 78.6917C101.802 78.7754 102.282 79.3881 102.198 80.0624C102.122 80.6875 101.591 81.1427 100.978 81.1427C100.929 81.1427 100.877 81.1427 100.826 81.1329ZM97.4141 80.7219C96.7401 80.6407 96.258 80.028 96.3367 79.3537C96.4179 78.6794 97.0279 78.1971 97.7043 78.2783C98.3782 78.3571 98.8603 78.9698 98.7792 79.6441C98.7054 80.2691 98.1741 80.7293 97.5592 80.7293C97.5124 80.7293 97.4632 80.7293 97.4141 80.7219ZM7.30682 79.526C7.09283 78.8812 7.43965 78.1823 8.08162 77.9682C8.72605 77.7517 9.42459 78.0987 9.63858 78.7409C9.85503 79.3857 9.50822 80.0846 8.86625 80.3011C8.73589 80.343 8.60307 80.3651 8.4727 80.3651C7.95864 80.3651 7.48146 80.0403 7.30682 79.526ZM93.9976 80.3257C93.3236 80.2494 92.8391 79.6391 92.9153 78.9649C92.9916 78.2881 93.6016 77.8034 94.2755 77.8797C94.9519 77.9559 95.4365 78.5662 95.3602 79.2405C95.2889 79.868 94.7552 80.3331 94.1378 80.3331C94.0935 80.3331 94.0468 80.3331 93.9976 80.3257ZM90.5811 79.9468C89.9072 79.8729 89.4177 79.2676 89.4915 78.5908C89.5653 77.9141 90.1703 77.4269 90.8468 77.5007C91.5232 77.572 92.0102 78.1799 91.9364 78.8566C91.8675 79.4866 91.3362 79.9541 90.7164 79.9541C90.6721 79.9541 90.6279 79.9541 90.5811 79.9468ZM87.1646 79.585C86.4882 79.5161 85.9963 78.9107 86.0652 78.2365C86.1365 77.5597 86.7391 77.0676 87.4155 77.1365C88.0919 77.2078 88.5814 77.8108 88.5125 78.4875C88.4486 79.1199 87.9124 79.5924 87.2901 79.5924C87.2483 79.5924 87.2065 79.5899 87.1646 79.585ZM10.5905 78.4826C10.4306 77.8206 10.8389 77.1562 11.4981 76.9987C12.1597 76.8412 12.8238 77.2472 12.9813 77.9092C13.1387 78.5687 12.7328 79.2331 12.0736 79.3906C11.9753 79.4152 11.8793 79.4251 11.7834 79.4251C11.2275 79.4251 10.7258 79.0461 10.5905 78.4826ZM83.7433 79.243C83.0668 79.1765 82.5725 78.5761 82.6389 77.8993C82.7053 77.2226 83.3054 76.728 83.9818 76.7944C84.6582 76.8609 85.1526 77.4613 85.0862 78.138C85.0247 78.7729 84.491 79.2479 83.8638 79.2479C83.8244 79.2479 83.7851 79.2479 83.7433 79.243ZM80.3219 78.9206C79.6455 78.8591 79.1486 78.2586 79.2101 77.5819C79.2716 76.9052 79.8693 76.4081 80.5457 76.4696C81.2221 76.5311 81.7214 77.1291 81.6599 77.8058C81.6009 78.4456 81.0647 78.9255 80.435 78.9255C80.3981 78.9255 80.3612 78.923 80.3219 78.9206ZM13.9455 77.7123C13.8274 77.043 14.2726 76.4031 14.9416 76.285C15.6082 76.1644 16.2477 76.6099 16.3682 77.2792C16.4863 77.9461 16.0435 78.5859 15.3745 78.7065C15.3007 78.7188 15.2269 78.7262 15.1556 78.7262C14.5702 78.7262 14.0537 78.3078 13.9455 77.7123ZM76.898 78.6154C76.2216 78.5588 75.7198 77.9633 75.7789 77.2866C75.8354 76.6074 76.4307 76.1054 77.1096 76.1644C77.786 76.2235 78.2877 76.819 78.2287 77.4958C78.1746 78.1356 77.6359 78.6204 77.0038 78.6204C76.9694 78.6204 76.9349 78.6204 76.898 78.6154ZM73.4742 78.3324C72.7978 78.2808 72.2911 77.6877 72.3452 77.0085C72.3993 76.3318 72.9921 75.8273 73.6685 75.879C74.3474 75.9331 74.8516 76.5262 74.7975 77.2054C74.7458 77.8477 74.2072 78.3374 73.5726 78.3374C73.5406 78.3374 73.5061 78.3349 73.4742 78.3324ZM17.3398 77.1291C17.2488 76.4548 17.721 75.8347 18.3925 75.7436C19.0665 75.6526 19.6863 76.1226 19.7773 76.7969C19.8683 77.4711 19.3985 78.0913 18.7246 78.1823C18.668 78.1897 18.6139 78.1922 18.5573 78.1922C17.9522 78.1922 17.4259 77.7468 17.3398 77.1291ZM70.0479 78.0716C69.3715 78.0224 68.8623 77.4342 68.9115 76.755C68.9607 76.0783 69.5486 75.5689 70.2274 75.6181C70.9038 75.6674 71.413 76.2555 71.3638 76.9347C71.317 77.5819 70.7784 78.0765 70.1389 78.0765C70.1094 78.0765 70.0774 78.0741 70.0479 78.0716ZM66.6216 77.8329C65.9427 77.7886 65.4311 77.2029 65.4754 76.5237C65.5196 75.847 66.105 75.3327 66.7839 75.377C67.4603 75.4237 67.9744 76.0094 67.9301 76.6861C67.8858 77.3358 67.3447 77.8354 66.7027 77.8354C66.6757 77.8354 66.6486 77.8354 66.6216 77.8329ZM20.7563 76.6812C20.6849 76.0069 21.1769 75.4016 21.8533 75.3302C22.5272 75.2613 23.1323 75.7535 23.2012 76.4278C23.2725 77.1045 22.7806 77.7099 22.1066 77.7788C22.0623 77.7837 22.0205 77.7861 21.9762 77.7861C21.354 77.7861 20.8202 77.3137 20.7563 76.6812ZM63.1928 77.6188C62.5139 77.5794 61.9974 76.9962 62.0367 76.317C62.0761 75.6403 62.659 75.1211 63.3379 75.1629C64.0168 75.2023 64.5333 75.7855 64.4915 76.4622C64.4546 77.1168 63.911 77.6213 63.2666 77.6213C63.242 77.6213 63.2174 77.6213 63.1928 77.6213V77.6188ZM24.1826 76.3416C24.1309 75.6624 24.6376 75.0718 25.314 75.0202C25.9904 74.966 26.5832 75.4729 26.6348 76.1521C26.6865 76.8289 26.1823 77.4219 25.5034 77.4736C25.4714 77.4761 25.4394 77.4761 25.4075 77.4761C24.7729 77.4761 24.2318 76.9864 24.1826 76.3416ZM59.764 77.4293C59.0852 77.3949 58.5637 76.8166 58.5981 76.1374C58.6326 75.4582 59.2106 74.9365 59.8895 74.9709C60.5683 75.0054 61.0898 75.5837 61.0553 76.2629C61.0209 76.9199 60.4773 77.4318 59.828 77.4318C59.8058 77.4318 59.7837 77.4318 59.764 77.4318V77.4293ZM56.3328 77.2669C55.6539 77.2374 55.1276 76.664 55.1571 75.9823C55.1866 75.3056 55.7597 74.779 56.4386 74.8085C57.1174 74.8381 57.6438 75.4114 57.6143 76.0906C57.5872 76.7501 57.0412 77.2669 56.3869 77.2669H56.3328ZM27.6162 76.0882C27.5794 75.409 28.0983 74.8282 28.7772 74.7888C29.4536 74.7519 30.0341 75.2712 30.0734 75.9479C30.1103 76.6271 29.5914 77.2078 28.9149 77.2472C28.8904 77.2472 28.8682 77.2497 28.8436 77.2497C28.1967 77.2497 27.6531 76.7427 27.6162 76.0882ZM52.9016 77.1316C52.2227 77.1094 51.6914 76.5385 51.716 75.8593C51.7406 75.1801 52.3088 74.6486 52.9876 74.6732C53.6665 74.6953 54.1978 75.2662 54.1732 75.9454C54.1511 76.6099 53.605 77.134 52.9458 77.134C52.9311 77.134 52.9163 77.134 52.9016 77.134V77.1316ZM31.0573 75.9036C31.0303 75.2244 31.5591 74.6535 32.2379 74.6264C32.9168 74.6018 33.4899 75.1309 33.5145 75.8101C33.5391 76.4893 33.0103 77.0602 32.3314 77.0873H32.2847C31.6255 77.0873 31.0819 76.568 31.0573 75.9036ZM49.4703 77.0282C48.7915 77.011 48.2553 76.4474 48.2725 75.7682C48.2897 75.0891 48.8554 74.5526 49.5343 74.5698C50.2132 74.587 50.7494 75.1506 50.7321 75.8298C50.7149 76.4991 50.1689 77.0307 49.5023 77.0307C49.5023 77.0307 49.4826 77.0307 49.4703 77.0282ZM34.4984 75.7806C34.4836 75.1014 35.0223 74.5403 35.7011 74.5255C36.38 74.5083 36.9433 75.0472 36.958 75.7264C36.9728 76.4056 36.4341 76.9691 35.7553 76.9839H35.7282C35.0616 76.9839 34.5131 76.4524 34.4984 75.7806ZM46.0416 76.9593C45.3627 76.9495 44.8191 76.3908 44.829 75.7092C44.8413 75.03 45.3996 74.4886 46.0785 74.4985C46.7573 74.5083 47.2985 75.0694 47.2886 75.7486C47.2788 76.4204 46.7303 76.9593 46.0588 76.9593H46.0416ZM37.9419 75.7117C37.937 75.0325 38.483 74.4788 39.1619 74.4714C39.8408 74.4665 40.3966 75.0128 40.4016 75.692C40.4065 76.3712 39.8604 76.9273 39.1816 76.9322H39.1717C38.4978 76.9322 37.9468 76.3884 37.9419 75.7117ZM42.6103 76.9273C41.9315 76.9224 41.383 76.3712 41.3854 75.6895C41.3854 75.0103 41.9413 74.4615 42.6202 74.4665C43.299 74.4665 43.8475 75.0202 43.8451 75.7018C43.8426 76.3785 43.2917 76.9273 42.6153 76.9273H42.6103Z" fill="url(#paint1_linear_1203_4169)"/>
</g>
<defs>
<linearGradient id="paint0_linear_1203_4169" x1="57.5351" y1="110.306" x2="217.16" y2="110.306" gradientUnits="userSpaceOnUse">
<stop stop-color="#8CD6D6"/>
<stop offset="1" stop-color="#FF9F80"/>
</linearGradient>
<linearGradient id="paint1_linear_1203_4169" x1="0.0336064" y1="108.8" x2="275.034" y2="108.8" gradientUnits="userSpaceOnUse">
<stop stop-color="#8CD6D6"/>
<stop offset="1" stop-color="#FF9F80"/>
</linearGradient>
<clipPath id="clip0_1203_4169">
<rect width="275" height="219" fill="white" transform="translate(0.0332031 0.806152)"/>
</clipPath>
</defs>
</svg>
